<svg xmlns="http://www.w3.org/2000/svg" width="169.961" height="170.404" viewBox="0 0 169.961 170.404"><g transform="translate(-1260.024 -1660)"><path d="M1305.28,1691.018l-45.256-26.129v52.258Z" fill="#e7e000"/><path d="M1333.51,1691.018,1279.785,1660v62.037Z" fill="#e7e000"/><path d="M1313.024,1771.892l32.718,18.89V1753l-32.718-18.89Z" fill="#e50051"/><path d="M1276.028,1822.058H1421.02a8.9,8.9,0,0,0,8.965-8.773v-7.917H1267.063v7.917A8.9,8.9,0,0,0,1276.028,1822.058Z" fill="#e7e000"/><path d="M1429.985,1726.84a8.957,8.957,0,0,0-8.965-8.84H1276.028a8.957,8.957,0,0,0-8.965,8.84v80.965h162.922Zm-50.864,52.7a2.782,2.782,0,0,1-1.39,2.409l-27.816,16.059a2.782,2.782,0,0,1-2.782,0l-27.816-16.059a2.782,2.782,0,0,1-1.39-2.409v-32.119a2.782,2.782,0,0,1,1.39-2.409l27.816-16.06a2.781,2.781,0,0,1,2.782,0l27.816,16.06a2.782,2.782,0,0,1,1.39,2.409Z"/><path d="M1358,1830.4l45.128-26.054v-52.114L1358,1778.291Z" fill="#e50051"/><path d="M1389.469,1716.427l-16.82-9.711-46.375,26.775,16.82,9.711Z" fill="#e7e000"/><path d="M1401.064,1723.122l-46.375,26.775,17.96,10.369,46.375-26.775Z" fill="#e7e000"/></g></svg>