<?xml version="1.0" encoding="utf-8"?>
<!-- Generator: Adobe Illustrator 23.0.3, SVG Export Plug-In . SVG Version: 6.00 Build 0)  -->
<svg version="1.1" id="Layer_1" xmlns="http://www.w3.org/2000/svg" xmlns:xlink="http://www.w3.org/1999/xlink" x="0px" y="0px"
	 viewBox="0 0 785.4 568.6" style="enable-background:new 0 0 785.4 568.6;" xml:space="preserve">
<style type="text/css">
	.st0{fill:#4E2762;}
	.st1{clip-path:url(#SVGID_2_);}
	.st2{enable-background:new    ;}
	.st3{fill:#ECE772;}
	.st4{fill:#FFFFFF;}
	.st5{fill:#C21A1A;}
	.st6{clip-path:url(#SVGID_4_);}
	.st7{fill:#C8461E;}
	.st8{fill:#CF6F22;}
	.st9{fill:none;}
</style>
<title>Asset 8</title>
<g>
	<g id="Layer_1-2">
		<ellipse class="st0" cx="558.8" cy="346" rx="200.2" ry="198.1"/>
		<g>
			<defs>
				<ellipse id="SVGID_1_" cx="558.8" cy="346" rx="200.2" ry="198.1"/>
			</defs>
			<clipPath id="SVGID_2_">
				<use xlink:href="#SVGID_1_"  style="overflow:visible;"/>
			</clipPath>
			<g class="st1">
				<path class="st0" d="M588.4,550.3c0,0-22.7-15.4-18.6-26.7s19.5-10.2,29.6-13.9s17.1-10.2,28.5-12.8s28.8,4.7,45-4.3
					s30.5-66.5,53.5-83.9s59-11,59-11l-15.7,130.7l-61.3,28.5L602,568.6L588.4,550.3z"/>
				<path class="st0" d="M357,322.4c7.2,6.3,26,17.9,46-1.2c0,0-15.2,38.8-14.3,54.3s8,31,18.5,44.2s33.7,40,4.8,76.4
					C410,497.2,348.9,486.2,357,322.4z"/>
				<path class="st0" d="M623.2,141.8c0,0-4.3,29.1,13.6,39.1s21,6.9,27.4,13.4s6.4,32.2,32.9,51.5s33.4,31.3,37.2,39.1
					s12.6,31.3,39.6,31.5l-20-126.2L650.4,150l-12.2-9.3L623.2,141.8z"/>
				<path class="st0" d="M574.9,377.7c5.4-0.8,33.9-14,39.3,1.4s8.6,36.3,19.9,35.8s16.7-14,18.3-18s7-15.3,15.9-10.5
					s12.9,5.9,24.5-7s19.4-10.8,25-5.1s11.6-5.4,5.7-18s-10.7-16.2-12.9-25.9s-8.9-0.3-15.3,5.6s-18.6,9.1-28.5-18.3
					c0,0-6.7-17.2-8.9-22.1s-11-19.9-21.8-2.7s-34.2,14.8-45.5,17s-36.9,5.1-24,24.5c0,0,5.9,8.9,1.6,18.8S559,379,574.9,377.7z"/>
				<path class="st0" d="M361.8,298.4c0,0,20.1,7.9,33.3,1.6s30.7-28.5,39.7-28s14.3-1.6,14.3,31.7s36.5,72.5,70.3,67.7
					s23.8-43.4,7.9-55s-31.7-32.8-11.1-54.5c20.6-21.7,53.4-52.9,41.3-67.2s-46.5-8-46.5-8s29.1-15.3,29.1-43.9s-3.7-30.1-3.7-30.1
					l-96.3,33.8l-80.9,39.6l-17.5,93.1L361.8,298.4z"/>
				<path class="st0" d="M515,419.1c6.4,3.2,28.3,16.6,25,32.9s-25.8,16.3-38.9,11.9c-11.1-3.7-35.6-20.3-25.2-43.8
					C475.9,420,484.1,404.9,515,419.1z"/>
				<path class="st0" d="M587.2,206.7c8.6-10.7,31.8-10.2,44.2-1.1s23,29.1,11.9,42.4s-42.8-6.6-49.7-13
					C584.8,226.9,579.8,216.9,587.2,206.7z"/>
				<path class="st0" d="M661.4,350c0,10-6,20.6-13.1,20.6S635.6,360,635.6,350s5.5-19.7,12.6-19.7S661.4,339.9,661.4,350z"/>
				<path class="st0" d="M506.4,426.4c16.3,8.3,18.9,17.7,16,24.9c-1.8,4.6-11.1,10.8-26.7,3.1S482,432.8,485,427.9
					S497.1,421.8,506.4,426.4z"/>
				<path class="st0" d="M416.6,364.9c9.4-3.2,18.8,19.8,8.3,25.9S406.9,368.2,416.6,364.9z"/>
				<path class="st0" d="M373.4,279.5c0,0,20.6,8.6,40.7-9.2s57.6-48.1,54.2,0.3s18.3,74.3,51.9,65.7c0,0-25.2-13.2-27.5-31.3
					s-2.9-35.8,24.1-65.1s37.3-47.9-1.4-43c-34.7,4.4-53,8.9-40.1-2.9c16.9-15.5,48.5-22.1,53.3-55.6l-77.3,20.3l-63.5,62.9
					l-21.2,36l-1.6,22.7L373.4,279.5z"/>
				<path class="st0" d="M633,146.1c3.1,23.1,4.8,30.5,26.2,38.9c6.5,2.4,12.8,6.3,16.9,22.4c4.5,17.6,24.5,37.2,39.1,48
					c31.7,23.4,21.9,50.5,47.9,46l-31.7-93L633,146.1z"/>
				<path class="st0" d="M603.8,211.5c7.5-4,19.7-3.6,27,4.6s11,20.2-5.7,20.8S595.2,216.7,603.8,211.5z"/>
				<path class="st0" d="M555.6,514c0,7.2-7.5,13-16.7,13s-19.1-8-19.1-15.1s9.9-10.8,19.1-10.8S555.6,506.9,555.6,514z"/>
				<path class="st0" d="M595.7,543c-13.1-7.3-19.7-18-2.6-21.5s20.3-9,26.4-10.5s47.9,1.2,66.2-15.7s32-58.7,40.7-72.6
					s45.6-18.3,45.6-18.3l-40.7,117.3l-71.8,21.8l-56.4,16.8L595.7,543z"/>
				<ellipse class="st0" cx="558.8" cy="346" rx="200.2" ry="198.1"/>
			</g>
		</g>
		<g class="st2">
			<path class="st3" d="M452.8,274.7l-2.2-5.4h-10.3l-2.2,5.4h-5.4l10.4-24.4h4.9l10.4,24.4H452.8z M445.5,256.7l-3.2,7.9h6.5
				L445.5,256.7z"/>
			<path class="st3" d="M472.6,274.7v-10.3c0-1.2-0.3-2.2-0.8-2.8c-0.6-0.6-1.3-1-2.4-1c-1,0-1.8,0.3-2.4,1
				c-0.6,0.6-0.9,1.6-0.9,2.8v10.3h-5.3v-18.6h5.3v2.7c0.3-0.4,0.6-0.8,1-1.1c0.4-0.4,0.8-0.7,1.2-1c0.4-0.3,0.9-0.5,1.5-0.7
				c0.5-0.2,1.1-0.2,1.8-0.2c2,0,3.6,0.6,4.7,1.8c1.1,1.2,1.6,2.9,1.6,5.1v12H472.6z"/>
			<path class="st3" d="M490.4,274.7c-0.7,0.2-1.4,0.3-2.3,0.3c-0.8,0-1.5-0.1-2.2-0.3c-0.7-0.2-1.2-0.5-1.7-0.9
				c-0.5-0.4-0.8-1-1.1-1.7c-0.3-0.7-0.4-1.6-0.4-2.7v-8.8h-2.2v-4.5h2.2v-4.8h5.3v4.8h4.4v4.5h-4.4v7.9c0,1.2,0.6,1.8,1.7,1.8
				c0.9,0,1.8-0.2,2.6-0.7v4.2C491.7,274.3,491.1,274.5,490.4,274.7z"/>
			<path class="st3" d="M514,269.2c-0.5,1.2-1.2,2.2-2.1,3.1c-0.9,0.9-2,1.6-3.2,2.1c-1.2,0.5-2.6,0.8-4,0.8c-1.4,0-2.8-0.2-4-0.7
				c-1.2-0.5-2.3-1.2-3.2-2c-0.9-0.9-1.6-1.9-2.1-3.1c-0.5-1.2-0.8-2.4-0.8-3.8v-0.1c0-1.3,0.3-2.6,0.8-3.8c0.5-1.2,1.2-2.2,2.1-3.1
				c0.9-0.9,2-1.6,3.2-2.1s2.6-0.8,4-0.8c1.4,0,2.8,0.2,4,0.7s2.3,1.2,3.2,2c0.9,0.9,1.6,1.9,2.1,3.1c0.5,1.2,0.8,2.4,0.8,3.8v0.1
				C514.7,266.8,514.5,268,514,269.2z M509.5,265.4c0-0.7-0.1-1.3-0.3-2c-0.2-0.6-0.6-1.2-1-1.6c-0.4-0.5-1-0.8-1.6-1.1
				c-0.6-0.3-1.3-0.4-2-0.4c-0.8,0-1.4,0.1-2,0.4s-1.1,0.6-1.5,1.1c-0.4,0.5-0.7,1-1,1.6s-0.3,1.3-0.3,2v0.1c0,0.7,0.1,1.3,0.3,2
				s0.6,1.2,1,1.6s1,0.8,1.5,1.1c0.6,0.3,1.3,0.4,2,0.4c0.8,0,1.4-0.1,2-0.4s1.1-0.6,1.5-1.1c0.4-0.5,0.7-1,1-1.6
				S509.5,266.2,509.5,265.4L509.5,265.4z"/>
			<path class="st3" d="M529.6,274.7v-10.3c0-1.2-0.3-2.2-0.8-2.8s-1.3-1-2.4-1s-1.8,0.3-2.4,1s-0.9,1.6-0.9,2.8v10.3h-5.3v-18.6
				h5.3v2.7c0.3-0.4,0.6-0.8,1-1.1c0.4-0.4,0.8-0.7,1.2-1c0.4-0.3,0.9-0.5,1.5-0.7s1.1-0.2,1.8-0.2c2,0,3.6,0.6,4.7,1.8
				c1.1,1.2,1.6,2.9,1.6,5.1v12H529.6z"/>
			<path class="st3" d="M538.9,254.1v-4.7h5.5v4.7H538.9z M539,274.7v-18.6h5.3v18.6H539z"/>
			<path class="st3" d="M567,269.2c-0.5,1.2-1.2,2.2-2.1,3.1c-0.9,0.9-2,1.6-3.2,2.1c-1.2,0.5-2.6,0.8-4,0.8c-1.4,0-2.8-0.2-4-0.7
				c-1.2-0.5-2.3-1.2-3.2-2c-0.9-0.9-1.6-1.9-2.1-3.1c-0.5-1.2-0.8-2.4-0.8-3.8v-0.1c0-1.3,0.3-2.6,0.8-3.8c0.5-1.2,1.2-2.2,2.1-3.1
				c0.9-0.9,2-1.6,3.2-2.1s2.6-0.8,4-0.8c1.4,0,2.8,0.2,4,0.7c1.2,0.5,2.3,1.2,3.2,2c0.9,0.9,1.6,1.9,2.1,3.1
				c0.5,1.2,0.8,2.4,0.8,3.8v0.1C567.7,266.8,567.5,268,567,269.2z M562.5,265.4c0-0.7-0.1-1.3-0.3-2c-0.2-0.6-0.6-1.2-1-1.6
				s-1-0.8-1.6-1.1c-0.6-0.3-1.3-0.4-2-0.4c-0.8,0-1.4,0.1-2,0.4c-0.6,0.3-1.1,0.6-1.5,1.1c-0.4,0.5-0.7,1-1,1.6s-0.3,1.3-0.3,2v0.1
				c0,0.7,0.1,1.3,0.3,2c0.2,0.6,0.6,1.2,1,1.6c0.4,0.5,1,0.8,1.5,1.1s1.3,0.4,2,0.4c0.8,0,1.4-0.1,2-0.4c0.6-0.3,1.1-0.6,1.5-1.1
				c0.4-0.5,0.7-1,1-1.6C562.4,266.9,562.5,266.2,562.5,265.4L562.5,265.4z"/>
			<path class="st3" d="M600.5,272.6c-0.7,0.5-1.4,1-2.2,1.4c-0.8,0.4-1.7,0.7-2.6,0.9c-0.9,0.2-2,0.3-3.2,0.3c-1.8,0-3.4-0.3-5-1
				c-1.5-0.6-2.8-1.5-4-2.7c-1.1-1.1-2-2.4-2.6-4c-0.6-1.5-0.9-3.2-0.9-4.9v-0.1c0-1.7,0.3-3.4,0.9-4.9c0.6-1.5,1.5-2.8,2.6-4
				c1.1-1.1,2.4-2,4-2.7c1.5-0.7,3.3-1,5.1-1c1.1,0,2.2,0.1,3.1,0.3c0.9,0.2,1.8,0.4,2.5,0.8c0.8,0.3,1.5,0.7,2.1,1.2
				c0.6,0.5,1.2,1,1.8,1.5l-3.4,3.9c-0.9-0.9-1.9-1.5-2.9-2c-1-0.5-2.1-0.7-3.3-0.7c-1,0-2,0.2-2.8,0.6s-1.6,0.9-2.2,1.6
				c-0.6,0.7-1.1,1.5-1.5,2.4s-0.5,1.9-0.5,2.9v0.1c0,1,0.2,2,0.5,2.9c0.3,0.9,0.8,1.7,1.4,2.4c0.6,0.7,1.4,1.2,2.2,1.6
				c0.9,0.4,1.8,0.6,2.9,0.6c1.4,0,2.6-0.3,3.5-0.8c1-0.5,1.9-1.2,2.9-2.1l3.4,3.4C601.8,271.5,601.2,272.1,600.5,272.6z"/>
			<path class="st3" d="M616.4,274.7v-2c-0.6,0.7-1.4,1.3-2.3,1.7c-0.9,0.4-2,0.6-3.3,0.6c-0.9,0-1.7-0.1-2.5-0.4
				c-0.8-0.2-1.5-0.6-2-1.1c-0.6-0.5-1-1.1-1.4-1.8c-0.3-0.7-0.5-1.5-0.5-2.4v-0.1c0-1,0.2-1.9,0.6-2.6c0.4-0.7,0.9-1.4,1.5-1.8
				s1.4-0.8,2.4-1.1c0.9-0.2,1.9-0.4,3-0.4c0.9,0,1.8,0.1,2.5,0.2c0.7,0.1,1.4,0.3,2.1,0.6v-0.3c0-1.1-0.3-2-1-2.5
				c-0.7-0.6-1.7-0.9-3-0.9c-1,0-1.9,0.1-2.7,0.3c-0.8,0.2-1.6,0.4-2.4,0.7l-1.3-4c1-0.4,2.1-0.8,3.2-1.1c1.1-0.3,2.5-0.4,4-0.4
				c2.9,0,5,0.7,6.3,2.1c1.3,1.4,2,3.4,2,5.9v10.8H616.4z M616.5,267.2c-0.5-0.2-1-0.4-1.5-0.5c-0.6-0.1-1.2-0.2-1.8-0.2
				c-1.1,0-2,0.2-2.7,0.7s-1,1.1-1,1.9v0.1c0,0.7,0.3,1.3,0.8,1.7c0.5,0.4,1.2,0.6,2.1,0.6c1.2,0,2.2-0.3,3-0.9
				c0.8-0.6,1.1-1.4,1.1-2.4V267.2z"/>
			<path class="st3" d="M636.2,261.3c-1.8,0-3.1,0.5-4.1,1.6c-1,1.1-1.5,2.7-1.5,5v6.9h-5.3v-18.6h5.3v3.7c0.5-1.3,1.3-2.3,2.2-3.1
				c0.9-0.8,2.2-1.1,3.7-1v5.5H636.2z"/>
			<path class="st3" d="M639.4,274.7v-25.3h5.3v25.3H639.4z"/>
			<path class="st3" d="M667.3,269.2c-0.5,1.2-1.2,2.2-2.1,3.1c-0.9,0.9-2,1.6-3.2,2.1c-1.2,0.5-2.6,0.8-4,0.8c-1.4,0-2.8-0.2-4-0.7
				c-1.2-0.5-2.3-1.2-3.2-2c-0.9-0.9-1.6-1.9-2.1-3.1c-0.5-1.2-0.8-2.4-0.8-3.8v-0.1c0-1.3,0.3-2.6,0.8-3.8c0.5-1.2,1.2-2.2,2.1-3.1
				c0.9-0.9,2-1.6,3.2-2.1s2.6-0.8,4-0.8c1.4,0,2.8,0.2,4,0.7c1.2,0.5,2.3,1.2,3.2,2c0.9,0.9,1.6,1.9,2.1,3.1
				c0.5,1.2,0.8,2.4,0.8,3.8v0.1C668.1,266.8,667.8,268,667.3,269.2z M662.9,265.4c0-0.7-0.1-1.3-0.3-2c-0.2-0.6-0.6-1.2-1-1.6
				s-1-0.8-1.6-1.1c-0.6-0.3-1.3-0.4-2-0.4c-0.8,0-1.4,0.1-2,0.4c-0.6,0.3-1.1,0.6-1.5,1.1c-0.4,0.5-0.7,1-1,1.6s-0.3,1.3-0.3,2v0.1
				c0,0.7,0.1,1.3,0.3,2c0.2,0.6,0.6,1.2,1,1.6c0.4,0.5,1,0.8,1.5,1.1s1.3,0.4,2,0.4c0.8,0,1.4-0.1,2-0.4c0.6-0.3,1.1-0.6,1.5-1.1
				c0.4-0.5,0.7-1,1-1.6C662.8,266.9,662.9,266.2,662.9,265.4L662.9,265.4z"/>
			<path class="st3" d="M684.3,271.7c-0.4,0.8-0.9,1.4-1.5,1.9c-0.6,0.5-1.4,0.8-2.3,1.1c-0.9,0.2-1.8,0.4-2.8,0.4
				c-1.3,0-2.7-0.2-4-0.7c-1.4-0.5-2.7-1.2-3.9-2.1l2.3-3.5c1,0.7,2,1.3,3,1.7c1,0.4,1.9,0.6,2.8,0.6c0.8,0,1.3-0.1,1.7-0.4
				c0.4-0.3,0.5-0.6,0.5-1v-0.1c0-0.3-0.1-0.5-0.3-0.7s-0.5-0.4-0.8-0.5c-0.4-0.1-0.8-0.3-1.2-0.4c-0.5-0.1-0.9-0.3-1.5-0.5
				c-0.6-0.2-1.3-0.4-2-0.7c-0.7-0.3-1.3-0.6-1.8-1c-0.5-0.4-1-1-1.3-1.6c-0.3-0.6-0.5-1.4-0.5-2.3v-0.1c0-0.9,0.2-1.8,0.5-2.5
				s0.8-1.3,1.5-1.9c0.6-0.5,1.3-0.9,2.2-1.1c0.8-0.3,1.7-0.4,2.7-0.4c1.2,0,2.4,0.2,3.6,0.6c1.2,0.4,2.3,0.9,3.3,1.6l-2,3.6
				c-0.9-0.5-1.8-1-2.7-1.3c-0.9-0.3-1.7-0.5-2.3-0.5c-0.6,0-1.1,0.1-1.5,0.4c-0.3,0.2-0.5,0.5-0.5,0.9v0.1c0,0.3,0.1,0.5,0.3,0.7
				s0.5,0.4,0.8,0.6c0.3,0.2,0.7,0.3,1.2,0.5c0.5,0.2,0.9,0.3,1.4,0.5c0.6,0.2,1.3,0.5,2,0.7s1.3,0.6,1.8,1.1c0.5,0.4,1,0.9,1.3,1.5
				c0.3,0.6,0.5,1.3,0.5,2.2v0.1C684.9,270.1,684.7,271,684.3,271.7z"/>
		</g>
		<g class="st2">
			<path class="st3" d="M481.8,306.4v-2.6c-0.6,0.9-1.4,1.6-2.3,2.2c-0.9,0.6-2.1,0.8-3.5,0.8c-1.1,0-2.1-0.2-3.2-0.6
				c-1-0.4-1.9-1-2.7-1.9c-0.8-0.8-1.4-1.8-1.9-3c-0.5-1.2-0.7-2.6-0.7-4.1v-0.1c0-1.5,0.2-2.9,0.7-4.1c0.5-1.2,1.1-2.2,1.9-3
				c0.8-0.8,1.7-1.4,2.7-1.9c1-0.4,2.1-0.6,3.2-0.6c1.4,0,2.6,0.3,3.5,0.8s1.7,1.2,2.3,1.9v-9.1h5.3v25.3H481.8z M481.8,297.1
				c0-0.8-0.1-1.5-0.4-2.1c-0.2-0.6-0.6-1.2-1-1.6c-0.4-0.5-0.9-0.8-1.4-1c-0.5-0.2-1.1-0.4-1.8-0.4c-0.6,0-1.2,0.1-1.8,0.4
				c-0.5,0.2-1,0.6-1.4,1s-0.7,1-1,1.6c-0.2,0.6-0.4,1.3-0.4,2.1v0.1c0,0.8,0.1,1.5,0.4,2.1c0.2,0.6,0.6,1.2,1,1.6s0.9,0.8,1.4,1
				c0.5,0.2,1.1,0.4,1.8,0.4c0.6,0,1.2-0.1,1.8-0.4c0.5-0.2,1-0.6,1.4-1c0.4-0.5,0.7-1,1-1.6C481.7,298.7,481.8,297.9,481.8,297.1
				L481.8,297.1z"/>
			<path class="st3" d="M508.4,298.3c0,0.2,0,0.4-0.1,0.7h-12.9c0.3,1.2,0.8,2.1,1.6,2.7c0.8,0.6,1.8,0.9,3,0.9
				c0.9,0,1.7-0.2,2.4-0.5c0.7-0.3,1.4-0.8,2.1-1.5l3,2.7c-0.9,1.1-1.9,1.9-3.2,2.5c-1.2,0.6-2.7,0.9-4.4,0.9
				c-1.4,0-2.7-0.2-3.9-0.7c-1.2-0.5-2.2-1.1-3.1-2c-0.9-0.9-1.5-1.9-2-3c-0.5-1.2-0.7-2.5-0.7-3.9v-0.1c0-1.3,0.2-2.6,0.7-3.7
				c0.5-1.2,1.1-2.2,1.9-3.1c0.8-0.9,1.8-1.6,2.9-2.1c1.1-0.5,2.4-0.8,3.7-0.8c1.5,0,2.9,0.3,4,0.8c1.1,0.6,2.1,1.3,2.8,2.2
				c0.8,0.9,1.3,2,1.7,3.2s0.5,2.5,0.5,3.8v0.1C508.4,297.9,508.4,298.1,508.4,298.3z M502,292.8c-0.7-0.7-1.6-1.1-2.7-1.1
				s-2,0.4-2.7,1.1c-0.7,0.7-1.1,1.7-1.3,2.9h7.9C503.1,294.5,502.7,293.6,502,292.8z"/>
			<path class="st3" d="M545.6,299.2c-0.6,1.5-1.5,2.8-2.7,4s-2.5,2-4.1,2.7c-1.6,0.7-3.3,1-5.2,1c-1.9,0-3.6-0.3-5.2-1
				s-2.9-1.5-4.1-2.7c-1.1-1.1-2-2.4-2.7-4c-0.6-1.5-1-3.1-1-4.9v-0.1c0-1.7,0.3-3.4,1-4.9c0.6-1.5,1.5-2.8,2.7-4
				c1.1-1.1,2.5-2,4.1-2.7c1.6-0.7,3.3-1,5.2-1c1.9,0,3.6,0.3,5.2,1c1.6,0.7,2.9,1.5,4.1,2.7c1.1,1.1,2,2.4,2.7,4
				c0.6,1.5,1,3.1,1,4.9v0.1C546.6,296,546.3,297.7,545.6,299.2z M541,294.3c0-1-0.2-2-0.5-2.9c-0.4-0.9-0.9-1.7-1.5-2.4
				c-0.7-0.7-1.4-1.2-2.3-1.6c-0.9-0.4-1.9-0.6-2.9-0.6c-1.1,0-2.1,0.2-3,0.6s-1.7,0.9-2.3,1.6s-1.1,1.5-1.5,2.4s-0.5,1.9-0.5,2.9
				v0.1c0,1,0.2,2,0.5,2.9c0.4,0.9,0.9,1.7,1.5,2.4s1.4,1.2,2.3,1.6s1.9,0.6,3,0.6c1.1,0,2-0.2,2.9-0.6s1.7-0.9,2.3-1.6
				c0.6-0.7,1.1-1.5,1.5-2.4C540.9,296.4,541,295.4,541,294.3L541,294.3z"/>
			<path class="st3" d="M550.4,306.4v-25.3h5.3v25.3H550.4z"/>
			<path class="st3" d="M560,285.8v-4.7h5.5v4.7H560z M560.1,306.4v-18.6h5.3v18.6H560.1z"/>
			<path class="st3" d="M580.1,306.6h-4.8l-7.3-18.7h5.6l4.2,12.5l4.2-12.5h5.5L580.1,306.6z"/>
			<path class="st3" d="M607.1,298.3c0,0.2,0,0.4-0.1,0.7h-12.9c0.3,1.2,0.8,2.1,1.6,2.7s1.8,0.9,3,0.9c0.9,0,1.7-0.2,2.4-0.5
				c0.7-0.3,1.4-0.8,2.2-1.5l3,2.7c-0.9,1.1-1.9,1.9-3.2,2.5c-1.2,0.6-2.7,0.9-4.4,0.9c-1.4,0-2.7-0.2-3.9-0.7
				c-1.2-0.5-2.2-1.1-3.1-2s-1.5-1.9-2-3c-0.5-1.2-0.7-2.5-0.7-3.9v-0.1c0-1.3,0.2-2.6,0.7-3.7c0.5-1.2,1.1-2.2,1.9-3.1
				c0.8-0.9,1.8-1.6,2.9-2.1c1.1-0.5,2.4-0.8,3.7-0.8c1.5,0,2.9,0.3,4,0.8c1.1,0.6,2.1,1.3,2.8,2.2s1.3,2,1.7,3.2
				c0.4,1.2,0.5,2.5,0.5,3.8v0.1C607.1,297.9,607.1,298.1,607.1,298.3z M600.8,292.8c-0.7-0.7-1.6-1.1-2.7-1.1c-1.1,0-2,0.4-2.7,1.1
				s-1.1,1.7-1.3,2.9h7.9C601.8,294.5,601.4,293.6,600.8,292.8z"/>
			<path class="st3" d="M610.5,285.8v-4.7h5.5v4.7H610.5z M610.6,306.4v-18.6h5.3v18.6H610.6z"/>
			<path class="st3" d="M631.1,293c-1.8,0-3.1,0.5-4.1,1.6c-1,1.1-1.5,2.7-1.5,5v6.9h-5.3v-18.6h5.3v3.7c0.5-1.3,1.3-2.3,2.2-3.1
				c0.9-0.8,2.2-1.1,3.7-1v5.5H631.1z"/>
			<path class="st3" d="M644.8,306.4v-2c-0.6,0.7-1.4,1.3-2.3,1.7s-2,0.6-3.3,0.6c-0.9,0-1.7-0.1-2.5-0.4c-0.8-0.2-1.5-0.6-2-1.1
				c-0.6-0.5-1-1.1-1.4-1.8s-0.5-1.5-0.5-2.4V301c0-1,0.2-1.9,0.6-2.6c0.4-0.7,0.9-1.4,1.5-1.8c0.7-0.5,1.4-0.8,2.4-1.1
				c0.9-0.2,1.9-0.4,3-0.4c0.9,0,1.8,0.1,2.5,0.2c0.7,0.1,1.4,0.3,2.1,0.6v-0.3c0-1.1-0.3-2-1-2.5c-0.7-0.6-1.7-0.9-3-0.9
				c-1,0-1.9,0.1-2.7,0.3c-0.8,0.2-1.6,0.4-2.4,0.7l-1.3-4c1-0.4,2.1-0.8,3.2-1.1c1.1-0.3,2.5-0.4,4-0.4c2.9,0,5,0.7,6.3,2.1
				c1.3,1.4,2,3.4,2,5.9v10.8H644.8z M644.9,298.9c-0.5-0.2-1-0.4-1.5-0.5c-0.6-0.1-1.2-0.2-1.8-0.2c-1.1,0-2,0.2-2.7,0.7
				c-0.6,0.4-1,1.1-1,1.9v0.1c0,0.7,0.3,1.3,0.8,1.7c0.5,0.4,1.2,0.6,2.1,0.6c1.2,0,2.2-0.3,3-0.9c0.8-0.6,1.1-1.4,1.1-2.4V298.9z"
				/>
		</g>
		<g class="st2">
			<path class="st4" d="M489.7,321.5h5.6c5,0,8.5,3.5,8.5,8v0c0,4.5-3.5,8-8.5,8h-5.6V321.5z M491.6,323.1v12.7h3.8
				c4.1,0,6.6-2.7,6.6-6.3v0c0-3.5-2.6-6.3-6.6-6.3H491.6z"/>
			<path class="st4" d="M507.4,321.1h2v1.9h-2V321.1z M507.5,325.6h1.8v11.8h-1.8V325.6z"/>
		</g>
		<g class="st2">
			<path class="st4" d="M513.4,325.6h1.8v3.1c0.9-2,2.6-3.4,4.8-3.3v1.9h-0.1c-2.6,0-4.7,1.9-4.7,5.4v4.7h-1.8V325.6z"/>
		</g>
		<g class="st2">
			<path class="st4" d="M521.4,331.6L521.4,331.6c0-3.5,2.4-6.2,5.7-6.2c3.5,0,5.5,2.8,5.5,6.2c0,0.2,0,0.4,0,0.6h-9.4
				c0.3,2.6,2.1,4,4.2,4c1.6,0,2.8-0.7,3.7-1.7l1.1,1c-1.2,1.3-2.6,2.2-4.9,2.2C524.1,337.8,521.4,335.3,521.4,331.6z M530.8,330.9
				c-0.2-2.2-1.4-4-3.8-4c-2.1,0-3.6,1.7-3.8,4H530.8z"/>
		</g>
		<g class="st2">
			<path class="st4" d="M536.3,334.3v-7.1h-1.6v-1.6h1.6v-3.6h1.8v3.6h3.8v1.6h-3.8v6.9c0,1.4,0.8,2,2,2c0.6,0,1.1-0.1,1.7-0.4v1.5
				c-0.6,0.3-1.3,0.5-2.1,0.5C537.7,337.7,536.3,336.7,536.3,334.3z"/>
		</g>
		<g class="st2">
			<path class="st4" d="M543.9,331.6L543.9,331.6c0-3.4,2.6-6.2,6.2-6.2c3.5,0,6.2,2.8,6.2,6.1v0c0,3.3-2.6,6.2-6.2,6.2
				C546.4,337.8,543.9,335,543.9,331.6z M554.4,331.6L554.4,331.6c0-2.6-1.9-4.7-4.4-4.7c-2.6,0-4.3,2.1-4.3,4.6v0
				c0,2.5,1.9,4.6,4.4,4.6C552.6,336.2,554.4,334.1,554.4,331.6z"/>
			<path class="st4" d="M559.4,325.6h1.8v3.1c0.9-2,2.6-3.4,4.8-3.3v1.9h-0.1c-2.6,0-4.7,1.9-4.7,5.4v4.7h-1.8V325.6z"/>
			<path class="st4" d="M574.8,331.6L574.8,331.6c0-3.9,2.8-6.2,5.7-6.2c2.2,0,3.6,1.2,4.5,2.5v-7.1h1.8v16.7H585v-2.4
				c-1,1.4-2.4,2.6-4.5,2.6C577.6,337.7,574.8,335.5,574.8,331.6z M585.1,331.6L585.1,331.6c0-2.8-2.1-4.6-4.3-4.6
				c-2.3,0-4.2,1.7-4.2,4.6v0c0,2.8,1.9,4.6,4.2,4.6C583,336.2,585.1,334.3,585.1,331.6z"/>
			<path class="st4" d="M590,331.6L590,331.6c0-3.5,2.4-6.2,5.7-6.2c3.5,0,5.5,2.8,5.5,6.2c0,0.2,0,0.4,0,0.6h-9.4
				c0.3,2.6,2.1,4,4.2,4c1.6,0,2.8-0.7,3.7-1.7l1.1,1c-1.2,1.3-2.6,2.2-4.9,2.2C592.6,337.8,590,335.3,590,331.6z M599.4,330.9
				c-0.2-2.2-1.4-4-3.8-4c-2.1,0-3.6,1.7-3.8,4H599.4z"/>
			<path class="st4" d="M615.7,323.1h-5.4v-1.7h12.6v1.7h-5.4v14.4h-1.8V323.1z"/>
			<path class="st4" d="M626.4,321.5h1.8v16h-1.8V321.5z"/>
		</g>
		<g class="st2">
			<path class="st4" d="M483,417.7h-3.4v-1.2h3.4v-3.4h1.2v3.4h3.4v1.2h-3.4v3.4H483V417.7z"/>
			<path class="st4" d="M490.7,421.3l0.9-0.9c1,1,2.1,1.6,3.3,1.6c1.7,0,2.8-1.1,2.8-2.6v0c0-1.4-1.2-2.4-2.9-2.4
				c-1,0-1.8,0.3-2.4,0.7l-0.9-0.6l0.3-5.7h6.7v1.2h-5.5l-0.2,3.7c0.7-0.3,1.3-0.5,2.3-0.5c2.3,0,4,1.3,4,3.5v0
				c0,2.3-1.7,3.8-4.1,3.8C493.1,423.2,491.7,422.4,490.7,421.3z"/>
			<path class="st4" d="M501.8,421.3l0.9-0.9c1,1,2.1,1.6,3.3,1.6c1.7,0,2.8-1.1,2.8-2.6v0c0-1.4-1.2-2.4-2.9-2.4
				c-1,0-1.8,0.3-2.4,0.7l-0.9-0.6l0.3-5.7h6.7v1.2H504l-0.2,3.7c0.7-0.3,1.3-0.5,2.3-0.5c2.3,0,4,1.3,4,3.5v0
				c0,2.3-1.7,3.8-4.1,3.8C504.3,423.2,502.8,422.4,501.8,421.3z"/>
		</g>
		<g class="st2">
			<path class="st4" d="M521,412.6l-2.2,0.7l-0.3-1.1l2.8-1h1V423H521V412.6z"/>
		</g>
		<g class="st2">
			<path class="st4" d="M526.7,412.6l-2.2,0.7l-0.3-1.1l2.8-1h1V423h-1.3V412.6z"/>
		</g>
		<g class="st2">
			<path class="st4" d="M547.9,419.4h-8l-0.4-1.3l8.6-10.5h1.5v10.3h2.4v1.4h-2.4v3.6h-1.7V419.4z M547.9,417.9v-7.9l-6.4,7.9H547.9
				z"/>
			<path class="st4" d="M555.5,421.7l5.5-4.9c2.3-2.1,3.2-3.3,3.2-4.8c0-1.8-1.4-2.9-3.1-2.9c-1.7,0-2.9,0.9-4.1,2.6l-1.3-0.9
				c1.4-2,2.8-3.2,5.5-3.2c2.7,0,4.7,1.8,4.7,4.3v0c0,2.2-1.2,3.6-3.9,5.9l-4.1,3.6h8.1v1.6h-10.6V421.7z"/>
			<path class="st4" d="M569.9,418.9L569.9,418.9c0-1.8,1.3-3.1,3.1-3.8c-1.4-0.7-2.6-1.7-2.6-3.5v0c0-2.3,2.4-4,5.2-4
				s5.2,1.7,5.2,4v0c0,1.8-1.2,2.9-2.6,3.5c1.8,0.7,3.1,1.9,3.1,3.7v0c0,2.6-2.5,4.3-5.7,4.3S569.9,421.4,569.9,418.9z M579.6,418.8
				L579.6,418.8c0-1.7-1.8-2.9-4-2.9s-4,1.2-4,2.9v0c0,1.5,1.5,2.8,4,2.8S579.6,420.4,579.6,418.8z M579.1,411.7L579.1,411.7
				c0-1.5-1.5-2.7-3.5-2.7c-2,0-3.5,1.1-3.5,2.6v0c0,1.7,1.5,2.8,3.5,2.8S579.1,413.4,579.1,411.7z"/>
			<path class="st4" d="M585.1,415.4L585.1,415.4c0-4.3,2.5-7.9,6.5-7.9c3.9,0,6.4,3.6,6.4,7.8v0c0,4.3-2.5,7.9-6.4,7.9
				C587.6,423.2,585.1,419.7,585.1,415.4z M596.2,415.4L596.2,415.4c0-3.4-1.8-6.4-4.7-6.4c-2.9,0-4.6,2.9-4.6,6.3v0
				c0,3.3,1.8,6.3,4.7,6.3S596.2,418.7,596.2,415.4z"/>
		</g>
		<g class="st2">
			<path class="st4" d="M619.5,415.3V415c-1,1.5-2.4,2.4-4.3,2.4c-3.1,0-5.3-2-5.3-4.7v0c0-2.9,2.2-5.2,5.5-5.2c1.7,0,3,0.6,4,1.6
				c1.2,1.2,1.9,2.9,1.9,5.9v0c0,4.8-2.6,8.2-6.3,8.2c-2,0-3.4-0.8-4.7-1.9l1-1.3c1.2,1.1,2.4,1.6,3.7,1.6
				C617.9,421.7,619.5,418.6,619.5,415.3z M619.1,412.5L619.1,412.5c0-2-1.6-3.5-3.9-3.5c-2.3,0-3.7,1.7-3.7,3.6v0
				c0,1.9,1.5,3.3,3.7,3.3C617.7,416,619.1,414.3,619.1,412.5z"/>
		</g>
		<g class="st2">
			<path class="st4" d="M624.7,421.7l5.5-4.9c2.3-2.1,3.2-3.3,3.2-4.8c0-1.8-1.4-2.9-3.1-2.9c-1.7,0-2.9,0.9-4.1,2.6l-1.3-0.9
				c1.4-2,2.8-3.2,5.5-3.2c2.7,0,4.7,1.8,4.7,4.3v0c0,2.2-1.2,3.6-3.9,5.9l-4.1,3.6h8.1v1.6h-10.6V421.7z"/>
		</g>
		<g class="st2">
			<path class="st4" d="M647.6,409.3h-8.4v-1.6h10.3v1.3l-6.9,13.9h-1.9L647.6,409.3z"/>
		</g>
		<g class="st2">
			<path class="st4" d="M652.7,421.7l5.5-4.9c2.3-2.1,3.2-3.3,3.2-4.8c0-1.8-1.4-2.9-3.1-2.9c-1.7,0-2.9,0.9-4.1,2.6l-1.3-0.9
				c1.4-2,2.8-3.2,5.5-3.2c2.7,0,4.7,1.8,4.7,4.3v0c0,2.2-1.2,3.6-3.9,5.9l-4.1,3.6h8.1v1.6h-10.6V421.7z"/>
		</g>
		<path class="st3" d="M461.2,370.8c-6.1,0-11,4.9-11,11s4.9,11,11,11s11-4.9,11-11l0,0C472.2,375.8,467.3,370.8,461.2,370.8z
			 M467.4,387l-2.2,1.6c-0.1,0.1-0.2,0.1-0.4,0.2c-0.1,0-0.3,0.1-0.4,0.1h-0.1h-0.2c-0.3-0.1-0.6-0.1-0.9-0.2
			c-0.5-0.2-1-0.4-1.4-0.7c-0.6-0.4-1.3-0.9-1.8-1.4c-0.7-0.7-1.4-1.5-2-2.4c-0.5-0.7-1-1.4-1.3-2.1c-0.3-0.6-0.6-1.2-0.8-1.8
			c-0.2-0.5-0.3-1-0.4-1.5c-0.1-0.4-0.1-0.7-0.1-1.1c0-0.2,0-0.5,0.1-0.7c0-0.2,0.1-0.3,0.1-0.3c0-0.1,0.1-0.3,0.2-0.4
			c0.1-0.1,0.2-0.2,0.3-0.3l2.2-1.6c0.1-0.1,0.3-0.1,0.5-0.1c0.1,0,0.2,0.1,0.3,0.2c0.1,0.1,0.2,0.2,0.2,0.3l1,3.1
			c0.1,0.2,0.1,0.3,0,0.5c-0.1,0.2-0.2,0.3-0.3,0.4l-0.8,0.6l-0.1,0.1c0,0,0,0.1,0,0.1c0,0.2,0.1,0.5,0.1,0.7
			c0.1,0.3,0.2,0.6,0.4,0.9c0.2,0.5,0.5,0.9,0.8,1.3c0.3,0.4,0.6,0.8,1,1.2c0.2,0.2,0.5,0.5,0.8,0.7c0.1,0.1,0.3,0.2,0.5,0.3
			l0.2,0.1h0.1h0.1l0.9-0.7c0.2-0.1,0.4-0.2,0.6-0.1c0.1,0,0.3,0.1,0.4,0.1l0,0l2.5,2.1c0.2,0.1,0.3,0.3,0.3,0.5
			C467.7,386.7,467.6,386.9,467.4,387z"/>
		<g class="st2">
			<path class="st4" d="M510,445.4h1.7v1.9c0.7-1.1,1.7-2.1,3.6-2.1c1.8,0,3,1,3.6,2.2c0.8-1.2,2-2.2,4-2.2c2.6,0,4.2,1.7,4.2,4.5v7
				h-1.7v-6.6c0-2.2-1.1-3.4-2.9-3.4c-1.7,0-3.1,1.3-3.1,3.5v6.5h-1.7v-6.6c0-2.1-1.1-3.4-2.9-3.4s-3.1,1.5-3.1,3.5v6.4H510V445.4z"
				/>
			<path class="st4" d="M531.1,453.4L531.1,453.4c0-2.4,2-3.7,4.8-3.7c1.4,0,2.5,0.2,3.5,0.5v-0.4c0-2-1.2-3.1-3.4-3.1
				c-1.3,0-2.4,0.3-3.4,0.8l-0.5-1.4c1.2-0.6,2.5-0.9,4.1-0.9c1.6,0,2.8,0.4,3.6,1.2c0.8,0.8,1.2,1.8,1.2,3.3v6.9h-1.6V455
				c-0.8,1-2.1,1.9-4.1,1.9C533.2,456.9,531.1,455.7,531.1,453.4z M539.4,452.6v-1.1c-0.8-0.2-1.9-0.5-3.3-0.5
				c-2.1,0-3.3,0.9-3.3,2.3v0c0,1.4,1.3,2.2,2.8,2.2C537.7,455.6,539.4,454.3,539.4,452.6z"/>
			<path class="st4" d="M545.9,445.4h1.7v2.9c0.8-1.9,2.5-3.2,4.6-3.1v1.8H552c-2.5,0-4.5,1.8-4.5,5.2v4.5h-1.7V445.4z"/>
		</g>
		<g class="st2">
			<path class="st4" d="M556.6,453.7v-6.8H555v-1.5h1.6V442h1.7v3.4h3.6v1.5h-3.6v6.6c0,1.4,0.8,1.9,1.9,1.9c0.6,0,1-0.1,1.6-0.4
				v1.4c-0.6,0.3-1.2,0.5-2,0.5C557.9,456.9,556.6,456,556.6,453.7z"/>
		</g>
		<g class="st2">
			<path class="st4" d="M565.1,451.1L565.1,451.1c0-3.3,2.3-5.9,5.4-5.9c3.3,0,5.2,2.7,5.2,5.9c0,0.2,0,0.3,0,0.5h-8.9
				c0.2,2.4,2,3.8,4,3.8c1.5,0,2.6-0.6,3.5-1.6l1,0.9c-1.1,1.3-2.5,2.1-4.6,2.1C567.6,457,565.1,454.6,565.1,451.1z M574,450.4
				c-0.2-2-1.3-3.8-3.6-3.8c-2,0-3.4,1.6-3.7,3.8H574z"/>
			<path class="st4" d="M580.1,440.8h1.7v15.9h-1.7V440.8z"/>
			<path class="st4" d="M586.1,453.4L586.1,453.4c0-2.4,2-3.7,4.8-3.7c1.4,0,2.5,0.2,3.5,0.5v-0.4c0-2-1.2-3.1-3.4-3.1
				c-1.3,0-2.4,0.3-3.4,0.8l-0.5-1.4c1.2-0.6,2.5-0.9,4.1-0.9c1.6,0,2.8,0.4,3.6,1.2c0.8,0.8,1.2,1.8,1.2,3.3v6.9h-1.6V455
				c-0.8,1-2.1,1.9-4.1,1.9C588.2,456.9,586.1,455.7,586.1,453.4z M594.4,452.6v-1.1c-0.8-0.2-1.9-0.5-3.3-0.5
				c-2.1,0-3.3,0.9-3.3,2.3v0c0,1.4,1.3,2.2,2.8,2.2C592.7,455.6,594.4,454.3,594.4,452.6z"/>
			<path class="st4" d="M602.5,454.5v2.2h-1.7v-15.9h1.7v6.9c0.9-1.3,2.2-2.5,4.3-2.5c2.7,0,5.4,2.1,5.4,5.8v0
				c0,3.7-2.7,5.9-5.4,5.9C604.8,456.9,603.4,455.8,602.5,454.5z M610.5,451.1L610.5,451.1c0-2.7-1.8-4.4-4-4.4
				c-2.1,0-4.1,1.8-4.1,4.3v0c0,2.6,2,4.4,4.1,4.4C608.7,455.4,610.5,453.8,610.5,451.1z"/>
		</g>
		<g class="st2">
			<path class="st4" d="M483,383.8h-3.4v-1.2h3.4v-3.4h1.2v3.4h3.4v1.2h-3.4v3.4H483V383.8z"/>
			<path class="st4" d="M490.7,387.4l0.9-0.9c1,1,2.1,1.6,3.3,1.6c1.7,0,2.8-1.1,2.8-2.6v0c0-1.4-1.2-2.4-2.9-2.4
				c-1,0-1.8,0.3-2.4,0.7l-0.9-0.6l0.3-5.7h6.7v1.2h-5.5l-0.2,3.7c0.7-0.3,1.3-0.5,2.3-0.5c2.3,0,4,1.3,4,3.5v0
				c0,2.3-1.7,3.8-4.1,3.8C493.2,389.2,491.7,388.4,490.7,387.4z"/>
			<path class="st4" d="M501.8,387.4l0.9-0.9c1,1,2.1,1.6,3.3,1.6c1.7,0,2.8-1.1,2.8-2.6v0c0-1.4-1.2-2.4-2.9-2.4
				c-1,0-1.8,0.3-2.4,0.7l-0.9-0.6l0.3-5.7h6.7v1.2h-5.5l-0.2,3.7c0.7-0.3,1.3-0.5,2.3-0.5c2.3,0,4,1.3,4,3.5v0
				c0,2.3-1.7,3.8-4.1,3.8C504.3,389.2,502.9,388.4,501.8,387.4z"/>
		</g>
		<g class="st2">
			<path class="st4" d="M521,378.7l-2.2,0.7l-0.3-1.1l2.8-1h1V389H521V378.7z"/>
		</g>
		<g class="st2">
			<path class="st4" d="M526.7,378.7l-2.2,0.7l-0.3-1.1l2.8-1h1V389h-1.3V378.7z"/>
		</g>
		<g class="st2">
			<path class="st4" d="M547.7,381.4v-0.3c-1,1.5-2.3,2.4-4.3,2.4c-3.1,0-5.3-2-5.3-4.7v0c0-2.9,2.2-5.2,5.5-5.2c1.7,0,3,0.6,4,1.6
				c1.2,1.2,1.9,2.9,1.9,5.9v0c0,4.8-2.6,8.2-6.3,8.2c-2,0-3.4-0.8-4.7-1.9l1-1.3c1.2,1.1,2.4,1.6,3.7,1.6
				C546.1,387.7,547.7,384.7,547.7,381.4z M547.3,378.6L547.3,378.6c0-2-1.6-3.5-3.9-3.5s-3.7,1.7-3.7,3.6v0c0,1.9,1.5,3.3,3.7,3.3
				C545.9,382,547.3,380.3,547.3,378.6z"/>
		</g>
		<g class="st2">
			<path class="st4" d="M561.5,375.4h-8.4v-1.6h10.3v1.3l-6.9,13.9h-1.9L561.5,375.4z"/>
		</g>
		<g class="st2">
			<path class="st4" d="M570,375.5l-2.9,0.9l-0.4-1.4l3.7-1.3h1.3V389H570V375.5z"/>
			<path class="st4" d="M576.3,384.9L576.3,384.9c0-1.8,1.3-3.1,3.1-3.8c-1.4-0.7-2.6-1.7-2.6-3.5v0c0-2.3,2.4-4,5.2-4
				s5.2,1.7,5.2,4v0c0,1.8-1.2,2.9-2.6,3.5c1.8,0.7,3.1,1.9,3.1,3.7v0c0,2.6-2.5,4.3-5.7,4.3S576.3,387.5,576.3,384.9z M586,384.9
				L586,384.9c0-1.7-1.8-2.9-4-2.9c-2.2,0-4,1.2-4,2.9v0c0,1.5,1.5,2.8,4,2.8C584.5,387.7,586,386.4,586,384.9z M585.5,377.8
				L585.5,377.8c0-1.5-1.5-2.7-3.5-2.7c-2,0-3.5,1.1-3.5,2.6v0c0,1.7,1.5,2.8,3.5,2.8S585.5,379.4,585.5,377.8z"/>
			<path class="st4" d="M591.3,386.6l1.3-1.1c1.2,1.4,2.6,2.3,4.4,2.3c1.8,0,3.3-1.2,3.3-3v0c0-1.9-1.8-2.9-4.3-2.9h-1l-0.3-1
				l4.8-5.4h-7.4v-1.5h9.7v1.3l-4.8,5.3c2.7,0.2,5,1.5,5,4.3v0c0,2.7-2.3,4.6-5.1,4.6C594.4,389.3,592.5,388.2,591.3,386.6z"/>
			<path class="st4" d="M613.8,386.6l1.3-1.1c1.2,1.4,2.6,2.3,4.4,2.3c1.8,0,3.3-1.2,3.3-3v0c0-1.9-1.8-2.9-4.3-2.9h-1l-0.3-1
				l4.8-5.4h-7.4v-1.5h9.7v1.3l-4.8,5.3c2.7,0.2,5,1.5,5,4.3v0c0,2.7-2.3,4.6-5.1,4.6C616.9,389.3,615,388.2,613.8,386.6z"/>
		</g>
		<g class="st2">
			<path class="st4" d="M636.7,385.4h-8l-0.4-1.3l8.6-10.5h1.5V384h2.3v1.4h-2.3v3.6h-1.7V385.4z M636.7,384v-7.9l-6.4,7.9H636.7z"
				/>
		</g>
		<g class="st2">
			<path class="st4" d="M646.7,375.5l-2.9,0.9l-0.4-1.4l3.7-1.3h1.3V389h-1.7V375.5z"/>
			<path class="st4" d="M662.9,381.4v-0.3c-1,1.5-2.4,2.4-4.3,2.4c-3.1,0-5.3-2-5.3-4.7v0c0-2.9,2.2-5.2,5.5-5.2c1.7,0,3,0.6,4,1.6
				c1.2,1.2,1.9,2.9,1.9,5.9v0c0,4.8-2.6,8.2-6.3,8.2c-2,0-3.4-0.8-4.7-1.9l1-1.3c1.2,1.1,2.4,1.6,3.7,1.6
				C661.3,387.7,662.9,384.7,662.9,381.4z M662.6,378.6L662.6,378.6c0-2-1.6-3.5-3.9-3.5c-2.3,0-3.7,1.7-3.7,3.6v0
				c0,1.9,1.5,3.3,3.7,3.3C661.1,382,662.6,380.3,662.6,378.6z"/>
		</g>
		<path class="st3" d="M461.2,404.5c-6.1,0-11,4.9-11,11s4.9,11,11,11s11-4.9,11-11S467.3,404.5,461.2,404.5L461.2,404.5z
			 M467.4,420.6l-2.2,1.6c-0.1,0.1-0.2,0.1-0.4,0.2c-0.1,0-0.3,0.1-0.4,0.1h-0.1h-0.2c-0.3-0.1-0.6-0.1-0.9-0.2
			c-0.5-0.2-1-0.4-1.4-0.7c-0.6-0.4-1.2-0.9-1.8-1.4c-0.7-0.7-1.4-1.5-2-2.4c-0.5-0.7-1-1.4-1.3-2.2c-0.3-0.6-0.6-1.2-0.8-1.8
			c-0.2-0.5-0.3-1-0.4-1.5c-0.1-0.4-0.1-0.7-0.1-1.1c0-0.2,0-0.5,0.1-0.7c0-0.2,0.1-0.3,0.1-0.3c0-0.1,0.1-0.3,0.2-0.4
			c0.1-0.1,0.2-0.2,0.3-0.3l2.2-1.6c0.1-0.1,0.3-0.2,0.5-0.1c0.1,0,0.2,0.1,0.3,0.2c0.1,0.1,0.2,0.2,0.2,0.3l1,3.1
			c0.1,0.2,0.1,0.3,0,0.5c-0.1,0.2-0.2,0.3-0.3,0.4l-0.8,0.6c0,0,0,0-0.1,0.1c0,0,0,0.1,0,0.1c0,0.2,0.1,0.5,0.1,0.7
			c0.1,0.3,0.2,0.6,0.4,0.9c0.5,0.9,1.1,1.7,1.8,2.5c0.2,0.2,0.5,0.5,0.8,0.7c0.1,0.1,0.3,0.2,0.5,0.3l0.2,0.1c0,0,0,0,0.1,0h0.1
			l1-0.7c0.2-0.1,0.4-0.2,0.6-0.1c0.1,0,0.3,0.1,0.4,0.1l0,0l2.5,2.1c0.2,0.1,0.3,0.3,0.3,0.5C467.7,420.4,467.6,420.6,467.4,420.6
			L467.4,420.6z"/>
		<path class="st3" d="M489.3,448.9c-1,0-1.8,0.8-1.8,1.8s0.8,1.8,1.8,1.8c1,0,1.8-0.8,1.8-1.8S490.3,448.9,489.3,448.9L489.3,448.9
			z"/>
		<path class="st3" d="M494.1,447.3c-0.2-0.9-0.9-1.5-1.8-1.5h-6c-0.1,0-0.2,0-0.3,0c-0.9,0.1-1.5,0.9-1.5,1.8v6.1
			c0,0.1,0,0.2,0,0.3c0.1,0.9,0.9,1.5,1.8,1.5h6c0.1,0,0.2,0,0.4,0c0.9-0.1,1.5-0.9,1.5-1.8v-6C494.1,447.6,494.1,447.5,494.1,447.3
			z M489.3,454.2L489.3,454.2c-2-0.1-3.5-1.8-3.3-3.7c0.1-1.8,1.5-3.3,3.3-3.3l0,0c2,0.1,3.5,1.8,3.3,3.7
			C492.5,452.7,491.1,454.1,489.3,454.2z M492.6,448.1c-0.4,0-0.7-0.3-0.7-0.7c0-0.4,0.3-0.7,0.7-0.7l0,0c0.4,0,0.8,0.2,0.8,0.6
			c0,0.4-0.2,0.8-0.6,0.8C492.7,448.1,492.7,448.1,492.6,448.1z"/>
		<path class="st3" d="M489.3,439.7c-6.1,0-11,4.9-11,11s4.9,11,11,11s11-4.9,11-11S495.4,439.7,489.3,439.7L489.3,439.7z
			 M496,448.9c0,1.6,0,3.2,0,4.8c0,0.2,0,0.5-0.1,0.7c-0.2,1.4-1.3,2.5-2.7,2.9c-0.1,0-0.3,0.1-0.4,0.1h-0.2l0,0h-6.8h-0.2
			c-1.4-0.3-2.6-1.3-2.9-2.8c0-0.1,0-0.2-0.1-0.4V454v-6.7v-0.1c0-0.1,0-0.2,0-0.3c0.4-1.7,1.8-2.9,3.5-2.9h6.1c0.3,0,0.6,0,0.9,0.1
			c1.6,0.4,2.8,1.9,2.8,3.6L496,448.9z"/>
		<path class="st3" d="M462.4,449.3L462.4,449.3z"/>
		<path class="st3" d="M461.2,439.7c-6.1,0-11,4.9-11,11s4.9,11,11,11s11-4.9,11-11S467.3,439.7,461.2,439.7L461.2,439.7z
			 M458.3,456.1h-2.6v-7.9h2.6V456.1z M457,447.1L457,447.1c-0.8-0.1-1.3-0.8-1.2-1.5c0.1-0.8,0.8-1.3,1.5-1.2
			c0.7,0.1,1.2,0.7,1.2,1.4c0,0.8-0.6,1.4-1.3,1.4C457.1,447.1,457.1,447.1,457,447.1L457,447.1z M467.8,456.1h-2.6v-4.2
			c0-1.1-0.4-1.8-1.3-1.8c-0.6,0-1.2,0.4-1.4,1c-0.1,0.2-0.1,0.4-0.1,0.6v4.4h-2.6c0,0,0-7.2,0-7.9h2.6v1.1c0.5-0.8,1.4-1.4,2.4-1.3
			c1.7,0,3,1.1,3,3.6L467.8,456.1z"/>
		<ellipse class="st5" cx="216.9" cy="233" rx="200.1" ry="197.9"/>
		<g>
			<defs>
				<ellipse id="SVGID_3_" cx="216.9" cy="233" rx="200.1" ry="197.9"/>
			</defs>
			<clipPath id="SVGID_4_">
				<use xlink:href="#SVGID_3_"  style="overflow:visible;"/>
			</clipPath>
			<g class="st6">
				<path class="st7" d="M246.5,437.1c0,0-22.6-15.4-18.6-26.7s19.4-10.2,29.6-13.9c10.2-3.8,17.1-10.1,28.5-12.8s28.7,4.6,45-4.3
					s30.5-66.5,53.4-83.9s58.9-11,58.9-11l-15.7,130.6l-61.2,28.4l-106.2,11.9L246.5,437.1z"/>
				<path class="st7" d="M15.2,209.4c7.2,6.3,25.9,17.9,45.9-1.2c0,0-15.2,38.8-14.3,54.2s8,31,18.5,44.1s33.7,39.9,4.8,76.3
					C68.2,384.1,7.1,373.1,15.2,209.4z"/>
				<path class="st7" d="M281.2,29c0,0-4.2,29.1,13.6,39.1s21,6.9,27.4,13.4s6.4,32.2,32.9,51.5s33.4,31.2,37.2,39.1
					s12.6,31.2,39.6,31.5l-20-126.1L308.4,37.1l-12.2-9.3L281.2,29z"/>
				<path class="st7" d="M233,264.6c5.4-0.8,33.9-14,39.3,1.4s8.6,36.3,19.9,35.8s16.7-14,18.3-18s7-15.3,15.9-10.5s12.9,5.9,24.5-7
					s19.4-10.8,25-5.1s11.6-5.4,5.7-18s-10.8-16.2-12.9-25.8s-8.9-0.3-15.3,5.6s-18.6,9.1-28.5-18.3c0,0-6.7-17.2-8.9-22
					s-11-19.9-21.8-2.7s-34.1,14.8-45.4,16.9s-36.8,5.1-23.9,24.5c0,0,5.9,8.9,1.6,18.8S217.1,266,233,264.6z"/>
				<path class="st7" d="M20.1,185.4c0,0,20.1,7.9,33.3,1.6S84,158.5,93,159s14.3-1.6,14.3,31.7s36.4,72.4,70.3,67.7
					s23.8-43.3,7.9-54.9s-31.7-32.7-11.1-54.4s53.4-52.8,41.2-67.1S169.1,74,169.1,74s29.1-15.3,29.1-43.8S194.5,0,194.5,0
					L98.3,33.8L17.5,73.4L0,166.4L20.1,185.4z"/>
				<path class="st7" d="M173.1,306.1c6.4,3.2,28.3,16.6,25,32.9s-25.8,16.3-38.9,11.9c-11.1-3.7-35.6-20.3-25.2-43.8
					C134,307,142.3,291.8,173.1,306.1z"/>
				<path class="st7" d="M245.2,93.9c8.6-10.7,31.7-10.2,44.2-1.1s23,29.1,11.9,42.4s-42.8-6.6-49.6-13
					C242.9,114,237.9,104,245.2,93.9z"/>
				<path class="st0" d="M319.4,237c0,10-6,20.6-13.1,20.6S293.6,247,293.7,237s5.5-19.7,12.6-19.7S319.4,227,319.4,237z"/>
				<path class="st0" d="M164.5,313.4c16.3,8.3,18.8,17.7,15.9,24.9c-1.8,4.6-11,10.7-26.7,3.1s-13.6-21.6-10.6-26.5
					S155.3,308.8,164.5,313.4z"/>
				<path class="st7" d="M74.8,251.9c9.4-3.2,18.8,19.8,8.3,25.9S65.1,255.2,74.8,251.9z"/>
				<path class="st8" d="M31.6,166.6c0,0,20.6,8.6,40.7-9.2s57.6-48.1,54.2,0.3s18.3,74.2,51.8,65.6c0,0-25.2-13.2-27.5-31.2
					s-2.9-35.8,24.1-65s37.3-47.8-1.4-43c-34.7,4.4-52.9,8.9-40.1-2.9c16.9-15.5,48.4-22,53.3-55.6L109.4,46L46,108.8l-21.2,35.9
					l-1.6,22.7L31.6,166.6z"/>
				<path class="st8" d="M291,33.3c3.1,23.1,4.8,30.5,26.2,38.9c6.5,2.4,12.8,6.3,16.9,22.4c4.5,17.5,24.5,37.2,39.1,47.9
					c31.7,23.4,21.9,50.5,47.9,46l-31.7-93L291,33.3z"/>
				<path class="st0" d="M261.8,98.6c7.5-4,19.7-3.6,27,4.6s11,20.2-5.7,20.8S253.3,103.8,261.8,98.6z"/>
				<path class="st7" d="M213.7,400.9c0,7.1-7.5,13-16.7,13s-19.1-8-19.1-15.1S187.7,388,197,388S213.7,393.8,213.7,400.9z"/>
				<path class="st8" d="M253.7,429.9c-13.1-7.3-19.7-18-2.6-21.5s20.3-9,26.4-10.4s47.9,1.2,66.2-15.7s31.9-58.6,40.6-72.5
					s45.6-18.3,45.6-18.3l-40.7,117.2l-71.7,21.8l-56.3,16.8L253.7,429.9z"/>
				<ellipse class="st9" cx="216.9" cy="233" rx="200.1" ry="197.9"/>
			</g>
		</g>
		<path class="st4" d="M74.8,206v5.5c1.4-1.7,3-3.2,4.9-4.4c2.1-1.3,4.6-2,7.1-1.9c2.4-0.1,4.9,0.5,7,1.7c2,1.1,3.6,2.8,4.6,4.9
			c1.7-1.9,3.6-3.4,5.7-4.7c2.4-1.3,5.1-2,7.8-1.9c4.3,0,7.7,1.3,10.1,3.9c2.5,2.6,3.7,6.1,3.7,10.6v26.2h-16.6v-21
			c0.1-1.4-0.4-2.8-1.3-3.9c-0.8-0.9-1.9-1.4-3.1-1.3c-1.2,0-2.3,0.5-3.2,1.3c-1,1.1-1.5,2.5-1.4,3.9v21H83.7v-21
			c0.1-1.4-0.3-2.8-1.2-3.9c-0.8-0.9-1.9-1.4-3.1-1.4c-1.2,0-2.3,0.5-3.2,1.4c-1,1.1-1.5,2.5-1.4,3.9v21H58.2v-23.4
			C58.3,213.4,65.7,206,74.8,206z"/>
		<path class="st4" d="M143.4,246.8c-1.8,0-3.6-0.3-5.2-0.8c-1.5-0.5-2.9-1.3-4.1-2.4c-1.2-1.1-2.1-2.4-2.7-3.8
			c-0.7-1.7-1-3.4-0.9-5.2v-0.1c0-4,1.4-7.1,4.1-9.2c2.7-2.1,6.4-3.2,11.1-3.2c0.8,0,1.7,0,2.6,0.1s1.8,0.2,2.7,0.3s1.6,0.3,2.4,0.5
			c0.6,0.1,1.2,0.3,1.8,0.6v-0.6c0.1-1.6-0.5-3.2-1.7-4.3c-1.2-1-3-1.5-5.6-1.5c-1.9,0-3.8,0.2-5.7,0.6c-1.8,0.4-3.6,1-5.3,1.6l0,0
			c-1.5-5.8,1.9-11.6,7.7-13.2c0.4-0.1,0.8-0.2,1.2-0.2c1.7-0.3,3.3-0.4,5-0.5c3.4-0.1,6.9,0.3,10.2,1.3c2.5,0.7,4.8,2.1,6.6,3.9
			c1.5,1.5,2.6,3.3,3.2,5.2c0.7,2.4,1,4.9,0.9,7.4v22.6h-16.6v-4c-1.4,1.5-3.1,2.7-4.9,3.6C147.8,246.4,145.6,246.9,143.4,246.8z
			 M149.9,237.3c1.4,0,2.7-0.6,3.6-1.6c1-1.3,1.5-2.9,1.4-4.5v-1.7c-0.6-0.2-1.1-0.4-1.7-0.5c-0.7-0.1-1.3-0.2-2-0.2
			c-1.4-0.1-2.7,0.4-3.8,1.3c-0.9,0.8-1.3,2-1.3,3.2v0.1c-0.1,2,1.5,3.8,3.5,3.9C149.8,237.3,149.9,237.3,149.9,237.3L149.9,237.3z"
			/>
		<path class="st4" d="M192.9,206.2L192.9,206.2v8c1-2.5,2.6-4.7,4.6-6.4c1.9-1.6,4.6-2.3,7.9-2.2v17.5h-1.7c-3.5,0-6.1,1-8,3
			s-2.7,5.2-2.7,9.6v10.1h-16.6v-23.1C176.3,213.6,183.7,206.2,192.9,206.2z"/>
		<path class="st4" d="M229.8,246.8c-4.9,0-8.7-1.2-11.2-3.5c-2.5-2.3-3.8-5.9-3.8-10.7V223h-4.7v-17.5h4.7c0-5.1,4.2-9.3,9.3-9.3
			h7.3v9.3h9.2V223h-9.2v5.9c-0.1,1.1,0.2,2.3,1,3.1c0.9,0.7,1.9,1,3,0.9c1.7,0,3.4-0.4,5-1.2v12.7c-1.5,0.7-3.1,1.3-4.7,1.6
			C233.7,246.6,231.7,246.8,229.8,246.8z"/>
		<path class="st4" d="M267.3,246.9c-3,0-6.1-0.5-8.9-1.5c-2.6-0.9-4.9-2.3-6.9-4.2c-1.9-1.8-3.4-4-4.4-6.5
			c-1.1-2.7-1.6-5.6-1.6-8.4v-0.1c0-2.8,0.5-5.6,1.5-8.3c1-2.5,2.4-4.7,4.2-6.6c1.8-1.9,4-3.4,6.4-4.4c2.6-1.1,5.4-1.6,8.3-1.6
			c3.2-0.1,6.3,0.5,9.2,1.7c2.5,1.1,4.7,2.7,6.4,4.7c1.7,2.1,3,4.4,3.8,7c0.8,2.8,1.3,5.6,1.2,8.5v1.4c0,0.5,0,0.9-0.1,1.4H261
			c0.5,1.6,1.5,3,2.8,4c1.4,0.9,3,1.4,4.7,1.4c1.5,0,2.9-0.3,4.2-1c1.5-0.8,2.8-1.8,3.9-3.1l8.9,7.1c-2,2.6-4.5,4.7-7.3,6.3
			C274.8,246.2,271.1,247,267.3,246.9z M271.6,222.6c-0.1-1.6-0.7-3.2-1.8-4.4c-1-1-2.3-1.6-3.7-1.6c-1.3,0-2.6,0.6-3.5,1.6
			c-1,1.3-1.6,2.8-1.8,4.4H271.6z"/>
		<path class="st4" d="M332.8,244.3v-0.9c0-0.4,0-0.7,0-0.9v-0.8c-0.2-0.2-0.3-0.5-0.3-0.8c0-0.2,0.1-0.5,0.1-0.7
			c0.1-0.2,0.1-0.5,0.1-0.8c0-0.4-0.2-0.6-0.7-0.6c-0.1,0-0.2,0-0.4,0.1s-0.2,0.1-0.4,0.1c-0.5,0-2,0-4.4,0c-3.9-0.1-7-0.1-9.3-0.1
			l-14.9,0.2c0-0.1,0-0.2,0-0.4V234c-0.1-2.4-0.2-3.9-0.2-4.7l-0.6-29.1H301c-0.7-0.4-1.5-0.6-2.3-0.6h-2.8
			c-0.2,0.2-0.5,0.3-0.9,0.3c-0.3,0-0.5-0.1-0.8-0.1c-0.3-0.1-0.5-0.1-0.8-0.1c-0.4,0-0.6,0.2-0.6,0.7c0,0.1,0,0.3,0.1,0.4
			c0,0.1,0.1,0.3,0.1,0.4c0,0.5-0.1,2.1-0.3,4.6c-0.3,4.1-0.5,7.3-0.6,9.7l-0.8,23.9l-0.1,0.1c0,0.2,0,0.7,0,1.3v1.8l0.1,0.1v0.1
			c0,1.8,0,2.9,0,3.4c0,1.1,0.2,2.2,0.4,3.3c1.3,0.1,2.7,0,4-0.1l4.5-0.2c2.2-0.2,3.7-0.4,4.4-0.4l27.6-1.8v-0.7
			C332.7,245.7,332.8,245,332.8,244.3z"/>
		<path class="st4" d="M338.5,219.6c0,1,0,3.2,0.2,6.7s0.2,5.7,0.2,6.7c0,2.2-0.1,4.4-0.4,6.6c-0.7,0.6-2.5,0.9-5.7,0.9
			c-0.6,0-1.2,0-1.8-0.1c-0.3-1.1-0.4-2.2-0.4-3.3c0-1.2,0.1-2.3,0.3-3.5c-4.6,0.6-9.3,0.8-14,0.8c-1.1,0-4.5-0.1-10-0.1l-0.9-0.9
			c-0.2-2.2-0.4-4.4-0.4-6.7c0-5.1,0.2-8.2,0.7-9.3c0.6-1.5,4.4-2.2,11.3-2.2c2.7,0,5.8,0.1,9.4,0.4l4.5,0.4c0.4,0,0.6-0.4,0.6-1.5
			v-0.1l-0.2-2.6l-0.4-0.2h-24.4c-0.2-0.4-0.4-0.8-0.4-1.2c0-0.1,0-0.5,0.1-1.1s0.1-0.9,0.1-1.1s0.1-0.9,0.4-2.3
			c6-0.8,12.1-1.2,18.2-1.2h1.2c2.4-0.1,4.8,0,7.2,0.2c3.3,0.5,4.9,1.8,4.9,3.8c0,0.8-0.1,2.6-0.2,5.3S338.5,218.8,338.5,219.6z
			 M330.3,226.7c0.1-0.5,0.1-1,0.1-1.5c0-1-0.2-1.9-0.5-2.8c-2.2,0-5.5,0.3-9.9,0.8c-0.3,0.8-0.4,1.7-0.4,2.6c0,0.5,0,0.9,0.1,1.3
			l0.2,0.2c0.6,0,1.2,0.1,1.9,0.1C324.7,227.4,327.5,227.2,330.3,226.7z"/>
		<path class="st4" d="M375.6,226.7c0,4.3-0.7,7.3-2.2,8.9s-4.2,2.4-8,2.4c-0.6,0-2-0.1-4-0.2c-2.1-0.1-4.3-0.1-4.3-0.1h-14.2
			c-0.6-3.7-0.7-2.6-0.8-6.7v-11.9c0-1.7-0.1-7.3-0.4-16.9c1.9-0.2,4.7-0.3,8.3-0.3h2.2c2.2,0,3.7,0.3,4.4,0.9
			c-0.1,1.6-0.2,3.3-0.2,5.2c0,1.2,0,3.1,0.1,5.7h1.8c0.7,0,2.2,0,4.5-0.1s3.8-0.1,4.5-0.1h0.2c1,0,2,0.1,3,0.2
			C373.9,214.3,375.6,218.6,375.6,226.7z M361.6,229.6c0.1-0.6,0.1-1.3,0.1-1.9c0-1.7-0.3-3.4-0.7-5.1c-0.6-0.3-1.2-0.4-1.9-0.4
			h-0.9c-0.3,0-0.6,0.1-0.9,0.1c-0.2,0-0.4,0-0.6-0.1v7.7c0.4,0.1,0.8,0.1,1.2,0.1h1.3C360.1,230.1,360.9,229.9,361.6,229.6
			L361.6,229.6z"/>
		<path class="st4" d="M133.7,269.7c-0.5,0-1.1-0.1-1.5-0.4c-0.4-0.3-0.6-0.8-0.6-1.3c0-0.2,0-0.3,0-0.5c0-0.1,0-0.3,0.1-0.4l1.3-5
			h-1.2l0.3-1.1h1.2l0.7-2.6h1.3l-0.7,2.6h2.7l-0.3,1.1h-2.7L133,267c0,0.1,0,0.2-0.1,0.3c0,0.1,0,0.2,0,0.3c0,0.3,0.1,0.5,0.3,0.6
			c0.3,0.2,0.6,0.2,0.9,0.2c0.4,0,0.8-0.1,1.2-0.2l-0.3,1.2c-0.2,0.1-0.4,0.1-0.6,0.2C134.2,269.6,133.9,269.7,133.7,269.7z"/>
		<path class="st4" d="M137.7,267.8h1.5l-0.5,1.7h-1.5L137.7,267.8z"/>
		<path class="st4" d="M143.9,261h1.3l-2.3,8.5h-1.3L143.9,261z M144.7,257.7h1.4l-0.4,1.4h-1.4L144.7,257.7z"/>
		<path class="st4" d="M146.2,267.8h1.5l-0.5,1.7h-1.5L146.2,267.8z"/>
		<path class="st4" d="M158.9,269.8c-0.5,0-0.9-0.1-1.4-0.3c-0.8-0.3-1.5-1-1.8-1.9c-0.2-0.5-0.3-1-0.2-1.5c0-0.7,0.1-1.4,0.4-2.1
			c0.2-0.6,0.6-1.2,1.1-1.7c0.4-0.5,0.9-0.8,1.5-1.1c0.6-0.3,1.2-0.4,1.8-0.4c0.4,0,0.8,0,1.2,0.2c0.3,0.1,0.6,0.3,0.9,0.5
			c0.3,0.2,0.5,0.4,0.7,0.7c0.2,0.3,0.3,0.5,0.4,0.8l1.4-5.4h1.3l-3.2,12h-1.3l0.4-1.5c-0.4,0.5-0.9,0.9-1.4,1.2
			C160.2,269.6,159.5,269.8,158.9,269.8z M159.2,268.6c0.5,0,1-0.1,1.4-0.3c0.5-0.2,0.9-0.5,1.2-0.9c0.4-0.4,0.6-0.8,0.9-1.3
			c0.2-0.5,0.3-1,0.3-1.5c0-0.3-0.1-0.7-0.2-1c-0.1-0.3-0.3-0.6-0.5-0.8c-0.2-0.2-0.5-0.4-0.8-0.6c-0.3-0.1-0.7-0.2-1.1-0.2
			c-0.5,0-1,0.1-1.4,0.3c-0.4,0.2-0.8,0.5-1.1,0.9c-0.3,0.4-0.6,0.8-0.8,1.3c-0.2,0.5-0.3,1-0.3,1.5c0,0.4,0.1,0.7,0.2,1.1
			c0.1,0.3,0.3,0.6,0.5,0.8c0.2,0.2,0.5,0.4,0.8,0.5C158.6,268.6,158.9,268.6,159.2,268.6z"/>
		<path class="st4" d="M167.6,265.8c0,0,0,0.1,0,0.1v0.1c0,0.7,0.2,1.4,0.7,1.9c0.5,0.5,1.2,0.7,1.9,0.7c0.5,0,1-0.1,1.4-0.3
			c0.4-0.2,0.8-0.4,1.2-0.7l0.7,0.8c-0.4,0.4-0.9,0.7-1.4,0.9c-1.1,0.5-2.3,0.5-3.5,0.1c-0.4-0.2-0.8-0.4-1.2-0.8
			c-0.3-0.3-0.6-0.7-0.8-1.1c-0.2-0.5-0.3-1-0.3-1.5c0-0.7,0.1-1.3,0.4-1.9c0.2-0.6,0.6-1.2,1-1.7c0.4-0.5,1-0.9,1.6-1.2
			c0.6-0.3,1.3-0.5,2-0.5c0.5,0,1,0.1,1.4,0.3c0.4,0.2,0.7,0.4,1,0.7c0.3,0.3,0.5,0.6,0.6,1c0.1,0.4,0.2,0.8,0.2,1.2
			c0,0.3,0,0.6-0.1,0.9c-0.1,0.3-0.1,0.6-0.2,0.8L167.6,265.8z M173.3,264.8c0-0.1,0-0.2,0-0.3s0-0.2,0-0.4c0-0.3,0-0.6-0.1-0.8
			c-0.1-0.3-0.2-0.5-0.4-0.7c-0.2-0.2-0.4-0.4-0.7-0.5c-0.3-0.1-0.6-0.2-0.9-0.2c-0.4,0-0.8,0.1-1.2,0.2c-0.4,0.1-0.7,0.3-1,0.6
			c-0.3,0.3-0.6,0.6-0.8,0.9c-0.2,0.3-0.4,0.7-0.5,1.1L173.3,264.8z"/>
		<path class="st4" d="M184.9,269.8c-0.5,0-1.1-0.1-1.6-0.3c-0.5-0.2-0.9-0.5-1.2-0.8c-0.3-0.3-0.6-0.8-0.8-1.2
			c-0.2-0.5-0.3-1-0.3-1.5c0-0.7,0.1-1.3,0.4-1.9c0.5-1.2,1.5-2.2,2.7-2.8c0.6-0.3,1.3-0.4,1.9-0.4c0.5,0,1.1,0.1,1.6,0.3
			c0.5,0.2,0.9,0.4,1.2,0.8c0.3,0.3,0.6,0.8,0.8,1.2c0.2,0.5,0.3,1,0.3,1.5c0,0.7-0.1,1.3-0.4,2c-0.3,0.6-0.6,1.2-1.1,1.6
			c-0.5,0.5-1,0.8-1.6,1.1C186.2,269.6,185.5,269.8,184.9,269.8z M185,268.6c0.5,0,0.9-0.1,1.4-0.3c0.4-0.2,0.8-0.5,1.2-0.9
			c0.3-0.4,0.6-0.8,0.8-1.2c0.2-0.5,0.3-1,0.3-1.5c0.1-1.4-0.9-2.6-2.3-2.7c-0.1,0-0.2,0-0.4,0c-0.5,0-1,0.1-1.4,0.3
			c-0.4,0.2-0.8,0.5-1.2,0.9c-0.3,0.4-0.6,0.8-0.8,1.2c-0.2,0.5-0.3,1-0.3,1.5c0,0.7,0.2,1.5,0.7,2
			C183.6,268.4,184.3,268.6,185,268.6L185,268.6z"/>
		<path class="st4" d="M194.4,269.7c-0.7,0-1.5-0.2-2-0.7c-0.5-0.5-0.8-1.2-0.8-1.9c0-0.2,0-0.4,0.1-0.6l0.1-0.7l1.3-4.7h1.3
			l-1.3,4.8c0,0.1-0.1,0.3-0.1,0.5c0,0.2,0,0.3,0,0.5c0,0.5,0.2,1,0.5,1.3c0.4,0.3,0.9,0.5,1.4,0.5c0.3,0,0.7-0.1,1-0.2
			c0.3-0.1,0.6-0.3,0.9-0.6c0.3-0.3,0.5-0.5,0.7-0.9c0.2-0.3,0.4-0.7,0.5-1.1l1.3-4.8h1.3l-2.3,8.5H197l0.4-1.4
			c-0.4,0.4-0.8,0.8-1.3,1.1C195.6,269.6,195,269.8,194.4,269.7z"/>
		<path class="st4" d="M204.1,269.7c-0.5,0-1.1-0.1-1.5-0.4c-0.4-0.3-0.6-0.8-0.6-1.3c0-0.2,0-0.3,0-0.5c0-0.1,0-0.3,0.1-0.4l1.3-5
			h-1.2l0.3-1.1h1.2l0.7-2.6h1.3l-0.7,2.6h2.7l-0.3,1.1h-2.6l-1.3,4.9c0,0.1,0,0.2,0,0.3c0,0.1,0,0.2,0,0.3c0,0.3,0.1,0.5,0.3,0.7
			c0.3,0.2,0.6,0.2,0.9,0.2c0.4,0,0.8-0.1,1.2-0.2l-0.3,1.1c-0.2,0.1-0.4,0.1-0.6,0.2C204.7,269.7,204.4,269.7,204.1,269.7z"/>
		<path class="st4" d="M210,261h1.3l-0.6,2.2c0.3-0.4,0.5-0.7,0.8-1c0.3-0.3,0.6-0.6,1-0.8c0.3-0.2,0.7-0.4,1.1-0.5
			c0.4-0.1,0.8-0.2,1.2-0.1l-0.4,1.4h-0.1c-0.5,0-0.9,0.1-1.4,0.3c-0.5,0.2-0.9,0.4-1.3,0.8c-0.4,0.4-0.7,0.8-1,1.2
			c-0.3,0.5-0.6,1.1-0.7,1.7l-0.9,3.4h-1.3L210,261z"/>
		<path class="st4" d="M218.7,269.8c-0.5,0-1.1-0.1-1.6-0.3c-0.5-0.2-0.9-0.4-1.2-0.8c-0.3-0.3-0.6-0.8-0.8-1.2
			c-0.2-0.5-0.3-1-0.3-1.5c0-0.7,0.1-1.3,0.4-1.9c0.3-0.6,0.6-1.2,1.1-1.6c0.5-0.5,1-0.8,1.6-1.1c0.6-0.3,1.3-0.4,1.9-0.4
			c0.5,0,1.1,0.1,1.6,0.3c0.5,0.2,0.9,0.4,1.2,0.8c0.3,0.3,0.6,0.8,0.8,1.2c0.2,0.5,0.3,1,0.3,1.5c0,0.7-0.1,1.3-0.4,2
			c-0.3,0.6-0.6,1.1-1.1,1.6c-0.5,0.5-1,0.8-1.6,1.1C220.1,269.6,219.4,269.8,218.7,269.8z M218.8,268.6c0.5,0,0.9-0.1,1.4-0.3
			c0.4-0.2,0.8-0.5,1.2-0.9c0.3-0.4,0.6-0.8,0.8-1.2c0.2-0.5,0.3-1,0.3-1.5c0-0.7-0.2-1.5-0.8-2c-0.5-0.5-1.2-0.7-1.9-0.7
			c-0.5,0-1,0.1-1.4,0.3c-0.4,0.2-0.8,0.5-1.1,0.9c-0.3,0.4-0.6,0.8-0.8,1.2c-0.2,0.5-0.3,1-0.3,1.5c0,0.7,0.2,1.5,0.7,2
			C217.4,268.4,218.1,268.6,218.8,268.6L218.8,268.6z"/>
		<path class="st4" d="M232.1,261h1.3l-0.4,1.4c0.4-0.4,0.8-0.8,1.2-1.1c0.5-0.3,1-0.5,1.6-0.5c0.3,0,0.7,0,1,0.2
			c0.3,0.1,0.5,0.2,0.7,0.4c0.2,0.2,0.4,0.4,0.5,0.6c0.1,0.2,0.2,0.5,0.3,0.7c0.4-0.6,0.9-1.1,1.4-1.4c0.6-0.4,1.3-0.5,2-0.5
			c0.4,0,0.7,0.1,1.1,0.2c0.6,0.2,1.1,0.7,1.4,1.4c0.1,0.3,0.2,0.7,0.2,1.1c0,0.2,0,0.4-0.1,0.6c-0.1,0.2-0.1,0.5-0.1,0.7l-1.3,4.8
			h-1.3l1.3-4.8c0-0.1,0.1-0.3,0.1-0.5c0-0.2,0-0.3,0-0.5c0-0.5-0.1-1-0.5-1.3c-0.4-0.3-0.8-0.5-1.3-0.5c-0.3,0-0.6,0.1-0.9,0.2
			c-0.3,0.1-0.6,0.3-0.9,0.6c-0.3,0.3-0.5,0.5-0.7,0.9c-0.2,0.3-0.4,0.7-0.5,1.1l-1.3,4.8h-1.3l1.3-4.8c0.1-0.2,0.1-0.3,0.1-0.5
			c0-0.2,0-0.3,0-0.5c0.1-0.9-0.6-1.7-1.5-1.8c-0.1,0-0.2,0-0.3,0c-0.3,0-0.6,0.1-0.9,0.2c-0.3,0.1-0.6,0.3-0.9,0.6
			c-0.3,0.3-0.5,0.5-0.7,0.9c-0.2,0.3-0.4,0.7-0.5,1.1l-1.3,4.8h-1.2L232.1,261z"/>
		<path class="st4" d="M248.9,269.8c-0.7,0-1.5-0.2-2-0.7c-0.5-0.5-0.8-1.2-0.7-1.9c0-0.2,0-0.4,0.1-0.6l0.1-0.7l1.3-4.8h1.3
			l-1.3,4.8c0,0.2-0.1,0.3-0.1,0.5c0,0.2,0,0.3,0,0.5c0,0.5,0.2,1,0.5,1.3c0.4,0.3,0.9,0.5,1.4,0.5c0.3,0,0.7-0.1,1-0.2
			c0.3-0.1,0.6-0.3,0.9-0.6c0.3-0.2,0.5-0.5,0.7-0.8c0.2-0.3,0.4-0.7,0.5-1.1l1.3-4.8h1.2l-2.3,8.5h-1.3l0.4-1.4
			c-0.4,0.4-0.8,0.8-1.3,1.1C250,269.6,249.4,269.8,248.9,269.8z"/>
		<path class="st4" d="M257.8,261h1.3l-0.4,1.4c0.4-0.4,0.8-0.8,1.3-1.1c0.5-0.3,1.1-0.5,1.7-0.5c0.7,0,1.5,0.2,2,0.7
			c0.5,0.5,0.8,1.2,0.8,1.9c0,0.2,0,0.4-0.1,0.6c0,0.2-0.1,0.5-0.1,0.7l-1.2,4.8h-1.3l1.3-4.8c0.1-0.2,0.1-0.3,0.1-0.5
			c0-0.2,0-0.3,0-0.5c0-0.5-0.2-1-0.5-1.3c-0.4-0.3-0.9-0.5-1.4-0.5c-0.3,0-0.7,0.1-1,0.2c-0.3,0.1-0.6,0.3-0.9,0.6
			c-0.3,0.3-0.5,0.5-0.7,0.9c-0.2,0.3-0.4,0.7-0.5,1.1l-1.3,4.8h-1.3L257.8,261z"/>
		<path class="st4" d="M269.6,269.8c-0.5,0-0.9-0.1-1.3-0.3c-0.8-0.3-1.5-1-1.8-1.9c-0.2-0.5-0.3-1-0.3-1.5c0-0.7,0.1-1.4,0.4-2.1
			c0.2-0.6,0.6-1.2,1.1-1.7c0.4-0.5,1-0.8,1.5-1.1c0.6-0.3,1.2-0.4,1.8-0.4c0.4,0,0.8,0,1.2,0.2c0.3,0.1,0.6,0.3,0.9,0.5
			c0.3,0.2,0.5,0.4,0.7,0.7c0.2,0.2,0.3,0.5,0.5,0.8l1.5-5.4h1.3l-3.2,12h-1.3l0.4-1.5c-0.4,0.5-0.9,0.9-1.4,1.2
			C270.9,269.6,270.2,269.8,269.6,269.8z M269.9,268.7c0.5,0,1-0.1,1.4-0.3c0.5-0.2,0.9-0.5,1.2-0.9c0.4-0.4,0.6-0.8,0.9-1.3
			c0.2-0.5,0.3-1,0.3-1.5c0-0.3-0.1-0.7-0.2-1c-0.1-0.3-0.3-0.6-0.5-0.8c-0.2-0.2-0.5-0.4-0.8-0.6c-0.3-0.1-0.7-0.2-1.1-0.2
			c-0.5,0-1,0.1-1.4,0.3c-0.4,0.2-0.8,0.5-1.1,0.9c-0.3,0.4-0.6,0.8-0.8,1.3c-0.2,0.5-0.3,1-0.3,1.5c0,0.4,0.1,0.7,0.2,1.1
			c0.1,0.3,0.3,0.6,0.5,0.8c0.2,0.2,0.5,0.4,0.8,0.5C269.3,268.6,269.7,268.7,269.9,268.7L269.9,268.7z"/>
		<path class="st4" d="M280.9,269.8c-0.5,0-1.1-0.1-1.6-0.3c-0.5-0.2-0.9-0.5-1.2-0.8c-0.3-0.3-0.6-0.8-0.8-1.2
			c-0.2-0.5-0.3-1-0.3-1.5c0-0.7,0.1-1.3,0.4-1.9c0.3-0.6,0.6-1.1,1.1-1.6c0.5-0.5,1-0.8,1.6-1.1c0.6-0.3,1.3-0.4,1.9-0.4
			c0.5,0,1.1,0.1,1.6,0.3c0.9,0.4,1.6,1.1,2,2c0.2,0.5,0.3,1,0.3,1.5c0,0.7-0.1,1.3-0.4,1.9c-0.3,0.6-0.6,1.2-1.1,1.6
			c-0.5,0.5-1,0.8-1.6,1.1C282.2,269.6,281.6,269.8,280.9,269.8z M281,268.6c0.5,0,0.9-0.1,1.4-0.3c0.4-0.2,0.8-0.5,1.2-0.9
			c0.3-0.4,0.6-0.8,0.8-1.2c0.2-0.5,0.3-1,0.3-1.5c0.1-1.4-0.9-2.6-2.3-2.7c-0.1,0-0.3,0-0.4,0c-0.5,0-1,0.1-1.4,0.3
			c-0.4,0.2-0.8,0.5-1.2,0.9c-0.3,0.4-0.6,0.8-0.8,1.2c-0.2,0.5-0.3,1-0.3,1.5c-0.1,0.7,0.2,1.5,0.7,2
			C279.6,268.4,280.3,268.6,281,268.6L281,268.6z"/>
	</g>
</g>
</svg>
