<?xml version="1.0" encoding="utf-8"?>
<!-- Generator: Adobe Illustrator 23.0.3, SVG Export Plug-In . SVG Version: 6.00 Build 0)  -->
<svg version="1.1" id="Layer_1" xmlns="http://www.w3.org/2000/svg" xmlns:xlink="http://www.w3.org/1999/xlink" x="0px" y="0px"
	 viewBox="0 0 291.8 282.6" style="enable-background:new 0 0 291.8 282.6;" xml:space="preserve">
<style type="text/css">
	.st0{fill:#FFFFFF;}
	.st1{fill:#C21919;}
	.st2{clip-path:url(#SVGID_2_);}
	.st3{fill:#C8461E;}
	.st4{fill:#4E2662;}
	.st5{fill:#CF6F21;}
	.st6{fill:none;}
	.st7{fill:#C2161D;}
	.st8{fill:#89C3DB;}
	.st9{fill:#915295;}
	.st10{fill:#F1E63D;}
	.st11{fill:#C42825;}
	.st12{fill:#82B13E;}
	.st13{fill:#384B96;}
</style>
<g>
	<path class="st0" d="M237.8,269.5c0.1,0.5,0.2,1,0.1,1.5c-0.1,0.5-0.3,1-0.6,1.5s-0.7,0.9-1.2,1.3l-1.7,1.5l2.4,2.7l-1.5,1.3
		l-7.3-8.5l3.3-2.9c0.4-0.4,1-0.8,1.5-1s1-0.3,1.5-0.3s1,0.1,1.4,0.3c0.5,0.3,0.9,0.6,1.2,1C237.4,268.4,237.7,268.9,237.8,269.5z
		 M234,268.6c-0.6,0.1-1.2,0.3-1.7,0.8l-1.7,1.5l2.7,3.1l1.7-1.5c0.5-0.4,0.9-0.9,1-1.6c0.1-0.6-0.1-1.1-0.5-1.5
		C235.2,268.9,234.6,268.6,234,268.6L234,268.6z"/>
	<path class="st0" d="M250.5,265l-1.5,1.5l-2.7-1.1l-3.7,3.8l1.1,2.7l-1.4,1.4l-4.6-11.5l1.3-1.3L250.5,265z M240,262.9l1.8,4.5
		l2.7-2.8L240,262.9z"/>
	<path class="st0" d="M248.4,250l1.2-1.5l8.7,7.1l-1,1.3l-10.1-0.3l6.2,5l-1.2,1.5l-8.6-7.1l1.2-1.4l9.8,0.3L248.4,250z"/>
	<path class="st0" d="M263.1,248.9l-1.1,1.6l-7.7-5.3l-2,2.9l-1.5-1l5.2-7.5l1.5,1l-2,2.9L263.1,248.9z"/>
	<path class="st0" d="M268.7,233.2c0.9,1.2,1.3,2.7,1.2,4.2c-0.1,0.8-0.4,1.6-0.8,2.3c-0.4,0.7-0.9,1.3-1.6,1.8
		c-0.6,0.5-1.3,0.8-2,1s-1.5,0.2-2.2,0.1c-0.8-0.1-1.5-0.4-2.2-0.7c-0.7-0.4-1.2-0.9-1.7-1.5s-0.8-1.3-1-2s-0.3-1.5-0.2-2.2
		c0.1-0.8,0.4-1.6,0.8-2.3c0.4-0.7,0.9-1.3,1.6-1.8c0.6-0.5,1.3-0.8,2-1s1.5-0.2,2.2-0.1C266.3,231.2,267.7,232,268.7,233.2
		L268.7,233.2z M264.5,233c-0.5-0.1-1-0.1-1.5,0s-0.9,0.3-1.3,0.6c-0.4,0.3-0.8,0.7-1,1.2c-0.3,0.5-0.4,1-0.5,1.5s0,1,0.1,1.5
		c0.2,0.5,0.4,0.9,0.7,1.3c0.3,0.4,0.7,0.7,1.2,1s1,0.4,1.5,0.5s1,0.1,1.5,0s0.9-0.3,1.3-0.6c0.4-0.3,0.8-0.7,1-1.2
		c0.3-0.5,0.4-1,0.5-1.5s0-1-0.1-1.5c-0.2-0.5-0.4-0.9-0.7-1.3c-0.3-0.4-0.7-0.7-1.2-1C265.5,233.3,265,233.1,264.5,233L264.5,233z"
		/>
	<path class="st0" d="M266.2,220.1l0.8-1.8l10.2,4.6l-0.7,1.5l-9.8,2.3l7.2,3.3l-0.8,1.8l-10.2-4.6l0.8-1.7l9.5-2.2L266.2,220.1z"/>
	<path class="st0" d="M272.4,208.7l-2.1,6l2.7,1l1.9-5.3l1.7,0.6l-1.9,5.3l2.8,1l2.2-6l1.7,0.6l-2.8,7.9L268,216l2.8-7.8
		L272.4,208.7z"/>
	<path class="st0" d="M274,195.1l7.4,1.7l0.4-1.7l1,0.2l-0.4,1.7l2.6,0.6l-0.3,1.2l-2.6-0.6l-1.3,5.8l-1,0.1l-6.1-7.9L274,195.1z
		 M275.5,196.7l4.6,5.9l1.1-4.6L275.5,196.7z"/>
	<path class="st0" d="M285.4,185.6c0.4,0.3,0.6,0.6,0.9,1c0.2,0.4,0.4,0.9,0.4,1.4c0.1,1.1,0,2.3-0.5,3.3c-0.2,0.5-0.5,0.9-0.8,1.2
		s-0.7,0.6-1.1,0.7c-0.4,0.2-0.9,0.2-1.3,0.1c-0.6-0.1-1.2-0.4-1.6-0.9c-0.4-0.5-0.7-1.1-0.8-1.8c-0.2,0.2-0.3,0.5-0.5,0.7
		s-0.4,0.4-0.6,0.5c-0.2,0.1-0.5,0.2-0.8,0.3s-0.6,0.1-0.9,0c-0.4-0.1-0.8-0.2-1.1-0.5s-0.6-0.6-0.8-1s-0.4-0.8-0.4-1.3
		c-0.1-0.5-0.1-1,0-1.5s0.2-1,0.4-1.4s0.5-0.8,0.8-1.1s0.7-0.5,1.1-0.7c0.4-0.2,0.8-0.2,1.2-0.1c0.3,0,0.6,0.1,0.9,0.3
		c0.2,0.1,0.5,0.3,0.6,0.5c0.2,0.2,0.3,0.4,0.4,0.7c0.1,0.3,0.2,0.5,0.3,0.8c0.3-0.6,0.7-1.1,1.3-1.5c0.5-0.4,1.2-0.5,1.8-0.4
		C284.6,185.1,285,185.3,285.4,185.6z M277.9,185.9c-0.3,0.1-0.5,0.2-0.7,0.4s-0.4,0.5-0.5,0.7c-0.1,0.3-0.2,0.7-0.3,1s-0.1,0.7,0,1
		c0,0.3,0.1,0.6,0.3,0.9c0.1,0.2,0.3,0.5,0.5,0.6c0.2,0.2,0.5,0.3,0.7,0.3c0.3,0,0.6,0,0.9-0.1c0.3-0.1,0.5-0.2,0.7-0.4
		s0.4-0.5,0.5-0.7c0.2-0.3,0.3-0.7,0.3-1s0-0.7,0-1s-0.1-0.6-0.3-0.9c-0.1-0.3-0.3-0.5-0.6-0.6c-0.2-0.2-0.5-0.3-0.8-0.3
		C278.4,185.8,278.1,185.8,277.9,185.9z M283,186.4c-0.3,0.1-0.5,0.3-0.8,0.5c-0.2,0.3-0.4,0.5-0.6,0.9c-0.2,0.3-0.3,0.7-0.3,1.1
		c-0.1,0.4-0.1,0.8,0,1.2c0,0.3,0.1,0.7,0.3,1c0.1,0.3,0.3,0.5,0.6,0.7c0.2,0.2,0.5,0.3,0.8,0.4c0.3,0,0.6,0,0.8-0.1
		c0.3-0.1,0.5-0.3,0.8-0.5c0.2-0.2,0.4-0.5,0.6-0.8c0.3-0.8,0.5-1.6,0.4-2.4c0-0.3-0.1-0.7-0.3-1c-0.1-0.3-0.3-0.5-0.6-0.7
		c-0.2-0.2-0.5-0.3-0.8-0.3C283.6,186.2,283.3,186.3,283,186.4z"/>
	<path class="st0" d="M276.3,181.4l0.5-6.4l1.2,0.1l-0.4,5.3l3.6,0.5c-0.1-0.3-0.2-0.7-0.3-1c-0.1-0.4-0.1-0.8,0-1.2
		c0-0.5,0.2-1,0.4-1.5c0.2-0.4,0.5-0.8,0.8-1.2c0.3-0.3,0.7-0.6,1.1-0.7c0.5-0.2,1-0.2,1.5-0.2s1,0.2,1.5,0.4
		c0.4,0.2,0.8,0.5,1.1,0.9s0.5,0.8,0.6,1.3s0.2,1.1,0.1,1.6c-0.1,0.8-0.3,1.5-0.7,2.2c-0.4,0.6-0.9,1.2-1.4,1.7l-0.8-0.9
		c0.5-0.4,0.9-0.9,1.2-1.4s0.5-1,0.5-1.6c0-0.4,0-0.7-0.1-1.1c-0.1-0.3-0.2-0.6-0.4-0.9c-0.2-0.3-0.5-0.5-0.8-0.6
		c-0.3-0.2-0.7-0.3-1-0.3s-0.7,0-1,0.1s-0.6,0.3-0.8,0.5s-0.4,0.5-0.6,0.8c-0.2,0.4-0.2,0.7-0.3,1.1c0,0.4,0,0.9,0.1,1.3
		c0.1,0.4,0.2,0.7,0.4,1.1l-0.6,0.8L276.3,181.4z"/>
	<path class="st0" d="M287.3,163.6c0.2,0.3,0.4,0.6,0.6,1c0.2,0.4,0.3,0.8,0.4,1.2c0.1,0.5,0.1,0.9,0.1,1.4c0,0.8-0.2,1.5-0.5,2.2
		s-0.7,1.3-1.2,1.8s-1.2,0.9-1.8,1.2c-1.5,0.6-3.1,0.6-4.5,0c-0.7-0.3-1.3-0.7-1.8-1.2s-0.9-1.1-1.2-1.8s-0.5-1.5-0.4-2.3
		c0-0.5,0-0.9,0.1-1.4c0.1-0.4,0.2-0.8,0.4-1.1c0.2-0.4,0.3-0.7,0.6-1c0.2-0.3,0.5-0.6,0.7-0.9l0.9,0.9c-0.4,0.5-0.8,1-1.1,1.5
		c-0.3,0.6-0.5,1.3-0.4,2c0,0.6,0.1,1.2,0.3,1.7s0.6,1,1,1.4s0.9,0.7,1.5,0.9s1.2,0.3,1.8,0.3s1.2-0.1,1.8-0.3
		c0.5-0.2,1-0.5,1.5-0.9c0.4-0.4,0.8-0.9,1-1.4s0.4-1.1,0.4-1.7c0-0.7-0.1-1.4-0.4-2c-0.3-0.6-0.7-1.2-1.2-1.6l0.8-0.8
		C286.8,163,287,163.3,287.3,163.6z"/>
	<path class="st0" d="M3.5,156.2l0.1-1.3l10,0.6l0.4-6.3l1.2,0.1l-0.4,7.5L3.5,156.2z"/>
	<path class="st0" d="M8.8,145.9l-1.1,0.2c-0.3-1-0.4-2-0.2-3.1c0.3-2.2,1.7-3.3,3.8-3l5,0.8l-0.2,1.2l-1.2-0.2c0.8,0.8,1.2,2,1,3.2
		c-0.2,1.5-1.3,2.9-3,2.7s-2.4-1.8-2.1-3.9c0.1-0.9,0.4-1.7,0.7-2.5h-0.3c-1.5-0.2-2.4,0.6-2.6,2.1C8.5,144.2,8.6,145.1,8.8,145.9z
		 M13,146.4c1,0.1,1.8-0.7,2-1.8c0.2-1.5-0.5-2.9-1.8-3.1l-0.8-0.1c-0.3,0.7-0.6,1.5-0.7,2.4C11.5,145.3,12,146.2,13,146.4L13,146.4
		z"/>
	<path class="st0" d="M17.1,137.3l-0.3,1.2l-8.1-1.8l0.3-1.2l2.1,0.5c-1.3-0.8-1.9-2.3-1.5-3.8l1.3,0.3v0.1c-0.4,1.8,0.5,3.5,3,4
		L17.1,137.3z"/>
	<path class="st0" d="M11.9,130.3l-1.1,0.1c-0.2-1-0.1-2.1,0.2-3.1c0.7-2.2,2.1-3,4.2-2.4l4.8,1.5l-0.3,1.1l-1.2-0.4
		c0.7,0.9,0.9,2.2,0.5,3.3c-0.4,1.5-1.7,2.7-3.4,2.2s-2.2-2.2-1.6-4.2c0.2-0.8,0.6-1.6,1.1-2.3l-0.3-0.1c-1.4-0.4-2.4,0.2-2.9,1.7
		C11.8,128.6,11.8,129.5,11.9,130.3z M16,131.4c1,0.3,1.9-0.4,2.2-1.5c0.4-1.5-0.1-2.9-1.3-3.3l-0.8-0.2c-0.4,0.7-0.8,1.4-1,2.2
		C14.6,130.1,15,131.1,16,131.4L16,131.4z"/>
	<path class="st0" d="M21.4,123l-0.5,1.1l-7.7-3.1l0.5-1.1l1.3,0.5c-0.7-0.9-0.9-2.2-0.4-3.2c0.5-1.6,2.2-2.4,3.8-1.9
		c0.2,0.1,0.3,0.1,0.5,0.2l4.8,1.9l-0.5,1.1l-4.5-1.8c-1.1-0.6-2.4-0.2-3,0.8c-0.1,0.1-0.1,0.2-0.2,0.4c-0.5,1.2,0,2.7,1.3,3.2
		c0.1,0,0.1,0.1,0.2,0.1L21.4,123z"/>
	<path class="st0" d="M15.7,110.9l-1.2-0.6l0.6-1.3l1.2,0.6L15.7,110.9z M17.9,110.5l7.9,3.8c1,0.3,1.5,1.4,1.2,2.3
		c0,0.1-0.1,0.3-0.2,0.4c-0.1,0.2-0.2,0.5-0.4,0.7l-0.9-0.4c0.1-0.2,0.2-0.3,0.3-0.5c0.2-0.5,0.1-1-0.6-1.3l-7.8-3.8L17.9,110.5z"/>
	<path class="st0" d="M20.9,107.9l-1.1-0.2c0.1-1.1,0.4-2.1,0.9-3c1.1-2,2.8-2.5,4.6-1.4l4.4,2.5l-0.6,1l-1.1-0.6
		c0.5,1.1,0.4,2.3-0.2,3.3c-0.8,1.3-2.3,2.3-3.8,1.4s-1.6-2.6-0.6-4.4c0.4-0.7,1-1.4,1.6-2l-0.2-0.1c-1.3-0.7-2.4-0.3-3.2,1
		C21.2,106.1,21,107,20.9,107.9z M24.7,109.9c0.9,0.4,2,0,2.4-0.9c0,0,0-0.1,0.1-0.1c0.8-1.1,0.6-2.7-0.5-3.5l0,0L26,105
		c-0.6,0.6-1.1,1.2-1.5,1.9C23.6,108.3,23.8,109.3,24.7,109.9L24.7,109.9z"/>
	<path class="st0" d="M33.1,94.3l-1.7,2.1l3.1,2.4l-0.8,1l-8.8-6.9l2.6-3.3c1.6-2,3.6-2.5,5.4-1.1C34.8,90,34.6,92.4,33.1,94.3z
		 M28.4,90.5l-1.8,2.2l3.9,3l1.7-2.2c1.1-1.5,1.1-3-0.1-3.9C30.9,88.7,29.5,89,28.4,90.5L28.4,90.5z"/>
	<path class="st0" d="M42.8,89.3c-1.6,1.7-4.4,1.8-6.1,0.1s-1.8-4.4-0.1-6.1c1.6-1.7,4.4-1.8,6.1-0.2C44.4,84.8,44.5,87.5,42.8,89.3
		L42.8,89.3z M37.3,84.1c-1.2,1.2-1.1,3.1,0.1,4.2c0.1,0.1,0.1,0.1,0.2,0.2c1.2,1.2,3.2,1.2,4.4,0l0,0c1.2-1.2,1.1-3.2-0.1-4.3
		l-0.1-0.1C40.6,82.9,38.6,82.9,37.3,84.1C37.4,84.1,37.3,84.1,37.3,84.1L37.3,84.1z"/>
	<path class="st0" d="M49.3,81.6c0.8-0.7,1.2-1.6,1.2-2.6h1c0,1.3-0.5,2.6-1.5,3.4c-1.9,1.5-4.6,1.2-6.1-0.7
		c-1.4-1.7-1.3-4.2,0.3-5.7c1.8-1.6,4.2-1.1,5.8,0.8c0.1,0.1,0.2,0.2,0.2,0.3l-4.9,4.3C46.3,82.6,48.1,82.7,49.3,81.6z M48.6,77.2
		c-1.1-1.1-2.6-1.5-3.8-0.4c-1.1,1-1.1,2.8-0.2,3.9L48.6,77.2z"/>
	<path class="st0" d="M48.1,70.7l-0.8-1.1l1.1-0.9l0.8,1.1L48.1,70.7z M54.3,78.6l-5-6.6l1-0.8l5,6.6L54.3,78.6z"/>
	<path class="st0" d="M58.5,75.5l-1,0.7l-4.7-6.8l1-0.7l1.2,1.8c-0.4-1.5,0.2-3,1.5-3.8l0.8,1.1l-0.1,0.1c-1.5,1-2,2.9-0.5,5
		L58.5,75.5z"/>
	<path class="st0" d="M59.3,66.9l-0.8-0.7c0.6-0.9,1.3-1.6,2.2-2.1c1.9-1.1,3.6-0.8,4.7,1.1l2.6,4.4l-1,0.6l-0.6-1.1
		c-0.1,1.2-0.8,2.2-1.8,2.8c-1.3,0.8-3.1,0.8-4-0.7s-0.1-3.1,1.7-4.1c0.7-0.5,1.5-0.8,2.4-1l-0.1-0.2c-0.8-1.3-1.9-1.5-3.3-0.7
		C60.4,65.5,59.8,66.1,59.3,66.9z M61.6,70.4c0.6,0.8,1.7,1,2.6,0.4c0,0,0.1,0,0.1-0.1c1.3-0.8,1.9-2.2,1.2-3.3l-0.4-0.7
		c-0.8,0.2-1.6,0.5-2.3,0.9C61.5,68.5,61,69.5,61.6,70.4L61.6,70.4z"/>
	<path class="st0" d="M80.4,63.8l-0.6-1.5c-0.2,1.3-1,2.4-2.2,2.9c-2.2,0.9-4.7-0.2-5.6-2.5c-0.8-2.2,0.2-4.6,2.3-5.5
		c1.2-0.5,2.6-0.3,3.6,0.4L76,53l1.1-0.5l4.5,10.8L80.4,63.8z M74.9,58.1c-1.5,0.6-2.2,2.3-1.6,3.8c0,0.1,0.1,0.2,0.1,0.2
		c0.5,1.6,2.2,2.4,3.8,1.9h0.1c1.6-0.8,2.3-2.7,1.5-4.3C78.1,58.3,76.4,57.6,74.9,58.1L74.9,58.1z"/>
	<path class="st0" d="M87.1,60.6c1-0.3,1.7-1,2.2-1.9l0.9,0.4c-0.5,1.2-1.5,2.1-2.8,2.5c-2.3,0.6-4.7-0.8-5.2-3.2
		c-0.5-2.1,0.6-4.2,2.6-5c2.3-0.7,4.3,0.7,5,3.1c0,0.1,0.1,0.2,0.1,0.4l-6.3,1.9C84.1,60.2,85.7,61,87.1,60.6z M88.4,56.3
		c-0.6-1.4-1.8-2.4-3.3-1.9c-1.4,0.5-2.2,2-1.8,3.5L88.4,56.3z"/>
	<path class="st0" d="M102.4,55L102.4,55l-4.9-5.4l1.3,9l-1.2,0.2l-1.7-11.1l1.3-0.2l4.9,5.5l3.2-6.6l1.3-0.2l1.6,11.1l-1.2,0.2
		l-1.3-9L102.4,55z"/>
	<path class="st0" d="M111,50.5l-0.4-1c0.9-0.5,2-0.7,3-0.8c2.2-0.1,3.6,1,3.6,3.2l0.2,5h-1.2v-1.2c-0.7,1-1.8,1.5-3,1.5
		c-1.5,0-3.1-0.8-3.2-2.5c-0.1-1.7,1.3-2.7,3.4-2.8c0.9,0,1.7,0.1,2.6,0.3v-0.3c0-1.5-1-2.2-2.5-2.2C112.6,49.8,111.8,50.1,111,50.5
		z M111.3,54.7c0,1.1,1,1.6,2.1,1.6c1.4,0.1,2.6-0.9,2.7-2.3l0,0v-0.8c-0.8-0.2-1.6-0.3-2.4-0.3C112.1,53,111.3,53.7,111.3,54.7z"/>
	<path class="st0" d="M121,57.1l-1.2-0.1l0.3-8.3l1.2,0.1l-0.1,2.1c0.6-1.4,2-2.2,3.5-2.1l-0.1,1.3h0c-1.8-0.1-3.3,1.1-3.4,3.6
		L121,57.1z"/>
	<path class="st0" d="M128,55.3c-0.2,0.7,0.2,1.3,0.9,1.5c0.1,0,0.2,0,0.3,0c0.4,0,0.8,0,1.2-0.2l-0.1,1c-0.5,0.2-1,0.3-1.5,0.2
		c-1.2,0-2.1-0.9-2.1-2.1c0-0.2,0-0.3,0.1-0.5l0.5-5l-1.1-0.1l0.1-1.1l1.1,0.1l0.2-2.4l1.2,0.1l-0.3,2.5l2.6,0.3l-0.1,1.1l-2.6-0.3
		L128,55.3z"/>
	<path class="st0" d="M135.8,57.9c1,0.2,2-0.1,2.8-0.7l0.6,0.8c-1,0.9-2.3,1.2-3.6,0.9c-2.3-0.5-3.8-2.9-3.2-5.2
		c0.5-2.1,2.5-3.5,4.6-3.3c2.4,0.4,3.4,2.6,3,5c0,0.1,0,0.2-0.1,0.4l-6.5-1.2C133.2,56.2,134.3,57.6,135.8,57.9z M138.8,54.6
		c0.1-1.5-0.5-2.9-2.1-3.2c-1.5-0.2-2.9,0.8-3.2,2.3L138.8,54.6z"/>
	<ellipse class="st1" cx="117.3" cy="158.3" rx="80.9" ry="80"/>
	<g>
		<g>
			<defs>
				<ellipse id="SVGID_1_" cx="117.3" cy="158.3" rx="80.9" ry="80"/>
			</defs>
			<clipPath id="SVGID_2_">
				<use xlink:href="#SVGID_1_"  style="overflow:visible;"/>
			</clipPath>
			<g class="st2">
				<path class="st3" d="M129.2,240.9c0,0-9.2-6.2-7.5-10.8s7.9-4.1,12-5.6s6.9-4.1,11.5-5.2s11.6,1.9,18.2-1.8s12.3-26.9,21.6-33.9
					s23.8-4.5,23.8-4.5l-6.4,52.9l-24.8,11.5l-43,4.8L129.2,240.9z"/>
				<path class="st3" d="M35.7,148.8c2.9,2.5,10.5,7.2,18.6-0.5c0,0-6.2,15.7-5.8,21.9s3.2,12.5,7.5,17.9s13.6,16.2,1.9,30.9
					C57.1,219.5,32.4,215,35.7,148.8z"/>
				<path class="st3" d="M143.3,75.9c0,0-1.7,11.8,5.5,15.8s8.5,2.8,11.1,5.4s2.6,13,13.3,20.8s13.5,12.6,15,15.8s5.1,12.6,16,12.7
					l-8.1-51l-41.8-16.3l-4.9-3.8L143.3,75.9z"/>
				<path class="st3" d="M123.8,171.1c2.2-0.3,13.7-5.7,15.9,0.5s3.5,14.7,8,14.5s6.8-5.6,7.4-7.3s2.8-6.2,6.4-4.2s5.2,2.4,9.9-2.8
					s7.8-4.4,10.1-2.1s4.7-2.2,2.3-7.3s-4.3-6.5-5.2-10.4s-3.6-0.1-6.2,2.3s-7.5,3.7-11.5-7.4c0,0-2.7-7-3.6-8.9s-4.5-8-8.8-1.1
					s-13.8,6-18.4,6.9c-4.6,0.9-14.9,2.1-9.7,9.9c1.4,2.3,1.6,5.1,0.7,7.6C119.3,165.2,117.3,171.7,123.8,171.1z"/>
				<path class="st3" d="M37.7,139.1c0,0,8.1,3.2,13.5,0.6s12.4-11.5,16-11.3c3.6,0.2,5.8-0.6,5.8,12.8s14.7,29.3,28.4,27.4
					s9.6-17.5,3.2-22.2s-12.8-13.3-4.5-22s21.6-21.4,16.7-27.1S98,94.1,98,94.1s11.8-6.2,11.8-17.7s-1.5-12.2-1.5-12.2L69.4,77.9
					l-32.7,16l-7.1,37.6L37.7,139.1z"/>
				<path class="st3" d="M99.5,187.9c2.6,1.3,11.4,6.7,10.1,13.3s-10.4,6.6-15.7,4.8c-4.5-1.5-14.4-8.2-10.2-17.7
					C83.8,188.2,87.1,182.1,99.5,187.9z"/>
				<path class="st3" d="M128.7,102c3.5-4.3,12.8-4.1,17.9-0.4s9.3,11.8,4.8,17.1s-17.3-2.6-20.1-5.3
					C127.8,110.2,125.7,106.1,128.7,102z"/>
				<path class="st4" d="M158.7,159.9c0,4.1-2.4,8.3-5.3,8.3s-5.1-4.3-5.1-8.3s2.2-8,5.1-8S158.7,155.9,158.7,159.9z"/>
				<path class="st4" d="M96.1,190.9c6.6,3.4,7.6,7.1,6.5,10c-0.8,1.9-4.5,4.4-10.8,1.2s-5.5-8.7-4.3-10.7S92.3,189,96.1,190.9z"/>
				<path class="st3" d="M59.8,166c3.8-1.3,7.6,8,3.3,10.5S55.9,167.3,59.8,166z"/>
				<path class="st5" d="M42.3,131.4c0,0,8.3,3.5,16.5-3.7c8.2-7.2,23.3-19.5,21.9,0.1s7.4,30,21,26.5c0,0-10.2-5.3-11.1-12.6
					s-1.2-14.5,9.8-26.3S115.5,96,99.8,98c-14,1.8-21.4,3.6-16.2-1.2c6.8-6.3,19.6-8.9,21.6-22.5l-31.4,8.4l-25.7,25.4l-8.6,14.5
					l-0.6,9.2L42.3,131.4z"/>
				<path class="st5" d="M147.2,77.5c1.2,9.4,1.9,12.4,10.6,15.7c2.6,1,5.2,2.6,6.8,9.1c1.8,7.1,9.9,15,15.8,19.4
					c12.8,9.5,8.9,20.4,19.4,18.6l-12.7-37.6L147.2,77.5z"/>
				<path class="st4" d="M135.5,104c3.7-1.8,8.1-1.1,10.9,1.9c3,3.3,4.4,8.1-2.3,8.4S132,106.1,135.5,104z"/>
				<path class="st3" d="M116,226.2c0,2.9-3,5.2-6.8,5.2s-7.7-3.2-7.7-6.1s4-4.4,7.7-4.4S116,223.4,116,226.2z"/>
				<path class="st5" d="M132.2,238c-5.3-2.9-8-7.3-1.1-8.7c6.9-1.4,8.2-3.6,10.7-4.2s19.4,0.5,26.8-6.3s12.9-23.7,16.4-29.4
					s18.4-7.4,18.4-7.4L187,229.4l-29,8.8l-22.8,6.8L132.2,238z"/>
				<ellipse class="st6" cx="117.3" cy="158.3" rx="80.9" ry="80"/>
			</g>
		</g>
	</g>
	<circle class="st7" cx="191.1" cy="34.2" r="30.8"/>
	<path class="st0" d="M243.6,235.3l2.1,1.9l0.9-1.3l1.4,0.9l-1,1.6l1.9,1.8l-1,1.4l-1.9-1.8l-1.4,2.2l1.9,1.8l-1,1.4l-1.9-1.8
		l-0.8,1.2l-1.4-0.9l0.9-1.4l-2.1-1.9l-0.9,1.3l-1.4-0.9l1-1.6l-1.9-1.8l1-1.4l1.9,1.8l1.4-2.2l-1.9-1.7l1-1.4l1.9,1.8l0.8-1.2
		l1.4,0.9L243.6,235.3z M241.2,238.9l2.1,2l1.4-2.2l-2.1-2L241.2,238.9z"/>
	<path class="st0" d="M252.7,231.9c0.5-0.9,0.6-1.9,0.3-2.9l1-0.3c0.5,1.2,0.4,2.6-0.3,3.7c-1.2,2-3.9,2.7-5.9,1.5
		c-1.9-1.1-2.6-3.6-1.7-5.6c1.2-2.1,3.6-2.4,5.7-1.2c0.1,0.1,0.2,0.1,0.3,0.2l-3.2,5.7C250.2,233.8,251.9,233.3,252.7,231.9z
		 M250.7,228c-1.4-0.6-2.9-0.5-3.8,0.9c-0.7,1.3-0.2,3,1.1,3.7L250.7,228z"/>
	<path class="st0" d="M247.4,222.5l-1-0.5l3.1-6.5l0.8,0.4l2,4.8c1-1.7,2.6-2.9,4.4-2c1.7,0.9,2.4,3,1.5,4.7c0,0.1-0.1,0.1-0.1,0.2
		c-0.7,1.5-2,2.6-3.6,2.9l-0.3-1.2c1.3-0.2,2.4-1.1,2.9-2.2c0.6-1.1,0.3-2.5-0.8-3.1c0,0-0.1,0-0.1-0.1c-1.3-0.6-2.5,0.2-3.3,1.9
		l-0.3,0.6l-0.8-0.1l-2.1-4.9L247.4,222.5z"/>
	<path class="st0" d="M250.9,211.6l0.3-0.9l10.4,4.2l-0.5,1.1l-9.2-3.7l-0.2,2.2l-1.1-0.1L250.9,211.6z"/>
	<path class="st0" d="M255.3,208.7l-0.9,0.7c-1.2-1.2-1.5-3-0.9-4.6c0.4-1.7,2.2-2.8,3.9-2.3c0.1,0,0.2,0,0.2,0.1
		c1.6,0.5,2.2,1.7,3.2,4.1l1.5,3.7l1.9-5.6l1.1,0.4l-2.5,7.4l-0.9-0.3l-2.1-5c-0.9-2.1-1.5-3-2.6-3.4s-2.3,0.2-2.7,1.3v0.1
		C254,206.4,254.4,207.4,255.3,208.7z"/>
	<path class="st0" d="M255.7,197.6l0.2-0.9l10.8,3.1l-0.3,1.2l-9.6-2.7l0.1,2.2h-1.1L255.7,197.6z"/>
	<path class="st0" d="M268.6,192.9c-0.5,2.3-2.2,3.8-4,3.4c-1.3-0.4-2.2-1.5-2.2-2.8c-0.6,1-1.8,1.5-2.9,1.3
		c-1.7-0.4-2.5-2.4-2.1-4.4s2-3.5,3.7-3.1c1.1,0.3,2,1.3,2.1,2.4c0.6-1.2,1.9-1.9,3.2-1.7C268.3,188.6,269.1,190.6,268.6,192.9z
		 M258.5,190.7c-0.3,1.4,0.2,2.7,1.4,2.9c1.4,0,2.6-1.2,2.6-2.6c0-1-0.6-2-1.5-2.4C259.8,188.4,258.8,189.3,258.5,190.7z
		 M263.4,191.8c-0.3,1.6,0.2,3,1.5,3.3s2.3-0.6,2.7-2.4s-0.3-3.1-1.4-3.3S263.7,190.2,263.4,191.8L263.4,191.8z"/>
	<path class="st8" d="M214.4,252.1c-0.1,0.4-0.2,0.8-0.3,1.1c-0.2,0.4-0.4,0.8-0.6,1.1c-0.3,0.4-0.6,0.7-1,1.1
		c-0.6,0.5-1.3,0.9-2,1.2c-0.7,0.2-1.4,0.3-2.2,0.3c-0.7,0-1.5-0.2-2.1-0.6c-0.7-0.3-1.3-0.8-1.8-1.4c-0.5-0.6-0.9-1.2-1.2-2
		c-0.3-0.7-0.4-1.4-0.3-2.2c0.1-1.6,0.8-3,2-4c0.3-0.3,0.7-0.6,1.1-0.8c0.3-0.2,0.7-0.4,1.1-0.5c0.4-0.1,0.7-0.2,1.1-0.2
		c0.4,0,0.7,0,1.1,0v1.9c-0.6,0-1.2,0.1-1.7,0.2c-0.6,0.2-1.1,0.5-1.5,0.9c-0.4,0.3-0.7,0.8-0.9,1.2s-0.3,0.9-0.3,1.4s0.1,1,0.3,1.4
		c0.2,0.5,0.5,0.9,0.8,1.3c0.3,0.4,0.8,0.7,1.2,1c0.4,0.2,0.9,0.4,1.4,0.4c0.5,0.1,1,0,1.4-0.1c0.5-0.2,0.9-0.4,1.3-0.8
		c0.5-0.4,0.8-0.9,1-1.5s0.3-1.2,0.4-1.8l1.8,0.1C214.4,251.3,214.4,251.7,214.4,252.1z"/>
	<path class="st0" d="M220.6,247.2c-1.9,2.1-5.1,1.7-7.4-0.4s-3.1-5.3-1.1-7.4s5.1-1.7,7.4,0.4S222.5,245,220.6,247.2z M212.9,240.2
		c-1.4,1.6-0.7,4,1.1,5.6s4.4,2.1,5.8,0.6s0.7-4-1.2-5.6S214.3,238.6,212.9,240.2z"/>
	<path class="st9" d="M226.7,235L226.7,235l-6.3-0.2l6.5,4.7l-1.1,1.6l-9.1-6.5l1.2-1.7l6.3,0.3l-2.3-5.9l1.2-1.7l9.1,6.5l-1.1,1.6
		l-6.5-4.7L226.7,235z"/>
	<path class="st0" d="M235.8,226.3c-0.7,1.1-1.7,1.9-2.9,2.3l-0.5-1.1c1-0.3,1.9-0.9,2.4-1.8c1-1.8-0.1-4-2.6-5.3
		c0.7,1.1,0.7,2.5,0,3.6c-1.2,2-3.2,2.7-5,1.6c-1.8-1-2.5-3.4-1.4-5.2c0-0.1,0.1-0.1,0.1-0.2c0.5-1,1.4-1.7,2.5-2
		c1.2-0.3,2.5-0.2,4.5,1C235.9,221,237.2,223.9,235.8,226.3z M226.8,220.9c-0.7,1.2-0.4,2.8,0.8,3.6c0,0,0.1,0.1,0.2,0.1
		c1.2,0.7,2.7,0.2,3.4-1c0-0.1,0.1-0.1,0.1-0.2c0.8-1.2,0.5-2.8-0.7-3.6s-2.8-0.5-3.6,0.7C227,220.6,226.9,220.8,226.8,220.9
		L226.8,220.9z"/>
	<path class="st0" d="M241,216.3c-1,2.2-2.9,3.3-4.7,2.5c-1.2-0.6-1.8-1.9-1.6-3.2c-0.8,0.9-2.1,1.1-3.2,0.7c-1.6-0.7-2-2.9-1.1-4.7
		s2.7-3,4.3-2.2c1.1,0.5,1.7,1.6,1.6,2.8c0.8-1,2.2-1.4,3.5-0.9C241.6,211.9,242,214.1,241,216.3z M231.5,211.9
		c-0.6,1.3-0.3,2.7,0.7,3.1s2.3-0.2,2.9-1.5s0.3-2.7-0.8-3.2S232.1,210.6,231.5,211.9L231.5,211.9z M236.1,214
		c-0.7,1.5-0.4,3,0.7,3.5s2.4-0.1,3.1-1.8s0.3-3.1-0.7-3.5S236.8,212.6,236.1,214L236.1,214z"/>
	<path class="st10" d="M245.4,204.7l-0.7,1.9l-4.2-1.5l-7.9,2l0.8-2.2l5.7-1.3l-3.6-4.6l0.7-2.1l4.9,6.4L245.4,204.7z"/>
	<path class="st0" d="M248.5,195c-0.3,1.2-1.1,2.3-2.2,3l-0.8-0.9c0.9-0.5,1.5-1.4,1.8-2.4c0.5-2-1.2-3.8-4-4.4
		c0.9,0.9,1.3,2.2,1,3.5c-0.6,2.2-2.3,3.5-4.3,3c-2.1-0.5-3.3-2.6-2.8-4.6c0-0.1,0-0.1,0.1-0.2c0.2-1.1,0.9-2,1.8-2.6
		c1.1-0.6,2.4-0.9,4.6-0.3C247.1,189.9,249.1,192.3,248.5,195z M238.4,192.3c-0.4,1.4,0.4,2.8,1.7,3.2c0.1,0,0.1,0,0.2,0
		c1.4,0.3,2.7-0.6,3-1.9v-0.1c0.3-1.4-0.5-2.8-1.9-3.1C240,190,238.6,190.9,238.4,192.3L238.4,192.3z"/>
	<path class="st0" d="M238.7,186.5l1.2-7.5l0.9,0.1l9.3,6.6l-0.2,1.4l-9.1-6.5l-0.9,6.1L238.7,186.5z"/>
	<path class="st0" d="M251.9,167.9l-0.2,2.4l-5.3,3.5l1.7,1.9l3.2,0.2l-0.1,1.9L240,177l0.1-2l5.6,0.4l-5.3-5.7l0.2-2.4l4.5,4.9
		L251.9,167.9z"/>
	<path class="st0" d="M251.9,161.2c0.1,2.9-2.4,4.8-5.6,4.9s-5.9-1.6-6-4.5s2.4-4.8,5.6-4.9S251.8,158.3,251.9,161.2z M241.5,161.6
		c0.1,2.1,2.3,3.3,4.8,3.2s4.6-1.5,4.5-3.6s-2.3-3.3-4.8-3.2S241.4,159.5,241.5,161.6L241.5,161.6z"/>
	<path class="st11" d="M197.1,241.3l-4.6-1.3l-1.9,1.6l2.5,3l-1.5,1.2l-7.1-8.6l3.9-3.2c0.4-0.4,1-0.7,1.5-0.9s1-0.3,1.5-0.3
		s0.9,0.1,1.3,0.3c0.5,0.2,0.8,0.6,1.2,1c0.3,0.3,0.5,0.7,0.6,1.1c0.1,0.4,0.2,0.7,0.2,1.1c0,0.4-0.1,0.7-0.2,1.1
		c-0.1,0.4-0.3,0.7-0.5,1l5,1.4L197.1,241.3z M190.9,234.8c-0.6,0.1-1.2,0.3-1.6,0.7l-2.2,1.8l2.4,2.9l2.2-1.8
		c0.5-0.4,0.9-0.9,1-1.5c0.2-1-0.5-2-1.6-2.1C191.1,234.8,191,234.8,190.9,234.8L190.9,234.8z"/>
	<path class="st0" d="M195.3,231.7l-1.1,0.2c-0.5-1.6-0.1-3.4,1.1-4.5c1.1-1.4,3.2-1.6,4.5-0.4c0.1,0,0.1,0.1,0.2,0.1
		c1.2,1.1,1.3,2.5,1.2,5.1l-0.2,4l4.1-4.3l0.8,0.8l-5.4,5.6l-0.7-0.7l0.2-5.4c0.1-2.3-0.1-3.4-0.9-4.1c-0.8-0.8-2.2-0.8-3,0
		l-0.1,0.1C195.1,229.1,195,230.2,195.3,231.7z"/>
	<path class="st0" d="M201.7,224.7l-1.1,0.3c-0.7-1.5-0.5-3.3,0.6-4.6c1-1.5,3-1.9,4.5-0.9c0.1,0,0.1,0.1,0.2,0.1
		c1.3,1,1.6,2.3,1.7,4.9l0.3,4l3.6-4.7l0.9,0.7l-4.8,6.2l-0.8-0.6l-0.3-5.4c-0.2-2.3-0.5-3.3-1.3-4c-0.9-0.7-2.3-0.6-3,0.4
		c0,0,0,0.1-0.1,0.1C201.2,222.2,201.2,223.3,201.7,224.7z"/>
	<path class="st0" d="M204.3,216.5l4-6.5l0.8,0.5l6,9.7l-0.7,1.2l-5.9-9.6l-3.2,5.2L204.3,216.5z"/>
	<path class="st12" d="M222.4,204.6c0,0.4,0,0.8,0,1.2s-0.1,0.9-0.2,1.3c-0.1,0.5-0.3,0.9-0.5,1.3c-0.3,0.7-0.8,1.4-1.4,2
		c-0.5,0.5-1.2,0.9-1.9,1.1c-0.7,0.2-1.4,0.3-2.2,0.3c-0.8-0.1-1.5-0.2-2.2-0.6c-0.7-0.3-1.3-0.8-1.8-1.3s-0.9-1.2-1.2-1.9
		s-0.4-1.4-0.4-2.2s0.2-1.6,0.6-2.3c0.2-0.4,0.4-0.8,0.7-1.2c0.2-0.3,0.5-0.6,0.7-0.9c0.3-0.3,0.5-0.5,0.8-0.7s0.6-0.4,1-0.5
		l0.8,1.8c-0.2,0.1-0.5,0.2-0.7,0.4c-0.5,0.3-0.9,0.7-1.2,1.1c-0.2,0.3-0.4,0.5-0.5,0.8c-0.2,0.4-0.3,0.9-0.3,1.4s0.1,1,0.3,1.4
		c0.2,0.5,0.5,0.9,0.8,1.2c0.4,0.4,0.8,0.7,1.3,0.9s1,0.4,1.6,0.4c1,0.1,2-0.2,2.8-0.9c0.4-0.4,0.7-0.8,0.9-1.3s0.4-1,0.4-1.5
		c0.1-0.5,0-0.9-0.1-1.4l-1.9-0.9l-1.2,2.6l-1.6-0.7l2-4.3l4.3,2C222.2,203.9,222.3,204.3,222.4,204.6z"/>
	<path class="st0" d="M214.5,195.7l0.3-0.9l10.7,3.6l-0.4,1.2l-9.4-3.2l-0.1,2.3h-1.1V195.7z"/>
	<path class="st0" d="M227.6,191.6c-0.6,2.3-2.3,3.8-4.1,3.3c-1.3-0.4-2.1-1.6-2.1-2.9c-0.6,1-1.8,1.5-3,1.2c-1.7-0.4-2.5-2.4-2-4.4
		s2.1-3.4,3.8-3c1.1,0.3,1.9,1.3,2,2.5c0.6-1.2,1.9-1.8,3.2-1.6C227.4,187.2,228.2,189.2,227.6,191.6z M217.5,189.1
		c-0.3,1.4,0.2,2.7,1.3,3s2.3-0.6,2.6-2s-0.2-2.7-1.4-3S217.9,187.7,217.5,189.1z M222.4,190.3c-0.4,1.6,0.2,3,1.4,3.4
		s2.3-0.5,2.8-2.3s-0.2-3.1-1.3-3.4S222.8,188.7,222.4,190.3L222.4,190.3z"/>
	<path class="st13" d="M219.6,175.5c0.6-0.6,1.4-0.9,2.2-0.7c0.3,0,0.6,0.1,0.9,0.2c0.2,0.1,0.5,0.3,0.7,0.4
		c0.2,0.2,0.3,0.4,0.4,0.6c0.1,0.2,0.2,0.4,0.3,0.6c0.1-0.3,0.3-0.6,0.5-0.9c0.2-0.2,0.4-0.5,0.6-0.6c0.2-0.2,0.5-0.3,0.8-0.4
		c0.3-0.1,0.7-0.1,1,0c0.5,0,0.9,0.2,1.3,0.5c0.4,0.2,0.7,0.6,0.9,1s0.4,0.9,0.4,1.4c0.1,0.6,0.1,1.1,0,1.7l-0.6,5.1l-11.1-1.3
		l0.6-5C218.6,177.1,219,176.2,219.6,175.5z M223,177.4c-0.2-0.4-0.6-0.7-1.1-0.7c-0.4-0.1-0.8,0.1-1.1,0.4
		c-0.3,0.4-0.5,0.9-0.6,1.4l-0.3,2.8l3,0.4l0.3-2.7C223.3,178.5,223.2,177.9,223,177.4L223,177.4z M227.7,177.4
		c-0.4-0.7-1.3-0.9-1.9-0.5c-0.1,0.1-0.2,0.2-0.3,0.3c-0.4,0.5-0.6,1.1-0.6,1.7l-0.4,3.1l3,0.4l0.4-3.2
		C228,178.5,227.9,177.9,227.7,177.4L227.7,177.4z"/>
	<path class="st0" d="M222,171.6l-0.7,0.9c-1.5-0.8-2.4-2.3-2.4-4c-0.1-1.8,1.2-3.3,3-3.5c0.1,0,0.2,0,0.2,0c1.7,0,2.7,0.9,4.4,2.8
		l2.7,3v-5.9h1.2v7.8h-1l-3.6-4.1c-1.5-1.7-2.4-2.3-3.5-2.4c-1.2,0-2.1,1-2.1,2.1v0.1C220,169.9,220.7,170.7,222,171.6z"/>
	<path class="st0" d="M218.2,156.7l7.5-0.8l-0.2-1.7l1-0.1l0.2,1.7l2.6-0.3l0.1,1.2l-2.6,0.3l0.6,5.9l-0.9,0.4l-8.3-5.5L218.2,156.7
		z M220.1,157.7l6.2,4.1l-0.5-4.7L220.1,157.7z"/>
</g>
</svg>
