<?xml version="1.0" encoding="utf-8"?>
<!-- Generator: Adobe Illustrator 23.0.3, SVG Export Plug-In . SVG Version: 6.00 Build 0)  -->
<svg version="1.1" id="Layer_1" xmlns="http://www.w3.org/2000/svg" xmlns:xlink="http://www.w3.org/1999/xlink" x="0px" y="0px"
	 viewBox="0 0 825 199.3" style="enable-background:new 0 0 825 199.3;" xml:space="preserve">
<style type="text/css">
	.st0{fill:#E9E878;}
	.st1{fill:#D51F1F;}
	.st2{enable-background:new    ;}
	.st3{fill:#FFFFFF;}
</style>
<title>Asset 4</title>
<g>
	<g id="Layer_1-2">
		<path class="st0" d="M43.1,25.4v14.3c3.5-4.5,7.8-8.3,12.7-11.4c5.2-3.3,11.3-4.9,18.5-4.9c6.4-0.2,12.7,1.3,18.3,4.4
			c5.2,2.9,9.4,7.4,12.1,12.7c4.3-4.8,9.3-8.9,14.9-12.2c5.5-3.2,12.2-4.8,20.2-4.8c11.1,0,19.9,3.3,26.3,10
			c6.4,6.7,9.6,15.9,9.6,27.6v68.1h-43.1V74.6c0-4.4-1.1-7.8-3.3-10.1c-2-2.3-5-3.5-8-3.5c-3.1,0-6.1,1.3-8.3,3.5
			c-2.4,2.3-3.6,5.7-3.6,10.1v54.7H66.2V74.6c0-4.4-1.1-7.8-3.3-10.1c-2-2.3-5-3.5-8-3.5c-3.1,0-6.1,1.3-8.3,3.5
			c-2.4,2.3-3.6,5.7-3.6,10.1v54.7H0V68.6C0,44.7,19.3,25.4,43.1,25.4C43.1,25.4,43.1,25.4,43.1,25.4z"/>
		<path class="st0" d="M221.3,131.7c-4.6,0-9.2-0.7-13.6-2.1c-4-1.3-7.6-3.4-10.8-6.2c-3.1-2.7-5.4-6.1-7-9.9
			c-1.7-4.3-2.6-9-2.5-13.6v-0.4c0-10.3,3.5-18.3,10.6-23.8c7.1-5.5,16.6-8.3,28.8-8.3c2.1,0,4.4,0.1,6.8,0.3s4.7,0.5,6.9,0.8
			c2.2,0.4,4.3,0.8,6.1,1.2c1.6,0.3,3.1,0.8,4.5,1.4v-1.7c0-4.8-1.5-8.5-4.5-11.1c-3-2.6-7.9-3.9-14.6-3.9c-5,0-10,0.5-14.9,1.6
			c-4.7,1.1-9.3,2.5-13.7,4.3l0,0c-3.9-15,5-30.3,19.9-34.2c1-0.3,2-0.5,3.1-0.6c4.3-0.7,8.6-1.1,13-1.3c10.6,0,19.4,1.1,26.4,3.3
			c6.5,1.9,12.4,5.4,17.3,10.1c3.8,3.8,6.7,8.5,8.3,13.6c1.8,6.2,2.6,12.6,2.5,19.1v58.9h-43v-10.4c-3.6,3.9-8,7.1-12.8,9.4
			C232.9,130.6,227.1,131.8,221.3,131.7z M238.3,106.9c3.6,0.1,7.1-1.5,9.5-4.3c2.5-2.8,3.8-6.7,3.8-11.6v-4.3c-1.5-0.6-3-1-4.5-1.2
			c-1.7-0.3-3.5-0.5-5.3-0.5c-4.3,0-7.6,1.1-9.8,3.3c-2.2,2.1-3.5,5.1-3.4,8.2v0.4c-0.3,5.3,3.8,9.7,9.1,10
			C237.8,106.9,238,106.9,238.3,106.9L238.3,106.9z"/>
		<path class="st0" d="M350,25.9L350,25.9v20.8c2.5-6.4,6.6-12.2,11.9-16.6c5-4.2,11.9-6.1,20.4-5.7V70h-4.5c-9.1,0-16,2.6-20.7,7.8
			c-4.7,5.2-7.1,13.6-7.1,25.1v26.3h-43.1V69.1C306.9,45.2,326.2,25.9,350,25.9z"/>
		<path class="st0" d="M446,131.5c-12.8,0-22.5-3-29.2-9s-10-15.3-10-27.9v-25h-12.1V24.2h12.1C406.9,10.8,417.7,0,431,0
			c0,0,0,0,0,0H450v24.2h23.8v45.4H450V85c0,3.9,0.9,6.6,2.6,8.2s4.4,2.4,7.8,2.4c4.5-0.1,8.9-1.1,13-3v33.1
			c-3.9,1.9-8,3.4-12.3,4.3C456.1,131,451.1,131.5,446,131.5z"/>
		<path class="st0" d="M543.6,131.7c-7.9,0.1-15.7-1.2-23.2-3.9c-6.7-2.4-12.8-6.1-18-10.9c-5-4.7-9-10.5-11.5-16.8
			c-2.8-7-4.2-14.5-4.1-22v-0.4c-0.1-7.3,1.3-14.6,4-21.5c2.5-6.4,6.2-12.2,11-17.2c4.8-4.9,10.5-8.8,16.8-11.5
			c6.8-2.8,14.1-4.2,21.4-4.1c9.2,0,17.2,1.5,23.9,4.5c6.4,2.7,12.2,6.9,16.7,12.2c4.5,5.3,7.8,11.5,9.8,18.2
			c2.2,7.2,3.3,14.6,3.2,22.1V84c0,1.2-0.1,2.4-0.2,3.6h-66.4c1.2,4.2,3.8,7.8,7.4,10.3c3.6,2.4,7.8,3.6,12.1,3.5
			c3.8,0,7.5-0.9,10.9-2.6c3.8-2.1,7.2-4.8,10.1-8l23.1,18.3c-5.1,6.7-11.6,12.2-19,16.3C564.2,129.6,554.8,131.7,543.6,131.7z
			 M554.6,68.7c-0.5-4.9-2.1-8.7-4.7-11.5c-2.5-2.6-6-4.1-9.7-4.1c-3.5-0.1-6.8,1.5-9.1,4.2c-2.4,2.8-3.9,6.6-4.5,11.4H554.6z"/>
		<path class="st1" d="M631.1,10.5h1.9l1.5,75.6c0,2,0.2,6.1,0.6,12.2v12.3c0.1,3.6,0,7.3-0.4,10.9c-3.1,0.4-6.3,0.6-9.4,0.6
			c-1.3,0-4.5-0.1-9.4-0.3c-4.9-0.2-8-0.3-9.4-0.3l-0.5-0.9l2.2-70.3c0.3-6.3,0.7-14.7,1.5-25.3c0.5-6.7,0.7-10.7,0.7-12
			c0-0.3-0.1-0.7-0.2-1c-0.1-0.3-0.1-0.7-0.2-1c0-1.2,0.5-1.9,1.7-1.9c0.7,0.1,1.4,0.2,2.1,0.4c0.6,0.2,1.3,0.3,1.9,0.4
			c0.8,0,1.6-0.3,2.2-0.8h7.4C627.3,9,629.3,9.5,631.1,10.5z"/>
		<path class="st1" d="M712.5,130.4l0.1,1.7l-71.8,4.7c-1.9,0.1-5.7,0.4-11.5,1.1l-11.8,0.6c-3.4,0.3-6.9,0.3-10.4,0.1
			c-0.5-2.9-0.8-5.8-0.9-8.7c-0.1-1.2-0.1-4.1-0.1-8.7c0-4.6-0.1-7.5-0.1-8.7l0.8-0.6l67-1.1c6-0.1,14,0,24.1,0.2
			c6.3,0.2,10.2,0.2,11.5,0.2c0.3-0.1,0.7-0.1,1-0.2c0.3-0.1,0.7-0.2,1-0.2c1.2-0.1,1.8,0.4,1.8,1.4c0,0.7-0.1,1.3-0.3,2
			c-0.1,0.6-0.2,1.2-0.3,1.8c0,0.7,0.3,1.5,0.8,2l0.1,2l0.1,2.4l0.1,2.4C713.8,126.8,713.4,128.7,712.5,130.4z"/>
		<path class="st1" d="M728.6,60.8c0,2.6,0.2,8.4,0.5,17.5s0.5,14.9,0.5,17.5c0,5.7-0.3,11.5-0.9,17.1c-1.7,1.6-6.6,2.4-14.8,2.4
			c-1.5,0-3.1-0.1-4.6-0.4c-0.6-2.8-1-5.6-0.9-8.5c0-3,0.3-6,0.7-9c-9.6,1.3-21.7,2-36.3,2c-2.9,0-11.6-0.1-26-0.4l-2.2-2.2
			c-0.6-5.8-0.9-11.5-0.9-17.3c0-13.2,0.6-21.2,1.8-24.2c1.6-3.8,11.4-5.7,29.5-5.7c7,0,15.2,0.4,24.5,1.1l11.6,0.9
			c1.1,0.1,1.7-1.2,1.7-3.9v-0.2l-0.6-6.6l-0.9-0.5h-63.6c-0.6-0.9-0.9-2-0.9-3.1c0-0.4,0.1-1.3,0.2-2.8s0.2-2.5,0.2-3
			s0.3-2.5,0.9-5.9c15.6-2,31.4-3,47.2-3h3.1c10.1,0,16.3,0.2,18.6,0.5c8.5,1.3,12.7,4.7,12.7,10c0,2.1-0.2,6.7-0.6,13.7
			C728.7,54.2,728.6,58.8,728.6,60.8z M707.2,79.3c0.2-1.3,0.4-2.6,0.4-3.9c0-2.5-0.4-5-1.3-7.4c-5.6,0.1-14.2,0.8-25.6,2
			c-0.8,2.2-1.1,4.5-1.1,6.8c0,1.2,0.1,2.3,0.2,3.5l0.5,0.6c1.6,0.1,3.3,0.2,5,0.2C692.6,81.1,699.9,80.5,707.2,79.3z"/>
		<path class="st1" d="M825,79.3c0,11.2-1.9,18.8-5.8,23s-10.8,6.2-20.8,6.3c-1.6,0-5.1-0.2-10.5-0.5s-11.3-0.2-11.3-0.2h-37
			c-1.6-9.7-1.9-6.7-2-17.4v-31c0-4.3-0.3-18.9-0.9-43.9c5-0.5,12.2-0.7,21.6-0.7h5.7c5.8,0,9.6,0.7,11.4,2.2
			c-0.4,4.1-0.5,8.6-0.5,13.6c0,3.2,0.1,8.1,0.4,14.7h4.6c1.7,0,5.6-0.1,11.7-0.3s10-0.3,11.7-0.3h0.5c2.6,0,5.2,0.2,7.7,0.5
			C820.5,47,825,58.3,825,79.3z M788.5,86.8c0.3-1.7,0.4-3.3,0.4-5c-0.1-4.5-0.7-8.9-1.9-13.2c-1.5-0.7-3.1-1-4.8-0.9H780
			c-0.7,0.1-1.5,0.2-2.2,0.2c-0.5,0-1-0.1-1.5-0.2v20.1c1,0.1,2.1,0.2,3.1,0.2h3.3C784.7,88,786.7,87.6,788.5,86.8z"/>
		<g class="st2">
			<path class="st3" d="M192.3,190c-1-0.7-1.5-1.8-1.5-3.3c0-0.4,0-0.8,0.1-1.2c0.1-0.4,0.1-0.8,0.2-1.1l3.5-12.9h-3l0.8-2.9h3.1
				l1.8-6.7h3.3l-1.8,6.7h7l-0.8,2.9h-7l-3.4,12.7c-0.1,0.3-0.1,0.5-0.1,0.8c0,0.3,0,0.6,0,0.8c0,0.8,0.3,1.3,0.8,1.7
				c0.5,0.4,1.3,0.6,2.2,0.6c1,0,2-0.2,3.2-0.6l-0.8,3c-0.6,0.2-1.1,0.4-1.7,0.5c-0.6,0.1-1.2,0.2-1.8,0.2
				C194.6,191.1,193.3,190.7,192.3,190z"/>
			<path class="st3" d="M206.5,186.2h3.9l-1.2,4.5h-3.9L206.5,186.2z"/>
			<path class="st3" d="M222.7,168.6h3.3l-6,22.2h-3.3L222.7,168.6z M224.7,160.1h3.8l-1,3.6h-3.8L224.7,160.1z"/>
			<path class="st3" d="M228.7,186.2h3.9l-1.2,4.5h-3.9L228.7,186.2z"/>
			<path class="st3" d="M258.2,190.5c-1.1-0.5-2-1.1-2.8-1.9c-0.8-0.8-1.4-1.8-1.8-3c-0.4-1.2-0.7-2.4-0.7-3.8c0-2,0.3-3.8,1-5.5
				c0.7-1.7,1.6-3.1,2.8-4.3c1.2-1.2,2.5-2.2,4-2.9c1.5-0.7,3-1,4.7-1c1.1,0,2.2,0.2,3,0.5c0.9,0.3,1.7,0.7,2.4,1.2s1.3,1.1,1.7,1.8
				c0.5,0.7,0.9,1.4,1.2,2.1l3.8-14.1h3.3l-8.4,31.3h-3.3l1-3.8c-1.1,1.2-2.3,2.2-3.6,3c-1.4,0.8-2.9,1.2-4.7,1.2
				C260.4,191.2,259.3,191,258.2,190.5z M266.3,187.4c1.2-0.6,2.2-1.4,3.1-2.3c0.9-1,1.7-2.1,2.2-3.3c0.6-1.3,0.9-2.6,0.9-3.9
				c0-1-0.2-1.9-0.5-2.7c-0.3-0.8-0.8-1.5-1.4-2.2c-0.6-0.6-1.3-1.1-2.2-1.5c-0.8-0.4-1.8-0.5-2.8-0.5c-1.3,0-2.5,0.3-3.7,0.9
				s-2.1,1.3-2.9,2.3c-0.8,1-1.5,2.1-1.9,3.4c-0.5,1.3-0.7,2.6-0.7,4c0,1,0.1,2,0.5,2.8c0.3,0.8,0.7,1.5,1.3,2.1s1.2,1.1,2,1.4
				c0.8,0.3,1.6,0.5,2.5,0.5C263.9,188.3,265.1,188,266.3,187.4z"/>
			<path class="st3" d="M284.4,181.2c0,0.1,0,0.3,0,0.4c0,2,0.6,3.6,1.8,4.9c1.2,1.2,2.8,1.8,4.9,1.8c1.4,0,2.7-0.2,3.7-0.7
				c1.1-0.5,2.1-1.1,3.1-1.9l1.7,2.2c-1.1,0.9-2.3,1.7-3.7,2.3c-1.4,0.6-3,1-5,1c-1.5,0-2.8-0.2-4-0.7c-1.2-0.5-2.2-1.1-3.1-1.9
				c-0.9-0.8-1.5-1.8-2-3c-0.5-1.2-0.7-2.4-0.7-3.8c0-1.7,0.3-3.3,1-5c0.6-1.6,1.5-3.1,2.7-4.4c1.2-1.3,2.5-2.3,4.1-3.1
				c1.6-0.8,3.3-1.2,5.1-1.2c1.4,0,2.6,0.2,3.7,0.7c1.1,0.5,2,1.1,2.7,1.8c0.7,0.8,1.3,1.7,1.6,2.7c0.4,1,0.6,2.1,0.6,3.3
				c0,0.7-0.1,1.5-0.2,2.2c-0.1,0.7-0.3,1.4-0.6,2h-17.4C284.4,180.9,284.4,181.1,284.4,181.2z M299.1,178.3c0.1-0.4,0.2-1,0.2-1.7
				c0-0.8-0.1-1.5-0.3-2.2c-0.2-0.7-0.6-1.3-1-1.8c-0.5-0.5-1-0.9-1.7-1.2c-0.7-0.3-1.5-0.5-2.5-0.5c-1.1,0-2.1,0.2-3.1,0.6
				c-1,0.4-1.8,0.9-2.6,1.6c-0.8,0.7-1.4,1.5-2,2.4c-0.6,0.9-1,1.9-1.3,2.9H299.1z"/>
			<path class="st3" d="M325.1,190.5c-1.2-0.5-2.3-1.2-3.2-2.1c-0.9-0.9-1.6-1.9-2-3.1s-0.7-2.5-0.7-4c0-1.7,0.3-3.4,1-5
				c0.7-1.6,1.6-3,2.8-4.2c1.2-1.2,2.6-2.2,4.1-2.9c1.6-0.7,3.2-1.1,5-1.1c1.5,0,2.9,0.3,4.1,0.8c1.2,0.5,2.3,1.2,3.2,2.1
				c0.9,0.9,1.6,1.9,2.1,3.1c0.5,1.2,0.7,2.5,0.7,4c0,1.8-0.4,3.5-1.1,5.1c-0.7,1.6-1.7,3-2.9,4.2s-2.6,2.2-4.2,2.9
				c-1.6,0.7-3.2,1.1-5,1.1C327.8,191.2,326.4,191,325.1,190.5z M333,187.4c1.1-0.6,2.2-1.3,3-2.2c0.9-0.9,1.6-2,2.1-3.2
				c0.5-1.2,0.8-2.5,0.8-3.8c0-2.3-0.6-4-1.9-5.2c-1.3-1.2-3-1.9-5-1.9c-1.3,0-2.5,0.3-3.6,0.9c-1.1,0.6-2.1,1.3-3,2.3
				s-1.5,2-2.1,3.2c-0.5,1.2-0.8,2.5-0.8,3.8c0,2.3,0.6,4,1.9,5.2s3,1.8,5,1.8C330.7,188.2,331.9,187.9,333,187.4z"/>
			<path class="st3" d="M348.9,189.3c-1.3-1.2-1.9-2.9-1.9-5c0-0.5,0.1-1.1,0.2-1.7c0.1-0.6,0.2-1.2,0.4-1.8l3.3-12.3h3.3l-3.4,12.5
				c-0.1,0.4-0.2,0.8-0.2,1.2s-0.1,0.9-0.1,1.2c0,1.5,0.4,2.6,1.3,3.4c0.9,0.8,2.1,1.2,3.6,1.2c0.9,0,1.7-0.2,2.5-0.5
				c0.8-0.4,1.6-0.8,2.3-1.5c0.7-0.6,1.3-1.4,1.9-2.3c0.5-0.9,1-1.9,1.2-2.9l3.3-12.4h3.3l-5.9,22.2h-3.3l1-3.6
				c-1,1.1-2.1,2.1-3.4,2.9s-2.7,1.2-4.4,1.2C351.9,191.2,350.1,190.6,348.9,189.3z"/>
			<path class="st3" d="M375.5,190c-1-0.7-1.5-1.8-1.5-3.3c0-0.4,0-0.8,0.1-1.2c0.1-0.4,0.1-0.8,0.2-1.1l3.5-12.9h-3l0.8-2.9h3.1
				l1.8-6.7h3.3l-1.8,6.7h7l-0.8,2.9h-7l-3.4,12.7c-0.1,0.3-0.1,0.5-0.1,0.8c0,0.3,0,0.6,0,0.8c0,0.8,0.3,1.3,0.8,1.7
				c0.5,0.4,1.3,0.6,2.2,0.6c1,0,2-0.2,3.2-0.6l-0.8,3c-0.6,0.2-1.1,0.4-1.7,0.5c-0.6,0.1-1.2,0.2-1.8,0.2
				C377.8,191.1,376.5,190.7,375.5,190z"/>
			<path class="st3" d="M394.5,168.6h3.3l-1.5,5.8c0.7-1,1.4-1.8,2.2-2.6c0.8-0.8,1.6-1.4,2.5-2c0.9-0.5,1.8-1,2.8-1.2
				c1-0.3,2-0.4,3.1-0.3l-0.9,3.6h-0.2c-1.2,0-2.4,0.2-3.6,0.7c-1.2,0.4-2.3,1.1-3.3,1.9c-1,0.9-1.9,1.9-2.7,3.2
				c-0.8,1.3-1.4,2.8-1.9,4.4l-2.4,8.7h-3.3L394.5,168.6z"/>
			<path class="st3" d="M413.1,190.5c-1.2-0.5-2.3-1.2-3.2-2.1c-0.9-0.9-1.6-1.9-2-3.1s-0.7-2.5-0.7-4c0-1.7,0.3-3.4,1-5
				c0.7-1.6,1.6-3,2.8-4.2c1.2-1.2,2.6-2.2,4.1-2.9c1.6-0.7,3.2-1.1,5-1.1c1.5,0,2.9,0.3,4.1,0.8c1.2,0.5,2.3,1.2,3.2,2.1
				c0.9,0.9,1.6,1.9,2.1,3.1c0.5,1.2,0.7,2.5,0.7,4c0,1.8-0.4,3.5-1.1,5.1s-1.7,3-2.9,4.2c-1.2,1.2-2.6,2.2-4.2,2.9
				c-1.6,0.7-3.2,1.1-5,1.1C415.8,191.2,414.4,191,413.1,190.5z M421.1,187.4c1.1-0.6,2.2-1.3,3-2.2c0.9-0.9,1.6-2,2.1-3.2
				c0.5-1.2,0.8-2.5,0.8-3.8c0-2.3-0.6-4-1.9-5.2c-1.3-1.2-3-1.9-5-1.9c-1.3,0-2.5,0.3-3.6,0.9c-1.1,0.6-2.1,1.3-3,2.3
				c-0.9,0.9-1.5,2-2.1,3.2c-0.5,1.2-0.8,2.5-0.8,3.8c0,2.3,0.6,4,1.9,5.2s3,1.8,5,1.8C418.7,188.2,419.9,187.9,421.1,187.4z"/>
			<path class="st3" d="M451.9,168.6h3.3l-0.9,3.6c1-1.1,2.1-2.1,3.2-2.9c1.1-0.8,2.5-1.2,4.2-1.2c0.9,0,1.8,0.1,2.5,0.4
				c0.7,0.3,1.3,0.7,1.8,1.1s0.9,1,1.3,1.6c0.3,0.6,0.6,1.2,0.7,1.9c1-1.5,2.2-2.8,3.7-3.7c1.5-0.9,3.2-1.3,5.2-1.3
				c1,0,1.9,0.2,2.7,0.5c0.8,0.3,1.5,0.8,2.1,1.4c0.6,0.6,1.1,1.3,1.4,2.2c0.3,0.8,0.5,1.8,0.5,2.8c0,0.5-0.1,1.1-0.2,1.7
				c-0.1,0.6-0.3,1.2-0.4,1.8l-3.3,12.3h-3.3l3.4-12.5c0.1-0.4,0.2-0.8,0.2-1.2c0-0.5,0.1-0.9,0.1-1.2c0-1.5-0.4-2.6-1.2-3.4
				c-0.8-0.8-1.9-1.2-3.4-1.2c-0.8,0-1.6,0.2-2.4,0.5c-0.8,0.4-1.5,0.9-2.2,1.5s-1.3,1.4-1.8,2.3s-0.9,1.8-1.2,2.8l-3.3,12.5h-3.3
				l3.3-12.5c0.1-0.4,0.2-0.8,0.3-1.2c0.1-0.5,0.1-0.9,0.1-1.2c0-1.5-0.4-2.6-1.2-3.4c-0.8-0.8-1.9-1.2-3.4-1.2
				c-0.8,0-1.6,0.2-2.4,0.5c-0.8,0.4-1.5,0.9-2.2,1.5s-1.3,1.4-1.8,2.3s-0.9,1.8-1.2,2.8l-3.3,12.5H446L451.9,168.6z"/>
			<path class="st3" d="M490.4,189.3c-1.3-1.2-1.9-2.9-1.9-5c0-0.5,0.1-1.1,0.2-1.7s0.2-1.2,0.4-1.8l3.3-12.3h3.3l-3.4,12.5
				c-0.1,0.4-0.2,0.8-0.2,1.2s-0.1,0.9-0.1,1.2c0,1.5,0.4,2.6,1.3,3.4c0.9,0.8,2.1,1.2,3.6,1.2c0.9,0,1.7-0.2,2.5-0.5
				c0.8-0.4,1.6-0.8,2.3-1.5c0.7-0.6,1.3-1.4,1.9-2.3c0.5-0.9,1-1.9,1.2-2.9l3.3-12.4h3.3l-5.9,22.2h-3.3l1-3.6
				c-1,1.1-2.1,2.1-3.4,2.9c-1.2,0.8-2.7,1.2-4.4,1.2C493.4,191.2,491.7,190.6,490.4,189.3z"/>
			<path class="st3" d="M518.9,168.6h3.3l-0.9,3.6c1-1.1,2.1-2.1,3.3-2.9c1.2-0.8,2.7-1.2,4.4-1.2c2.1,0,3.9,0.6,5.2,1.8
				c1.3,1.2,1.9,2.9,1.9,5c0,0.5-0.1,1.1-0.2,1.7c-0.1,0.6-0.2,1.2-0.4,1.8l-3.3,12.3h-3.3l3.3-12.5c0.1-0.4,0.2-0.8,0.3-1.2
				c0.1-0.5,0.1-0.9,0.1-1.2c0-1.5-0.4-2.6-1.3-3.4c-0.9-0.8-2.1-1.2-3.6-1.2c-0.9,0-1.7,0.2-2.5,0.5c-0.8,0.4-1.6,0.8-2.3,1.5
				s-1.3,1.4-1.9,2.2c-0.5,0.9-1,1.8-1.2,2.9l-3.3,12.5H513L518.9,168.6z"/>
			<path class="st3" d="M546,190.5c-1.1-0.5-2-1.1-2.8-1.9c-0.8-0.8-1.4-1.8-1.8-3c-0.4-1.2-0.7-2.4-0.7-3.8c0-2,0.3-3.8,1-5.5
				c0.7-1.7,1.6-3.1,2.8-4.3c1.2-1.2,2.5-2.2,4-2.9c1.5-0.7,3-1,4.7-1c1.1,0,2.2,0.2,3,0.5c0.9,0.3,1.7,0.7,2.4,1.2s1.3,1.1,1.7,1.8
				c0.5,0.7,0.9,1.4,1.2,2.1l3.8-14.1h3.3l-8.4,31.3h-3.3l1-3.8c-1.1,1.2-2.3,2.2-3.6,3c-1.4,0.8-2.9,1.2-4.7,1.2
				C548.2,191.2,547.1,191,546,190.5z M554,187.4c1.2-0.6,2.2-1.4,3.1-2.3s1.7-2.1,2.2-3.3c0.6-1.3,0.9-2.6,0.9-3.9
				c0-1-0.2-1.9-0.5-2.7c-0.3-0.8-0.8-1.5-1.4-2.2c-0.6-0.6-1.3-1.1-2.2-1.5c-0.8-0.4-1.8-0.5-2.8-0.5c-1.3,0-2.5,0.3-3.7,0.9
				c-1.1,0.6-2.1,1.3-2.9,2.3c-0.8,1-1.5,2.1-2,3.4c-0.5,1.3-0.7,2.6-0.7,4c0,1,0.2,2,0.5,2.8c0.3,0.8,0.7,1.5,1.3,2.1
				c0.6,0.6,1.2,1.1,2,1.4c0.8,0.3,1.6,0.5,2.5,0.5C551.6,188.3,552.9,188,554,187.4z"/>
			<path class="st3" d="M574.8,190.5c-1.2-0.5-2.3-1.2-3.2-2.1s-1.6-1.9-2-3.1s-0.7-2.5-0.7-4c0-1.7,0.3-3.4,1-5s1.6-3,2.8-4.2
				c1.2-1.2,2.6-2.2,4.1-2.9s3.2-1.1,5-1.1c1.5,0,2.9,0.3,4.1,0.8c1.2,0.5,2.3,1.2,3.2,2.1c0.9,0.9,1.6,1.9,2.1,3.1
				c0.5,1.2,0.7,2.5,0.7,4c0,1.8-0.4,3.5-1.1,5.1s-1.7,3-2.9,4.2c-1.2,1.2-2.6,2.2-4.2,2.9c-1.6,0.7-3.2,1.1-5,1.1
				C577.4,191.2,576.1,191,574.8,190.5z M582.7,187.4c1.1-0.6,2.2-1.3,3-2.2c0.9-0.9,1.6-2,2.1-3.2c0.5-1.2,0.8-2.5,0.8-3.8
				c0-2.3-0.6-4-1.9-5.2c-1.3-1.2-3-1.9-5-1.9c-1.3,0-2.5,0.3-3.6,0.9c-1.1,0.6-2.1,1.3-3,2.3c-0.9,0.9-1.5,2-2.1,3.2
				c-0.5,1.2-0.8,2.5-0.8,3.8c0,2.3,0.6,4,1.9,5.2s3,1.8,5,1.8C580.4,188.2,581.6,187.9,582.7,187.4z"/>
		</g>
	</g>
</g>
</svg>
