<?xml version="1.0" encoding="utf-8"?>
<!-- Generator: Adobe Illustrator 23.0.3, SVG Export Plug-In . SVG Version: 6.00 Build 0)  -->
<svg version="1.1" id="Layer_1" xmlns="http://www.w3.org/2000/svg" xmlns:xlink="http://www.w3.org/1999/xlink" x="0px" y="0px"
	 viewBox="0 0 280.1 282.6" style="enable-background:new 0 0 280.1 282.6;" xml:space="preserve">
<style type="text/css">
	.st0{fill:#FFFFFF;}
	.st1{fill:#89C3DB;}
	.st2{fill:#915295;}
	.st3{fill:#F1E63D;}
	.st4{fill:#4E2662;}
	.st5{fill:#BD0060;}
	.st6{fill:#68183F;}
	.st7{fill:#5A9FA2;}
	.st8{fill:#F8F8EC;}
	.st9{fill:#1A2532;}
	.st10{clip-path:url(#SVGID_2_);}
	.st11{fill:url(#SVGID_3_);}
	.st12{fill:#F5ED84;}
	.st13{clip-path:url(#SVGID_5_);}
	.st14{opacity:0.24;}
	.st15{fill:url(#SVGID_6_);}
	.st16{opacity:8.000000e-02;}
	.st17{fill:url(#SVGID_7_);}
	.st18{fill:url(#SVGID_8_);}
	.st19{fill:url(#SVGID_9_);}
	.st20{fill:url(#SVGID_10_);}
	.st21{opacity:0.24;fill:#2A4982;enable-background:new    ;}
	.st22{fill:url(#SVGID_11_);}
	.st23{fill:url(#SVGID_12_);}
	.st24{opacity:0.12;fill:url(#SVGID_13_);enable-background:new    ;}
	.st25{opacity:0.25;fill:url(#SVGID_14_);enable-background:new    ;}
	.st26{opacity:6.000000e-02;fill:url(#SVGID_15_);enable-background:new    ;}
	.st27{fill:url(#SVGID_16_);}
	.st28{fill:url(#SVGID_17_);}
	.st29{fill:url(#SVGID_18_);}
	.st30{fill:url(#SVGID_19_);}
	.st31{fill:url(#SVGID_20_);}
	.st32{fill:url(#SVGID_21_);}
	.st33{opacity:0.32;fill:url(#SVGID_22_);enable-background:new    ;}
	.st34{fill:url(#SVGID_23_);}
	.st35{opacity:0.18;fill:url(#SVGID_24_);enable-background:new    ;}
	.st36{fill:url(#SVGID_25_);}
	.st37{fill:#B6BBCC;}
	.st38{opacity:0.56;fill:url(#SVGID_26_);enable-background:new    ;}
	.st39{opacity:0.56;fill:url(#SVGID_27_);enable-background:new    ;}
	.st40{opacity:0.56;fill:url(#SVGID_28_);enable-background:new    ;}
	.st41{fill:url(#SVGID_29_);}
	.st42{fill:url(#SVGID_30_);}
	.st43{fill:url(#SVGID_31_);}
	.st44{fill:url(#SVGID_32_);}
	.st45{fill:url(#SVGID_33_);}
	.st46{opacity:0.32;}
	.st47{fill:url(#SVGID_34_);}
	.st48{opacity:0.56;}
	.st49{fill:url(#SVGID_35_);}
	.st50{fill:url(#SVGID_36_);}
	.st51{opacity:0.31;fill:url(#SVGID_37_);enable-background:new    ;}
	.st52{fill:url(#SVGID_38_);}
	.st53{opacity:0.31;fill:url(#SVGID_39_);enable-background:new    ;}
	.st54{fill:url(#SVGID_40_);}
	.st55{opacity:0.31;fill:url(#SVGID_41_);enable-background:new    ;}
	.st56{fill:url(#SVGID_42_);}
	.st57{opacity:0.31;fill:url(#SVGID_43_);enable-background:new    ;}
	.st58{fill:url(#SVGID_44_);}
	.st59{opacity:0.31;fill:url(#SVGID_45_);enable-background:new    ;}
	.st60{fill:url(#SVGID_46_);}
	.st61{opacity:0.31;fill:url(#SVGID_47_);enable-background:new    ;}
	.st62{fill:url(#SVGID_48_);}
	.st63{opacity:0.31;fill:url(#SVGID_49_);enable-background:new    ;}
	.st64{fill:url(#SVGID_50_);}
	.st65{opacity:0.31;fill:url(#SVGID_51_);enable-background:new    ;}
	.st66{opacity:0.12;}
	.st67{opacity:0.22;fill:url(#SVGID_52_);enable-background:new    ;}
	.st68{fill:url(#SVGID_53_);}
	.st69{opacity:0.24;fill:url(#SVGID_54_);enable-background:new    ;}
	.st70{opacity:0.24;fill:url(#SVGID_55_);enable-background:new    ;}
	.st71{opacity:0.24;fill:url(#SVGID_56_);enable-background:new    ;}
	.st72{opacity:0.24;fill:url(#SVGID_57_);enable-background:new    ;}
	.st73{opacity:0.69;fill:#322C76;enable-background:new    ;}
	.st74{fill:#262347;}
	.st75{opacity:0.24;fill:url(#SVGID_58_);enable-background:new    ;}
	.st76{opacity:0.24;fill:url(#SVGID_59_);enable-background:new    ;}
	.st77{opacity:0.24;fill:url(#SVGID_60_);enable-background:new    ;}
	.st78{opacity:0.24;fill:url(#SVGID_61_);enable-background:new    ;}
	.st79{opacity:0.24;fill:url(#SVGID_62_);enable-background:new    ;}
	.st80{opacity:0.24;fill:url(#SVGID_63_);enable-background:new    ;}
	.st81{opacity:0.24;fill:url(#SVGID_64_);enable-background:new    ;}
	.st82{opacity:0.24;fill:url(#SVGID_65_);enable-background:new    ;}
	.st83{fill:#C42825;}
	.st84{fill:#82B13E;}
	.st85{fill:#384B96;}
</style>
<g>
	<path class="st0" d="M224.7,238.5l1.9,2.1l1-1.3l1.3,1l-1.2,1.5l1.8,1.9l-1,1.4l-1.8-1.9l-1.6,2.1l1.8,1.9l-1,1.4l-1.8-1.9
		l-0.9,1.1l-1.3-1l1-1.4l-1.9-2.1l-1,1.3l-1.3-1l1.2-1.5l-1.8-1.9l1-1.4l1.7,1.9l1.6-2.1l-1.8-1.9l1-1.4l1.7,1.9l0.9-1.1l1.3,1
		L224.7,238.5z M222,242l1.9,2.1l1.6-2.1l-2-2.1L222,242z"/>
	<path class="st0" d="M223.6,232.8l3.5-5.4l1,0.6l-2.9,4.5l2.9,2.2c0.1-0.8,0.4-1.5,0.8-2.1c1.2-1.8,3.2-2.5,5-1.4
		c1.7,1.1,2.2,3.4,1.1,5.1c-0.1,0.1-0.1,0.2-0.2,0.3c-0.9,1.2-2.2,2.1-3.7,2.4l-0.3-1.2c1.2-0.2,2.3-0.8,3-1.8
		c0.8-1.1,0.6-2.7-0.4-3.5c0,0-0.1-0.1-0.2-0.1c-1.2-0.8-2.6-0.4-3.5,1c-0.4,0.7-0.7,1.5-0.8,2.3l-0.9,0.4L223.6,232.8z"/>
	<path class="st0" d="M240.2,227.6c-1.2,2.1-3.2,3-4.8,2.1c-1.1-0.7-1.7-2.1-1.3-3.4c-0.9,0.8-2.1,0.9-3.2,0.4
		c-1.5-0.9-1.7-3-0.7-4.8s2.9-2.7,4.5-1.9c1,0.6,1.5,1.8,1.3,2.9c0.9-1,2.3-1.2,3.5-0.7C241.1,223.3,241.3,225.5,240.2,227.6z
		 M231.1,222.5c-0.7,1.3-0.5,2.6,0.5,3.2c1.2,0.5,2.5-0.1,3-1.2l0,0c0.7-1.2,0.5-2.6-0.6-3.2S231.8,221.2,231.1,222.5z M235.5,225
		c-0.8,1.4-0.7,3,0.4,3.6s2.4,0.1,3.3-1.5s0.6-3-0.4-3.6S236.3,223.5,235.5,225L235.5,225z"/>
	<path class="st0" d="M236,217.4l-1,0.5c-1-1.3-1.2-3.1-0.5-4.7c0.6-1.7,2.5-2.5,4.1-1.9c0.1,0,0.1,0.1,0.2,0.1
		c1.5,0.7,2,1.9,2.8,4.4l1.1,3.8l2.5-5.4l1,0.5l-3.3,7.1l-0.9-0.4l-1.5-5.2c-0.7-2.2-1.2-3.1-2.2-3.6c-1.1-0.5-2.3-0.1-2.9,1v0.1
		C235,215,235.2,216.1,236,217.4z"/>
	<path class="st0" d="M239.9,208.8l-1,0.6c-1.1-1.3-1.4-3.1-0.8-4.6c0.5-1.7,2.3-2.7,4-2.2c0.1,0,0.1,0,0.2,0.1
		c1.5,0.6,2.2,1.8,3,4.2l1.4,3.8l2.1-5.5l1.1,0.4l-2.8,7.3l-0.9-0.4l-1.9-5.1c-0.8-2.1-1.4-3-2.4-3.4c-1.1-0.4-2.3,0.1-2.8,1.2v0.1
		C238.7,206.5,239.1,207.5,239.9,208.8z"/>
	<path class="st0" d="M244.2,193.6c-0.9,0.5-1.5,1.3-1.8,2.2c-0.6,1.9,1,3.8,3.8,4.6c-0.8-1-1.1-2.3-0.7-3.5
		c0.4-1.9,2.3-3.2,4.3-2.7c0.1,0,0.1,0,0.2,0c2,0.6,3.1,2.8,2.5,4.8c0,0.1,0,0.1-0.1,0.2c-0.3,1.1-1,2-2,2.5
		c-1.1,0.6-2.4,0.8-4.6,0.1c-3.3-1-5.3-3.4-4.5-6.2c0.4-1.2,1.1-2.2,2.2-2.8L244.2,193.6z M246.5,197.3c-0.5,1.3,0,2.7,1.3,3.3
		c1.3,0.5,2.7,0,3.3-1.3c0.1-0.2,0.1-0.4,0.2-0.6c0.5-1.3-0.2-2.8-1.5-3.3c-0.1,0-0.1,0-0.2-0.1c-1.3-0.4-2.7,0.4-3.1,1.7
		C246.5,197.2,246.5,197.3,246.5,197.3z"/>
	<path class="st0" d="M244.2,190.3l-1.1-0.2l1.6-7l0.9,0.2l3,4.3c0.6-1.9,1.9-3.4,3.9-2.9c1.9,0.5,3,2.3,2.5,4.2
		c0,0.1,0,0.1-0.1,0.2c-0.3,1.6-1.4,3-2.9,3.6l-0.6-1.1c1.2-0.5,2.1-1.6,2.3-2.8c0.4-1.2-0.3-2.5-1.5-2.8h-0.1
		c-1.4-0.3-2.4,0.8-2.8,2.6l-0.2,0.7l-0.8,0.1l-3.1-4.3L244.2,190.3z"/>
	<path class="st0" d="M221.4,270.3c0.1,0.5,0.1,1,0,1.5s-0.4,1-0.7,1.5s-0.8,0.9-1.2,1.3l-1.7,1.4l2.2,2.8l-1.5,1.2l-7-8.8l3.5-2.7
		c0.5-0.4,1-0.7,1.5-0.9c0.5-0.2,1-0.3,1.5-0.2c0.5,0,1,0.2,1.4,0.4c0.5,0.3,0.9,0.6,1.2,1C221,269.2,221.3,269.7,221.4,270.3z
		 M217.7,269.3c-0.6,0-1.2,0.3-1.7,0.7l-1.8,1.4l2.5,3.2l1.8-1.4c0.5-0.4,0.9-0.9,1-1.5s0-1.1-0.4-1.5
		C218.8,269.6,218.2,269.3,217.7,269.3L217.7,269.3z"/>
	<path class="st0" d="M234.2,266.4l-1.5,1.4l-2.7-1.2l-3.9,3.6l1,2.8l-1.5,1.4l-4-11.6l1.3-1.2L234.2,266.4z M223.9,263.8l1.6,4.6
		l2.8-2.6L223.9,263.8z"/>
	<path class="st0" d="M232.9,251.3l1.3-1.5l8.3,7.5l-1.1,1.2l-10-0.8l5.9,5.3l-1.3,1.5l-8.3-7.5l1.2-1.4l9.8,0.7L232.9,251.3z"/>
	<path class="st0" d="M247.6,250.8l-1.2,1.6l-7.5-5.7l-2.2,2.8l-1.5-1.1l5.5-7.2l1.5,1.1l-2.2,2.8L247.6,250.8z"/>
	<path class="st0" d="M253.9,235.5c0.4,0.6,0.7,1.3,0.9,2c0.3,1.5,0,3.2-0.8,4.5c-0.4,0.7-1,1.3-1.7,1.8c-0.6,0.4-1.3,0.7-2,0.9
		c-0.7,0.1-1.5,0.1-2.2,0c-1.5-0.3-2.9-1.2-3.8-2.4c-0.4-0.6-0.7-1.3-0.9-2s-0.2-1.5-0.1-2.2c0.3-1.6,1.2-3,2.5-4
		c1.9-1.3,4.4-1.3,6.3-0.1C252.9,234.3,253.4,234.8,253.9,235.5z M249.7,235.1c-0.5-0.1-1-0.1-1.5,0s-1,0.3-1.4,0.6
		s-0.8,0.7-1.1,1.1c-0.6,0.9-0.7,1.9-0.5,2.9c0.1,0.5,0.4,0.9,0.7,1.3c0.3,0.4,0.7,0.8,1.2,1.1c0.4,0.3,0.9,0.5,1.5,0.6
		c0.5,0.1,1,0.1,1.5,0s1-0.3,1.4-0.5c0.4-0.3,0.8-0.7,1.1-1.1c0.3-0.4,0.5-0.9,0.6-1.5c0.1-0.5,0-1-0.1-1.5s-0.3-0.9-0.6-1.3
		c-0.3-0.4-0.7-0.8-1.2-1.1C250.7,235.4,250.2,235.2,249.7,235.1z"/>
	<path class="st0" d="M252,222.2l0.9-1.7l10,5.1l-0.8,1.5l-9.9,1.8l7.1,3.6l-0.9,1.7l-10-5.1l0.8-1.6l9.6-1.8L252,222.2z"/>
	<path class="st0" d="M258.7,211.2l-2.4,5.9l2.7,1.1l2.1-5.2l1.6,0.7l-2.1,5.2l2.8,1.1l2.4-5.9l1.7,0.7l-3.2,7.7l-10.4-4.2l3.1-7.7
		L258.7,211.2z"/>
	<path class="st0" d="M261.1,202.7c0.2,0.6,0.6,1.2,1,1.7l-0.9,0.7c-0.3-0.3-0.5-0.7-0.8-1c-0.2-0.3-0.4-0.6-0.5-1s-0.2-0.8-0.1-1.1
		c0-0.4,0.1-0.9,0.2-1.3c0.1-0.5,0.3-0.9,0.6-1.3c0.3-0.3,0.6-0.6,0.9-0.9c0.4-0.2,0.7-0.4,1.2-0.4c0.4-0.1,0.9,0,1.3,0.1
		s0.7,0.3,1,0.5s0.6,0.5,0.8,0.8c0.3,0.4,0.5,0.7,0.8,1.1c0.2,0.4,0.5,1,0.8,1.5l1.7,3.6l1.6-5.7l1.1,0.3l-2.2,7.5l-0.9-0.3
		l-2.3-4.9c-0.2-0.5-0.5-1-0.7-1.3s-0.4-0.6-0.6-0.9c-0.2-0.2-0.4-0.4-0.7-0.6c-0.2-0.1-0.5-0.3-0.8-0.3c-0.3-0.1-0.6-0.1-0.9-0.1
		s-0.5,0.1-0.8,0.3c-0.2,0.1-0.5,0.3-0.6,0.6c-0.2,0.2-0.3,0.5-0.4,0.8C260.9,201.6,261,202.2,261.1,202.7z"/>
	<path class="st0" d="M265.1,189c-0.4,0.3-0.7,0.7-1,1c-0.3,0.4-0.5,0.8-0.6,1.3s-0.1,1,0.1,1.4c0.2,0.5,0.4,0.9,0.8,1.2
		c0.4,0.4,0.9,0.7,1.4,1c0.6,0.3,1.2,0.5,1.9,0.6c-0.2-0.2-0.4-0.4-0.5-0.6c-0.2-0.2-0.3-0.5-0.4-0.8s-0.2-0.6-0.2-1s0-0.7,0.1-1.1
		c0.1-0.5,0.3-1,0.5-1.4c0.5-0.8,1.3-1.4,2.2-1.7c0.5-0.1,1-0.1,1.5,0c1,0.2,1.9,0.8,2.4,1.7c0.3,0.4,0.4,0.9,0.5,1.4s0.1,1.1,0,1.6
		c-0.1,0.6-0.3,1.1-0.6,1.6c-0.3,0.4-0.7,0.8-1.1,1.1c-0.3,0.2-0.5,0.3-0.8,0.4c-0.3,0.1-0.7,0.2-1,0.2c-0.4,0-0.8,0-1.2,0
		c-0.5,0-1-0.1-1.5-0.2c-0.8-0.2-1.6-0.4-2.3-0.8c-0.6-0.3-1.2-0.8-1.7-1.3s-0.8-1.1-1-1.7c-0.2-0.7-0.2-1.3-0.1-2
		c0.1-0.6,0.4-1.2,0.7-1.7c0.4-0.5,0.8-0.9,1.2-1.3L265.1,189z M269.6,190.3c-0.3,0.1-0.6,0.2-0.9,0.4s-0.5,0.5-0.7,0.7
		c-0.2,0.3-0.3,0.7-0.4,1c-0.1,0.4-0.1,0.8,0,1.2s0.2,0.7,0.4,1c0.2,0.3,0.4,0.5,0.7,0.7c0.2,0.2,0.5,0.3,0.8,0.4
		c0.3,0.1,0.7,0.1,1,0s0.6-0.2,0.9-0.4s0.5-0.5,0.7-0.8s0.3-0.7,0.4-1.1c0.1-0.4,0.1-0.8,0-1.1c0-0.4-0.2-0.7-0.3-1
		c-0.2-0.3-0.4-0.5-0.7-0.7c-0.3-0.2-0.6-0.3-1-0.4C270.2,190.2,269.9,190.2,269.6,190.3L269.6,190.3z"/>
	<path class="st0" d="M265.4,183.7c0.3,0.6,0.7,1.1,1.2,1.5l-0.8,0.8c-0.3-0.3-0.6-0.6-0.9-0.9c-0.3-0.3-0.5-0.6-0.6-1
		c-0.2-0.4-0.3-0.7-0.3-1.1c-0.1-0.4-0.1-0.9,0-1.3c0.1-0.5,0.2-0.9,0.4-1.4c0.2-0.4,0.5-0.7,0.8-1s0.7-0.5,1.1-0.6s0.9-0.1,1.3-0.1
		s0.8,0.2,1.1,0.3c0.3,0.2,0.7,0.4,0.9,0.6c0.3,0.3,0.6,0.6,0.9,1s0.6,0.9,1,1.4l2.2,3.3l0.8-5.9l1.1,0.2l-1,7.8l-1-0.1l-3-4.5
		c-0.3-0.5-0.6-0.9-0.9-1.2c-0.2-0.3-0.5-0.6-0.8-0.8c-0.2-0.2-0.5-0.4-0.7-0.5s-0.5-0.2-0.8-0.2s-0.6,0-0.9,0.1s-0.5,0.2-0.7,0.4
		s-0.4,0.4-0.5,0.7s-0.2,0.5-0.3,0.8C265,182.5,265.1,183.1,265.4,183.7z"/>
	<path class="st0" d="M266,176.2l-1.1-0.1l0.5-7.1l0.9,0.1l3.7,3.8c0.1-0.5,0.2-0.9,0.4-1.4c0.2-0.4,0.4-0.8,0.7-1.1
		c0.3-0.3,0.6-0.6,1-0.7c0.4-0.2,0.9-0.3,1.4-0.2c0.5,0,0.9,0.2,1.3,0.4s0.7,0.5,1,0.9s0.5,0.8,0.6,1.2c0.1,0.5,0.2,1,0.2,1.5
		c-0.1,1.6-0.9,3.1-2.3,4l-0.8-1c0.5-0.4,1-0.8,1.3-1.4c0.3-0.5,0.5-1.2,0.5-1.8c0-0.3,0-0.7-0.1-1s-0.2-0.6-0.4-0.8
		c-0.2-0.2-0.4-0.4-0.7-0.6c-0.3-0.1-0.6-0.2-0.9-0.2c-0.7-0.1-1.3,0.2-1.7,0.8c-0.4,0.7-0.7,1.4-0.7,2.2v0.7l-0.8,0.2l-3.8-3.8
		L266,176.2z"/>
	<path class="st0" d="M275.5,157.7c0.2,0.3,0.5,0.6,0.6,1c0.2,0.4,0.3,0.8,0.4,1.2c0.1,0.5,0.2,0.9,0.2,1.4c0,0.8-0.1,1.5-0.4,2.2
		s-0.7,1.3-1.2,1.8s-1.1,0.9-1.8,1.2c-0.7,0.3-1.5,0.4-2.3,0.5c-0.8,0-1.5-0.1-2.3-0.4c-0.7-0.3-1.3-0.6-1.9-1.1
		c-0.5-0.5-1-1.1-1.3-1.8s-0.5-1.5-0.5-2.3c0-0.5,0-0.9,0.1-1.4c0.1-0.4,0.2-0.8,0.3-1.1c0.1-0.4,0.3-0.7,0.5-1s0.5-0.6,0.7-0.9
		l0.9,0.8c-0.4,0.5-0.8,1-1.1,1.6c-0.3,0.6-0.4,1.3-0.4,2c0,0.6,0.1,1.2,0.4,1.7c0.2,0.5,0.6,1,1,1.4s0.9,0.7,1.5,0.9
		c1.2,0.4,2.5,0.4,3.6-0.1c0.5-0.2,1-0.5,1.5-0.9c0.4-0.4,0.8-0.9,1-1.4s0.4-1.1,0.3-1.7c0-0.7-0.2-1.4-0.5-2s-0.7-1.1-1.2-1.6
		l0.8-0.8C275,157.1,275.3,157.4,275.5,157.7z"/>
	<path class="st1" d="M181.4,262.7c-0.2,0.4-0.3,0.7-0.6,1c-0.2,0.4-0.5,0.7-0.8,1c-0.4,0.3-0.8,0.6-1.2,0.8
		c-0.7,0.4-1.4,0.7-2.2,0.8c-0.7,0.1-1.5,0-2.2-0.1c-0.7-0.2-1.4-0.5-2-1s-1.1-1.1-1.5-1.8c-0.4-0.7-0.7-1.4-0.8-2.2
		c-0.2-1.5,0.1-3,1-4.2c0.5-0.6,1.1-1.2,1.8-1.6c0.4-0.2,0.8-0.4,1.3-0.6c0.4-0.1,0.8-0.2,1.2-0.3c0.4,0,0.7,0,1.1,0
		c0.4,0,0.7,0.1,1.1,0.2l-0.4,1.9c-0.6-0.1-1.2-0.2-1.7-0.1c-0.6,0-1.2,0.2-1.7,0.5c-0.4,0.3-0.8,0.6-1.1,1s-0.5,0.9-0.6,1.3
		c-0.1,0.5-0.1,1,0,1.5c0.2,1.1,0.8,2,1.6,2.7c0.4,0.3,0.8,0.6,1.3,0.7s1,0.2,1.4,0.1c0.5-0.1,1-0.2,1.4-0.5c0.5-0.3,1-0.7,1.3-1.2
		s0.6-1.1,0.7-1.7l1.7,0.5C181.7,261.9,181.6,262.3,181.4,262.7z"/>
	<path class="st0" d="M178.1,252.6l6.2-4.4l0.5,0.8l1.8,11.3l-1.2,0.8l-1.7-11.1l-5,3.6L178.1,252.6z"/>
	<path class="st0" d="M192.1,244.4c-1-0.1-2,0.3-2.7,0.9c-1.5,1.3-1.2,3.7,0.7,5.9c-0.2-2.1,1.3-4,3.4-4.3c1.1-0.1,2.3,0.2,3.1,1
		c1.3,1.6,1.1,4-0.5,5.3c-0.1,0-0.1,0.1-0.2,0.1c-0.8,0.7-1.9,1.1-3,1c-1.3-0.1-2.4-0.6-3.9-2.4c-2.2-2.6-2.6-5.8-0.4-7.6
		c0.9-0.8,2.1-1.2,3.3-1.2L192.1,244.4z M191.9,248.7c-1.1,0.8-1.5,2.3-0.7,3.5s2.3,1.5,3.5,0.7c0.2-0.1,0.3-0.2,0.5-0.4
		c1.1-0.8,1.4-2.4,0.5-3.6c0-0.1-0.1-0.1-0.1-0.2c-0.9-1-2.5-1.1-3.5-0.2C192,248.6,192,248.7,191.9,248.7z"/>
	<path class="st2" d="M203,242.6L203,242.6l-6.2-1.1l5.8,5.5l-1.3,1.4l-8.1-7.7l1.5-1.5l6.2,1.2l-1.5-6.1l1.4-1.5l8.1,7.7l-1.3,1.4
		l-5.9-5.5L203,242.6z"/>
	<path class="st0" d="M203.2,229.4l0.6-0.7l8.8,7l-0.8,1l-7.8-6.2l-0.8,2.1l-1-0.4L203.2,229.4z"/>
	<path class="st0" d="M217.4,229.5c-1.6,2.4-4.8,2.4-7.4,0.6s-3.7-4.8-2.1-7.2s4.8-2.4,7.4-0.6S219,227.1,217.4,229.5z M208.8,223.6
		c-1.2,1.7-0.2,4,1.9,5.4s4.6,1.5,5.8-0.2s0.1-4-1.9-5.4S210,221.8,208.8,223.6z"/>
	<path class="st0" d="M223.7,219.2c-1.4,2.5-4.6,2.9-7.3,1.4s-4.2-4.4-2.8-7s4.6-2.9,7.3-1.4S225.1,216.6,223.7,219.2z M214.6,214.2
		c-1,1.8,0.2,4,2.4,5.2s4.7,1,5.7-0.8s-0.3-4-2.4-5.2S215.6,212.3,214.6,214.2z"/>
	<path class="st3" d="M229.2,207.2l-0.8,1.8l-4.1-1.7l-8,1.5l0.9-2.1l5.8-1l-3.3-4.8l0.9-2.1l4.5,6.7L229.2,207.2z"/>
	<path class="st0" d="M223.9,197.9l-0.9,0.7c-1.2-1.2-1.6-3-1.1-4.6c0.4-1.7,2.1-2.8,3.9-2.4c0.1,0,0.1,0,0.2,0.1
		c1.6,0.5,2.3,1.6,3.3,4l1.6,3.6l1.8-5.7l1.1,0.4l-2.4,7.5l-0.9-0.3l-2.2-5c-1-2.1-1.6-3-2.7-3.3c-1.1-0.4-2.3,0.3-2.7,1.4v0.1
		C222.6,195.6,223,196.6,223.9,197.9z"/>
	<path class="st0" d="M224.8,188.9l-1.1-0.2l1.6-7l0.9,0.2l3,4.3c0.6-1.9,1.9-3.4,3.9-2.9c1.9,0.5,3,2.4,2.5,4.2c0,0.1,0,0.1,0,0.2
		c-0.3,1.6-1.4,3-2.9,3.6l-0.6-1.1c1.2-0.5,2.1-1.6,2.3-2.8c0.4-1.2-0.3-2.4-1.5-2.8h-0.1c-1.4-0.3-2.4,0.8-2.8,2.6l-0.2,0.7
		L229,188l-3.1-4.3L224.8,188.9z"/>
	<path class="st0" d="M238,171l-0.3,2.4l-5.5,3.1l1.6,2l3.2,0.4l-0.2,1.9l-11.1-1.4l0.2-1.9l5.6,0.7l-4.9-6.1l0.3-2.4l4.2,5.2
		L238,171z"/>
	<path class="st0" d="M229.8,167.9l-0.7,0.9c-1.5-0.8-2.3-2.4-2.2-4.1c-0.1-1.8,1.3-3.3,3-3.3c0.1,0,0.2,0,0.2,0c1.7,0,2.6,1,4.3,3
		l2.5,3.1l0.2-5.9h1.2l-0.3,7.8h-1l-3.4-4.2c-1.5-1.8-2.3-2.4-3.4-2.5c-1.2,0-2.2,0.9-2.2,2v0.1C228,166.2,228.6,167,229.8,167.9z"
		/>
	<path class="st0" d="M227.1,159.6l-0.3-7.6h0.9l10.5,4.6l0.1,1.4l-10.3-4.6l0.3,6.2L227.1,159.6z"/>
	<circle class="st4" cx="184.2" cy="33.3" r="30.8"/>
	<path class="st5" d="M82.4,199.7L82.4,199.7c-1.3-1.7-0.9-4.2,0.9-5.4l1.9-1.4c1.7-1.3,4.2-0.9,5.4,0.9c1.3,1.7,0.9,4.2-0.9,5.4
		l-1.9,1.3C86.1,201.9,83.6,201.5,82.4,199.7"/>
	<path class="st5" d="M62.2,171.7L62.2,171.7c-1.3-1.7-0.9-4.2,0.9-5.4L65,165c1.7-1.3,4.1-1,5.5,0.7c1.3,1.7,1,4.1-0.7,5.5
		c-0.1,0.1-0.2,0.1-0.3,0.2l-1.9,1.3C65.8,173.9,63.4,173.5,62.2,171.7"/>
	<path class="st5" d="M90.6,182.2L90.6,182.2c-1.3-1.7-0.9-4.2,0.9-5.4l1.9-1.3c1.8-1.2,4.2-0.8,5.4,1c1.2,1.7,0.8,4.1-0.9,5.4
		l-1.9,1.3C94.3,184.3,91.9,183.9,90.6,182.2"/>
	<path class="st5" d="M81.3,169.4L81.3,169.4c-1.3-1.7-0.9-4.2,0.9-5.4l1.9-1.4c1.7-1.3,4.2-0.9,5.4,0.9c1.3,1.7,0.9,4.2-0.9,5.4
		l-1.9,1.3C85,171.5,82.6,171.1,81.3,169.4"/>
	<path class="st5" d="M76.3,182.6L76.3,182.6c-1.3-1.7-0.9-4.2,0.9-5.4s4.2-0.9,5.4,0.9s0.9,4.2-0.9,5.4l0,0
		C80,184.8,77.5,184.4,76.3,182.6"/>
	<path class="st6" d="M151.6,157.5L151.6,157.5c-1.3-1.8-0.9-4.2,0.9-5.5l5.1-3.7c1.7-1.3,4.1-1,5.5,0.7c1.3,1.7,1,4.1-0.7,5.5
		c-0.1,0.1-0.2,0.1-0.3,0.2l-5.1,3.7C155.3,159.6,152.9,159.2,151.6,157.5"/>
	<path class="st7" d="M113.1,215.7c-0.2,1.1-1.2,1.9-2.4,1.7c-1.1-0.2-1.9-1.2-1.7-2.4c0.2-1.1,1.2-1.9,2.4-1.7
		C112.5,213.6,113.3,214.6,113.1,215.7"/>
	<path class="st8" d="M81.1,127.7c-0.2,1.1-1.3,1.9-2.4,1.7s-1.9-1.3-1.7-2.4c0.2-1.1,1.2-1.9,2.4-1.7
		C80.5,125.5,81.3,126.6,81.1,127.7L81.1,127.7"/>
	<path class="st8" d="M127.5,126.4c-0.2,1.1-1.2,1.9-2.4,1.7c-1.1-0.2-1.9-1.2-1.7-2.4s1.2-1.9,2.4-1.7l0,0
		C126.9,124.2,127.7,125.2,127.5,126.4C127.5,126.3,127.5,126.4,127.5,126.4"/>
	<path class="st8" d="M111.4,207.7c-0.1,0.6-0.7,1.1-1.3,1s-1.1-0.7-1-1.3s0.7-1.1,1.3-1C111,206.4,111.5,207,111.4,207.7
		L111.4,207.7"/>
	<path class="st9" d="M104.1,217c0-0.3-0.2-0.7-0.5-0.7c-0.3-0.1-0.7,0.2-0.7,0.5c-0.1,0.3,0.2,0.7,0.5,0.7l0,0
		C103.7,217.6,104.1,217.4,104.1,217L104.1,217"/>
	<path class="st7" d="M98.3,224.6c0,0.3-0.3,0.4-0.5,0.4l0,0c-0.2,0-0.4-0.3-0.4-0.5l0,0c0-0.3,0.3-0.4,0.5-0.4
		C98.2,224.1,98.3,224.3,98.3,224.6"/>
	<path class="st7" d="M131.8,152.8c0,0.3-0.3,0.4-0.5,0.4l0,0c-0.3,0-0.4-0.3-0.4-0.5l0,0c0-0.3,0.3-0.4,0.5-0.4
		C131.7,152.4,131.8,152.6,131.8,152.8L131.8,152.8"/>
	<path class="st0" d="M72.7,145.4c-0.1,0.6-0.7,1-1.3,0.9c-0.6-0.1-1-0.7-0.9-1.3s0.7-1,1.3-0.9l0,0
		C72.4,144.3,72.8,144.8,72.7,145.4L72.7,145.4"/>
	<path class="st8" d="M61.1,140.6c-0.1,0.4-0.5,0.7-0.9,0.6c-0.4,0-0.8-0.4-0.8-0.8c0-0.4,0.4-0.8,0.8-0.8c0.1,0,0.1,0,0.2,0
		C60.9,139.8,61.2,140.2,61.1,140.6"/>
	<path class="st8" d="M138.4,114.2c-0.1,0.4-0.5,0.7-0.9,0.6l0,0c-0.4-0.1-0.7-0.5-0.6-0.9s0.5-0.7,0.9-0.6S138.5,113.7,138.4,114.2
		L138.4,114.2"/>
	<path class="st8" d="M58.7,166.5c-0.1,0.4-0.5,0.7-0.9,0.7l0,0c-0.4-0.1-0.7-0.5-0.6-0.9c0.1-0.4,0.5-0.7,0.9-0.6l0,0
		C58.5,165.7,58.8,166.1,58.7,166.5L58.7,166.5"/>
	<path class="st8" d="M71.6,139.5c0,0.3-0.4,0.6-0.7,0.5l0,0c-0.3-0.1-0.6-0.4-0.5-0.7s0.4-0.6,0.7-0.5
		C71.4,138.9,71.7,139.2,71.6,139.5L71.6,139.5"/>
	<path class="st8" d="M100.7,154.5c-0.1,0.4-0.5,0.7-0.9,0.7c-0.4-0.1-0.7-0.5-0.7-0.9c0.1-0.4,0.5-0.7,0.9-0.7l0,0
		C100.5,153.7,100.8,154,100.7,154.5L100.7,154.5"/>
	<path class="st8" d="M111.3,177.6c-0.1,0.4-0.5,0.7-0.9,0.7l0,0c-0.4-0.1-0.7-0.5-0.6-0.9c0-0.4,0.4-0.8,0.8-0.8s0.8,0.4,0.8,0.8
		C111.3,177.5,111.3,177.6,111.3,177.6"/>
	<path class="st8" d="M120.7,204.9c0,0.2-0.3,0.4-0.5,0.4s-0.4-0.2-0.4-0.5c0-0.2,0.2-0.4,0.5-0.4l0,0
		C120.6,204.5,120.7,204.7,120.7,204.9"/>
	<path class="st8" d="M102.8,215.2c-0.1,0.5-0.5,0.8-1,0.8l0,0c-0.5-0.1-0.9-0.6-0.8-1.1s0.6-0.8,1.1-0.8
		C102.5,214.2,102.9,214.7,102.8,215.2L102.8,215.2"/>
	<path class="st8" d="M172.3,135.7c-0.1,0.5-0.6,0.9-1.1,0.8c-0.5-0.1-0.9-0.6-0.8-1.1s0.6-0.9,1.1-0.8l0,0
		C172,134.7,172.3,135.1,172.3,135.7L172.3,135.7"/>
	<path class="st8" d="M60.3,133.6c-0.1,0.4-0.5,0.7-0.9,0.7c-0.4-0.1-0.7-0.5-0.7-0.9l0,0c0.1-0.4,0.5-0.7,0.9-0.7l0,0
		C60.1,132.7,60.4,133.1,60.3,133.6L60.3,133.6"/>
	<path class="st8" d="M60.3,168.9c-0.1,0.5-0.5,0.8-0.9,0.7l0,0c-0.5-0.1-0.8-0.5-0.7-1l0,0c0.1-0.5,0.5-0.8,1-0.7
		C60.1,168,60.4,168.4,60.3,168.9"/>
	<path class="st8" d="M84.3,117.6c-0.3,2-2.2,3.4-4.2,3.1s-3.4-2.2-3.1-4.2s2.2-3.4,4.2-3.1C83.2,113.6,84.6,115.5,84.3,117.6
		L84.3,117.6"/>
	<path class="st8" d="M38.7,150.4c-0.1,0.4-0.5,0.7-0.9,0.7s-0.7-0.5-0.7-0.9s0.5-0.7,0.9-0.7l0,0C38.5,149.6,38.8,150,38.7,150.4
		L38.7,150.4"/>
	<path class="st0" d="M11.5,148.3l-4.5,3l-0.3,3.1l4.3,0.3l-0.1,1.3l-11.2-0.8l0.3-4.8c0.2-2.5,1.6-4,3.6-3.8
		c1.7,0.1,3.1,1.5,3.1,3.2l4.8-3.1V148.3z M1.3,150.6L1,154l4.5,0.3l0.2-3.4c0.1-1.7-0.7-2.9-2.1-3S1.4,148.8,1.3,150.6L1.3,150.6z"
		/>
	<path class="st0" d="M12.7,141.4c-0.4,2.4-2.6,3.9-5,3.5s-3.9-2.6-3.5-5c0.4-2.3,2.6-3.9,5-3.5C11.4,136.8,13,139,12.7,141.4
		C12.7,141.3,12.7,141.4,12.7,141.4z M5.2,140.2c-0.3,1.6,0.8,3.2,2.4,3.5c0.1,0,0.2,0,0.2,0c1.7,0.4,3.3-0.7,3.7-2.4v-0.1
		c0.3-1.7-0.8-3.2-2.5-3.5H8.9c-1.7-0.4-3.3,0.7-3.7,2.4C5.2,140.1,5.2,140.1,5.2,140.2z"/>
	<path class="st0" d="M15.4,128.7l-0.4,1.4l-3.9,1.6l2.6,3.4l-0.4,1.3l-3.2-4.3l-4.7,2l0.4-1.4l3.7-1.6L7,127.9l0.4-1.3l3.1,4
		L15.4,128.7z"/>
	<path class="st0" d="M17.2,124.1c-0.8,2.2-3.3,3.4-5.5,2.6s-3.4-3.3-2.6-5.5c0.8-2.2,3.3-3.4,5.5-2.6S18,121.8,17.2,124.1
		L17.2,124.1z M10.1,121.6c-0.6,1.6,0.2,3.3,1.8,3.9c0.1,0,0.2,0.1,0.2,0.1c1.6,0.6,3.4-0.1,4-1.7v-0.1c0.6-1.6-0.3-3.3-1.9-3.9
		h-0.1C12.5,119.1,10.7,119.9,10.1,121.6C10.1,121.5,10.1,121.5,10.1,121.6z"/>
	<path class="st0" d="M16.2,101.9l-3.2,6l3.4,1.8l2.9-5.4l1,0.5l-2.9,5.4l3.5,1.8l3.3-6.1l1,0.5l-3.9,7.2l-9.9-5.3l3.8-7.1
		L16.2,101.9z"/>
	<path class="st0" d="M27.9,102.6c-0.7,1-1.7,1.8-2.9,2.2l-0.4-1c1-0.3,1.8-1,2.5-1.8c0.5-0.8,0.5-1.7-0.2-2.1l0,0
		c-0.7-0.5-1.5,0.2-2.4,0.9c-1,0.9-2.2,1.8-3.5,1l0,0c-1.2-0.8-1.3-2.3-0.4-3.6c0.6-0.9,1.4-1.6,2.4-2l0.5,1c-0.8,0.3-1.5,0.9-2,1.6
		c-0.5,0.8-0.5,1.6,0.1,2l0,0c0.7,0.4,1.5-0.3,2.4-1s2.2-1.7,3.4-0.9l0,0C28.7,99.6,28.8,101.2,27.9,102.6z"/>
	<path class="st0" d="M33.4,95c-0.8,1-2.1,1.5-3.3,1.4l3.2,2.6l-0.8,1L24,93.3l0.8-1l1.3,1c-0.5-1.2-0.3-2.6,0.5-3.6
		c1.6-1.8,4.4-1.9,6.1-0.2C34.3,90.8,34.6,93.2,33.4,95L33.4,95z M27.4,90.5c-1,1.5-0.5,3.5,1,4.4c1.3,0.8,2.9,0.6,4-0.4
		c1-1.3,0.8-3.1-0.5-4.1c-0.1-0.1-0.1-0.1-0.2-0.2C30.5,89.1,28.6,89.1,27.4,90.5C27.4,90.4,27.4,90.5,27.4,90.5L27.4,90.5z"/>
	<path class="st0" d="M32.6,85.3l-1-0.4c0.3-1,0.9-1.9,1.6-2.6c1.6-1.6,3.3-1.8,4.8-0.3l3.7,3.5l-0.8,0.9L40,85.5
		c0.2,1.1-0.2,2.3-1,3.1c-1.1,1.1-2.8,1.6-4,0.5s-1-2.9,0.5-4.4c0.6-0.6,1.3-1.2,2-1.6l-0.2-0.2c-1.1-1-2.3-0.9-3.3,0.2
		C33.3,83.7,32.9,84.5,32.6,85.3z M35.7,88.2c0.8,0.6,1.9,0.5,2.6-0.3c0,0,0-0.1,0.1-0.1c1.1-0.9,1.2-2.5,0.3-3.5l0,0l-0.6-0.5
		c-0.7,0.4-1.4,0.9-1.9,1.5C35,86.3,34.9,87.4,35.7,88.2z"/>
	<path class="st0" d="M46.3,81.5c-1.8,1.6-4.5,1.3-6.1-0.5s-1.4-4.5,0.5-6c0.9-0.8,2.2-1.2,3.4-1v1.2c-1-0.2-2,0.1-2.7,0.7
		c-1.2,1.3-1.2,3.3,0.1,4.6c1.2,1.1,3,1.2,4.2,0.2c0.7-0.7,1.1-1.7,1-2.7h1.1C47.9,79.4,47.3,80.7,46.3,81.5z"/>
	<path class="st0" d="M44,70l-0.8-1l1.1-0.9l0.8,1.1L44,70z M50.3,78l-5.1-6.5l1-0.8l5.1,6.5L50.3,78z"/>
	<path class="st0" d="M50,69.8l-0.9-0.6c0.5-0.9,1.2-1.7,2.1-2.3c1.9-1.3,3.6-1,4.8,0.8l2.8,4.2l-1,0.7l-0.7-1
		c-0.1,1.2-0.7,2.2-1.7,2.9c-1.3,0.9-3,1-4-0.4s-0.3-3,1.4-4.2c0.7-0.5,1.5-0.9,2.3-1.1l-0.2-0.2c-0.8-1.2-2-1.4-3.3-0.5
		C51,68.4,50.4,69,50,69.8z M52.5,73.2c0.6,0.8,1.8,0.9,2.6,0.3c0,0,0.1,0,0.1-0.1c1.3-0.9,1.8-2.3,1-3.4l-0.5-0.7
		c-0.8,0.2-1.5,0.6-2.2,1.1C52.3,71.3,51.9,72.3,52.5,73.2L52.5,73.2z"/>
	<path class="st0" d="M61.1,70.5l-5.9-10.1l1.1-0.6l5.9,10.1L61.1,70.5z"/>
	<g>
		<g>
			<defs>
				<circle id="SVGID_1_" cx="110.5" cy="155.1" r="80.5"/>
			</defs>
			<clipPath id="SVGID_2_">
				<use xlink:href="#SVGID_1_"  style="overflow:visible;"/>
			</clipPath>
			<g class="st10">
				<rect x="-85.3" y="-123.9" class="st4" width="397" height="397"/>
				
					<linearGradient id="SVGID_3_" gradientUnits="userSpaceOnUse" x1="-233.0285" y1="1376.3159" x2="-163.2385" y2="1376.3159" gradientTransform="matrix(0.99 0.15 -0.15 0.99 503.19 -1300.2509)">
					<stop  offset="0" style="stop-color:#F7E56B"/>
					<stop  offset="7.000000e-02" style="stop-color:#F1D066"/>
					<stop  offset="0.2" style="stop-color:#E09A58"/>
					<stop  offset="0.35" style="stop-color:#CC5948"/>
					<stop  offset="1" style="stop-color:#2D2550;stop-opacity:0"/>
				</linearGradient>
				<path class="st11" d="M137.2,7.1L66,60.8c-2,1.4-4.7,1.1-6.3-0.8l0,0c-1.4-1.8-1.1-4.4,0.7-5.9c0.1,0,0.1-0.1,0.2-0.1l73.1-51.2
					L137.2,7.1z"/>
				<polygon class="st12" points="63.4,54.4 64.2,56.7 66.6,57.4 64.5,58.8 64.6,61.2 62.6,59.7 60.2,60.5 61,58.2 59.5,56.3 
					62,56.4 				"/>
				<g>
					<g>
						<defs>
							<rect id="SVGID_4_" x="-85.3" y="-123.9" width="397" height="397"/>
						</defs>
						<clipPath id="SVGID_5_">
							<use xlink:href="#SVGID_4_"  style="overflow:visible;"/>
						</clipPath>
						<g class="st13">
							<g class="st14">
								
									<linearGradient id="SVGID_6_" gradientUnits="userSpaceOnUse" x1="9492.7998" y1="5115.1665" x2="9980.2051" y2="5115.1665" gradientTransform="matrix(-0.9909 -0.1345 0.1345 -0.9909 8836.9307 6500.6724)">
									<stop  offset="0" style="stop-color:#302857"/>
									<stop  offset="1" style="stop-color:#2D2550;stop-opacity:0"/>
								</linearGradient>
								<path class="st15" d="M-40.5,198.5c46.5-0.8,97.4-3.2,131.9-34.4c13.2-11.9,22.9-27.3,29.3-43.9c6.1-15.6,9.4-33,4.6-49.1
									C118,45.8,91.7,29.4,65.5,26.8S13.2,33-10.7,44.1s-46.7,24.8-71.7,33.1c-61.3,20.3-127.8,6.3-192-0.6
									c-20.3-2.2-42.2-3.3-59.7,7.2c-9,5.4-16,13.4-22,22c-11,15.8-18.6,35.6-13.9,54.3c5.9,23.3,28.8,38,50.9,47.2
									c76,31.9,163.1,27.8,242.8,6.6c24.1-6.4,48.1-14.4,72.9-16.7"/>
							</g>
							<g class="st16">
								
									<linearGradient id="SVGID_7_" gradientUnits="userSpaceOnUse" x1="-118.1897" y1="555.325" x2="307.8952" y2="555.325" gradientTransform="matrix(1 1.745329e-04 -1.745329e-04 1 1.9605 -629.1171)">
									<stop  offset="0" style="stop-color:#5263A7"/>
									<stop  offset="6.000000e-02" style="stop-color:#4D5A9C"/>
									<stop  offset="0.25" style="stop-color:#3E3F7A"/>
									<stop  offset="0.41" style="stop-color:#342F65"/>
									<stop  offset="0.51" style="stop-color:#31295D"/>
									<stop  offset="0.6" style="stop-color:#31295C;stop-opacity:0.94"/>
									<stop  offset="0.71" style="stop-color:#30285A;stop-opacity:0.76"/>
									<stop  offset="0.84" style="stop-color:#2F2756;stop-opacity:0.48"/>
									<stop  offset="0.98" style="stop-color:#2D2551;stop-opacity:8.000000e-02"/>
									<stop  offset="1" style="stop-color:#2D2550;stop-opacity:0"/>
								</linearGradient>
								<path class="st17" d="M16.8-129.9c-40.2,6.1-84,14.2-110.2,45.3c-10,11.9-16.6,26.4-20.3,41.4c-3.4,14.2-4.2,29.7,1.8,43.1
									c9.4,21,34.1,32.1,57.1,31.3s44.6-11.5,64-23.9s37.5-27,58.2-37.1c50.7-24.8,110-20.5,166.4-22c17.8-0.5,36.9-2.1,50.9-13.2
									c7.1-5.7,12.3-13.5,16.4-21.6c7.6-15,11.9-33,5.7-48.6c-7.8-19.6-29.4-29.6-49.7-35c-69.6-18.7-144.6-5-211.1,22.7
									c-20.1,8.4-40,18.1-61.2,23"/>
							</g>
							<g class="st16">
								
									<linearGradient id="SVGID_8_" gradientUnits="userSpaceOnUse" x1="9225.2266" y1="5036.6396" x2="9712.5713" y2="5036.6396" gradientTransform="matrix(-0.9909 -0.1345 0.1345 -0.9909 8836.9307 6500.6724)">
									<stop  offset="0" style="stop-color:#5263A7"/>
									<stop  offset="6.000000e-02" style="stop-color:#4D5A9C"/>
									<stop  offset="0.25" style="stop-color:#3E3F7A"/>
									<stop  offset="0.41" style="stop-color:#342F65"/>
									<stop  offset="0.51" style="stop-color:#31295D"/>
									<stop  offset="0.6" style="stop-color:#31295C;stop-opacity:0.94"/>
									<stop  offset="0.71" style="stop-color:#30285A;stop-opacity:0.76"/>
									<stop  offset="0.84" style="stop-color:#2F2756;stop-opacity:0.48"/>
									<stop  offset="0.98" style="stop-color:#2D2551;stop-opacity:8.000000e-02"/>
									<stop  offset="1" style="stop-color:#2D2550;stop-opacity:0"/>
								</linearGradient>
								<path class="st18" d="M213.6,312.2c46.5-0.8,97.5-3.2,131.9-34.4c13.2-11.9,22.9-27.3,29.3-43.9c6.1-15.6,9.3-33,4.6-49.1
									c-7.4-25.2-33.7-41.6-59.9-44.2s-52.3,6.2-76.2,17.3s-46.6,24.8-71.6,33c-61.3,20.3-127.8,6.3-192-0.6
									c-20.3-2.2-42.2-3.3-59.7,7.2c-9,5.4-16,13.4-22,22c-10.9,15.9-18.6,35.6-13.9,54.3c5.9,23.3,28.8,38,50.9,47.2
									c76,31.8,163.1,27.8,242.8,6.7c24.1-6.4,48.1-14.4,72.9-16.7"/>
							</g>
							
								<linearGradient id="SVGID_9_" gradientUnits="userSpaceOnUse" x1="-210.277" y1="1150.4517" x2="-128.8148" y2="1150.4517" gradientTransform="matrix(0.9909 0.1345 -0.1345 0.9909 431.2795 -1224.8022)">
								<stop  offset="0" style="stop-color:#302857"/>
								<stop  offset="1" style="stop-color:#2D2550;stop-opacity:0"/>
							</linearGradient>
							<path class="st19" d="M153.7-137.5l-77,66.4c-3.4,2.8-8.5,2.3-11.3-1.1c-0.1-0.1-0.1-0.2-0.2-0.2l0,0
								c-2.8-3.6-2.2-8.8,1.3-11.7l80.7-61.7L153.7-137.5z"/>
							
								<linearGradient id="SVGID_10_" gradientUnits="userSpaceOnUse" x1="-207.3895" y1="1154.9398" x2="-141.6943" y2="1154.9398" gradientTransform="matrix(0.9909 0.1345 -0.1345 0.9909 431.2795 -1224.8022)">
								<stop  offset="0" style="stop-color:#6BB19F"/>
								<stop  offset="8.000000e-02" style="stop-color:#5E9C99"/>
								<stop  offset="0.26" style="stop-color:#3D678A"/>
								<stop  offset="0.34" style="stop-color:#2A4982"/>
								<stop  offset="0.63" style="stop-color:#3A285B;stop-opacity:0.77"/>
								<stop  offset="1" style="stop-color:#2D2550;stop-opacity:0"/>
							</linearGradient>
							<path class="st20" d="M139.6-130.1L73.1-74.2c-1.8,1.5-4.4,1.2-5.9-0.6l-0.1-0.1l0,0c-1.5-1.9-1.2-4.6,0.7-6.1l68.4-53.4
								L139.6-130.1z"/>
							<polygon class="st21" points="70.6,-80.7 71.4,-78.4 73.7,-77.7 71.8,-76.3 71.8,-73.9 69.9,-75.3 67.7,-74.4 68.4,-76.8 
								66.9,-78.7 69.3,-78.7 							"/>
							
								<linearGradient id="SVGID_11_" gradientUnits="userSpaceOnUse" x1="-349.0105" y1="1392.348" x2="-267.7502" y2="1392.348" gradientTransform="matrix(0.9909 0.1345 -0.1345 0.9909 431.2795 -1224.8022)">
								<stop  offset="0" style="stop-color:#302857"/>
								<stop  offset="1" style="stop-color:#2D2550;stop-opacity:0"/>
							</linearGradient>
							<path class="st22" d="M-16.6,84.2L-93.3,149c-3.5,2.8-8.6,2.2-11.4-1.3l0,0l0,0c-2.8-3.5-2.2-8.6,1.3-11.4l0,0L-23,76.2
								L-16.6,84.2z"/>
							
								<linearGradient id="SVGID_12_" gradientUnits="userSpaceOnUse" x1="-346.2007" y1="1396.6913" x2="-280.5422" y2="1396.6913" gradientTransform="matrix(0.9909 0.1345 -0.1345 0.9909 431.2795 -1224.8022)">
								<stop  offset="0" style="stop-color:#6BB19F"/>
								<stop  offset="8.000000e-02" style="stop-color:#5E9C99"/>
								<stop  offset="0.26" style="stop-color:#3D678A"/>
								<stop  offset="0.34" style="stop-color:#2A4982"/>
								<stop  offset="0.63" style="stop-color:#3A285B;stop-opacity:0.77"/>
								<stop  offset="1" style="stop-color:#2D2550;stop-opacity:0"/>
							</linearGradient>
							<path class="st23" d="M-30.5,91.5l-66.2,54.4c-1.8,1.5-4.5,1.2-6-0.6l0,0l0,0c-1.5-1.8-1.2-4.5,0.6-6c0,0,0,0,0.1,0l68.2-52
								L-30.5,91.5z"/>
							<polygon class="st21" points="-99.3,139.6 -98.6,141.8 -96.3,142.5 -98.2,143.9 -98.1,146.3 -100.1,144.9 -102.3,145.7 
								-101.6,143.5 -103,141.6 -100.7,141.6 							"/>
						</g>
					</g>
				</g>
				
					<linearGradient id="SVGID_13_" gradientUnits="userSpaceOnUse" x1="-18.0174" y1="554.4972" x2="50.4626" y2="640.7672" gradientTransform="matrix(0.9993 2.575686e-03 -2.575686e-03 0.9993 2.2685 -629.5928)">
					<stop  offset="0" style="stop-color:#FFFFFF"/>
					<stop  offset="5.000000e-02" style="stop-color:#DEDDE4;stop-opacity:0.84"/>
					<stop  offset="0.1" style="stop-color:#B9B7C5;stop-opacity:0.67"/>
					<stop  offset="0.16" style="stop-color:#9894A9;stop-opacity:0.51"/>
					<stop  offset="0.23" style="stop-color:#7B7691;stop-opacity:0.37"/>
					<stop  offset="0.3" style="stop-color:#635D7D;stop-opacity:0.26"/>
					<stop  offset="0.38" style="stop-color:#4F486C;stop-opacity:0.16"/>
					<stop  offset="0.47" style="stop-color:#403860;stop-opacity:9.000000e-02"/>
					<stop  offset="0.57" style="stop-color:#352D57;stop-opacity:4.000000e-02"/>
					<stop  offset="0.71" style="stop-color:#2F2751;stop-opacity:1.000000e-02"/>
					<stop  offset="1" style="stop-color:#2D2550;stop-opacity:0"/>
				</linearGradient>
				<circle class="st24" cx="8.6" cy="-42.9" r="37.5"/>
				
					<linearGradient id="SVGID_14_" gradientUnits="userSpaceOnUse" x1="-25.3525" y1="562.1605" x2="45.0476" y2="614.7106" gradientTransform="matrix(1 1.745329e-04 -1.745329e-04 1 1.9605 -629.1171)">
					<stop  offset="0" style="stop-color:#AD215D"/>
					<stop  offset="0.58" style="stop-color:#302857"/>
					<stop  offset="1" style="stop-color:#2D2550;stop-opacity:0"/>
				</linearGradient>
				<circle class="st25" cx="9" cy="-42.7" r="30.2"/>
				
					<linearGradient id="SVGID_15_" gradientUnits="userSpaceOnUse" x1="176.3418" y1="657.2914" x2="283.9318" y2="792.8514" gradientTransform="matrix(1 1.745329e-04 -1.745329e-04 1 1.9605 -629.1171)">
					<stop  offset="0" style="stop-color:#5263A7"/>
					<stop  offset="6.000000e-02" style="stop-color:#4D5A9C"/>
					<stop  offset="0.25" style="stop-color:#3E3F7A"/>
					<stop  offset="0.41" style="stop-color:#342F65"/>
					<stop  offset="0.51" style="stop-color:#31295D"/>
					<stop  offset="0.6" style="stop-color:#31295C;stop-opacity:0.94"/>
					<stop  offset="0.71" style="stop-color:#30285A;stop-opacity:0.76"/>
					<stop  offset="0.84" style="stop-color:#2F2756;stop-opacity:0.48"/>
					<stop  offset="0.98" style="stop-color:#2D2551;stop-opacity:8.000000e-02"/>
					<stop  offset="1" style="stop-color:#2D2550;stop-opacity:0"/>
				</linearGradient>
				<path class="st26" d="M267.5,113.4c-18.6,26.7-55.3,33.3-82,14.8c-26.7-18.6-33.3-55.3-14.8-82c18.6-26.7,55.3-33.3,82-14.8l0,0
					C279.5,50,286.1,86.7,267.5,113.4z"/>
				
					<linearGradient id="SVGID_16_" gradientUnits="userSpaceOnUse" x1="-20.6525" y1="565.6705" x2="39.5575" y2="610.6105" gradientTransform="matrix(1 1.745329e-04 -1.745329e-04 1 1.9605 -629.1171)">
					<stop  offset="0" style="stop-color:#AD215D"/>
					<stop  offset="0.58" style="stop-color:#302857"/>
					<stop  offset="1" style="stop-color:#2D2550;stop-opacity:0"/>
				</linearGradient>
				<circle class="st27" cx="9" cy="-42.7" r="25.8"/>
				
					<linearGradient id="SVGID_17_" gradientUnits="userSpaceOnUse" x1="183.6456" y1="667.4752" x2="268.4357" y2="774.3152" gradientTransform="matrix(1 3.490391e-04 -3.490391e-04 1 1.9798 -629.1517)">
					<stop  offset="0" style="stop-color:#5263A7"/>
					<stop  offset="6.000000e-02" style="stop-color:#4D5A9C"/>
					<stop  offset="0.25" style="stop-color:#3E3F7A"/>
					<stop  offset="0.41" style="stop-color:#342F65"/>
					<stop  offset="0.51" style="stop-color:#31295D"/>
					<stop  offset="0.6" style="stop-color:#31295C;stop-opacity:0.94"/>
					<stop  offset="0.71" style="stop-color:#30285A;stop-opacity:0.76"/>
					<stop  offset="0.84" style="stop-color:#2F2756;stop-opacity:0.48"/>
					<stop  offset="0.98" style="stop-color:#2D2551;stop-opacity:8.000000e-02"/>
					<stop  offset="1" style="stop-color:#2D2550;stop-opacity:0"/>
				</linearGradient>
				<circle class="st28" cx="217.6" cy="79" r="46.5"/>
				
					<linearGradient id="SVGID_18_" gradientUnits="userSpaceOnUse" x1="241.9566" y1="821.0537" x2="308.5067" y2="904.9037" gradientTransform="matrix(1 1.745329e-04 -1.745329e-04 1 1.9605 -629.1171)">
					<stop  offset="0" style="stop-color:#AD215D"/>
					<stop  offset="0.58" style="stop-color:#302857"/>
					<stop  offset="1" style="stop-color:#2D2550;stop-opacity:0"/>
				</linearGradient>
				<path class="st29" d="M299,244.7c-11.5,16.5-34.2,20.6-50.7,9.1c-16.5-11.5-20.6-34.2-9.1-50.7s34.2-20.6,50.7-9.1
					C306.4,205.5,310.5,228.2,299,244.7z"/>
				
					<linearGradient id="SVGID_19_" gradientUnits="userSpaceOnUse" x1="-62.4894" y1="668.4761" x2="-7.8094" y2="737.3762" gradientTransform="matrix(1 1.745329e-04 -1.745329e-04 1 1.9605 -629.1171)">
					<stop  offset="0" style="stop-color:#302857"/>
					<stop  offset="1" style="stop-color:#2D2550;stop-opacity:0"/>
				</linearGradient>
				<path class="st30" d="M-15.2,82.6c-9.4,13.6-28.1,17-41.7,7.6s-17-28.1-7.6-41.7s28.1-17,41.7-7.6c0,0,0.1,0,0.1,0.1
					C-9.2,50.4-5.8,69-15.2,82.6z"/>
				
					<linearGradient id="SVGID_20_" gradientUnits="userSpaceOnUse" x1="-226.6295" y1="1499.0765" x2="-178.6763" y2="1499.0765" gradientTransform="matrix(0.9909 0.1345 -0.1345 0.9909 431.2795 -1224.8022)">
					<stop  offset="0" style="stop-color:#302857"/>
					<stop  offset="1" style="stop-color:#2D2550;stop-opacity:0"/>
				</linearGradient>
				<path class="st31" d="M55.3,216.2L10,254.4c-2.1,1.6-5.1,1.3-6.7-0.8l0,0c-1.6-2.1-1.3-5.1,0.8-6.7l47.4-35.5L55.3,216.2z"/>
				
					<linearGradient id="SVGID_21_" gradientUnits="userSpaceOnUse" x1="-224.9595" y1="1501.6898" x2="-186.2139" y2="1501.6898" gradientTransform="matrix(0.9909 0.1345 -0.1345 0.9909 431.2795 -1224.8022)">
					<stop  offset="0" style="stop-color:#6BB19F"/>
					<stop  offset="8.000000e-02" style="stop-color:#5E9C99"/>
					<stop  offset="0.26" style="stop-color:#3D678A"/>
					<stop  offset="0.34" style="stop-color:#2A4982"/>
					<stop  offset="0.63" style="stop-color:#3A285B;stop-opacity:0.77"/>
					<stop  offset="1" style="stop-color:#2D2550;stop-opacity:0"/>
				</linearGradient>
				<path class="st32" d="M47.1,220.5L8,252.6c-1.1,0.9-2.7,0.7-3.5-0.4l0,0c-0.9-1.1-0.7-2.7,0.4-3.5l0,0L45.1,218L47.1,220.5z"/>
				<polygon class="st21" points="6.5,248.9 6.9,250.2 8.3,250.6 7.2,251.4 7.2,252.8 6.1,252 4.8,252.5 5.2,251.1 4.3,250 5.7,250 
									"/>
				
					<linearGradient id="SVGID_22_" gradientUnits="userSpaceOnUse" x1="-110.667" y1="4096.0249" x2="-82.087" y2="4096.0249" gradientTransform="matrix(0.77 0.64 -0.64 0.77 2983.3899 -3003.4214)">
					<stop  offset="0" style="stop-color:#8BC2C2"/>
					<stop  offset="0.14" style="stop-color:#7395A4;stop-opacity:0.97"/>
					<stop  offset="0.31" style="stop-color:#5B6684;stop-opacity:0.94"/>
					<stop  offset="0.46" style="stop-color:#49446E;stop-opacity:0.92"/>
					<stop  offset="0.58" style="stop-color:#3E3060;stop-opacity:0.9"/>
					<stop  offset="0.66" style="stop-color:#3A285B;stop-opacity:0.9"/>
					<stop  offset="0.78" style="stop-color:#3A285B;stop-opacity:0.87"/>
					<stop  offset="0.85" style="stop-color:#38285A;stop-opacity:0.79"/>
					<stop  offset="0.9" style="stop-color:#362758;stop-opacity:0.64"/>
					<stop  offset="0.94" style="stop-color:#332655;stop-opacity:0.43"/>
					<stop  offset="0.98" style="stop-color:#2F2652;stop-opacity:0.16"/>
					<stop  offset="1" style="stop-color:#2D2550;stop-opacity:0"/>
				</linearGradient>
				<path class="st33" d="M276.8,79.8c5-6.1,14.1-6.9,20.1-1.9c6.1,5,6.9,14.1,1.9,20.1c-5,6.1-14.1,6.9-20.1,1.9l0,0
					C272.6,94.9,271.8,85.9,276.8,79.8z"/>
				
					<linearGradient id="SVGID_23_" gradientUnits="userSpaceOnUse" x1="-147.5326" y1="1580.2974" x2="-102.0426" y2="1580.2974" gradientTransform="matrix(0.98 0.21 -0.21 0.98 710.2922 -1548.7886)">
					<stop  offset="0" style="stop-color:#302857"/>
					<stop  offset="1" style="stop-color:#2D2550;stop-opacity:0"/>
				</linearGradient>
				<path class="st34" d="M238.1-30.1c2.6-12.3,14.6-20.2,26.9-17.6c12.3,2.6,20.2,14.6,17.6,26.9C280.1-8.4,268-0.6,255.7-3.1l0,0
					C243.4-5.7,235.5-17.8,238.1-30.1z"/>
				
					<linearGradient id="SVGID_24_" gradientUnits="userSpaceOnUse" x1="22.7703" y1="574.1007" x2="49.7603" y2="598.2207" gradientTransform="matrix(1 1.745329e-04 -1.745329e-04 1 1.9605 -629.1171)">
					<stop  offset="0" style="stop-color:#CC5545"/>
					<stop  offset="0.12" style="stop-color:#CB4C4A"/>
					<stop  offset="0.32" style="stop-color:#C73457"/>
					<stop  offset="0.42" style="stop-color:#C5255F"/>
					<stop  offset="0.51" style="stop-color:#A4265E;stop-opacity:0.86"/>
					<stop  offset="0.71" style="stop-color:#58275C;stop-opacity:0.53"/>
					<stop  offset="0.8" style="stop-color:#3A285B;stop-opacity:0.4"/>
					<stop  offset="1" style="stop-color:#2D2550;stop-opacity:0"/>
				</linearGradient>
				<circle class="st35" cx="34.6" cy="-46.1" r="11.1"/>
				
					<linearGradient id="SVGID_25_" gradientUnits="userSpaceOnUse" x1="24.7603" y1="575.8807" x2="46.3504" y2="595.1707" gradientTransform="matrix(1 1.745329e-04 -1.745329e-04 1 1.9605 -629.1171)">
					<stop  offset="0" style="stop-color:#CC5545"/>
					<stop  offset="0.12" style="stop-color:#CB4C4A"/>
					<stop  offset="0.32" style="stop-color:#C73457"/>
					<stop  offset="0.42" style="stop-color:#C5255F"/>
					<stop  offset="0.51" style="stop-color:#A4265E;stop-opacity:0.86"/>
					<stop  offset="0.71" style="stop-color:#58275C;stop-opacity:0.53"/>
					<stop  offset="0.8" style="stop-color:#3A285B;stop-opacity:0.4"/>
					<stop  offset="1" style="stop-color:#2D2550;stop-opacity:0"/>
				</linearGradient>
				<circle class="st36" cx="34.6" cy="-46.1" r="8.9"/>
				<polygon class="st37" points="287.5,62.8 288.7,65.1 291,66.4 288.7,67.6 287.5,69.9 286.2,67.6 283.9,66.3 286.2,65.1 				"/>
				<polygon class="st37" points="273.4,-90.4 274.6,-88.1 276.9,-86.9 274.6,-85.6 273.4,-83.4 272.1,-85.6 269.8,-86.9 
					272.1,-88.1 				"/>
				<polygon class="st37" points="128,234.3 129.2,236.6 131.5,237.8 129.2,239.1 128,241.4 126.7,239.1 124.5,237.8 126.7,236.6 
									"/>
				<polygon class="st37" points="-14.1,220 -13.4,221.4 -12,222.2 -13.4,222.9 -14.1,224.3 -14.9,222.9 -16.3,222.2 -14.9,221.4 
									"/>
				<polygon class="st37" points="271.2,13.4 272,14.8 273.3,15.6 272,16.3 271.2,17.7 270.5,16.3 269.1,15.6 270.5,14.8 				"/>
				<polygon class="st37" points="213,2.7 213.7,4 215.1,4.8 213.7,5.5 213,6.9 212.2,5.5 210.9,4.8 212.2,4 				"/>
				<polygon class="st37" points="-50.9,-8.4 -50.1,-7.1 -48.8,-6.3 -50.1,-5.6 -50.9,-4.2 -51.6,-5.6 -53,-6.3 -51.6,-7.1 				"/>
				<polygon class="st37" points="260.4,-61.3 261.1,-59.9 262.5,-59.1 261.1,-58.4 260.4,-57 259.6,-58.4 258.3,-59.1 259.6,-59.9 
									"/>
				<polygon class="st37" points="10.3,35.6 11,36.9 12.3,37.6 11,38.3 10.3,39.6 9.6,38.3 8.3,37.6 9.6,36.9 				"/>
				<polygon class="st37" points="100,72.1 100.7,73.4 102,74.2 100.7,74.9 100,76.2 99.3,74.9 98,74.2 99.3,73.4 				"/>
				<polygon class="st37" points="147.7,-39 148.4,-37.7 149.7,-37 148.4,-36.3 147.7,-35 147,-36.3 145.6,-37 147,-37.7 				"/>
				
					<linearGradient id="SVGID_26_" gradientUnits="userSpaceOnUse" x1="24.1078" y1="708.034" x2="32.3778" y2="718.054" gradientTransform="matrix(1 1.745329e-04 -1.745329e-04 1 1.9605 -629.1171)">
					<stop  offset="0" style="stop-color:#AD215D"/>
					<stop  offset="0.58" style="stop-color:#302857"/>
					<stop  offset="1" style="stop-color:#2D2550;stop-opacity:0"/>
				</linearGradient>
				<polygon class="st38" points="28.7,79.3 29.7,81.2 31.5,82.2 29.7,83.2 28.7,85.1 27.7,83.2 25.8,82.2 27.7,81.2 				"/>
				
					<linearGradient id="SVGID_27_" gradientUnits="userSpaceOnUse" x1="138.2303" y1="702.9818" x2="146.5004" y2="713.0018" gradientTransform="matrix(1 1.745329e-04 -1.745329e-04 1 1.9605 -629.1171)">
					<stop  offset="0" style="stop-color:#AD215D"/>
					<stop  offset="0.58" style="stop-color:#302857"/>
					<stop  offset="1" style="stop-color:#2D2550;stop-opacity:0"/>
				</linearGradient>
				<polygon class="st39" points="142.8,74.3 143.8,76.2 145.7,77.2 143.8,78.2 142.8,80.1 141.8,78.2 139.9,77.2 141.8,76.2 				
					"/>
				
					<linearGradient id="SVGID_28_" gradientUnits="userSpaceOnUse" x1="198.241" y1="871.3448" x2="211.6511" y2="887.6048" gradientTransform="matrix(1 1.745329e-04 -1.745329e-04 1 1.9605 -629.1171)">
					<stop  offset="0" style="stop-color:#AD215D"/>
					<stop  offset="0.58" style="stop-color:#302857"/>
					<stop  offset="1" style="stop-color:#2D2550;stop-opacity:0"/>
				</linearGradient>
				<polygon class="st40" points="204.4,243 206.1,246 209.1,247.6 206.1,249.3 204.4,252.3 202.8,249.3 199.8,247.6 202.8,246 				
					"/>
				
					<linearGradient id="SVGID_29_" gradientUnits="userSpaceOnUse" x1="32.0225" y1="626.647" x2="43.7925" y2="636.477" gradientTransform="matrix(1 1.745329e-04 -1.745329e-04 1 1.9605 -629.1171)">
					<stop  offset="0" style="stop-color:#5263A7"/>
					<stop  offset="6.000000e-02" style="stop-color:#4D5A9C"/>
					<stop  offset="0.25" style="stop-color:#3E3F7A"/>
					<stop  offset="0.41" style="stop-color:#342F65"/>
					<stop  offset="0.51" style="stop-color:#31295D"/>
					<stop  offset="0.6" style="stop-color:#31295C;stop-opacity:0.94"/>
					<stop  offset="0.71" style="stop-color:#30285A;stop-opacity:0.76"/>
					<stop  offset="0.84" style="stop-color:#2F2756;stop-opacity:0.48"/>
					<stop  offset="0.98" style="stop-color:#2D2551;stop-opacity:8.000000e-02"/>
					<stop  offset="1" style="stop-color:#2D2550;stop-opacity:0"/>
				</linearGradient>
				<polygon class="st41" points="38.2,-2.4 39.4,-0.1 41.7,1.2 39.4,2.4 38.2,4.7 36.9,2.4 34.6,1.2 36.9,-0.1 				"/>
				
					<linearGradient id="SVGID_30_" gradientUnits="userSpaceOnUse" x1="216.1713" y1="779.1364" x2="227.9513" y2="788.9664" gradientTransform="matrix(1 1.745329e-04 -1.745329e-04 1 1.9605 -629.1171)">
					<stop  offset="0" style="stop-color:#5263A7"/>
					<stop  offset="6.000000e-02" style="stop-color:#4D5A9C"/>
					<stop  offset="0.25" style="stop-color:#3E3F7A"/>
					<stop  offset="0.41" style="stop-color:#342F65"/>
					<stop  offset="0.51" style="stop-color:#31295D"/>
					<stop  offset="0.6" style="stop-color:#31295C;stop-opacity:0.94"/>
					<stop  offset="0.71" style="stop-color:#30285A;stop-opacity:0.76"/>
					<stop  offset="0.84" style="stop-color:#2F2756;stop-opacity:0.48"/>
					<stop  offset="0.98" style="stop-color:#2D2551;stop-opacity:8.000000e-02"/>
					<stop  offset="1" style="stop-color:#2D2550;stop-opacity:0"/>
				</linearGradient>
				<polygon class="st42" points="222.3,150.1 223.6,152.4 225.9,153.7 223.6,154.9 222.3,157.2 221.1,154.9 218.8,153.7 
					221.1,152.4 				"/>
				
					<linearGradient id="SVGID_31_" gradientUnits="userSpaceOnUse" x1="288.3456" y1="648.9213" x2="300.1255" y2="658.7513" gradientTransform="matrix(1 1.745329e-04 -1.745329e-04 1 1.9605 -629.1171)">
					<stop  offset="0" style="stop-color:#5263A7"/>
					<stop  offset="6.000000e-02" style="stop-color:#4D5A9C"/>
					<stop  offset="0.25" style="stop-color:#3E3F7A"/>
					<stop  offset="0.41" style="stop-color:#342F65"/>
					<stop  offset="0.51" style="stop-color:#31295D"/>
					<stop  offset="0.6" style="stop-color:#31295C;stop-opacity:0.94"/>
					<stop  offset="0.71" style="stop-color:#30285A;stop-opacity:0.76"/>
					<stop  offset="0.84" style="stop-color:#2F2756;stop-opacity:0.48"/>
					<stop  offset="0.98" style="stop-color:#2D2551;stop-opacity:8.000000e-02"/>
					<stop  offset="1" style="stop-color:#2D2550;stop-opacity:0"/>
				</linearGradient>
				<polygon class="st43" points="294.5,19.9 295.8,22.2 298.1,23.5 295.8,24.7 294.5,27 293.3,24.7 291,23.5 293.3,22.2 				"/>
				
					<linearGradient id="SVGID_32_" gradientUnits="userSpaceOnUse" x1="201.131" y1="577.3348" x2="212.911" y2="587.1648" gradientTransform="matrix(1 1.745329e-04 -1.745329e-04 1 1.9605 -629.1171)">
					<stop  offset="0" style="stop-color:#5263A7"/>
					<stop  offset="6.000000e-02" style="stop-color:#4D5A9C"/>
					<stop  offset="0.25" style="stop-color:#3E3F7A"/>
					<stop  offset="0.41" style="stop-color:#342F65"/>
					<stop  offset="0.51" style="stop-color:#31295D"/>
					<stop  offset="0.6" style="stop-color:#31295C;stop-opacity:0.94"/>
					<stop  offset="0.71" style="stop-color:#30285A;stop-opacity:0.76"/>
					<stop  offset="0.84" style="stop-color:#2F2756;stop-opacity:0.48"/>
					<stop  offset="0.98" style="stop-color:#2D2551;stop-opacity:8.000000e-02"/>
					<stop  offset="1" style="stop-color:#2D2550;stop-opacity:0"/>
				</linearGradient>
				<polygon class="st44" points="207.3,-51.7 208.6,-49.4 210.9,-48.1 208.6,-46.9 207.3,-44.6 206.1,-46.9 203.8,-48.1 
					206.1,-49.4 				"/>
				
					<linearGradient id="SVGID_33_" gradientUnits="userSpaceOnUse" x1="147.904" y1="648.9112" x2="159.684" y2="658.7411" gradientTransform="matrix(1 1.745329e-04 -1.745329e-04 1 1.9605 -629.1171)">
					<stop  offset="0" style="stop-color:#5263A7"/>
					<stop  offset="6.000000e-02" style="stop-color:#4D5A9C"/>
					<stop  offset="0.25" style="stop-color:#3E3F7A"/>
					<stop  offset="0.41" style="stop-color:#342F65"/>
					<stop  offset="0.51" style="stop-color:#31295D"/>
					<stop  offset="0.6" style="stop-color:#31295C;stop-opacity:0.94"/>
					<stop  offset="0.71" style="stop-color:#30285A;stop-opacity:0.76"/>
					<stop  offset="0.84" style="stop-color:#2F2756;stop-opacity:0.48"/>
					<stop  offset="0.98" style="stop-color:#2D2551;stop-opacity:8.000000e-02"/>
					<stop  offset="1" style="stop-color:#2D2550;stop-opacity:0"/>
				</linearGradient>
				<polygon class="st45" points="154.1,19.9 155.3,22.2 157.6,23.4 155.3,24.7 154.1,27 152.8,24.7 150.6,23.4 152.8,22.2 				"/>
				<g class="st46">
					
						<linearGradient id="SVGID_34_" gradientUnits="userSpaceOnUse" x1="-64.1718" y1="786.83" x2="11.2593" y2="786.83" gradientTransform="matrix(1 1.745329e-04 -1.745329e-04 1 1.9605 -629.1171)">
						<stop  offset="0" style="stop-color:#8BC2C2"/>
						<stop  offset="0.14" style="stop-color:#7395A4;stop-opacity:0.97"/>
						<stop  offset="0.31" style="stop-color:#5B6684;stop-opacity:0.94"/>
						<stop  offset="0.46" style="stop-color:#49446E;stop-opacity:0.92"/>
						<stop  offset="0.58" style="stop-color:#3E3060;stop-opacity:0.9"/>
						<stop  offset="0.66" style="stop-color:#3A285B;stop-opacity:0.9"/>
						<stop  offset="0.78" style="stop-color:#3A285B;stop-opacity:0.87"/>
						<stop  offset="0.85" style="stop-color:#38285A;stop-opacity:0.79"/>
						<stop  offset="0.9" style="stop-color:#362758;stop-opacity:0.64"/>
						<stop  offset="0.94" style="stop-color:#332655;stop-opacity:0.43"/>
						<stop  offset="0.98" style="stop-color:#2F2652;stop-opacity:0.16"/>
						<stop  offset="1" style="stop-color:#2D2550;stop-opacity:0"/>
					</linearGradient>
					<path class="st47" d="M6,130.9c5.9,4.1,6,9,7,15.2c0.3,2.8,0.2,5.7-0.5,8.4c-4.1,19.1-21,32.8-40.5,32.7
						c-5.2-0.1-10.4-1-15.4-2.9c-7.8-2.8-15-7.7-17.8-14.5c-3-7.3,0.5-15.6,7.8-18.6c5.8-2.3,12.8-1.1,18.6-3.3
						c9.3-3.6,12.3-14.7,21.8-18C-13.1,130.1-2,125.4,6,130.9z"/>
				</g>
				<g class="st48">
					
						<linearGradient id="SVGID_35_" gradientUnits="userSpaceOnUse" x1="186.9189" y1="611.4113" x2="221.1889" y2="641.8112" gradientTransform="matrix(1 1.745329e-04 -1.745329e-04 1 1.9605 -629.1171)">
						<stop  offset="0" style="stop-color:#AD215D"/>
						<stop  offset="0.58" style="stop-color:#302857"/>
						<stop  offset="1" style="stop-color:#2D2550;stop-opacity:0"/>
					</linearGradient>
					<path class="st49" d="M190,2.5c-1.9-2.2-1.5-4.1-1.2-6.7c0.1-1.1,0.5-2.2,1-3.2c3.5-7.1,11.5-10.8,19.2-8.8
						c2.1,0.6,4,1.5,5.8,2.7c2.8,1.9,5.1,4.5,5.5,7.5c0.4,3.2-1.8,6.1-4.9,6.5c-2.5,0.3-5.2-0.9-7.7-0.6c-4,0.5-6.3,4.6-10.4,4.9
						C197.4,4.7,192.6,5.4,190,2.5z"/>
				</g>
				
					<linearGradient id="SVGID_36_" gradientUnits="userSpaceOnUse" x1="-259.9285" y1="1474.8682" x2="-226.3182" y2="1474.8682" gradientTransform="matrix(0.99 0.15 -0.15 0.99 503.19 -1300.2509)">
					<stop  offset="0" style="stop-color:#302857"/>
					<stop  offset="1" style="stop-color:#2D2550;stop-opacity:0"/>
				</linearGradient>
				<path class="st50" d="M57.2,111.2L25,137.4c-1.5,1.1-3.6,0.9-4.7-0.6l0,0l0,0c-1.1-1.5-0.8-3.6,0.6-4.7l33.7-24.2L57.2,111.2z"
					/>
				<polygon class="st37" points="23.4,131.4 24.5,133.3 26.4,134.4 24.5,135.5 23.4,137.4 22.4,135.5 20.5,134.4 22.4,133.3 				
					"/>
				
					<linearGradient id="SVGID_37_" gradientUnits="userSpaceOnUse" x1="21.1626" y1="754.9615" x2="44.3101" y2="754.9615" gradientTransform="matrix(1 1.745329e-04 -1.745329e-04 1 1.9605 -629.1171)">
					<stop  offset="0" style="stop-color:#B6BBCC"/>
					<stop  offset="0.12" style="stop-color:#999CB2;stop-opacity:0.79"/>
					<stop  offset="0.28" style="stop-color:#797895;stop-opacity:0.55"/>
					<stop  offset="0.44" style="stop-color:#5D5A7C;stop-opacity:0.35"/>
					<stop  offset="0.59" style="stop-color:#484369;stop-opacity:0.2"/>
					<stop  offset="0.74" style="stop-color:#39325B;stop-opacity:9.000000e-02"/>
					<stop  offset="0.88" style="stop-color:#302853;stop-opacity:2.000000e-02"/>
					<stop  offset="1" style="stop-color:#2D2550;stop-opacity:0"/>
				</linearGradient>
				<path class="st51" d="M45.1,116.7c-0.5,0-22.2,15.3-22.2,15.3l0.5,3h2.5l20.2-17.2L45.1,116.7z"/>
				
					<linearGradient id="SVGID_38_" gradientUnits="userSpaceOnUse" x1="-34.7185" y1="1443.9418" x2="-8.6209" y2="1443.9418" gradientTransform="matrix(0.99 0.15 -0.15 0.99 503.19 -1300.2509)">
					<stop  offset="0" style="stop-color:#302857"/>
					<stop  offset="1" style="stop-color:#2D2550;stop-opacity:0"/>
				</linearGradient>
				<path class="st52" d="M276.7,116.5l-25,20.3c-1.1,0.9-2.8,0.7-3.6-0.5l0,0l0,0c-0.9-1.1-0.7-2.8,0.5-3.7l0,0l26.2-18.8
					L276.7,116.5z"/>
				<polygon class="st37" points="250.4,132.3 251.3,133.8 252.8,134.6 251.3,135.4 250.4,136.9 249.6,135.4 248.1,134.6 
					249.6,133.8 				"/>
				
					<linearGradient id="SVGID_39_" gradientUnits="userSpaceOnUse" x1="248.2725" y1="756.9722" x2="266.2404" y2="756.9722" gradientTransform="matrix(1 1.745329e-04 -1.745329e-04 1 1.9605 -629.1171)">
					<stop  offset="0" style="stop-color:#B6BBCC"/>
					<stop  offset="0.12" style="stop-color:#999CB2;stop-opacity:0.79"/>
					<stop  offset="0.28" style="stop-color:#797895;stop-opacity:0.55"/>
					<stop  offset="0.44" style="stop-color:#5D5A7C;stop-opacity:0.35"/>
					<stop  offset="0.59" style="stop-color:#484369;stop-opacity:0.2"/>
					<stop  offset="0.74" style="stop-color:#39325B;stop-opacity:9.000000e-02"/>
					<stop  offset="0.88" style="stop-color:#302853;stop-opacity:2.000000e-02"/>
					<stop  offset="1" style="stop-color:#2D2550;stop-opacity:0"/>
				</linearGradient>
				<path class="st53" d="M267.3,120.8c-0.4,0-17.2,11.9-17.2,11.9l0.4,2.3h1.9l15.7-13.4L267.3,120.8z"/>
				
					<linearGradient id="SVGID_40_" gradientUnits="userSpaceOnUse" x1="-219.6485" y1="1354.1063" x2="-193.5354" y2="1354.1063" gradientTransform="matrix(0.99 0.15 -0.15 0.99 503.19 -1300.2509)">
					<stop  offset="0" style="stop-color:#302857"/>
					<stop  offset="1" style="stop-color:#2D2550;stop-opacity:0"/>
				</linearGradient>
				<path class="st54" d="M107.6-0.2l-25,20.4c-1.1,0.9-2.8,0.7-3.6-0.5l0,0l0,0c-0.9-1.1-0.7-2.8,0.5-3.6l0,0l26.2-18.9L107.6-0.2z
					"/>
				<polygon class="st37" points="81.4,15.5 82.2,17 83.7,17.8 82.2,18.6 81.4,20.1 80.5,18.6 79,17.8 80.5,17 				"/>
				
					<linearGradient id="SVGID_41_" gradientUnits="userSpaceOnUse" x1="79.1521" y1="640.2518" x2="97.1202" y2="640.2518" gradientTransform="matrix(1 1.745329e-04 -1.745329e-04 1 1.9605 -629.1171)">
					<stop  offset="0" style="stop-color:#B6BBCC"/>
					<stop  offset="0.12" style="stop-color:#999CB2;stop-opacity:0.79"/>
					<stop  offset="0.28" style="stop-color:#797895;stop-opacity:0.55"/>
					<stop  offset="0.44" style="stop-color:#5D5A7C;stop-opacity:0.35"/>
					<stop  offset="0.59" style="stop-color:#484369;stop-opacity:0.2"/>
					<stop  offset="0.74" style="stop-color:#39325B;stop-opacity:9.000000e-02"/>
					<stop  offset="0.88" style="stop-color:#302853;stop-opacity:2.000000e-02"/>
					<stop  offset="1" style="stop-color:#2D2550;stop-opacity:0"/>
				</linearGradient>
				<path class="st55" d="M98.2,4.1C97.8,4.1,81,15.9,81,15.9l0.4,2.3h1.9L99,4.8L98.2,4.1z"/>
				
					<linearGradient id="SVGID_42_" gradientUnits="userSpaceOnUse" x1="-337.4585" y1="1272.3051" x2="-311.3609" y2="1272.3051" gradientTransform="matrix(0.99 0.15 -0.15 0.99 503.19 -1300.2509)">
					<stop  offset="0" style="stop-color:#302857"/>
					<stop  offset="1" style="stop-color:#2D2550;stop-opacity:0"/>
				</linearGradient>
				<path class="st56" d="M3.6-98.7l-25,20.3c-1.1,0.9-2.8,0.7-3.6-0.5l0,0l0,0c-0.9-1.1-0.7-2.8,0.5-3.7l0,0l26.2-18.8L3.6-98.7z"
					/>
				<polygon class="st37" points="-22.6,-83 -21.8,-81.5 -20.3,-80.7 -21.8,-79.8 -22.6,-78.3 -23.4,-79.8 -24.9,-80.7 -23.4,-81.5 
									"/>
				
					<linearGradient id="SVGID_43_" gradientUnits="userSpaceOnUse" x1="-24.8406" y1="541.77" x2="-6.8725" y2="541.77" gradientTransform="matrix(1 1.745329e-04 -1.745329e-04 1 1.9605 -629.1171)">
					<stop  offset="0" style="stop-color:#B6BBCC"/>
					<stop  offset="0.12" style="stop-color:#999CB2;stop-opacity:0.79"/>
					<stop  offset="0.28" style="stop-color:#797895;stop-opacity:0.55"/>
					<stop  offset="0.44" style="stop-color:#5D5A7C;stop-opacity:0.35"/>
					<stop  offset="0.59" style="stop-color:#484369;stop-opacity:0.2"/>
					<stop  offset="0.74" style="stop-color:#39325B;stop-opacity:9.000000e-02"/>
					<stop  offset="0.88" style="stop-color:#302853;stop-opacity:2.000000e-02"/>
					<stop  offset="1" style="stop-color:#2D2550;stop-opacity:0"/>
				</linearGradient>
				<path class="st57" d="M-5.8-94.4C-6.2-94.4-23-82.6-23-82.6l0.4,2.3h1.9L-5-93.7L-5.8-94.4z"/>
				
					<linearGradient id="SVGID_44_" gradientUnits="userSpaceOnUse" x1="-86.2485" y1="1224.6688" x2="-60.1509" y2="1224.6688" gradientTransform="matrix(0.99 0.15 -0.15 0.99 503.19 -1300.2509)">
					<stop  offset="0" style="stop-color:#302857"/>
					<stop  offset="1" style="stop-color:#2D2550;stop-opacity:0"/>
				</linearGradient>
				<path class="st58" d="M259.3-108.2l-25,20.3c-1.1,0.9-2.8,0.7-3.6-0.5l0,0l0,0c-0.9-1.1-0.7-2.8,0.5-3.7l0,0l26.2-18.8
					L259.3-108.2z"/>
				<polygon class="st37" points="233,-92.4 233.9,-90.9 235.3,-90.1 233.9,-89.3 233,-87.8 232.2,-89.3 230.7,-90.1 232.2,-90.9 
									"/>
				
					<linearGradient id="SVGID_45_" gradientUnits="userSpaceOnUse" x1="230.8077" y1="532.3253" x2="248.7758" y2="532.3253" gradientTransform="matrix(1 1.745329e-04 -1.745329e-04 1 1.9605 -629.1171)">
					<stop  offset="0" style="stop-color:#B6BBCC"/>
					<stop  offset="0.12" style="stop-color:#999CB2;stop-opacity:0.79"/>
					<stop  offset="0.28" style="stop-color:#797895;stop-opacity:0.55"/>
					<stop  offset="0.44" style="stop-color:#5D5A7C;stop-opacity:0.35"/>
					<stop  offset="0.59" style="stop-color:#484369;stop-opacity:0.2"/>
					<stop  offset="0.74" style="stop-color:#39325B;stop-opacity:9.000000e-02"/>
					<stop  offset="0.88" style="stop-color:#302853;stop-opacity:2.000000e-02"/>
					<stop  offset="1" style="stop-color:#2D2550;stop-opacity:0"/>
				</linearGradient>
				<path class="st59" d="M249.9-103.8c-0.4,0-17.2,11.8-17.2,11.8l0.4,2.3h1.9l15.7-13.4L249.9-103.8z"/>
				
					<linearGradient id="SVGID_46_" gradientUnits="userSpaceOnUse" x1="-322.2785" y1="1594.2395" x2="-296.1829" y2="1594.2395" gradientTransform="matrix(0.99 0.15 -0.15 0.99 503.19 -1300.2509)">
					<stop  offset="0" style="stop-color:#302857"/>
					<stop  offset="1" style="stop-color:#2D2550;stop-opacity:0"/>
				</linearGradient>
				<path class="st60" d="M-30.6,222.1l-25,20.3c-1.1,0.9-2.8,0.7-3.6-0.5l0,0l0,0c-0.9-1.1-0.7-2.8,0.5-3.6l0,0l26.2-18.8
					L-30.6,222.1z"/>
				<polygon class="st37" points="-56.8,237.8 -56,239.3 -54.5,240.1 -56,240.9 -56.8,242.4 -57.7,240.9 -59.2,240.1 -57.7,239.3 
									"/>
				
					<linearGradient id="SVGID_47_" gradientUnits="userSpaceOnUse" x1="-58.9774" y1="862.5759" x2="-40.9994" y2="862.5759" gradientTransform="matrix(1 1.745329e-04 -1.745329e-04 1 1.9605 -629.1171)">
					<stop  offset="0" style="stop-color:#B6BBCC"/>
					<stop  offset="0.12" style="stop-color:#999CB2;stop-opacity:0.79"/>
					<stop  offset="0.28" style="stop-color:#797895;stop-opacity:0.55"/>
					<stop  offset="0.44" style="stop-color:#5D5A7C;stop-opacity:0.35"/>
					<stop  offset="0.59" style="stop-color:#484369;stop-opacity:0.2"/>
					<stop  offset="0.74" style="stop-color:#39325B;stop-opacity:9.000000e-02"/>
					<stop  offset="0.88" style="stop-color:#302853;stop-opacity:2.000000e-02"/>
					<stop  offset="1" style="stop-color:#2D2550;stop-opacity:0"/>
				</linearGradient>
				<path class="st61" d="M-40,226.4c-0.4,0-17.2,11.8-17.2,11.8l0.4,2.3h1.9l15.7-13.3L-40,226.4z"/>
				
					<linearGradient id="SVGID_48_" gradientUnits="userSpaceOnUse" x1="-163.8585" y1="1256.2299" x2="-109.6485" y2="1256.2299" gradientTransform="matrix(0.99 0.15 -0.15 0.99 503.19 -1300.2509)">
					<stop  offset="0" style="stop-color:#302857"/>
					<stop  offset="1" style="stop-color:#2D2550;stop-opacity:0"/>
				</linearGradient>
				<path class="st62" d="M207.4-96.3l-52,42.2c-2.4,1.8-5.8,1.4-7.6-1l0,0c-1.8-2.4-1.4-5.8,1-7.6l0,0l54.4-39.1L207.4-96.3z"/>
				<polygon class="st37" points="152.8,-63.6 154.5,-60.5 157.6,-58.8 154.5,-57.1 152.8,-54 151.1,-57.1 148,-58.8 151.1,-60.5 
									"/>
				
					<linearGradient id="SVGID_49_" gradientUnits="userSpaceOnUse" x1="150.2384" y1="556.4877" x2="187.5843" y2="556.4877" gradientTransform="matrix(1 1.745329e-04 -1.745329e-04 1 1.9605 -629.1171)">
					<stop  offset="0" style="stop-color:#B6BBCC"/>
					<stop  offset="0.12" style="stop-color:#999CB2;stop-opacity:0.79"/>
					<stop  offset="0.28" style="stop-color:#797895;stop-opacity:0.55"/>
					<stop  offset="0.44" style="stop-color:#5D5A7C;stop-opacity:0.35"/>
					<stop  offset="0.59" style="stop-color:#484369;stop-opacity:0.2"/>
					<stop  offset="0.74" style="stop-color:#39325B;stop-opacity:9.000000e-02"/>
					<stop  offset="0.88" style="stop-color:#302853;stop-opacity:2.000000e-02"/>
					<stop  offset="1" style="stop-color:#2D2550;stop-opacity:0"/>
				</linearGradient>
				<path class="st63" d="M187.8-87.3c-0.8,0-35.7,24.6-35.7,24.6l0.8,4.8h4l32.6-27.8L187.8-87.3z"/>
				
					<linearGradient id="SVGID_50_" gradientUnits="userSpaceOnUse" x1="-85.2385" y1="1498.3461" x2="-11.8685" y2="1498.3461" gradientTransform="matrix(0.99 0.15 -0.15 0.99 503.19 -1300.2509)">
					<stop  offset="0" style="stop-color:#302857"/>
					<stop  offset="1" style="stop-color:#2D2550;stop-opacity:0"/>
				</linearGradient>
				<path class="st64" d="M268.3,149.8L197.9,207c-3.2,2.4-7.8,1.8-10.3-1.4l0,0c-2.5-3.2-1.8-7.8,1.4-10.3l73.6-52.9L268.3,149.8z"
					/>
				<polygon class="st37" points="194.5,194 196.8,198.2 201,200.5 196.8,202.8 194.5,207 192.2,202.8 188,200.5 192.2,198.2 				
					"/>
				
					<linearGradient id="SVGID_51_" gradientUnits="userSpaceOnUse" x1="191.6379" y1="810.8793" x2="242.1525" y2="810.8793" gradientTransform="matrix(1 1.745329e-04 -1.745329e-04 1 1.9605 -629.1171)">
					<stop  offset="0" style="stop-color:#B6BBCC"/>
					<stop  offset="0.12" style="stop-color:#999CB2;stop-opacity:0.79"/>
					<stop  offset="0.28" style="stop-color:#797895;stop-opacity:0.55"/>
					<stop  offset="0.44" style="stop-color:#5D5A7C;stop-opacity:0.35"/>
					<stop  offset="0.59" style="stop-color:#484369;stop-opacity:0.2"/>
					<stop  offset="0.74" style="stop-color:#39325B;stop-opacity:9.000000e-02"/>
					<stop  offset="0.88" style="stop-color:#302853;stop-opacity:2.000000e-02"/>
					<stop  offset="1" style="stop-color:#2D2550;stop-opacity:0"/>
				</linearGradient>
				<path class="st65" d="M241.8,161.9c-1.1,0-48.4,33.3-48.4,33.3l1.1,6.5h5.4l44.1-37.6L241.8,161.9z"/>
				<g class="st66">
				</g>
				<g class="st66">
				</g>
				<g class="st66">
				</g>
				<g class="st66">
				</g>
				
					<linearGradient id="SVGID_52_" gradientUnits="userSpaceOnUse" x1="222.5442" y1="811.2068" x2="307.4442" y2="891.9168" gradientTransform="matrix(1 1.745329e-04 -1.745329e-04 1 1.9605 -629.1171)">
					<stop  offset="0" style="stop-color:#D5E8EE"/>
					<stop  offset="0.27" style="stop-color:#A2ADBE;stop-opacity:0.7"/>
					<stop  offset="0.63" style="stop-color:#646584;stop-opacity:0.33"/>
					<stop  offset="0.88" style="stop-color:#3C375E;stop-opacity:9.000000e-02"/>
					<stop  offset="1" style="stop-color:#2D2550;stop-opacity:0"/>
				</linearGradient>
				<path class="st67" d="M298.7,245.2c-11.5,16.5-34.2,20.6-50.7,9.1c-16.5-11.5-20.6-34.2-9.1-50.7s34.2-20.6,50.7-9.1l0,0
					C306.1,205.9,310.2,228.6,298.7,245.2z"/>
				
					<linearGradient id="SVGID_53_" gradientUnits="userSpaceOnUse" x1="-9.6648" y1="784.3577" x2="26.4052" y2="827.0378" gradientTransform="matrix(1 1.745329e-04 -1.745329e-04 1 1.9605 -629.1171)">
					<stop  offset="0" style="stop-color:#CC5545"/>
					<stop  offset="0.12" style="stop-color:#CB4C4A"/>
					<stop  offset="0.32" style="stop-color:#C73457"/>
					<stop  offset="0.42" style="stop-color:#C5255F"/>
					<stop  offset="0.51" style="stop-color:#A4265E;stop-opacity:0.86"/>
					<stop  offset="0.71" style="stop-color:#58275C;stop-opacity:0.53"/>
					<stop  offset="0.8" style="stop-color:#3A285B;stop-opacity:0.4"/>
					<stop  offset="1" style="stop-color:#2D2550;stop-opacity:0"/>
				</linearGradient>
				<path class="st68" d="M-10.1,174.7c0-10.3,8.4-18.7,18.7-18.7s18.7,8.4,18.7,18.7s-8.4,18.7-18.7,18.7S-10.1,185-10.1,174.7
					L-10.1,174.7z"/>
				
					<linearGradient id="SVGID_54_" gradientUnits="userSpaceOnUse" x1="13.413" y1="791.2967" x2="21.383" y2="800.7267" gradientTransform="matrix(1 1.745329e-04 -1.745329e-04 1 1.9605 -629.1171)">
					<stop  offset="0" style="stop-color:#302857"/>
					<stop  offset="1" style="stop-color:#2D2550;stop-opacity:0"/>
				</linearGradient>
				<path class="st69" d="M23,166.5c0,2.3-1.8,4.1-4.1,4.1s-4.1-1.8-4.1-4.1s1.8-4.1,4.1-4.1l0,0C21.1,162.4,23,164.2,23,166.5z"/>
				
					<linearGradient id="SVGID_55_" gradientUnits="userSpaceOnUse" x1="226.5768" y1="678.5626" x2="256.4067" y2="713.8826" gradientTransform="matrix(1 1.745329e-04 -1.745329e-04 1 1.9605 -629.1171)">
					<stop  offset="0" style="stop-color:#302857"/>
					<stop  offset="1" style="stop-color:#2D2550;stop-opacity:0"/>
				</linearGradient>
				<path class="st70" d="M257.5,65.6c0,8.5-6.9,15.5-15.4,15.5s-15.5-6.9-15.5-15.4s6.9-15.5,15.4-15.5l0,0
					C250.6,50.2,257.5,57.1,257.5,65.6z"/>
				
					<linearGradient id="SVGID_56_" gradientUnits="userSpaceOnUse" x1="9.4755" y1="787.2629" x2="13.4654" y2="791.973" gradientTransform="matrix(1 1.745329e-04 -1.745329e-04 1 1.9605 -629.1171)">
					<stop  offset="0" style="stop-color:#302857"/>
					<stop  offset="1" style="stop-color:#2D2550;stop-opacity:0"/>
				</linearGradient>
				<path class="st71" d="M15.2,160.3c0,1.1-0.9,2.1-2.1,2s-2.1-0.9-2-2.1c0-1.1,0.9-2,2.1-2C14.2,158.3,15.2,159.2,15.2,160.3
					L15.2,160.3z"/>
				
					<linearGradient id="SVGID_57_" gradientUnits="userSpaceOnUse" x1="215.3724" y1="671" x2="229.2125" y2="687.39" gradientTransform="matrix(1 2.092612e-03 -2.092612e-03 1 2.0847 -629.5234)">
					<stop  offset="0" style="stop-color:#302857"/>
					<stop  offset="1" style="stop-color:#2D2550;stop-opacity:0"/>
				</linearGradient>
				<circle class="st72" cx="222" cy="49" r="7.2"/>
				<polygon class="st73" points="-9.9,94 -6.8,100.2 0.1,101.2 -4.9,106.1 -3.7,113 -9.9,109.7 -16,113 -14.9,106.1 -19.8,101.2 
					-12.9,100.2 				"/>
				<polygon class="st73" points="107.7,-67.2 110.8,-60.9 117.7,-59.9 112.7,-55 113.8,-48.2 107.7,-51.4 101.5,-48.2 102.7,-55.1 
					97.7,-59.9 104.6,-60.9 				"/>
				<polygon class="st73" points="206.3,-99.7 208.4,-95.3 213.2,-94.6 209.8,-91.3 210.6,-86.5 206.3,-88.7 202,-86.5 202.8,-91.3 
					199.3,-94.6 204.1,-95.3 				"/>
				<polygon class="st73" points="-25.6,-2.1 -23.4,2.3 -18.6,3 -22.1,6.3 -21.3,11.1 -25.6,8.9 -29.9,11.1 -29,6.3 -32.5,3 
					-27.7,2.3 				"/>
				<polygon class="st73" points="279.3,148 281.4,152.4 286.2,153.1 282.7,156.5 283.6,161.3 279.3,159 275,161.3 275.8,156.5 
					272.3,153.1 277.1,152.4 				"/>
				<polygon class="st73" points="-30.4,249.6 -28.3,253.9 -23.5,254.6 -26.9,258 -26.1,262.8 -30.4,260.5 -34.7,262.8 -33.9,258 
					-37.3,254.6 -32.5,253.9 				"/>
				<polygon class="st74" points="287.5,-57.6 290.6,-51.3 297.5,-50.3 292.5,-45.5 293.7,-38.6 287.5,-41.9 281.3,-38.6 
					282.5,-45.5 277.5,-50.3 284.4,-51.3 				"/>
				<polygon class="st74" points="141,-96.8 144.1,-90.6 151,-89.6 146,-84.7 147.1,-77.9 141,-81.1 134.8,-77.9 136,-84.7 
					131,-89.6 137.9,-90.6 				"/>
				<polygon class="st74" points="-62.3,-73.2 -59.2,-66.9 -52.3,-65.9 -57.3,-61.1 -56.1,-54.2 -62.3,-57.4 -68.4,-54.2 
					-67.3,-61.1 -72.2,-65.9 -65.3,-66.9 				"/>
				<polygon class="st74" points="90,-41.7 93.1,-35.5 100,-34.5 95,-29.6 96.2,-22.8 90,-26 83.8,-22.8 85,-29.6 80,-34.5 
					86.9,-35.5 				"/>
				<polygon class="st74" points="-45.2,116.1 -42.1,122.3 -35.2,123.3 -40.2,128.2 -39,135.1 -45.2,131.8 -51.3,135.1 -50.2,128.2 
					-55.1,123.3 -48.2,122.3 				"/>
				
					<linearGradient id="SVGID_58_" gradientUnits="userSpaceOnUse" x1="13.4461" y1="570.4124" x2="25.4461" y2="584.6124" gradientTransform="matrix(1 1.745329e-04 -1.745329e-04 1 1.9605 -629.1171)">
					<stop  offset="0" style="stop-color:#302857"/>
					<stop  offset="1" style="stop-color:#2D2550;stop-opacity:0"/>
				</linearGradient>
				<path class="st75" d="M27-52.2c0,3.4-2.8,6.2-6.2,6.2s-6.2-2.8-6.2-6.2s2.8-6.2,6.2-6.2l0,0C24.2-58.4,27-55.6,27-52.2z"/>
				
					<linearGradient id="SVGID_59_" gradientUnits="userSpaceOnUse" x1="8.2749" y1="564.982" x2="13.8449" y2="571.572" gradientTransform="matrix(1 1.745329e-04 -1.745329e-04 1 1.9605 -629.1171)">
					<stop  offset="0" style="stop-color:#302857"/>
					<stop  offset="1" style="stop-color:#2D2550;stop-opacity:0"/>
				</linearGradient>
				<path class="st76" d="M15.6-61.1c0,1.6-1.3,2.9-2.9,2.9s-2.9-1.3-2.9-2.9c0-1.6,1.3-2.9,2.9-2.9l0,0
					C14.3-64,15.6-62.7,15.6-61.1z"/>
				
					<linearGradient id="SVGID_60_" gradientUnits="userSpaceOnUse" x1="34.1138" y1="577.719" x2="40.1938" y2="584.909" gradientTransform="matrix(1 1.745329e-04 -1.745329e-04 1 1.9605 -629.1171)">
					<stop  offset="0" style="stop-color:#302857"/>
					<stop  offset="1" style="stop-color:#2D2550;stop-opacity:0"/>
				</linearGradient>
				<path class="st77" d="M41.9-48.1c0,1.7-1.4,3.1-3.2,3.1c-1.7,0-3.1-1.4-3.1-3.2c0-1.7,1.4-3.1,3.1-3.1l0,0
					C40.5-51.2,41.9-49.8,41.9-48.1z"/>
				
					<linearGradient id="SVGID_61_" gradientUnits="userSpaceOnUse" x1="31.4504" y1="575.0042" x2="34.2704" y2="578.3441" gradientTransform="matrix(1 1.745329e-04 -1.745329e-04 1 1.9605 -629.1171)">
					<stop  offset="0" style="stop-color:#302857"/>
					<stop  offset="1" style="stop-color:#2D2550;stop-opacity:0"/>
				</linearGradient>
				<path class="st78" d="M36.1-52.6c0,0.8-0.7,1.5-1.5,1.5s-1.5-0.7-1.5-1.5s0.6-1.4,1.4-1.5C35.4-54,36.1-53.4,36.1-52.6
					L36.1-52.6z"/>
				
					<linearGradient id="SVGID_62_" gradientUnits="userSpaceOnUse" x1="264.2099" y1="588.4391" x2="276.0299" y2="602.4292" gradientTransform="matrix(1 1.745329e-04 -1.745329e-04 1 1.9605 -629.1171)">
					<stop  offset="0" style="stop-color:#302857"/>
					<stop  offset="1" style="stop-color:#2D2550;stop-opacity:0"/>
				</linearGradient>
				<path class="st79" d="M277.6-34.2c0,3.4-2.7,6.1-6.1,6.1s-6.1-2.7-6.1-6.1s2.7-6.1,6.1-6.1l0,0
					C274.9-40.3,277.6-37.6,277.6-34.2z"/>
				
					<linearGradient id="SVGID_63_" gradientUnits="userSpaceOnUse" x1="259.1207" y1="583.1054" x2="264.6008" y2="589.5954" gradientTransform="matrix(1 1.745329e-04 -1.745329e-04 1 1.9605 -629.1171)">
					<stop  offset="0" style="stop-color:#302857"/>
					<stop  offset="1" style="stop-color:#2D2550;stop-opacity:0"/>
				</linearGradient>
				<path class="st80" d="M266.3-43c0,1.6-1.3,2.8-2.8,2.8c-1.6,0-2.8-1.3-2.8-2.8c0-1.6,1.3-2.8,2.8-2.8S266.3-44.5,266.3-43
					L266.3-43z"/>
				
					<linearGradient id="SVGID_64_" gradientUnits="userSpaceOnUse" x1="278.5251" y1="832.2771" x2="298.5251" y2="855.9471" gradientTransform="matrix(1 1.745712e-04 -1.745712e-04 1 1.9101 -629.1113)">
					<stop  offset="0" style="stop-color:#302857"/>
					<stop  offset="1" style="stop-color:#2D2550;stop-opacity:0"/>
				</linearGradient>
				<circle class="st81" cx="289.4" cy="214" r="10.3"/>
				
					<linearGradient id="SVGID_65_" gradientUnits="userSpaceOnUse" x1="269.9284" y1="823.2328" x2="279.2083" y2="834.2128" gradientTransform="matrix(1 1.745329e-04 -1.745329e-04 1 1.9605 -629.1171)">
					<stop  offset="0" style="stop-color:#302857"/>
					<stop  offset="1" style="stop-color:#2D2550;stop-opacity:0"/>
				</linearGradient>
				<path class="st82" d="M280.8,199.2c0,2.7-2.2,4.8-4.8,4.8c-2.7,0-4.8-2.2-4.8-4.8s2.2-4.8,4.8-4.8S280.8,196.5,280.8,199.2
					L280.8,199.2z"/>
			</g>
		</g>
	</g>
	<path class="st83" d="M177.2,241.7l-4.5-1.7l-2,1.4l2.2,3.2l-1.6,1.1l-6.3-9.2l4.1-2.8c0.5-0.3,1-0.6,1.6-0.8
		c0.5-0.1,1-0.2,1.5-0.2s0.9,0.2,1.3,0.5c0.4,0.3,0.8,0.6,1.1,1c0.2,0.3,0.4,0.7,0.5,1.1c0.1,0.4,0.1,0.7,0.1,1.1
		c0,0.4-0.1,0.7-0.3,1.1c-0.2,0.4-0.4,0.7-0.6,1l4.9,1.8L177.2,241.7z M171.6,234.7c-0.6,0-1.2,0.2-1.7,0.6l-2.3,1.6l2.1,3.1
		l2.4-1.6c0.5-0.3,0.9-0.8,1.1-1.4c0.1-0.5,0.1-1.1-0.3-1.5C172.7,235,172.2,234.7,171.6,234.7L171.6,234.7z"/>
	<path class="st0" d="M184.2,236.2c-1.8,1.6-4,1.8-5.3,0.4c-0.8-1-0.9-2.5-0.1-3.6c-1.1,0.5-2.3,0.2-3.2-0.7
		c-1.2-1.3-0.6-3.4,0.9-4.8s3.7-1.6,4.8-0.3c0.7,0.9,0.9,2.2,0.3,3.2c1.2-0.6,2.6-0.4,3.5,0.5C186.5,232.5,186,234.6,184.2,236.2z
		 M177.3,228.4c-1.1,1-1.4,2.3-0.6,3.2s2.2,0.8,3.3-0.1c1-0.7,1.3-2.1,0.6-3.2c0,0,0,0,0-0.1C179.8,227.3,178.4,227.5,177.3,228.4z
		 M180.6,232.2c-1.2,1.1-1.6,2.6-0.8,3.5s2.2,0.9,3.6-0.4s1.6-2.6,0.8-3.5S181.9,231.2,180.6,232.2z"/>
	<path class="st0" d="M191.9,228.6c-1.6,1.8-3.8,2.2-5.2,1c-0.9-0.9-1.1-2.4-0.5-3.6c-1,0.6-2.3,0.4-3.2-0.3c-1.3-1.2-1-3.3,0.4-4.8
		s3.5-2,4.8-0.8c0.8,0.8,1.1,2.1,0.6,3.2c1.1-0.7,2.5-0.7,3.6,0.1C193.8,224.6,193.5,226.8,191.9,228.6z M184.2,221.6
		c-1,1.1-1.1,2.5-0.3,3.2s2.3,0.5,3.2-0.5s1.1-2.5,0.2-3.3S185.2,220.5,184.2,221.6L184.2,221.6z M187.9,225
		c-1.1,1.2-1.3,2.8-0.4,3.6s2.3,0.6,3.5-0.8s1.3-2.8,0.4-3.6S189,223.8,187.9,225L187.9,225z"/>
	<path class="st84" d="M201.1,215c0,0.4-0.1,0.8-0.2,1.2c-0.2,0.9-0.6,1.7-1.1,2.5c-0.5,0.7-1,1.3-1.7,1.7c-0.6,0.4-1.3,0.7-2,0.8
		s-1.5,0.1-2.2-0.1c-1.5-0.4-2.8-1.3-3.7-2.6c-0.4-0.6-0.7-1.3-0.8-2s-0.1-1.5,0-2.2c0.2-0.8,0.5-1.5,1-2.2c0.3-0.4,0.5-0.7,0.8-1
		s0.6-0.5,0.9-0.7c0.3-0.2,0.6-0.4,0.9-0.5c0.3-0.1,0.7-0.3,1-0.4l0.5,1.9c-0.3,0.1-0.5,0.2-0.8,0.2c-0.2,0.1-0.5,0.2-0.7,0.4
		s-0.5,0.3-0.7,0.5s-0.4,0.5-0.6,0.7c-0.3,0.4-0.5,0.9-0.6,1.4s-0.1,1,0,1.4c0.1,0.5,0.3,0.9,0.6,1.4c0.3,0.4,0.7,0.8,1.1,1.1
		c0.4,0.3,0.9,0.6,1.5,0.7c0.5,0.1,1,0.2,1.5,0.1c0.5-0.1,1-0.2,1.4-0.5c0.5-0.3,0.8-0.7,1.1-1.1c0.3-0.4,0.5-0.9,0.7-1.4
		c0.1-0.4,0.2-0.9,0.2-1.3l-1.7-1.2l-1.6,2.4l-1.4-1l2.7-3.9l3.8,2.7C201,214.3,201.1,214.7,201.1,215z"/>
	<path class="st0" d="M195.1,207.2l-1-0.5l3.3-6.3l0.8,0.4l1.8,4.9c1-1.7,2.7-2.8,4.5-1.8c1.7,0.9,2.3,3.1,1.3,4.7
		c0,0.1-0.1,0.1-0.1,0.2c-0.7,1.5-2.1,2.5-3.7,2.8l-0.3-1.2c1.3-0.2,2.4-1,3-2.1c0.7-1.1,0.4-2.4-0.7-3.1c0,0-0.1,0-0.1-0.1
		c-1.2-0.6-2.5,0.1-3.4,1.8l-0.3,0.6l-0.8-0.1l-1.9-5L195.1,207.2z"/>
	<path class="st0" d="M200.7,192l7,2.7l0.6-1.6l1,0.4l-0.6,1.6l2.5,1l-0.4,1.1l-2.5-1l-2.1,5.5h-1l-4.9-8.7L200.7,192z M202,193.8
		l3.7,6.5l1.7-4.4L202,193.8z"/>
	<path class="st85" d="M204.6,181.4c0.6-0.5,1.5-0.7,2.3-0.5c0.6,0.1,1.1,0.4,1.5,0.9c0.2,0.2,0.3,0.4,0.4,0.6
		c0.1,0.2,0.2,0.4,0.2,0.7c0.2-0.3,0.4-0.5,0.6-0.8c0.2-0.2,0.4-0.4,0.7-0.5s0.6-0.2,0.8-0.2c0.3,0,0.7,0,1,0.1
		c0.5,0.1,0.9,0.3,1.2,0.6s0.6,0.6,0.7,1c0.2,0.4,0.3,0.9,0.3,1.4c0,0.6-0.1,1.1-0.2,1.7l-1.2,5l-10.9-2.7l1.2-4.9
		C203.4,182.9,203.9,182,204.6,181.4z M207.7,183.8c-0.2-0.4-0.5-0.8-1-0.8c-0.4-0.1-0.8,0-1.2,0.2c-0.4,0.4-0.6,0.8-0.7,1.3
		l-0.7,2.7l2.9,0.7l0.7-2.6C207.8,184.8,207.8,184.3,207.7,183.8L207.7,183.8z M212.4,184.3c-0.2-0.4-0.5-0.8-1-0.8
		c-0.4-0.1-0.9,0-1.2,0.3c-0.4,0.4-0.7,1-0.8,1.6l-0.8,3l3,0.7l0.8-3.1C212.6,185.4,212.6,184.8,212.4,184.3L212.4,184.3z"/>
	<path class="st0" d="M204.6,176.2l0.1-0.9l11.2,1.7l-0.2,1.2l-9.8-1.5l0.3,2.2l-1.1,0.1L204.6,176.2z"/>
	<path class="st0" d="M216.8,168.9c-0.2,2.9-2.9,4.6-6,4.4s-5.7-2.1-5.5-5s2.9-4.6,6-4.4S216.9,166,216.8,168.9z M206.4,168.4
		c-0.1,2.1,2,3.5,4.4,3.6s4.7-1.1,4.8-3.2s-2-3.5-4.4-3.6S206.5,166.3,206.4,168.4L206.4,168.4z"/>
	<path class="st0" d="M207.2,154.8c-0.6,0.8-1,1.7-0.9,2.7c0.1,2,2.3,3.1,5.2,2.9c-1.1-0.6-1.9-1.8-1.9-3.1c-0.3-1.9,1-3.8,3-4.1
		c0.1,0,0.1,0,0.2,0c2.1-0.1,3.9,1.5,4,3.5c0,0.1,0,0.1,0,0.2c0.1,1.1-0.2,2.2-0.9,3c-0.8,1-1.9,1.5-4.2,1.7
		c-3.4,0.2-6.2-1.3-6.4-4.2c-0.1-1.2,0.3-2.4,1-3.4L207.2,154.8z M210.6,157.5c0,1.4,1.2,2.5,2.6,2.4c1.4,0,2.5-1.2,2.4-2.6
		c0-0.1,0-0.2,0-0.3c0-1.4-1.1-2.5-2.5-2.5c-0.1,0-0.1,0-0.2,0c-1.4,0.1-2.4,1.3-2.3,2.7C210.6,157.3,210.6,157.4,210.6,157.5
		L210.6,157.5z"/>
	<path class="st8" d="M96,198c-0.2,1-1.2,1.8-2.2,1.6s-1.8-1.2-1.6-2.2c0.2-1,1.2-1.8,2.2-1.6l0,0C95.4,196,96.1,197,96,198L96,198"
		/>
	<path class="st8" d="M143.4,141.6c-0.2,1-1.2,1.8-2.2,1.6s-1.8-1.2-1.6-2.2s1.2-1.8,2.2-1.6l0,0
		C142.9,139.6,143.6,140.6,143.4,141.6"/>
	<path class="st8" d="M124,148.4c-0.2,1.4-1.6,2.3-3,2.1s-2.3-1.6-2.1-3c0.2-1.4,1.6-2.3,2.9-2.1C123.2,145.7,124.2,147,124,148.4
		L124,148.4"/>
	<path class="st8" d="M99.1,142.5c-0.1,0.9-1,1.5-1.9,1.4s-1.5-1-1.4-1.9s1-1.5,1.9-1.4C98.6,140.7,99.2,141.5,99.1,142.5
		L99.1,142.5"/>
	<path class="st8" d="M183.9,130c0,0.2-0.3,0.4-0.5,0.4s-0.4-0.3-0.4-0.5s0.3-0.4,0.5-0.4S183.9,129.8,183.9,130L183.9,130"/>
</g>
</svg>
