<?xml version="1.0" encoding="utf-8"?>
<!-- Generator: Adobe Illustrator 23.0.3, SVG Export Plug-In . SVG Version: 6.00 Build 0)  -->
<svg version="1.1" id="Layer_1" xmlns="http://www.w3.org/2000/svg" xmlns:xlink="http://www.w3.org/1999/xlink" x="0px" y="0px"
	 viewBox="0 0 591.2 246.3" style="enable-background:new 0 0 591.2 246.3;" xml:space="preserve">
<style type="text/css">
	.st0{fill:#E9E878;}
	.st1{enable-background:new    ;}
	.st2{fill:#F51F27;}
</style>
<title>Asset 1</title>
<g>
	<g id="Layer_1-2">
		<path class="st0" d="M36.3,21.4v12c3-3.8,6.6-7,10.7-9.5c4.7-2.9,10.1-4.3,15.6-4.1c5.4-0.1,10.7,1.1,15.4,3.7
			c4.4,2.5,7.9,6.2,10.2,10.7c3.6-4.1,7.9-7.5,12.5-10.3c4.6-2.7,10.3-4.1,17-4.1c9.4,0,16.8,2.8,22.1,8.4
			c5.4,5.6,8.1,13.4,8.1,23.3v57.4h-36.3V62.8c0-3.7-0.9-6.6-2.8-8.5c-1.7-1.9-4.2-3-6.7-3c-2.6,0-5.2,1.1-7,3c-2,2-3,4.8-3,8.5
			v46.1H55.8V62.8c0-3.7-0.9-6.6-2.8-8.5c-1.7-1.9-4.2-3-6.7-3c-2.6,0-5.2,1.1-7,3c-2,2-3,4.8-3,8.5v46.1H0V57.8
			C0,37.7,16.3,21.4,36.3,21.4z"/>
		<path class="st0" d="M186.4,110.9c-3.9,0-7.8-0.6-11.5-1.8c-3.4-1.1-6.4-2.8-9.1-5.2c-2.6-2.3-4.6-5.2-5.9-8.4
			c-1.4-3.6-2.2-7.5-2.1-11.5v-0.3c0-8.7,3-15.4,8.9-20.1c5.9-4.7,14-7,24.2-7c1.8,0,3.7,0.1,5.7,0.2s4,0.4,5.8,0.7s3.6,0.7,5.2,1
			c1.3,0.3,2.6,0.7,3.8,1.2v-1.4c0-4-1.3-7.2-3.8-9.3c-2.5-2.2-6.6-3.3-12.3-3.3c-4.2,0-8.4,0.4-12.5,1.4c-3.9,0.9-7.8,2.1-11.6,3.6
			l0,0c-3.3-12.6,4.2-25.5,16.7-28.8c0.9-0.2,1.7-0.4,2.6-0.5c3.6-0.6,7.3-1,10.9-1.1c8.9,0,16.3,0.9,22.2,2.8
			c5.5,1.6,10.5,4.5,14.6,8.5c3.2,3.2,5.6,7.1,7,11.5c1.5,5.2,2.2,10.7,2.1,16.1v49.6h-36.2v-8.8c-3.1,3.3-6.7,6-10.8,7.9
			C196.2,110,191.3,111,186.4,110.9z M200.8,90.1c3.1,0.1,6-1.3,8-3.6c2.1-2.4,3.2-5.7,3.2-9.8V73c-1.2-0.5-2.5-0.8-3.8-1
			c-1.5-0.3-3-0.4-4.5-0.4c-3.6,0-6.4,0.9-8.3,2.8c-1.9,1.8-2.9,4.3-2.9,6.9v0.3c-0.2,4.4,3.2,8.2,7.7,8.4
			C200.4,90.1,200.6,90.1,200.8,90.1L200.8,90.1z"/>
		<path class="st0" d="M294.9,21.8L294.9,21.8v17.5c2.1-5.4,5.6-10.2,10-14c4.3-3.5,10-5.1,17.2-4.8V59h-3.8
			c-7.7,0-13.5,2.2-17.5,6.6c-4,4.4-6,11.5-6,21.1v22.2h-36.3V58.2C258.5,38.1,274.8,21.8,294.9,21.8
			C294.9,21.8,294.9,21.8,294.9,21.8z"/>
		<path class="st0" d="M375.7,110.8c-10.8,0-19-2.5-24.6-7.6c-5.6-5-8.4-12.9-8.4-23.5v-21h-10.2V20.4h10.2
			c0-11.3,9.1-20.4,20.4-20.4h16v20.4h20.1v38.3h-20.1v13c0,3.3,0.7,5.6,2.2,6.9c1.5,1.3,3.7,2,6.5,2c3.8-0.1,7.5-1,11-2.6v27.9
			c-3.3,1.6-6.8,2.8-10.4,3.6C384.3,110.4,380,110.8,375.7,110.8z"/>
		<path class="st0" d="M458,110.9c-6.7,0.1-13.3-1-19.5-3.3c-5.6-2-10.8-5.1-15.1-9.2c-4.2-4-7.5-8.8-9.7-14.2
			c-2.4-5.9-3.5-12.2-3.4-18.5v-0.3c-0.1-6.2,1.1-12.3,3.4-18.1c2.1-5.4,5.2-10.3,9.2-14.5c4-4.1,8.8-7.4,14.1-9.6
			c5.7-2.4,11.9-3.6,18.1-3.5c6.9-0.2,13.8,1.1,20.2,3.8c5.4,2.3,10.3,5.8,14.1,10.3c3.8,4.5,6.6,9.7,8.3,15.3
			c1.8,6,2.7,12.3,2.7,18.7v3c0,1-0.1,2-0.2,3h-56c1,3.5,3.2,6.6,6.2,8.7c3,2,6.6,3.1,10.2,3c3.2,0,6.3-0.7,9.2-2.2
			c3.2-1.8,6.1-4,8.5-6.7L497.6,92c-4.3,5.6-9.8,10.3-16,13.7C475.3,109.2,467.4,110.9,458,110.9z M467.2,57.9
			c-0.4-4.1-1.8-7.4-4-9.7c-2.1-2.2-5.1-3.5-8.1-3.4c-3-0.1-5.8,1.2-7.6,3.5c-2.2,2.7-3.5,6.1-3.8,9.6H467.2z"/>
		<g class="st1">
			<path class="st2" d="M58.9,175.6v-0.3c0-24.5,20.4-45.6,49.1-45.6c28.5,0,48.8,20.7,48.8,45.2v0.3c0,24.5-20.4,45.6-49.1,45.6
				C79.1,220.8,58.9,200.1,58.9,175.6z M122,175.6v-0.3c0-8.6-6.4-15.5-14.3-15.5c-8.1,0-14,6.9-14,15.1v0.3
				c0,8.6,6.4,15.5,14.3,15.5C116.1,190.7,122,183.9,122,175.6z"/>
			<path class="st2" d="M266,208.1c-5.9,6.4-12.6,12.7-25.8,12.7c-21,0-37.4-18.3-37.4-44.9v-0.3c0-27.6,16.6-45.9,37.1-45.9
				c13.2,0,20.6,5.7,26.1,11.9v-9.9h36.2v112.5H266V208.1z M266.8,175.4v-0.3c0-8.6-6.2-15.6-14.5-15.6c-8.3,0-14.5,6.9-14.5,15.6
				v0.3c0,8.8,6.2,15.6,14.5,15.6C260.6,191,266.8,184.2,266.8,175.4z"/>
			<path class="st2" d="M312.4,189.1v-57.4h36.2v45.7c0,7.5,4.5,11.8,9.9,11.8s10.4-4.3,10.4-11.8v-45.7h36.2v87h-36.2v-11.6
				c-5.6,7.2-14.3,13.7-26.6,13.7C323.8,220.8,312.4,208.7,312.4,189.1z"/>
			<path class="st2" d="M413.1,175.7v-0.3c0-26,18.6-45.7,44.8-45.7c30.9,0,45.2,21.5,45.2,48c0,1.9,0,4.1-0.2,6.1H447
				c2.5,7.6,8.6,11.6,16.4,11.6c6.5,0,11.9-3,17.7-8.9l19.4,15.5c-8.6,11.2-20.9,19-39.7,19C432.3,220.8,413.1,202.8,413.1,175.7z
				 M445.1,99.6h26.1l21.2,27.4h-20.2l-14.2-8.9l-14.2,8.9h-19.9L445.1,99.6z M470.1,167.8c-0.8-8.3-5.7-13.1-12.1-13.1
				c-6.1,0-10.4,5.1-11.5,13.1H470.1z"/>
			<path class="st2" d="M530.8,156.5l1.9-1.9c16.9-2.2,22.1-5.9,22.1-11v-0.2c0-3.7-3.3-6.2-9.4-6.2c-6.1,0-14.8,4-22.6,10
				l-17.2-25.8c10.2-9.1,24.2-16.1,43.5-16.1c23.7,0,40.9,13.4,40.9,33.8v0.3c0,19.9-12.6,28.7-30.7,33.9l-1.9,10.7h-22.1
				L530.8,156.5z M527.3,190.1h37v28.7h-37V190.1z"/>
		</g>
	</g>
</g>
</svg>
