<?xml version="1.0" encoding="utf-8"?>
<!-- Generator: Adobe Illustrator 23.0.3, SVG Export Plug-In . SVG Version: 6.00 Build 0)  -->
<svg version="1.1" id="Layer_1" xmlns="http://www.w3.org/2000/svg" xmlns:xlink="http://www.w3.org/1999/xlink" x="0px" y="0px"
	 viewBox="0 0 280.1 282.6" style="enable-background:new 0 0 280.1 282.6;" xml:space="preserve">
<style type="text/css">
	.st0{fill:#FFFFFF;}
	.st1{fill:#ECE771;}
	.st2{fill:#D8CE73;}
	.st3{fill:#A49F52;}
	.st4{fill:#393735;}
	.st5{fill:#89C3DB;}
	.st6{fill:#915295;}
	.st7{fill:#F1E63D;}
	.st8{fill:#C42825;}
	.st9{fill:#82B13E;}
	.st10{fill:#384B96;}
</style>
<g>
	<path class="st0" d="M227,268.6c0.1,0.5,0.1,1,0,1.5s-0.3,1-0.6,1.5s-0.7,0.9-1.2,1.3l-1.7,1.5l2.3,2.7l-1.5,1.3l-7.3-8.5l3.3-2.9
		c0.5-0.4,1-0.7,1.5-0.9c0.5-0.2,1-0.3,1.5-0.3s1,0.1,1.4,0.3c0.5,0.2,0.9,0.6,1.2,1C226.5,267.5,226.8,268,227,268.6z M223.2,267.7
		c-0.6,0.1-1.2,0.3-1.7,0.8l-1.8,1.5l2.6,3.1l1.8-1.5c0.5-0.4,0.9-1,1-1.6s-0.1-1.1-0.5-1.5C224.4,267.9,223.8,267.7,223.2,267.7z"
		/>
	<path class="st0" d="M239.7,264.2l-1.5,1.5l-2.7-1.1l-3.8,3.7l1.1,2.7l-1.4,1.4l-4.5-11.5l1.3-1.3L239.7,264.2z M229.2,262l1.8,4.5
		l2.7-2.7L229.2,262z"/>
	<path class="st0" d="M237.8,249.1l1.2-1.5l8.6,7.2l-1,1.3l-10.1-0.4l6.1,5.1l-1.2,1.5l-8.6-7.2l1.1-1.3l9.8,0.4L237.8,249.1z"/>
	<path class="st0" d="M252.4,248.2l-1.1,1.6l-7.7-5.4l-2,2.9l-1.5-1l5.2-7.4l1.5,1l-2,2.9L252.4,248.2z"/>
	<path class="st0" d="M258.1,232.6c0.5,0.6,0.8,1.3,1,2s0.2,1.5,0.1,2.2c-0.1,0.8-0.4,1.6-0.8,2.3c-0.4,0.7-0.9,1.3-1.6,1.8
		c-1.2,0.9-2.7,1.3-4.2,1.1c-0.8-0.1-1.5-0.4-2.1-0.8c-0.7-0.4-1.2-0.9-1.7-1.5s-0.8-1.3-1-2c-0.4-1.5-0.2-3.2,0.7-4.5
		c0.4-0.7,0.9-1.3,1.6-1.8c1.2-0.9,2.7-1.3,4.2-1.1c0.8,0.1,1.5,0.4,2.2,0.8C257.1,231.4,257.7,232,258.1,232.6z M253.9,232.3
		c-0.5-0.1-1-0.1-1.5,0s-1,0.3-1.4,0.6s-0.8,0.7-1,1.2c-0.3,0.4-0.4,1-0.5,1.5s0,1,0.1,1.5s0.4,0.9,0.7,1.3c0.3,0.4,0.7,0.7,1.2,1
		s1,0.5,1.5,0.5c0.5,0.1,1,0.1,1.5,0s0.9-0.3,1.3-0.6c0.9-0.6,1.4-1.6,1.6-2.6c0.1-0.5,0-1-0.1-1.5s-0.4-0.9-0.7-1.3
		c-0.3-0.4-0.7-0.7-1.2-1C255,232.6,254.5,232.4,253.9,232.3z"/>
	<path class="st0" d="M255.8,219.4l0.8-1.8l10.2,4.7l-0.7,1.5l-9.8,2.2l7.2,3.4l-0.8,1.8l-10.1-4.7l0.8-1.6l9.5-2.1L255.8,219.4z"/>
	<path class="st0" d="M262.1,208.1l-2.2,6l2.7,1l1.9-5.3l1.7,0.6l-1.9,5.3l2.8,1l2.2-6l1.7,0.6l-2.9,7.9l-10.5-3.9l2.8-7.8
		L262.1,208.1z"/>
	<path class="st0" d="M263.4,201.3l-1.1-0.3l1.7-6.9l0.9,0.2l3,4.3c0.2-0.5,0.4-0.9,0.6-1.3c0.2-0.4,0.5-0.7,0.9-1
		c0.3-0.3,0.7-0.5,1.1-0.5c0.5-0.1,0.9-0.1,1.4,0s0.9,0.3,1.3,0.6c0.3,0.3,0.6,0.6,0.8,1s0.3,0.9,0.4,1.3c0,0.5,0,1-0.1,1.5
		c-0.4,1.6-1.4,2.9-2.9,3.6l-0.6-1.1c0.6-0.3,1.1-0.6,1.5-1.1s0.7-1,0.9-1.7c0.1-0.3,0.1-0.7,0.1-1s-0.1-0.6-0.2-0.9
		c-0.3-0.5-0.8-0.9-1.4-1.1c-0.6-0.2-1.3,0-1.8,0.5c-0.6,0.6-0.9,1.3-1.1,2.1l-0.2,0.7l-0.8,0.1l-3-4.4L263.4,201.3z"/>
	<path class="st0" d="M264.4,192.5l1.3-7.5l0.9,0.2l9.2,6.8l-0.2,1.4l-9-6.7l-1.1,6.1L264.4,192.5z"/>
	<path class="st0" d="M274.5,176.5c0.7,0.3,1.3,0.7,1.8,1.1c0.5,0.4,0.8,1,1.1,1.6c0.2,0.6,0.3,1.3,0.2,1.9
		c-0.1,0.7-0.3,1.3-0.6,1.9c-0.3,0.5-0.7,1-1.1,1.4l-0.9-0.8c0.4-0.4,0.7-0.8,1-1.2c0.2-0.4,0.4-0.9,0.4-1.4c0.1-0.5,0-1-0.2-1.4
		s-0.5-0.8-0.9-1.2s-0.9-0.6-1.5-0.8s-1.3-0.4-1.9-0.4c0.5,0.4,0.9,0.8,1.1,1.4c0.3,0.6,0.4,1.3,0.3,2c0,0.5-0.2,1.1-0.4,1.5
		s-0.5,0.8-0.8,1.1s-0.7,0.5-1.2,0.7s-0.9,0.2-1.4,0.1c-0.5,0-1-0.2-1.5-0.5c-0.4-0.2-0.8-0.6-1.1-0.9c-0.3-0.4-0.5-0.9-0.7-1.4
		c-0.1-0.5-0.2-1.1-0.1-1.7c0.1-0.6,0.2-1.1,0.5-1.6s0.6-0.8,1-1.2c0.2-0.2,0.5-0.4,0.8-0.5s0.7-0.3,1-0.3c0.4-0.1,0.8-0.1,1.2-0.1
		c0.5,0,1,0,1.5,0.1C272.9,176,273.7,176.2,274.5,176.5z M269,177.4c-0.3,0.1-0.6,0.3-0.9,0.5c-0.3,0.2-0.5,0.5-0.6,0.8
		c-0.2,0.3-0.3,0.7-0.3,1.1c0,0.4,0,0.8,0.1,1.1s0.3,0.6,0.5,0.9c0.2,0.3,0.5,0.5,0.8,0.6c0.3,0.2,0.7,0.3,1,0.3s0.7,0,1-0.1
		s0.6-0.3,0.8-0.5c0.3-0.2,0.5-0.5,0.6-0.8c0.2-0.3,0.3-0.7,0.3-1.1c0-0.4,0-0.8-0.1-1.2c-0.1-0.3-0.3-0.7-0.5-0.9
		c-0.2-0.3-0.5-0.5-0.8-0.6c-0.3-0.2-0.6-0.3-0.9-0.3C269.7,177.2,269.4,177.3,269,177.4z"/>
	<path class="st0" d="M277.4,164.8c0.2,0.3,0.4,0.6,0.6,1c0.2,0.4,0.3,0.8,0.4,1.2c0.1,0.5,0.1,0.9,0.1,1.4c0,0.8-0.2,1.5-0.5,2.2
		s-0.7,1.3-1.3,1.7c-0.5,0.5-1.2,0.9-1.9,1.1c-0.7,0.3-1.5,0.4-2.3,0.4s-1.5-0.2-2.2-0.5s-1.3-0.7-1.8-1.2s-0.9-1.1-1.2-1.8
		s-0.4-1.5-0.4-2.3c0-0.5,0.1-0.9,0.2-1.4c0.1-0.4,0.2-0.8,0.4-1.1c0.2-0.4,0.4-0.7,0.6-1c0.2-0.3,0.5-0.6,0.8-0.8l0.9,0.9
		c-0.4,0.4-0.8,1-1.1,1.5c-0.3,0.6-0.5,1.3-0.5,2c0,1.2,0.4,2.3,1.2,3.1c0.4,0.4,0.9,0.8,1.4,1c0.6,0.2,1.2,0.4,1.8,0.4
		s1.2-0.1,1.8-0.3c0.5-0.2,1.1-0.5,1.5-0.9s0.8-0.8,1-1.4c0.3-0.5,0.4-1.1,0.4-1.7c0-0.7-0.1-1.4-0.4-2c-0.3-0.6-0.7-1.2-1.2-1.7
		l0.8-0.8C276.8,164.1,277.1,164.4,277.4,164.8z"/>
	<circle class="st1" cx="190.2" cy="35" r="30.8"/>
	<path class="st2" d="M176.8,147.6c0,30.5-22.3,68.2-51.4,75.4c-3.2,0.8-6.5,1.2-9.9,1.2c-33.8,0-61.3-42.8-61.3-76.7
		s27.5-61.3,61.3-61.3c2.6,0,5.2,0.2,7.8,0.5C153.9,90.7,176.8,116.8,176.8,147.6L176.8,147.6z"/>
	<path class="st1" d="M176.8,147.6c0,30.5-22.3,68.2-51.4,75.4c-24.9-12.1-43-47-43-75.8c0-27.9,17.1-51.7,40.9-60.4
		C153.9,90.7,176.8,116.8,176.8,147.6L176.8,147.6z"/>
	<path class="st3" d="M71.8,170.6c1.1,1.4,2.4,2.6,3.9,3.6c9.3,6.2,21.3,6.5,30.8,0.7c-4.3-4.8-9.8-8.3-14.9-12.3
		c-9.3-7.1-17.4-15.7-24-25.5c-2.2,9.5-1.6,19.5,1.8,28.7C70,167.6,70.8,169.2,71.8,170.6L71.8,170.6z"/>
	<path class="st3" d="M159,170.4c-1.1,1.4-2.4,2.6-3.9,3.6c-9.3,6.2-21.3,6.5-30.8,0.7c4.3-4.8,9.8-8.3,15-12.3
		c9.3-7.1,17.2-16.7,23.8-26.4c2.3,9.8,1.7,20.1-1.6,29.7C160.8,167.3,160,168.9,159,170.4z"/>
	<path class="st4" d="M106.7,174.7H94.5c-14.6,0-26.5-11.9-26.5-26.5l0,0V136h12.2c14.6,0,26.5,11.9,26.5,26.5l0,0V174.7
		L106.7,174.7z"/>
	<path class="st4" d="M124.2,174.7h12.2c14.6,0,26.5-11.9,26.5-26.5l0,0V136h-12.2c-14.6,0-26.5,11.9-26.5,26.5l0,0V174.7
		L124.2,174.7z"/>
	<path class="st0" d="M2.4,148.5l0.1-1.4l10.9,5.6l-0.1,1.1l-11.6,4l0.1-1.4l9.9-3.3L2.4,148.5z"/>
	<path class="st0" d="M13.5,143.5c0.2-1-0.1-2-0.7-2.8l0.8-0.6c0.9,1,1.2,2.3,1,3.6c-0.5,2.3-2.8,3.8-5.2,3.3
		c-2.1-0.5-3.5-2.4-3.4-4.5c0.4-2.4,2.5-3.5,4.9-3.1c0.1,0,0.3,0,0.4,0.1l-1,6.5C11.9,146.1,13.3,145,13.5,143.5z M10.3,140.5
		c-1.5-0.1-2.9,0.5-3.2,2.2c-0.2,1.5,0.9,2.8,2.4,3.1L10.3,140.5z"/>
	<path class="st0" d="M15.7,136.9l-0.3,1.2l-8-1.9l0.3-1.2l2.1,0.5c-1.2-0.8-1.8-2.4-1.5-3.8l1.3,0.3v0.1c-0.4,1.8,0.5,3.5,2.9,4.1
		L15.7,136.9z"/>
	<path class="st0" d="M18.9,126.1l-1.6-0.5c0.9,1,1.2,2.3,0.8,3.6c-1,2.2-3.5,3.2-5.7,2.2c-1.9-0.8-2.9-2.9-2.5-4.9
		c0.4-1.2,1.4-2.2,2.7-2.5l-4.7-1.5l0.4-1.2l11.1,3.6L18.9,126.1z M11,126.6c-0.5,1.5,0.3,3.2,1.9,3.7c0.1,0,0.2,0.1,0.3,0.1
		c1.5,0.6,3.3-0.1,3.9-1.6c0-0.1,0-0.1,0.1-0.2c0.5-1.7-0.4-3.5-2.1-4C13.4,124,11.6,124.9,11,126.6L11,126.6z"/>
	<path class="st0" d="M20.8,118.9c0.4-0.9,0.4-1.9,0-2.9l0.9-0.4c0.6,1.2,0.6,2.5,0.1,3.7c-0.9,2.1-3.3,3.1-5.4,2.2
		c-0.1,0-0.1-0.1-0.2-0.1c-2.1-0.8-3.2-3.1-2.4-5.2c0,0,0-0.1,0.1-0.1c1-2.2,3.3-2.8,5.5-1.8c0.1,0,0.2,0.1,0.3,0.2l-2.6,6
		C18.6,121,20.2,120.3,20.8,118.9z M18.4,115.2c-1.4-0.5-3-0.2-3.6,1.3c-0.5,1.4,0.1,3,1.5,3.6L18.4,115.2z"/>
	<path class="st0" d="M26.4,103.7L26.4,103.7l-7.2,0.3l7.6,4.9l-0.7,1l-9.4-6l0.7-1.1l7.3-0.2l-3-6.7l0.7-1.1l9.4,6l-0.7,1.1
		L23.4,97L26.4,103.7z"/>
	<path class="st0" d="M28.6,94.2l-1-0.3c0.2-1,0.7-2,1.3-2.8c1.4-1.8,3.1-2,4.8-0.6l3.9,3.2l-0.7,0.9l-1-0.8c0.3,1.1,0,2.3-0.8,3.2
		c-1,1.2-2.6,1.9-4,0.8s-1.2-2.8,0.1-4.4c0.5-0.7,1.2-1.3,1.9-1.8l-0.2-0.2c-1.2-0.9-2.3-0.7-3.3,0.5C29.2,92.5,28.8,93.3,28.6,94.2
		z M32,96.7c0.8,0.6,2,0.4,2.5-0.5c0,0,0-0.1,0.1-0.1c1-1.2,1-2.7,0-3.6L34,92c-0.7,0.5-1.3,1.1-1.8,1.7C31.2,94.9,31.2,96,32,96.7z
		"/>
	<path class="st0" d="M40.2,90.9l-0.8,0.9l-6-5.6l0.8-0.9l1.6,1.5c-0.7-1.3-0.4-2.9,0.6-4l1,0.9l-0.1,0.1c-1.2,1.3-1.3,3.3,0.5,5
		L40.2,90.9z"/>
	<path class="st0" d="M46.3,85.1c-1.8,1.6-4.5,1.5-6.1-0.3s-1.5-4.5,0.3-6.1c0.9-0.8,2.1-1.2,3.3-1.1v1.2c-1-0.1-2,0.1-2.7,0.8
		c-1.2,1.1-1.3,3-0.1,4.2l0.1,0.1c1.1,1.3,3.1,1.5,4.4,0.4c0,0,0,0,0.1-0.1c0.7-0.7,1.1-1.6,1-2.6h1.1
		C47.7,82.9,47.2,84.2,46.3,85.1z"/>
	<path class="st0" d="M43.7,73.6l-0.9-1.1l1.1-0.9l0.9,1L43.7,73.6z M50.2,81.4L45,75l1-0.8l5.2,6.4L50.2,81.4z"/>
	<path class="st0" d="M49.7,73.2l-0.9-0.6c0.5-0.9,1.2-1.7,2-2.3c1.8-1.3,3.5-1.1,4.8,0.6l3,4.1l-1,0.7l-0.7-1
		c0,1.2-0.6,2.2-1.6,2.9c-1.2,0.9-3,1.1-4-0.3s-0.4-3,1.3-4.2c0.7-0.5,1.5-0.9,2.3-1.2l-0.2-0.2c-0.9-1.2-2.1-1.3-3.3-0.4
		C50.7,71.8,50.1,72.4,49.7,73.2z M52.3,76.5c0.7,0.8,1.8,0.9,2.6,0.2c0,0,0.1,0,0.1-0.1c1.2-0.7,1.6-2.2,1-3.4l0,0l-0.5-0.6
		c-0.8,0.3-1.5,0.7-2.2,1.1C52,74.6,51.6,75.7,52.3,76.5L52.3,76.5z"/>
	<path class="st0" d="M61.6,73.1l-1.1,0.6l-4.2-7.1l1.1-0.6l0.7,1.2c0-1.2,0.6-2.3,1.6-2.8c1.4-0.9,3.2-0.6,4.2,0.8
		c0.1,0.1,0.2,0.3,0.2,0.4l2.6,4.4l-1.1,0.6l-2.4-4.2c-0.5-1.1-1.8-1.7-2.9-1.2c-0.1,0.1-0.2,0.1-0.3,0.2c-1.2,0.7-1.6,2.1-0.9,3.3
		c0,0.1,0.1,0.1,0.1,0.2L61.6,73.1z"/>
	<path class="st0" d="M72.4,67.5c-2.1,1-4.6,0.1-5.6-2c0,0,0-0.1-0.1-0.1c-1-2.1-0.1-4.7,2-5.7c0,0,0,0,0.1,0c2.1-1,4.6-0.1,5.7,2
		v0.1c1,2.1,0.2,4.7-2,5.7H72.4z M69.2,60.7c-1.5,0.7-2.2,2.5-1.5,4c0,0.1,0.1,0.1,0.1,0.2c0.7,1.6,2.5,2.3,4.1,1.7c0,0,0,0,0.1,0
		c1.5-0.7,2.2-2.5,1.5-4.1c0,0,0-0.1-0.1-0.1C72.7,60.8,70.9,60,69.2,60.7C69.3,60.7,69.2,60.7,69.2,60.7z"/>
	<path class="st0" d="M232,235.3l2,2l0.9-1.3l1.3,1l-1.1,1.5l1.8,1.9l-1,1.4l-1.8-1.9l-1.5,2.1l1.8,1.8l-1,1.4l-1.8-1.9l-0.8,1.2
		l-1.3-1l1-1.4l-2-2l-0.9,1.3l-1.3-1l1.1-1.5l-1.8-1.8l1-1.4l1.8,1.8l1.5-2.1l-1.8-1.7l1-1.4l1.8,1.8l0.8-1.2l1.3,1L232,235.3z
		 M229.5,238.8l2,2l1.5-2.1l-2-2L229.5,238.8z"/>
	<path class="st0" d="M235.2,227.9l0.9,0.5l-1.4,2.2l6.1,3.8l-0.7,1l-6.1-3.8l-0.6,1l-0.9-0.6l0.6-1l-0.6-0.4c-1.5-1-1.9-2.2-1-3.6
		c0.2-0.4,0.5-0.8,0.9-1l0.9,0.6c-0.3,0.3-0.6,0.6-0.8,0.9c-0.5,0.8-0.3,1.5,0.7,2.1l0.6,0.4L235.2,227.9z"/>
	<path class="st0" d="M245.5,226.8c-1.4,2.5-4.5,2.9-7.3,1.5s-4.3-4.4-2.9-6.9s4.5-2.9,7.3-1.4S246.8,224.2,245.5,226.8z
		 M236.2,221.9c-1,1.9,0.3,4,2.5,5.2s4.7,1,5.7-0.9s-0.3-4-2.5-5.2S237.2,220,236.2,221.9L236.2,221.9z"/>
	<path class="st0" d="M249.4,216.2c0.4-0.9,0.4-1.9,0-2.9l0.9-0.4c0.6,1.2,0.6,2.6,0,3.7c-0.9,2.2-3.5,3.3-5.7,2.3
		c-2.2-0.9-3.3-3.5-2.3-5.7s3.3-2.7,5.6-1.8c0.1,0,0.2,0.1,0.3,0.2l-2.6,6C247.1,218.3,248.7,217.6,249.4,216.2z M246.9,212.5
		c-1.4-0.5-3-0.2-3.6,1.3c-0.5,1.4,0.1,3,1.5,3.6L246.9,212.5z"/>
	<path class="st0" d="M253.9,207.6c-0.4,1.2-1.3,2.2-2.5,2.8l-0.7-1c0.9-0.4,1.7-1.2,2-2.2c0.7-1.9-0.8-3.9-3.5-4.8
		c0.8,1,1.1,2.4,0.6,3.6c-0.8,2.2-2.7,3.2-4.6,2.5c-2-0.7-3-2.9-2.3-4.9c0-0.1,0.1-0.1,0.1-0.2c0.3-1,1.1-1.9,2.1-2.4
		c1.1-0.5,2.4-0.6,4.6,0.1C253.1,202.4,254.9,205,253.9,207.6z M244.1,203.8c-0.5,1.3,0.1,2.8,1.4,3.3c0.1,0,0.1,0,0.2,0.1
		c1.3,0.4,2.7-0.2,3.2-1.6c0-0.1,0-0.1,0.1-0.2c0.6-1.3,0-2.8-1.2-3.4s-2.8,0-3.4,1.2C244.2,203.5,244.2,203.7,244.1,203.8z"/>
	<path class="st0" d="M249.1,191.4c-0.8,0.5-1.5,1.3-1.8,2.3c-0.5,2,1.1,3.7,3.9,4.5c-0.9-0.9-1.2-2.3-0.8-3.5
		c0.4-1.9,2.2-3.2,4.2-2.9c0.1,0,0.1,0,0.2,0c2,0.6,3.2,2.6,2.6,4.6c0,0.1,0,0.1-0.1,0.2c-0.3,1.1-0.9,2-1.9,2.5
		c-1.1,0.6-2.3,0.8-4.6,0.2c-3.3-0.9-5.4-3.3-4.7-6.1c0.3-1.2,1.1-2.2,2.1-2.9L249.1,191.4z M251.5,195c-0.5,1.3,0.1,2.7,1.4,3.3
		c1.3,0.5,2.7-0.1,3.3-1.4c0.1-0.2,0.1-0.4,0.1-0.6c0.5-1.3-0.3-2.8-1.6-3.2c-0.1,0-0.1,0-0.2-0.1c-1.3-0.3-2.7,0.5-3,1.8
		C251.5,194.9,251.5,195,251.5,195L251.5,195z"/>
	<path class="st0" d="M259.7,186.8c-0.3,1.3-1,2.4-2,3.1l-0.8-0.9c0.9-0.6,1.5-1.5,1.7-2.5c0.4-2-1.4-3.7-4.2-4.2
		c1,0.9,1.4,2.2,1.2,3.5c-0.4,2.3-2.2,3.6-4.2,3.2c-2.1-0.4-3.4-2.4-3.1-4.4c0-0.1,0-0.2,0.1-0.2c0.2-1.1,0.8-2,1.7-2.7
		c1-0.7,2.3-1,4.5-0.5C258.1,181.8,260.2,184.1,259.7,186.8z M249.5,184.5c-0.3,1.4,0.5,2.8,1.9,3.1c0.1,0,0.1,0,0.2,0
		c1.4,0.2,2.7-0.7,2.9-2c0-0.1,0-0.1,0-0.2c0.4-1.3-0.3-2.8-1.7-3.2s-2.8,0.3-3.2,1.7C249.5,184.1,249.5,184.3,249.5,184.5
		L249.5,184.5z"/>
	<path class="st5" d="M206.4,247.5c-0.1,0.4-0.2,0.8-0.3,1.1c-0.2,0.4-0.3,0.8-0.6,1.1c-0.3,0.4-0.6,0.7-1,1.1c-0.6,0.5-1.3,1-2,1.2
		c-0.7,0.3-1.4,0.4-2.2,0.3c-0.7,0-1.5-0.2-2.1-0.5c-0.7-0.3-1.3-0.8-1.9-1.4c-0.5-0.6-0.9-1.2-1.2-1.9s-0.4-1.4-0.4-2.2
		c0-0.7,0.2-1.5,0.5-2.2s0.8-1.4,1.4-1.9c0.3-0.3,0.7-0.6,1.1-0.9c0.3-0.2,0.7-0.4,1.1-0.5c0.4-0.1,0.7-0.2,1.1-0.3
		c0.4,0,0.7-0.1,1.1-0.1l0.1,1.9c-0.6,0-1.2,0.1-1.7,0.2c-0.6,0.2-1.1,0.5-1.5,0.9c-0.4,0.3-0.7,0.8-0.9,1.2
		c-0.2,0.5-0.3,0.9-0.3,1.4s0.1,1,0.3,1.4c0.4,1,1.2,1.8,2.1,2.3c0.4,0.2,0.9,0.4,1.4,0.4s1,0,1.4-0.2c0.5-0.2,0.9-0.4,1.3-0.8
		c0.5-0.4,0.8-0.9,1-1.5s0.3-1.2,0.3-1.8l1.8,0.1C206.4,246.7,206.4,247.1,206.4,247.5z"/>
	<path class="st0" d="M202.3,236.8l0.6-0.7l8.3,7.6l-0.8,0.9l-7.3-6.7l-0.9,2l-1-0.5L202.3,236.8z"/>
	<path class="st0" d="M205.9,232.6l0.6-0.7l8.7,7.2l-0.8,1l-7.7-6.4l-0.8,2l-1-0.4L205.9,232.6z"/>
	<path class="st6" d="M218.4,230.1L218.4,230.1l-6.3-0.1l6.6,4.6l-1.1,1.6l-9.2-6.4l1.2-1.7l6.3,0.2l-2.4-5.8l1.2-1.7l9.2,6.4
		l-1.1,1.6l-6.6-4.6L218.4,230.1z"/>
	<path class="st0" d="M227.8,220.4c-1.4,2.5-4.5,2.9-7.3,1.4s-4.2-4.4-2.8-6.9s4.5-2.9,7.3-1.4S229.2,217.9,227.8,220.4z
		 M218.6,215.4c-1,1.9,0.3,4,2.4,5.2s4.7,1,5.7-0.8s-0.3-4-2.5-5.2S219.6,213.6,218.6,215.4L218.6,215.4z"/>
	<path class="st7" d="M233.3,208.4l-0.8,1.8l-4.1-1.7l-8,1.5l0.9-2.1l5.8-1l-3.3-4.8l0.9-2.1l4.5,6.7L233.3,208.4z"/>
	<path class="st0" d="M229,192.9c-0.9,0.5-1.5,1.3-1.8,2.2c-0.6,1.9,1,3.8,3.8,4.6c-0.8-1-1.1-2.3-0.7-3.5c0.4-1.9,2.3-3.1,4.3-2.7
		c0.1,0,0.1,0,0.2,0c2,0.6,3.1,2.8,2.5,4.8c0,0.1,0,0.1-0.1,0.2c-0.3,1.1-1,2-2,2.5c-1.1,0.6-2.4,0.7-4.6,0.1
		c-3.3-1-5.3-3.5-4.5-6.2c0.4-1.2,1.1-2.2,2.2-2.8L229,192.9z M231.2,196.6c-0.5,1.3,0.1,2.7,1.3,3.3s2.7-0.1,3.3-1.3
		c0.1-0.2,0.1-0.3,0.2-0.5c0.5-1.3-0.2-2.8-1.5-3.3c-0.1,0-0.1,0-0.2-0.1c-1.3-0.4-2.7,0.4-3.1,1.7
		C231.2,196.5,231.2,196.6,231.2,196.6L231.2,196.6z"/>
	<path class="st0" d="M239.6,188.5c-0.3,1.3-1,2.4-2.1,3.1l-0.8-0.9c0.9-0.6,1.5-1.4,1.8-2.5c0.4-2-1.3-3.7-4.1-4.3
		c1,0.9,1.4,2.2,1.1,3.5c-0.5,2.2-2.2,3.5-4.2,3.1c-2.1-0.4-3.4-2.4-3-4.5c0-0.1,0-0.2,0.1-0.2c0.2-1.1,0.8-2,1.7-2.6
		c1-0.7,2.3-0.9,4.5-0.5C238.1,183.4,240.2,185.8,239.6,188.5z M229.4,186.1c-0.4,1.4,0.5,2.8,1.8,3.1c0.1,0,0.1,0,0.2,0
		c1.4,0.3,2.7-0.6,3-2c0-0.1,0-0.2,0-0.2c0.5-1.3-0.3-2.8-1.6-3.3s-2.8,0.3-3.3,1.6C229.5,185.6,229.5,185.8,229.4,186.1
		L229.4,186.1z"/>
	<path class="st0" d="M242,171l-0.3,2.4l-5.4,3.2l1.6,1.9l3.2,0.4l-0.2,1.9l-11.1-1.3l0.2-1.9l5.6,0.6l-5-5.9l0.3-2.4l4.3,5.2
		L242,171z"/>
	<path class="st0" d="M242.3,164.4c0,2.9-2.7,4.7-5.8,4.6s-5.8-1.9-5.8-4.8s2.7-4.7,5.8-4.6S242.4,161.5,242.3,164.4z M231.9,164.2
		c0,2.1,2.1,3.4,4.6,3.5s4.7-1.3,4.7-3.4s-2.1-3.4-4.6-3.4S231.9,162.1,231.9,164.2z"/>
	<path class="st8" d="M172.2,249.1l-4.3-2.1l-2.2,1.2l1.8,3.4l-1.7,0.9l-5.3-9.9l4.4-2.4c0.5-0.3,1.1-0.5,1.6-0.6s1-0.1,1.5,0
		s0.9,0.3,1.2,0.6c0.7,0.6,1.2,1.4,1.4,2.4c0.1,0.4,0.1,0.7,0,1.1c-0.1,0.4-0.2,0.7-0.4,1s-0.4,0.6-0.7,0.9l4.7,2.3L172.2,249.1z
		 M167.4,241.5c-0.6-0.1-1.2,0.1-1.7,0.4l-2.5,1.4l1.8,3.3l2.5-1.4c0.5-0.3,1-0.7,1.2-1.2s0.2-1-0.1-1.5
		C168.4,242,167.9,241.6,167.4,241.5z"/>
	<path class="st0" d="M172.3,239.4h-1.1c-0.2-1.7,0.5-3.3,1.9-4.3c1.4-1.1,3.4-0.9,4.5,0.4c0.1,0.1,0.1,0.1,0.2,0.2
		c0.9,1.4,0.8,2.7,0.2,5.2l-0.9,3.9l4.9-3.4l0.7,1l-6.4,4.5l-0.6-0.8l1.3-5.3c0.5-2.2,0.5-3.3-0.1-4.2c-0.7-1-2-1.2-3-0.5
		c0,0-0.1,0-0.1,0.1C172.6,236.8,172.3,237.8,172.3,239.4z"/>
	<path class="st0" d="M182.3,227.8l5,5.7l1.3-1.1l0.7,0.8l-1.3,1.1l1.8,2l-0.9,0.8l-1.8-2l-4.4,3.9l-0.8-0.5l-0.3-10L182.3,227.8z
		 M182.6,229.9l0.3,7.4l3.5-3.1L182.6,229.9z"/>
	<path class="st0" d="M196.2,229.8c-1.9,2.1-5.1,1.8-7.5-0.3s-3.1-5.3-1.2-7.4s5.1-1.8,7.4,0.4S198.2,227.6,196.2,229.8z
		 M188.5,222.8c-1.4,1.6-0.7,4,1.2,5.6s4.4,2.1,5.8,0.5s0.7-4-1.2-5.6S189.9,221.3,188.5,222.8L188.5,222.8z"/>
	<path class="st9" d="M205.7,215.5c0,0.4-0.1,0.8-0.1,1.2c-0.1,0.4-0.2,0.8-0.4,1.2s-0.4,0.9-0.7,1.2c-0.5,0.7-1,1.3-1.7,1.7
		c-0.6,0.4-1.3,0.7-2,0.8s-1.5,0.1-2.2,0c-0.8-0.2-1.5-0.5-2.1-0.9s-1.2-1-1.6-1.6c-0.4-0.6-0.7-1.3-0.9-2c-0.3-1.5,0-3.1,0.9-4.4
		c0.3-0.4,0.5-0.7,0.8-1s0.6-0.5,0.9-0.8c0.3-0.2,0.6-0.4,0.9-0.5c0.3-0.2,0.7-0.3,1-0.4l0.5,1.9c-0.3,0.1-0.5,0.2-0.8,0.3
		c-0.2,0.1-0.5,0.2-0.7,0.4s-0.5,0.3-0.7,0.5s-0.4,0.5-0.6,0.8c-0.3,0.4-0.5,0.9-0.5,1.4c-0.1,0.5-0.1,1,0.1,1.4
		c0.3,1,0.9,1.9,1.7,2.4c0.4,0.3,1,0.5,1.5,0.7c0.5,0.1,1,0.2,1.5,0.1c0.5-0.1,1-0.3,1.4-0.5c0.4-0.3,0.8-0.7,1.1-1.1
		c0.3-0.4,0.5-0.9,0.7-1.4c0.1-0.4,0.2-0.9,0.2-1.4l-1.7-1.2l-1.6,2.4l-1.4-1l2.7-4l3.9,2.6C205.7,214.8,205.7,215.1,205.7,215.5z"
		/>
	<path class="st0" d="M201.4,208l-1,0.5c-1-1.4-1.1-3.2-0.3-4.7c0.7-1.6,2.6-2.4,4.2-1.7c0.1,0,0.1,0.1,0.2,0.1c1.5,0.8,2,2,2.6,4.5
		l1,3.9l2.7-5.3l1,0.5l-3.5,7l-0.9-0.4l-1.3-5.2c-0.6-2.2-1.1-3.2-2.1-3.7s-2.3-0.1-2.9,0.9c0,0,0,0.1-0.1,0.1
		C200.5,205.6,200.7,206.7,201.4,208z"/>
	<path class="st0" d="M203.7,199.4l-1.1-0.4l2.5-6.7l0.9,0.3l2.4,4.7c0.8-1.8,2.3-3.1,4.3-2.3c1.8,0.7,2.6,2.8,1.9,4.5
		c0,0.1,0,0.1-0.1,0.2c-0.5,1.5-1.8,2.7-3.3,3.2l-0.4-1.1c1.2-0.3,2.3-1.3,2.7-2.5c0.5-1.1,0.1-2.5-1.1-3c0,0-0.1,0-0.1-0.1
		c-1.3-0.5-2.5,0.4-3.2,2.2l-0.2,0.7h-0.8l-2.5-4.7L203.7,199.4z"/>
	<path class="st0" d="M206.9,190.5l-1.1-0.3l1.8-6.9l0.9,0.2l2.9,4.4c0.7-1.9,2-3.3,4-2.8c1.9,0.5,2.9,2.5,2.4,4.3
		c0,0.1,0,0.1,0,0.2c-0.4,1.6-1.5,2.9-3,3.5l-0.6-1.1c1.2-0.5,2.1-1.5,2.4-2.8c0.4-1.2-0.2-2.5-1.4-2.9h-0.1
		c-1.4-0.4-2.4,0.7-2.9,2.5l-0.2,0.8l-0.8,0.1l-3-4.4L206.9,190.5z"/>
	<path class="st10" d="M209.9,173.6c0.6-0.6,1.4-0.8,2.2-0.7c0.6,0.1,1.1,0.3,1.5,0.7c0.2,0.2,0.3,0.4,0.4,0.6
		c0.1,0.2,0.2,0.4,0.3,0.6c0.1-0.3,0.3-0.6,0.5-0.8s0.4-0.4,0.6-0.6c0.2-0.2,0.5-0.3,0.8-0.4c0.3-0.1,0.7-0.1,1,0
		c0.5,0.1,0.9,0.2,1.3,0.5c0.4,0.3,0.6,0.6,0.8,1s0.3,0.8,0.4,1.3c0.1,0.6,0.1,1.1,0,1.7l-0.7,5.1l-11.1-1.5l0.7-5
		C208.9,175.2,209.3,174.3,209.9,173.6z M213.2,175.6c-0.2-0.4-0.6-0.7-1.1-0.7c-0.4-0.1-0.8,0.1-1.1,0.4c-0.3,0.4-0.5,0.9-0.6,1.4
		l-0.4,2.8l3,0.4l0.3-2.6C213.5,176.6,213.4,176.1,213.2,175.6L213.2,175.6z M218,175.6c-0.2-0.4-0.6-0.7-1.1-0.7
		c-0.4-0.1-0.9,0.1-1.2,0.4c-0.4,0.5-0.6,1.1-0.6,1.7l-0.4,3.1l3,0.4l0.4-3.2C218.2,176.7,218.2,176.1,218,175.6L218,175.6z"/>
	<path class="st0" d="M209.3,168.3v-0.9l11.3,0.4v1.2l-10-0.4l0.6,2.1l-1,0.3L209.3,168.3z"/>
	<path class="st0" d="M220.6,159.8c0.2,2.9-2.3,4.9-5.5,5s-5.9-1.5-6.1-4.4s2.3-4.8,5.5-5S220.5,157,220.6,159.8z M210.2,160.4
		c0.1,2.1,2.3,3.3,4.8,3.1s4.6-1.6,4.5-3.7s-2.3-3.3-4.8-3.1S210.1,158.3,210.2,160.4z"/>
	<path class="st0" d="M209.5,146.8c-0.6,0.8-0.8,1.8-0.6,2.8c0.4,2,2.6,2.9,5.5,2.3c-1.2-0.5-2.1-1.5-2.2-2.8
		c-0.4-2.1,0.6-4,2.7-4.4c2.1-0.4,4,1,4.4,3.1c0,0.1,0,0.1,0,0.2c0.2,1.1,0,2.2-0.6,3.1c-0.7,1-1.8,1.8-4,2.2
		c-3.4,0.6-6.3-0.6-6.8-3.5c-0.2-1.2,0-2.5,0.7-3.5L209.5,146.8z M213.2,149.1c0.1,1.4,1.3,2.4,2.7,2.3c1.4-0.1,2.4-1.3,2.3-2.7
		c0-0.2,0-0.4-0.1-0.6c-0.2-1.4-1.4-2.4-2.8-2.2c-0.1,0-0.1,0-0.2,0c-1.3,0.3-2.2,1.6-1.9,2.9C213.2,149,213.2,149.1,213.2,149.1z"
		/>
</g>
</svg>
