<svg xmlns="http://www.w3.org/2000/svg" xmlns:xlink="http://www.w3.org/1999/xlink" viewBox="0 0 297 298.2"><defs><path id="A" d="M-34.3 7.1h365.6v284H-34.3z"/></defs><clipPath id="B"><use xlink:href="#A"/></clipPath><g clip-path="url(#B)"><path d="M299.4 292.2H2.4" fill="none" stroke="#fff" stroke-width="6" stroke-miterlimit="10"/><path d="M153.7 122.6L149 117c-.2-.2-.1-.5.1-.6 0 0 .1-.1.2-.1 2.8-.8 14-3.6 24.2 1.4.2.1.3.4.2.6l-.3.3-19.2 4.2c-.2 0-.3-.1-.5-.2zm11 170.5c-3.5.1-7 .1-10.4-.2-.1.8-.1 1.7.2 2.5 8.3-1 9.7 6.8 9.7 6.8-1.9.2-3.8.1-5.6-.5-.7 1.4-1.7 2.6-3 3.4-1.5-.5-2.8-1.4-3.8-2.6-1.6 1-3.4 1.6-5.3 1.8 0 0-.3-7.3 6.1-8.9-.2-.9-.3-1.8-.1-2.7-29.2-2.7-36.6-25.3-36.6-25.3-12.5 25.9-5.9 43.1-5.9 43.1-1.4-4.4.9-8.9.9-8.9 2.6 22.9 13.7 26.4 13.7 26.4-2.5-3.7.5-12.2.5-12.2 1.2 4.1 4.9 8.8 4.9 8.8-1.6-2.6-2.7-7.5-2.7-7.5 1.8 3.7 4.2 7 7.1 9.7-1.8-4.5 2.3-9.1 2.3-9.1l3.2 1.2c7 3.1 13.2 7.9 17.8 14l24.1-7.5c8.2-2.3 11.5 1.5 11.5 1.5 0-1.8-.8-3.5-2.2-4.7 3.9.8 6.9 4 7.4 8 9.9-5.6 8.9-16.3 8.9-16.3 2.2 1.8 3.2 7.8 3.2 7.8l.2-11.7c4.5 2.9 3.7 8.1 3.7 8.1 7.6-9 3.1-17.7 2.7-18.3 2 3.5 3.2 7.5 3.6 11.5 1.7-14.5 1-29.2-1.9-43.5-11.9 14.3-31.9 24.4-54.2 25.3zm-10.5 15c.2-.5.3-1.1.4-1.6l.4.1.7.2.6-.4.4-.2c.2.5.4 1 .8 1.5.3.5.8 1 1.2 1.4 0 1.6-.8 3.1-2.1 4-1.5-.5-2.7-1.8-3.1-3.4.2-.4.5-1 .7-1.6zm-6.5-2.3c1.2-.4 2.5-.8 3.6-1.3.5.5 1.1.9 1.8 1.3 0 .6-.1 1.2-.4 1.8-.6 1.9-2.1 3.2-4.1 3.5a5.33 5.33 0 0 1-.9-5.3zm4.7 10.8c-1.5-.9-2.4-2.5-2.4-4.2.8-.3 1.6-.7 2.2-1.2.5 1.3 1.4 2.3 2.6 3-.4 1-1.3 1.9-2.4 2.4zm4.8 2.8c-1.1-.4-2.1-1.2-2.6-2.3.7-.6 1.3-1.4 1.7-2.3l.4.1.3-.2c.6.8 1.4 1.4 2.2 1.9-.3 1.1-1 2.1-2 2.8zm3.9-3.9c-1.2-.2-2.2-.9-2.9-1.8 1-.9 1.6-2.2 1.8-3.5.8.4 1.6.6 2.5.7.4 1.6-.1 3.4-1.4 4.6zm2.3-6.2c-1.9.2-3.8-.8-4.8-2.4-.3-.5-.6-1.1-.8-1.7a11.51 11.51 0 0 0 1.4-1.7c1.2.3 2.5.4 3.8.3v.1c1.2 1.6 1.4 3.7.4 5.4zm63.4-238.7c-.3-4.3-1.2-8.5-2.6-12.5-.2-.9-.9-2.4-.9-2.4-1.1-2.8-2.5-5.6-4.2-8.1-21.7-28.7-18.1 3.9-18.1 3.9-.3 25.7-10.6 39.7-10.6 39.7l-3.4 3.7c0-.7-.1-1.4-.2-2.1v-.1c-1.9-4.6-4.7-8.7-8.3-12.1.9 5.1 1.3 9.8-1.3 12.6-1.4-3.9-4.2-7.2-7.7-9.3.5 2.3.9 4.7-.7 7-3.4-1.5-7-2.7-10.6-3.4l-3.1-6.5s-.4-.7-.9-1.9c-4.2-9.7-3.9-20.9 1-30.3 3.5-7 6.6-17.3-10-12.4h-.1c-5.5 1.9-10.5 5-14.8 9 2.1-1.1 4.3-1.9 6.6-2.3 0 0-7 7-11.7 8.2 1.7.4 3.6.4 5.3 0l-.2.4c-2 1.3-4.4 3.1-4.7 4.7.9-.6 1.9-1.1 2.9-1.4-4.3 8.9-5.6 20.7 2.8 34.7-2.1 1.3-3.9 3.2-5.2 5.4-2.3 5.4-1.2 8.9 1.1 10.8-2.1 1.9-4.1 3.9-5.9 5.9-1.6 0-3.2.2-4.8.6-.2.1-.4.3-.3.6 0 .1.1.2.2.3l2.5 1.3c-.6.7-1.2 1.4-1.7 2.1-1.6 2-3 4.2-4.1 6.6-.4.9-.7 1.8-1 2.7l-21.5-2c-.8-.1-1.6.5-1.8 1.3-2.1 8.9-1.7 18.2 1.2 26.9-3.3 1.6-8.4 5.9-9.9 8.1-.8 1.1-1.3 2.4-1.6 3.7-.2 1-.2 2 0 3v.1c-.5.9-.9 1.6-1.3 2.4s-.8 1.6-1.1 2.4c-.7 1.6-1.3 3.3-1.7 5.1s-.6 3.7-.5 5.5c.1 2 .6 3.9 1.6 5.6.2.4.5.8.8 1.2s.6.8 1 1.1l.2.2v2.4c0 .6 0 1.3.1 2 .1 1.3.3 2.6.5 3.9.5 2.7 1.4 5.3 2.8 7.7 1.5 2.5 3.6 4.6 6.1 6.1 2.5 1.4 5.3 2.2 8.1 2.4 2.7.2 5.5 0 8.1-.5 8.6-1.6 23.4-10.6 23.4-10.6-4.7 19.5-17.7 43.2-16.5 62.9 5.2-11.2 10.2-12.9 10.2-12.9a23.36 23.36 0 0 1-2.3 5.9c10.4 17.9 21.3 25.5 46.9 24.4 22-1 41-11.3 51.5-26.1-.7-2.6-1.2-4-1.2-4 1.8 4.8 4.6 9.3 8.2 13-5.9-19.7-8-42.1-8-42.1 1.7 5.5 4 10.7 7 15.5l-3.8-26.3 4.4 6.4c-5.3-16.9-9.6-32.3-11.2-43.6 4 8.9 4.6 10.4 8.9 15.2-3.2-9.4-5.4-38.7-5.4-38.7 0-1.3 0-2.6.1-3.8 3.2 1.5 7.1-.4 7.5-4.7l.4-4.1c.4-3.4-2.1-6.5-5.6-6.9h-.2l-2.8-.2c-1-10.5-2.9-17.8-5-22.7 1.7-1.7 3.3-3.4 4.8-5.2-.3 2-.9 4-1.8 5.9 0 0 4.8-2 5.1-10.2 0 0 0 1.2 2.3 4.7-.4-3.1.8-7.8 4.3-17.6.5 3.1.6 6.2.4 9.4.1.1 4.3-10.4 2-27.6zm-93.5-14.8c-.3 1.5-.2 3 .2 4.5a59.34 59.34 0 0 1 2.6-9.4s-4.1 17.7 1.8 36.2c-1.2.3-2.2.6-3.1.9-2.5-7.1-7-22.2-1.5-32.2zm-17 68.7c1-2.1 2.2-4.1 3.6-6 .6-.9 1.3-1.8 2-2.6l6.2 3.2c.2.1.4.1.5-.1l3.8-3.5c.2-.2.2-.5 0-.6l-.1-.1c-2.2-1.3-4.5-2.2-7-2.8 1.2-1.3 2.4-2.5 3.6-3.7 1.5.4 3.1.5 4.7.2l1.8-.3-1.4-1c-.9-.7-1.6-1.5-2.1-2.5-.1-.2-.2-.5-.2-.7.1.2.2.4.4.6.6.8 1.3 1.5 2.1 2.2.8.6 1.6 1.1 2.5 1.6s1.8.8 2.7 1.2l2.4.8-1.6-2c-.4-.4-.6-.9-.8-1.4-.1-.5-.1-.9.1-1.4s.6-.8 1-1.2c.2-.1.4-.3.6-.4.1.9.3 1.8.5 2.6l.6 1.8a12.2 12.2 0 0 0 .7 1.7l.7 1.5.7-1.5c.2-.4.3-.7.6-1s.5-.6.9-.8c.2-.1.3-.2.5-.3-.1.6-.1 1.1 0 1.7.2.6.5 1.2 1 1.7.4.4.9.8 1.5 1.1l1.4.7-.4-1.6c-.3-.9-.2-1.9.3-2.8.7-.7 1.6-1.1 2.6-1 2.3-.1 4.6 0 6.9.2 4.6.4 9.1 1.8 13 4.2a29.36 29.36 0 0 1 9.6 9.6 190.09 190.09 0 0 0 3.5 6.1c.9 1.3 1.7 2.7 2.4 4.1l-72.5-5.8c.2-.7.5-1.2.7-1.7zm38.8 20.6a28.48 28.48 0 0 0-2.6-2.3c-.9-.7-1.9-1.4-2.9-2-2.1-1.2-4.3-2.3-6.6-3.1-.2-.1-.3-.2-.2-.4 0-.1.1-.2.2-.2 2.7-.6 5.5-.4 8.1.5 2.7.9 5.1 2.4 7.1 4.3 2 2 3.6 4.4 4.5 7.1.9 2.6 1.1 5.4.7 8.1v.1c0 .2-.2.3-.4.3-.1 0-.2-.1-.2-.2-.9-2.3-2-4.5-3.2-6.6-.6-1-1.3-2-2-2.9-.9-1-1.7-1.9-2.5-2.7zm.7 12.6c0 .2-.2.3-.4.3-.1 0-.2-.1-.3-.2-.4-.8-.6-1.6-.9-2.3s-.7-1.4-1.1-2.1c-.2-.3-.4-.7-.6-1l-.7-.9c-.2-.3-.5-.6-.8-.9l-.3-.4-.4-.4c-1.1-1.1-2.4-2.1-3.8-2.8l-1.1-.6c-.4-.2-.7-.4-1.1-.5-.7-.3-1.5-.6-2.3-.9-.2-.1-.3-.2-.2-.4 0-.1.1-.2.2-.2 1.8-.4 3.7-.2 5.4.4 1.8.6 3.4 1.6 4.8 2.9s2.4 2.9 3 4.7c.3.9.5 1.8.6 2.7.1.8.1 1.7 0 2.6zm-75.1 30.1l-.4-.4c-.2-.3-.5-.6-.7-.8s-.4-.6-.6-.9c-.8-1.2-1.4-2.5-1.7-3.9-.3-1.5-.3-3-.2-4.4.4-3.5 1.6-6.9 3.6-9.9 3.3-1.2 7.6 1.7 8.8 12.9-.8 1.5-1.4 2.9-2.2 4.3-.7 1.3-1.7 2.5-2.9 3.4-.4.3-1 .6-1.5.6s-.9-.1-1.3-.3c-.2-.1-.4-.2-.6-.4-.1 0-.2-.1-.3-.2zm113.1-27.1c-.4 4.6-1.4 9.2-2.9 13.5-1.5 4.4-3.4 8.6-5.9 12.5l-.3.4.3.4c.9 1.3 1.5 2.8 1.9 4.3.3 1.5.4 3.1.2 4.7s-.7 3.1-1.3 4.6l-1.2 2.4c-.2-1-.5-2-1.1-2.9-.9-1.5-2-2.8-3.3-3.9s-2.6-2.1-4.1-3c-1.4-.9-3-1.6-4.5-2.2l-2.1-.8 1.2 1.9c.4.6.6 1.3.9 1.9.2.6.3 1.2.4 1.8-.5-.6-1.1-1.1-1.8-1.6s-1.4-.9-2.2-1.2l-1.7-.7.7 1.7a13.46 13.46 0 0 1 .9 5.6c0 1-.1 2-.2 3 0 .3-.1.7-.1 1-.2-.2-.4-.5-.6-.7-.3-.4-.7-.7-1.1-1l-1.2-.8c-1.5-1-3.2-1.9-4.9-2.5l-2.6-.9c-.9-.3-1.8-.5-2.6-.7s-1.8-.4-2.7-.6l-2.7-.5c-1.4-.2-2.8-.4-4.2-.4s-2.8 0-4.2.1c-2.8.2-5.6.6-8.3 1.3-2.7.6-19.3 9.6-23.7 11.3s-9.2 2.8-13.6 2.5a14.72 14.72 0 0 1-6.2-1.7c-1.9-1-3.4-2.5-4.6-4.4s-2.1-4-2.6-6.2c-.3-1.1-.5-2.3-.6-3.5-.1-.6.2-2 .2-2.6.8.1 1.6.1 2.4-.1.6-.2 1.2-.4 1.7-.8.5-.3.9-.7 1.3-1.1 1-1.1 1.7-2.4 2.2-3.8l.3 2.2c.3 1.6.9 3.1 1.7 4.5 1.8 3 4.6 5.1 8 5.8.4.1.8.2 1.3.3.4.1.8.1 1.2.1.8 0 1.6.1 2.3 0 3-.1 6-.6 8.9-1.6 2.8-.9 5.5-2 8.1-3.5 8.1-4.9 11.3-8.8 15.4-12.8l-9.6 5.8c-2.4 1.4-4.9 2.6-7.5 3.7-2.5 1.1-5 2-7.6 2.8-2.5.7-5.1 1.1-7.8 1.1-.6 0-1.3 0-1.9-.1-.3 0-.6 0-.9-.1l-.8-.2c-1.1-.2-2.2-.7-3.1-1.3-1-.6-1.8-1.4-2.5-2.3a12.89 12.89 0 0 1-1.9-3.2c-1-2.4-1.7-4.9-2.1-7.5 9.4-16.9 17.7-.4 21.6-9.2 2.2-7.8-17.6-14.5-27.4-11.5 5.1-7.4 17.5-8.2 23.4-14.9.6-.6 1-1.3 1.5-2 8.1-2.5 18.1 1.1 21.3 10.2l1.1 3a14.75 14.75 0 0 0 12.4 9.8l13.8 1.4c8.2.9 15.5-5.1 16.3-13.2l1.1-11c.3-2.7 2.7-4.6 5.3-4.3l10.7 1.1c2.2 6.7 2.9 13.6 2.2 20.6zm14.9-56.4c2.7-5.8.7-9.3.7-9.3-1.8 7.9-5.2 9-5.2 9 1.9-2.1 2.1-5.7 2.1-5.7-2.7 4.1-4.8 4.3-4.8 4.3 14.3-20.9 10.6-50.1 10.6-50.1 1.8 9.4 5.4 12.3 5.4 12.3-1.8-4.1-.9-5.5-.9-5.5 8.9 27.1-7.9 45-7.9 45z" fill="#fff"/></g></svg>