<svg xmlns="http://www.w3.org/2000/svg" viewBox="0 0 294 37.7"><path d="M168.7 1H0m168.7 33.5H0" fill="none" stroke="#fff" stroke-width="2" stroke-miterlimit="10"/><g fill="#e51381"><circle cx="187" cy="3.5" r="3.3"/><circle cx="199.9" cy="3.5" r="3.3"/><circle cx="212.9" cy="3.5" r="3.3"/><circle cx="225.9" cy="3.5" r="3.3"/><circle cx="238.8" cy="3.5" r="3.3"/><circle cx="251.8" cy="3.5" r="3.3"/><circle cx="264.7" cy="3.5" r="3.3"/><circle cx="277.7" cy="3.5" r="3.3"/><circle cx="290.6" cy="3.5" r="3.3"/><circle cx="187" cy="13.8" r="3.3"/><circle cx="199.9" cy="13.8" r="3.3"/><circle cx="212.9" cy="13.8" r="3.3"/><circle cx="225.9" cy="13.8" r="3.3"/><circle cx="238.8" cy="13.8" r="3.3"/><circle cx="251.8" cy="13.8" r="3.3"/><circle cx="264.7" cy="13.8" r="3.3"/><circle cx="277.7" cy="13.8" r="3.3"/><circle cx="290.6" cy="13.8" r="3.3"/><circle cx="187" cy="24.1" r="3.3"/><circle cx="199.9" cy="24.1" r="3.3"/><circle cx="212.9" cy="24.1" r="3.3"/><circle cx="225.9" cy="24.1" r="3.3"/><circle cx="238.8" cy="24.1" r="3.3"/><circle cx="251.8" cy="24.1" r="3.3"/><circle cx="264.7" cy="24.1" r="3.3"/><circle cx="277.7" cy="24.1" r="3.3"/><circle cx="290.6" cy="24.1" r="3.3"/><circle cx="187" cy="34.4" r="3.3"/><circle cx="199.9" cy="34.4" r="3.3"/><circle cx="212.9" cy="34.4" r="3.3"/><circle cx="225.9" cy="34.4" r="3.3"/><circle cx="238.8" cy="34.4" r="3.3"/><circle cx="251.8" cy="34.4" r="3.3"/><circle cx="264.7" cy="34.4" r="3.3"/><circle cx="277.7" cy="34.4" r="3.3"/><circle cx="290.6" cy="34.4" r="3.3"/></g><text transform="translate(61.61 26.748)" fill="#fff" font-family="Insignia" font-size="25.069">IRIS</text></svg>