<svg xmlns="http://www.w3.org/2000/svg" xmlns:xlink="http://www.w3.org/1999/xlink" viewBox="0 0 297 299.8"><defs><path id="A" d="M-4.3 35.8h305.6v259H-4.3z"/></defs><clipPath id="B"><use xlink:href="#A"/></clipPath><g clip-path="url(#B)"><path d="M299.6 294.8H2.6" fill="none" stroke="#fff" stroke-width="6" stroke-miterlimit="10"/><path d="M208.5 150.1c-1.8-6.1-3.5-15.3-3.1-21.5.6-9.1-1.6-18.2-6.3-26.1l.3-.8c22.7-45.2-4.1-62.7-4.1-62.7-16.8-9-15.7 2.8-13.4 11 3.2 11.2 1.2 23.2-5.5 32.8-.6.9-1.1 1.5-1.3 1.7-8.1-2.1-16.4-1.5-22.5 2.2-6.7-3.8-15.9-4.4-24.8-2.2-.2-.3-.7-.8-1.3-1.7-6.6-9.5-8.6-21.5-5.5-32.7 2.3-8.2 3.3-20-13.4-11 0 0-26.8 17.5-4.1 62.7l.4 1.1c-2.6 5.4-4.3 11.3-4.9 17.2-.6 7.4-2 14.8-4.2 21.9-2.2 6.4-1.5 13.4 2 19.2-.2-2.9 0-5.8.7-8.6 0 0 2.1 7.4-1 21.5 2.3-1.8 3.9-4.2 4.8-6.9 0 0-5.6 21.6-2.1 49.8 0 0 1.1-18.6 3.5-25.6 0 0-5.5 47.6-3.5 70.7 0 0 .4-19.6 3.5-26.1 0 0 3 25.4-2.8 46.1 0 0 4.4-5.3 5.4-11.6-.5 5.3-2.3 20.7-5.4 27.8 2.1-2.5 4.1-5.2 5.8-8-2 6.3-4.5 16.9-3.1 26.9.7 6.8 7.7 14.3 7.7 14.3-5.1-7.3-2.3-15.9-2.3-15.9-1 5.1.9 10.3 4.9 13.5-3-6.4 4.3-9.2 4.3-9.2-.4 4.5 6.6 10.7 6.6 10.7-1.3-2.5-1.2-5.5.2-7.9 6.2 2.1 5.4 13 5.4 13 4.1-5.4 5.6-18 5.6-18-.6 4.5 5.8 9.9 5.8 9.9-4.4-5.4 4.2-12.2 4.2-12.2-1.9 13.1 9.4 20.3 9.4 20.3-5.6-10.1 6.2-12.4 6.2-12.4 6.2 4.1.6 10.3.6 10.3 8.8.4 13.1-8.8 13.1-8.8.4 7.9 4.3 10.9 4.3 10.9-2.6-4.5 2-9.6 2-9.6-3 5.5 10.3 9.6 10.3 9.6-6.4-4-2.8-15.1-2.8-15.1 4.8.9 8.8 4.1 10.9 8.6.8-7.6-1.8-24.3-1.8-24.3-2.1-21.6 2.7-37.7 2.7-37.7 2.1 2.5 1.9 16.2 1.9 16.2 5.1-43.8-5.4-59.6-6.1-81.8.8 9.6 8 21.1 8 21.1-4.9-15.5-2.7-37.4-2.7-37.4 3.7 5.5 5.1 19 5.1 19 4.8-25.6-3.3-49.7-3.3-49.7 2.5 2.7 5.6 15.2 5.6 15.2.2-8.2-.8-16.4-3.2-24.3 1.1 1.4 2.1 3 3.3 4.6zm-104-96s-3.2 12.7 0 22.6c0 0-1.5-8.5 1-11.3 0 0 4.5 18.1 3.7 22.7.4-1.8 2-8.2 1.7-12.5-.3-4 .5 8.4 3.9 14.8-2.3 1.5-4.3 3.3-6.2 5.4-4.3-6.1-12.5-21.6-4.1-41.7zm74.3 142.5c-3.9 1.6-7.6 3.7-10.9 6.2-5.4 4-12 6.1-18.8 6-6.4-.1-12.6-2.2-17.8-6-3.4-2.5-7.1-4.6-10.9-6.2-8-3.3-12.9-11.3-12.2-19.9.7-8.7 1.2-21 1.2-37.9.5 0 1-.1 1.4-.2.8-.2 1.5-.3 2.1-.5-.7.7-1.3 1.6-1.7 2.5-1.4 3.6.4 7.6 3.9 8.9 3.6 1.4 7.6-.4 8.9-3.9 0-.1 0-.1.1-.2a10.16 10.16 0 0 0 .6-3.4c-.1-1.3-.4-2.5-1.1-3.6s-1.7-2-2.9-2.6c-.6-.3-1.2-.5-1.8-.7s-1.2-.3-1.8-.3c-.7-.1-1.3 0-2 .1-.6.1-1.2.3-1.8.5-1.1.4-2.1.9-3.1 1.3l-.9.3v-5.9c-.1-9.5 7.6-17.3 17.1-17.4 2.3 0 4.5.4 6.6 1.3a45.38 45.38 0 0 1 4.5 2.1c3.7 2 7.9 3 12.2 3.1 4.2 0 8.2-1.1 11.9-3.1a45.38 45.38 0 0 1 4.5-2.1c8.8-3.6 18.9.7 22.4 9.5.9 2.1 1.3 4.4 1.3 6.6v6c-.3-.1-.7-.2-1-.4-1-.4-2-.9-3.1-1.3-.6-.2-1.2-.4-1.8-.5-.7-.1-1.3-.1-2-.1l-1.8.3c-.6.2-1.2.4-1.8.7-1.2.6-2.2 1.5-2.9 2.6s-1.1 2.3-1.1 3.6c-.1 1.2.1 2.4.6 3.5l.1.2c1.4 3.6 5.4 5.3 8.9 3.9 3.6-1.4 5.3-5.4 3.9-8.9-.4-1-1-1.8-1.7-2.5.7.2 1.4.4 2.1.5.5.1 1 .2 1.6.2 0 16.9.6 29.2 1.2 37.9.7 8.5-4.3 16.5-12.2 19.8zm15.1-101c-1.9-2-4-3.8-6.2-5.3 3.3-6.5 4.1-18.7 3.8-14.7-.3 4.2 1.2 10.7 1.7 12.5-.8-4.6 3.6-22.7 3.6-22.7 2.5 2.8.9 11.3.9 11.3 3.1-9.9 0-22.6 0-22.6 8.4 19.9.5 35.3-3.8 41.5zM169.1 192c-.6.7-1.3 1.3-2 1.8-4.3 3.2-10.3 2.6-13.8-1.5-1-1.2-1.7-2.7-2-4.3-.1-.8-.2-1.6-.1-2.4l.1-2.8.2-4.9c.7-.3 1.4-.7 1.9-1.3 2.6-2.6 5.8-4.7 9.2-6.1 1.7-.6 2.6-2.4 2-4-.2-.7-.7-1.3-1.4-1.7l-.7-.4c-8.2-5.1-18.6-5-26.8.2-1.3.8-1.7 2.5-1 3.8.3.5.8.9 1.3 1.1 3.3 1.8 6.2 4.1 8.5 7 .6.7 1.4 1.2 2.2 1.5l.2 4.8.1 2.8v1.2c0 .4 0 .8-.1 1.2-.2 1.6-.8 3-1.8 4.3s-2.4 2.2-3.9 2.9c-1.6.6-3.3.8-4.9.6-1.7-.3-3.3-1-4.7-2.1-.4-.3-.7-.6-1-.9s-.6-.7-.9-1c-.6-.7-1.1-1.4-1.6-2.2-1-1.5-1.6-3.3-1.9-5.1.1 1.9.6 3.7 1.4 5.4a13.77 13.77 0 0 0 1.4 2.4c.3.4.5.8.8 1.1.3.4.6.8 1 1.1 1.4 1.4 3.2 2.4 5.1 2.9 2 .5 4 .5 6-.1s3.8-1.6 5.3-3.1c.6-.6 1.2-1.4 1.7-2.1.5.8 1.1 1.6 1.8 2.2 1.5 1.5 3.4 2.5 5.4 3.1s4.1.6 6.1.1 3.7-1.4 5.2-2.8c.7-.7 1.3-1.4 1.9-2.2.6-.7 1.1-1.5 1.6-2.4.9-1.7 1.5-3.5 1.5-5.4-.2 1.8-.9 3.6-2 5.1-.2.8-.7 1.5-1.3 2.2zM134.5 76.8l.9 1.7.8-.1.9-.1c.4 0 .8 0 1.2-.1h1.4c.5 0 1 .1 1.5.1.5.1 1.1.1 1.6.3l.8.2c.3.1.6.2.8.2s.6.2.8.3l2.4.9c.5.2 1 .5 1.4.7l.6.4.6.3c.4.2.7.5 1 .7s.5.4.7.5c.4.3.6.5.6.5s.2-.2.6-.5c.2-.2.4-.3.7-.5l1-.7.6-.3.6-.4 1.4-.7.8-.3c.2-.1.5-.2.8-.3l1.6-.6 1.6-.4 1.6-.3c.5-.1 1-.1 1.5-.1h1.4c.4 0 .8 0 1.2.1l.9.1.8.1.9-1.7-1-.1 2.9-5.9h-.1l-.1.1-.2.1-.5.2-1 .5c-.7.3-1.4.5-2.1.7-.4.1-.7.1-1.1.1-.2 0-.3-.1-.5-.1-.1 0-.2-.2-.4-.3l-.6-.9a4.67 4.67 0 0 1-.5-1c-.7-1.3-1.3-2.7-1.9-4.1l-1.8-4.1-.1-.3-.1.2-2.2 3.2-1.2 1.5c-.2.3-.4.5-.7.7-.1.1-.2.2-.4.3-.1.1-.3.2-.4 0 0-.1-.1-.1-.1-.2l.1.2c-.2-.3-.3-.6-.4-.9l-.3-.9c-.2-.6-.3-1.2-.5-1.9l-.9-3.7-.9-3.8-1-3.7-.2-.7-.2.7-1.8 7.6-.9 3.7c-.1.6-.3 1.2-.5 1.9l-.3.9c-.1.3-.2.6-.4.9 0-.1.1-.1.1-.2 0 .1-.1.1-.1.2-.1.1-.3 0-.4 0-.1-.1-.3-.2-.4-.3l-.7-.7-1.2-1.5c-.8-1-1.5-2.1-2.2-3.2l-.1-.2-.1.3-1.7 4.1-1.9 4.1c-.2.3-.3.7-.5 1l-.6.9-.2.2c0 .1-.1.1-.2.1-.2.1-.3.1-.5.1-.4 0-.7 0-1.1-.1l-2.1-.7-1-.5-.5-.2-.2-.1-.1-.1h-.1l2.9 5.9h-.8z" fill="#fff"/></g></svg>