<svg xmlns="http://www.w3.org/2000/svg" viewBox="0 0 295.63 37.71"><path d="M170.4 1H0m170.4 33.55H0" fill="#fff" stroke="#fff" stroke-miterlimit="10" stroke-width="2"/><text transform="translate(23.69 25.5)" fill="#fff" font-size="25.07" font-family="Insignia">AMARILDO</text><g fill="#e51381"><circle cx="188.67" cy="3.49" r="3.32"/><circle cx="201.62" cy="3.49" r="3.32"/><circle cx="214.57" cy="3.49" r="3.32"/><circle cx="227.53" cy="3.49" r="3.32"/><circle cx="240.48" cy="3.49" r="3.32"/><circle cx="253.44" cy="3.49" r="3.32"/><circle cx="266.39" cy="3.49" r="3.32"/><circle cx="279.35" cy="3.49" r="3.32"/><circle cx="292.3" cy="3.49" r="3.32"/><circle cx="188.67" cy="13.79" r="3.32"/><circle cx="201.62" cy="13.79" r="3.32"/><circle cx="214.57" cy="13.79" r="3.32"/><circle cx="227.53" cy="13.79" r="3.32"/><circle cx="240.48" cy="13.79" r="3.32"/><circle cx="253.44" cy="13.79" r="3.32"/><circle cx="266.39" cy="13.79" r="3.32"/><circle cx="279.35" cy="13.79" r="3.32"/><circle cx="292.3" cy="13.79" r="3.32"/><circle cx="188.67" cy="24.09" r="3.32"/><circle cx="201.62" cy="24.09" r="3.32"/><circle cx="214.57" cy="24.09" r="3.32"/><circle cx="227.53" cy="24.09" r="3.32"/><circle cx="240.48" cy="24.09" r="3.32"/><circle cx="253.44" cy="24.09" r="3.32"/><circle cx="266.39" cy="24.09" r="3.32"/><circle cx="279.35" cy="24.09" r="3.32"/><circle cx="292.3" cy="24.09" r="3.32"/><circle cx="188.67" cy="34.38" r="3.32"/><circle cx="201.62" cy="34.38" r="3.32"/><circle cx="214.57" cy="34.38" r="3.32"/><circle cx="227.53" cy="34.38" r="3.32"/><circle cx="240.48" cy="34.38" r="3.32"/><circle cx="253.44" cy="34.38" r="3.32"/><circle cx="266.39" cy="34.38" r="3.32"/><circle cx="279.35" cy="34.38" r="3.32"/><circle cx="292.3" cy="34.38" r="3.32"/></g></svg>