<svg xmlns="http://www.w3.org/2000/svg" xmlns:xlink="http://www.w3.org/1999/xlink" viewBox="0 0 297 299.3"><defs><path id="A" d="M-34.3 37.3h365.6v259H-34.3z"/></defs><clipPath id="B"><use xlink:href="#A"/></clipPath><g clip-path="url(#B)"><path d="M303.4 297.5H6.4" fill="none" stroke="#fff" stroke-width="6" stroke-miterlimit="10"/><g fill="#fff"><path d="M193 247.3s0-.1.1-.2c-.1.1-.1.1-.1.2zm1.7 15l.2 1.3c0-.4-.1-.8-.2-1.3zM96.4 276l.3.6c-.2-.3-.2-.5-.3-.6zm90.9-49.8v.4-.4zm0 .5v.4c0 .2 0-.2 0-.4zm.9-11.2l-.1-.2zm-59-93.6a17.61 17.61 0 0 1 4.4-1.5c.8-.2 1.6-.3 2.5-.4.4-.1.9-.1 1.3-.2.5 0 1-.1 1.4-.2-.4-.3-.8-.6-1.2-.8l-1.3-.6c-.9-.3-1.9-.6-2.9-.7-2.1-.2-4.2.2-6 1.2s-3.3 2.5-4.2 4.4c-.5.9-.8 1.8-1 2.8s-.2 1.9-.1 2.9c1-1.5 2.1-2.9 3.3-4.1 1.2-1.1 2.4-2 3.8-2.8zm6 5.5c-5.1 1.2-8.2 6.4-7 11.5s6.4 8.2 11.5 7 8.2-6.4 7-11.5c-1.3-5.1-6.4-8.2-11.5-7z"/><path d="M217.9 156.4c-.3-2.7-1.2-5.3-2.6-7.6-1.2-2-2.8-3.7-4.6-5.2.1-1.4-.2-2.8-.8-4.1s-1.4-2.4-2.5-3.3l-.2-.3c.4-1.5.4-3 0-4.5v-.1c1.4-.5 2.9.1 4.5 1.1-1.3-2.1-3-4.1-4.9-5.7.1-.5.1-1.1 0-1.6-.1-.7-.3-1.4-.6-2 2.8-2 3.9-6.9 3.9-6.9-3.1 3.1-5.7.2-5.7.2 1.2-5.1 8.6-4.4 8.6-4.4-2.2-3.9-6.1-6.4-10.5-6.8-.3-3.6 1.7-8.8 1.7-8.8.1 1.6 2.3 3 2.3 3-2-2.6 1.1-13.8 1.1-13.8 3.3.9 3.1 7.2 3.1 7.2 2.8-11.5-5.3-26.2-5.3-26.2 1.6-1.4 5.6 3.7 5.6 3.7-2.3-7.5-12.8-19.8-12.8-19.8-3.3-4.2 3.4-1.3 3.4-1.3-1.6-2.2-6.1-4.8-8.5-4.3 1.2-.8 2.5-1.3 3.9-1.6-13.4-.8-12.1 8-12.1 8-1.6-.9-2.3-3.8-2.3-3.8-.3 1.5.5 4.2 1.3 6.2-.6-.6-1.5-.6-2.1-.1 2.6.3 1.7 8.8 1.7 8.8-1.4 0-2.5-1-2.8-2.4-1 3.7 2 6.6 3.1 7.5-1.5-.8-3.4 1.5-3.4 1.5 4.9 1.2.9 6.7.9 6.7-.4-1.2-1.7-1.7-2.9-1.3 0 0-.1 0-.1.1 1.9 1.6 1.1 8.2 1.1 8.2-1.9-.4-2.6-3.3-2.6-3.3-.8 3.4 1.8 6 1.8 6-4.7 2.9-3.4 5.2-3.4 5.2 0-2.1 1.9-1.2 1.9-1.2-.6 1.3-1.4 2.6-2.2 3.7.2-9.4-10.9-16.2-10.9-16.2 2.9 15.3-16.3 16.8-16.3 16.8 1.8-1.7-.4-8.5-.4-8.5.6 7-14.8 9.8-14.8 9.8-2.5-4.5 2-8.8 2-8.8-2.1 1.1-4.1 2.6-5.9 4.2-.1-1-.6-2.6-2.4-4.6 0 0 3.5-1.9 3.8-5.6 0 0-1.7 2.8-3.8 2.6 0 0 1.3-7.1 3.8-8.1-1-.9-2.5-.8-3.4.2 0 .1-.1.1-.1.2 0 0 .6-6 4.3-6.6 0 0-1.3-3.1-3-2.7 1.4-.6 5.5-2.5 5.7-6.7-.7 1.3-2.2 1.9-3.6 1.5 0 0 2-9.1 4.7-8.5-.4-.8-1.4-1-2.2-.6 1.4-1.8 3.2-4.2 3.4-5.9 0 0-1.7 2.8-3.6 3.2 1.1-2.3.7-5-1.1-6.8 0 0-.5-2 2.4-2.4 0 0-2.9-1.8-6.6 2 .9-4.3-8-2.9-11.2-.6 0 0 7.9-.8 3.1 2.5 0 0-9.8 8.1-11.1 2.4 0 0-2.3 4.7 2.9 6.2-4.7.8-8.9 3.5-11.6 7.5 0 0 5.9-4 7-2 0 0-13.2 12.4-14.1 25.2 0 0 1.9-6.6 5.6-6.4 0 0-.5 12.6-3.4 14.6 0 0 2.7-.7 3.3-2.3 0 0 .6 10.1-2.9 12 2-.6 3.6-1.9 4.5-3.8 0 0-3.5 7.7-1.9 11.6-.4-3 .8-5.9 3.1-7.8 0 0-1 8.2 1.1 11.3-1.9 1.7-3.2 3.9-3.9 6.4 0 0 5-3.5 6.7.2 0 0-12.3 5-10.7 16.1 0 0 2.1-10.4 13.2-4.7 0 0-8.8 1.4-5.9 8.7 0 0 1.3-4.8 5.1-2.9 0 0 3.8 8.7-1.9 12.3 1.1.1 2.2.1 3.2 0-5.1 4.8-12.7 12.8-13 17.5.6-2.4 2.6-4.1 5-4.4 0 0-2.2 20.4-7.3 25.5 0 0 3.5 1 5.2-1.3 0 0-5 9.9-6 19.4 0 0 2.8-6.7 4.9-7.1 0 0-4.9 10.3-4.4 17.9 0 0 1.3-6.1 4.4-5.9 0 0 .5 17.8-3.8 19.5 1.1.1 2.2-.2 3-.9-1.7 3.6-3.3 8.6-1.8 12.7 0 0 1.7-8.7 4.4-7.8 0 0-6.5 11.8-3.9 17.6-.3-3.2 1-6.3 3.5-8.2 0 0 1.6 16.6-2.7 19.2 1.1 0 2.2-.4 3.2-1-2 3.9-4 9.8-1.7 15.3-.8-2.4-.4-5 1.2-7 0 0-1.4 5.8.6 14.6 0 0 .1-2 3.1-5.4-1.1 7.5-3.8 14.7-8.1 21 0 0 5.1 2.6 12.9-.6-.4 2.8-2.2 5.3-4.7 6.6 0 0 6.1 2.3 10.2-2.5 0 0 4.3-.7 3 5.3 2-.6 3.5-2.2 4.1-4.2.3 2.9 1.5 7.1 6 11.3-1.3-2.3-1.3-5.1.1-7.3 0 0 9.2 7.2 5.8 11.3 0 0 5.4-4.2 3.8-10.5 0 0 13-1.3 19.5 19.5 0 0 2.6-2.9.3-12.2 0 0 6 4 6.2 10.6 1.2-1.8 1.6-4 1.3-6.1 1.1 3 3.1 5.5 5.9 7.2 0 0-.7-1.7-.1-6 0 0 1.4 8.9 9.9 11.9 0 0-2.6-4.8 2.9-7.4 0 0 3 8.8 10.6 8.2 0 0-2-3.6.7-9.5 4.9 2.6 7.6 7.9 6.9 13.4 0 0 5.4-8.5-1.7-19.2 0 0 3.2-1.5 4.4 3.1.6-3.3 0-5.5-3.4-11.7.5.5 1.1 1.1 1.8 1.5 0 0-4.2-7.9-3.3-16.8 0 0 2.5 2.8 2.2 10 0 0 3.4-5 .1-14.4-.5-1.4-1.3-2.8-2.2-4-4.1-5.5-6.6-12-7.1-18.9 0 0 5 4.6 4.9 10.1 0 0 .2-11-4.6-19 0 0 4.2 1.3 5.2 3.6-.7-4.1-2.6-8-5.3-11.1 1.1 1.2 5.4 5.8 7.1 3.7-4-3.2-6.7-7.8-7.4-12.9 0 0 4.5 2.2 4.1 5 .2-1.1.6-5.4-3.6-10.7-2.5-3.1-4.4-6.7-5.5-10.6-.6-2.4-1-4.9-1.2-7.4 2.9 1.6 4.7 4.6 4.5 7.9 0-2.2-.2-8.3-3-13.4 1.6 1.3 3.4 2.3 5.3 3.1 1.8 4.6 6.4 7.6 11.4 7.5h.4c5-.2 9.4-3.5 10.9-8.3v-.1c4-15.4 1-28.6-7.8-34.8l.9-4.9.5.1c1.6.1 3.2-.3 4.5-1.2 1.2-.8 2.2-1.7 3.1-2.8 1.7-2.1 2.9-4.5 3.7-7.1.8-2.9 1.1-5.6.8-8.2zm-116.2-44.7c-.1-1.1-.3-4.1 1.3-5.1.5 1.1 1 2.2 1.6 3.3-1.1.4-2.1 1.1-2.9 1.8zm83.7-13.1l5.5-3.7c-1.4.9-3 1.4-4.6 1.6.3-1.3.5-2.5.5-3.8 2.1-1.5 4.4-2.7 6.8-3.7-1.7-.2-3.4-.2-5 .2l-.3.1.3-.1c1.3-.4 6.9-2.5 7.1-10.4 0 0-2.5 4.6-5.3 3.8.5-4.2 2.2-8.2 5-11.4 0 0-3.4-.5-6.2 3.5 0 0 2.1-19.8 7-12.3 0 0 7.8 10.9 5.1 18.8.1-.3.4-1.9-1.6-5.8 0 0-.8 9.4.5 11.9 0 0-1.5 1.1-2.5-1.8 0 0-1.1 5.7.8 6.8 0 0-2.1.8-2.6-1.8.1 2 .2 5.7-.6 8.2h-.7c0-1.2-.3-2.4-.9-3.4-.7 1.1-1.2 2.3-1.7 3.5-3.2.4-6.3 1.1-9.3 2.1 1.1-.4 2-1.2 2.7-2.3zm-57.2-7.5c-.4.5-.9.9-1.3 1.3-.1-.6-.3-1.3-.3-1.9 0 0 1.2-.1 1.6.6zm-16.5 17.3c-.1-4.8-.6-9.7-1.6-14.4-1.3 1.6-1.9 3.6-1.6 5.6-1.5-2.7-.4-8.5.3-11.1-1 2.7-2.9 1.5-2.9 1.5 2.1-.9 2.1-7.2 2.1-7.2-1.5 2.9-2.8 1.5-2.8 1.5 1.8-2.5 2.8-12.8 2.8-12.8-2.8 3.8-2.8 5.6-2.7 5.9v.1-.1c-1.1-9 8.7-19.5 8.7-19.5 6.3-7.3 4.5 14.5 4.5 14.5-2-4.9-5.4-4.9-5.4-4.9 2.1 4 3.1 8.6 2.7 13.1-2.9.3-4.5-5-4.5-5-1.3 8.5 3.8 11.8 5 12.4l.3.1-.3-.1c-1.6-.7-3.2-1-4.9-1 2.5 1.5 10.5 8.7 7.6 9.4s-6.2-2.5-6.2-2.5l8.3 8.7v.2s-8.4 3-9.2-4.8c0 0-.5 8.8 2.5 10.6-.8-.1-1.8-.2-2.7-.2zm13.2 65.2s-3.5-17-6-25.1c0 0-13.8-35.1 15.3-34.3 0 0 15.9-.8 19.4 9.2 0 0 2.7-3 .6-10.2 0 0 4.2 8 16.3 10.1 0 0-5.5-3.7-4.7-9.2 0 0 8.1-2.7 15 2.4 0 0 .6-3.1-2.3-6.8 5.2 2 9 6.7 10 12.2 0 0 6.5-3.4 3.9-9 2.6 1.3 4.8 3.4 6.1 6h-.1c-.7.1-1.5.4-2.1.7l-.9.6c-.3.2-.6.5-.8.8.4.1.7.2 1.1.3.3.1.7.2 1 .2.6.2 1.2.3 1.8.4s1 .3 1.5.4c.2.7.2 1.4.3 2.2-3.4-.8-6.9.4-9.1 3a18.52 18.52 0 0 1-3.3-2.1c-1.1-.9-2-2-2.6-3.3.2 1.5.8 2.9 1.8 4 1 1.2 2.1 2.2 3.3 3.1 2.4 1.7 4.9 3.2 7.5 4.6 1.7 1 3.3 1.9 4.8 2.9a18.62 18.62 0 0 0-4.7-.9c-6.5-.4-13 1.5-18.1 5.6l-.4.3c-2.3 1.9-1 5 2.2 5.5 5.3.8 10.4 2.9 14.6 6.2.6.5 1.4.8 2.2 1-.1 2-.2 4.1-.1 6.1-.2 2.1-.5 4.2-1.1 6.2-.6 1.9-1.5 3.7-2.7 5.2a11.46 11.46 0 0 1-4.5 3.4c-1.8.7-3.8 1.1-5.7 1.1-2 0-4.1-.2-6.1-.7-4.1-1-7.9-2.5-11.6-4.6-3.7-2-7.1-4.5-10.2-7.3l-.6-.5-.2-.2c-.1-.1-.2-.2-.3-.2-.2-.1-.4-.3-.7-.3-.9-.3-2-.2-2.8.4-.4.3-.8.7-1 1.2-.1.3-.2.5-.2.8v.7l.3 1.6c.5 2.2 1.1 4.3 2 6.4 1.7 4.2 4.3 7.9 7.6 11a36.03 36.03 0 0 0 8.3 5.7c.5.2 5.1 2.7 6.3 3.5 4.2 2.6 9 5.6 11.3 13.4l.5 1.5c-15.6-12.2-59.5-1.1-62.1-35.2zm84.4 40.5c-1.6 4.7-6.7 7.3-11.4 5.7-2.6-.9-4.7-2.9-5.6-5.5l-2.9-7.9c-2.6-8.9-8.2-12.4-12.6-15.1-3.6-2.2-9.4-6-9.3-5.9 0 0 5.3-7 22.9-2l.2.1v.1l.3.1.4.1c.3.1.5.2.7.3s.5.2.7.4l.8.4c1 .6 1.9 1.2 2.7 2 1.7 1.6 3.1 3.5 4.1 5.6 1.1 2.1 1.9 4.4 2.5 6.7.3 1.2.5 2.4.7 3.6l.4 3.6v-3.7l-.3-3.7c-.3-2.5-.9-5-1.7-7.3-.9-2.4-2.1-4.7-3.8-6.8-.9-1-1.8-2-2.9-2.8l-.8-.6-.9-.6-.1-.2c1.9-1.9 6.9.5 6.9.5 9.5 4.7 13 17.5 9 32.9zm4.5-50.7c-.6 2.1-1.5 4.1-2.9 5.9-.6.8-1.4 1.5-2.3 2.1-.7.5-1.6.8-2.4.7a3.09 3.09 0 0 1-2-1.1c-.6-.8-1.2-1.7-1.5-2.7-.7-2.2-1.2-4.4-1.3-6.7-.1-.8-.1-1.6-.1-2.4.1-1.6.1-3.2 0-4.8 1.2-.3 2.2-1 2.9-1.9l4-6.1c1.6 1.3 3 2.8 4.1 4.5 1.1 1.9 1.9 3.9 2.1 6.1.1 2 0 4.2-.6 6.4z"/></g></g></svg>