<svg xmlns="http://www.w3.org/2000/svg" xmlns:xlink="http://www.w3.org/1999/xlink" viewBox="0 0 297 298"><defs><path id="A" d="M-34.3 5h365.6v288H-34.3z"/></defs><clipPath id="B"><use xlink:href="#A"/></clipPath><g clip-path="url(#B)"><path d="M298.4 294.1H1.4" fill="none" stroke="#fff" stroke-width="6" stroke-miterlimit="10"/><path d="M144.3 268.4c.2 2.1 1.1 4.1 2.5 5.7l5.8-8.2-.7-7.8c-4.8 1-8 5.4-7.6 10.3zm19.3-1.7c-.4-4.9-4.4-8.7-9.3-8.8l.7 7.8 7.2 7c1.1-1.8 1.6-3.9 1.4-6zm29.9 50.8c2.7-2.7 2.7-7.1 0-9.8-.3-.3-.5-.5-.8-.7 1.1-2.3.9-5.1-.5-7.2-.2-.2-.3-.5-.5-.7 3.5-2.9 4.3-8 1.9-11.8-.3-.5-.7-1-1.2-1.5 2.7-3.2 2.4-8-.8-10.7-.3-.3-.6-.5-1-.7 1.9-3 1.9-6.8 0-9.7-.1-.2-.3-.4-.4-.6 1.5-2.4 1.6-5.5.1-8 3.3-1.9 4.4-6.1 2.6-9.4-.2-.3-.4-.7-.7-1-10.1 5.9-21.2 9.7-32.8 11 6 2.9 8.5 10.2 5.5 16.2-2.9 6-10.2 8.5-16.2 5.5-6-2.9-8.5-10.2-5.5-16.2a12.71 12.71 0 0 1 4.8-5.2c-6.3-.3-12.5-1.4-18.4-3.2-7.5-2.3-14.7-5.6-21.2-9.9-.5.6-.8 1.2-1.1 1.9-1.2 3-.1 6.3 2.5 8.2-1.7 2.3-2 5.4-.6 8l-.5.5c-2.2 2.8-2.5 6.6-.8 9.7-3.7 1.9-5.2 6.4-3.4 10.2.2.4.4.7.6 1-.5.4-.9.9-1.3 1.3-2.8 3.6-2.5 8.8.8 12-.2.2-.4.4-.6.7-1.6 2-2 4.7-1.1 7.2-3.3 2-4.3 6.2-2.4 9.5l.6.9c-3.6 1.4-5.3 5.4-3.9 8.9a6.81 6.81 0 0 0 3.9 3.9c.7.3 1.5.4 2.2.5a7.56 7.56 0 0 0 10.1 3.6 7.63 7.63 0 0 0 2.8-2.2l.1-.1.2.2a7.53 7.53 0 0 0 10.4-1.1c2.7 4.2 8.3 5.3 12.5 2.6.8-.6 1.6-1.2 2.2-2 .2-.2.4-.5.5-.8.4.5.8.9 1.3 1.3 3 2.3 7.2 2.1 9.9-.6 1.5 3.9 5.9 5.8 9.8 4.3 1.3-.5 2.4-1.3 3.2-2.4.3-.4.5-.7.7-1.1 3.3 2.3 7.9 1.6 10.3-1.6 2.5 1.9 5.9 2.1 8.6.5 2.8 2.6 7.2 2.3 9.7-.5 2.6-2.8 2.3-7.2-.5-9.7-.5-.6-1.1-1-1.6-1.2zm-32.8-43l-5.4-5.2.7 7.7c1.7-.3 3.4-1.2 4.7-2.5zm-7.8-4.9l-4.3 6.1c1.5 1 3.2 1.5 5 1.6l-.7-7.7zm28.2-118.8c-.4 1.7-1.8 2.8-3.5 2.8h-.2c-3.7.1-7 2.3-7.6 5.5-.1.6-.5 1.2-1 1.6 0 .2.1.5.1.7l1 3.7c.7 2 1.6 3.9 2.9 5.7 1 1.6 2.6 2.9 4.3 3.6.8.3 1.7.4 2.5.2.9-.2 1.8-.5 2.6-1 1.8-1 3.2-2.5 4.2-4.3a13.1 13.1 0 0 0 1.5-6.1c.1-2.2-.3-4.5-1.1-6.6-.6-1.4-1.3-2.7-2.3-3.8l-3.4-2zm35.4-17.7c-.4-8.6-5-16.3-12.3-20.8-.4-1.5-1.3-2.8-2.4-3.9 1.3-2.3 1.4-5.1.3-7.5-.2-.5-.4-.9-.7-1.3l1.3-2.5c26-38 3.9-57 3.9-57-14-10.1-14.5.6-13.5 8.3 1.2 8.7-.8 17.4-5.6 24.7-1.7-2.6-4.7-4.1-7.8-4.1h-.1c-.9-6-6.6-10.2-12.6-9.3-2.1.3-4.1 1.3-5.7 2.7a8.62 8.62 0 0 0-11.1 0c-4.5-4.1-11.5-3.8-15.6.8-.8.9-1.5 2-2 3.1 0 0 0 .1-.1.1-4.3-2.3-9.7-.8-12.3 3.3-.2.3-.4.7-.6 1h-.9a11.13 11.13 0 0 0-8.2 3.6 79.1 79.1 0 0 1 .3-23.8s8.3-28.2-15.4-6.3c0 0-26.9 26.8 1 61.4l.9.9c-.5 1.3-1.1 2.5-1.9 3.7-.9.6-1.7 1.3-2.5 2.1-4.2 4.5-3.9 11.6.7 15.7.7.7 1.6 1.3 2.5 1.7-.1.4-.2.7-.3 1.1a6.5 6.5 0 0 0 .9 4.3c-3.5 2.8-4.1 8-1.2 11.5.6.7 1.3 1.3 2.1 1.8-2.3 3-1.7 7.4 1.4 9.6.1.1.2.1.3.2-.1.2-.1.4-.1.6-.5 3.2.9 6.3 3.6 8.1-2.2 3.1-1.4 7.4 1.8 9.6.4.3.8.5 1.2.7-1.2 2.6-.8 5.7 1.1 7.9l-.3.6c-1.5 3.2-1 7 1.3 9.6-3.2 2.6-3.7 7.4-1.1 10.7.2.3.5.6.8.8-.4.5-.7 1-1 1.6-2 4.1-.5 9.1 3.4 11.5-.1.2-.3.5-.4.8-1.1 2.3-.9 5.1.4 7.2-1.4 1.3-2.2 3.1-2.2 5.1-.2.3-.4.7-.5 1.1 7.4 5.7 15.7 10 24.7 12.7 20.9 6.2 41.8 2.5 62.3-11l-.2-.4v-1.1c-.1-1.5-.7-3-1.7-4.1 1.6-2.1 1.9-4.8 1.1-7.2-.1-.3-.2-.5-.3-.8 4.1-2.1 6-6.9 4.4-11.1-.3-.7-.7-1.5-1.1-2.1.8-2.6.7-5.4-.4-7.9-.1-.3-.3-.6-.5-1 .5-.7.8-1.6.9-2.4.2-1 .1-2.1-.2-3.1a10.64 10.64 0 0 0 .9-2.5c.3-1.8-.1-3.6-1.1-5.2 2.7-1.3 4.2-4.1 3.9-7a6.18 6.18 0 0 0-.9-2.7c3.5-1.5 5.1-5.6 3.6-9.1-.3-.6-.7-1.2-1.1-1.8.7-.6 1.2-1.4 1.6-2.3 1.1-2.3 1-4.9-.3-7.1 8.5-4.2 14.1-13.7 13.6-23.8zm-12.1-79.8c.4-.3.9-.6 1.4-.6 1.6-.1 3 1.1 3.1 2.7.2 1.4-.6 2.8-2 3.2a32.22 32.22 0 0 1-.3 6.2c1.2.7 2 1.9 2.1 3.3.2 1.6-.5 3.2-1.9 4.1.1 1.8-.9 3.4-2.5 4.1.5.6.7 1.4.8 2.1.3 2-.8 3.9-2.7 4.5.8.9 1.2 2.1 1.4 3.3.6 3-1.2 5.9-4.2 6.5-.4.1-.9.1-1.3.1l-1.1 3.3c-.8-.3-1.7-.5-2.5-.6a10.82 10.82 0 0 0-5.6-8.9c11-7.4 12.2-31.7 15.3-33.3zm-110.5 39c.3-1.2.9-2.2 1.7-3.1-1.8-.9-2.7-2.9-2.2-4.8.2-.7.6-1.4 1.1-2a4.16 4.16 0 0 1-2.1-4.4c-1.2-1.1-1.8-2.7-1.4-4.3.3-1.3 1.2-2.5 2.4-3.1-.1-2.1.1-4.1.4-6.2-1.3-.6-2-2-1.6-3.4.3-1.6 1.8-2.6 3.3-2.3.5.1 1 .4 1.3.8 2.9 2 1.4 27 12 35.3-.8 1.6-1.3 3.4-1.3 5.2l-.2.2c-3.1-.2-6.1 1.2-7.9 3.7l-.9-4.3c-.2 0-.5-.1-.7-.1-2.9-.9-4.7-4.1-3.9-7.2zm106.6 60.4c-4.6 2-9.8 2.2-14.6.5.8.8 1.5 1.8 2.1 2.8 1.2 2.2 1.9 4.5 2.1 7 .3 2.2.1 4.4-.6 6.4.4 1.1.7 2.2 1 3.4.4 1.9.7 3.9.7 5.9.3 8.5-4 16.5-11.3 21-1.8 1.1-3.6 2-5.6 2.7-1.9.7-4 1.2-6 1.6-2 .3-4.1.5-6.1.5s-4.1-.2-6.1-.5c-4-.6-7.9-2-11.4-4a23.91 23.91 0 0 1-8.7-8.3 19.53 19.53 0 0 1-2.9-11.3c.4 1.9.9 3.7 1.7 5.4s1.8 3.2 3 4.7c2.4 2.7 5.3 4.9 8.6 6.4s6.8 2.4 10.4 2.8c1.8.2 3.6.3 5.4.2s3.6-.3 5.3-.6 3.5-.8 5.1-1.4 3.2-1.4 4.7-2.2c3-1.8 5.6-4.2 7.5-7.1 1.9-3 3.2-6.4 3.7-10 .3-1.8.4-3.7.4-5.6v-2c-.5 1-1.1 2-1.8 2.9-.8 1-1.8 1.9-2.9 2.7-1.2.8-2.4 1.4-3.8 1.7-1.5.3-3 .3-4.4-.2-1.4-.4-2.6-1.1-3.7-2-1-.9-1.9-1.8-2.7-2.9-.6-.9-1.2-1.8-1.7-2.7-.1.2-.2.5-.3.8-.9 2-2.3 3.8-3.9 5.3-1.7 1.5-3.7 2.5-5.9 3.1a11.96 11.96 0 0 1-6.5 0c-2.1-.6-4-1.6-5.6-2.9s-2.9-2.9-4-4.6c-1-1.7-1.9-3.5-2.5-5.3 1 1.6 2.2 3.2 3.5 4.6s2.7 2.6 4.3 3.6c2.9 1.9 6.6 2.5 9.9 1.4 3.2-1.2 5.7-3.6 6.9-6.8 1-2.6 1.4-5.4 1.1-8.2l-.1-.5c-.3-.2-.6-.5-.8-.8l-.3-.5c-2.1-2.9-5.6-4.4-9.2-4.1h-.2c-4.5.3-7.3-4.2-4.1-7 5.7-4.9 16.2-9 25.5-3.7-1.5-2.5-2.5-5.4-2.8-8.3-12.6-4.7-20.1.8-23.1 4 .1 11.3-9 20.6-20.3 20.8-11.3.1-20.6-9-20.8-20.3-.1-11.3 9-20.6 20.3-20.8 9.6-.1 18 6.4 20.2 15.7 4.4-3.5 12.2-7.2 23.6-3.5 1.1-10.9 10.9-18.8 21.8-17.7 3.3.3 6.5 1.5 9.2 3.4 8.9 7.2 10.3 20.3 3.1 29.3-1.7 2.1-3.9 4-6.4 5.2z" fill="#fff"/></g></svg>