<svg xmlns="http://www.w3.org/2000/svg" viewBox="0 0 299.01 37.55"><path d="M173.72 1.16H0m173.72 33.57H0" fill="#fff" stroke="#fff" stroke-miterlimit="10" stroke-width="2"/><text transform="translate(22.74 25.67)" fill="#fff" font-size="25.08" font-family="Insignia">ELISABETE</text><g fill="#e51381"><circle cx="192.01" cy="3.32" r="3.32"/><circle cx="204.97" cy="3.32" r="3.32"/><circle cx="217.93" cy="3.32" r="3.32"/><circle cx="230.89" cy="3.32" r="3.32"/><circle cx="243.85" cy="3.32" r="3.32"/><circle cx="256.81" cy="3.32" r="3.32"/><circle cx="269.77" cy="3.32" r="3.32"/><circle cx="282.73" cy="3.32" r="3.32"/><circle cx="295.69" cy="3.32" r="3.32"/><circle cx="192.01" cy="13.62" r="3.32"/><circle cx="204.97" cy="13.62" r="3.32"/><circle cx="217.93" cy="13.62" r="3.32"/><circle cx="230.89" cy="13.62" r="3.32"/><circle cx="243.85" cy="13.62" r="3.32"/><circle cx="256.81" cy="13.62" r="3.32"/><circle cx="269.77" cy="13.62" r="3.32"/><circle cx="282.73" cy="13.62" r="3.32"/><circle cx="295.69" cy="13.62" r="3.32"/><circle cx="192.01" cy="23.93" r="3.32"/><circle cx="204.97" cy="23.93" r="3.32"/><circle cx="217.93" cy="23.93" r="3.32"/><circle cx="230.89" cy="23.93" r="3.32"/><circle cx="243.85" cy="23.93" r="3.32"/><circle cx="256.81" cy="23.93" r="3.32"/><circle cx="269.77" cy="23.93" r="3.32"/><circle cx="282.73" cy="23.93" r="3.32"/><circle cx="295.69" cy="23.93" r="3.32"/><circle cx="192.01" cy="34.23" r="3.32"/><circle cx="204.97" cy="34.23" r="3.32"/><circle cx="217.93" cy="34.23" r="3.32"/><circle cx="230.89" cy="34.23" r="3.32"/><circle cx="243.85" cy="34.23" r="3.32"/><circle cx="256.81" cy="34.23" r="3.32"/><circle cx="269.77" cy="34.23" r="3.32"/><circle cx="282.73" cy="34.23" r="3.32"/><circle cx="295.69" cy="34.23" r="3.32"/></g></svg>