<svg xmlns="http://www.w3.org/2000/svg" viewBox="0 0 295.76 37.55"><path d="M170.47 1.16H0m170.47 33.57H0" fill="#fff" stroke="#fff" stroke-miterlimit="10" stroke-width="2"/><text transform="translate(37.17 25.67)" fill="#fff" font-size="25.08" font-family="Insignia">WESLEY</text><g fill="#e51381"><circle cx="188.76" cy="3.32" r="3.32"/><circle cx="201.72" cy="3.32" r="3.32"/><circle cx="214.68" cy="3.32" r="3.32"/><circle cx="227.64" cy="3.32" r="3.32"/><circle cx="240.6" cy="3.32" r="3.32"/><circle cx="253.56" cy="3.32" r="3.32"/><circle cx="266.52" cy="3.32" r="3.32"/><circle cx="279.48" cy="3.32" r="3.32"/><circle cx="292.44" cy="3.32" r="3.32"/><circle cx="188.76" cy="13.62" r="3.32"/><circle cx="201.72" cy="13.62" r="3.32"/><circle cx="214.68" cy="13.62" r="3.32"/><circle cx="227.64" cy="13.62" r="3.32"/><circle cx="240.6" cy="13.62" r="3.32"/><circle cx="253.56" cy="13.62" r="3.32"/><circle cx="266.52" cy="13.62" r="3.32"/><circle cx="279.48" cy="13.62" r="3.32"/><circle cx="292.44" cy="13.62" r="3.32"/><circle cx="188.76" cy="23.93" r="3.32"/><circle cx="201.72" cy="23.93" r="3.32"/><circle cx="214.68" cy="23.93" r="3.32"/><circle cx="227.64" cy="23.93" r="3.32"/><circle cx="240.6" cy="23.93" r="3.32"/><circle cx="253.56" cy="23.93" r="3.32"/><circle cx="266.52" cy="23.93" r="3.32"/><circle cx="279.48" cy="23.93" r="3.32"/><circle cx="292.44" cy="23.93" r="3.32"/><circle cx="188.76" cy="34.23" r="3.32"/><circle cx="201.72" cy="34.23" r="3.32"/><circle cx="214.68" cy="34.23" r="3.32"/><circle cx="227.64" cy="34.23" r="3.32"/><circle cx="240.6" cy="34.23" r="3.32"/><circle cx="253.56" cy="34.23" r="3.32"/><circle cx="266.52" cy="34.23" r="3.32"/><circle cx="279.48" cy="34.23" r="3.32"/><circle cx="292.44" cy="34.23" r="3.32"/></g></svg>