<svg xmlns="http://www.w3.org/2000/svg" viewBox="0 0 748.27 202.82"><defs><style>.cls-1{fill:#fff;}.cls-2{fill:#e34011;}.cls-3{fill:#2d2d2d;}</style></defs><title>Asset 2</title><g id="Layer_2" data-name="Layer 2"><g id="Layer_1-2" data-name="Layer 1"><path class="cls-1" d="M658.74,185.13c1.89-6.74.27-13.83-4.74-17.88,4.11-4.43,9.31-12.17,15.06-22.31h77.35a1.86,1.86,0,0,0,1.86-1.86V117.79a1.86,1.86,0,0,0-1.86-1.86H683.9c3.66-7.82,7.37-16.22,11-25,.56-1.34,1.11-2.67,1.65-4h49.86a1.86,1.86,0,0,0,1.86-1.86V59.78a1.86,1.86,0,0,0-1.86-1.86H707.47C718.46,26.06,723,2.33,717.8.16,712-2.23,696.16,22.34,679.71,57.92H605.09a1.86,1.86,0,0,0-1.86,1.86V85.07a1.86,1.86,0,0,0,1.86,1.86h62.12c-4.08,10.15-7.7,19.93-10.78,29H605.09a1.86,1.86,0,0,0-1.86,1.86v25.29a1.86,1.86,0,0,0,1.86,1.86h42.75c-1.92,8-3,14.49-3.08,19.07a15.38,15.38,0,0,0-14,8.8,15.21,15.21,0,0,0-1.43,7,20.94,20.94,0,0,1-8.8,18.17l-.75.51C636,208.44,654.58,200,658.74,185.13Z"/><path class="cls-2" d="M55.61,62.33c.61-1.54,1.11-2.92,1.7-4.25,3.52-8,7.07-16.06,10.57-24.1a1.43,1.43,0,0,1,1.55-1c7.86,0,15.71,0,23.57,0h1.11c-.29.74-.52,1.39-.81,2-1.88,4.08-3.79,8.13-5.65,12.21-2.14,4.7-4.23,9.43-6.35,14.14-.38.86-.27,1.11.7,1.12q8.34.11,16.68.17H103V88.93h-1c-10.56,0-21.13,0-31.69,0a1.49,1.49,0,0,0-1.62,1q-4.16,9.62-8.36,19.21c-.46,1-.94,2.07-1.51,3.33h44v26.4h-1.11q-23.56,0-47.13,0c-2.06,0-4.12.11-6.18.12a1.75,1.75,0,0,0-1.82,1.26c-4,9.14-8,18.26-12.05,27.39a1.17,1.17,0,0,1-1.28.86c-7.12,0-14.24,0-21.36-.05-1,0-2-.12-3.11-.19l12.85-29.51c-7.33-.29-14.43-.09-21.58-.19V112.31H1.15q15.63,0,31.25,0a1.34,1.34,0,0,0,1.47-1c3.11-7.16,6.27-14.29,9.41-21.44.15-.34.27-.69.47-1.2H.32V62.33Z"/><rect class="cls-3" x="162.44" y="96.12" width="48.45" height="9.31" transform="translate(287.43 -85.89) rotate(90)"/><rect class="cls-3" x="162.44" y="96.12" width="48.45" height="9.31" transform="translate(287.43 -85.89) rotate(90)"/><rect class="cls-3" x="162.44" y="96.12" width="48.45" height="9.31" transform="translate(373.32 201.54) rotate(180)"/><rect class="cls-3" x="493.69" y="105.31" width="48.45" height="9.31" transform="translate(1035.84 219.92) rotate(180)"/><rect class="cls-3" x="493.69" y="86.93" width="48.45" height="9.31" transform="translate(1035.84 183.16) rotate(180)"/><path class="cls-2" d="M431.58,52.42A2.16,2.16,0,0,0,427.8,52c-2.73,3.83-6.32,5.11-10.48,6.59a39.17,39.17,0,0,0-10.57,5.12c-5.3,3.8-7.72,9-6.52,13.91l-.12.16a71.8,71.8,0,0,0-7.17-8.83,66.9,66.9,0,0,0-45.57-20.46c-.76,0-1.52,0-2.28,0a66.9,66.9,0,0,0-65.5,76.19c.24,1.57.54,3.16.89,4.72,4.69,20.64,16.67,36.34,32.87,43.08a31.07,31.07,0,0,0,12,2.5c9.81,0,18.38-5.25,23.51-14.39a31.13,31.13,0,0,0,3.74-10.7,25.81,25.81,0,0,0-.11-6.34,24.11,24.11,0,0,1-.09-6.17,8.27,8.27,0,0,1,8.68-7.42,13.21,13.21,0,0,1,4.06.66c-1.6,2.92-3.05,5.72-4.31,8.31a83.87,83.87,0,0,0-5.51,13.51c-.59,2.14-2.18,7.84,1.69,10.52a5.76,5.76,0,0,0,4.41.86c1.46-.28,5.9-1.1,18.54-15.48,3.39-3.86,7-8.33,10.86-13.28,9.8-3.3,17.43-11.52,19.45-21a31.15,31.15,0,0,0,.63-7.51c3.67-5.67,6.89-11,10.13-16.66l.18-.34c4.7-1.29,8.75-5,11.13-10.07,3.47-7.47,3.21-17.06-.72-27Zm-53,35.36a9.24,9.24,0,1,1,1.19-7,9.18,9.18,0,0,1-1.19,7Zm12,16.73c4.67-6.88,9.61-13.71,14.29-19.79a26.5,26.5,0,0,0,2.53,2,19.47,19.47,0,0,0,4.75,2.44c-3.95,6.77-8.21,13.47-13.36,21.06A345.33,345.33,0,0,1,374,142.84a95.55,95.55,0,0,1-10.71,10.77,97.8,97.8,0,0,1,6.09-14,348.08,348.08,0,0,1,21.2-35.12Zm-81.94-.06a9.24,9.24,0,1,1,7.82-4.32,9.2,9.2,0,0,1-7.82,4.32Zm-9.68,20.33a9.24,9.24,0,1,1-1.19,7,9.21,9.21,0,0,1,1.19-7ZM328.51,70a9.24,9.24,0,1,1-1.19,7,9.18,9.18,0,0,1,1.19-7Z"/></g></g></svg>