<svg xmlns="http://www.w3.org/2000/svg" viewBox="0 0 440.3 441.57"><defs><style>.cls-1{fill:#fff;}</style></defs><title>Asset 4</title><g id="Layer_2" data-name="Layer 2"><g id="Layer_1-2" data-name="Layer 1"><path class="cls-1" d="M212.47,275.91h94.39a2.27,2.27,0,0,0,2.27-2.27V242.78a2.27,2.27,0,0,0-2.27-2.27H230.58c4.47-9.55,9-19.79,13.43-30.51.68-1.63,1.34-3.26,2-4.88h60.85a2.27,2.27,0,0,0,2.27-2.27V172a2.27,2.27,0,0,0-2.27-2.27H259.34c13.42-38.88,19-67.84,12.61-70.48-7-2.92-26.4,27.06-46.48,70.48H134.41a2.27,2.27,0,0,0-2.27,2.27v30.86a2.27,2.27,0,0,0,2.27,2.27h75.8c-5,12.39-9.4,24.32-13.15,35.39H134.41a2.27,2.27,0,0,0-2.27,2.27v30.86a2.27,2.27,0,0,0,2.27,2.27h52.17c-2.34,9.72-3.65,17.68-3.77,23.27a18.79,18.79,0,0,0-17,10.74,18.6,18.6,0,0,0-1.74,8.59,25.53,25.53,0,0,1-10.74,22.17l-.91.63c19.72,12.09,42.41,1.79,47.49-16.36,2.3-8.22.33-16.87-5.79-21.81,5-5.41,11.36-14.85,18.38-27.23"/><path class="cls-1" d="M94.89,109.19c-1-2.81-2-5.6-3-8.39l.07,0,13.16-12.54,8.16,3.38,8.34-8-55-22.51,19.91,56Zm.59-24.77-6.82,6.52-4.23-11.3Z"/><polygon class="cls-1" points="134.76 29.34 151.08 68.81 160.96 64.72 144.65 25.25 156.98 20.16 152.91 10.31 140.58 15.4 130.69 19.49 118.36 24.58 122.44 34.43 134.76 29.34"/><polygon class="cls-1" points="204.75 54.62 226.02 53.26 225.34 42.59 204.06 43.95 203.38 33.31 219.34 32.29 218.66 21.65 202.7 22.67 202.02 12 223.3 10.64 222.62 0 190.67 2.04 194.07 55.3 204.75 54.62"/><polygon class="cls-1" points="281.25 52.92 260.59 47.66 271.12 6.31 260.75 3.67 247.58 55.38 278.61 63.29 281.25 52.92"/><rect class="cls-1" x="288.77" y="46.42" width="53.37" height="10.69" transform="translate(116.92 302.32) rotate(-60.93)"/><polygon class="cls-1" points="333.84 97.43 349.24 112.19 356.63 104.47 341.24 89.71 348.62 82.01 360.16 93.08 367.54 85.38 356 74.32 363.39 66.59 378.79 81.35 386.17 73.65 363.05 51.5 326.12 90.03 333.84 97.43"/><path class="cls-1" d="M16.81,240.43a17.33,17.33,0,0,0,6.28,12.18,17.13,17.13,0,0,0,13,4.19,17.25,17.25,0,0,0,12.17-6.31,17.26,17.26,0,0,0,4.19-13.06l-.64-7.62L51,219.59l-17.84,1.5-17.83,1.5L0,223.88.86,234.1l15.31-1.29ZM34,231.31l7.66-.65.64,7.62a7.35,7.35,0,0,1-1.82,5.6,7.49,7.49,0,0,1-5.22,2.7,7.69,7.69,0,0,1-8.3-7L26.35,232Z"/><polygon class="cls-1" points="54.43 289.51 62.57 308.25 71.94 304.18 59.71 276.04 12.8 296.43 16.89 305.83 25.03 324.57 34.43 320.48 26.29 301.74 35.66 297.67 41.77 311.72 51.14 307.65 45.03 293.6 54.43 289.51"/><polygon class="cls-1" points="107.05 348.9 98.5 339.39 91.65 331.76 83.11 322.24 75.51 329.07 84.05 338.59 53.59 365.94 60.44 373.56 90.9 346.21 99.44 355.73 107.05 348.9"/><path class="cls-1" d="M138.44,370.16l-14.58-8L99.22,407.06l9,4.94,9.62-17.53,1.84,23.82,11,6-1.56-21.17c3.56.51,5.58.6,8.94-1a15.52,15.52,0,0,0,7.48-6.9l.76-1.39a15,15,0,0,0,1.32-12.68A18.68,18.68,0,0,0,138.44,370.16ZM136.84,389a7,7,0,0,1-4.35,3.69,5.65,5.65,0,0,1-5.09-.48L121,388.67l6.93-12.62,5,2.76c1.86,1,3.94,2.78,4.51,4.84A6.38,6.38,0,0,1,136.84,389Z"/><path class="cls-1" d="M199.84,390a25.87,25.87,0,0,0-6.34,51.34A25.87,25.87,0,0,0,199.84,390Zm12.23,27.54a14.79,14.79,0,0,1-5.87,10.3,15.48,15.48,0,1,1-19-24.41,15.51,15.51,0,0,1,24.92,14.11Z"/><path class="cls-1" d="M276.86,388a17.28,17.28,0,0,0-13.57-1.92l-7.4,1.92L246,390.61l4.49,17.32,4.49,17.33,3.86,14.87,9.92-2.58-3.85-14.86,7.4-1.92a17.34,17.34,0,0,0,10.94-8.25A17.81,17.81,0,0,0,276.86,388Zm-2.46,19.33a7.45,7.45,0,0,1-4.69,3.54l-7.41,1.89-1.92-7.44-1.93-7.43,7.4-1.92a7.34,7.34,0,0,1,5.83.85,7.54,7.54,0,0,1,3.54,4.69A7.42,7.42,0,0,1,274.4,407.37Z"/><path class="cls-1" d="M339.27,354.21a25.69,25.69,0,1,0,16.94,10.25A24.95,24.95,0,0,0,339.27,354.21Zm11.3,27.86a15.48,15.48,0,1,1-30.6-4.74,15.48,15.48,0,1,1,30.6,4.74Z"/><polygon class="cls-1" points="393.7 341.24 359.48 318.84 353.86 327.42 396.67 355.43 413.47 329.75 404.89 324.14 393.7 341.24"/><rect class="cls-1" x="399.53" y="259.75" width="10.25" height="51.15" transform="translate(4.51 576.95) rotate(-71.27)"/><path class="cls-1" d="M436.38,227.05a15,15,0,0,0-10.67-5.24,11.29,11.29,0,0,0-7.23,1.71,19.73,19.73,0,0,0-7.34,9.5c-1.3,3.57-.9,3.25-3.05,6.17a4.66,4.66,0,0,1-4.32,1.95,5.16,5.16,0,0,1,.61-10.3l.64-10.29a15.54,15.54,0,0,0-1.93,31,11.55,11.55,0,0,0,7.19-1.65,20.33,20.33,0,0,0,7.66-9.16c1.46-3.5,1.09-2.63,2.68-6.22.74-1.7,2.19-2.47,4.38-2.34a5.22,5.22,0,0,1,4.84,5.49l.06,0a5.16,5.16,0,0,1-5.48,4.84l-.65,10.33a15.51,15.51,0,0,0,12.61-25.77Z"/><circle class="cls-1" cx="400.88" cy="148.13" r="8.17" transform="translate(-26.17 164.68) rotate(-22.5)"/><circle class="cls-1" cx="40.4" cy="148.2" r="8.17"/><polygon class="cls-1" points="381.67 64.87 385.96 63.16 383.34 54.16 374.13 51.93 372.68 56.33 379.27 58.45 381.67 64.87"/><polygon class="cls-1" points="193.78 387.54 205.61 384.68 203.36 377.31 192.03 381.84 193.78 387.54"/></g></g></svg>