<svg xmlns="http://www.w3.org/2000/svg" viewBox="0 0 384.02 50.26"><defs><style>.cls-1{fill:#fff;fill-rule:evenodd;}</style></defs><title>Asset 5</title><g id="Layer_2" data-name="Layer 2"><g id="Layer_1-2" data-name="Layer 1"><path class="cls-1" d="M254.21,6c-9.14,6.09-18.73,21.88-19.44,29.83-1.21,13.58,9,12.15,20.45,9.51,6.67-1.54,13.36-3.61,19.75-4,7-.48,13.48,1.15,20.71,9-5.4-4.17-15.5-4.91-18.47-.25-2.93-3.42-5.37-4.74-10.87-4.74-10.78-.76-34.45,13-38.33-3.9-1.55-6.78,1.68-14.93,5.36-20.77,6.79-10.75,17.16-18.88,25.86-18.92A3.74,3.74,0,0,1,263,4.22c.76,2.3-.87,6-3.35,7.07s-3.56-3.8,1.62-5.25c1-3.88-5.05-1.41-7-.08Zm54.89,7.35-2.55,4.38h-4.79l2.67-4.38Zm59.28,13.52c-1.55-2.35-5.72,3-8.2,6.71-2.05,2.9-4.14,6.14-4.48,8.32-.05,4.45,4.2-.79,5-2.12,2-3.41,7.26-11.74,7.7-12.91Zm-35.15,5.1c-3.09,3.82-4.76,7.63-5,9.9-.36,4.23,5,2.08,9-6.13-1.95-.83-2.61-1.71-4.08-3.77Zm19.38-15.17C359.23,7.64,367.1.51,371.16.62c2.68-.06,2.2,3.89.8,6.19l-1.65.46c3-6.18.56-5.68-3-2.14A87.84,87.84,0,0,0,349.94,30c5-3.27,12.74-11.73,16.15-16.24l1.86-.21c-6.46,8.27-11.5,13.82-19.7,19.57-.69,1.25-4.75,10.74-1.92,10.85.81,0,2.89-2.41,4-3.6a38.17,38.17,0,0,1,3.57-5.77c4.76-6.66,11.17-13.7,15.31-9.32l1-1.14h4.82c-1.73,3-6,10.25-8.78,15.09a16.52,16.52,0,0,0-1.68,3.17c-.79,3.85,5.84-3.06,7.63-6.57l1.61-.05c-1.25,1.83-3.8,6.5-7.64,9.58-3.68,3-7.62,4.66-7.63-.73-4.39,4.61-10.14,5.51-9-1.27-6.65,8.05-11.7,5.75-9.45-2.53.49-1.81,1.05-3.53,1.67-5.2l-2.64.23c-5.07,8.69-9.6,12.84-13.92,12.84-1.72,0-3.36-1.56-3.09-4.66.74-8.67,10.69-19.72,16.56-19.72,2.39,0,3.33,1.86,3.16,3.93a25.81,25.81,0,0,1-1.93,6,9.35,9.35,0,0,0,2.61-.55c2.41-5.78,5.71-11,10.05-17Zm-14.5,17.35c-1.93-.55-3.45-1.86-3.27-3.93.14-1.65,2.53-3.59,4-3.59,2.75,1.07-.09,6.45-.73,7.52ZM365,8.52l-3.49,4.36C370,14.07,379.14,9.29,384,0,378.39,5.77,371.63,9.14,365,8.52Zm-43.1,15.92c-6,0-10.54,7.39-11.84,15.13,3.05-2.65,3.62-3.27,6.62-4.7.75-4.07,3.34-7.84,5.9-7.84s0,6.1-1.17,8.78c-2.69,6-9.73,11.48-13.67,8.3-2.19-1.75-2-7,3.15-17.87C314.56,18.4,330.25.3,336.11,3a24.21,24.21,0,0,0-6.81,5.74c-3.74,4.41-6.44,10-2.23,11.5s12.62-9.81,11.64-16.53c4.78-.65,8.45,1.28,17.67,7.23L359.85,7c-7.76-4.53-14.15-8.92-21.94-4.9C332.48-2.59,317.15,6.63,309,18.35a76.47,76.47,0,0,0-6.61,11.45c-8.7,18.71,5.36,26.78,17.9,10.64,2.45-3.15,8.89-15.22,1.52-16Zm15.24-20.2a29.41,29.41,0,0,0-7,6c-7.74,9.37-1.05,11.38,4.12,3.35,2.15-3.34,3.14-7.08,2.87-9.37ZM294.35,16c-1.51-2.33-5.73,3.16-8.19,6.86-2,2.87-4.11,6.1-4.45,8.27-.08,4.42,4.12-.79,4.9-2.11,2-3.39,7.3-11.85,7.74-13Zm-39,5c-3.13,3.86-4.83,7.69-5,10-.36,4.26,5.29,1.62,9.35-6.65A8,8,0,0,1,255.32,21Zm5.14,1.73c.65-1.07,3.36-6,.56-7.1-1.49,0-3.91,2-4.06,3.62-.18,2.07,1.54,2.93,3.5,3.48ZM247.22,38c4.39,0,9.17-4.66,14.32-13.41l2.75-.78c-8.73,13.87,1.61,19.17,11.68,7.62-2.45,8.08,3.83,7.35,8.55,2.51,0,5.36,3.86,3.65,7.49.72,3.79-3.06,6.68-7.52,7.92-9.34l-1.59.05c-2.15,3.11-9,9.85-7.88,6.35a22.28,22.28,0,0,1,1.67-3.15c2.78-4.81,7-12,8.72-15h-4.73l-.84,1.05c-6.54-5.86-15.28,10.2-20.61,16-4.48,4.88-10.7,5.5-6.32-3.87,2.12-4.53,6.44-10,9-11,1.15-.44,2.62-.31,2.09,1.69a4.69,4.69,0,0,0-2.75,1.33c-2.54,2.87.49,5.38,2.94,1.52A8.4,8.4,0,0,0,281,16.8a3.05,3.05,0,0,0-3-3.46c-7.47-.11-9.45,7.91-15.55,9.32a19.54,19.54,0,0,0,1.71-5.31c.18-2.08-.77-4-3.2-4-6,0-16.06,11.13-16.81,19.87C243.81,36.38,245.48,38,247.22,38Z"/><path class="cls-1" d="M369,45.26a1.36,1.36,0,1,1-1.36,1.36A1.36,1.36,0,0,1,369,45.26Zm0-.19a1.55,1.55,0,1,0,1.55,1.55A1.56,1.56,0,0,0,369,45.07Zm.06.88h-.49v.55h.51a.62.62,0,0,0,.32-.06.25.25,0,0,0,.09-.22.23.23,0,0,0-.09-.21.68.68,0,0,0-.34-.06Zm-.7,1.49h.21v-.73h.57a.33.33,0,0,1,.23.06.36.36,0,0,1,.08.24l0,.25c0,.05,0,.09,0,.11a.14.14,0,0,0,0,.07h.25a.2.2,0,0,1,0-.08s0-.08,0-.14v-.28a.38.38,0,0,0-.07-.22.25.25,0,0,0-.17-.1.38.38,0,0,0,.2-.15.54.54,0,0,0,.06-.27.4.4,0,0,0-.14-.34.58.58,0,0,0-.4-.12h-.8Z"/><path class="cls-1" d="M51.48,40.38C60.3,37.5,66.26,32,66.26,25.78c0-5.93-5.34-11.14-13.38-14.11l-1.14,3.78a38.1,38.1,0,0,0-10.51-1.11c-9.71.08-16.12,8.72-14.93,16.52.54,3.59,3.62,6.53,8.19,6.53,4.08,0,9.27-3.21,11.06-9.17-1,0-2.73,0-4.16,0l.42-4.29s8.71,0,9.89,0a22.13,22.13,0,0,0-.85,4.56,80.69,80.69,0,0,0,.63,11.93m-17.74,2c1.14.08,2.31.12,3.49.12a49.24,49.24,0,0,0,9-.82,33.24,33.24,0,0,1-.4-7h-.19A14.84,14.84,0,0,1,33.74,42.41ZM8.2,25.78c0,6.8,7,12.66,17.13,15.28a12,12,0,0,1-6.11-9.15c-1.67-10.72,7.25-22.1,23.71-22.1a40.81,40.81,0,0,1,4.23.22,48.51,48.51,0,0,0-9.93-1C21.19,9,8.2,16.52,8.2,25.78Z"/><path class="cls-1" d="M38.89,7.48l0-6.06C18.7,0,0,11.6,0,24.28c0,8.34,8.44,16,20.79,19.92V41.26C12.05,37.87,6.45,32.45,6.45,25.61c0-9.91,14-18.53,32.44-18.13"/><path class="cls-1" d="M35.57,44.09l0,6.06C55.76,51.54,74.44,40,74.45,27.28c0-8.34-8.44-16-20.78-19.91v2.94C62.41,13.69,68,19.12,68,26c0,9.92-14,18.54-32.44,18.14"/><path class="cls-1" d="M109.12,23.12l-.4,4.21c1.39,0,3.13,0,4.08,0-1.76,5.84-6.86,9-10.85,9-4.49,0-7.51-2.88-8-6.39-1.16-7.66,5.36-16.49,14.88-16.56a34.85,34.85,0,0,1,10.06,1.53l1.32-4.46a48,48,0,0,0-10-1.16C94.09,9.29,85.34,20.46,87,31c1,6.09,5.24,10.4,12.19,10.4,5,0,10.65-1.94,13.72-7.62h.19a35.63,35.63,0,0,0,.39,7.4,7.51,7.51,0,0,1,2.94-.47,5.85,5.85,0,0,1,2.47.47c-1-4-.91-12-.89-13.58a21.71,21.71,0,0,1,.83-4.46c-1.16,0-9.7,0-9.7,0"/><path class="cls-1" d="M122.26,41.09c.29-1.75.63-10,.75-11.27a42.52,42.52,0,0,0-.27-6.72h4.83a23.16,23.16,0,0,0-.1,3.73h.14A6.91,6.91,0,0,1,134,22.71a11.18,11.18,0,0,0,1.22-.12,15.53,15.53,0,0,0-.46,4.59,2.91,2.91,0,0,0-1-.33c-3.69-.33-5.5,1.46-6,6.76,0,0-.38,6-.08,7.48a7.78,7.78,0,0,0-5.34,0"/><path class="cls-1" d="M181.23,41a144.91,144.91,0,0,0,1.19-15.34s.48-10.78.21-15.09h5c-.23,1.91-.73,15.09-.73,15.09s-.46,13.49-.28,15.38a7.83,7.83,0,0,0-5.36,0"/><path class="cls-1" d="M150.15,30.46c-.4,5-3.43,7.7-6.27,7.7a4,4,0,0,1-4.19-3.74,8.36,8.36,0,0,1,8.44-9.36,11.53,11.53,0,0,1,2.44.22l-.42,5.18m4.77,2.09c0-2.74-.32-7.11,1.14-9.76-1.77.27-4.7-.4-7.18-.4-10.67,0-15.06,6.51-14.11,12.64.55,3.55,3.61,6.07,7.67,6.07A8.11,8.11,0,0,0,150,36.66h.1c0,1.37.36,3-.13,4.49a5.48,5.48,0,0,1,2.68-.49,7,7,0,0,1,2.74.46A62.44,62.44,0,0,1,154.92,32.55Z"/><path class="cls-1" d="M173.6,30.41c-.39,5-3.42,7.7-6.26,7.7a4,4,0,0,1-4.19-3.74A8.36,8.36,0,0,1,171.58,25a11.53,11.53,0,0,1,2.44.22l-.42,5.18m4.6,2.09c0-2.73-.32-7.12,1.14-9.76-1.77.27-4.7-.4-7.18-.4-10.67,0-15.06,6.51-14.11,12.64.56,3.56,3.62,6.07,7.67,6.07a8.11,8.11,0,0,0,7.57-4.44h.1c0,1.37.36,3-.13,4.49a5.53,5.53,0,0,1,2.68-.49,7,7,0,0,1,2.74.46A62.44,62.44,0,0,1,178.2,32.5Z"/></g></g></svg>