<svg xmlns="http://www.w3.org/2000/svg" width="486" height="621" viewBox="0 0 485.439 621"><defs><clipPath id="A"><path d="M1575.523 695.844c-7.008 0-132.378-22.582-132.378-22.582l-42.828-91.886-35.65-42.843 8.4-33.47 38.156-32.7 88.7 7.69 50.7 45.12z" fill="none"/></clipPath></defs><path d="M335.4 427.625a98.8 98.8 0 0 0-25.527-83.022l2.83-20.9c1.22-4.41-9.38-11.38-25.458-17.512 1.38-2.138 3.627-2.144 5.608-1.646-.663-.28 7.73 2.64 18.572 6.258 36.166 12.07 39.93-19.818 31.244-21.16-37.45-5.78-42.585-17.97-63.353-13.47-17.057 4.452-21.567 16.4-23.994 20.987-18.28-3.486-32.23-3.083-33.494 1.515l-8.122 17.585c-48.022 12.026-79.752 57.71-74.252 106.9s46.534 86.75 96.027 87.875 92.19-34.522 99.92-83.42zM210.357 413.5c-6.842 4.3-15.067 1.642-19.838-4.62-16.82-23.275-3.51-50.6-1.3-54.245a4.7 4.7 0 0 1 7.028-1.215c4.982 4.13-1.28 8.287 9.153 17.94 7.306 6.76 13.33 13.346 14.06 21.52 1.04 11.705-5.746 18.5-9.103 20.62zm69.29 20.65c-7.35 2.827-15.745.773-19.31-6.48-1.75-3.56-3.958-12.914 3.076-22.328 4.912-6.574 13.495-9.017 23.263-10.938 13.947-2.74 10.8-9.566 17.208-10.466a4.7 4.7 0 0 1 5.344 4.723c-.036 4.267-3.048 34.507-29.58 45.5z" fill="#e7e000" fill-rule="evenodd"/><g fill="#fff"><path d="M345.472 279.384v.003z"/><path d="M53.67 9.738a16.86 16.86 0 0 0 .257 10.346 29.9 29.9 0 0 0 1.781 4.355l1.133 2.067 1.126 1.824 4.684 6.92q4.8 6.863 9.957 13.62c6.853 9.043 14.066 18.082 21.54 27.157 15.026 18.094 30.947 36.4 48.313 54.155l6.643 6.6 4.178 4 .477.445.466.412 1.868 1.644c5.072 4.28 10.687 7.87 16.7 10.678 10.207 4.766 21.1 7.347 31.98 8.774l-.06.1 5.17 3.47 5.026 3.486 4.988 3.58c1.328.94 2.62 1.926 3.92 2.9a88.5 88.5 0 0 0-43.09-1.725c-14.508 3.048-28.02 9.8-39.884 18.42a117.67 117.67 0 0 0-16.568 14.6 105.22 105.22 0 0 0-27.547 59.2 133.2 133.2 0 0 0 1.9 43.843 168.93 168.93 0 0 0 14.456 41.38 189.13 189.13 0 0 0 23.957 36.665c9.347 11.277 20 21.403 31.738 30.165a167.07 167.07 0 0 0 38.219 21.309 374.76 374.76 0 0 1 39.231 18.534c12.62 7.02 24.75 15.017 35.5 24.615 10.7 9.568 20.1 20.915 25.544 34.205 2.743 6.614 4.36 13.64 4.784 20.788a69.05 69.05 0 0 1-2.164 21.267c-3.65 13.9-10.862 26.7-19.488 38.24l-1.5 2 2.486-.6a52.74 52.74 0 0 0 25.717-14.745 49.64 49.64 0 0 0 12.744-27.3 66.2 66.2 0 0 0-3.11-30.094 109.47 109.47 0 0 0-13.363-26.925l-2.1-3.1-2.213-3.02c-1.463-2.046-2.985-3.932-4.5-5.87l-9.043-11.506-17.744-23.15a574.28 574.28 0 0 1-32.515-48.135c-4.963-8.284-9.56-16.763-13.863-25.353a237.18 237.18 0 0 1-11.39-26.356 149.23 149.23 0 0 1-7.134-27.48 112.36 112.36 0 0 1-.733-6.049l74.57-55.218 5.3 7.143c2 2.708 5 4.52 8.33 5.05l.066.107c4.867 8.025 9.5 16.184 13.583 24.53 2.04 4.172 3.927 8.4 5.553 12.66a65.36 65.36 0 0 1 3.609 12.793 22.45 22.45 0 0 1 .21 5.923c-.1.8-.297 1.605-.583 2.37a4.82 4.82 0 0 1-2.622 2.748 9.42 9.42 0 0 1-2.321.644l-3.5.556a39.65 39.65 0 0 0-4.033 1 21.05 21.05 0 0 0-7.825 4.06 13.74 13.74 0 0 0-4.655 8.934 19.85 19.85 0 0 0 1.353 8.866 40.55 40.55 0 0 0 3.538 7.119 84.36 84.36 0 0 0 9.088 11.9 142.15 142.15 0 0 0 5.032 5.324l1.3 1.288 1.36 1.295 2.684 2.467a231.09 231.09 0 0 0 22.7 18.023 119.4 119.4 0 0 0 12.588 7.689c4.482 2.243 9.106 4.45 15.047 5.048a13.65 13.65 0 0 0 9.941-2.725l1.343-1.163.68-.6.788-.813c.5-.548 1.07-1.094 1.516-1.66l1.3-1.715c1.626-2.386 2.826-5.035 3.547-7.83a48.57 48.57 0 0 0 1.176-7.674 17.21 17.21 0 0 1 .443-2.756c.064-.242.148-.478.25-.706a.18.18 0 0 0 .088-.118c-.018.02-.01.007 0-.01l.032-.032.312-.316a29.05 29.05 0 0 1 2.289-2.03l2.673-2.15c3.647-2.858 7.44-5.66 11.24-8.43l11.507-8.206 5.793-3.992 1.433-.958.708-.467.6-.38.58-.38.176-.135.353-.27a6.07 6.07 0 0 0 .571-.51c.23-.222.453-.453.67-.7a9.2 9.2 0 0 0 .9-1.148 10.93 10.93 0 0 0 .659-1 30.07 30.07 0 0 0 3.15-7.779 28.39 28.39 0 0 0 .97-8.352c-.057-1.6-.336-3.184-.83-4.707a8.67 8.67 0 0 0-.487-1.281c.192-.296.402-.58.63-.848.606-.76 1.328-1.562 2.083-2.357 3.074-3.2 6.6-6.336 10.1-9.457l10.665-9.415c3.564-3.177 7.116-6.407 10.588-9.8a94.31 94.31 0 0 0 9.993-11.134 24.96 24.96 0 0 0 4.052-7.726 11.53 11.53 0 0 0 .429-2.865c.01-.562-.024-1.125-.106-1.68l-.194-.893-.114-.422-.068-.212-1.146-3.476-4.856-13.495q-9.978-26.783-21.36-52.965c-7.612-17.453-15.616-34.753-24.414-51.705s-18.238-33.634-29.487-49.37a159.74 159.74 0 0 0-18.936-22.364l-.662-.653-.767-.682L382 88.72l-2.687-2.338c-1.98-1.535-3.943-3.176-5.947-4.6-3.965-2.888-8.074-5.57-12.313-8.038-16.923-9.67-35.215-16.717-54.25-20.9a220.91 220.91 0 0 0-57.775-5.184c-9.703.403-19.365 1.495-28.913 3.27a193.52 193.52 0 0 0-28.2 7.3 201.1 201.1 0 0 0-26.849 11.4 209.35 209.35 0 0 0-23.635 14.561q-5.777-6.993-12.257-15.036l-31.753-40-18.478-22.8c-.85-.986-1.694-1.964-2.662-3-.25-.26-.486-.514-.793-.8-.172-.16-.2-.22-.585-.535l-.473-.372-.343-.24c-.24-.135.256.115-.6-.335L73.12.907c-.242-.1-.5-.213-.734-.28-.46-.153-.932-.276-1.4-.368-3.43-.6-6.966-.107-10.1 1.432-3.392 1.595-5.993 4.495-7.2 8.04zm194.622 154.8l3.977.1.085.04 6.466 2.932 7.452 3.283 8.512 3.587q1.6 1.372 3.163 2.8a241.02 241.02 0 0 1 22.241 24.2c-1.122-.365-2.287-.762-3.493-1.214l-4.074-1.455-4.3-1.708c-2.968-1.143-6.04-2.483-9.2-3.894-3.2-1.35-6.4-2.957-9.7-4.506l-9.887-4.9-9.8-5.1c-3.23-1.683-6.353-3.44-9.36-5.165l-8.644-5.017-6.95-4.237c7.948.256 15.82.192 23.5.27zm4.154.1c.13.005.267 0 .4.01a91.06 91.06 0 0 1 4.434.243l1.16.092.7.1a14.47 14.47 0 0 1 1.6.406 22.73 22.73 0 0 1 3.472 1.5 53.65 53.65 0 0 1 8.112 5.488c-1.915-.646-3.9-1.35-5.852-2.1-5.156-1.925-10.24-4.052-14.025-5.744zm-22.858 3.812l10.487 5.628 9.5 4.92c3.223 1.7 6.55 3.32 9.854 4.984l9.948 4.792 9.712 4.478 9.125 4.1 8.23 3.563 3.67 1.568 1.316.523.607.743c7.342 9.126 14.26 18.462 20.795 27.824l-2.6-1.047-3.623-1.64-3.927-1.816-4.134-2.084c-2.85-1.4-5.775-3.05-8.815-4.72s-6.1-3.554-9.237-5.387l-9.413-5.766-9.3-5.946-1.525-1.014a183.44 183.44 0 0 0-6.8-5.515c-2.286-1.715-4.64-3.35-7.027-4.934l-1.8-1.737q-2.28-2.2-4.627-4.306-4.655-4.273-9.494-8.327l-4.857-4.03-4.925-3.943-1.162-.905zm89.165 98.148l.123.1 9.587 6.857c1.436.964 2.68 1.95 3.874 2.712l3.024 2.1 1.78 1.193a11.96 11.96 0 0 0 .105 1.341 26.12 26.12 0 0 0 1.242 4.72c.855 2.437 1.82 4.674 2.806 6.874-.74-.3-1.537-.674-2.47-1.092-1.2-.542-2.535-1.245-3.977-2.014-1.455-.75-2.97-1.674-4.584-2.63s-3.257-2.06-4.963-3.2c-3.375-2.315-6.922-4.863-10.372-7.537l-3.17-2.533 4.334-3.2c2.894-2.143 3.628-5.68 2.9-9.842l1.754 1.26 9.45 6.718 7.666 5.436-.292 1.717-.236 1.6-1.106-.458c-.936-.38-1.995-.936-3.258-1.53-1.248-.6-2.632-1.38-4.133-2.22-3-1.7-6.4-3.83-9.934-6.3l-.14-.1c-.003.02-.004.037-.01.05zm2.8 31.388a265.49 265.49 0 0 0-5.7-10.889l1.327 1.027 5.216 3.9 5.285 3.812c1.737 1.267 3.5 2.437 5.18 3.6l9.287 6.25 6.6 4.506a58.97 58.97 0 0 1 2.15 1.483l5.2 9.776q1.6 3 3.17 5.96a65.76 65.76 0 0 1-6.032-2.774 98.1 98.1 0 0 1-8.5-5.034c-3.045-1.956-6.152-4.25-9.265-6.527-3.066-2.344-6.107-4.72-8.85-7.076q-1.107-.94-2.153-1.86-1.405-3.1-2.906-6.16zm24.8 9.36c-1.226-.5-2.53-1.26-4-2-3.264-1.805-6.43-3.78-9.487-5.92-3.35-2.35-6.926-4.857-10.345-7.573-1.736-1.322-3.42-2.7-5.1-4.06l-2.307-2q-2.94-5.268-6.043-10.42a12.94 12.94 0 0 0 1.04-.692l1.414-1.046 3.306 2.478 5.27 3.833c1.73 1.273 3.5 2.418 5.17 3.62l9.227 6.348c1.38.892 2.58 1.806 3.722 2.52l2.905 1.944 1.505.983c2.145 4.546 4.364 8.945 6.606 13.22-.853-.313-1.798-.732-2.904-1.23zM303.8 277.138c-.1.01-.218.016-.328.024a11.39 11.39 0 0 0 .323-.029zm1.965-.36c.163-.043.325-.093.487-.142-.166.054-.328.105-.5.147zm1.136-.354a9.08 9.08 0 0 0 .493-.2 6.87 6.87 0 0 1-.497.205zm1.114-.465c.164-.078.323-.17.485-.255-.166.1-.325.182-.5.26zm-96.187 31.714a76.8 76.8 0 0 1 .937-9.39 64.2 64.2 0 0 1 9.927-25.43c5.245-7.666 11.808-14.34 19.384-19.713a105.85 105.85 0 0 1 11.93-7.612 139.1 139.1 0 0 1 12.787-6.453c2.47-1.1 4.977-2.116 7.5-3.113a12.97 12.97 0 0 0 1.119 13.568l5.3 7.143zm80.24-80.3l-.284.04.15-.2zm38.62 40.32l-9.744-6.256-2-1.365a30.7 30.7 0 0 0-2.4-7.068l5.108 3.57 9.45 6.636 6.683 4.7.912.654c-.136 1.175-.315 2.368-.523 3.6a277.14 277.14 0 0 1-7.49-4.467zm.864-5.188l-9.754-6.158-5.417-3.657a56.44 56.44 0 0 0-5.2-8.63l5.735 3.837 11.04 7.228 7.983 4.983c1.473.8 2.456 1.395 2.863 1.642a29.81 29.81 0 0 1 .038 5.088l-7.302-4.326zm5.22-4.163l-3.683-1.6c-1.42-.64-2.98-1.472-4.7-2.322l-5.45-3.007c-1.887-1.147-3.923-2.286-5.95-3.594a229.21 229.21 0 0 1-5.808-3.785 68.73 68.73 0 0 0-8.1-9.335c9.813 6.35 21.4 13.323 33.73 19.64l.1-.194c.632 1.56 1.127 3.173 1.478 4.82l-1.612-.616zm-43.4-32.273a162.85 162.85 0 0 0-20.89-22.038l8.508 5.3 9.48 5.66 9.3 5.284 8.738 4.865c2.768 1.57 5.43 2.967 7.882 4.274 2.44 1.33 4.705 2.5 6.733 3.522l1.04.538c2.964 4.294 5.867 8.6 8.573 12.9.73 1.177 1.5 2.388 2.1 3.508l.925 1.68.133.287a416.91 416.91 0 0 1-42.536-25.765zm-80.882 130.2c.217.6.457 1.17.68 1.76l-.635-.9c-2.578-3.556-5.426-7.382-8.713-11.227a108.95 108.95 0 0 0-11.215-11.365l-3.336-2.614c-1.13-.865-2.4-1.586-3.615-2.4s-2.633-1.343-3.955-2.025c-1.3-.6-2.64-1.093-3.884-1.677-5.183-2.35-10.1-5.23-14.7-8.593-4.6-3.336-8.75-7.254-12.346-11.656a51.09 51.09 0 0 1-8.066-14.228 44.91 44.91 0 0 1-2.562-15.1 52 52 0 0 1 1.861-13.739c.45-2.12 1.22-4.055 1.787-5.948.692-1.85 1.4-3.6 2.063-5.226l2.108-4.48 1.994-3.7c1.16-2.268 2.3-3.9 2.983-5.1l1.086-1.8-1.178 1.73c-.732 1.15-1.98 2.733-3.248 4.95l-2.158 3.637q-1.07 2.05-2.3 4.422l-2.3 5.2c-.655 1.892-1.518 3.83-2.067 5.97a53.31 53.31 0 0 0-2.32 14.058 46.84 46.84 0 0 0 2.219 15.834 50.61 50.61 0 0 0 8.139 15.086 68.5 68.5 0 0 0 12.647 12.337 85.5 85.5 0 0 0 15.1 9.149l3.948 1.77c1.193.63 2.446 1.093 3.58 1.834s2.3 1.405 3.365 2.223l3.16 2.473a106.03 106.03 0 0 1 10.871 11.011c3.228 3.752 6.164 7.418 8.77 10.888s4.9 6.73 6.912 9.633l.638.92a298.6 298.6 0 0 0 16.648 32.11l-5.532-6.888c-8.478-10.3-17.432-20.848-27.72-30.5-2.6-2.4-5.272-4.722-8.128-6.88-2.857-2.25-5.98-4.14-9.3-5.627-3.372-1.286-6.823-2.355-10.332-3.2-3.422-.922-6.8-1.873-10.116-3.013a61.71 61.71 0 0 1-18.24-9.566 49.35 49.35 0 0 1-13.077-15.35 68.37 68.37 0 0 1-6.9-18.883c-.364-1.634-.708-3.267-.945-4.92-.285-1.642-.538-3.285-.7-4.94l-.287-2.47c-.065-.752-.084-1.507-.056-2.26a91.3 91.3 0 0 1 .208-4.872c.93-12.54 4.057-24.818 9.234-36.277a97.87 97.87 0 0 1 18.905-27.745c6.706-6.838 14.358-12.68 22.722-17.345a127.97 127.97 0 0 1 20.236-9.234c5.838-2.075 10.556-3.342 13.77-4.215l4.96-1.226-5.045.85c-4.75.874-9.452 2-14.083 3.375a117.94 117.94 0 0 0-21 8.3 103.03 103.03 0 0 0-23.982 17.052 95.37 95.37 0 0 0-20.346 28.395c-5.568 11.875-8.935 24.662-9.937 37.74-.128 1.7-.218 3.417-.228 5.156-.027.928.007 1.856.1 2.78l.328 2.562c.2 1.714.474 3.424.8 5.137.27 1.72.65 3.427 1.052 5.137a72.58 72.58 0 0 0 7.575 19.952 53.39 53.39 0 0 0 14.336 16.415 62.67 62.67 0 0 0 19.62 9.5c3.46 1.054 6.955 1.9 10.42 2.7 3.418.682 6.786 1.596 10.08 2.737 3.142 1.387 6.102 3.155 8.814 5.263 2.78 2.07 5.43 4.333 7.993 6.672 10.24 9.4 19.3 19.8 27.864 29.974q7.473 8.975 14.36 17.756 8.425 13.2 17.625 25.83l-2.16-1.94a141.21 141.21 0 0 0-4.883-4.23c-1.677-1.453-3.47-2.857-5.314-4.278-1.824-1.447-3.728-2.87-5.68-4.295-3.9-2.846-8.05-5.636-12.3-8.4-4.268-2.73-8.622-5.47-13.073-8.034-8.862-5.2-17.9-10.028-26.32-14.575l-12-6.768c-3.763-2.225-7.23-4.465-10.335-6.656-2.85-1.96-5.542-4.136-8.057-6.5a44.72 44.72 0 0 1-5.33-5.95 32.81 32.81 0 0 1-2.78-4.351l-.864-1.623.727 1.7a33.23 33.23 0 0 0 2.439 4.612 44.67 44.67 0 0 0 5.022 6.4 68.67 68.67 0 0 0 7.772 7.15 119.46 119.46 0 0 0 10.143 7.258c3.692 2.432 7.66 4.86 11.775 7.337l25.735 15.42c8.647 5.378 17.142 10.956 24.733 16.68l5.584 4.22c1.824 1.38 3.55 2.8 5.248 4.163 1.714 1.344 3.343 2.7 4.9 4.03l4.508 3.85c5.75 5 10.33 9.363 13.567 12.4l.513.516c5.914 7.648 11.96 15.188 18.055 22.67l7.372 9.018 4.256 5.612 6.1 7.777.326.455a104.58 104.58 0 0 1 13.28 25.482 64.11 64.11 0 0 1 3.6 28.176 46.63 46.63 0 0 1-11.136 25.794c-5.8 6.522-13.2 11.4-21.487 14.176 8.05-11.062 14.835-23.242 18.4-36.6 1.9-7.128 2.68-14.508 2.307-21.875a66.27 66.27 0 0 0-4.854-21.475c-5.553-13.72-15.153-25.344-25.98-35.1-10.892-9.794-23.132-17.923-35.838-25.057a377.27 377.27 0 0 0-39.415-18.808 164.6 164.6 0 0 1-37.583-21.1 182.12 182.12 0 0 1-31.163-29.8 186.18 186.18 0 0 1-23.475-36.163 165.95 165.95 0 0 1-14.073-40.663 130.02 130.02 0 0 1-1.738-42.789 101.81 101.81 0 0 1 26.833-57.248 114.03 114.03 0 0 1 16.1-14.1c11.554-8.44 24.54-15.07 38.5-18.092a85.44 85.44 0 0 1 42.305 1.573c13.764 3.957 26.585 10.92 38.143 19.46a166.48 166.48 0 0 1 25.624 23.24l-2.3-1.7c-2.48-1.767-5.54-3.837-9.2-6.017a106.36 106.36 0 0 0-12.783-6.413A89.77 89.77 0 0 0 247 202.847a80.13 80.13 0 0 0-19-1.554 75.04 75.04 0 0 0-20.063 3.81 79.39 79.39 0 0 0-18.758 9.5 93.31 93.31 0 0 0-15.815 13.69c-1.146 1.3-2.315 2.506-3.423 3.874-1.06 1.3-2.143 2.544-3.148 3.962a66.35 66.35 0 0 0-5.475 8.456 48.67 48.67 0 0 0-5.826 18.116 40.19 40.19 0 0 0 .122 8.865 40.94 40.94 0 0 0 1.978 8.016 44.4 44.4 0 0 0 7.135 12.371 54.71 54.71 0 0 0 7.728 7.745 49.66 49.66 0 0 0 5.74 4.037 41.38 41.38 0 0 0 2.146 1.237s-.737-.447-2.057-1.373c-1.904-1.334-3.718-2.8-5.43-4.363-2.66-2.417-5.073-5.095-7.2-7.993a43.82 43.82 0 0 1-6.3-12.27 38.88 38.88 0 0 1-1.612-7.656 37.85 37.85 0 0 1 .173-8.335 45.89 45.89 0 0 1 6.088-16.885c.845-1.33 1.62-2.712 2.576-4l1.372-1.98 1.473-1.9c.94-1.278 2.088-2.54 3.168-3.815 1.032-1.22 2.24-2.42 3.36-3.638a95.63 95.63 0 0 1 15.416-12.887 75.28 75.28 0 0 1 17.905-8.789c6.117-2.04 12.482-3.237 18.922-3.56a83.45 83.45 0 0 1 33.7 5.73c4.322 1.652 8.54 3.56 12.636 5.713a132.47 132.47 0 0 1 9.3 5.383l5.774 3.856 1.834 1.27c-4.16.6-8.286 1.434-12.4 2.356a125.97 125.97 0 0 0-14.278 4.075 145.76 145.76 0 0 0-13.9 5.546 108.17 108.17 0 0 0-13.17 7.443 78.8 78.8 0 0 0-21.774 21.427 71.5 71.5 0 0 0-9.667 21.4l-.158-.148q-.862-.813-1.905-1.794l-2.146-2.316c-.747-.84-1.447-1.8-2.245-2.78-.753-1-1.432-2.123-2.2-3.26a33.7 33.7 0 0 1-3.466-8.013l-.335-1.12c-.083-.38-.134-.77-.2-1.158-.12-.78-.3-1.568-.386-2.372a28.04 28.04 0 0 1-.01-4.96 13.06 13.06 0 0 1 .321-2.544c.182-.846.32-1.712.533-2.568a34.99 34.99 0 0 1 1.892-5.052c1.6-3.383 3.588-6.558 5.95-9.454l3.928-4.434c1.38-1.293 2.683-2.664 4.1-3.9a48.47 48.47 0 0 1 9.131-6.307 40.28 40.28 0 0 1 4.835-2.206c.8-.336 1.646-.525 2.455-.792a18.98 18.98 0 0 1 2.436-.655l2.413-.5c.8-.144 1.6-.2 2.375-.3a42.61 42.61 0 0 1 4.551-.246 55.72 55.72 0 0 1 7.993.662c2.373.357 4.424.806 6.1 1.188a105.93 105.93 0 0 1 3.9.966l1.376.358-1.352-.44c-.88-.3-2.178-.7-3.84-1.2-1.664-.484-3.694-1.057-6.066-1.563-2.662-.58-5.362-.967-8.08-1.16-1.565-.094-3.134-.103-4.7-.03-.8.053-1.644.054-2.48.153l-2.543.358a20.3 20.3 0 0 0-2.587.53c-.863.227-1.764.378-2.628.678a42.38 42.38 0 0 0-5.229 2.014c-3.565 1.633-6.93 3.67-10.03 6.07-1.6 1.22-3.092 2.6-4.66 3.93l-4.195 4.2a49.44 49.44 0 0 0-7.223 10.056 39.44 39.44 0 0 0-2.5 5.637c-.3.976-.54 1.977-.8 2.958a16.95 16.95 0 0 0-.563 2.983 33.55 33.55 0 0 0-.337 5.939c.04.973.2 1.927.283 2.877.057.473.1.948.172 1.413l.3 1.363a39.83 39.83 0 0 0 3.538 9.757c.807 1.37 1.535 2.73 2.333 3.94.837 1.175 1.6 2.335 2.384 3.346l2.283 2.78 2.137 2.27c1.32 1.44 2.282 2.2 2.97 2.88l.428.4a98.1 98.1 0 0 0 .27 29.141 154.71 154.71 0 0 0 7.686 28.944zm-.513-38.736l-.152-2.7 72.293-53.53 1.347 1.82zm86.28-46.86c-1.235.914-4.384-1.226-7-4.756l-10.266-13.864c-2.614-3.53-3.742-7.167-2.508-8.08l1.3-.954c2.425-1.8 22.735 24.506 19.77 26.7zm3.28 6.5c-.1-.007-.192-.02-.3-.03.097.013.193.026.3.033zm1.18.03h-.38l.38.004zm22.367 28.392l1.156.882 9.154 6.7c6.268 4.512 12.7 8.76 17.475 12.072l8.083 5.45.013-.027c2.612 4.967 5.095 9.837 7.346 14.6-1.432-.568-3.3-1.408-5.53-2.52-1.2-.655-2.5-1.32-3.856-2.1s-2.77-1.62-4.2-2.547c-2.876-1.825-5.85-3.913-8.773-6.07-2.936-2.14-5.77-4.416-8.4-6.58-2.606-2.2-4.98-4.3-6.95-6.175l-.72-.706c-.717-2.468-1.55-4.863-2.437-7.22-.74-1.938-1.534-3.85-2.36-5.743zm5.378 15.16l6.782 5.094 4.248 3.094 4.414 3.15c1.47 1.067 2.977 2.083 4.443 3.107l12.02 8.25 7.356 4.933a42.46 42.46 0 0 1 3.11 12.743c-1.46-.6-3.4-1.477-5.666-2.653-2.46-1.3-5.305-2.885-8.24-4.764-2.954-1.848-6.026-3.95-9.015-6.16-3-2.182-5.914-4.508-8.6-6.724-2.656-2.257-5.1-4.414-7.08-6.36a106.12 106.12 0 0 1-2.284-2.291 33.6 33.6 0 0 0-.4-6.308c-.277-1.752-.66-3.443-1.084-5.1zM365.634 393c-33.548-21.316-48.234-35.3-54.566-41.318l-1.755-1.657c.408-.243.83-.462 1.263-.656l1.317 1.248c6.352 6.046 21.057 20.04 54.54 41.342-.257.36-.523.7-.8 1.04zm-52.5-43.683l-.693-.66c.137-.044.265-.095.4-.137a16.87 16.87 0 0 1 2.16-.572l1.15 1.4c.682.7 1.46 1.612 2.437 2.543 1 .916 2.07 1.986 3.316 3.065a147.96 147.96 0 0 0 4.016 3.474c1.415 1.24 2.992 2.445 4.568 3.753 1.592 1.3 3.263 2.6 4.963 3.9l5.18 3.953 5.232 3.882 5.1 3.706 4.823 3.414 4.37 3 3.74 2.505 2.943 1.886 1.234.75q-.328.654-.684 1.27c-33.335-21.204-47.952-35.113-54.266-41.124zm57.178 34.335c-.044.135-.093.27-.138.4-29.067-18.495-41.74-30.58-47.166-35.762l-1.636-1.546c.5-.148 1.02-.35 1.53-.544l1.5 1.43c5.383 5.138 17.868 17.032 46.155 35.148-.1.288-.167.584-.258.87zm-2.553 2.965c-.886-.368-1.9-.876-3.1-1.43-1.206-.53-2.52-1.265-3.96-2.028-2.876-1.554-6.158-3.5-9.582-5.75s-7-4.746-10.47-7.4c-1.748-1.307-3.44-2.7-5.127-4.017l-4.8-4.1c-1.525-1.363-3-2.7-4.323-4.006-1.37-1.278-2.58-2.57-3.7-3.763-1.15-1.156-2.04-2.357-2.9-3.355-.833-1.017-1.457-1.965-2.02-2.708-.144-.206-.234-.377-.346-.564l1.755-.283c.6.48 1.422 1.274 2.568 2.367 5.487 5.24 18.32 17.483 47.786 36.2q-.258.68-.536 1.345l-1.26-.523zm-42.1-40.282l-.978-.93a14.36 14.36 0 0 0 2.648-1.911l.782.627 3.07 2.43 7.744 5.95 8.975 6.65a595.4 595.4 0 0 0 17.095 12.088l5.834 3.815 1.364.853a59.55 59.55 0 0 1-1.092 5.082c-27.83-17.866-40.127-29.58-45.445-34.656zm46.077 26.9c-1.515-.633-3.654-1.6-6.182-2.925-2.5-1.338-5.4-2.97-8.414-4.887-3.03-1.878-6.15-4.05-9.24-6.266l-4.52-3.427c-1.5-1.122-2.888-2.332-4.27-3.456-2.727-2.293-5.2-4.523-7.22-6.525a80.42 80.42 0 0 1-3.388-3.491 14.78 14.78 0 0 0 2.164-3.62 18.83 18.83 0 0 0 1.133-4.51v-.048l1.66 1.288 7.6 5.774 8.815 6.457 8.915 6.314 7.856 5.43 5.7 3.76.65.417a57.72 57.72 0 0 1-.256 8.5c-.054.513-.133 1.017-.2 1.526zm11.384 30.45c-.457 1.804-1.222 3.515-2.263 5.057l-.844 1.12c-.282.366-.592.635-.876.966l-.428.483-.655.577-1.34 1.166a5.67 5.67 0 0 1-3.516.609c-3.542-.3-7.773-2.045-11.7-4.067a111.13 111.13 0 0 1-11.673-7.1 222.93 222.93 0 0 1-21.844-17.275l-2.555-2.338-1.217-1.153-1.228-1.212a134.91 134.91 0 0 1-4.744-5 76.15 76.15 0 0 1-8.188-10.64 32.22 32.22 0 0 1-2.806-5.575 11.59 11.59 0 0 1-.887-5.044c.118-1.187.656-2.293 1.517-3.118l1.967 1.853c6.348 6.042 21.038 20.02 54.473 41.3a.77.77 0 0 1-.124.067 3.87 3.87 0 0 1-1.746.024 20.11 20.11 0 0 1-4.648-1.525 76.4 76.4 0 0 1-8.786-4.776c-5.516-3.437-10.378-7-14.686-10.317a252.77 252.77 0 0 1-19.2-16.453c-4.23-4.036-6.287-6.4-6.287-6.4s1.872 2.506 5.8 6.868a214.57 214.57 0 0 0 18.233 17.745c4.147 3.6 8.83 7.5 14.278 11.354a71.73 71.73 0 0 0 8.972 5.525 23.8 23.8 0 0 0 5.558 2.08 7.92 7.92 0 0 0 3.77-.013 6 6 0 0 0 1.887-1.005c.477-.36.926-.755 1.344-1.183 3.066-3.234 4.8-7.02 6.34-10.974a59.24 59.24 0 0 0 3.182-12.607 60.15 60.15 0 0 0 .437-13.747c-.386-4.888-1.533-9.687-3.4-14.22-3.678-8.885-8.143-17.55-12.625-26.62-4.5-9.028-9.216-18.36-13.476-27.96-1.04-2.394-2.045-4.827-2.823-7.18a18.73 18.73 0 0 1-.81-3.187 3.26 3.26 0 0 1-.025-.371v-.02l.008-.052.07-.5c.1-.713.2-1.3.3-1.892 1-5.08 2.323-11.485 1.363-17.88a37.35 37.35 0 0 0-2.559-9.257l-.97-2.182-1.1-2.1c-.74-1.4-1.513-2.613-2.284-3.886-3.1-5-6.32-9.855-9.65-14.738-6.67-9.74-13.727-19.443-21.284-29a260.72 260.72 0 0 0-24.833-27.712c-4.687-4.317-9.573-8.56-15.76-11.892a32.29 32.29 0 0 0-5.054-2.156c-.95-.3-1.92-.54-2.9-.72-.537-.076-1.012-.15-1.6-.2l-1.16-.092a103.78 103.78 0 0 0-4.864-.264c-1.6-.063-3.187-.086-4.768-.1-12.588-.112-24.872.116-36.98-1.063l-2.215-.242-.15-.12-.078.1c-11.216-1.237-22.207-3.668-32.093-8.26-5.267-2.4-10.194-5.485-14.652-9.176l-2.035-1.758-.373-.342-4.214-3.97c-2.264-2.112-4.34-4.246-6.515-6.36-17.18-17.246-33.195-35.336-48.232-53.127-7.488-8.93-14.715-17.826-21.55-26.683-3.424-4.422-6.734-8.85-9.882-13.27-1.62-2.2-3.055-4.437-4.576-6.632l-1.026-1.63-.827-1.486a21.96 21.96 0 0 1-1.3-3.1c-.665-1.708-.785-3.58-.344-5.36a5.72 5.72 0 0 1 3.046-3.344 8.95 8.95 0 0 1 2.96-.844l12.4 16.183 16.48 20.998L118.22 72.1c8.22 9.688 17.267 20.073 27.373 30.594 5.053 5.26 10.388 10.537 16.1 15.678a128.1 128.1 0 0 0 18.732 14.379 42.16 42.16 0 0 0 2.661 1.539 36.13 36.13 0 0 0 2.712 1.4c.945.48 1.918.9 2.913 1.263a37.59 37.59 0 0 0 3.025.9 96.26 96.26 0 0 0 12.2 2.09c8.187.93 16.467 1.392 24.805 1.772l25.137.96c4.183.186 8.43.378 12.5.784l1.57.182 1.355.25a22.4 22.4 0 0 1 2.753.9c1.857.785 3.65 1.7 5.37 2.765 6.975 4.334 13.335 9.9 19.392 15.63 6.05 5.77 11.782 11.857 17.266 18.068 5.465 6.22 10.742 12.56 15.515 19.077 4.76 6.552 9.144 13.288 13.245 20.032s7.913 13.52 11.333 20.282c1.7 3.38 3.332 6.758 4.706 10.155a50.09 50.09 0 0 1 1.79 5.09c.1.412.235.86.306 1.242.094.405.162.816.206 1.23a24.89 24.89 0 0 1 .087 2.571c-.068 3.527-.415 7.187-.27 10.8.102 3.557.562 7.096 1.373 10.56a86.56 86.56 0 0 0 6.874 18.8c1.452 2.866 2.88 5.662 4.4 8.273l4.358 7.734a151.35 151.35 0 0 1 7 14.754c3.385 8.202 5.885 16.74 7.46 25.473a115.6 115.6 0 0 1 1.713 17.048c.072 3.96-.032 6.078-.032 6.078s.176-2.108.237-6.08a107.6 107.6 0 0 0-1.2-17.165c-1.366-8.843-3.672-17.514-6.877-25.868-1.96-5.146-4.196-10.183-6.7-15.088l-4.246-7.836c-1.5-2.656-2.853-5.417-4.228-8.233a84.4 84.4 0 0 1-6.417-18.4 50.52 50.52 0 0 1-1.16-10.113c-.088-3.456.3-6.95.435-10.7a27.1 27.1 0 0 0-.058-2.895 14.15 14.15 0 0 0-.221-1.484c-.092-.52-.22-.958-.33-1.442a52.63 52.63 0 0 0-1.81-5.427c-1.37-3.542-2.97-7-4.653-10.46-3.4-6.9-7.242-13.734-11.334-20.572s-8.492-13.648-13.3-20.33c-4.844-6.682-10.123-13.08-15.617-19.4q-4.173-4.77-8.55-9.425c.207.1.408.2.62.268 3.573 1.288 7.44 1.528 11.143.692 3.715-.796 7.22-2.373 10.278-4.626a29.28 29.28 0 0 0 3.691-3.285l1.632 1.653c5.6 6.047 10.755 12.5 15.426 19.28 5.216 7.432 9.82 14.843 13.974 21.945a11.49 11.49 0 0 0-.545.4l-1 .78-.033.024-1.02.862a27.46 27.46 0 0 0-5.99 7.517 23.18 23.18 0 0 0-2.492 7.29 16 16 0 0 0 1.231 9.32 14.35 14.35 0 0 0 7.865 7.23 18.92 18.92 0 0 0 8.83 1.037l.03.717a34.5 34.5 0 0 0 .284 3.918l1.137 9.37 1.085 5.3c.335 1.902.768 3.785 1.3 5.642q.85 2.863 1.742 5.876c.554 2.023 1.475 3.962 2.22 6.008q.594 1.522 1.2 3.07l1.422 3.018c1 2 1.86 4.12 3.016 6.087l3.35 6.026 3.46 5.735a21.73 21.73 0 0 0-.763 3.14 16.01 16.01 0 0 0 1.231 9.32 14.35 14.35 0 0 0 7.865 7.23c1.396.536 2.856.885 4.343 1.04.464.82.912 1.64 1.332 2.463l2.9 5.53q1.278 2.773 2.5 5.42a56.28 56.28 0 0 1 2.16 5.208q.974 2.547 1.88 4.915c1.1 3.173 1.885 6.12 2.7 8.7l.57 1.877.417 1.843 1.36 6.025-3.816 2.642q-.594-1.938-1.355-4.428l-2.524-7.052c-.873-2.608-2.065-5.3-3.244-8.184-1.136-2.9-2.576-5.856-4.007-8.932-1.388-3.1-3.118-6.15-4.712-9.323-1.75-3.1-3.443-6.277-5.315-9.345-3.635-6.2-7.52-12.224-10.942-17.96-1.744-2.855-3.305-5.667-4.74-8.363l-2-3.974q-.836-1.982-1.613-3.82a31.32 31.32 0 0 1-1.284-3.593c-.35-1.16-.77-2.242-1-3.3-.415-2.12-.916-3.96-1.1-5.507l-.474-4.9.17 4.922c.08 1.568.465 3.44.753 5.618.177 1.083.53 2.2.813 3.4a32.3 32.3 0 0 0 1.076 3.725l1.4 3.983q.856 2.012 1.767 4.152c1.28 2.814 2.688 5.768 4.26 8.74l9.793 18.577c1.663 3.15 3.13 6.382 4.66 9.52 1.367 3.2 2.875 6.294 4.04 9.4 1.2 3.087 2.43 6.043 3.36 8.934.97 2.872 1.97 5.567 2.643 8.1l1.994 6.87 1.666 6.962-4.24 3.036q-.258-1.223-.556-2.637c-.387-1.894-1-4.078-1.567-6.43s-1.222-4.9-2.043-7.555c-.786-2.656-1.568-5.465-2.6-8.313q-.73-2.142-1.48-4.352-.834-2.175-1.686-4.4c-1.1-2.974-2.434-5.9-3.7-8.855-1.374-2.9-2.7-5.83-4.2-8.613-1.426-2.815-2.944-5.517-4.4-8.136l-4.3-7.462-3.765-6.7c-1.155-2.082-2.088-4.047-2.92-5.8-.8-1.753-1.4-3.332-1.943-4.612l-1.366-4.15 1.077 4.248c.456 1.315.936 2.948 1.627 4.767.714 1.8 1.518 3.86 2.53 6.03.962 2.2 2.12 4.515 3.306 6.983l3.76 7.727 3.777 8.333c1.275 2.838 2.373 5.8 3.52 8.73 1.037 2.977 2.15 5.92 3 8.9l1.343 4.4 1.146 4.342c.8 2.833 1.37 5.63 1.955 8.266.62 2.63 1.07 5.134 1.465 7.442s.827 4.387 1.083 6.316l.83 5.982-7.044 5.368a118.28 118.28 0 0 0-2.86 2.31c-.863.712-2.274 1.94-3.005 2.7l-.467.475a4.13 4.13 0 0 0-.4.47 21.46 21.46 0 0 0-.913 1.351 12.62 12.62 0 0 0-1.027 2.6 24.93 24.93 0 0 0-.72 4.247 40.68 40.68 0 0 1-.908 6.365zm43.333-44.787q-.393-1.42-.865-3.124l-.506-1.822q-.338-.96-.7-1.983c-.994-2.717-2-5.838-3.314-9.117q-1.06-2.418-2.206-5.03c-.752-1.74-1.53-3.538-2.506-5.3l-2.86-5.488c-1.023-1.843-2.163-3.667-3.27-5.55-.03-.053-.066-.1-.1-.158q.68-.1 1.354-.235c.342-.068.676-.185 1.015-.27l6.765 10.373c-.642-2.183-1.926-6.035-3.864-11.293 1.232-.472 2.428-1.03 3.58-1.675l.253.732 2.5 7.918c.8 2.57 1.453 5.085 2.095 7.46s1.138 4.652 1.656 6.734c.495 2.087.85 4 1.215 5.7.37 1.675.615 3.2.84 4.454l.646 3.666a20.72 20.72 0 0 1-1.733 4.002zM410.487 282.9c-1.318.404-2.603.9-3.843 1.512l-1.706-3.256-6.726-12.8 7.416 16.578-.65.347a32.23 32.23 0 0 0-2.966 1.907c-6.217-14.055-14.114-30.652-23.773-48.882a26.83 26.83 0 0 0 11.67-8.792l3.8 7.484 6.3 12.75 5.8 12.307q1.383 3.012 2.726 5.94 1.287 2.95 2.533 5.808c1.26 2.828 2.4 5.587 3.522 8.294a22.04 22.04 0 0 0-4.093.811zm-36.417-43.314c.722-.144 1.435-.355 2.146-.57.47 7.225 2.028 21.13 7.22 32.74 2.383 5.328 6.972 13.422 12.083 21.93a27.44 27.44 0 0 0-1.792 2.858c-.037.07-.07.148-.107.217l-2.343-3.492c-1.237-1.9-2.383-3.845-3.57-5.75-1.234-1.882-2.16-3.894-3.236-5.8l-1.537-2.888q-.66-1.482-1.3-2.94c-.822-1.964-1.824-3.827-2.46-5.78q-1.018-2.912-2-5.688a54.02 54.02 0 0 1-1.549-5.495q-.687-2.688-1.326-5.184l-1.577-9.24a34.38 34.38 0 0 1-.471-3.884l-.065-.724c.632-.083 1.262-.173 1.884-.3zm23.1 58.826a19.73 19.73 0 0 1 2.906-4.027 23.65 23.65 0 0 1 2.335-2.208l.87-.687.988-.68a20.2 20.2 0 0 1 2.765-1.524 18.11 18.11 0 0 1 4.647-1.41 16.33 16.33 0 0 1 5.961.079 11.12 11.12 0 0 1 5.521 2.92c1.614 1.665 2.553 3.868 2.637 6.185.095 2.756-.53 5.5-1.8 7.93a21.88 21.88 0 0 1-5.589 6.96 21.5 21.5 0 0 1-8.059 4.285 14.67 14.67 0 0 1-8.461-.073 9.66 9.66 0 0 1-5.695-4.826 11.96 11.96 0 0 1-1.03-6.947 16.69 16.69 0 0 1 2.013-5.981zm30.92 34.645l-2.6-7.45c-.918-2.576-1.972-5.2-3.032-7.86l-.582-1.4a29 29 0 0 0 4.116-3.731l2.384 7.254 3.38 10.045q.6 1.632.93 2.5c-.74.795-1.477 1.616-2.214 2.544-.4.545-.812 1.053-1.224 1.68l-1.16-3.594zm11.894-7.712q-1.42 1.3-2.833 2.632l-.044-.1c-.85-2.23-2.012-5.472-3.5-9.754l-3.857-10.9a22.15 22.15 0 0 0 1.873-4.674q.5 1.3.977 2.573l6.1 16.542 1.282 3.7zm-20.2-43.1l-4.6-10.282-2.67-5.8-2.864-5.924c-1.9-4.02-3.968-8.1-6.086-12.256-2.08-4.18-4.308-8.394-6.577-12.677l-4.877-9.1a21.14 21.14 0 0 0 2.765-10.711l.783 1.64 5.54 11.962 11.453 26.26 11.64 28.4a15.83 15.83 0 0 0-4.513-1.505zM388.4 215.57a15.88 15.88 0 0 1-1.812 7.931c-1.365 2.68-3.267 5.05-5.588 6.96a21.5 21.5 0 0 1-8.059 4.285c-2.767.807-5.7.782-8.462-.073a9.66 9.66 0 0 1-5.694-4.826 11.96 11.96 0 0 1-1.03-6.947 16.67 16.67 0 0 1 2.015-5.979 19.75 19.75 0 0 1 2.906-4.027 23.42 23.42 0 0 1 2.335-2.208l.87-.687 1-.68a20.2 20.2 0 0 1 2.765-1.524 17.73 17.73 0 0 1 4.647-1.4 16.29 16.29 0 0 1 5.96.08 11.12 11.12 0 0 1 5.521 2.92c1.613 1.665 2.553 3.868 2.637 6.185zm-15.3-14.162a27.46 27.46 0 0 0-5.509 2.373l-.858.5c-4-7.2-8.43-14.733-13.505-22.336a174.02 174.02 0 0 0-15.539-19.729c-.6-.647-1.23-1.27-1.845-1.906a26.31 26.31 0 0 0 2.014-2.989c.883-1.554 1.577-3.208 2.066-4.927 2.418 2.166 4.794 4.4 7.062 6.775a115.75 115.75 0 0 1 18.115 24.455q4.867 8.7 9.612 17.357a23.75 23.75 0 0 0-1.616.416zm-40.664-46.986c-1.365 2.68-3.267 5.05-5.6 6.96a21.5 21.5 0 0 1-8.059 4.285 14.67 14.67 0 0 1-8.461-.073c-2.468-.78-4.52-2.52-5.694-4.826a11.96 11.96 0 0 1-1.03-6.947c.285-2.103.97-4.132 2.014-5.98.796-1.46 1.772-2.812 2.907-4.027a23.3 23.3 0 0 1 2.334-2.208l.87-.688.988-.678a20.2 20.2 0 0 1 2.765-1.524 18.09 18.09 0 0 1 4.646-1.41 16.29 16.29 0 0 1 5.96.08 11.12 11.12 0 0 1 5.521 2.92c1.614 1.664 2.554 3.868 2.637 6.185.095 2.756-.53 5.5-1.814 7.93zm143.87 133.145c.03.086 0 .02-.005 0zM169.7 78.574a190.97 190.97 0 0 1 25.423-10.854c8.738-3 17.7-5.338 26.78-7a194.86 194.86 0 0 1 27.54-3.174 211.08 211.08 0 0 1 55.184 4.832 183.11 183.11 0 0 1 51.519 19.692 134.18 134.18 0 0 1 11.5 7.47c1.854 1.32 3.527 2.726 5.306 4.077l4.014 3.495.564.5.6.594a150.62 150.62 0 0 1 17.78 20.95c10.847 15.1 20.166 31.478 28.873 48.14 8.7 16.682 16.668 33.794 24.248 51.072q11.3 25.95 21.3 52.46l4.8 13.25 1.086 3.272.063.2c-.015.023.015.012 0 .088a2.6 2.6 0 0 1-.109.638c-.22.734-.527 1.44-.914 2.1-.766-2.3-1.76-5.152-3-8.537-3.367-9.207-8.37-22.247-14.85-37.7-6.5-15.44-14.322-33.35-23.4-52.236-4.557-9.432-9.407-19.117-14.648-28.8a326.24 326.24 0 0 0-17.164-28.744c-3.192-4.643-6.66-9.1-10.386-13.32s-7.54-8.294-11.505-12.164A177.24 177.24 0 0 0 355.099 88.4a147.68 147.68 0 0 0-26.824-14.2 143.55 143.55 0 0 0-26.024-7.737 141.43 141.43 0 0 0-22.763-2.522 158.91 158.91 0 0 0-17.62.48c-4.864.448-8.665.96-11.245 1.37l-3.953.65 3.972-.516c2.6-.324 6.4-.706 11.262-.988a157.96 157.96 0 0 1 17.53.116 152.8 152.8 0 0 1 22.452 3.152c8.72 1.948 17.238 4.717 25.436 8.272a153.12 153.12 0 0 1 26.029 14.5 173.89 173.89 0 0 1 24.36 20.52c3.816 3.862 7.5 7.936 11.034 12.1 3.558 4.2 6.877 8.577 9.94 13.14a322.72 322.72 0 0 1 16.554 28.553c5.072 9.673 9.77 19.36 14.182 28.8 8.842 18.87 16.57 36.74 22.925 52.16s11.434 28.358 14.75 37.47c1.668 4.546 2.9 8.165 3.67 10.568q.3.906.5 1.618-1.04 1.234-2.16 2.453l-4.5-12.105c-4.03-10.635-9.9-25.787-17.52-43.74-7.648-17.934-16.926-38.733-28.32-60.326-5.7-10.795-11.93-21.78-18.957-32.538-3.52-5.328-7.285-10.742-11.267-15.8a192.78 192.78 0 0 0-12.917-14.757 161.88 161.88 0 0 0-30.283-24.485 143.75 143.75 0 0 0-34.324-15.517 140.04 140.04 0 0 0-34.7-5.739 148.55 148.55 0 0 0-31.4 2.185 146.59 146.59 0 0 0-14.715 3.315l-.132.025c-4.187.812-9.042 1.917-14.2 3.258-2.582.684-5.246 1.406-7.93 2.227-2.7.767-5.4 1.7-8.115 2.58-2.7.956-5.4 1.88-8.012 2.928-2.64.982-5.18 2.1-7.66 3.138-2.445 1.114-4.83 2.162-7.034 3.277s-4.305 2.148-6.182 3.226l-2.717 1.5-2.424 1.47c-1.527.925-2.864 1.733-3.865 2.436l-1.666 1.117q-2.305-2.563-4.878-5.468l2.192-1.525c1.024-.737 2.27-1.566 3.707-2.456 1.434-.914 3.04-1.963 4.888-3 1.815-1.084 3.807-2.217 5.962-3.336 2.122-1.18 4.44-2.27 6.818-3.448 2.407-1.1 4.9-2.282 7.47-3.346l3.893-1.616 3.97-1.522a224.41 224.41 0 0 1 7.995-2.826c2.655-.886 5.285-1.713 7.848-2.458 2.552-.782 5.053-1.425 7.412-2.08l6.7-1.674c4.16-1 7.652-1.732 10.1-2.234l3.85-.77-3.885.57c-2.47.374-6 .925-10.216 1.708-2.115.36-4.385.856-6.8 1.326l-7.547 1.7c-2.614.614-5.3 1.3-8.022 2.06a209.99 209.99 0 0 0-8.2 2.43l-4.093 1.328-4.026 1.43c-2.67.94-5.252 2-7.76 3-2.48 1.07-4.9 2.06-7.13 3.15-2.26 1.028-4.358 2.08-6.276 3.093-1.938.963-3.676 1.97-5.224 2.848-1.568.866-2.9 1.65-3.93 2.32L152.25 97q-2.085-2.4-4.3-5.006c6.958-4.935 14.227-9.418 21.76-13.42zM69.978 8.24a.42.42 0 0 1-.058-.034.75.75 0 0 1 .078.03c.027.02.03.026-.02.004zm-.548-.156a3.62 3.62 0 0 1 .451.108l.106.1.554.55c.8.815 1.617 1.743 2.426 2.66 6.5 7.507 12.655 15.146 18.6 22.36l17.188 20.684 15.8 18.45c9.993 11.52 19 21.323 26.615 29.232s14.118 13.677 18.967 17.112a42.44 42.44 0 0 0 5.775 3.555 16.48 16.48 0 0 0 1.594.694l.544.2a41 41 0 0 1-4.386-3.644l2.428-2.17c.895-.73 1.975-1.525 3.22-2.5 1.308-.93 2.844-1.972 4.522-3.08 1.74-1.03 3.56-2.255 5.622-3.348l3.136-1.742 3.348-1.7c2.257-1.192 4.7-2.23 7.115-3.383 2.478-1.035 4.963-2.183 7.524-3.14 2.536-1.025 5.107-1.96 7.654-2.843 2.534-.924 5.083-1.656 7.528-2.453 2.477-.667 4.852-1.423 7.15-1.944 2.3-.55 4.456-1.1 6.483-1.452 2.018-.414 3.875-.758 5.536-.966 1.657-.235 3.1-.48 4.3-.548l3.772-.33-3.8.08c-1.2-.01-2.668.14-4.347.265-1.683.1-3.568.32-5.622.6-2.065.226-4.274.63-6.618 1.03-2.352.374-4.786.975-7.335 1.485-2.513.638-5.142 1.2-7.76 1.973-2.632.722-5.295 1.5-7.93 2.366-2.66.8-5.254 1.794-7.844 2.682-2.543 1-5.1 1.9-7.478 2.97l-3.542 1.516-3.344 1.58c-2.193.985-4.177 2.132-6.057 3.087q-2.765 1.572-5 2.945l-3.82 2.6-2.98 2.33q-2.487-2.574-5.6-5.977l1.1-.84c.987-.785 2.185-1.607 3.562-2.558l2.2-1.525 2.534-1.6c1.748-1.153 3.72-2.282 5.8-3.492s4.34-2.38 6.662-3.615c2.36-1.163 4.784-2.4 7.317-3.532 2.505-1.187 5.1-2.257 7.7-3.363 2.623-1.03 5.23-2.116 7.854-3.036 2.6-.974 5.2-1.85 7.714-2.684 5.04-1.642 9.8-3.034 13.9-4.1a219.19 219.19 0 0 1 9.992-2.392l2.035-.426 2.777-.465a147.27 147.27 0 0 1 31.18-1.7 138.4 138.4 0 0 1 34.2 6.184 141.56 141.56 0 0 1 33.565 15.782c10.75 6.957 20.622 15.187 29.4 24.5a189.34 189.34 0 0 1 12.446 14.655c3.94 5.16 7.448 10.373 10.9 15.742 6.782 10.723 12.812 21.7 18.3 32.492 11 21.6 19.932 42.42 27.283 60.375 7.32 17.975 12.948 33.145 16.807 43.788l5.286 14.883-2.4 2.285-.08-.215-3.742-9.755c-3.274-8.368-8.086-20.26-14.138-34.4-6.07-14.143-13.364-30.555-21.754-47.874-8.418-17.3-17.842-35.57-28.7-53.038a202.71 202.71 0 0 0-17.94-24.918 141.01 141.01 0 0 0-22.1-19.894 138.11 138.11 0 0 0-23.966-14.027 139.85 139.85 0 0 0-23.43-8.3 148.7 148.7 0 0 0-20.646-3.8 160.58 160.58 0 0 0-16.147-.99c-4.486-.042-8.008.1-10.406.235l-3.675.237 3.678-.187c2.4-.1 5.92-.2 10.4-.1a160.67 160.67 0 0 1 16.1 1.2 147.99 147.99 0 0 1 20.517 4.068 139.01 139.01 0 0 1 23.174 8.562 136.96 136.96 0 0 1 23.57 14.223 139.69 139.69 0 0 1 21.577 19.942c6.43 7.848 12.256 16.172 17.428 24.9 10.555 17.494 19.708 35.823 27.87 53.172 8.134 17.37 15.193 33.833 21.06 48.014l13.64 34.48 3.585 9.724.7 1.977q-1.56 1.433-3.144 2.855l-1.557-3.813-8.1-19.568-11.8-27.522-14.1-31.293-7.47-15.757-7.516-15.128-7.363-13.975q-1.83-3.293-3.553-6.4c-1.13-2.076-2.26-4.058-3.415-5.922l-3.245-5.388q-.774-1.28-1.507-2.5-.793-1.178-1.54-2.287c-2.02-2.932-3.65-5.58-5.22-7.6l-4.982-6.3 4.826 6.4c1.518 2.05 3.083 4.736 5.028 7.708l1.48 2.316 4.554 7.98c1.107 1.885 2.188 3.9 3.265 6l3.4 6.466c2.324 4.44 4.576 9.226 7.012 14.12l7.138 15.273 7.08 15.9 13.332 31.567 11.123 27.747 7.62 19.725 2.042 5.363-2.2 1.95-4.464-11.33-15.188-37.463c-6.493-15.423-14.354-33.307-23.66-52.067-4.65-9.38-9.65-18.983-15.08-28.56a327.54 327.54 0 0 0-17.8-28.274c-6.56-9.085-13.65-17.946-22.47-25a141.13 141.13 0 0 0-56.225-27.092c-4.712-1.06-9.337-1.906-13.845-2.48-4.5-.538-8.888-.895-13.1-1a135.19 135.19 0 0 0-22.9 1.21 129.8 129.8 0 0 0-17.268 3.665c-4.705 1.35-8.284 2.757-10.727 3.68l-3.7 1.543 3.778-1.32c2.5-.775 6.13-1.962 10.875-3.024a139.17 139.17 0 0 1 17.239-2.921 145.66 145.66 0 0 1 49.044 3.2 138.22 138.22 0 0 1 54.858 27.058c8.32 6.723 15.285 15.465 21.672 24.44 6.285 9.055 12.105 18.426 17.435 28.074 5.33 9.532 10.246 19.108 14.817 28.466 9.108 18.737 16.923 36.565 23.416 51.93l15.157 37.373 4.992 12.665-2.554 2.264-.667-1.724-6.7-16.445a1437.67 1437.67 0 0 0-21.663-49.2L402.7 228.36l-5.95-11.8-2.3-4.412a15.19 15.19 0 0 0-3.751-7.041l-4.3-7.768-3.866-6.666-3.492-5.733 3.3 5.846c1.078 1.842 2.236 4.164 3.635 6.786.993 1.84 2.027 3.885 3.12 6.07-2.323-1.76-5.096-2.83-8-3.085-1.116-.1-2.238-.104-3.354-.01q-5.2-9.072-10.532-18.16c-5.17-9-11.497-17.265-18.817-24.612-2.586-2.63-5.27-5.123-8.03-7.488a19.6 19.6 0 0 0 .353-4.123 15.52 15.52 0 0 0-4.53-10.514 15.13 15.13 0 0 0-9.255-4.17 20.76 20.76 0 0 0-8.023.838 27 27 0 0 0-3.164 1.19 127.17 127.17 0 0 0-39.89-13.492c-6.977-1.107-14.036-1.612-21.1-1.5-5.436.093-10.86.53-16.24 1.312-2.246.26-4.216.7-5.945 1s-3.18.643-4.36.92l-3.613.838 3.625-.785c1.18-.257 2.635-.6 4.37-.853s3.705-.688 5.95-.913c5.378-.7 10.794-1.055 16.217-1.067a124.25 124.25 0 0 1 59.425 15.308l-.8.422c-1.113.63-2.187 1.327-3.214 2.088l-1.032.804-1.02.862c-.2.166-.407.364-.638.582l-.855-.445c-3.9-1.886-7.934-3.527-12.048-4.913a92.92 92.92 0 0 0-24.8-4.688 179.3 179.3 0 0 0-23.456.225l-20.836 1.64c-6.436.495-12.336.83-17.565.9a74.54 74.54 0 0 1-13.474-.937 37.87 37.87 0 0 1-8.367-2.35 21.74 21.74 0 0 1-2.079-.985l-.708-.358.683.4c.655.408 1.33.78 2.025 1.117a34.82 34.82 0 0 0 8.314 2.84 75.52 75.52 0 0 0 13.586 1.575c5.28.217 11.24.07 17.706-.27l20.843-1.052c7.708-.347 15.43-.294 23.132.157a88.91 88.91 0 0 1 23.982 4.772 111.68 111.68 0 0 1 11.58 4.875 27.5 27.5 0 0 0-3.012 4.44 23.18 23.18 0 0 0-2.492 7.29 16.18 16.18 0 0 0 .937 8.622l-1.3-1.287c-6.155-5.848-12.533-11.593-19.97-16.177a43.49 43.49 0 0 0-5.918-3c-1.067-.424-2.16-.777-3.274-1.055-.6-.108-1.156-.223-1.765-.314l-1.58-.176c-4.34-.4-8.536-.57-12.772-.74l-25.134-.834c-8.3-.337-16.534-.758-24.578-1.63a93.3 93.3 0 0 1-11.774-1.949 23.54 23.54 0 0 1-5.356-1.923c-.92-.42-1.8-.864-2.612-1.332-.84-.448-1.677-.913-2.5-1.434a97.75 97.75 0 0 1-9.548-6.6c-3.05-2.35-6.015-4.776-8.86-7.282-5.7-5-11.08-10.148-16.178-15.3-10.2-10.3-19.364-20.545-27.713-30.083C103.125 51.635 89.68 35.3 80.33 23.82L67.512 8.055a6.75 6.75 0 0 1 1.918.029zM367.192 214.44l-.02.016-.545.465c-.514.44-.996.913-1.444 1.42-.698.788-1.324 1.636-1.873 2.534a12.15 12.15 0 0 0-1.518 3.842 7.98 7.98 0 0 0 .5 5.018 6.8 6.8 0 0 0 4.269 3.62c1.917.513 3.94.48 5.84-.094a16.54 16.54 0 0 0 5.281-2.62 18.54 18.54 0 0 0 4.227-4.288 11.47 11.47 0 0 0 2.085-5.76 8.17 8.17 0 0 0-.52-3.165l-.373-.807-.337-.558a6.65 6.65 0 0 0-1.042-1.234c-1.392-1.282-3.208-2.006-5.1-2.032a11.15 11.15 0 0 0-4.282.687c-1.65.613-3.2 1.467-4.6 2.534zm3.013-.1a10.52 10.52 0 0 1 6.128-.84c1.2.2 2.314.764 3.206 1.594.203.208.4.43.556.668l.335.518.164.36a6.63 6.63 0 0 1 .48 1.976 9.42 9.42 0 0 1-.926 4.721 12.08 12.08 0 0 1-3.251 4.2 15.14 15.14 0 0 1-2.313 1.5 10.42 10.42 0 0 1-2.517.96 8.9 8.9 0 0 1-5.04-.1 5.5 5.5 0 0 1-3.321-2.9 6.88 6.88 0 0 1-.457-4.018 11.14 11.14 0 0 1 2.946-5.718c.42-.452.87-.874 1.35-1.262l.495-.4.563-.372c.508-.34 1.044-.634 1.603-.88z"/><path d="M369.438 209.847a18.37 18.37 0 0 0-2.24 1.4l-.727.53-.02.016-.7.615a18.45 18.45 0 0 0-1.84 1.87 16.89 16.89 0 0 0-2.29 3.351 15.15 15.15 0 0 0-1.634 4.963c-.33 2.043-.048 4.138.8 6.022 1.013 2.082 2.825 3.664 5.024 4.388 2.354.78 4.88.886 7.3.306 2.5-.578 4.853-1.664 6.914-3.2a20.11 20.11 0 0 0 5.136-5.76 14.23 14.23 0 0 0 2.054-7.252 10.38 10.38 0 0 0-.731-3.65l-.408-.867-.446-.7a8.7 8.7 0 0 0-1.154-1.387 9.91 9.91 0 0 0-5.875-2.631c-1.797-.197-3.615-.04-5.352.463a17.92 17.92 0 0 0-3.8 1.526zm.7 1.314c1.117-.584 2.296-1.04 3.515-1.36 1.56-.42 3.18-.558 4.788-.406 1.862.147 3.622.9 5 2.172.35.336.665.707.938 1.1l.437.7.3.66a8.9 8.9 0 0 1 .606 3.084c-.045 2.287-.673 4.525-1.827 6.5a18.76 18.76 0 0 1-4.644 5.393 19.25 19.25 0 0 1-6.35 3.44 12.26 12.26 0 0 1-6.97.233 7.72 7.72 0 0 1-4.912-4.191 9.11 9.11 0 0 1-.5-5.819 13.78 13.78 0 0 1 1.943-4.576 20.23 20.23 0 0 1 2.379-2.993 17.1 17.1 0 0 1 1.816-1.65l.67-.528.724-.5a16.52 16.52 0 0 1 2.086-1.258zm17.782 148.37a125.42 125.42 0 0 0-6.5-25.29c-1.88-5.032-4.023-9.962-6.422-14.768-1.244-2.54-2.716-5.093-4.093-7.68-1.423-2.6-2.885-5.26-4.187-8.02-2.835-5.694-5.077-11.665-6.7-17.818a56.66 56.66 0 0 1-1.53-9.823 76.91 76.91 0 0 1 .235-10.323c.153-1.85.183-3.707.1-5.56-.24-1.903-.688-3.774-1.336-5.58a101.3 101.3 0 0 0-4.271-10.365c-3.177-6.8-6.874-13.5-10.8-20.227-3.936-6.7-8.136-13.4-12.7-20-4.555-6.614-9.634-12.965-14.9-19.2-5.294-6.22-10.845-12.315-16.756-18.13-5.94-5.776-12.152-11.4-19.3-16-3.63-2.2-7.454-4.322-12.057-5.015-4.236-.52-8.355-.682-12.482-.877L229.694 144c-8.1-.323-16.134-.718-24-1.476-3.932-.38-7.824-.87-11.6-1.594-1.856-.34-3.688-.8-5.484-1.38-.45-.127-.85-.314-1.272-.47l-.313-.122c-.087-.037-.057-.016-.12-.048l-.165-.078-.66-.3c-.874-.416-1.778-.817-2.575-1.267a111.41 111.41 0 0 1-18.4-12.754c-5.695-4.706-10.992-9.67-16.036-14.617-10.066-9.926-19.06-19.864-27.235-29.14-16.273-18.63-29.4-34.56-38.525-45.75l-14.34-17.6 3.587 4.727 10.2 13.314L98.842 55.94c6.263 7.878 13.4 16.718 21.44 26.15s16.92 19.526 26.908 29.678c5.006 5.062 10.276 10.156 15.993 15.028a107.17 107.17 0 0 0 18.9 13.3c.9.5 1.758.9 2.636 1.314l.822.393.215.092.366.146c.487.186.976.408 1.464.55a46.32 46.32 0 0 0 5.887 1.52c3.94.775 7.9 1.3 11.9 1.7 7.983.808 16.058 1.245 24.2 1.6l24.5.988c4.082.2 8.205.4 12.152.9 3.612.535 7.22 2.46 10.6 4.546a123 123 0 0 1 18.776 15.43c5.84 5.688 11.363 11.686 16.63 17.813 5.25 6.148 10.284 12.38 14.8 18.864 4.535 6.48 8.734 13.1 12.666 19.722s7.56 13.277 10.8 19.907a98.82 98.82 0 0 1 4.3 9.986 23.54 23.54 0 0 1 1.279 4.926 39.89 39.89 0 0 1-.015 5.14 79.37 79.37 0 0 0-.072 10.64 59.41 59.41 0 0 0 1.753 10.234c1.748 6.285 4.14 12.373 7.136 18.168 1.388 2.82 2.888 5.45 4.348 8.024l4.207 7.56a150.53 150.53 0 0 1 6.718 14.445 124.13 124.13 0 0 1 7.075 24.91c.94 5.5 1.476 11.06 1.6 16.64.058 3.864-.046 5.93-.046 5.93s.174-2.056.247-5.93a105.94 105.94 0 0 0-1.104-16.743z"/><circle cx="375.975" cy="181.285" r="2.093"/><path d="M370.332 175.046c.36.486.977.707 1.564.56s1.027-.632 1.117-1.23a1.49 1.49 0 0 0-.71-1.502c-.52-.312-1.173-.28-1.66.08a1.5 1.5 0 0 0-.59.98 1.45 1.45 0 0 0 .277 1.1zm-3.805-6.018a1.05 1.05 0 0 0 1.095.393c.41-.102.72-.443.782-.862a1.05 1.05 0 0 0-.497-1.052c-.363-.218-.822-.195-1.162.057-.464.344-.562 1-.218 1.464zm-184.443 18.794c-6.65 1.86-13.138 4.26-19.4 7.172-8.17 3.83-15.798 8.72-22.688 14.545a95.04 95.04 0 0 0-20.593 24.5 104.41 104.41 0 0 0-12.516 33.5 96.88 96.88 0 0 0-1.879 18.942l.024.7.05.6.3 3.58q.264 2.388.53 4.787c.42 3.192.894 6.393 1.488 9.588 2.37 12.936 6.3 25.538 11.677 37.536a169.57 169.57 0 0 0 20.312 33.609 183.36 183.36 0 0 0 26.23 27.443 197.76 197.76 0 0 0 28.878 20.551c4.732 2.8 9.63 5.3 14.664 7.485l14.23 5.5a211.36 211.36 0 0 1 24 11.32 150.19 150.19 0 0 1 17.1 11.243c4.537 3.428 7.934 6.347 10.242 8.342l3.5 3.107-3.37-3.248c-2.227-2.1-5.5-5.154-9.92-8.776-5.344-4.328-10.977-8.287-16.86-11.848-7.684-4.545-15.646-8.603-23.838-12.15l-6.92-2.9c-2.35-.954-4.837-1.868-7.156-2.9a133.52 133.52 0 0 1-14.225-7.6 194.54 194.54 0 0 1-53.34-48.025 165.8 165.8 0 0 1-19.5-32.958 159.24 159.24 0 0 1-11.241-36.548c-.568-3.1-1.02-6.227-1.42-9.335q-.25-2.337-.5-4.663l-.192-2.327-.15-1.74v-.47c.005-6.045.58-12.077 1.72-18.014 1.076-5.776 2.63-11.452 4.645-16.97 1.895-5.295 4.237-10.42 7-15.318a96.11 96.11 0 0 1 19.233-24.047 104.57 104.57 0 0 1 21.536-14.97 127.37 127.37 0 0 1 18.71-8.12c5.372-1.84 9.7-2.966 12.644-3.78l4.547-1.112-4.623.77c-3.002.562-7.4 1.425-12.917 3zM114.05 288.906a92.77 92.77 0 0 0 .635 9.442 89.01 89.01 0 0 0 2.229 12.113 80.02 80.02 0 0 0 13.133 27.986 65.84 65.84 0 0 0 28.13 21.765c1.395.64 2.86 1.1 4.3 1.635l4.187 1.473 4.018 1.6 3.96 1.772c5.108 2.44 10.062 5.2 14.835 8.234a187.97 187.97 0 0 1 23.978 18.445c6.58 5.982 11.828 11.264 15.322 15.128 3.518 3.843 5.423 6.146 5.423 6.146s-1.6-2.528-4.808-6.665a178.52 178.52 0 0 0-14.307-16.32 156.6 156.6 0 0 0-23.65-19.718 117.85 117.85 0 0 0-15.135-8.74c-1.34-.656-2.723-1.242-4.1-1.87l-4.233-1.713-4.222-1.514c-1.355-.508-2.752-.922-4.073-1.518a65.71 65.71 0 0 1-26.919-20.217 75.4 75.4 0 0 1-8.421-13.311 93.2 93.2 0 0 1-5.311-13.19 99.37 99.37 0 0 1-4.232-21c-.23-2.6-.348-4.633-.4-6.03l-.04-2.145-.162 2.14c-.073 1.402-.2 3.462-.144 6.08zM295.9 492.2l1.107 1.3 1.06 1.47q1.085 1.508 2.278 3.162 1.2 1.635 2.516 3.4a42.9 42.9 0 0 1 2.413 3.818 72.67 72.67 0 0 1 4.737 8.492l2.2 4.635c.776 1.55 1.216 3.257 1.85 4.9q.443 1.245.887 2.5a15.68 15.68 0 0 1 .773 2.546q.617 2.6 1.236 5.205l.315 1.3.168 1.326.33 2.647c.284 1.742.43 3.504.44 5.27l.063 5.206q-.222 2.568-.436 5.064a15.5 15.5 0 0 1-.348 2.455q-.218 1.212-.43 2.4-.2 1.188-.422 2.35-.32 1.136-.63 2.243c-.462 1.46-.7 2.952-1.265 4.288q-.75 2.04-1.45 3.93a70.82 70.82 0 0 1-3.172 6.626l-1.488 2.694-1.422 2.188c-.825 1.352-1.674 2.294-2.155 3l-.785 1.05.928-.925c.902-.845 1.743-1.752 2.517-2.715l1.688-2.067c.6-.767 1.156-1.648 1.8-2.566a25.66 25.66 0 0 0 1.885-3.033l1.9-3.486c1.278-2.7 2.364-5.484 3.25-8.335l.732-2.307q.26-1.2.524-2.424a40.79 40.79 0 0 0 .926-5.035q.254-2.6.513-5.276l-.05-5.43c-.025-1.838-.192-3.672-.5-5.485l-.363-2.75-.188-1.377-.333-1.348-1.354-5.378a16.88 16.88 0 0 0-.842-2.63l-.97-2.56c-.688-1.68-1.185-3.43-2.013-5l-2.417-4.67c-1.54-2.93-3.27-5.755-5.184-8.455a43.92 43.92 0 0 0-2.608-3.769l-2.7-3.33-3.673-4.43-1.2-1.233-4.05-4.1-3.56-3.517 3.234 3.822zm103.8-182.974a6.8 6.8 0 0 0 4.269 3.62 10.64 10.64 0 0 0 5.838-.094 16.54 16.54 0 0 0 5.282-2.62c1.633-1.2 3.06-2.638 4.226-4.288a11.48 11.48 0 0 0 2.086-5.76 8.15 8.15 0 0 0-.522-3.164l-.373-.808-.336-.558c-.296-.452-.646-.866-1.042-1.233a7.68 7.68 0 0 0-5.1-2.033 11.17 11.17 0 0 0-4.282.687 17.96 17.96 0 0 0-4.6 2.534l-.542.42-.022.016-.545.466a14.32 14.32 0 0 0-1.444 1.419 17.83 17.83 0 0 0-1.872 2.535 12.14 12.14 0 0 0-1.519 3.841 7.98 7.98 0 0 0 .498 5.018zm5.25-11.73l.5-.4.563-.372a11 11 0 0 1 7.73-1.725c1.2.2 2.314.764 3.206 1.594.203.207.4.43.556.668l.336.52a3.7 3.7 0 0 0 .164.359c.26.63.422 1.296.48 1.975.105 1.627-.214 3.254-.926 4.72a12.08 12.08 0 0 1-3.251 4.206 15.04 15.04 0 0 1-2.312 1.5c-.794.427-1.64.75-2.517.96a8.9 8.9 0 0 1-5.041-.1 5.5 5.5 0 0 1-3.32-2.9 6.88 6.88 0 0 1-.457-4.018 11.13 11.13 0 0 1 2.945-5.718c.417-.453.865-.875 1.34-1.265zM398.2 310.1c1.012 2.082 2.824 3.665 5.023 4.4a13.3 13.3 0 0 0 7.291.3c2.508-.58 4.87-1.67 6.934-3.206a20.13 20.13 0 0 0 5.116-5.745 14.23 14.23 0 0 0 2.055-7.252 10.38 10.38 0 0 0-.732-3.65l-.408-.867-.446-.7a8.6 8.6 0 0 0-1.154-1.386c-1.6-1.507-3.678-2.433-5.875-2.63a13.83 13.83 0 0 0-5.352.462c-2.172.614-4.22 1.604-6.05 2.926l-.75.545-.7.615c-.657.58-1.27 1.204-1.84 1.87a16.88 16.88 0 0 0-2.291 3.352c-.828 1.547-1.38 3.226-1.634 4.962-.33 2.045-.047 4.142.8 6.027zm4.035-13.5a16.95 16.95 0 0 1 1.817-1.649l.672-.53.722-.5a16.51 16.51 0 0 1 2.085-1.26c1.117-.585 2.296-1.04 3.516-1.36 1.56-.42 3.18-.558 4.787-.406a8.38 8.38 0 0 1 5 2.172 7.43 7.43 0 0 1 .94 1.1l.437.7.3.66a8.9 8.9 0 0 1 .606 3.084c-.044 2.287-.673 4.525-1.827 6.5a18.7 18.7 0 0 1-4.664 5.408c-1.875 1.53-4.023 2.692-6.33 3.425a12.27 12.27 0 0 1-6.97.234 7.72 7.72 0 0 1-4.912-4.192 9.1 9.1 0 0 1-.5-5.819 13.78 13.78 0 0 1 1.942-4.576c.697-1.07 1.494-2.072 2.38-2.992zm-73.3-151.056l-.337-.558a6.68 6.68 0 0 0-1.042-1.234c-1.392-1.282-3.208-2.006-5.1-2.032-1.46-.053-2.913.18-4.282.687-1 .37-1.98.835-2.9 1.4a17.02 17.02 0 0 0-1.7 1.144l-.562.436-.546.465a14.48 14.48 0 0 0-1.443 1.42 17.8 17.8 0 0 0-1.873 2.534 12.17 12.17 0 0 0-1.519 3.842 7.98 7.98 0 0 0 .5 5.017 6.8 6.8 0 0 0 4.269 3.621c1.917.513 3.94.48 5.84-.094a16.54 16.54 0 0 0 5.281-2.62 18.56 18.56 0 0 0 4.227-4.288 11.49 11.49 0 0 0 2.085-5.76 8.17 8.17 0 0 0-.52-3.165zm-2.95 8.72a12.11 12.11 0 0 1-3.252 4.206 15.19 15.19 0 0 1-2.312 1.5 10.37 10.37 0 0 1-2.517.959 8.9 8.9 0 0 1-5.041-.1 5.5 5.5 0 0 1-3.32-2.9 6.88 6.88 0 0 1-.457-4.018 11.13 11.13 0 0 1 2.945-5.718c.42-.452.87-.874 1.35-1.262l.5-.4.563-.372a11 11 0 0 1 7.73-1.725 6.29 6.29 0 0 1 3.206 1.594 5.27 5.27 0 0 1 .556.668l.336.518.164.36a6.59 6.59 0 0 1 .479 1.976 9.41 9.41 0 0 1-.93 4.715z"/><path d="M332.32 144.37l-.408-.867-.446-.7a8.64 8.64 0 0 0-1.153-1.387 9.91 9.91 0 0 0-5.875-2.631 13.83 13.83 0 0 0-5.353.463 19.28 19.28 0 0 0-6.05 2.926l-.75.545-.7.615a18.56 18.56 0 0 0-1.84 1.87 16.9 16.9 0 0 0-2.29 3.351c-.828 1.547-1.38 3.226-1.634 4.963-.33 2.043-.048 4.138.8 6.022a8.56 8.56 0 0 0 5.024 4.388c2.354.78 4.88.886 7.3.306 2.508-.58 4.87-1.67 6.934-3.206a20.13 20.13 0 0 0 5.117-5.745 14.23 14.23 0 0 0 2.054-7.252c-.02-1.25-.268-2.487-.73-3.65zm-2.6 10.174a18.73 18.73 0 0 1-4.664 5.408c-1.876 1.53-4.023 2.7-6.33 3.425a12.26 12.26 0 0 1-6.97.233 7.72 7.72 0 0 1-4.912-4.19 9.11 9.11 0 0 1-.5-5.819 13.79 13.79 0 0 1 1.943-4.576 20.22 20.22 0 0 1 2.378-2.993c.566-.593 1.173-1.144 1.817-1.65l.67-.528.723-.512c.663-.47 1.36-.9 2.086-1.26a16.73 16.73 0 0 1 3.515-1.36 13.51 13.51 0 0 1 4.788-.406 8.38 8.38 0 0 1 5 2.172 6.89 6.89 0 0 1 .939 1.109l.437.7.3.66a8.9 8.9 0 0 1 .607 3.084 13.41 13.41 0 0 1-1.827 6.502zm-37.6 439.408c-.54-1.73-1.792-3.15-3.442-3.906-1.697-.77-3.64-.783-5.348-.037-3.23 1.4-10.368-1.44-20.7-13.65-4.78-5.65-9.455-11.86-14.405-18.436-15.32-20.357-31.145-41.377-53.083-49.983l1.77-14.3h.055s.01-.266-.016-.765c-.037-.646-.164-1.283-.378-1.894a9 9 0 0 0-1.065-2.114 13.5 13.5 0 0 0-1.579-1.936 35.59 35.59 0 0 0-9.031-6.2 57.64 57.64 0 0 0-9.644-3.9 29.28 29.28 0 0 0-3.428-.8l.587-1.82a85.63 85.63 0 0 0 3.194-18.117 67.93 67.93 0 0 0-1.25-18.622 55.61 55.61 0 0 0-6.948-17.76l-3.047-4.416-3.246 4c-1.068 1.317-1.933 2.5-2.84 3.775q-1.334 1.884-2.578 3.8-2.5 3.858-4.652 7.908a87.52 87.52 0 0 0-7 16.994 55.71 55.71 0 0 0-2.278 18.378c.02.354.06.706.087 1.06-.742-.1-1.645-.222-2.692-.27l-2.366-.15c-.842-.037-1.736-.02-2.662-.03-.926-.027-1.887.052-2.867.1-.98.032-1.977.158-2.978.28-1 .093-2 .307-2.988.482s-1.952.46-2.894.685c-.928.3-1.843.542-2.687.9-.853.312-1.652.662-2.385 1.016a22.8 22.8 0 0 0-3.51 2.064c-.208.14-.406.3-.57.436a5.99 5.99 0 0 0-.472.4l-.346.32-.187-.01-.234 1.9q-2.056-.37-4-.657c-20.716-31.54-41.67-41.6-55.684-44.45-19.326-3.935-32.323 3.584-35.848 5.98C5.733 447.522-1.14 461.63.15 473.75a48.5 48.5 0 0 0 6.273 19.526l.1-.055-.1.063c.32.5.652 1.07 1.02 1.7 3.134 5.392 8.968 15.43 28.36 22.522 14.272 5.218 18.8 7.48 26.127 23.453a69.79 69.79 0 0 0 9.614 23.392c12.707 19.4 34.948 30.4 64.338 31.867 63.186 3.134 97.808 9.014 115.776 19.657a35.1 35.1 0 0 0 13.6 4.911c18.267 2.26 29.086-14.44 29.217-14.648l.982-1.555zm-50.245-31.25c5.018 6.67 9.76 12.968 14.687 18.792 7.947 9.4 14.412 13.927 19.56 15.757q-.93.287-1.826.554c-3.924-2.242-7.636-4.834-11.092-7.746a136.81 136.81 0 0 1-14.18-13.871c-4.86-5.42-9.707-11.508-14.412-17.713-2.35-3.1-4.7-6.23-7.172-9.172a241.49 241.49 0 0 0-7.355-8.551 174.17 174.17 0 0 0-14.156-14.106 127.37 127.37 0 0 0-11.086-8.758l-.858-.594.144-1.168c18.94 8.303 33.57 27.738 47.747 46.574zM175.34 518.5q-1.243.293-2.5.543l-2.548.388c-1.712.178-3.436.38-5.17.4-1.734.1-3.473.04-5.214 0s-3.48-.224-5.216-.37c-1.73-.214-3.453-.392-5.188-.7s-3.46-.564-5.15-.975-3.393-.78-5.04-1.336l-2.472-.8q-1.212-.468-2.4-.966a44.45 44.45 0 0 1-4.645-2.25 38.48 38.48 0 0 1-4.276-2.8 35.6 35.6 0 0 1-3.767-3.317 29.68 29.68 0 0 1-1.537-1.776l.724.43c1.3.758 2.8 1.53 4.422 2.353 1.657.78 3.46 1.592 5.408 2.335 1.94.763 4.034 1.422 6.2 2.082 2.17.642 4.448 1.17 6.76 1.7s4.688.925 7.066 1.294 4.763.7 7.124.928 4.686.44 6.947.487a92.79 92.79 0 0 0 6.53-.006c2.074-.125 4.046-.244 5.854-.5 1.8-.23 3.463-.535 4.928-.83a82.24 82.24 0 0 0 3.344-.826 23.92 23.92 0 0 1-1.041.742 26.57 26.57 0 0 1-4.319 2.263c-.775.3-1.566.566-2.364.834l-2.45.686zm11.973-11.92c-.422.213-.933.46-1.546.736a44.18 44.18 0 0 1-3.476 1.356c-1.54.515-3.104.947-4.7 1.292-1.884.423-3.8.737-5.7.94a61.69 61.69 0 0 1-6.473.361c-2.252.024-4.584-.06-6.944-.255s-4.75-.494-7.13-.838c-2.375-.4-4.74-.85-7.042-1.4a65.71 65.71 0 0 1-6.665-1.953c-2.044-.7-4.043-1.528-5.985-2.476-1.74-.828-3.43-1.763-5.054-2.8a44.2 44.2 0 0 1-3.961-2.818c-1.142-.878-2.082-1.733-2.833-2.427-.72-.653-1.264-1.22-1.662-1.63l.207-1.67.45.295a77.94 77.94 0 0 0 3.32 2.024c1.297.75 2.8 1.53 4.423 2.354 1.657.78 3.46 1.6 5.408 2.334 1.94.763 4.033 1.422 6.2 2.082 2.17.643 4.448 1.17 6.76 1.7s4.688.925 7.067 1.294 4.763.7 7.123.93 4.686.44 6.948.486c2.26.078 4.45.07 6.53-.006 2.075-.124 4.046-.244 5.854-.5 1.8-.23 3.464-.535 4.928-.83a76.43 76.43 0 0 0 3.764-.941l.505-.153zm-70.206-7.944l.016.1-.037-.037c.002-.037.004-.07.02-.077zm2.134 2.206c-.72-.653-1.264-1.22-1.662-1.63l.137-1.1.452.295a77.94 77.94 0 0 0 3.32 2.024c1.297.75 2.8 1.53 4.422 2.354 1.657.78 3.46 1.6 5.408 2.334 1.94.763 4.034 1.422 6.2 2.082 2.17.643 4.448 1.17 6.76 1.7s4.688.925 7.066 1.294 4.763.7 7.124.93 4.686.44 6.947.486c2.26.078 4.45.07 6.53-.006 2.075-.124 4.046-.244 5.854-.5 1.8-.23 3.463-.535 4.928-.83 1.455-.332 2.725-.646 3.764-.94l.505-.153-.243 1.96c-.422.214-.933.46-1.546.737-.946.4-2.108.9-3.476 1.355-1.54.516-3.104.948-4.7 1.293a50.51 50.51 0 0 1-5.71.94 61.24 61.24 0 0 1-6.473.36c-2.252.024-4.584-.06-6.944-.256s-4.75-.493-7.13-.837c-2.375-.4-4.74-.85-7.042-1.4a66.36 66.36 0 0 1-6.666-1.953 52.01 52.01 0 0 1-5.984-2.477c-1.74-.828-3.43-1.763-5.054-2.8-1.37-.866-2.693-1.807-3.96-2.818-1.145-.878-2.085-1.733-2.836-2.427zm68.755.223l-.05.413c-.423.213-.933.46-1.546.736a44.22 44.22 0 0 1-3.477 1.356 44.8 44.8 0 0 1-4.689 1.292 50.35 50.35 0 0 1-5.711.94 61.24 61.24 0 0 1-6.473.36c-2.252.024-4.583-.06-6.943-.255s-4.75-.494-7.132-.838c-2.375-.4-4.738-.85-7.042-1.4a65.8 65.8 0 0 1-6.665-1.953 52.35 52.35 0 0 1-5.984-2.476 46.31 46.31 0 0 1-5.054-2.8c-1.37-.866-2.693-1.807-3.96-2.818-1.143-.878-2.083-1.733-2.833-2.427-.722-.653-1.264-1.22-1.663-1.63l.16-1.3c.34.282.65.6 1 .85l1.2.916c.407.3.835.538 1.25.806a24.08 24.08 0 0 0 2.536 1.484l2.58 1.314 2.63 1.127c1.74.768 3.57 1.242 5.316 1.932l5.388 1.532c1.833.386 3.64.85 5.455 1.282l5.4 1c1.86.36 3.66.577 5.494.872 1.82.316 3.658.532 5.5.727l2.762.348 2.788.206c1.856.177 3.733.175 5.62.247a28.15 28.15 0 0 0 2.844-.037c.953-.056 1.9-.038 2.868-.16l2.9-.3 2.93-.575a42.91 42.91 0 0 0 2.607-.777zm-38.544-47.554a81.35 81.35 0 0 1 7.51-15.331c1.12-1.813 2.32-3.578 3.553-5.316a161.72 161.72 0 0 0-2.429 5.637 122.54 122.54 0 0 0-2.982 7.955 97.26 97.26 0 0 0-4.892 20.788 38.55 38.55 0 0 0 .413 12.3c.42 2.32 1.573 4.445 3.3 6.062a5.66 5.66 0 0 0 1.7 1 4.18 4.18 0 0 0 .966.28l.246.05.124.025c.13.007-.2 0 .306.018h.048l.386-.024a3.39 3.39 0 0 0 1.4-.567 4.1 4.1 0 0 0 .8-.7 8.42 8.42 0 0 0 1.094-1.459c2.252-3.918 3.254-7.96 4.193-11.98a93.14 93.14 0 0 0 1.843-11.91 42.02 42.02 0 0 0-.192-11.357l-.176-.715-.208-.624c-.176-.52-.465-.992-.847-1.385a1.66 1.66 0 0 0-.925-.456 2.74 2.74 0 0 0-.543.036c-.147.053-.294.113-.436.177-.43.263-.803.607-1.1 1.014a17.56 17.56 0 0 0-2.233 4.45c-1.658 4.74-2.645 9.687-2.933 14.7a34.22 34.22 0 0 0 .018 4.2 28.73 28.73 0 0 0 .137 1.477s-.044-.515-.068-1.48a34.1 34.1 0 0 1 .177-4.173 53.18 53.18 0 0 1 3.566-14.37c.96-2.338 3.67-7.6 4.173-2.57a40.71 40.71 0 0 1-.354 10.856 104.43 104.43 0 0 1-2.3 11.547c-.5 1.936-1.086 3.865-1.74 5.757a26.95 26.95 0 0 1-2.373 5.334 5.75 5.75 0 0 1-.763 1c-.257.344-.57.347-.345.4l-.27.014h-.018l-.13-.03a1.8 1.8 0 0 1-.513-.143 2.92 2.92 0 0 1-.939-.546 8.47 8.47 0 0 1-2.394-4.554 36.12 36.12 0 0 1-.446-11.4c.386-3.638.985-7.25 1.795-10.817.767-3.417 1.668-6.617 2.583-9.545 1.84-5.853 3.666-10.656 5.016-13.978l1.7-4.107c1.774 3.16 3.196 6.504 4.243 9.973a61.75 61.75 0 0 1 2.356 16.915 75.41 75.41 0 0 1-1.948 17.271 69.96 69.96 0 0 1-2.45 8.37 42.8 42.8 0 0 1-1.668 3.973c-.3.634-.64 1.255-.993 1.824a9.25 9.25 0 0 1-.537.782c-.1.132-.208.255-.327.37a21.62 21.62 0 0 1-3.364.74 11.64 11.64 0 0 1-3.526-.075 10.35 10.35 0 0 1-3.256-1.2c-.506-.307-1.006-.644-1.484-1l-.7-.552-.37-.332c-2.447-5-3.682-10.505-3.604-16.07a50.63 50.63 0 0 1 3.152-16.533zM122.6 479.58c.6-.37 1.323-.654 2.026-1.014.743-.284 1.5-.637 2.3-.9a7.35 7.35 0 0 0-.176.853 6.51 6.51 0 0 0 .155 2.159 9.89 9.89 0 0 0 2.7 4.346 22.2 22.2 0 0 0 4.552 3.424 41.43 41.43 0 0 0 9.738 3.988c1.38.386 2.55.625 3.367.8l1.3.24-1.277-.3c-.806-.2-1.962-.5-3.317-.95a40.96 40.96 0 0 1-9.433-4.375 21.4 21.4 0 0 1-4.224-3.486 8.85 8.85 0 0 1-2.24-3.955 4.6 4.6 0 0 1 .354-2.964l.157-.308c.282-.086.562-.176.853-.243.85-.227 1.7-.463 2.565-.6.86-.165 1.7-.36 2.543-.45.835-.107 1.642-.24 2.416-.314l2.192-.168c1.33-.126 2.45-.08 3.247-.115q.13.708.284 1.4l-.417.04c-.334.02-.78.1-1.266.165-.492.08-1.036.18-1.63.34a9.39 9.39 0 0 0-1.887.69 4.4 4.4 0 0 0-1.816 1.5 3.05 3.05 0 0 0-.328 2.534 6.42 6.42 0 0 0 1.166 2.18 16.11 16.11 0 0 0 3.466 3.134 24.9 24.9 0 0 0 3.507 2 23.43 23.43 0 0 0 2.645 1.049c.653.208 1.032.3 1.032.3s-.373-.123-1.012-.366a23.3 23.3 0 0 1-2.567-1.188c-1.17-.628-2.3-1.35-3.343-2.16a15.32 15.32 0 0 1-3.163-3.192c-.43-.588-.744-1.254-.922-1.96a2.18 2.18 0 0 1 .313-1.8 3.45 3.45 0 0 1 1.482-1.066 8.23 8.23 0 0 1 1.7-.511 15 15 0 0 1 1.52-.229c.46-.033.84-.086 1.2-.1l.657-.023a38.22 38.22 0 0 0 4.036 9.911l.223.38 1.953 1.283a21.35 21.35 0 0 0 1.881 1.028 14.92 14.92 0 0 0 4.148 1.342c2.818.36 5.68.134 8.406-.668l.145-.037.13-.072a4.63 4.63 0 0 0 1.294-1.074 11.8 11.8 0 0 0 .8-1.015c.475-.675.886-1.353 1.273-2.037.753-1.356 1.437-2.75 2.05-4.173.032-.075.057-.15.1-.226l.877.254c.34.1.694.232 1.133.376a11.52 11.52 0 0 1 1.419.593 8.28 8.28 0 0 1 1.523.91 3.43 3.43 0 0 1 1.177 1.394 2.18 2.18 0 0 1-.135 1.825 5.67 5.67 0 0 1-1.372 1.677c-1.162.96-2.46 1.743-3.85 2.325a24.6 24.6 0 0 1-3.769 1.28c-.914.232-1.842.408-2.778.526-.68.08-1.07.108-1.07.108s.4-.006 1.076-.048a23.2 23.2 0 0 0 2.821-.372c1.323-.255 2.623-.617 3.888-1.083a15.86 15.86 0 0 0 4.125-2.194 6.41 6.41 0 0 0 1.663-1.831 3.09 3.09 0 0 0 .3-2.538 4.41 4.41 0 0 0-1.4-1.9 9.33 9.33 0 0 0-1.662-1.129c-.487-.268-.988-.5-1.5-.727-.457-.18-.87-.368-1.187-.47l-.778-.273.6-1.5c.138.04.264.067.42.117a25.79 25.79 0 0 1 2.782 1.095 52.64 52.64 0 0 1 8.159 4.738c.717.5 1.418 1.027 2.087 1.558a4.76 4.76 0 0 1-.4 1.335 8.85 8.85 0 0 1-3.136 3.29c-1.54.992-3.204 1.783-4.946 2.352-3.3 1.078-6.74 1.73-10.215 1.942-1.424.1-2.615.1-3.45.112l-1.3-.023 1.3.083c.834.032 2.027.085 3.46.047A41.43 41.43 0 0 0 175.692 495a22.2 22.2 0 0 0 5.249-2.211 9.9 9.9 0 0 0 3.675-3.558c.167-.32.307-.65.417-.994a20.98 20.98 0 0 1 3.385 3.488 6.22 6.22 0 0 1 .559.945c-.023.04-.035.08-.062.12a3.73 3.73 0 0 1-.545.764 4.17 4.17 0 0 1-.705.754 15.48 15.48 0 0 1-3.906 2.524l-2.36.88-2.495.68a24.1 24.1 0 0 1-2.581.471 25.29 25.29 0 0 1-2.628.343l-2.665.22c-.9.076-1.8.016-2.687.03l-2.7-.006-2.7-.15c-1.8-.134-3.605-.253-5.4-.536s-3.627-.43-5.35-.822l-5.372-1.117-5.183-1.426-5.064-1.814c-1.62-.735-3.28-1.416-4.808-2.3l-2.294-1.3c-.743-.458-1.436-.983-2.14-1.484-.696-.496-1.36-1.036-1.986-1.617-.316-.282-.648-.546-.947-.837l-.842-.915c-1.074-1.16-1.974-2.47-2.672-3.888l-.2-.5.22-.156a19.32 19.32 0 0 1 1.694-1.011zm-11.606 8.1l-.44.05c-.463.046-1.14.127-1.987.282a20.1 20.1 0 0 0-2.788.669c-.518.155-1.027.338-1.525.55a13.03 13.03 0 0 0-1.506.751c-.5.287-.95.622-1.372 1a5.37 5.37 0 0 0-1.06 1.277c-.15.22-.265.463-.342.72a2.23 2.23 0 0 0-.187.736 3.84 3.84 0 0 0 .034 1.365 4.68 4.68 0 0 0 .383 1.065 4.1 4.1 0 0 0 .428.745l.435.6-.36-.647a4.01 4.01 0 0 1-.332-.772 4.44 4.44 0 0 1-.246-1.042 3.74 3.74 0 0 1 .1-1.225 1.81 1.81 0 0 1 .237-.617c.1-.213.212-.4.365-.583a4.62 4.62 0 0 1 1.046-1 7.63 7.63 0 0 1 1.323-.746 13.03 13.03 0 0 1 2.9-.865 18.57 18.57 0 0 1 2.642-.319 22.34 22.34 0 0 1 1.907-.05h.1l-1.384 11.18.425.955a11.3 11.3 0 0 0 1.116 1.525c.353.418.712.792 1.07 1.173a28.5 28.5 0 0 0 2.194 2.061 37.26 37.26 0 0 0 4.632 3.4c1.55 1.02 3.167 1.932 4.84 2.733.842.37 1.638.814 2.477 1.163l2.5 1.038c.833.344 1.7.6 2.54.9a26.27 26.27 0 0 0 2.548.84l2.563.766c.858.236 1.728.423 2.6.636 1.713.473 3.458.786 5.195 1.124 1.73.4 3.488.612 5.207.925 1.72.332 3.494.5 5.236.8 1.75.243 3.506.44 5.265.65l5.3.46c1.14.1 2.288.137 3.438.175l3.736 1.644 1.56.814c1.1.593 2.388 1.2 3.7 2.038 1.337.8 2.8 1.646 4.268 2.668l2.286 1.533 2.323 1.7c1.6 1.123 3.15 2.422 4.776 3.675l4.77 4.006c6.318 5.466 12.294 11.33 16.86 15.634 2.277 2.16 4.224 3.908 5.6 5.114l2.215 1.834-2.037-2.037c-.62-.678-1.4-1.477-2.274-2.4l-2.9-3.145-3.4-3.76c-1.192-1.35-2.53-2.7-3.872-4.138l-8.7-8.8c-1.505-1.482-3.076-2.908-4.646-4.278-1.615-1.327-3.148-2.7-4.747-3.9l-2.322-1.808-2.3-1.65c-1.476-1.1-2.96-2.022-4.32-2.894-1.086-.734-2.175-1.332-3.184-1.9.893-.048 1.787-.133 2.688-.2l2.763-.36a43.51 43.51 0 0 0 4.64-.99l.258.16 5.455 3.3c1.1.7 2.293 1.446 3.514 2.3 1.24.828 2.5 1.77 3.817 2.73a123.82 123.82 0 0 1 7.882 6.53c1.3 1.157 2.56 2.38 3.825 3.55l3.593 3.567 6.13 6.58c1.784 1.94 3.18 3.635 4.2 4.8l1.574 1.835-1.413-1.964c-.908-1.244-2.16-3.06-3.777-5.15-1.575-2.127-3.5-4.542-5.584-7.124l-3.314-3.9-3.564-3.923c-2.432-2.6-5-5.093-7.484-7.353l-3.7-3.15c-1.2-1-2.362-1.87-3.435-2.688l-2.648-1.935 1.314-.622.015-.01 1.267-.743.874.627a127.23 127.23 0 0 1 10.92 8.928 173.15 173.15 0 0 1 13.88 14.3 237.79 237.79 0 0 1 7.188 8.647c2.413 2.978 4.7 6.1 7.007 9.257 4.615 6.284 9.388 12.474 14.2 18.008a138.31 138.31 0 0 0 14.128 14.248c3.042 2.63 6.278 5.025 9.68 7.167q-.543.147-1.07.283c-.75-.313-1.738-.833-2.984-1.48l-2.23-1.33-2.56-1.7c-1.8-1.28-3.8-2.76-5.9-4.493-8.465-6.865-18.768-17.243-29.088-27.577s-20.833-20.542-29.5-27.28a104.15 104.15 0 0 0-6.024-4.436c-.908-.646-1.8-1.2-2.607-1.713s-1.563-.988-2.265-1.373a42.67 42.67 0 0 0-3.266-1.758l-1.174-.588 1.164.608a42.75 42.75 0 0 1 3.233 1.812c.694.4 1.437.873 2.237 1.4s1.678 1.093 2.573 1.754c1.817 1.28 3.82 2.793 5.936 4.528 8.535 6.868 18.857 17.22 28.988 27.734s20.274 21.07 28.726 28.17c2.1 1.8 4.106 3.335 5.916 4.674l2.6 1.793 2.3 1.42.942.512q-.7.137-1.362.24l-.1-.033-.867-.275c-.342-.118-.732-.33-1.17-.526-1.072-.492-2.116-1.042-3.13-1.647-1.195-.684-2.516-1.532-3.953-2.46-5.725-3.77-13.092-9.278-20.458-14.78l-10.85-8.047-9.57-6.878-6.877-4.7-2.628-1.757 2.58 1.827c1.652 1.148 3.966 2.853 6.744 4.9l9.374 7.13 10.625 8.332c7.215 5.7 14.432 11.407 20.124 15.38 1.434.98 2.75 1.878 3.967 2.62.736.445 1.4.834 2.034 1.186a8.67 8.67 0 0 1-2.681-.57c-.193-.094-.405-.143-.62-.14a65.53 65.53 0 0 1-7.774-4.161c-3.92-2.405-8.22-5.32-12.777-8.7l-31-23.4a182.58 182.58 0 0 0-18.428-12.1 155.51 155.51 0 0 0-20.725-9.606c-14.314-5.5-29.277-8.952-43.1-12.12l-10.106-2.417a88.22 88.22 0 0 1-9.327-2.737 65.53 65.53 0 0 1-15.467-8.038c-3.967-2.758-7.507-6.084-10.508-9.87a28.43 28.43 0 0 1-4.953-9.267 16.12 16.12 0 0 1-.661-6.126q.05-.435.087-.767l.026-.13a13.81 13.81 0 0 1 1.666-1.01 41.57 41.57 0 0 0 .715 3.07 42.49 42.49 0 0 0 2.7 6.83c1.457 2.82 3.235 5.463 5.3 7.875a45.32 45.32 0 0 0 8.263 7.535c3.4 2.377 7.047 4.382 10.876 5.98a83.98 83.98 0 0 0 12.538 4.266c4.363 1.13 8.86 1.952 13.344 2.7l13.327 2.473c4.273.926 8.5 2.1 12.634 3.483a214.95 214.95 0 0 1 21.627 8.6c6.2 2.86 11.22 5.52 14.656 7.523 1.714 1 3.052 1.82 3.934 2.418l1.364.9-1.35-.92c-.875-.6-2.2-1.44-3.9-2.473-3.412-2.052-8.408-4.784-14.568-7.73a215.45 215.45 0 0 0-21.558-8.911 118.55 118.55 0 0 0-12.657-3.676c-4.373-1.02-8.86-1.837-13.33-2.662s-8.923-1.7-13.216-2.872c-4.2-1.13-8.303-2.588-12.273-4.36-3.722-1.608-7.26-3.614-10.55-5.983a43.73 43.73 0 0 1-7.87-7.374 39.37 39.37 0 0 1-4.969-7.609 40.8 40.8 0 0 1-2.5-6.53 39.5 39.5 0 0 1-.721-3.395 28.41 28.41 0 0 1 3.611-1.167 42.55 42.55 0 0 0 3.364 11.372 34.1 34.1 0 0 0 4.364 7.147c.96 1.2 2.02 2.32 3.163 3.346l.9.777.226.2.142.12.114.086.456.34c.62.454 1.2.924 1.9 1.37 2.705 1.84 5.573 3.433 8.566 4.755a81.88 81.88 0 0 0 9.371 3.477 182.46 182.46 0 0 0 18.992 4.483l8.76 1.72c2.768.616 5.382 1.22 7.776 1.855a146.08 146.08 0 0 1 15.758 4.937c-5.1-2.134-10.295-3.98-15.593-5.525-2.377-.725-4.976-1.43-7.732-2.15-2.764-.7-5.7-1.373-8.715-2.05a180.7 180.7 0 0 1-18.637-5.128 79.79 79.79 0 0 1-8.993-3.719 51.53 51.53 0 0 1-7.96-4.8c-.6-.4-1.2-.933-1.8-1.4l-.553-.447c.022.016-.05-.048-.07-.068l-.2-.183-.777-.725a25.05 25.05 0 0 1-2.723-3.1c-1.507-2.05-2.755-4.276-3.717-6.63a39.22 39.22 0 0 1-2.728-10.786 56.7 56.7 0 0 1 8.968-.6c-.15.192-.3.37-.447.592-1.077 1.725-1.667 3.7-1.708 5.743a16.7 16.7 0 0 0 1.494 7.4c1.212 2.7 2.934 5.142 5.07 7.2 2.36 2.248 5.05 4.124 7.972 5.565 3.07 1.513 6.218 2.868 9.427 4.06 3.287 1.2 6.688 2.212 10.12 3.085 6.865 1.756 13.832 2.922 20.252 4.458 5.857 1.385 11.616 3.156 17.24 5.3a123.49 123.49 0 0 1 16.043 7.276 123.72 123.72 0 0 0-15.93-7.566 137.34 137.34 0 0 0-17.2-5.625c-6.42-1.655-13.37-2.945-20.148-4.808-3.4-.927-6.736-2-9.96-3.228a99.65 99.65 0 0 1-9.223-4.168 30.8 30.8 0 0 1-7.515-5.438 21.42 21.42 0 0 1-4.6-6.765 14.97 14.97 0 0 1-1.235-6.653 9.43 9.43 0 0 1 1.492-4.78 6.13 6.13 0 0 1 1.524-1.582 104.49 104.49 0 0 1 14.434 1.694zm-49.92 20.907a31.43 31.43 0 0 0-6.02-3.784c-1.647-.804-3.348-1.492-5.1-2.06-.923-.3-1.8-.53-2.535-.74l-2.275-.705c-5.736-1.938-11.012-5.036-15.5-9.1a32.92 32.92 0 0 1-8.87-12.812 20.53 20.53 0 0 1-.745-12.3 20.03 20.03 0 0 1 1.946-4.71 23.78 23.78 0 0 1 2.612-3.558 30.46 30.46 0 0 1 2.59-2.555c.822-.647 1.432-1.155 2.07-1.618l.9-.6c14.4-.485 33.9 16.75 40.425 28.634-1.113.674-2.123 1.504-3 2.465l-.446.525-.244.646a107.97 107.97 0 0 0-5.819 22.266zm-46.558-26.812c2.442 5.82 6.25 10.964 11.1 15 5.232 4.428 11.32 7.73 17.885 9.7l2.565.7 2.363.6a34.42 34.42 0 0 1 4.478 1.633c2.83 1.163 5.38 2.92 7.476 5.15l-.217 2.74c-3.7-3.707-7.6-5.336-11.115-6.8l-1.143-.48c-.7-.3-1.64-.6-2.832-1a60.05 60.05 0 0 1-20.923-11.033c-5.627-4.694-9.347-11.28-10.464-18.522a27.99 27.99 0 0 0 .827 2.304zm6.455-34.992c5.923-4.03 16.863-7.4 29.792-4.765 16.46 3.348 32.558 15.622 46.9 35.6-1.9-.1-3.708-.126-5.4-.1l-.918-1.843c-.412-.76-.8-1.743-1.452-2.756l-2.176-3.392c-.846-1.2-1.882-2.42-2.9-3.747-1.074-1.3-2.35-2.52-3.6-3.853-1.357-1.214-2.722-2.5-4.2-3.7-1.52-1.146-3-2.375-4.644-3.4-.807-.525-1.6-1.082-2.4-1.576l-2.465-1.434c-1.627-.953-3.308-1.747-4.906-2.552-1.638-.73-3.2-1.477-4.734-2.05-1.513-.63-2.98-1.13-4.328-1.6-2.176-.74-4.4-1.36-6.635-1.858-.8-.186-1.45-.3-1.892-.358l-.673-.106.664.152c.436.088 1.07.247 1.86.488a63.12 63.12 0 0 1 6.447 2.3c1.3.554 2.715 1.15 4.165 1.874 1.474.67 2.96 1.514 4.516 2.34 1.515.9 3.1 1.8 4.628 2.83l2.3 1.56c.762.535 1.486 1.13 2.23 1.7 1.515 1.1 2.867 2.383 4.248 3.58 1.347 1.235 2.56 2.563 3.77 3.8 1.085 1.35 2.2 2.588 3.132 3.868.875 1.313 1.765 2.508 2.472 3.68l1.8 3.27c.535.97.823 1.9 1.153 2.62l.152.364q-1.638.13-3.12.33l-1.007-1.64c-.467-.773-1.042-1.714-1.8-2.8s-1.522-2.338-2.5-3.594c-.954-1.28-1.97-2.673-3.17-4.057-1.137-1.43-2.467-2.834-3.836-4.283-.663-.743-1.448-1.4-2.18-2.117s-1.5-1.42-2.323-2.07-1.6-1.36-2.454-1.988l-2.6-1.85c-1.754-1.17-3.575-2.24-5.453-3.2-1.808-.93-3.664-1.768-5.558-2.508-1.88-.6-3.654-1.306-5.418-1.7l-2.542-.64-2.406-.443c-1.533-.326-2.967-.44-4.225-.593-1.085-.147-2.177-.237-3.27-.272l-2.85-.146 2.83.36a32.02 32.02 0 0 1 3.225.514c1.237.247 2.64.464 4.13.9l2.33.613c.8.24 1.6.538 2.442.816 1.692.5 3.374 1.322 5.145 2.046a57.35 57.35 0 0 1 5.175 2.821 52.02 52.02 0 0 1 4.98 3.448l2.33 1.946c.764.656 1.463 1.385 2.2 2.065a29.18 29.18 0 0 1 2.054 2.129c.645.734 1.337 1.4 1.914 2.16 1.2 1.475 2.353 2.892 3.33 4.336 1.04 1.4 1.906 2.795 2.72 4.077.846 1.266 1.473 2.5 2.093 3.544.615 1.037 1.12 2.018 1.53 2.833l.123.24q-.937.23-1.8.482c-8.56-16.342-35.63-38.883-54.85-32.13a27.44 27.44 0 0 0-6.681 3.42 27.51 27.51 0 0 1 4.619-3.976zm17.57 63.266c-16.7-6.1-21.4-14.208-24.214-19.05l-1-1.675c-1.506-3.472-2.27-8.88-1.657-14.444.712 8.823 3.437 17.36 11.58 24.172a62.18 62.18 0 0 0 21.38 11.288c1.16.386 2.078.7 2.725.965l1.152.483c3.675 1.53 7.767 3.246 11.573 7.46l-.08 3.23c-5.295-5.994-11.52-8.8-21.46-12.435zm217.176 99c-19.152-11.346-54.87-17.553-119.43-20.757a113.74 113.74 0 0 1-9.081-.819l9.72-.385a261.85 261.85 0 0 1 27.707-.293c9.4.47 18.842 1.443 27.635 2.62 4.393.63 8.63 1.3 12.632 2.053a283.55 283.55 0 0 1 11.249 2.255 111.59 111.59 0 0 1 4.966 1.164l4.454 1.15c2.8.733 5.2 1.45 7.2 2.043 1.993.577 3.53 1.12 4.593 1.447l1.622.523-1.612-.553c-1.055-.348-2.584-.92-4.566-1.534l-7.162-2.182c-2.775-.8-5.926-1.66-9.38-2.52a345.28 345.28 0 0 0-51.461-8.679c-9.465-.9-19.006-.943-27.893-.893-8.886.07-17.172.005-24.074-1.408-1.738-.275-3.355-.76-4.913-1.127-1.54-.437-2.986-.906-4.35-1.33l-3.748-1.414-3.107-1.365c-1.225-.513-2.24-1.04-3.086-1.483q-.707-.48-1.394-.977c.625.184 1.258.328 1.868.5l2.276.57 4.288.726c.675.085 1.333.13 1.96.193 1.256.1 2.4.245 3.413.3l2.636.057 2.285.048-4.828-.833c-1-.192-2.088-.5-3.288-.784l-1.863-.47-4.002-1.314-2.073-.866c-.694-.3-1.425-.557-2.112-.927l-2.084-1.1a18.3 18.3 0 0 1-2.041-1.208c-.66-.44-1.35-.828-1.982-1.3-1.263-.916-2.465-1.913-3.6-2.984l-.838-.773-.76-.833c-.114-.132-.233-.256-.35-.384.072.04.14.087.213.126l2.4 1.237c.78.44 1.636.725 2.445 1.088.826.328 1.614.726 2.456.97 1.6.575 3.23 1.066 4.88 1.473l2.35.576c.77.168 1.538.27 2.275.4a40 40 0 0 0 4.168.576l3.525.312 5.084.12-5-.852c-1.02-.217-2.158-.513-3.4-.807a38.76 38.76 0 0 1-3.947-1.143c-.7-.23-1.407-.43-2.12-.7l-2.154-.875c-1.5-.606-2.95-1.288-4.37-2.045-.746-.337-1.423-.82-2.136-1.228-.694-.444-1.435-.808-2.087-1.317l-1.995-1.43c-.652-.486-1.25-1.038-1.867-1.544a19.18 19.18 0 0 1-1.746-1.6c-.543-.56-1.132-1.053-1.6-1.643l-.2-.215c.45.27.9.55 1.362.8 1.522.906 3.17 1.634 4.778 2.4.813.368 1.658.666 2.478 1s1.637.66 2.48.9c1.667.52 3.286 1.065 4.907 1.4l2.36.557c.776.153 1.544.26 2.285.386 1.384.26 2.78.448 4.182.565l3.538.3 5.102.12-2.338-.4-2.67-.453c-1.023-.217-2.167-.512-3.414-.806a40.31 40.31 0 0 1-3.968-1.133l-2.135-.687-2.174-.86c-1.5-.535-2.948-1.278-4.434-2-.754-.334-1.467-.765-2.2-1.175s-1.456-.8-2.155-1.254c-1.382-.93-2.784-1.8-4.047-2.83-1.314-.95-2.48-2.046-3.64-3.043-1.094-1.083-2.17-2.092-3.092-3.154-.964-1.013-1.776-2.07-2.553-3.005-1.494-1.934-2.65-3.63-3.425-4.827l-.353-.55a76.1 76.1 0 0 1-1.145-9.677 55.73 55.73 0 0 0 22.2 17.676c6.436 2.844 13.26 4.7 20.25 5.536l5.02.5 4.87.32 9.4.725c6.1.53 11.848 1.17 17.118 2 4.798.737 9.552 1.738 14.24 3a111.15 111.15 0 0 1 10.684 3.478 98.86 98.86 0 0 1 3.875 1.528c1.124.453 2.074.855 2.838 1.2l2.35 1.027-2.314-1.108c-.75-.37-1.687-.8-2.8-1.3a97.53 97.53 0 0 0-3.826-1.666 111.89 111.89 0 0 0-10.6-3.864 132.64 132.64 0 0 0-14.231-3.516c-5.276-1.02-11.037-1.865-17.14-2.6l-9.4-1.055-4.857-.5-4.865-.646a67.7 67.7 0 0 1-19.212-5.966 54.84 54.84 0 0 1-16.358-12.349 53.92 53.92 0 0 1-6.049-8.289c-.437-.74-.836-1.464-1.215-2.2.01-.224.005-.445.016-.67q.323.594.7 1.235a40.99 40.99 0 0 0 4.165 5.648 56.14 56.14 0 0 0 6.532 6.267 60.43 60.43 0 0 0 8.785 6.1c3.534 1.836 7.234 3.334 11.05 4.474a134.92 134.92 0 0 0 25.294 4.919c4.357.468 8.7.922 12.953 1.6 4.254.653 8.426 1.4 12.43 2.284 4.012.848 7.855 1.83 11.473 2.848 3.612 1.042 7.008 2.1 10.085 3.24 3.1 1.1 5.873 2.252 8.307 3.34 2.426 1.1 4.524 2.113 6.193 3.052 1.7.888 2.977 1.682 3.848 2.224l1.343.82-1.334-.835c-.867-.55-2.138-1.357-3.828-2.263-1.66-.957-3.75-1.987-6.168-3.118a115.89 115.89 0 0 0-8.285-3.428c-3.07-1.172-6.462-2.267-10.07-3.348-3.615-1.055-7.455-2.08-11.467-2.97-4-.923-8.18-1.718-12.44-2.415-4.256-.727-8.62-1.227-12.963-1.738a134.1 134.1 0 0 1-25.082-5.138 62.11 62.11 0 0 1-10.814-4.5 59.41 59.41 0 0 1-8.551-6.066 54.19 54.19 0 0 1-6.33-6.2 39.76 39.76 0 0 1-3.974-5.5 29.73 29.73 0 0 1-1.651-3.246l.2-2.267c.337.677.748 1.436 1.237 2.242a37.11 37.11 0 0 0 4.191 5.526c2.03 2.2 4.244 4.2 6.617 6.013 1.3 1 2.676 2 4.143 2.966a45.78 45.78 0 0 0 4.68 2.834 75.71 75.71 0 0 0 10.921 4.345 163.45 163.45 0 0 0 24.8 5.622l12.745 1.95a252.59 252.59 0 0 1 12.253 2.363c3.96.842 7.747 1.835 11.326 2.813 3.56 1.04 6.92 2.064 9.956 3.2a106.59 106.59 0 0 1 8.2 3.3c2.394 1.1 4.462 2.094 6.108 3.023 1.674.88 2.934 1.666 3.795 2.2l1.324.812-1.316-.825c-.855-.543-2.108-1.343-3.774-2.24-1.638-.946-3.7-1.97-6.083-3.087a101.98 101.98 0 0 0-8.177-3.385c-3.03-1.16-6.385-2.22-9.942-3.3-3.575-1.016-7.36-2.05-11.32-2.934-3.953-.9-8.06-1.752-12.252-2.492-4.2-.77-8.474-1.395-12.733-2.08a162.6 162.6 0 0 1-24.615-5.84 74.96 74.96 0 0 1-10.723-4.389c-1.568-.848-3.085-1.8-4.542-2.817a70.79 70.79 0 0 1-4.048-2.961 51.01 51.01 0 0 1-6.4-5.934 35.82 35.82 0 0 1-3.986-5.365 26.5 26.5 0 0 1-1.893-3.819l-.148-.392.3-2.135a31.65 31.65 0 0 0 1.228 2.222 37.48 37.48 0 0 0 4.25 5.567 53 53 0 0 0 6.7 6.054c1.314 1 2.713 2 4.194 2.982a35.9 35.9 0 0 0 4.777 2.8 84.48 84.48 0 0 0 11.12 4.142 205.02 205.02 0 0 0 25.025 5.776l12.8 2.32a230.78 230.78 0 0 1 12.284 2.823c3.965 1 7.757 2.12 11.333 3.24 3.565 1.158 6.923 2.3 9.962 3.5a127.68 127.68 0 0 1 8.212 3.5c2.412 1.125 4.478 2.175 6.135 3.123 1.683.9 2.956 1.7 3.823 2.24l1.336.823-1.327-.836c-.863-.55-2.128-1.36-3.8-2.28-1.65-.966-3.716-2.023-6.108-3.188s-5.142-2.38-8.188-3.587c-3.03-1.245-6.382-2.42-9.94-3.616-3.57-1.16-7.36-2.318-11.32-3.36a232.9 232.9 0 0 0-12.28-2.951c-4.2-.925-8.5-1.685-12.8-2.454-8.405-1.478-16.708-3.482-24.862-6-3.74-1.144-7.393-2.547-10.936-4.2a34.88 34.88 0 0 1-4.617-2.768 76.28 76.28 0 0 1-4.1-2.976c-2.327-1.804-4.495-3.804-6.483-5.976a36.12 36.12 0 0 1-4.043-5.406 26.97 26.97 0 0 1-1.916-3.855l-.025-.065.35-1.93a38.62 38.62 0 0 0 4.24 6.2 56.31 56.31 0 0 0 12.356 10.9 71.91 71.91 0 0 0 17.263 8.274c3.274 1.042 6.602 1.904 9.97 2.582l10.312 2.1c13.942 2.72 28.7 5.625 42.873 10.543 7.055 2.398 13.923 5.312 20.55 8.718a179.23 179.23 0 0 1 18.526 11.319c11.7 7.974 22.33 15.913 31.7 22.35 4.68 3.235 9.1 6.027 13.126 8.317a66.01 66.01 0 0 0 7.98 3.938c.624 1.88 8.92 9.55 18.326 11.415-6.644 3.098-13.82 2.415-21.382-2.063zM228.6 591.926l-9.344-3.425c-3.36-1.176-7-2.026-10.728-2.956l-5.7-1.345-5.868-1.253c-3.94-.9-7.992-1.55-12.018-2.337l-12.1-1.867c-4-.6-7.963-.928-11.8-1.3l-5.65-.43-5.42-.282c-3.523-.123-6.855-.225-9.93-.184-6.15.05-11.264.33-14.84.468-1.786.07-3.2.142-4.15.123H119.6l1.47.1c.955.076 2.366.088 4.16.124 3.583.026 8.7-.032 14.82.2l9.873.5 5.38.426 5.6.58a348.16 348.16 0 0 1 11.687 1.562c3.98.533 8 1.286 12.013 1.962 4 .82 8.02 1.5 11.932 2.432l5.826 1.3 5.66 1.384 5.47 1.3c1.8.468 3.48.948 5.164 1.45 3.342 1.008 6.478 2.084 9.383 3.056l14.062 4.722 3.975 1.236 1.415.412-5.178-2.2-13.7-5.717zm-108.107-22.093l1.476.088c.96.066 2.383.076 4.184.05 3.6-.067 8.742-.328 14.893-.265 3.076 0 6.405.107 9.92.3l5.4.4 5.623.594 5.8.766c1.957.265 3.928.6 5.92.917 2 .286 3.983.727 6 1.088a126.26 126.26 0 0 1 6 1.238c4.012.836 7.983 1.856 11.9 2.84 3.915.956 7.638 2.174 11.3 3.4 3.636 1.23 7.14 2.47 10.44 3.715l9.28 3.55c2.872 1.112 5.48 2.192 7.794 3.145l5.97 2.532 5.166 2.306-1.282-.74a85.72 85.72 0 0 0-3.659-2.029c-1.587-.856-3.533-1.86-5.78-2.984s-4.816-2.32-7.63-3.6c-5.643-2.53-12.3-5.3-19.608-7.9-3.64-1.258-7.484-2.578-11.44-3.53l-12.008-2.74c-2.017-.44-4.04-.844-6.07-1.187s-4.033-.767-6.05-1.036l-5.98-.865c-1.98-.248-3.936-.455-5.863-.642l-5.688-.427-5.456-.24c-3.55-.082-6.9-.088-10 .007-6.187.235-11.308.76-14.894 1-1.793.127-3.2.223-4.165.218zM118 574.027c1.443-.074 2.78-.283 3.925-.432l2.745-.5 1.032-.24s-.388-.008-1.06.01l-2.775.07-3.907.063h-4.468l-4.46-.152-3.887-.282-2.736-.358c-.348-.053-.693-.124-1.034-.213l.25.117a5.6 5.6 0 0 0 .722.3 20.2 20.2 0 0 0 2.7.775l1.838.353 2.066.3c1.438.177 2.98.255 4.524.3l4.524-.112zm2 5.313l-6.143-.012-6.122-.254-2.016-.2-.768-.13a4.47 4.47 0 0 0 .707.337 15.2 15.2 0 0 0 1.974.629 28.94 28.94 0 0 0 6.2.766c2.084.044 4.167-.108 6.222-.455a19.93 19.93 0 0 0 2.767-.643l-.783-.026zm-1.18-11.924c1.444-.073 2.78-.282 3.925-.432s2.086-.37 2.745-.505l1.032-.24s-.388-.008-1.06.01l-2.775.072-3.907.063h-4.467l-4.46-.152-3.886-.28-2.737-.36c-.348-.053-.693-.124-1.033-.213l.25.118a6.03 6.03 0 0 0 .722.3c.88.32 1.783.578 2.7.774l1.838.354 2.066.3c1.44.177 2.98.255 4.524.3l4.524-.1z"/></g><g clip-path="url(#A)" transform="translate(-1152.701 -221)"><path d="M1488.1 648.625a98.8 98.8 0 0 0-25.527-83.022l2.83-20.9c1.22-4.41-9.38-11.38-25.458-17.512 1.38-2.138 3.627-2.144 5.608-1.646-.663-.28 7.73 2.64 18.572 6.258 36.166 12.07 39.93-19.818 31.244-21.16-37.45-5.78-42.585-17.97-63.353-13.47-17.057 4.452-21.567 16.4-23.994 20.987-18.28-3.486-32.23-3.083-33.494 1.515l-8.122 17.585A98.886 98.886 0 1 0 1488.1 648.625zM1363.058 634.5c-6.842 4.3-15.067 1.642-19.838-4.62-16.82-23.275-3.51-50.6-1.3-54.245a4.7 4.7 0 0 1 7.028-1.215c4.982 4.13-1.28 8.287 9.153 17.94 7.306 6.76 13.33 13.346 14.06 21.52 1.04 11.705-5.746 18.5-9.103 20.62zm69.29 20.65c-7.35 2.827-15.745.773-19.31-6.48-1.75-3.56-3.958-12.914 3.076-22.328 4.912-6.574 13.495-9.017 23.263-10.938 13.947-2.74 10.8-9.566 17.208-10.466a4.7 4.7 0 0 1 5.344 4.723c-.036 4.267-3.048 34.507-29.58 45.5z" fill="#e7e000" fill-rule="evenodd"/></g></svg>