<svg xmlns="http://www.w3.org/2000/svg" width="230" height="39" viewBox="0 0 229.535 38.645" fill="#e7e000"><path d="M204.67 38.63l2.037-5.165h15.17l2.05 5.165h5.607L214.3.144 199.06 38.63zm-30.536.014V.68h9.983c2.883-.053 5.658 1.1 7.67 3.156a10.65 10.65 0 0 1 .211 14.967c2.75 1.758 4.55 4.67 4.896 7.916s-.802 6.47-3.12 8.77a10.53 10.53 0 0 1-7.669 3.156zm-36.15.001h-5.168V.66l18.064 27.324L168.92.66v37.98h-30.937zm-115.77-.012H0V.68h5.214v32.87h17zm28.503-5.078h-15.42l-1.9 5.024H27.69L43 0l15.345 38.64H52.72zM66 37.62c-.588.624-1.4.972-2.268.96-.87.004-1.704-.34-2.315-.96a3.18 3.18 0 0 1-.959-2.291 3.07 3.07 0 0 1 .959-2.291c.605-.627 1.444-.974 2.315-.96 1.78.026 3.214 1.47 3.226 3.25a3.09 3.09 0 0 1-.958 2.291zm3.08 1.024V.68h9.984a10.48 10.48 0 0 1 7.67 3.156 10.65 10.65 0 0 1 .21 14.967c2.75 1.758 4.55 4.67 4.896 7.916s-.802 6.47-3.12 8.77a10.53 10.53 0 0 1-7.669 3.156zM99.42 32.3a17.91 17.91 0 1 1 12.686 5.259 17.29 17.29 0 0 1-12.686-5.258z"/></svg>