<svg xmlns="http://www.w3.org/2000/svg" width="209" height="237" viewBox="0 0 208.8 236.862"><path d="M83.97 235.14c-25.9-4.094-49.115-18.31-64.535-39.52S-2.346 147.94 1.75 122.04c6.2-39.163 35.177-70.843 73.634-80.5l8.122-17.585c.838-3.047 7.247-4.252 16.8-3.7h.005l.144.008a131.5 131.5 0 0 1 16.549 2.179c2.427-4.6 6.936-16.535 23.994-20.987 20.565-4.455 25.8 7.455 62.267 13.3l.788.125.3.046c7.04 1.087 5.9 22.234-14.027 23.792q-1.146.1-2.374.09c-.292 0-.586 0-.884-.012h-.155a42.14 42.14 0 0 1-7.811-1.031 60.09 60.09 0 0 1-5.994-1.676l-8.913-3-9.7-3.277s.01.008.037.018l-.17-.04c-1.938-.455-4.1-.4-5.438 1.687 15.23 5.808 25.543 12.368 25.552 16.793a2.67 2.67 0 0 1-.1.719l-2.83 20.9a98.9 98.9 0 0 1 26.742 67.548 99.7 99.7 0 0 1-1.215 15.473l-.044.275-.014.084-.03.187-.046.275-.018.11-.028.165-.048.276-.02.108-.03.166-.068.38-.033.184-.015.082-.04.217-.01.056-.105.58-.057.3-.043.22-.014.068-.097.473-.014.07-.043.212-.012.057-.047.228v.042l-.052.25v.02q-.177.836-.367 1.664l-.062.27v.01a98.5 98.5 0 0 1-7.214 20.492l-.01.018-.1.217-.026.054-.087.18-.038.08-.076.155-.045.09-.07.14-.05.1-.12.24-.055.11-.066.132-.04.08-.09.177a99.05 99.05 0 0 1-88.107 54.151 99.64 99.64 0 0 1-15.546-1.211zm41.117-104.515c-7.034 9.414-4.826 18.77-3.076 22.328 3.566 7.253 11.962 9.307 19.31 6.48 25.543-10.574 29.287-39 29.562-44.906v-.64c0-.1 0-.178-.01-.267-.14-2.483-2.187-4.428-4.674-4.44-.22 0-.442.015-.66.046-6.4.9-3.26 7.726-17.208 10.466a69.95 69.95 0 0 0-13.5 3.744l-.292.125q-.22.095-.437.192a25.9 25.9 0 0 0-5.535 3.3c-1.3 1.035-2.48 2.235-3.48 3.57zM50.894 79.917c-2.21 3.65-15.517 30.97 1.3 54.245 4.772 6.263 13 8.923 19.84 4.62 3.357-2.11 10.146-8.916 9.1-20.62-.73-8.174-6.754-14.76-14.06-21.52-10.432-9.654-4.172-13.81-9.153-17.94a4.64 4.64 0 0 0-2.976-1.077 4.73 4.73 0 0 0-4.05 2.291z" fill="#e7e000" stroke="rgba(0,0,0,0)"/></svg>