<svg xmlns="http://www.w3.org/2000/svg" width="403.951" height="519.808" viewBox="0 0 403.951 519.808"><defs><style>.a{fill:#fff;}</style></defs><g transform="translate(3560.771 -510.566)"><path class="a" d="M-3278.871,727.284v0Z"/><path class="a" d="M-3157.1,720.3l-.249-.758-.138-.354-.078-.178-1.311-2.906c-1.774-3.806-3.591-7.526-5.442-11.246q-11.1-22.287-23.355-43.926c-8.192-14.423-16.709-28.677-25.884-42.556s-18.879-27.467-30.064-40.069a139.078,139.078,0,0,0-18.451-17.639l-.634-.505-.727-.521-1.265-.893-2.539-1.784c-1.855-1.148-3.707-2.39-5.574-3.448a125.191,125.191,0,0,0-11.4-5.837,167.929,167.929,0,0,0-48.911-13.135,192.416,192.416,0,0,0-50.524.8,178.787,178.787,0,0,0-24.747,5.479,168.552,168.552,0,0,0-23.766,8.905,175.241,175.241,0,0,0-22.216,12.333,182.415,182.415,0,0,0-19.141,14.778q-5.644-5.527-11.994-11.9c-9.32-9.394-19.764-20.068-31.169-31.735-5.756-5.806-11.644-11.871-18.095-18.061-.826-.776-1.647-1.545-2.58-2.346-.24-.2-.467-.4-.761-.625-.162-.122-.2-.172-.555-.41l-.444-.279-.319-.176a2.529,2.529,0,0,0-.542-.236l-.333-.1c-.218-.061-.453-.138-.661-.174a9.865,9.865,0,0,0-1.255-.19,14.256,14.256,0,0,0-8.611,2.165,12.059,12.059,0,0,0-5.506,7.63,14.676,14.676,0,0,0,1.17,8.939,26.213,26.213,0,0,0,1.941,3.61c.384.559.795,1.175,1.171,1.685l1.142,1.478c1.555,1.84,3.073,3.765,4.691,5.565q4.783,5.506,9.873,10.889c6.765,7.205,13.841,14.375,21.147,21.552,14.674,14.3,30.143,28.709,46.811,42.491,2.116,1.7,4.236,3.481,6.36,5.109l3.189,2.469.8.62.454.341.441.314,1.768,1.253a65.522,65.522,0,0,0,15.449,7.72,94.562,94.562,0,0,0,28.506,4.674l-.045.083,4.8,2.532,4.673,2.559,4.649,2.644c1.236.694,2.446,1.429,3.662,2.156a77.081,77.081,0,0,0-37.486,2.451c-12.289,3.969-23.377,11.053-32.864,19.608a102.393,102.393,0,0,0-13.016,14.167,93.639,93.639,0,0,0-9.906,16.506,92.934,92.934,0,0,0-8.537,37.3,116.022,116.022,0,0,0,5.663,37.807,147.329,147.329,0,0,0,16.311,34.523,164.739,164.739,0,0,0,24.112,29.569,162.619,162.619,0,0,0,26.063,20.657l-2.4,3.689c-.805,1.238-1.446,2.345-2.116,3.528q-.981,1.757-1.883,3.539-1.806,3.57-3.307,7.276a76.225,76.225,0,0,0-4.507,15.363,48.473,48.473,0,0,0-.29,16.13c.048.3.115.6.173.908-.653-.015-1.446-.042-2.357.012l-2.064.088c-.733.044-1.506.142-2.309.218-.8.061-1.631.218-2.475.35s-1.7.319-2.553.516c-.861.172-1.7.448-2.546.69s-1.647.578-2.444.859c-.775.352-1.547.638-2.245,1.022-.711.349-1.37.725-1.973,1.1a19.88,19.88,0,0,0-2.852,2.11c-.167.14-.323.3-.455.429s-.249.248-.372.389c-.166.19-.251.286-.271.307l-.163.008-.03,1.658q-1.813-.13-3.521-.2c-20.834-25.426-39.907-32.222-52.308-33.408-17.1-1.639-27.673,6.065-30.508,8.464-8.651,7.323-13.314,20.176-11.087,30.557A42.29,42.29,0,0,0-3553,943.607l.083-.058-.078.063c.322.4.662.866,1.039,1.383,3.209,4.385,9.181,12.547,26.63,16.914,12.84,3.214,16.973,4.757,24.78,17.925a60.787,60.787,0,0,0,10.47,19.383c12.783,15.633,33.059,23.138,58.653,21.716,55.024-3.071,85.555-1.147,102.094,6.428a30.6,30.6,0,0,0,12.23,3.009c16.032.284,23.875-15.172,23.969-15.364l.708-1.437-2.189-5.053a45.678,45.678,0,0,0,19.1-14.4,43.241,43.241,0,0,0,8.54-24.819,57.684,57.684,0,0,0-5.449-25.786,95.365,95.365,0,0,0-14.041-22.1l-2.1-2.5-2.194-2.413c-1.455-1.638-2.946-3.133-4.428-4.674l-8.888-9.139c-5.908-6.087-11.758-12.209-17.491-18.43a500.117,500.117,0,0,1-32.574-38.722c-5.058-6.721-9.816-13.646-14.33-20.693a206.682,206.682,0,0,1-12.281-21.788,130.1,130.1,0,0,1-8.7-23.155c-.448-1.713-.84-3.44-1.189-5.171l59.543-54.662,5.237,5.7a11.229,11.229,0,0,0,7.679,3.611c.021.029.045.057.066.086,4.951,6.508,9.71,13.152,14.014,20.008,2.149,3.427,4.17,6.915,5.969,10.46a56.993,56.993,0,0,1,4.3,10.752,19.524,19.524,0,0,1,.723,5.111,9.1,9.1,0,0,1-.287,2.107,5.322,5.322,0,0,1-.749,1.526,5.283,5.283,0,0,1-1.272,1.094,8.172,8.172,0,0,1-1.95.77l-2.984.8a34.965,34.965,0,0,0-3.4,1.237,18.343,18.343,0,0,0-6.407,4.234,11.956,11.956,0,0,0-3.214,8.166,17.257,17.257,0,0,0,1.983,7.556,35.3,35.3,0,0,0,3.716,5.843,73.614,73.614,0,0,0,8.962,9.474c1.585,1.435,3.208,2.815,4.847,4.151l1.244,1,1.3,1,2.551,1.891a201.084,201.084,0,0,0,21.311,13.536,104.221,104.221,0,0,0,11.608,5.509c4.089,1.532,8.3,3.02,13.5,2.994a11.889,11.889,0,0,0,8.363-3.271l1.057-1.13.534-.579.608-.776c.391-.521.827-1.045,1.161-1.578l.966-1.6a21.759,21.759,0,0,0,2.357-7.109,42.349,42.349,0,0,0,.316-6.756,14.757,14.757,0,0,1,.132-2.427,3.717,3.717,0,0,1,.151-.634.151.151,0,0,0,.065-.111c-.013.017-.008.007,0-.008l.024-.031.242-.3a25.145,25.145,0,0,1,1.8-1.968c.687-.7,1.387-1.405,2.12-2.107,2.9-2.81,5.925-5.584,8.965-8.332s6.12-5.47,9.216-8.161l4.653-3.989,1.154-.962.571-.468.493-.387.466-.382.14-.133.282-.264a5.278,5.278,0,0,0,.447-.5c.179-.213.352-.433.516-.657a7.888,7.888,0,0,0,.671-1.077,9.465,9.465,0,0,0,.48-.929,26.24,26.24,0,0,0,2.017-7.028,24.783,24.783,0,0,0,.075-7.324,15.044,15.044,0,0,0-1.15-4,7.521,7.521,0,0,0-.539-1.064,7.119,7.119,0,0,1,.467-.793c.455-.714,1.009-1.475,1.59-2.233,2.369-3.05,5.135-6.093,7.881-9.117l8.379-9.133c2.8-3.079,5.577-6.2,8.274-9.463a82.044,82.044,0,0,0,7.637-10.56,21.73,21.73,0,0,0,2.8-7.063,10.049,10.049,0,0,0,.11-2.521A8.808,8.808,0,0,0-3157.1,720.3Zm-385.236-202.7c.025.013.028.02-.016,0a.367.367,0,0,1-.054-.023A.707.707,0,0,1-3542.338,517.6Zm109.6,378.458a70.848,70.848,0,0,1,5.1-13.968c.8-1.674,1.682-3.312,2.591-4.931-.476,1.437-1.017,3.139-1.587,5.1-.628,2.112-1.265,4.515-1.855,7.165a84.683,84.683,0,0,0-2.334,18.457,33.629,33.629,0,0,0,1.484,10.626,9.609,9.609,0,0,0,3.4,4.95,4.928,4.928,0,0,0,1.568.713,3.681,3.681,0,0,0,.862.155l.219.02.109.01c.113-.005-.175.021.267-.012l.041-.008.333-.055a2.961,2.961,0,0,0,1.158-.619,3.508,3.508,0,0,0,.632-.68,7.363,7.363,0,0,0,.815-1.364,36.992,36.992,0,0,0,2.535-10.761,81.007,81.007,0,0,0,.506-10.487,36.64,36.64,0,0,0-1.206-9.821l-.218-.6-.237-.521a3.228,3.228,0,0,0-.861-1.123,1.455,1.455,0,0,0-.843-.311,2.5,2.5,0,0,0-.467.082c-.123.06-.245.124-.362.193a3.356,3.356,0,0,0-.864.979,15.276,15.276,0,0,0-1.527,4.061,44.019,44.019,0,0,0-1.123,7.318,44.233,44.233,0,0,0-.072,5.687,30.012,30.012,0,0,0,.4,3.633c.15.83.255,1.267.255,1.267s-.085-.442-.2-1.276a29.969,29.969,0,0,1-.228-3.63,44.16,44.16,0,0,1,.334-5.634,43.412,43.412,0,0,1,1.44-7.142c.618-2.113,2.481-6.928,3.378-2.608a35.477,35.477,0,0,1,.689,9.437,89.518,89.518,0,0,1-.945,10.214c-.259,1.723-.586,3.448-.98,5.147a23.52,23.52,0,0,1-1.567,4.838,5.024,5.024,0,0,1-.569.939c-.19.322-.461.354-.263.377l-.231.037-.017,0-.116-.013a1.559,1.559,0,0,1-.457-.077,2.549,2.549,0,0,1-.863-.386,7.38,7.38,0,0,1-2.491-3.727,31.42,31.42,0,0,1-1.43-9.838,81.225,81.225,0,0,1,.564-9.534c.351-3.03.839-5.885,1.363-8.505,1.059-5.239,2.2-9.567,3.066-12.569.443-1.5.792-2.682,1.029-3.488.025-.085.045-.149.068-.225a43.308,43.308,0,0,1,4.589,8.252,53.793,53.793,0,0,1,3.59,14.436,65.768,65.768,0,0,1-.108,15.14,60.867,60.867,0,0,1-1.355,7.476,37.166,37.166,0,0,1-1.081,3.594c-.211.578-.44,1.146-.693,1.67a7.89,7.89,0,0,1-.394.727,2.606,2.606,0,0,1-.25.351,18.713,18.713,0,0,1-2.847.948,10.091,10.091,0,0,1-3.06.258,8.817,8.817,0,0,1-2.932-.75c-.465-.22-.929-.466-1.377-.733l-.654-.414-.353-.254a30.867,30.867,0,0,1-4.6-13.58A44.112,44.112,0,0,1-3432.738,896.061Zm-22.244,26.08a16.614,16.614,0,0,1,1.371-1.041c.489-.376,1.086-.687,1.662-1.064.618-.314,1.232-.688,1.909-.988a6.546,6.546,0,0,0-.074.757,5.636,5.636,0,0,0,.332,1.855,8.6,8.6,0,0,0,2.734,3.518,19.321,19.321,0,0,0,4.256,2.55,36.153,36.153,0,0,0,8.8,2.563c1.232.208,2.267.308,2.99.383l1.139.088-1.132-.141c-.719-.108-1.746-.254-2.962-.518a35.76,35.76,0,0,1-8.571-2.925,18.682,18.682,0,0,1-3.979-2.634,7.709,7.709,0,0,1-2.3-3.222,4,4,0,0,1,.034-2.6c.041-.1.075-.192.108-.279.237-.1.471-.206.717-.29.715-.274,1.431-.557,2.166-.765s1.443-.468,2.162-.622c.713-.169,1.4-.358,2.064-.493s1.3-.24,1.884-.346c1.139-.231,2.113-.295,2.8-.4.116.4.242.8.374,1.2-.107.02-.224.044-.357.071-.288.048-.666.159-1.082.26a13.987,13.987,0,0,0-1.382.444,8.094,8.094,0,0,0-1.572.768,3.855,3.855,0,0,0-1.435,1.469,2.7,2.7,0,0,0-.052,2.226,5.6,5.6,0,0,0,1.209,1.782,13.805,13.805,0,0,0,3.29,2.4,21.63,21.63,0,0,0,3.221,1.411,20.108,20.108,0,0,0,2.387.665c.586.122.923.174.923.174s-.335-.072-.911-.224a20.488,20.488,0,0,1-2.332-.794,21.344,21.344,0,0,1-3.094-1.565,13.364,13.364,0,0,1-3.032-2.476,4.938,4.938,0,0,1-.978-1.614,1.9,1.9,0,0,1,.106-1.59,2.979,2.979,0,0,1,1.186-1.058,7.11,7.11,0,0,1,1.426-.6,12.923,12.923,0,0,1,1.3-.337c.4-.071.719-.151,1.023-.186l.567-.08a33.269,33.269,0,0,0,4.4,8.217l.228.308,1.809.932a17.962,17.962,0,0,0,1.723.718,12.964,12.964,0,0,0,3.716.783,17.894,17.894,0,0,0,7.22-1.347l.124-.047.1-.073a4,4,0,0,0,1.023-1.049,10.046,10.046,0,0,0,.6-.953,20.917,20.917,0,0,0,.916-1.881,40.37,40.37,0,0,0,1.4-3.8c.022-.067.035-.135.056-.2l.784.14c.3.046.622.137,1.016.222a13.222,13.222,0,0,1,1.283.384,7.186,7.186,0,0,1,1.4.649,2.989,2.989,0,0,1,1.147,1.1,1.9,1.9,0,0,1,.05,1.593,4.931,4.931,0,0,1-1.035,1.579,13.345,13.345,0,0,1-3.119,2.365,21.178,21.178,0,0,1-3.148,1.453,20.016,20.016,0,0,1-2.359.711c-.58.132-.917.191-.917.191s.339-.04.927-.139a20.52,20.52,0,0,0,2.41-.581,21.67,21.67,0,0,0,3.27-1.295,13.81,13.81,0,0,0,3.372-2.278,5.575,5.575,0,0,0,1.273-1.739,2.687,2.687,0,0,0,.027-2.225,3.823,3.823,0,0,0-1.382-1.518,8.141,8.141,0,0,0-1.543-.826c-.493-.21-.951-.362-1.365-.493-.412-.115-.786-.239-1.072-.3q-.465-.109-.7-.166c.129-.449.254-.9.372-1.351.123.021.236.035.375.063a22.316,22.316,0,0,1,2.511.694,45.673,45.673,0,0,1,7.5,3.358c.668.368,1.324.758,1.952,1.157a4.158,4.158,0,0,1-.226,1.194,7.7,7.7,0,0,1-2.416,3.136,18.667,18.667,0,0,1-4.07,2.491,35.687,35.687,0,0,1-8.67,2.617c-1.224.221-2.256.331-2.979.413l-1.136.1,1.141-.049c.726-.049,1.764-.112,3-.276a36.052,36.052,0,0,0,8.887-2.247,19.278,19.278,0,0,0,4.344-2.4,8.6,8.6,0,0,0,2.858-3.417,5.423,5.423,0,0,0,.27-.9,18.258,18.258,0,0,1,3.252,2.712,5.36,5.36,0,0,1,.571.768c-.016.036-.024.071-.043.108a3.128,3.128,0,0,1-.4.712,3.606,3.606,0,0,1-.542.719,13.459,13.459,0,0,1-3.153,2.543l-1.964.978-2.1.817a20.725,20.725,0,0,1-2.192.645,21.819,21.819,0,0,1-2.247.538l-2.288.434c-.763.146-1.55.178-2.325.272l-2.336.241-2.355.119c-1.572.049-3.146.111-4.726.029s-3.181-.039-4.708-.223l-4.757-.475c-1.542-.247-3.088-.468-4.62-.76-1.524-.348-3.041-.735-4.553-1.108-1.471-.489-2.972-.926-4.375-1.549l-2.107-.915c-.684-.328-1.333-.72-1.989-1.09a17.492,17.492,0,0,1-1.869-1.218c-.3-.216-.611-.414-.9-.639l-.812-.715a14.234,14.234,0,0,1-2.672-3.125l-.215-.411C-3455.1,922.243-3455.045,922.194-3454.982,922.141Zm-1.012,6.824c.32.214.617.459.948.645l1.125.683c.38.213.773.39,1.157.584a21.034,21.034,0,0,0,2.332,1.053l2.356.9,2.381.736c1.578.506,3.206.748,4.782,1.187,1.606.285,3.2.579,4.808.833,1.623.167,3.231.4,4.842.612l4.768.369c1.645.14,3.224.164,4.84.253,1.6.107,3.218.126,4.833.126l2.425.048,2.434-.077c1.624-.016,3.249-.19,4.89-.3.821-.038,1.639-.171,2.46-.292.821-.136,1.646-.209,2.47-.4l2.488-.529,2.487-.766c.722-.276,1.45-.571,2.173-.9l-.006.361c-.347.223-.766.484-1.272.78-.782.443-1.745.964-2.887,1.492a38.67,38.67,0,0,1-3.945,1.549,43.783,43.783,0,0,1-4.86,1.338,53.831,53.831,0,0,1-5.575.905c-1.949.227-3.976.368-6.038.414s-4.159.007-6.254-.073c-2.094-.12-4.184-.3-6.229-.566a57.684,57.684,0,0,1-5.953-1.082,45.767,45.767,0,0,1-5.411-1.6,40.609,40.609,0,0,1-4.635-1.962,38.546,38.546,0,0,1-3.688-2.079c-1.071-.656-1.963-1.31-2.677-1.843-.684-.5-1.207-.941-1.59-1.258Zm-.073,4.154c.135.071.27.139.418.215.847.428,1.868.92,3.062,1.449s2.556,1.07,4.046,1.634c1.507.523,3.143,1.061,4.9,1.527,1.75.483,3.625.862,5.559,1.236,1.94.358,3.96.6,6.011.844s4.145.372,6.239.474,4.191.174,6.257.152,4.1-.048,6.062-.214c1.965-.14,3.862-.346,5.656-.6,1.786-.3,3.483-.581,5.026-.969,1.547-.365,2.951-.78,4.193-1.169,1.231-.422,2.3-.81,3.174-1.161l.423-.179-.038,2.212c-.347.225-.766.485-1.273.78-.781.443-1.744.965-2.887,1.494a39.248,39.248,0,0,1-3.945,1.548,43.992,43.992,0,0,1-4.859,1.337,54.2,54.2,0,0,1-5.576.906c-1.948.226-3.976.367-6.037.413s-4.16.008-6.255-.071c-2.093-.121-4.183-.3-6.229-.568a57.7,57.7,0,0,1-5.953-1.081,45.427,45.427,0,0,1-5.411-1.6,40.233,40.233,0,0,1-4.634-1.962,38.494,38.494,0,0,1-3.689-2.077c-1.07-.656-1.963-1.311-2.677-1.844-.684-.5-1.207-.942-1.589-1.259Zm-.081,4.478.418.214c.848.429,1.87.919,3.063,1.449s2.556,1.072,4.047,1.634c1.506.524,3.143,1.063,4.9,1.527,1.751.484,3.626.862,5.559,1.237,1.94.357,3.96.6,6.012.844s4.146.373,6.24.473,4.189.174,6.255.153,4.1-.047,6.064-.215c1.964-.139,3.861-.346,5.655-.6,1.786-.3,3.483-.582,5.026-.97,1.548-.364,2.952-.781,4.193-1.17,1.231-.421,2.3-.809,3.174-1.16.149-.064.285-.121.423-.178l-.03,1.72c-.346.223-.766.484-1.272.779-.782.444-1.744.965-2.887,1.493a39.091,39.091,0,0,1-3.944,1.549,44.05,44.05,0,0,1-4.861,1.337,53.809,53.809,0,0,1-5.575.905c-1.948.227-3.975.368-6.038.414s-4.159.008-6.255-.072c-2.093-.121-4.182-.3-6.228-.568a57.49,57.49,0,0,1-5.953-1.08,45.481,45.481,0,0,1-5.411-1.6,40.408,40.408,0,0,1-4.634-1.961,38.612,38.612,0,0,1-3.69-2.079c-1.07-.656-1.963-1.31-2.676-1.843-.685-.5-1.207-.942-1.589-1.259Zm60.179,7.538c-.269.252-.545.5-.833.738a23.149,23.149,0,0,1-3.535,2.354c-.644.333-1.305.636-1.971.94-.682.27-1.359.562-2.054.821s-1.407.479-2.119.7l-2.172.57c-1.466.311-2.941.643-4.443.818-1.493.244-3.006.352-4.518.474s-3.034.125-4.552.158c-1.519-.027-3.028-.025-4.558-.123s-3.049-.172-4.549-.373-3.01-.365-4.488-.7c-.74-.161-1.483-.3-2.216-.476q-1.094-.3-2.176-.616a39.006,39.006,0,0,1-4.23-1.525,33.509,33.509,0,0,1-3.961-2.033,31.035,31.035,0,0,1-3.566-2.528q-.781-.675-1.5-1.4c.226.1.427.2.667.307,1.186.538,2.556,1.071,4.047,1.633,1.506.524,3.143,1.061,4.9,1.527,1.751.484,3.624.864,5.559,1.237,1.939.357,3.96.6,6.01.844s4.146.372,6.24.474,4.191.172,6.256.152,4.1-.047,6.063-.215c1.966-.14,3.862-.346,5.656-.6,1.786-.3,3.483-.581,5.026-.969,1.548-.365,2.951-.781,4.193-1.171C-3397.717,945.79-3396.774,945.449-3395.969,945.135Zm-60.658-7.021.024.095-.034-.03C-3456.639,938.149-3456.64,938.121-3456.627,938.114Zm-6.29-9.326-.007.39-.376.083c-.4.083-.976.214-1.7.427a17.549,17.549,0,0,0-2.355.834,12.771,12.771,0,0,0-1.271.616,11.6,11.6,0,0,0-1.235.789,7.275,7.275,0,0,0-1.1.992,4.662,4.662,0,0,0-.8,1.2,2.238,2.238,0,0,0-.23.654,1.929,1.929,0,0,0-.1.655,3.336,3.336,0,0,0,.154,1.179,4.111,4.111,0,0,0,.43.888,3.512,3.512,0,0,0,.439.606l.431.483-.372-.527a3.57,3.57,0,0,1-.358-.638,3.991,3.991,0,0,1-.309-.881,3.043,3.043,0,0,1-.016-1.072,1.617,1.617,0,0,1,.148-.555,1.857,1.857,0,0,1,.264-.538,4.049,4.049,0,0,1,.814-.961,6.731,6.731,0,0,1,1.077-.767,11.4,11.4,0,0,1,2.437-1.015,16.131,16.131,0,0,1,2.26-.519c.651-.116,1.23-.18,1.647-.216l.078-.009-.158,8.851-.016.961.455.788a9.679,9.679,0,0,0,1.107,1.219c.344.331.689.622,1.034.919a24.852,24.852,0,0,0,2.089,1.585,32.514,32.514,0,0,0,4.325,2.526,35.9,35.9,0,0,0,4.443,1.924c.763.243,1.492.555,2.252.781l2.27.67c.752.22,1.526.367,2.284.555a22.946,22.946,0,0,0,2.284.494l2.291.429c.765.126,1.535.209,2.3.315,1.526.253,3.067.363,4.6.5,1.535.189,3.077.211,4.6.325,1.519.131,3.072.12,4.608.213,1.54.051,3.078.06,4.62.08,1.543-.015,3.088-.013,4.637-.087,1-.027,1.995-.091,2.994-.165.359.116,1.087.347,2.131.682l1.257.4,1.426.562c1.015.412,2.178.823,3.4,1.425,1.232.571,2.575,1.17,3.941,1.921l2.121,1.119,2.169,1.256c1.487.827,2.949,1.81,4.474,2.746,1.485.994,3.016,1.977,4.5,3.033,5.973,4.157,11.688,8.688,16.037,12,2.171,1.663,4.017,3,5.321,3.917l2.088,1.387-1.952-1.579c-.6-.53-1.34-1.151-2.189-1.864l-2.8-2.457-3.293-2.946c-1.156-1.061-2.438-2.108-3.733-3.23-2.624-2.208-5.424-4.574-8.338-6.824-1.439-1.146-2.931-2.236-4.417-3.28-1.52-1-2.974-2.047-4.469-2.942l-2.178-1.354-2.141-1.218c-1.38-.814-2.75-1.481-4.007-2.111-1.009-.537-2.006-.956-2.932-1.351.769-.123,1.536-.279,2.31-.419l2.361-.566a38,38,0,0,0,3.928-1.281l.239.114c1.258.6,2.986,1.352,5.027,2.35,1.015.5,2.118,1.043,3.255,1.671,1.15.6,2.328,1.3,3.556,2.016,2.425,1.476,4.964,3.147,7.426,4.937,1.241.882,2.435,1.828,3.639,2.725l3.439,2.761c2.187,1.848,4.222,3.588,5.911,5.139,1.724,1.518,3.088,2.859,4.069,3.771s1.532,1.446,1.532,1.446l-1.4-1.571c-.9-.995-2.151-2.453-3.745-4.116-1.559-1.7-3.447-3.614-5.489-5.661-1.047-1-2.129-2.029-3.227-3.077-1.137-1.009-2.266-2.069-3.448-3.072-2.343-2.027-4.789-3.955-7.156-5.684-1.2-.84-2.357-1.666-3.494-2.391-1.122-.749-2.217-1.405-3.221-2.014-.9-.535-1.719-1.007-2.47-1.435.361-.209.721-.427,1.08-.658l.012-.009,1.03-.761c.26.147.528.3.815.465a110.73,110.73,0,0,1,10.277,6.733,151.472,151.472,0,0,1,13.335,11.117c2.328,2.164,4.682,4.451,7.019,6.833,2.362,2.36,4.626,4.864,6.917,7.379,4.572,5.021,9.275,9.945,13.95,14.3a120.187,120.187,0,0,0,13.544,11.048,69.618,69.618,0,0,0,9.041,5.323c-.3.117-.606.233-.9.343-.679-.2-1.581-.563-2.721-1.01l-2.054-.948c-.734-.383-1.527-.8-2.373-1.24-1.669-.943-3.536-2.044-5.515-3.352-7.962-5.172-17.836-13.219-27.722-21.226s-19.928-15.889-28.056-20.931c-2.018-1.278-3.916-2.374-5.626-3.29-.846-.477-1.662-.876-2.416-1.246s-1.443-.714-2.087-.981c-1.268-.58-2.287-.974-2.991-1.224l-1.07-.4,1.064.419c.7.262,1.712.674,2.966,1.274.638.28,1.326.624,2.067,1.016s1.554.793,2.39,1.283c1.691.944,3.565,2.071,5.557,3.379,8.022,5.168,17.912,13.192,27.651,21.371s19.493,16.4,27.463,21.774c1.981,1.358,3.864,2.513,5.554,3.506l2.418,1.315,2.116,1.021.862.357q-.593.183-1.159.332l-.092-.019-.775-.159c-.307-.071-.664-.219-1.063-.349a28.549,28.549,0,0,1-2.861-1.139c-1.1-.485-2.32-1.1-3.65-1.769-5.305-2.743-12.191-6.839-19.076-10.931l-10.136-5.976c-3.249-1.888-6.3-3.617-8.921-5.083-2.638-1.442-4.831-2.648-6.39-3.449l-2.436-1.282,2.4,1.346c1.536.844,3.7,2.109,6.291,3.62,2.58,1.535,5.579,3.344,8.772,5.318l9.967,6.245c6.773,4.277,13.547,8.56,18.841,11.482,1.332.717,2.555,1.374,3.677,1.905.678.318,1.289.594,1.87.841a7.5,7.5,0,0,1-2.374-.249,1.218,1.218,0,0,0-.549-.064,57.449,57.449,0,0,1-7.116-2.893c-3.617-1.726-7.609-3.857-11.865-6.364-8.533-4.985-18.255-11.2-28.994-17.435a158.831,158.831,0,0,0-17.072-8.795,135.436,135.436,0,0,0-18.832-6.424c-12.9-3.456-26.183-5.074-38.439-6.554-3.08-.378-6.04-.751-8.977-1.169a76.663,76.663,0,0,1-8.33-1.517,57.046,57.046,0,0,1-14.134-5.546,43,43,0,0,1-10.007-7.59,24.7,24.7,0,0,1-5.139-7.574,14.04,14.04,0,0,1-1.134-5.247c0-.253,0-.478,0-.672,0-.041.007-.075.011-.113a11.909,11.909,0,0,1,1.35-1.029c.23.752.522,1.62.9,2.6a36.139,36.139,0,0,0,2.974,5.667,35.73,35.73,0,0,0,5.308,6.337,39.443,39.443,0,0,0,7.847,5.771,50.428,50.428,0,0,0,9.97,4.185,73.392,73.392,0,0,0,11.253,2.547c3.882.579,7.853.88,11.807,1.126s7.9.494,11.771.922a102.677,102.677,0,0,1,11.264,1.861,187.162,187.162,0,0,1,19.523,5.466c5.624,1.91,10.224,3.754,13.384,5.176,1.577.717,2.811,1.3,3.629,1.734l1.265.656s-.436-.235-1.255-.673-2.039-1.046-3.608-1.785c-3.143-1.465-7.721-3.375-13.328-5.363a187.509,187.509,0,0,0-19.49-5.746,103.525,103.525,0,0,0-11.3-2.026c-3.882-.482-7.844-.78-11.792-1.084s-7.885-.655-11.712-1.279a72.2,72.2,0,0,1-11.031-2.654,48.98,48.98,0,0,1-9.688-4.217,38.134,38.134,0,0,1-7.494-5.668,34.249,34.249,0,0,1-5-6.135,34.628,34.628,0,0,1-2.756-5.429c-.425-1.149-.723-2.1-.935-2.875a24.62,24.62,0,0,1,3.022-1.342,37.023,37.023,0,0,0,3.954,9.543,29.738,29.738,0,0,0,4.435,5.792,24.212,24.212,0,0,0,3.047,2.608l.85.592.214.148.133.091.106.063.427.254c.579.336,1.12.691,1.764,1.013a46.816,46.816,0,0,0,7.855,3.335,71.22,71.22,0,0,0,8.437,2.154,158.382,158.382,0,0,0,16.863,2.145c2.7.212,5.291.427,7.746.689,2.453.281,4.774.566,6.906.9a127.131,127.131,0,0,1,14.1,2.832,127.732,127.732,0,0,0-14.015-3.359c-2.125-.409-4.441-.781-6.9-1.154-2.458-.354-5.062-.668-7.737-.977a157.633,157.633,0,0,1-16.614-2.736,69.546,69.546,0,0,1-8.132-2.4,44.868,44.868,0,0,1-7.334-3.43c-.557-.3-1.125-.7-1.68-1.051l-.417-.269-.1-.067a.738.738,0,0,0-.067-.052l-.186-.141-.739-.557a21.819,21.819,0,0,1-2.643-2.438,26.945,26.945,0,0,1-3.827-5.406,34.16,34.16,0,0,1-3.351-9.092,49.305,49.305,0,0,1,7.714-1.344c-.113.181-.23.349-.334.553a9.833,9.833,0,0,0-.954,5.132,14.569,14.569,0,0,0,1.972,6.274,20.058,20.058,0,0,0,5.051,5.765,28.077,28.077,0,0,0,7.415,4.091,88.122,88.122,0,0,0,8.539,2.656c2.956.73,6,1.3,9.049,1.745,6.107.892,12.249,1.265,17.952,2.007a119.112,119.112,0,0,1,15.419,3.016,107.785,107.785,0,0,1,14.565,4.834,107.7,107.7,0,0,0-14.494-5.1,119.859,119.859,0,0,0-15.416-3.3c-5.712-.845-11.85-1.327-17.894-2.319-3.022-.493-6.018-1.114-8.923-1.886a86.552,86.552,0,0,1-8.371-2.765,26.838,26.838,0,0,1-7.009-4.023,18.667,18.667,0,0,1-4.606-5.44,13.027,13.027,0,0,1-1.679-5.649,8.208,8.208,0,0,1,.854-4.278,5.331,5.331,0,0,1,1.176-1.509A91.016,91.016,0,0,1-3462.917,928.788Zm74.606,18.45h0l.019-1.025c17.166,5.46,31.618,20.957,45.625,35.978,4.958,5.317,9.643,10.34,14.444,14.934,7.744,7.408,13.761,10.745,18.387,11.859-.519.222-1.031.439-1.531.648a65.054,65.054,0,0,1-10.318-5.7,119.055,119.055,0,0,1-13.555-10.717c-4.707-4.251-9.462-9.081-14.106-14.025-2.319-2.468-4.645-4.968-7.053-7.288-2.382-2.35-4.783-4.606-7.154-6.735a151.625,151.625,0,0,0-13.556-10.924,110.763,110.763,0,0,0-10.405-6.572C-3387.794,947.519-3388.055,947.376-3388.311,947.238Zm-156.344-45.245c4.762-4.033,13.931-7.956,25.372-6.855,14.565,1.393,29.635,10.552,43.879,26.549-1.663.092-3.223.231-4.687.407-.218-.341-.54-.848-.965-1.513-.425-.621-.854-1.436-1.51-2.253s-1.39-1.737-2.2-2.741c-.842-.965-1.852-1.924-2.865-2.979-1.048-1.018-2.267-1.967-3.462-3.008-1.288-.928-2.588-1.926-3.985-2.817-1.422-.853-2.824-1.781-4.335-2.515-.746-.382-1.477-.791-2.232-1.145l-2.266-1.016c-1.5-.677-3.026-1.21-4.484-1.762-1.485-.481-2.905-.987-4.289-1.342-1.368-.408-2.684-.708-3.9-.988a55.505,55.505,0,0,0-5.918-1c-.72-.086-1.285-.126-1.672-.137l-.592-.029.589.071c.386.036.948.116,1.655.252a54.675,54.675,0,0,1,5.8,1.4c1.18.361,2.457.747,3.779,1.242,1.338.446,2.7,1.04,4.127,1.613,1.394.642,2.852,1.266,4.268,2.029q1.062.565,2.137,1.142c.71.394,1.391.842,2.089,1.261,1.411.809,2.7,1.8,4.006,2.712,1.28.946,2.453,1.985,3.614,2.947,1.063,1.07,2.151,2.039,3.067,3.063.878,1.057,1.758,2.012,2.477,2.961.679.979,1.3,1.876,1.851,2.671s.888,1.571,1.24,2.165c.061.113.108.2.165.3q-1.407.264-2.673.571c-.255-.33-.59-.766-1.023-1.33-.475-.626-1.06-1.389-1.813-2.263s-1.532-1.885-2.5-2.883c-.944-1.021-1.951-2.135-3.119-3.224-1.116-1.136-2.4-2.23-3.715-3.36-.642-.582-1.382-1.08-2.083-1.633a27.061,27.061,0,0,0-2.2-1.582c-.767-.495-1.512-1.03-2.309-1.5l-2.412-1.367a47.258,47.258,0,0,0-5.016-2.271,51.37,51.37,0,0,0-5.044-1.664c-1.684-.357-3.285-.8-4.85-.976-.777-.109-1.528-.238-2.26-.321l-2.125-.164c-1.358-.142-2.61-.109-3.714-.128a28.165,28.165,0,0,0-2.859.065c-1.58.084-2.483.134-2.483.134l2.484.052a27.975,27.975,0,0,1,2.841.15c1.094.1,2.33.16,3.659.4l2.076.317c.711.136,1.44.32,2.19.484,1.512.286,3.043.835,4.644,1.3a50.236,50.236,0,0,1,4.742,1.971,45.482,45.482,0,0,1,4.63,2.53l2.2,1.471c.722.5,1.4,1.066,2.086,1.589a25.688,25.688,0,0,1,1.974,1.656c.625.578,1.287,1.092,1.856,1.7,1.171,1.169,2.3,2.29,3.282,3.451,1.028,1.11,1.907,2.248,2.729,3.283.849,1.019,1.5,2.024,2.139,2.878s1.153,1.646,1.585,2.314l.129.2q-.792.283-1.506.581c-8.913-13.373-34.427-30.422-50.458-22.812a23.869,23.869,0,0,0-5.475,3.574A23.942,23.942,0,0,1-3544.655,901.993Zm40.741,62c-5.135-4.7-10.785-6.566-19.728-8.8-15.019-3.759-19.841-10.347-22.721-14.285-.367-.5-.7-.948-1.02-1.359a26.33,26.33,0,0,1-2.757-12.36c1.424,7.577,4.566,14.722,12.245,19.878a54.191,54.191,0,0,0,19.554,7.823c1.041.226,1.864.4,2.45.585l1.043.313c3.323.989,7.025,2.1,10.707,5.4C-3504.077,962.128-3504.009,963.065-3503.914,963.994Zm-.334-4.5a27.356,27.356,0,0,0-10.252-4.875l-1.033-.312c-.635-.194-1.478-.376-2.547-.61a52.334,52.334,0,0,1-19.134-7.644,26.219,26.219,0,0,1-10.762-15.085c.282.652.587,1.3.933,1.934a34.224,34.224,0,0,0,10.986,11.977,43.451,43.451,0,0,0,16.381,6.764l2.287.371c.794.108,1.475.19,2.1.3a29.887,29.887,0,0,1,4.029,1.006,18.646,18.646,0,0,1,6.948,3.777C-3504.3,957.9-3504.285,958.7-3504.248,959.49Zm3.478-28.534-.338.495-.152.581a94.085,94.085,0,0,0-3,19.828,27.385,27.385,0,0,0-5.56-2.726,34.68,34.68,0,0,0-4.6-1.319c-.827-.175-1.607-.293-2.264-.408l-2.035-.4a38.42,38.42,0,0,1-14.262-6.464,28.677,28.677,0,0,1-8.857-10.287,17.882,17.882,0,0,1-1.771-10.585,17.413,17.413,0,0,1,1.255-4.258,20.5,20.5,0,0,1,1.936-3.32,26.476,26.476,0,0,1,2.011-2.45c.654-.637,1.135-1.133,1.645-1.593l.719-.605c12.439-1.739,30.911,11.405,37.642,21.105A11.782,11.782,0,0,0-3500.77,930.956Zm174.328,90.108c-17.63-8.075-49.142-10.181-105.362-7.046-2.718.151-5.363.185-7.942.122,2.747-.372,5.533-.778,8.385-1.223a228.006,228.006,0,0,1,23.975-2.791c8.194-.455,16.454-.475,24.18-.261,3.862.143,7.6.346,11.131.622,3.536.256,6.875.577,9.951.924,1.541.153,3.012.35,4.408.553s2.724.38,3.964.588c2.488.379,4.645.781,6.421,1.111s3.161.647,4.112.833l1.453.305-1.447-.332c-.946-.2-2.322-.56-4.1-.911s-3.92-.807-6.4-1.233c-2.479-.449-5.286-.9-8.357-1.324a300.6,300.6,0,0,0-45.375-2.807c-8.28.094-16.55.923-24.245,1.779-7.69.875-14.875,1.578-20.983.985-1.531-.078-2.976-.351-4.359-.527-1.374-.236-2.67-.51-3.89-.754l-3.377-.88-2.817-.9c-1.107-.331-2.034-.7-2.809-1q-.656-.351-1.3-.719c.558.1,1.119.169,1.663.259l2.024.286,1.948.123,1.834.113c.592.012,1.165-.009,1.714-.012,1.1-.024,2.1-.007,2.983-.063l2.289-.191,1.984-.168-1.988-.131c-.63-.04-1.394-.091-2.271-.148-.875-.076-1.855-.242-2.92-.378-.533-.078-1.088-.141-1.658-.237l-1.749-.377-1.837-.4-1.875-.56c-.63-.2-1.285-.354-1.915-.609s-1.264-.5-1.9-.755a16.1,16.1,0,0,1-1.879-.859c-.611-.32-1.246-.593-1.836-.948a31.637,31.637,0,0,1-3.391-2.256l-.8-.593-.735-.652c-.11-.1-.225-.2-.338-.3.066.03.13.063.2.09l2.185.852c.715.311,1.484.48,2.217.719.745.208,1.465.481,2.216.616a42.681,42.681,0,0,0,4.364.829l2.089.285c.683.076,1.357.091,2.008.138a35.07,35.07,0,0,0,3.663.117c1.134-.02,2.168-.016,3.083-.053l2.364-.193,2.051-.169-2.055-.128-2.346-.148c-.9-.1-1.917-.248-3.018-.388a34.092,34.092,0,0,1-3.524-.629c-.618-.137-1.259-.244-1.9-.412s-1.284-.369-1.945-.561a40.07,40.07,0,0,1-3.975-1.371c-.676-.222-1.308-.579-1.963-.867-.641-.32-1.317-.569-1.928-.95l-1.859-1.057c-.609-.361-1.177-.786-1.759-1.166a16.829,16.829,0,0,1-1.658-1.229c-.523-.436-1.078-.808-1.546-1.276-.062-.057-.121-.112-.184-.168.415.192.823.4,1.253.566,1.4.646,2.9,1.127,4.359,1.645.739.245,1.5.425,2.239.637s1.478.424,2.23.553c1.492.3,2.944.623,4.38.763l2.094.266c.686.061,1.361.084,2.014.125a36.007,36.007,0,0,0,3.676.106c1.137-.021,2.174-.018,3.093-.055l2.372-.194,2.058-.169-2.061-.128-2.356-.147c-.906-.1-1.924-.247-3.031-.387a35.223,35.223,0,0,1-3.541-.618c-.622-.131-1.265-.246-1.912-.4l-1.963-.547a42.3,42.3,0,0,1-4.024-1.317c-.683-.22-1.34-.528-2-.817s-1.334-.564-1.981-.888c-1.282-.678-2.577-1.308-3.765-2.083-1.226-.7-2.337-1.545-3.433-2.3-1.047-.838-2.072-1.613-2.967-2.449-.928-.789-1.729-1.63-2.486-2.369-1.473-1.539-2.63-2.9-3.41-3.868l-.357-.445a66.261,66.261,0,0,1-1.877-8.278,50.324,50.324,0,0,0,4.2,4.033,50.9,50.9,0,0,0,16.642,9.247,61.447,61.447,0,0,0,18.049,2.942l4.393-.035,4.249-.168c2.8-.1,5.535-.189,8.2-.232,5.331-.1,10.37-.072,15.012.164a114.451,114.451,0,0,1,12.61,1.293,96.544,96.544,0,0,1,9.573,2.034c1.318.335,2.485.667,3.5.969s1.876.551,2.568.777l2.13.675-2.106-.749c-.684-.251-1.535-.541-2.542-.867s-2.159-.71-3.467-1.092a97.113,97.113,0,0,0-9.54-2.377,115.562,115.562,0,0,0-12.649-1.742c-4.665-.4-9.732-.605-15.088-.691-2.676-.05-5.432-.054-8.24-.054l-4.254.02-4.274-.114a59.011,59.011,0,0,1-17.188-3.41,47.743,47.743,0,0,1-15.3-9.2,46.906,46.906,0,0,1-6-6.627c-.446-.6-.858-1.191-1.254-1.79-.012-.2-.036-.386-.046-.581.222.323.461.66.723,1.006a35.687,35.687,0,0,0,4.124,4.511,49.032,49.032,0,0,0,6.233,4.831,52.717,52.717,0,0,0,8.168,4.48,54.985,54.985,0,0,0,9.983,2.864,117.5,117.5,0,0,0,22.361,1.946c3.818.006,7.624,0,11.369.2,3.745.176,7.427.444,10.978.841,3.553.367,6.972.866,10.2,1.415,3.224.573,6.264,1.179,9.033,1.884,2.778.672,5.294,1.414,7.5,2.133,2.2.734,4.113,1.417,5.645,2.078,1.552.613,2.732,1.183,3.537,1.573l1.238.588-1.232-.6c-.8-.4-1.976-.981-3.523-1.61-1.526-.678-3.431-1.378-5.629-2.136s-4.715-1.511-7.491-2.212c-2.768-.734-5.806-1.372-9.029-1.978-3.229-.584-6.65-1.118-10.207-1.522-3.553-.433-7.243-.739-11-.954-3.754-.24-7.58-.273-11.389-.318a116.966,116.966,0,0,1-22.2-2.154,54.146,54.146,0,0,1-9.78-2.911,51.676,51.676,0,0,1-7.963-4.472,47.734,47.734,0,0,1-6.05-4.782,34.617,34.617,0,0,1-3.946-4.4,25.656,25.656,0,0,1-1.727-2.659c-.016-.661-.044-1.316-.043-1.982.354.555.779,1.175,1.276,1.83a32.532,32.532,0,0,0,4.137,4.4,45.6,45.6,0,0,0,6.282,4.6c1.215.744,2.5,1.484,3.861,2.191a39.892,39.892,0,0,0,4.313,2.026,66.108,66.108,0,0,0,9.858,2.765,142.274,142.274,0,0,0,22,2.6c3.767.167,7.526.279,11.22.523,3.7.22,7.327.541,10.832.926,3.507.366,6.878.881,10.068,1.4,3.18.574,6.183,1.153,8.917,1.851,2.744.657,5.226,1.393,7.405,2.105s4.056,1.406,5.567,2.059c1.531.609,2.7,1.176,3.49,1.559l1.221.581-1.216-.593c-.79-.392-1.949-.971-3.474-1.595-1.506-.67-3.383-1.37-5.552-2.118s-4.653-1.5-7.394-2.183c-2.732-.727-5.735-1.338-8.915-1.946-3.19-.552-6.563-1.1-10.073-1.5-3.508-.421-7.143-.779-10.843-1.038-3.7-.282-7.468-.432-11.221-.636a141.7,141.7,0,0,1-21.858-2.8,65.253,65.253,0,0,1-9.691-2.822,38.927,38.927,0,0,1-4.193-2.024c-1.335-.71-2.593-1.451-3.777-2.194a44.533,44.533,0,0,1-6.09-4.555,31.326,31.326,0,0,1-3.943-4.281,23.218,23.218,0,0,1-1.989-3.135c-.062-.124-.112-.222-.164-.327.019-.626.027-1.248.061-1.876.354.552.775,1.164,1.267,1.812a32.729,32.729,0,0,0,4.192,4.434,46.238,46.238,0,0,0,6.359,4.631c1.229.747,2.533,1.484,3.906,2.2a31.433,31.433,0,0,0,4.4,1.985,74.053,74.053,0,0,0,10.011,2.57,178.777,178.777,0,0,0,22.208,2.712c3.8.235,7.59.46,11.308.837,3.723.353,7.378.793,10.9,1.321,3.527.5,6.914,1.126,10.115,1.77,3.193.676,6.208,1.357,8.951,2.128,2.753.738,5.245,1.527,7.434,2.281s4.079,1.474,5.6,2.144c1.54.628,2.716,1.2,3.518,1.59l1.232.591-1.227-.6c-.8-.4-1.968-.982-3.5-1.626-1.516-.685-3.4-1.413-5.583-2.2s-4.671-1.593-7.421-2.358c-2.74-.8-5.751-1.513-8.944-2.222-3.2-.677-6.587-1.334-10.114-1.875-3.523-.565-7.181-1.042-10.909-1.433-3.726-.415-7.526-.68-11.316-.953a177.591,177.591,0,0,1-22.086-2.922,73.082,73.082,0,0,1-9.857-2.633,30.229,30.229,0,0,1-4.254-1.975c-1.348-.718-2.623-1.459-3.824-2.2a45.068,45.068,0,0,1-6.164-4.584,31.452,31.452,0,0,1-4-4.312,23.6,23.6,0,0,1-2.013-3.164l-.027-.055c.045-.568.07-1.131.128-1.7a33.613,33.613,0,0,0,4.24,4.979,49.108,49.108,0,0,0,11.7,8.308,62.671,62.671,0,0,0,15.713,5.587,81.772,81.772,0,0,0,8.875,1.324c2.968.325,6.055.611,9.125.885,12.327,1.079,25.382,2.244,38.1,5.208a132.351,132.351,0,0,1,18.6,5.67,156.076,156.076,0,0,1,17.085,8.109c10.856,5.838,20.8,11.741,29.518,16.458,4.35,2.374,8.437,4.387,12.131,6a57.46,57.46,0,0,0,7.274,2.681c.713,1.572,8.6,7.458,16.922,8.211C-3313.2,1024.182-3319.482,1024.251-3326.442,1021.064Zm30.165-16.4a5.574,5.574,0,0,0-3.34-3.069,5.737,5.737,0,0,0-4.637.458c-2.669,1.518-9.113-.3-19.18-9.93-4.659-4.456-9.277-9.409-14.168-14.652-15.135-16.233-30.768-32.992-50.561-38.439l.224-12.547.048,0s-.016-.231-.084-.661a6.034,6.034,0,0,0-.5-1.607,7.872,7.872,0,0,0-1.117-1.733,11.8,11.8,0,0,0-1.545-1.533,31.044,31.044,0,0,0-8.391-4.546,50.146,50.146,0,0,0-8.711-2.491,26.031,26.031,0,0,0-3.043-.384c.111-.543.243-1.083.342-1.629a74.709,74.709,0,0,0,1.108-15.987,59.158,59.158,0,0,0-2.789-16.017,48.407,48.407,0,0,0-7.645-14.75h0l-2.847-3.317q1.954,1.236,3.947,2.413a145.577,145.577,0,0,0,35.06,14.961,326.16,326.16,0,0,1,35.682,12.463,170.924,170.924,0,0,1,33.011,18.072c10.141,7.31,19.335,16.279,25.261,27.294a55.928,55.928,0,0,1,6.046,17.57,60.1,60.1,0,0,1,.073,18.621c-1.736,11.394-6.177,22.241-11.872,32.3Zm-90.765-198.609c.242.494.5.974.749,1.463-.212-.241-.416-.475-.632-.719-2.559-2.844-5.376-5.9-8.575-8.928a95,95,0,0,0-10.757-8.818l-3.128-1.959c-1.061-.647-2.229-1.155-3.351-1.741s-2.405-.922-3.612-1.392c-1.181-.4-2.386-.7-3.518-1.1a71.911,71.911,0,0,1-13.525-6.1,57.355,57.355,0,0,1-11.763-8.968,44.467,44.467,0,0,1-8.291-11.587,39.168,39.168,0,0,1-3.6-12.854,45.294,45.294,0,0,1,.354-12.073c.2-1.876.685-3.623,1-5.316.43-1.666.884-3.238,1.308-4.717.507-1.453.98-2.814,1.417-4.073l1.388-3.392c.8-2.071,1.643-3.6,2.118-4.689l.777-1.649-.863,1.606c-.528,1.063-1.465,2.548-2.361,4.584q-.694,1.516-1.536,3.349c-.493,1.248-1.026,2.6-1.6,4.043-.492,1.47-1.016,3.041-1.522,4.71-.394,1.7-.964,3.456-1.244,5.359a46.5,46.5,0,0,0-.723,12.393A40.8,40.8,0,0,0-3455.154,757a44.081,44.081,0,0,0,8.432,12.324,59.646,59.646,0,0,0,12.086,9.529,74.557,74.557,0,0,0,13.916,6.544l3.582,1.173c1.092.434,2.219.722,3.268,1.26s2.118,1.007,3.118,1.617,1.986,1.24,2.966,1.854a92.511,92.511,0,0,1,10.426,8.543c3.139,2.954,6.018,5.861,8.594,8.629s4.858,5.382,6.869,7.711l.637.738a259.94,259.94,0,0,0,17.362,26.292c-1.786-1.816-3.587-3.635-5.422-5.46-8.289-8.151-17.011-16.464-26.807-23.885-2.462-1.837-5-3.607-7.67-5.215a38.47,38.47,0,0,0-8.577-4.023,73.787,73.787,0,0,0-9.242-1.827c-3.05-.486-6.072-1-9.039-1.684a53.755,53.755,0,0,1-16.678-6.617,42.988,42.988,0,0,1-12.735-12.1,59.51,59.51,0,0,1-7.7-15.726c-.465-1.382-.912-2.766-1.27-4.175-.4-1.4-.765-2.8-1.059-4.217l-.474-2.111a16.3,16.3,0,0,1-.256-1.954c-.123-1.407-.218-2.825-.265-4.239a93.561,93.561,0,0,1,4.678-32.272,85.235,85.235,0,0,1,13.836-25.767,87.23,87.23,0,0,1,18.095-17.106,111.483,111.483,0,0,1,16.685-9.852c4.868-2.332,8.839-3.862,11.542-4.913l4.187-1.515-4.292,1.2a118.3,118.3,0,0,0-11.892,4.213,102.684,102.684,0,0,0-17.433,9.114,89.8,89.8,0,0,0-19.215,16.967,83.108,83.108,0,0,0-15.025,26.462,94.41,94.41,0,0,0-5.153,33.6c.045,1.487.125,2.98.275,4.487a18.653,18.653,0,0,0,.339,2.4l.518,2.189c.323,1.467.724,2.924,1.156,4.378.391,1.465.877,2.91,1.382,4.354a63.258,63.258,0,0,0,8.388,16.59,46.519,46.519,0,0,0,13.924,12.908,54.551,54.551,0,0,0,17.866,6.436c3.093.6,6.2,1.008,9.275,1.383a66.642,66.642,0,0,1,8.982,1.448,36.557,36.557,0,0,1,8.117,3.752c2.6,1.54,5.1,3.258,7.536,5.048,9.732,7.208,18.533,15.387,26.882,23.415q7.3,7.09,14.065,14.068,8.508,10.662,17.633,20.761-1-.744-2.049-1.484c-1.47-1.071-3.007-2.152-4.616-3.218-1.586-1.1-3.27-2.157-5-3.22-1.712-1.085-3.492-2.144-5.313-3.2-3.647-2.108-7.489-4.145-11.417-6.159-3.947-1.973-7.97-3.95-12.06-5.762-8.153-3.69-16.424-7.049-24.135-10.217-3.851-1.6-7.557-3.165-11.011-4.764-3.464-1.583-6.672-3.207-9.562-4.82a58.453,58.453,0,0,1-7.577-4.9,38.757,38.757,0,0,1-5.161-4.666,28.649,28.649,0,0,1-2.806-3.515l-.9-1.326.786,1.4a28.827,28.827,0,0,0,2.534,3.773,38.91,38.91,0,0,0,4.936,5.082,59.858,59.858,0,0,0,7.388,5.484,104.364,104.364,0,0,0,9.451,5.358c3.421,1.769,7.081,3.51,10.873,5.277,7.574,3.565,15.722,7.135,23.7,11s15.852,7.921,22.954,12.186c1.786,1.047,3.542,2.077,5.223,3.144,1.706,1.03,3.331,2.1,4.927,3.126,1.609,1.007,3.143,2.029,4.612,3.042s2.915,1.955,4.257,2.923c5.439,3.8,9.806,7.166,12.889,9.508l.492.4c5.824,6.085,11.751,12.063,17.717,17.985,2.38,2.4,4.807,4.764,7.212,7.138,1.486,1.6,2.891,3.092,4.2,4.472,2.286,2.412,4.295,4.48,6,6.178.107.123.219.242.324.365a91.129,91.129,0,0,1,13.838,20.858,55.841,55.841,0,0,1,5.7,24.079,40.617,40.617,0,0,1-7.286,23.363,43.516,43.516,0,0,1-17.315,14.25c5.962-10.321,10.723-21.493,12.585-33.393a61.834,61.834,0,0,0-.005-19.161,57.738,57.738,0,0,0-6.17-18.16c-6.068-11.376-15.448-20.568-25.722-28.035a173.013,173.013,0,0,0-33.341-18.425A328.706,328.706,0,0,0-3383.448,877a143.3,143.3,0,0,1-34.49-14.837,158.532,158.532,0,0,1-29.724-22.96,162.2,162.2,0,0,1-23.648-29.178,144.536,144.536,0,0,1-15.914-33.937,113.226,113.226,0,0,1-5.422-36.907,90.017,90.017,0,0,1,8.372-36.113,90.748,90.748,0,0,1,9.63-15.937,99.37,99.37,0,0,1,12.655-13.692c9.237-8.37,19.879-15.3,31.7-19.2a74.431,74.431,0,0,1,36.792-2.51c12.285,2.167,24.029,7.024,34.824,13.364a145.041,145.041,0,0,1,24.326,17.786c-.666-.39-1.37-.8-2.153-1.264-2.31-1.3-5.151-2.817-8.513-4.371a92.611,92.611,0,0,0-11.66-4.385,78.272,78.272,0,0,0-14.528-2.889,69.822,69.822,0,0,0-16.6.393,65.373,65.373,0,0,0-17.031,5.137,69.166,69.166,0,0,0-15.38,9.944,81.259,81.259,0,0,0-12.448,13.307c-.872,1.234-1.775,2.385-2.609,3.67-.8,1.233-1.624,2.4-2.365,3.721a57.711,57.711,0,0,0-3.968,7.827,42.35,42.35,0,0,0-3.388,16.227,34.873,34.873,0,0,0,.917,7.667,35.574,35.574,0,0,0,2.447,6.764,38.66,38.66,0,0,0,7.314,10.064,47.882,47.882,0,0,0,7.4,6,43.594,43.594,0,0,0,5.341,2.972c1.274.6,1.972.874,1.972.874s-.68-.32-1.907-1a46.118,46.118,0,0,1-5.1-3.281,47.11,47.11,0,0,1-6.97-6.265,37.933,37.933,0,0,1-6.572-10.054,33.941,33.941,0,0,1-2.1-6.484,33.035,33.035,0,0,1-.612-7.237,39.952,39.952,0,0,1,3.728-15.184c.61-1.229,1.156-2.5,1.865-3.7l1.006-1.842,1.1-1.782c.7-1.193,1.577-2.39,2.4-3.595.781-1.152,1.718-2.3,2.576-3.459a83.306,83.306,0,0,1,12.175-12.576,65.641,65.641,0,0,1,14.7-9.253,61.964,61.964,0,0,1,16.066-4.816,72.726,72.726,0,0,1,29.719,1.878,101.73,101.73,0,0,1,11.47,3.792c3.354,1.332,6.221,2.662,8.549,3.812,2.3,1.175,4.123,2.115,5.354,2.811l1.7.932c-3.548.908-7.046,2-10.528,3.176a109.625,109.625,0,0,0-12,4.838,126.774,126.774,0,0,0-11.535,6.077,94.165,94.165,0,0,0-10.7,7.67,68.6,68.6,0,0,0-16.9,20.554,62.289,62.289,0,0,0-6.414,19.422c-.05-.038-.1-.072-.151-.112-.548-.418-1.155-.878-1.815-1.38q-.958-.84-2.071-1.81c-.725-.66-1.418-1.428-2.2-2.2-.745-.8-1.435-1.708-2.214-2.621a29.383,29.383,0,0,1-3.735-6.624l-.393-.94c-.107-.323-.187-.655-.284-.985-.176-.665-.408-1.33-.552-2.021a24.633,24.633,0,0,1-.464-4.3,11.437,11.437,0,0,1,.046-2.233c.08-.749.12-1.512.226-2.273a30.627,30.627,0,0,1,1.177-4.55,39.935,39.935,0,0,1,4.288-8.736q1.5-2.1,3-4.2c1.076-1.246,2.08-2.553,3.2-3.754a42.293,42.293,0,0,1,7.333-6.3,35.306,35.306,0,0,1,3.986-2.353c.667-.365,1.379-.607,2.055-.912a16.723,16.723,0,0,1,2.05-.79l2.046-.645c.677-.2,1.364-.312,2.03-.469a37,37,0,0,1,3.92-.63,48.578,48.578,0,0,1,6.985-.158c2.089.093,3.907.292,5.4.469s2.668.353,3.466.481,1.225.184,1.225.184l-1.212-.258c-.79-.174-1.951-.408-3.436-.689s-3.3-.577-5.4-.8a49.5,49.5,0,0,0-7.107-.264,38.1,38.1,0,0,0-4.07.4c-.7.12-1.42.2-2.135.36l-2.17.542a17.973,17.973,0,0,0-2.193.7c-.726.275-1.493.489-2.214.829a36.893,36.893,0,0,0-4.346,2.223,44.726,44.726,0,0,0-8.133,6.176c-1.267,1.2-2.44,2.544-3.677,3.831q-1.62,2.005-3.249,4.02a43.12,43.12,0,0,0-5.337,9.373,34.569,34.569,0,0,0-1.648,5.111c-.179.874-.288,1.762-.431,2.638a14.789,14.789,0,0,0-.214,2.635,29.048,29.048,0,0,0,.252,5.176c.123.84.34,1.652.508,2.466.094.405.173.813.279,1.208l.393,1.154a34.705,34.705,0,0,0,3.958,8.127c.823,1.114,1.58,2.224,2.381,3.2.833.943,1.592,1.878,2.372,2.682.8.784,1.543,1.52,2.232,2.2l2.06,1.771c1.275,1.128,2.178,1.7,2.837,2.223l.406.306a85.486,85.486,0,0,0,2.9,25.218A134.7,134.7,0,0,0-3387.042,806.051Zm22.87-167.674,6.756,2.162c2.631.824,5.265,1.616,7.7,2.328,1.01.694,2.012,1.41,3,2.139a209.709,209.709,0,0,1,21.483,18.93c-1.005-.215-2.051-.453-3.137-.733l-3.663-.888-3.883-1.086c-2.676-.717-5.461-1.6-8.335-2.529-2.892-.877-5.817-1.975-8.812-3.016l-9.015-3.349c-3-1.175-6.015-2.312-8.948-3.521-2.951-1.162-5.817-2.4-8.581-3.617-2.777-1.187-5.42-2.427-7.947-3.555-2.269-1.07-4.417-2.052-6.409-3.034,6.907-.512,13.722-1.288,20.391-1.925,1.158-.1,2.311-.2,3.454-.28.027.008.05.017.077.026Zm-5.794-1.987c.115-.008.232-.02.347-.029,1.363-.094,2.466-.159,3.863-.2l1.012-.025.617.018a12.445,12.445,0,0,1,1.428.206,19.675,19.675,0,0,1,3.145.979,46.818,46.818,0,0,1,7.53,4.011c-1.718-.384-3.493-.812-5.261-1.274C-3361.933,638.887-3366.531,637.51-3369.966,636.39Zm45.948,28.75c.2.2.4.391.593.588,7.2,7.233,14.043,14.687,20.563,22.2l-2.338-.67-3.29-1.09-3.568-1.214-3.772-1.426c-2.6-.962-5.281-2.115-8.069-3.282s-5.6-2.521-8.494-3.822l-8.683-4.132c-2.885-1.436-5.787-2.836-8.6-4.3-.479-.242-.94-.494-1.414-.739-2.1-1.432-4.228-2.826-6.4-4.155-2.137-1.275-4.325-2.476-6.538-3.631-.571-.445-1.132-.9-1.71-1.341q-2.175-1.69-4.4-3.306-4.423-3.276-8.987-6.345c-1.519-1.026-3.032-2.061-4.576-3.046s-3.066-2.009-4.627-2.965c-.364-.224-.725-.451-1.087-.679,3.007,1.266,6.211,2.585,9.6,3.915,2.814,1.1,5.724,2.237,8.68,3.392,2.947,1.175,5.978,2.277,8.993,3.416l9.057,3.241c3,1.018,5.961,2.019,8.822,2.99l8.281,2.712c2.635.857,5.133,1.647,7.455,2.333l3.324,1.022C-3324.787,664.923-3324.419,665.026-3324.018,665.14Zm-18.291,42.691,5.236,5.7-55,50.486a66.5,66.5,0,0,1-.047-8.22,55.911,55.911,0,0,1,6.271-22.939,68.4,68.4,0,0,1,14.987-18.851,92.036,92.036,0,0,1,9.637-7.687,120.8,120.8,0,0,1,10.487-6.76c2.038-1.177,4.118-2.289,6.212-3.384A11.3,11.3,0,0,0-3342.309,707.831Zm-48.724,64.712c-.137-.775-.265-1.551-.379-2.329l57.725-52.992,1.333,1.452Zm71.482-49.437-1.029.944c-.986.905-3.91-.661-6.5-3.479L-3337.24,709.5c-2.588-2.819-3.9-5.866-2.912-6.771l1.028-.944C-3337.187,700.007-3317.184,720.933-3319.551,723.106Zm-10.6-35.943.113-.189c.042.043.087.085.129.128Zm1.243-1.311a141.864,141.864,0,0,0-20.115-17.178c2.582,1.289,5.223,2.538,7.855,3.811l8.732,4.034c2.909,1.27,5.741,2.581,8.538,3.727,2.766,1.216,5.453,2.36,8.015,3.415,2.541,1.1,4.975,2.073,7.22,2.98,2.236.928,4.3,1.738,6.154,2.435.328.124.639.248.951.37,2.96,3.449,5.869,6.912,8.607,10.381.741.953,1.52,1.932,2.149,2.846l.955,1.372.142.236A362.95,362.95,0,0,1-3328.909,685.852Zm40.222,20.508.069-.176a25.224,25.224,0,0,1,1.722,4.038c-.417-.107-.886-.23-1.453-.387l-3.337-1.051c-1.289-.425-2.717-1-4.293-1.582-1.55-.642-3.233-1.334-5-2.106-1.74-.82-3.608-1.62-5.483-2.568-1.761-.861-3.562-1.786-5.378-2.747a59.8,59.8,0,0,0-7.869-7.345C-3310.624,697.038-3299.943,702.018-3288.687,706.36Zm-14.857,6.92,1.635.93c3.2,1.837,6.2,3.54,8.8,4.954l7.139,4.006c-.034.5-.066.994-.1,1.515-.026.49-.046.962-.057,1.409-.3-.088-.626-.182-1-.294-.847-.244-1.816-.63-2.964-1.029-1.137-.415-2.406-.954-3.783-1.545-2.747-1.2-5.9-2.729-9.183-4.553-.044-.023-.088-.049-.13-.073,0,.015,0,.031-.007.045l.115.067c3.268,1.853,6.319,3.58,8.933,5.063,1.332.7,2.5,1.442,3.6,1.995l2.81,1.531c.7.358,1.245.652,1.652.872a10.562,10.562,0,0,0,.213,1.152,22.83,22.83,0,0,0,1.509,3.975c.965,2.034,2,3.883,3.06,5.7-.67-.2-1.393-.443-2.24-.72-1.093-.36-2.311-.846-3.63-1.38-1.33-.517-2.726-1.178-4.211-1.858s-3.011-1.486-4.592-2.309c-3.136-1.7-6.442-3.578-9.676-5.579-1.006-.624-1.988-1.266-2.976-1.9l3.46-3.177C-3302.847,719.949-3302.535,716.817-3303.544,713.28Zm-2.824-6.216c1.613.9,3.208,1.78,4.752,2.626,3.209,1.8,6.2,3.482,8.793,4.883l6.221,3.461.849.483c-.01,1.03-.056,2.08-.123,3.166-1.582-.707-3.963-1.79-6.887-3.191-2.654-1.286-5.727-2.844-9.013-4.527-.613-.323-1.237-.662-1.861-1A26.7,26.7,0,0,0-3306.368,707.064Zm20.6,9.94c-1.578-.7-3.9-1.747-6.718-3.084-2.652-1.27-5.728-2.791-9.014-4.443-1.634-.859-3.319-1.754-5.029-2.672a49.706,49.706,0,0,0-5.285-7c1.8.967,3.585,1.9,5.319,2.8,3.72,1.955,7.218,3.732,10.226,5.25,3.01,1.5,5.557,2.746,7.372,3.587,1.35.565,2.256.983,2.631,1.159A26.043,26.043,0,0,1-3285.77,717Zm-29.7,12.193c.094-.017.186-.035.277-.055l.006,0C-3315.283,729.165-3315.377,729.18-3315.472,729.2Zm4.711-2.059c.288-.216.568-.446.839-.693l1.129-1.038c1.027.62,2.045,1.243,3.091,1.845,1.639.966,3.28,1.927,4.915,2.837,1.618.945,3.264,1.774,4.809,2.664,3.138,1.7,6.065,3.291,8.575,4.655,1.277.645,2.4,1.327,3.455,1.841l2.7,1.418c.577.288,1.022.519,1.394.713,2.273,3.743,4.6,7.351,6.933,10.848-.763-.2-1.623-.479-2.626-.81-1.109-.329-2.306-.859-3.641-1.365a92.338,92.338,0,0,1-8.76-4.259c-3.116-1.73-6.445-3.574-9.655-5.612-1.625-.987-3.211-2.036-4.782-3.05-.748-.513-1.451-1.014-2.181-1.52Q-3307.6,731.319-3310.761,727.138Zm12.871,18.442c-1.911-3.029-3.9-5.992-5.938-8.911.42.257.818.511,1.243.769,1.612.957,3.221,1.972,4.877,2.909,1.64.965,3.3,1.9,4.928,2.819,1.62.937,3.255,1.79,4.817,2.649,3.152,1.668,6.095,3.226,8.618,4.563l6.126,3.3c.978.509,1.638.881,2,1.087,1.817,2.7,3.626,5.362,5.392,7.993q1.659,2.457,3.29,4.876a57.713,57.713,0,0,1-5.479-1.852,85.68,85.68,0,0,1-7.828-3.582c-2.816-1.416-5.718-3.119-8.624-4.806-2.869-1.749-5.722-3.529-8.314-5.319q-1.043-.714-2.034-1.414Q-3296.313,748.085-3297.89,745.58Zm50.351,60.576c-1.372-.408-3.314-1.054-5.624-1.967-2.3-.929-4.959-2.079-7.736-3.463-2.8-1.35-5.7-2.945-8.578-4.582-1.426-.84-2.847-1.692-4.229-2.554-1.4-.837-2.716-1.757-4.015-2.6-2.571-1.738-4.915-3.443-6.852-4.993-1.273-1-2.35-1.914-3.253-2.713a12.914,12.914,0,0,0,1.543-3.335,16.4,16.4,0,0,0,.568-4.011c0-.013,0-.027,0-.041l1.557.963c2.074,1.287,4.506,2.756,7.121,4.3s5.413,3.184,8.227,4.786,5.64,3.188,8.3,4.654l7.3,3.985c2.154,1.136,3.983,2.079,5.272,2.737.226.113.412.205.6.3a50.37,50.37,0,0,1,.557,7.387c0,.45-.022.894-.034,1.341C-3247.036,806.292-3247.266,806.231-3247.539,806.156Zm.639,2.281c-.1,1.525-.252,3.032-.481,4.5-25.739-12.926-37.465-21.947-42.537-25.859-.339-.262-.645-.5-.932-.716a12.58,12.58,0,0,0,2.118-1.9c.243.153.476.3.735.472.859.542,1.826,1.155,2.882,1.823,2.115,1.325,4.595,2.835,7.253,4.445,2.674,1.583,5.506,3.3,8.384,4.938,5.721,3.338,11.513,6.552,15.915,8.905,2.206,1.154,4.079,2.117,5.4,2.772Zm-5.945-14.633c-2.251-.9-4.86-2.014-7.575-3.373-2.729-1.331-5.582-2.869-8.374-4.51-2.809-1.614-5.536-3.363-8.068-5.037-2.507-1.712-4.813-3.358-6.717-4.861-.8-.633-1.526-1.222-2.187-1.776a29.258,29.258,0,0,0-.923-5.426c-.4-1.5-.887-2.927-1.407-4.332,1.886,1.159,4.043,2.427,6.341,3.792l3.964,2.291,4.113,2.326c1.371.789,2.77,1.531,4.133,2.284s2.716,1.473,4.021,2.181l7.146,3.866,6.824,3.6a36.926,36.926,0,0,1,3.86,10.754C-3249.013,795.2-3250.766,794.613-3252.845,793.8Zm-5.238-13.217c-1.093-.457-2.3-.912-3.536-1.474s-2.546-1.151-3.868-1.823c-2.658-1.317-5.426-2.854-8.156-4.455-2.74-1.585-5.4-3.3-7.876-4.931-2.458-1.659-4.708-3.268-6.587-4.713-.241-.188-.459-.364-.688-.545-.847-2.072-1.789-4.071-2.772-6.032-.825-1.617-1.689-3.2-2.577-4.765.36.218.716.434,1.083.658,2.717,1.606,5.6,3.334,8.543,4.967,5.842,3.335,11.806,6.424,16.244,8.858l7.5,3.982.008-.025c2.718,4.064,5.315,8.056,7.7,11.977C-3254.355,781.9-3256.059,781.348-3258.083,780.587Zm-34.227,6.631c.409.308.885.675,1.439,1.1,5.133,3.96,17.038,13.119,43.2,26.223-.05.259-.087.522-.141.778-.026.12-.055.241-.083.361-26.873-13.361-38.959-22.67-44.134-26.661-.6-.466-1.115-.86-1.558-1.19C-3293.158,787.654-3292.734,787.434-3292.31,787.218Zm-3.113,1.223c.556.363,1.348.974,2.442,1.816,5.232,4.035,17.471,13.467,44.71,26.982-.107.41-.221.814-.341,1.215-.33-.094-.7-.2-1.138-.333-.8-.236-1.723-.585-2.814-.954-1.093-.348-2.3-.865-3.617-1.394-2.633-1.082-5.655-2.477-8.827-4.1s-6.5-3.471-9.747-5.453c-1.634-.972-3.226-2.014-4.809-3.011-1.553-1.044-3.08-2.076-4.535-3.1-1.445-1.042-2.836-2.059-4.111-3.075-1.3-.981-2.47-1.991-3.541-2.921-1.1-.9-1.984-1.856-2.818-2.641-.815-.806-1.442-1.57-2-2.162-.143-.165-.237-.3-.351-.457Zm-5.386,1.706a14.839,14.839,0,0,1,1.818-.693c.3.3.675.669,1.124,1.1.655.549,1.411,1.264,2.343,1.982.943.7,1.976,1.53,3.153,2.35,1.158.85,2.439,1.727,3.8,2.642,1.338.946,2.815,1.844,4.3,2.833,1.5.972,3.064,1.944,4.657,2.929s3.2,2,4.849,2.949l4.887,2.883,4.766,2.744,4.49,2.515,4.06,2.2c1.278.652,2.415,1.3,3.47,1.829s1.963,1.02,2.721,1.365c.444.205.812.379,1.137.535-.149.4-.309.784-.475,1.162-30.82-15.32-44.756-26.032-50.776-30.66l-.662-.508C-3301.033,790.252-3300.926,790.2-3300.809,790.147Zm-1.885.942c.38.289.786.6,1.255.961,6.056,4.656,20.076,15.432,51.033,30.82-.19.34-.388.665-.6.975-31.013-15.394-45.015-26.154-51.052-30.8-.64-.492-1.189-.913-1.671-1.274A10.645,10.645,0,0,1-3302.694,791.089Zm93.445,4.737c-.461-1.083-.988-2.324-1.579-3.712l-2.832-5.878c-1-2.179-2.274-4.4-3.56-6.792-1.249-2.41-2.767-4.838-4.289-7.372-1.486-2.555-3.264-5.04-4.935-7.645-1.8-2.516-3.558-5.122-5.46-7.608-3.717-5.047-7.634-9.9-11.123-14.557-1.772-2.311-3.383-4.606-4.872-6.81q-1.074-1.679-2.088-3.26l-1.747-3.162a27.368,27.368,0,0,1-1.441-3c-.41-.972-.873-1.872-1.177-2.763-.553-1.8-1.155-3.347-1.448-4.671l-.858-4.192s.217,1.545.6,4.248c.213,1.351.719,2.939,1.167,4.8.253.922.661,1.855,1.016,2.869a27.849,27.849,0,0,0,1.273,3.127q.757,1.6,1.576,3.323l1.91,3.435c1.366,2.321,2.857,4.751,4.49,7.182,3.221,4.9,6.825,9.986,10.184,15.194,1.73,2.578,3.3,5.243,4.907,7.821,1.48,2.656,3.068,5.19,4.361,7.774,1.329,2.563,2.66,5.012,3.728,7.431,1.1,2.4,2.216,4.642,3.031,6.774.863,2.114,1.655,4.051,2.357,5.768.632,1.791,1.185,3.351,1.64,4.636.161.454.3.86.44,1.242-1.132,1.006-2.269,2.006-3.4,3.02q-.334-1.036-.722-2.234c-.509-1.606-1.237-3.442-1.946-5.427s-1.51-4.143-2.462-6.358c-.925-2.229-1.859-4.59-3.005-6.964l-1.681-3.633q-.922-1.811-1.863-3.658c-1.217-2.476-2.651-4.89-4.018-7.332-1.456-2.39-2.873-4.8-4.418-7.077-1.493-2.309-3.055-4.51-4.553-6.646-1.529-2.1-3.006-4.141-4.407-6.071s-2.728-3.738-3.875-5.461c-1.191-1.7-2.179-3.314-3.061-4.748-.862-1.444-1.514-2.76-2.1-3.818l-1.563-3.471s.48,1.3,1.321,3.581c.515,1.1,1.082,2.468,1.847,3.981.783,1.5,1.668,3.205,2.743,4.993,1.036,1.814,2.251,3.717,3.505,5.746s2.589,4.147,3.963,6.349c1.336,2.219,2.727,4.5,4.036,6.874,1.363,2.341,2.586,4.8,3.848,7.241,1.17,2.485,2.4,4.931,3.421,7.433.526,1.24,1.05,2.472,1.566,3.687q.7,1.854,1.39,3.656c.953,2.382,1.7,4.754,2.451,6.982.778,2.223,1.4,4.349,1.95,6.313s1.118,3.725,1.516,5.373l1.054,4.245c.075.3.147.591.213.861-1.879,1.734-3.753,3.486-5.61,5.294-.756.728-1.512,1.489-2.267,2.265-.681.7-1.792,1.888-2.355,2.622l-.24.3-.121.151a2.669,2.669,0,0,0-.294.445c-.238.408-.461.829-.668,1.253a10.985,10.985,0,0,0-.651,2.346,21.857,21.857,0,0,0-.236,3.744,35.5,35.5,0,0,1-.218,5.6,14.068,14.068,0,0,1-1.5,4.588l-.63,1.049c-.21.343-.454.6-.669.916l-.327.457-.515.561-1.055,1.133a4.937,4.937,0,0,1-2.99.849c-3.095.067-6.921-1.06-10.5-2.452a96.527,96.527,0,0,1-10.762-5.087,194.155,194.155,0,0,1-20.5-12.964l-2.427-1.791-1.16-.889-1.175-.936c-1.563-1.27-3.088-2.562-4.567-3.9a66.448,66.448,0,0,1-8.067-8.467,28.072,28.072,0,0,1-2.941-4.573,10.107,10.107,0,0,1-1.231-4.289,4.359,4.359,0,0,1,1.029-2.839c.522.387,1.135.856,1.874,1.425,6.052,4.653,20.057,15.417,50.97,30.787a.578.578,0,0,1-.1.07,3.385,3.385,0,0,1-1.509.181,17.466,17.466,0,0,1-4.168-.9,66.642,66.642,0,0,1-8.047-3.332c-5.093-2.473-9.632-5.118-13.667-7.594-8.07-4.976-14.085-9.415-18.136-12.494-4.033-3.11-6.032-4.965-6.032-4.965s1.851,2,5.655,5.418a187,187,0,0,0,17.419,13.7c3.922,2.738,8.336,5.68,13.409,8.528a61.245,61.245,0,0,0,8.277,3.964,20.755,20.755,0,0,0,5.006,1.294,6.908,6.908,0,0,0,3.265-.358,5.2,5.2,0,0,0,1.543-1.043,10.472,10.472,0,0,0,1.056-1.146,28.168,28.168,0,0,0,4.487-10.089,51.719,51.719,0,0,0,1.6-11.211,52.391,52.391,0,0,0-.88-11.949,40.986,40.986,0,0,0-4.248-12.008c-4-7.361-8.661-14.459-13.375-21.9-4.721-7.409-9.664-15.06-14.234-22.988-1.12-1.979-2.213-3.995-3.1-5.962a16.43,16.43,0,0,1-.994-2.686,2.933,2.933,0,0,1-.056-.32c0,.016,0,.009,0-.005l0-.019,0,.008c0-.014,0-.006,0-.046l.016-.449c.012-.625.052-1.148.089-1.666.393-4.491.961-10.163-.456-15.614a32.543,32.543,0,0,0-3.064-7.786l-1.04-1.8-1.146-1.715c-.77-1.148-1.549-2.126-2.334-3.158-3.134-4.039-6.379-7.959-9.71-11.882-6.668-7.829-13.67-15.588-21.092-23.174a226.933,226.933,0,0,0-24.05-21.732,67.161,67.161,0,0,0-14.741-8.86,28.4,28.4,0,0,0-4.576-1.4,21.214,21.214,0,0,0-2.58-.358c-.472-.017-.891-.038-1.407-.035l-1.014.027c-1.3.031-2.9.118-4.237.216-1.4.093-2.769.217-4.141.341-10.916,1.056-21.536,2.378-32.133,2.466-.648.006-1.295-.006-1.941-.007l-.141-.091-.059.09c-9.829-.045-19.573-1.144-28.558-4.218a57.076,57.076,0,0,1-13.532-6.607l-1.539-1.071-.386-.266-.354-.261-.8-.612-3.21-2.442c-2.155-1.623-4.149-3.281-6.227-4.915-16.461-13.366-31.99-27.571-46.646-41.606-7.3-7.05-14.38-14.094-21.112-21.141-3.372-3.517-6.645-7.05-9.776-10.593-1.6-1.753-3.054-3.564-4.573-5.325l-1.036-1.32-.854-1.211a19.072,19.072,0,0,1-1.412-2.563,7.748,7.748,0,0,1-.789-4.612,4.986,4.986,0,0,1,2.334-3.175,7.749,7.749,0,0,1,2.486-1c2.169,2.311,6.342,6.737,12.222,12.883,4.468,4.653,9.911,10.286,16.211,16.694s13.458,13.594,21.466,21.233,16.8,15.808,26.515,24c4.859,4.093,9.963,8.176,15.383,12.108a111.553,111.553,0,0,0,17.544,10.741c.785.39,1.607.746,2.446,1.09.837.369,1.663.686,2.477.963a23.01,23.01,0,0,0,2.639.827c.9.2,1.8.38,2.7.505a84.039,84.039,0,0,0,10.763.693c7.177.055,14.393-.3,21.65-.736l21.864-1.47c3.641-.222,7.337-.444,10.9-.466l1.377.015,1.195.092a19.773,19.773,0,0,1,2.469.532,35.075,35.075,0,0,1,4.9,1.9,108.439,108.439,0,0,1,18.23,11.764c5.771,4.444,11.292,9.193,16.612,14.071,5.3,4.888,10.456,9.9,15.187,15.106,4.724,5.239,9.138,10.673,13.309,16.141s8.091,10.986,11.674,16.532c1.791,2.769,3.505,5.549,5.006,8.366a42.99,42.99,0,0,1,2.016,4.246c.125.349.283.723.38,1.047a8.945,8.945,0,0,1,.29,1.047,21.477,21.477,0,0,1,.31,2.22c.265,3.061.3,6.263.756,9.38a46.222,46.222,0,0,0,2.157,9.022,75.4,75.4,0,0,0,7.675,15.657c1.52,2.35,3.014,4.642,4.578,6.764l4.483,6.3a131.737,131.737,0,0,1,7.412,12.139,108.748,108.748,0,0,1,8.8,21.385,100.779,100.779,0,0,1,3.045,14.611c.425,3.425.528,5.268.528,5.268s-.041-1.841-.351-5.288a93.617,93.617,0,0,0-2.609-14.759,109.56,109.56,0,0,0-8.325-21.78,132.956,132.956,0,0,0-7.185-12.457q-2.142-3.121-4.4-6.4c-1.543-2.163-2.967-4.431-4.415-6.745a73.443,73.443,0,0,1-7.244-15.352,44.02,44.02,0,0,1-1.931-8.654c-.393-2.986-.374-6.049-.6-9.3a23.42,23.42,0,0,0-.315-2.5,12.659,12.659,0,0,0-.327-1.266c-.128-.442-.279-.808-.419-1.219a45.79,45.79,0,0,0-2.065-4.534c-1.512-2.944-3.213-5.795-4.988-8.637-3.578-5.665-7.532-11.235-11.7-16.784s-8.607-11.045-13.38-16.394c-4.807-5.346-9.967-10.4-15.3-15.374q-4.05-3.75-8.268-7.381c.187.058.371.127.561.175a17.372,17.372,0,0,0,9.717-.421,23.341,23.341,0,0,0,8.48-4.949,25.62,25.62,0,0,0,2.9-3.184c.521.429,1.056.843,1.565,1.284a148.909,148.909,0,0,1,15.128,15.288c5.2,5.96,9.867,11.958,14.115,17.731-.157.138-.3.271-.436.394l-.791.765-.026.026-.805.839a24.381,24.381,0,0,0-2.054,2.567,24.265,24.265,0,0,0-2.447,4.493,20.255,20.255,0,0,0-1.492,6.545,13.956,13.956,0,0,0,1.92,7.961,12.508,12.508,0,0,0,7.475,5.543,16.488,16.488,0,0,0,7.746.09c.03.207.058.4.09.619a30.49,30.49,0,0,0,.6,3.368l1.844,8.013q.684,2.159,1.424,4.487a48.189,48.189,0,0,0,1.643,4.769l2.047,4.931c.664,1.7,1.641,3.3,2.473,5q.652,1.266,1.316,2.551.75,1.233,1.509,2.484c1.048,1.642,1.988,3.4,3.169,5,1.145,1.623,2.266,3.293,3.453,4.913l3.522,4.652a18.861,18.861,0,0,0-.373,2.79,13.947,13.947,0,0,0,1.919,7.961,12.508,12.508,0,0,0,7.475,5.543,14.852,14.852,0,0,0,3.859.5c.476.667.939,1.337,1.379,2.011,1.025,1.541,2.078,3.025,3.026,4.527l2.66,4.465a48.892,48.892,0,0,1,2.347,4.313q1.078,2.118,2.079,4.086c1.241,2.649,2.193,5.13,3.137,7.291q.344.813.667,1.573.275.81.529,1.56l.932,2.745.8,2.35Zm-117.4-173.494a14.545,14.545,0,0,1,1.2-5.365,17.192,17.192,0,0,1,2.15-3.754,20.546,20.546,0,0,1,1.819-2.127q.629-.612.692-.675l.794-.678a17.671,17.671,0,0,1,2.256-1.573,15.762,15.762,0,0,1,3.895-1.647,14.2,14.2,0,0,1,5.171-.477,9.673,9.673,0,0,1,5.051,2.024,8.158,8.158,0,0,1,2.85,5.117,13.833,13.833,0,0,1-.842,7.035,19.082,19.082,0,0,1-4.2,6.542,18.75,18.75,0,0,1-6.59,4.449,12.778,12.778,0,0,1-7.336.712,8.411,8.411,0,0,1-5.375-3.66A10.418,10.418,0,0,1-3326.652,622.332Zm93.108,122.052a14.531,14.531,0,0,1,1.2-5.365,17.169,17.169,0,0,1,2.149-3.754,20.134,20.134,0,0,1,1.82-2.126c.415-.407.646-.631.69-.676l.795-.679a17.948,17.948,0,0,1,2.256-1.573,15.719,15.719,0,0,1,3.9-1.646,14.2,14.2,0,0,1,5.172-.477,9.672,9.672,0,0,1,5.05,2.024,8.158,8.158,0,0,1,2.851,5.115,13.83,13.83,0,0,1-.843,7.037,19.079,19.079,0,0,1-4.2,6.542,18.714,18.714,0,0,1-6.59,4.448,12.762,12.762,0,0,1-7.336.712,8.416,8.416,0,0,1-5.375-3.659A10.425,10.425,0,0,1-3233.544,744.384Zm-1.955-6.669c-.025.064-.048.135-.073.2-.783-.938-1.569-1.876-2.349-2.811-1.247-1.537-2.417-3.114-3.62-4.655-1.241-1.516-2.228-3.176-3.335-4.736q-.8-1.188-1.6-2.361-.707-1.223-1.4-2.429c-.893-1.625-1.931-3.147-2.66-4.782l-2.244-4.745a47.256,47.256,0,0,1-1.845-4.619q-.842-2.265-1.624-4.369c-.811-2.88-1.553-5.521-2.211-7.86a29.971,29.971,0,0,1-.764-3.321c-.042-.217-.082-.414-.122-.622.54-.126,1.077-.264,1.6-.43.613-.19,1.21-.438,1.806-.69,1.068,6.216,3.692,18.119,9.252,27.7a209.742,209.742,0,0,0,12.476,17.891A23.807,23.807,0,0,0-3235.5,737.715Zm21.263-14.78c-1.561-2.748-3.165-5.593-4.918-8.487l-2.845-4.78q-1.489-2.4-3.024-4.871c-2.022-3.306-4.179-6.649-6.394-10.06-2.185-3.429-4.5-6.876-6.858-10.379-1.637-2.471-3.337-4.955-5.059-7.445a18.4,18.4,0,0,0,1.414-9.531c.276.448.548.893.829,1.349,1.92,3.1,3.848,6.44,5.894,9.855,4.007,6.884,8.232,14.255,12.325,21.7,4.426,7.992,8.744,16.034,12.683,23.534A13.778,13.778,0,0,0-3214.236,722.935Zm-26.73-36.81c2.278,3.537,4.514,7.014,6.618,10.47,2.135,3.437,4.213,6.805,6.154,10.13q1.472,2.484,2.9,4.9l2.727,4.8c1.352,2.334,2.595,4.62,3.81,6.862a19.323,19.323,0,0,0-3.476,1.078,23.118,23.118,0,0,0-3.19,1.662c-.613-.922-1.212-1.821-1.777-2.665-4.2-6.288-7-10.479-7-10.479l6.329,10.9c.513.881,1.058,1.821,1.614,2.783-.179.121-.367.244-.532.361a27.7,27.7,0,0,0-2.394,1.924c-6.673-11.608-15.034-25.262-25.071-40.17a24.631,24.631,0,0,0,4.987-3.45,24.784,24.784,0,0,0,4.318-5.235C-3243.593,682.043-3242.256,684.089-3240.966,686.125Zm-7.408-11.03a19.065,19.065,0,0,1-4.2,6.542,18.755,18.755,0,0,1-6.59,4.449,12.787,12.787,0,0,1-7.336.712,8.418,8.418,0,0,1-5.375-3.66,10.419,10.419,0,0,1-1.528-5.924,14.544,14.544,0,0,1,1.2-5.364,17.124,17.124,0,0,1,2.149-3.755,20.349,20.349,0,0,1,1.82-2.125c.415-.408.646-.631.69-.676l.8-.679a17.6,17.6,0,0,1,2.256-1.572,15.757,15.757,0,0,1,3.9-1.648,14.246,14.246,0,0,1,5.171-.477,9.673,9.673,0,0,1,5.05,2.024,8.163,8.163,0,0,1,2.851,5.116A13.82,13.82,0,0,1-3248.374,675.095Zm-13.717-17.9a23.9,23.9,0,0,0-4.555,2.56c-.249.181-.476.353-.7.52-4.114-5.872-8.65-11.99-13.743-18.112a151.492,151.492,0,0,0-15.269-15.668c-.576-.506-1.182-.988-1.772-1.482a22.78,22.78,0,0,0,1.47-2.774,19.47,19.47,0,0,0,1.34-4.458c2.292,1.655,4.555,3.372,6.737,5.224a100.791,100.791,0,0,1,17.933,19.526q5.012,7.082,9.915,14.155C-3261.2,656.844-3261.661,657.012-3262.091,657.193Zm60.639,131.534q-.471-1.2-1.036-2.628c-.193-.491-.4-1-.6-1.532q-.382-.8-.789-1.654c-1.109-2.263-2.265-4.874-3.7-7.594l-2.372-4.155c-.811-1.439-1.649-2.925-2.656-4.364q-1.452-2.19-2.98-4.491c-1.054-1.5-2.209-2.98-3.339-4.511-.032-.042-.067-.084-.1-.128.388-.1.773-.208,1.152-.327.291-.09.569-.221.856-.326,4.042,5.016,6.809,8.366,6.809,8.366-.756-1.831-2.221-5.05-4.381-9.43a23.645,23.645,0,0,0,2.948-1.778c.095.2.191.41.286.612,1.007,2.25,2.007,4.457,2.887,6.631.927,2.152,1.725,4.271,2.5,6.272s1.412,3.926,2.051,5.681c.621,1.762,1.1,3.389,1.574,4.822s.827,2.726,1.134,3.782l.9,3.117A18.089,18.089,0,0,1-3201.452,788.727Zm1.3-21.084c-.295.509-.607.986-.906,1.568-.415-.978-.849-1.985-1.329-3.01-.914-1.987-1.861-4.089-2.938-6.214-1.031-2.148-2.185-4.322-3.347-6.532-.207-.384-.421-.771-.632-1.156a25.347,25.347,0,0,0,3.225-3.609c1,2.2,1.908,4.241,2.729,6.066,1.595,3.577,2.92,6.469,3.848,8.391q.673,1.359,1.034,2.089C-3199.037,765.994-3199.6,766.772-3200.154,767.643Zm5.15-6.672-.048-.093c-.941-1.853-2.244-4.555-3.926-8.128-1.246-2.625-2.676-5.687-4.339-9.089a19.4,19.4,0,0,0,1.195-4.222q.554,1.09,1.082,2.141c2.875,5.681,5.194,10.446,6.8,13.77.579,1.23,1.065,2.26,1.452,3.081Q-3193.9,759.68-3195,760.971Zm19.5-21.8c-.03-.063-.057-.117-.089-.18-.939-1.894-2.329-4.631-4.134-8.107-3.6-6.95-8.86-16.81-15.4-28.516s-14.375-25.245-23.228-39.48a512.335,512.335,0,0,0-29.716-43.319,176.608,176.608,0,0,0-17.823-19.943,122.8,122.8,0,0,0-20.971-15.21,120.263,120.263,0,0,0-22.046-9.958,121.974,121.974,0,0,0-21.056-5.044,129.378,129.378,0,0,0-18.234-1.406,140.214,140.214,0,0,0-14.079.621c-3.889.374-6.928.819-8.993,1.156l-3.161.543s1.1-.175,3.168-.5c2.068-.309,5.111-.713,9-1.035a140.093,140.093,0,0,1,14.059-.43,129.109,129.109,0,0,1,18.147,1.645,121.155,121.155,0,0,1,20.859,5.294,119.331,119.331,0,0,1,21.719,10.164,121.777,121.777,0,0,1,20.518,15.3,175.117,175.117,0,0,1,17.378,19.972,510.494,510.494,0,0,1,29.011,43.511c8.637,14.3,16.259,27.918,22.64,39.665,6.366,11.757,11.479,21.657,14.973,28.62,1.748,3.479,3.1,6.232,4,8.1l.783,1.648q-1.221,1.384-2.463,2.762c-.474-.884-1.035-1.928-1.7-3.162-2.126-3.912-5.166-9.5-8.812-16.209-3.69-6.685-8.006-14.476-12.746-22.761-4.708-8.3-9.856-17.085-15.087-25.817-2.6-4.376-5.309-8.688-7.915-12.966l-7.9-12.416c-2.661-3.963-5.147-7.85-7.658-11.432q-1.887-2.685-3.664-5.217c-1.168-1.693-2.329-3.308-3.5-4.817l-3.3-4.37q-.789-1.039-1.534-2.025l-1.543-1.84c-2.02-2.356-3.672-4.5-5.218-6.1-3.112-3.182-4.892-5-4.892-5l4.768,5.112c1.5,1.637,3.105,3.821,5.061,6.217q.725.906,1.493,1.87l1.484,2.058q1.519,2.117,3.192,4.439c1.132,1.532,2.252,3.171,3.377,4.89l3.53,5.291c2.42,3.633,4.808,7.573,7.368,11.588,2.458,4.08,5,8.295,7.581,12.579,2.5,4.333,5.1,8.7,7.588,13.127,5.013,8.839,9.94,17.728,14.439,26.126,4.532,8.38,8.654,16.26,12.177,23.018,3.478,6.783,6.378,12.434,8.407,16.389l2.26,4.46-1.725,1.889-4.905-9.406c-3.925-7.534-9.55-18.3-16.586-31.062s-15.485-27.54-25.264-42.94c-4.886-7.7-10.1-15.561-15.679-23.359a285.416,285.416,0,0,0-18-22.863c-6.515-7.27-13.469-14.3-21.753-19.593a122.815,122.815,0,0,0-25.435-12.34,122.63,122.63,0,0,0-25.746-5.993c-4.179-.487-8.264-.8-12.221-.881-3.956-.053-7.782.038-11.438.334A117.819,117.819,0,0,0-3381.866,585a112.9,112.9,0,0,0-14.623,4.757c-3.953,1.6-6.923,3.146-8.956,4.169l-3.062,1.676,3.153-1.491c2.086-.9,5.13-2.261,9.143-3.616a121.7,121.7,0,0,1,14.667-4.109,130.856,130.856,0,0,1,19.532-2.591,130,130,0,0,1,23.248.872,120.285,120.285,0,0,1,25.19,6.1,120.082,120.082,0,0,1,24.809,12.316c7.824,5.062,14.657,12,21.012,19.188A282.712,282.712,0,0,1-3250.078,645c5.49,7.77,10.625,15.615,15.441,23.3,9.606,15.4,18.008,30.126,25.04,42.843s12.631,23.463,16.552,30.988c2.656,5.093,4.54,8.7,5.484,10.514l-2,2.2c-.229-.445-.47-.915-.735-1.432-1.741-3.323-4.236-8.034-7.311-13.633-6.132-11.212-14.523-26.029-23.27-40.636-4.351-7.316-8.831-14.555-13.075-21.311-2.165-3.352-4.207-6.624-6.234-9.668-.819-1.234-1.611-2.436-2.389-3.613a13.224,13.224,0,0,0-3.894-5.756c-1.588-2.317-3.06-4.462-4.436-6.335-1.526-2.1-2.806-3.959-3.959-5.421-2.26-2.956-3.55-4.647-3.55-4.647l3.39,4.763c1.1,1.5,2.318,3.4,3.771,5.545,1.028,1.5,2.111,3.179,3.257,4.973a13.486,13.486,0,0,0-7.217-1.939,17,17,0,0,0-2.906.3q-5.337-7.383-10.786-14.767a103.5,103.5,0,0,0-18.555-19.6c-2.48-2.04-5.035-3.955-7.641-5.751a17.055,17.055,0,0,0-.071-3.6,13.527,13.527,0,0,0-4.887-8.694,13.19,13.19,0,0,0-8.4-2.765,18.074,18.074,0,0,0-6.873,1.461,23.084,23.084,0,0,0-2.631,1.321,109.148,109.148,0,0,0-14.231-4.708,108.37,108.37,0,0,0-21.561-3.328,107.386,107.386,0,0,0-18.413.624,111.783,111.783,0,0,0-13.949,2.623c-1.922.43-3.588,1-5.059,1.414s-2.7.849-3.692,1.194l-3.052,1.058s1.066-.353,3.067-1.012c1-.33,2.23-.753,3.707-1.139s3.148-.935,5.073-1.336a111.5,111.5,0,0,1,13.95-2.41,106.994,106.994,0,0,1,18.328-.349,107.736,107.736,0,0,1,21.346,3.62,106.941,106.941,0,0,1,13.207,4.55c-.221.148-.445.295-.645.438a27.111,27.111,0,0,0-2.593,2.1l-.791.766-.026.025-.8.84c-.148.16-.318.352-.5.562-.262-.1-.521-.209-.782-.307a90.933,90.933,0,0,0-10.886-3.153,80.964,80.964,0,0,0-21.916-1.79,156.208,156.208,0,0,0-20.3,2.342c-6.383,1.1-12.369,2.31-17.9,3.328s-10.611,1.849-15.135,2.385a65.133,65.133,0,0,1-11.758.422,32.947,32.947,0,0,1-7.462-1.271,19.279,19.279,0,0,1-1.892-.663l-.646-.245.628.284a19.371,19.371,0,0,0,1.856.781,30.428,30.428,0,0,0,7.462,1.7,65.966,65.966,0,0,0,11.914.119c4.594-.295,9.743-.969,15.314-1.856,5.576-.865,11.591-1.9,17.96-2.819a194.468,194.468,0,0,1,20.054-1.982,77.432,77.432,0,0,1,21.21,1.938,96.708,96.708,0,0,1,10.478,3.163,23.779,23.779,0,0,0-2.2,4.121,20.217,20.217,0,0,0-1.493,6.544,14.107,14.107,0,0,0,1.6,7.385c-.418-.331-.826-.669-1.247-1-5.868-4.5-11.919-8.9-18.78-12.185a38.11,38.11,0,0,0-5.4-2.061,22.657,22.657,0,0,0-2.933-.614c-.52-.04-1.023-.087-1.558-.111l-1.385-.007c-3.8.042-7.447.286-11.132.527l-21.849,1.578c-7.223.469-14.393.858-21.441.839a81.491,81.491,0,0,1-10.378-.611,20.588,20.588,0,0,1-4.817-1.175c-.835-.281-1.632-.585-2.384-.916-.768-.31-1.536-.635-2.3-1.013a84.987,84.987,0,0,1-8.876-4.842c-2.858-1.757-5.648-3.586-8.343-5.5-5.4-3.8-10.528-7.777-15.416-11.774-9.777-8-18.654-16.025-26.761-23.523-16.165-15.055-29.308-27.975-38.459-37.063-5.992-5.959-10.29-10.231-12.55-12.477a5.858,5.858,0,0,1,1.665-.149,2.93,2.93,0,0,1,.4.052c.035.026.078.058.1.077l.531.425c.758.634,1.559,1.363,2.345,2.084,6.318,5.907,12.35,11.96,18.156,17.665q8.772,8.544,16.784,16.344c5.361,5.167,10.512,10,15.367,14.537,9.712,9.065,18.415,16.733,25.734,22.886a125.238,125.238,0,0,0,18,13.088,36.938,36.938,0,0,0,5.328,2.551,14.251,14.251,0,0,0,1.443.455l.491.132a35.532,35.532,0,0,1-4.132-2.754c.355-.393,1-1.11,1.9-2.1.707-.716,1.571-1.5,2.56-2.461,1.048-.924,2.284-1.969,3.636-3.082,1.413-1.052,2.877-2.278,4.563-3.414q1.247-.876,2.557-1.8l2.746-1.78c1.845-1.24,3.857-2.361,5.853-3.583,2.052-1.123,4.1-2.346,6.23-3.409,2.1-1.119,4.245-2.166,6.371-3.163,2.11-1.033,4.252-1.9,6.3-2.814,2.084-.8,4.073-1.677,6.015-2.339,1.934-.687,3.76-1.357,5.482-1.852,1.711-.543,3.289-1.01,4.708-1.343,1.414-.356,2.643-.7,3.677-.87l3.238-.629-3.276.416c-1.049.1-2.3.364-3.74.628-1.449.239-3.062.6-4.816,1.036-1.768.384-3.644.935-5.638,1.5-2,.54-4.058,1.281-6.218,1.958-2.119.783-4.344,1.519-6.542,2.419-2.214.867-4.451,1.783-6.655,2.777-2.231.936-4.386,2.034-6.549,3.041-2.111,1.107-4.235,2.115-6.206,3.257l-2.929,1.637-2.753,1.674c-1.809,1.055-3.423,2.229-4.964,3.229q-2.251,1.614-4.064,3.01c-1.184,1-2.256,1.871-3.07,2.6l-2.369,2.29q-2.388-2-5.4-4.664l.877-.83c.783-.77,1.746-1.592,2.852-2.543q.829-.717,1.764-1.521l2.048-1.627c1.408-1.159,3.014-2.317,4.705-3.557s3.54-2.458,5.44-3.74c1.939-1.224,3.923-2.527,6.016-3.73,2.06-1.258,4.219-2.424,6.365-3.619,2.178-1.133,4.339-2.311,6.526-3.349,2.168-1.083,4.333-2.08,6.438-3.031,4.214-1.885,8.208-3.527,11.674-4.823,3.459-1.32,6.384-2.31,8.437-2.986.677-.218,1.248-.4,1.724-.556.781-.224,1.564-.447,2.364-.657a128.381,128.381,0,0,1,26.855-4.329,120.575,120.575,0,0,1,30.194,2.226,123.27,123.27,0,0,1,30.521,10.6,138.562,138.562,0,0,1,27.711,18.54,165.252,165.252,0,0,1,12.124,11.556c3.886,4.109,7.4,8.3,10.876,12.64,6.857,8.668,13.085,17.622,18.831,26.472,11.5,17.7,21.15,34.923,29.162,49.8,7.986,14.9,14.252,27.527,18.569,36.393,2.875,6,4.915,10.264,5.943,12.409C-3174.238,737.712-3174.875,738.44-3175.5,739.173Zm10.7-16.791c0-.005,0-.008,0-.014-.011.021.015.008.006.076a2.177,2.177,0,0,1-.036.562,8.41,8.41,0,0,1-.6,1.905c-.874-1.921-2-4.3-3.377-7.122-3.759-7.668-9.288-18.506-16.316-31.295s-15.461-27.58-25.05-43.11c-4.812-7.753-9.9-15.7-15.327-23.615a284.687,284.687,0,0,0-17.5-23.33,122.933,122.933,0,0,0-10.217-10.586c-3.615-3.327-7.29-6.5-11.08-9.485a154.428,154.428,0,0,0-23.722-15.421,128.7,128.7,0,0,0-24.538-9.844,125.1,125.1,0,0,0-23.253-4.32,123.291,123.291,0,0,0-19.951-.1,138.086,138.086,0,0,0-15.217,2.031c-4.174.833-7.419,1.624-9.617,2.217l-3.364.926,3.393-.811c2.214-.518,5.482-1.2,9.666-1.887a137.628,137.628,0,0,1,15.2-1.505,133.242,133.242,0,0,1,19.739.675,123.289,123.289,0,0,1,22.792,4.837A133.583,133.583,0,0,1-3289.3,563.34a151.524,151.524,0,0,1,22.982,15.547c3.659,3,7.226,6.188,10.667,9.471a127.891,127.891,0,0,1,9.815,10.473,281.071,281.071,0,0,1,16.955,23.22c5.278,7.915,10.236,15.877,14.922,23.648,9.388,15.536,17.717,30.31,24.635,43.085s12.5,23.519,16.21,31.109c1.861,3.785,3.26,6.808,4.146,8.819q.338.758.59,1.354-.788,1.167-1.646,2.323c-1.176-2.367-2.866-5.767-5.005-10.074-4.466-8.844-10.941-21.432-19.181-36.288-8.267-14.836-18.21-32-30.056-49.667-5.917-8.83-12.331-17.775-19.4-26.451-3.538-4.293-7.294-8.639-11.206-12.649a168.185,168.185,0,0,0-12.541-11.6,141.091,141.091,0,0,0-28.476-18.439,125.269,125.269,0,0,0-31.154-10.3,122.075,122.075,0,0,0-30.586-1.795,129.337,129.337,0,0,0-27,4.768,127.94,127.94,0,0,0-12.444,4.219l-.112.034c-3.552,1.087-7.657,2.488-12.013,4.124-2.173.829-4.416,1.7-6.666,2.655-2.27.912-4.521,1.967-6.794,2.979-2.243,1.075-4.5,2.123-6.672,3.27-2.2,1.093-4.3,2.292-6.349,3.42-2.017,1.189-3.986,2.315-5.794,3.483s-3.533,2.255-5.06,3.36l-2.216,1.55q-1.038.79-1.966,1.5c-1.237.941-2.322,1.763-3.124,2.464-.524.437-.967.808-1.342,1.12q-2.232-2.01-4.726-4.29l1.759-1.522c.82-.732,1.824-1.565,2.987-2.468,1.157-.922,2.453-1.978,3.959-3.048,1.473-1.106,3.1-2.27,4.859-3.436,1.731-1.218,3.639-2.374,5.591-3.612,1.984-1.183,4.028-2.425,6.165-3.582q1.6-.873,3.225-1.756,1.646-.841,3.3-1.683c2.21-1.11,4.448-2.171,6.667-3.18s4.422-1.968,6.574-2.848c2.139-.911,4.246-1.7,6.23-2.482,2-.731,3.885-1.466,5.649-2.063,3.513-1.246,6.47-2.2,8.543-2.861s3.265-1.02,3.265-1.02l-3.314.85c-2.106.551-5.112,1.351-8.693,2.415-1.8.506-3.72,1.142-5.768,1.771-2.03.682-4.187,1.362-6.382,2.164-2.209.771-4.472,1.622-6.762,2.52s-4.6,1.851-6.888,2.855q-1.716.765-3.425,1.526l-3.357,1.608c-2.226,1.059-4.367,2.211-6.446,3.309-2.05,1.154-4.057,2.233-5.888,3.381-1.863,1.1-3.585,2.2-5.153,3.255-1.592,1.011-3.006,2.042-4.266,2.945-1.278.894-2.351,1.7-3.19,2.37l-2.291,1.78q-2.025-1.887-4.178-3.944a173.425,173.425,0,0,1,17.617-13.618,166.25,166.25,0,0,1,21.029-11.73,159.762,159.762,0,0,1,22.56-8.508,169.808,169.808,0,0,1,23.567-5.271,183.872,183.872,0,0,1,48.248-.867,159.517,159.517,0,0,1,46.433,12.342,117.29,117.29,0,0,1,10.647,5.418c1.727.974,3.3,2.039,4.97,3.046l2.531,1.77,1.266.89.534.378.577.46a131.366,131.366,0,0,1,17.32,16.52c10.779,12.086,20.351,25.423,29.42,39.06,9.068,13.654,17.533,27.749,25.682,42.023q12.163,21.444,23.245,43.494c1.836,3.669,3.649,7.365,5.373,11.038l1.24,2.736.072.164.006.012C-3164.764,722.452-3164.792,722.4-3164.8,722.382Z"/><path class="a" d="M-3252.206,667.724l-.342-.452a5.763,5.763,0,0,0-1.017-.973,6.682,6.682,0,0,0-4.606-1.294,9.747,9.747,0,0,0-3.647.987,14.737,14.737,0,0,0-2.389,1.471,14.358,14.358,0,0,0-1.364,1.146l-.431.414-.017.016-.43.453a12.587,12.587,0,0,0-1.121,1.362,15.548,15.548,0,0,0-1.389,2.366,10.566,10.566,0,0,0-.964,3.468,6.959,6.959,0,0,0,.893,4.3,5.924,5.924,0,0,0,4.031,2.745,9.289,9.289,0,0,0,5.049-.616,14.4,14.4,0,0,0,4.335-2.753,16.2,16.2,0,0,0,3.269-4.1,10.013,10.013,0,0,0,1.279-5.18,7.128,7.128,0,0,0-.741-2.694Zm-1.757,7.823a10.527,10.527,0,0,1-2.432,3.941,13.182,13.182,0,0,1-1.866,1.509,9.132,9.132,0,0,1-2.092,1.061,7.756,7.756,0,0,1-4.377.379,4.791,4.791,0,0,1-3.142-2.211,6,6,0,0,1-.763-3.44,9.705,9.705,0,0,1,2.027-5.223,11.263,11.263,0,0,1,1.054-1.216l.392-.394c.009-.009.162-.134.454-.375a9.114,9.114,0,0,1,1.307-.912,9.141,9.141,0,0,1,5.232-1.289,5.479,5.479,0,0,1,2.923,1.086,4.9,4.9,0,0,1,.543.529l.339.418a3.261,3.261,0,0,0,.174.3,5.764,5.764,0,0,1,.6,1.669A8.206,8.206,0,0,1-3253.963,675.547Z"/><path class="a" d="M-3249.814,665.683c-.149-.207-.3-.383-.452-.575a7.466,7.466,0,0,0-1.126-1.095,8.625,8.625,0,0,0-5.33-1.742,12.022,12.022,0,0,0-4.594.892,15.856,15.856,0,0,0-3.161,1.675,15.812,15.812,0,0,0-1.813,1.413c-.38.342-.581.525-.581.525l-.017.016s-.191.207-.549.6a15.885,15.885,0,0,0-1.422,1.786,14.724,14.724,0,0,0-1.678,3.113,13.213,13.213,0,0,0-.961,4.45,9.157,9.157,0,0,0,1.252,5.143,7.466,7.466,0,0,0,4.754,3.341,11.585,11.585,0,0,0,6.343-.4,16.282,16.282,0,0,0,5.7-3.4,17.488,17.488,0,0,0,3.922-5.46,12.377,12.377,0,0,0,1.115-6.47,9.027,9.027,0,0,0-.967-3.1Zm-.888,9.766a16.337,16.337,0,0,1-3.529,5.1,16.755,16.755,0,0,1-5.186,3.56,10.671,10.671,0,0,1-6.016.84,6.721,6.721,0,0,1-4.639-3.181,7.919,7.919,0,0,1-.964-4.995,11.973,11.973,0,0,1,1.264-4.142,17.6,17.6,0,0,1,1.786-2.811,14.855,14.855,0,0,1,1.423-1.595c.332-.323.512-.5.532-.519s.218-.192.58-.509a14.427,14.427,0,0,1,1.692-1.283,14.5,14.5,0,0,1,2.921-1.5,11.756,11.756,0,0,1,4.11-.79,7.292,7.292,0,0,1,4.529,1.424,6,6,0,0,1,.916.875c.145.186.309.377.442.565l.319.545a7.726,7.726,0,0,1,.807,2.617A11.655,11.655,0,0,1-3250.7,675.449Z"/><path class="a" d="M-3242.708,771.5a132.484,132.484,0,0,0-6.915-12.2c-1.309-2.086-2.819-4.163-4.248-6.28-1.471-2.121-2.982-4.294-4.362-6.563a80.832,80.832,0,0,1-7.427-14.823,49.484,49.484,0,0,1-2.225-8.369,66.972,66.972,0,0,1-.741-8.964,36.286,36.286,0,0,0-.432-4.825,22.876,22.876,0,0,0-1.668-4.711,87.9,87.9,0,0,0-4.649-8.587c-3.376-5.609-7.192-11.075-11.2-16.535-4.024-5.447-8.276-10.866-12.832-16.16-4.552-5.312-9.533-10.349-14.668-15.267-5.155-4.9-10.523-9.675-16.175-14.173a108.307,108.307,0,0,0-18.192-12.082c-3.347-1.566-6.853-3.062-10.9-3.24-3.718-.063-7.3.173-10.894.382q-10.72.754-21.328,1.5c-7.047.462-14.042.855-20.928.92-3.441.029-6.857-.037-10.2-.32a37.566,37.566,0,0,1-4.877-.694c-.4-.069-.765-.194-1.145-.292l-.283-.076c-.078-.025-.05-.009-.109-.031l-.15-.053-.6-.208c-.795-.281-1.615-.545-2.347-.863a96.968,96.968,0,0,1-17.11-9.364c-5.365-3.554-10.408-7.369-15.23-11.193-9.629-7.678-18.33-15.464-26.262-22.749-15.8-14.648-28.631-27.246-37.562-36.107l-14.033-13.931,3.54,3.767L-3528.8,540c4.357,4.54,9.663,10.038,15.811,16.291s13.136,13.255,20.967,20.69,16.445,15.366,26.027,23.247c4.8,3.927,9.832,7.857,15.23,11.553a93.265,93.265,0,0,0,17.592,9.793c.817.353,1.6.61,2.4.9l.6.212.15.053.195.059.33.092c.438.118.882.266,1.318.345a40.232,40.232,0,0,0,5.24.776c3.483.312,6.969.4,10.465.383,6.989-.031,14.024-.392,21.1-.82l21.324-1.388c3.555-.192,7.144-.4,10.61-.326,3.177.134,6.48,1.472,9.59,2.969a107.264,107.264,0,0,1,17.679,11.647c5.58,4.394,10.913,9.084,16.036,13.909,5.111,4.846,10.042,9.782,14.547,14.987,4.522,5.2,8.766,10.549,12.778,15.925s7.766,10.81,11.187,16.256a85.739,85.739,0,0,1,4.639,8.256,20.471,20.471,0,0,1,1.559,4.151,34.745,34.745,0,0,1,.458,4.455,69.325,69.325,0,0,0,.911,9.223,51.782,51.782,0,0,0,2.456,8.706,82.757,82.757,0,0,0,7.845,15.086c1.461,2.317,3,4.455,4.5,6.553,1.5,2.134,2.97,4.127,4.337,6.162a132.04,132.04,0,0,1,7.143,11.9,108.155,108.155,0,0,1,8.408,20.931,98.907,98.907,0,0,1,2.914,14.269c.4,3.342.5,5.14.5,5.14s-.038-1.8-.33-5.16a92.219,92.219,0,0,0-2.482-14.41A108.971,108.971,0,0,0-3242.708,771.5Z"/><path class="a" d="M-3260.2,640.839a1.823,1.823,0,0,0,.11-2.575,1.822,1.822,0,0,0-2.576-.11,1.822,1.822,0,0,0-.11,2.576A1.824,1.824,0,0,0-3260.2,640.839Z"/><path class="a" d="M-3265.048,634.688a1.3,1.3,0,0,0,.078-1.841,1.3,1.3,0,0,0-1.841-.079,1.3,1.3,0,0,0-.078,1.84A1.3,1.3,0,0,0-3265.048,634.688Z"/><path class="a" d="M-3269.449,629.8a.911.911,0,0,0,.055-1.288.913.913,0,0,0-1.288-.055.913.913,0,0,0-.055,1.288A.911.911,0,0,0-3269.449,629.8Z"/><path class="a" d="M-3428.8,662.912a111.213,111.213,0,0,0-16.147,7.989,89.354,89.354,0,0,0-18.324,14.678,82.813,82.813,0,0,0-15.594,23.113,90.92,90.92,0,0,0-7.776,30.163,84.333,84.333,0,0,0,.107,16.581l.085.612.1.512.2,1.023.4,2.051q.447,2.045.9,4.1c.657,2.726,1.361,5.456,2.168,8.169a142.488,142.488,0,0,0,13.552,31.449,147.762,147.762,0,0,0,20.672,27.255,159.859,159.859,0,0,0,25.236,21.372,172.13,172.13,0,0,0,26.9,15.158,118.368,118.368,0,0,0,13.389,5.142l12.831,3.453a184.469,184.469,0,0,1,21.824,7.609,130.947,130.947,0,0,1,15.844,8.173c4.245,2.555,7.456,4.772,9.636,6.289,2.164,1.548,3.318,2.371,3.318,2.371s-1.12-.87-3.218-2.505c-2.121-1.606-5.238-3.961-9.4-6.694a132.01,132.01,0,0,0-15.7-8.716,186.089,186.089,0,0,0-21.764-8.342c-2.042-.619-4.119-1.287-6.26-1.876-2.124-.612-4.362-1.175-6.465-1.848a116.361,116.361,0,0,1-13.018-5.284A169.472,169.472,0,0,1-3421.49,849.5a167.77,167.77,0,0,1-24.422-21.31,144.488,144.488,0,0,1-19.908-26.766,138.675,138.675,0,0,1-13.084-30.631c-.777-2.642-1.452-5.3-2.084-7.958q-.43-2-.859-3.992l-.381-2-.189-1-.095-.5-.052-.405a83.556,83.556,0,0,1-.16-15.762,92.4,92.4,0,0,1,2.47-15.127,86.58,86.58,0,0,1,4.659-13.911,83.745,83.745,0,0,1,14.461-22.592,91.217,91.217,0,0,1,17.284-14.941,111.211,111.211,0,0,1,15.465-8.747c4.484-2.086,8.132-3.458,10.607-4.432l3.837-1.38-3.935,1.089C-3420.426,659.9-3424.168,661.052-3428.8,662.912Z"/><path class="a" d="M-3478.733,751.419c-.15-1.209-.231-1.855-.231-1.855s.019.65.055,1.868c.066,1.217.135,3.014.432,5.277a80.909,80.909,0,0,0,1.414,8.122,77.7,77.7,0,0,0,3.04,10.289,69.746,69.746,0,0,0,13.939,23.041,59.337,59.337,0,0,0,11.838,9.813,59.9,59.9,0,0,0,14.523,6.466c1.268.426,2.579.682,3.867,1.024l3.761.892q1.818.508,3.626,1.011c1.2.394,2.411.751,3.594,1.172a121.41,121.41,0,0,1,13.6,5.775,163.871,163.871,0,0,1,22.46,13.783c6.248,4.579,11.278,8.674,14.659,11.7,3.4,3.008,5.26,4.828,5.26,4.828s-1.616-2.045-4.775-5.333a155.409,155.409,0,0,0-13.888-12.828,136.449,136.449,0,0,0-22.294-14.916,102.507,102.507,0,0,0-13.911-6.185c-1.221-.446-2.473-.827-3.713-1.246l-3.824-1.1-3.8-.923c-1.222-.317-2.469-.547-3.669-.944a56.561,56.561,0,0,1-13.756-6,56.439,56.439,0,0,1-11.414-9.049,65.778,65.778,0,0,1-8.514-10.761,81.357,81.357,0,0,1-5.808-10.94,86.606,86.606,0,0,1-5.589-17.8C-3478.278,754.383-3478.567,752.625-3478.733,751.419Z"/><path class="a" d="M-3302.32,916.167c.348.332.72.66,1.077,1.025q.513.571,1.053,1.175l2.264,2.532,2.489,2.714A37.037,37.037,0,0,1-3293,926.7a63.4,63.4,0,0,1,4.881,6.922l2.322,3.815c.814,1.271,1.351,2.711,2.05,4.076q.5,1.038,1,2.084a13.618,13.618,0,0,1,.9,2.134q.771,2.193,1.547,4.4l.391,1.1.268,1.133.528,2.263a29.373,29.373,0,0,1,.862,4.524c.162,1.517.389,3.017.531,4.5q.044,2.244.086,4.428a13.452,13.452,0,0,1-.076,2.158q-.078,1.07-.153,2.117t-.149,2.074c-.116.675-.23,1.343-.342,2-.267,1.308-.345,2.622-.7,3.831q-.464,1.835-.9,3.538a61.917,61.917,0,0,1-2.142,6.031c-.372.877-.684,1.726-1.042,2.47-.376.737-.72,1.414-1.031,2.024-.591,1.248-1.241,2.142-1.593,2.8l-.584.982.72-.886a22.871,22.871,0,0,0,1.932-2.583q.574-.881,1.272-1.945c.447-.719.851-1.533,1.328-2.388a22.232,22.232,0,0,0,1.355-2.8c.419-1.014.9-2.066,1.329-3.194a55.611,55.611,0,0,0,2.052-7.519l.423-2.066c.077-.707.153-1.423.232-2.147a35.82,35.82,0,0,0,.342-4.446c-.014-1.516-.026-3.059-.04-4.619-.121-1.553-.347-3.118-.539-4.7a31.047,31.047,0,0,0-.932-4.707l-.566-2.35-.288-1.175-.412-1.136q-.835-2.273-1.665-4.536a14.818,14.818,0,0,0-.98-2.189q-.538-1.066-1.074-2.129c-.749-1.392-1.34-2.862-2.2-4.149s-1.694-2.569-2.522-3.826a65.023,65.023,0,0,0-5.265-6.848,37.688,37.688,0,0,0-2.6-3.026q-1.365-1.37-2.635-2.64l-2.452-2.394q-.582-.569-1.136-1.109c-.384-.342-.782-.646-1.154-.957-1.5-1.225-2.807-2.294-3.883-3.174l-3.406-2.72,3.151,3.014Z"/><path class="a" d="M-3225.138,750.9a9.283,9.283,0,0,0,5.05-.618,14.423,14.423,0,0,0,4.336-2.752,16.213,16.213,0,0,0,3.268-4.1,10,10,0,0,0,1.28-5.179,7.1,7.1,0,0,0-.742-2.694l-.4-.666-.343-.452a5.767,5.767,0,0,0-1.016-.973,6.687,6.687,0,0,0-4.607-1.294,9.752,9.752,0,0,0-3.647.987,14.665,14.665,0,0,0-2.389,1.471,14.274,14.274,0,0,0-1.363,1.147l-.431.413-.018.016-.43.453a12.573,12.573,0,0,0-1.12,1.362,15.486,15.486,0,0,0-1.391,2.367,10.6,10.6,0,0,0-.964,3.468,6.952,6.952,0,0,0,.9,4.3A5.929,5.929,0,0,0-3225.138,750.9Zm-3.636-6.949a9.7,9.7,0,0,1,2.029-5.223,11.412,11.412,0,0,1,1.053-1.216c.249-.252.38-.383.392-.4s.163-.133.455-.374a9.184,9.184,0,0,1,1.306-.912,9.152,9.152,0,0,1,5.232-1.289,5.458,5.458,0,0,1,2.923,1.087,4.651,4.651,0,0,1,.543.528l.338.418c.053.1.112.2.175.3a5.776,5.776,0,0,1,.6,1.669,8.205,8.205,0,0,1-.371,4.173,10.509,10.509,0,0,1-2.431,3.941,13.213,13.213,0,0,1-1.866,1.509,9.169,9.169,0,0,1-2.093,1.062,7.747,7.747,0,0,1-4.375.377,4.781,4.781,0,0,1-3.142-2.211A6,6,0,0,1-3228.774,743.955Z"/><path class="a" d="M-3225.63,752.392a11.571,11.571,0,0,0,6.344-.4,16.255,16.255,0,0,0,5.714-3.411,17.536,17.536,0,0,0,3.906-5.447,12.387,12.387,0,0,0,1.115-6.47,9.016,9.016,0,0,0-.968-3.094l-.433-.714c-.149-.208-.3-.384-.451-.575a7.375,7.375,0,0,0-1.127-1.1,8.617,8.617,0,0,0-5.329-1.743,12.068,12.068,0,0,0-4.6.892,15.811,15.811,0,0,0-3.161,1.676,15.665,15.665,0,0,0-1.812,1.413l-.582.524-.017.016-.549.6a16.075,16.075,0,0,0-1.423,1.789,14.747,14.747,0,0,0-1.677,3.113,13.2,13.2,0,0,0-.96,4.448,9.149,9.149,0,0,0,1.252,5.144A7.461,7.461,0,0,0-3225.63,752.392Zm-5.544-8.452a12.007,12.007,0,0,1,1.263-4.142,17.767,17.767,0,0,1,1.788-2.81,14.788,14.788,0,0,1,1.423-1.6l.534-.52c.024-.022.219-.192.577-.509a15,15,0,0,1,1.692-1.282,14.607,14.607,0,0,1,2.921-1.5,11.764,11.764,0,0,1,4.111-.791,7.312,7.312,0,0,1,4.529,1.424,6.089,6.089,0,0,1,.915.875c.146.188.309.379.442.566l.319.545a7.733,7.733,0,0,1,.808,2.616,11.673,11.673,0,0,1-.987,5.8,16.28,16.28,0,0,1-3.545,5.112,16.747,16.747,0,0,1-5.17,3.546,10.665,10.665,0,0,1-6.017.841,6.72,6.72,0,0,1-4.639-3.181A7.938,7.938,0,0,1-3231.174,743.94Z"/><path class="a" d="M-3318.246,628.851a9.264,9.264,0,0,0,5.05-.616,14.418,14.418,0,0,0,4.335-2.754,16.152,16.152,0,0,0,3.269-4.1,10,10,0,0,0,1.279-5.18,7.071,7.071,0,0,0-.742-2.693l-.4-.666-.342-.451a5.771,5.771,0,0,0-1.016-.975,6.689,6.689,0,0,0-4.607-1.292,9.717,9.717,0,0,0-3.647.987,14.589,14.589,0,0,0-2.389,1.47,14.727,14.727,0,0,0-1.364,1.146l-.431.413-.017.017-.43.453a12.692,12.692,0,0,0-1.12,1.362,15.534,15.534,0,0,0-1.391,2.367,10.584,10.584,0,0,0-.963,3.467,6.939,6.939,0,0,0,.894,4.3A5.919,5.919,0,0,0-3318.246,628.851Zm-3.635-6.947a9.693,9.693,0,0,1,2.028-5.223,11.194,11.194,0,0,1,1.053-1.216l.392-.4c.01-.009.162-.135.455-.374a9.039,9.039,0,0,1,1.306-.914,9.168,9.168,0,0,1,5.232-1.289,5.486,5.486,0,0,1,2.923,1.087,4.825,4.825,0,0,1,.542.528l.339.418c.053.1.111.2.174.3a5.719,5.719,0,0,1,.6,1.668,8.211,8.211,0,0,1-.37,4.174,10.53,10.53,0,0,1-2.431,3.941,13.17,13.17,0,0,1-1.867,1.507,9,9,0,0,1-2.092,1.062,7.739,7.739,0,0,1-4.375.379,4.787,4.787,0,0,1-3.142-2.212A5.984,5.984,0,0,1-3321.881,621.9Z"/><path class="a" d="M-3318.738,630.34a11.576,11.576,0,0,0,6.343-.4,16.262,16.262,0,0,0,5.714-3.411,17.5,17.5,0,0,0,3.906-5.447,12.4,12.4,0,0,0,1.116-6.47,9.034,9.034,0,0,0-.968-3.1l-.433-.713c-.149-.208-.3-.383-.452-.576a7.489,7.489,0,0,0-1.126-1.095,8.625,8.625,0,0,0-5.33-1.741,12.066,12.066,0,0,0-4.594.89,15.949,15.949,0,0,0-3.161,1.676,15.9,15.9,0,0,0-1.813,1.413l-.581.525-.017.015s-.191.209-.549.6a16.143,16.143,0,0,0-1.423,1.788,14.735,14.735,0,0,0-1.677,3.113,13.23,13.23,0,0,0-.962,4.448,9.17,9.17,0,0,0,1.253,5.144A7.461,7.461,0,0,0-3318.738,630.34Zm-5.545-8.451a12.008,12.008,0,0,1,1.264-4.142,17.551,17.551,0,0,1,1.788-2.811,14.817,14.817,0,0,1,1.423-1.6c.33-.323.51-.5.531-.518l.58-.51a14.3,14.3,0,0,1,1.691-1.282,14.649,14.649,0,0,1,2.922-1.5,11.755,11.755,0,0,1,4.109-.79,7.308,7.308,0,0,1,4.531,1.423,6.03,6.03,0,0,1,.915.876c.146.187.309.378.442.565l.319.546a7.7,7.7,0,0,1,.807,2.616,11.675,11.675,0,0,1-.986,5.8,16.34,16.34,0,0,1-3.545,5.113,16.763,16.763,0,0,1-5.17,3.545,10.667,10.667,0,0,1-6.017.841,6.722,6.722,0,0,1-4.639-3.181A7.934,7.934,0,0,1-3324.283,621.889Z"/><path class="a" d="M-3351.5,1008.722c-2.58-.721-5.393-1.456-8.407-2.111-3.021-.711-6.251-1.114-9.565-1.578-1.661-.214-3.347-.449-5.061-.644l-5.2-.548c-3.493-.411-7.065-.613-10.624-.924-3.57-.188-7.135-.442-10.656-.51-3.516-.144-6.983-.074-10.333-.042l-4.933.144q-2.416.129-4.72.251c-3.064.218-5.959.434-8.62.752-5.325.6-9.728,1.317-12.812,1.764-1.542.223-2.75.414-3.585.486l-1.274.133,1.28-.057c.834-.023,2.058-.142,3.614-.274,3.106-.305,7.532-.825,12.856-1.193,2.663-.173,5.546-.36,8.6-.477l4.7-.125q2.4,0,4.908-.011c3.331.042,6.773.12,10.266.282,3.5.1,7.041.383,10.588.6,3.538.342,7.085.574,10.558,1.013l5.166.592,5.031.681,4.858.629c1.6.239,3.1.5,4.606.782,2.987.566,5.8,1.213,8.408,1.788,5.2,1.2,9.554,2.18,12.615,2.8,1.527.322,2.73.566,3.556.707l1.263.228-4.688-1.444C-3342.09,1011.505-3346.335,1010.147-3351.5,1008.722Z"/><path class="a" d="M-3339.206,1009.012c-1.453-.6-3.23-1.288-5.28-2.056s-4.385-1.569-6.94-2.422c-5.121-1.675-11.15-3.463-17.709-5.04-3.269-.755-6.719-1.548-10.234-2.012s-7.069-.95-10.653-1.274c-1.787-.2-3.577-.36-5.366-.472s-3.563-.3-5.334-.344c-1.771-.065-3.525-.168-5.26-.2s-3.451-.034-5.138-.021q-2.529.08-4.967.153l-4.748.291c-3.082.254-5.988.555-8.66.921-5.337.769-9.726,1.693-12.81,2.232-1.542.274-2.75.486-3.588.57l-1.281.145,1.286-.059c.838-.032,2.072-.153,3.63-.339,3.116-.388,7.543-1.085,12.878-1.593,2.665-.282,5.557-.493,8.62-.652q2.3-.074,4.716-.147h4.925q2.508.063,5.091.132c1.72.051,3.459.17,5.212.253,1.755.064,3.516.264,5.288.394s3.548.309,5.321.523c3.551.356,7.085.876,10.563,1.37,3.479.47,6.816,1.185,10.094,1.922s6.412,1.487,9.383,2.263c2.976.752,5.785,1.5,8.366,2.225,2.589.7,4.946,1.4,7.038,2.011s3.914,1.163,5.4,1.646l4.687,1.525-1.179-.523C-3336.616,1010.087-3337.747,1009.591-3339.206,1009.012Z"/><path class="a" d="M-3448.94,1003.342c1.245-.2,2.384-.5,3.36-.734s1.774-.512,2.333-.688.871-.3.871-.3-.336.029-.916.1c-.577.1-1.413.168-2.4.318s-2.147.255-3.38.411-2.551.284-3.87.407-2.639.22-3.877.276-2.4.128-3.393.113-1.828,0-2.4-.059a9.048,9.048,0,0,1-.915-.092s.079.029.227.08a5.234,5.234,0,0,0,.654.2,17.85,17.85,0,0,0,2.406.422c.5.058,1.047.1,1.625.139.576.025,1.187.08,1.818.071,1.261.021,2.6-.053,3.945-.154C-3451.514,1003.725-3450.178,1003.573-3448.94,1003.342Z"/><path class="a" d="M-3446.722,1007.763l-5.322.552c-1.933.167-3.869.306-5.327.34-.729.022-1.344.039-1.766.009-.427-.01-.677-.042-.677-.042a3.767,3.767,0,0,0,.644.228,13.327,13.327,0,0,0,1.768.365,25.267,25.267,0,0,0,5.445.095,29.111,29.111,0,0,0,5.348-.963,17.521,17.521,0,0,0,2.338-.812l-.68.049Z"/><path class="a" d="M-3448.836,997.54c1.244-.2,2.383-.5,3.36-.733s1.773-.512,2.332-.689.871-.3.871-.3-.336.028-.916.105c-.576.1-1.412.167-2.4.317s-2.146.256-3.379.412-2.552.283-3.87.407c-1.319.109-2.639.219-3.877.276s-2.4.128-3.393.113-1.828,0-2.4-.06a9.132,9.132,0,0,1-.915-.09l.228.079a5.238,5.238,0,0,0,.653.2,18.137,18.137,0,0,0,2.407.424c.5.058,1.047.1,1.624.137.577.025,1.188.081,1.818.071,1.262.021,2.6-.052,3.945-.153C-3451.411,997.923-3450.075,997.771-3448.836,997.54Z"/></g></svg>