<svg xmlns="http://www.w3.org/2000/svg" width="74" height="71" viewBox="0 0 74 70.999"><path d="M61.026-.001H12.974A12.99 12.99 0 0 0 0 12.973v29.64a12.99 12.99 0 0 0 12.974 12.974H43.58l14.652 14.65c.742.742 1.858.965 2.827.563s1.602-1.348 1.602-2.397v-12.92c6.477-.83 11.33-6.34 11.34-12.87v-29.64A12.99 12.99 0 0 0 61.026-.001zM68.8 42.612c-.004 4.297-3.487 7.78-7.784 7.785h-.96a2.6 2.6 0 0 0-2.595 2.594v9.147L46.5 51.157c-.487-.487-1.147-.76-1.835-.76h-31.68c-4.298-.004-7.78-3.487-7.785-7.785V12.974c.004-4.298 3.487-7.78 7.785-7.785h48.052c4.297.005 7.78 3.488 7.784 7.785zM56.097 18.374H17.902a2.6 2.6 0 0 0 0 5.19h38.195a2.6 2.6 0 0 0 0-5.19zm0 14.53H17.902c-1.433 0-2.595 1.162-2.595 2.595s1.162 2.595 2.595 2.595h38.195c1.433 0 2.595-1.162 2.595-2.595s-1.162-2.595-2.595-2.595z"/></svg>