<svg xmlns="http://www.w3.org/2000/svg" width="413" height="620" viewBox="0 0 412.298 619.407"><path d="M412.294 144.407h-96.3l-315.993 475h96.306z" fill="#e7e000"/><g fill="#e50051"><path d="M255.057 124.786l-1.537-.216-4.47-.678c-3.918-.56-9.64-1.31-16.948-2.094-7.305-.765-16.185-1.52-26.393-1.925a340.58 340.58 0 0 0-34.3.231 342.94 342.94 0 0 0-19.543 1.618c-6.74.7-13.684 1.652-20.79 2.817a312.35 312.35 0 0 0-44 10.432 203.22 203.22 0 0 0-22.243 8.5c-3.67 1.633-7.246 3.5-10.788 5.45-3.46 2.015-6.97 4.233-10.463 6.45-6.947 4.452-13.99 8.966-20.14 14.335-1.5 1.313-2.916 2.74-4.208 4.267a11.97 11.97 0 0 0-2.608 4.671c-.166.685-.135 1.403.1 2.07.117.336.286.65.5.935a2.67 2.67 0 0 0 .644.6c1.044.73 2.955.822 4.823.568 3.98-.727 7.854-1.946 11.533-3.628 3.81-1.616 7.567-3.442 11.3-5.314 7.48-3.713 14.783-7.832 22.476-11.277a234.86 234.86 0 0 1 46.871-14.478c14.992-3.044 30.2-4.91 45.482-5.578 7.283-.337 14.38-.4 21.234-.154 6.855.216 13.472.634 19.8 1.288a273.91 273.91 0 0 1 34.241 5.528c5.03 1.116 9.734 2.48 13.972 3.8 4.265 1.293 8.136 2.623 11.637 3.8 6.983 2.428 12.407 4.518 16.048 6.088 1.827.767 3.2 1.415 4.123 1.866l1.39.69s-1.984-.726-5.755-1.894-9.328-2.793-16.423-4.767l-11.758-3.226c-4.3-1.146-8.866-2.364-13.9-3.318a280.32 280.32 0 0 0-33.9-5.07c-6.256-.58-12.8-.922-19.565-1.062s-13.775-.08-20.963.27a293.66 293.66 0 0 0-44.869 5.592 231.02 231.02 0 0 0-46.091 14.162c-7.465 3.327-14.76 7.42-22.322 11.166-3.774 1.887-7.59 3.737-11.533 5.4a52.08 52.08 0 0 1-12.53 3.881 15.89 15.89 0 0 1-3.586.1c-1.368-.103-2.688-.543-3.843-1.283-.63-.422-1.183-.95-1.633-1.562a7.19 7.19 0 0 1-.982-1.841c-.468-1.334-.554-2.772-.246-4.152a15.53 15.53 0 0 1 3.371-6.315 42.89 42.89 0 0 1 4.611-4.722c6.5-5.707 13.592-10.263 20.58-14.787l10.608-6.593c3.652-2.03 7.33-3.964 11.083-5.653 7.377-3.358 14.944-6.28 22.662-8.755 14.576-4.65 29.48-8.196 44.588-10.6 13.506-2.235 27.134-3.656 40.81-4.253a344.22 344.22 0 0 1 34.68.106c8.906.492 17.775 1.512 26.56 3.054 3.655.61 6.885 1.344 9.7 1.946l7.084 1.806 4.34 1.262 1.485.45"/><path d="M254.948 156.245l-1.11 1.177-3.176 3.15a104.42 104.42 0 0 0-10.444 11.734 61.71 61.71 0 0 0-5.548 8.758 39.79 39.79 0 0 0-3.762 10.758 31.5 31.5 0 0 0 .046 12.015c.86 4.1 2.424 8.02 4.622 11.584 2.213 3.615 4.835 6.964 7.813 9.98 1.462 1.517 2.99 2.954 4.55 4.322l1.465 1.268c.262.244.21.188.388.37.317.332.582.71.788 1.12a4.69 4.69 0 0 1-.341 4.809c-.236.342-.518.65-.837.916-.3.256-.434.34-.658.518l-1.143.916a53.67 53.67 0 0 0-2.195 1.907c-1.43 1.285-2.708 2.663-3.97 3.99a46.85 46.85 0 0 0-6.189 8.237 39.86 39.86 0 0 0-3.687 7.941 36.43 36.43 0 0 0-1.549 6.634c-.223 1.462-.365 2.935-.428 4.413l-.034 1.58-.2-1.57a33.92 33.92 0 0 1-.194-4.493 37.73 37.73 0 0 1 .9-6.98c.67-3.002 1.685-5.917 3.026-8.685a49.65 49.65 0 0 1 5.9-9.19 48.03 48.03 0 0 1 4.051-4.393c.73-.713 1.492-1.408 2.276-2.094l1.206-1.023c.17-.144.453-.362.535-.446.074-.065.138-.14.19-.226a1.13 1.13 0 0 0 .044-1.1c-.033-.09-.122-.173-.1-.166 0-.01-.25-.238-.175-.176l-.3-.264-1.218-1.062a78 78 0 0 1-4.745-4.541 58.84 58.84 0 0 1-8.277-10.669c-2.395-3.927-4.092-8.238-5.015-12.744a35.07 35.07 0 0 1 0-13.36 43.3 43.3 0 0 1 4.13-11.692 60.02 60.02 0 0 1 5.935-9.234c3.362-4.235 7.04-8.21 11-11.893l3.205-3.058.77-.776.276-.294z"/><path d="M258.194 269.167l1.27.016a14.66 14.66 0 0 1 3.855.8 18.51 18.51 0 0 1 5.2 2.917c2.05 1.6 3.758 3.617 5.018 5.9 1.644 2.84 2.247 6.164 1.705 9.4a10.98 10.98 0 0 1-2.447 4.994c-1.242 1.416-2.76 2.563-4.46 3.372-.407.218-.828.408-1.26.57a14.47 14.47 0 0 1-1.373.51l-3.613 1.067-1.344.267-2.738.5a43.32 43.32 0 0 1-10.955-.023 45.15 45.15 0 0 1-10.555-2.668 51.18 51.18 0 0 1-9.391-4.69c-2.853-1.743-5.446-3.88-7.7-6.35l-.41-.484-.2-.242-.025-.03-.1-.135-.114-.174-.607-.917c-.23-.347-.434-.713-.607-1.093l-.558-1.2a11.87 11.87 0 0 1-.757-4.782 11.33 11.33 0 0 1 3.511-7.407c1.482-1.412 3.237-2.506 5.157-3.215.684-.275 1.39-.488 2.113-.637.522-.138 1.053-.235 1.6-.292l1.33-.156.272 2.368-1.143.255c-.455.092-.902.222-1.336.387-.594.183-1.173.41-1.732.682a12.02 12.02 0 0 0-3.918 2.852c-1.328 1.463-2.104 3.343-2.194 5.317a8.18 8.18 0 0 0 .663 3.184c.1.254.257.47.376.714a3.95 3.95 0 0 0 .47.781l.77 1.057-.058-.078.02.02.498.528a36.3 36.3 0 0 0 6.979 5.354 53.92 53.92 0 0 0 8.67 4.159 44.27 44.27 0 0 0 9.569 2.388 38.9 38.9 0 0 0 9.784.1l2.31-.373 1.158-.19 3.637-.992c.2-.036.646-.234.955-.34a7.05 7.05 0 0 0 .991-.422 8.18 8.18 0 0 0 4.955-5.379 10.42 10.42 0 0 0-1.053-6.91 17.74 17.74 0 0 0-3.885-5.134 15.59 15.59 0 0 0-4.181-2.73 13.99 13.99 0 0 0-2.994-.9l-1.23-.125z"/><path d="M303.333 247.307l-.63-.6-1.748-1.7-1.273-1.087c-.505-.4-1.03-.8-1.577-1.143a17.46 17.46 0 0 0-3.99-2.074 14.04 14.04 0 0 0-5.015-.778c-1.908.053-3.795.42-5.585 1.082a29.05 29.05 0 0 0-5.647 2.849c-1.86 1.255-3.607 2.668-5.224 4.222a47.4 47.4 0 0 0-4.624 5.01 61.3 61.3 0 0 0-3.88 5.411 60.08 60.08 0 0 0-3.057 5.458 53.6 53.6 0 0 0-2.215 5.172q-.416 1.245-.8 2.38-.308 1.16-.582 2.193a30.98 30.98 0 0 0-.666 3.646 20.37 20.37 0 0 0-.235 2.4l-.053.86-.12-.85c-.133-.804-.218-1.616-.252-2.43a33.51 33.51 0 0 1 .05-3.822q.132-1.1.28-2.343l.48-2.577c.45-1.92 1.017-3.808 1.7-5.656.76-2.07 1.664-4.084 2.7-6.025l1.724-3.047 2.022-2.972c1.44-1.994 3.024-3.88 4.738-5.644 1.77-1.754 3.686-3.352 5.73-4.776 2.038-1.4 4.253-2.525 6.588-3.342a18.36 18.36 0 0 1 7.035-.937 15.15 15.15 0 0 1 6.134 1.775c.825.435 1.6.956 2.317 1.554.65.505 1.257 1.065 1.812 1.673a19.81 19.81 0 0 1 2.369 3.148 19.04 19.04 0 0 1 1.12 2.183l.36.793m-72.112 42.982l.152.726.443 2.02a69.15 69.15 0 0 0 1.992 6.989l1.743 4.5a52.97 52.97 0 0 0 2.4 4.786 39.83 39.83 0 0 0 3.129 4.726c.552.8 1.23 1.476 1.843 2.226l2.04 2.057 2.2 1.858 1.28.974c.034.023-.238-.154-.114-.073l.02.012.042.025.082.05c.05.005-.262-.13-.247-.112a.7.7 0 0 0-.338 0c-.2.053-.364.197-.443.388a1.01 1.01 0 0 0-.043.152s-.006.1 0 .016l.012-.187.05-.748q.123-1.523.244-3c.32-3.6.84-7.18 1.56-10.724a47.13 47.13 0 0 1 2.155-7.552c.37-.906.672-1.616.927-2.1l.367-.738 3.025 1.635-.308.628c-.216.4-.48 1.022-.806 1.823a43.84 43.84 0 0 0-1.987 7 93.2 93.2 0 0 0-1.5 10.339q-.114 1.43-.234 2.907l-.05.747a3.31 3.31 0 0 1-.222 1.114 2.78 2.78 0 0 1-3.937 1.377l-.234-.144-.16-.12-1.273-.964c-.875-.615-1.627-1.382-2.44-2.078-.773-.737-1.508-1.514-2.23-2.293-.666-.825-1.4-1.594-1.995-2.456a42.85 42.85 0 0 1-3.336-5.142c-.924-1.665-1.762-3.376-2.512-5.126-.693-1.674-1.295-3.276-1.793-4.772-.802-2.4-1.476-4.86-2.02-7.342l-.58-2.8z"/><path d="M376.382 99.933l.642-.236a18.39 18.39 0 0 0 1.714-.687 24.93 24.93 0 0 0 2.424-1.243 25.81 25.81 0 0 0 2.936-2.067 28.62 28.62 0 0 0 3.111-2.968c1.098-1.206 2.12-2.478 3.06-3.8a84.19 84.19 0 0 0 5.623-9.314l1.04-1.935-.06.122.01-.02.018-.04.046-.1c-.033.063-.056.13-.067.2-.01.03-.015.06-.017.092-.022.198.046.396.185.538a.69.69 0 0 0 .49.191l-2.693.26-2.7.315a97.2 97.2 0 0 1-9.952.776 34.42 34.42 0 0 1-7.357-.608 15.45 15.45 0 0 1-2.115-.576l-.75-.25 1.25-3.2.6.2a12.34 12.34 0 0 0 1.729.468 31 31 0 0 0 6.6.53 94.06 94.06 0 0 0 9.6-.759l5.514-.6a2.8 2.8 0 0 1 3.035 3.053 2.68 2.68 0 0 1-.157.682l-.08.192-.073.156-.042.08-.34.633-.68 1.267c-1.773 3.34-3.764 6.558-5.96 9.636a42.49 42.49 0 0 1-3.352 4.083 31.84 31.84 0 0 1-3.5 3.26 29.13 29.13 0 0 1-3.352 2.3 27.45 27.45 0 0 1-2.834 1.409c-.83.384-1.425.556-1.85.717l-.644.23zm-74.922 144.51c.014-.01-.16.272-.343.708a4.2 4.2 0 0 1-.041.543 6.08 6.08 0 0 0 0 1.056 6.44 6.44 0 0 0 .843 2.764 5.37 5.37 0 0 0 2.518 2.388 8.36 8.36 0 0 0 4.3.569 6.96 6.96 0 0 0 1.273-.217l1.316-.27 2.716-.93 2.7-1.212 2.9-1.568 2.575-1.7 2.5-1.962a31.85 31.85 0 0 0 4.35-4.552 25.27 25.27 0 0 0 3.177-5.12 19.22 19.22 0 0 0 1.583-5.234 9.4 9.4 0 0 0-.454-4.429q-.213-.422-.416-.827l-.536-.663-.063-.085c.07.043-.043-.043-.056-.058l-.635-.555c-.287-.26-.495-.384-.735-.58a7.36 7.36 0 0 0-2.64-1.322 3.09 3.09 0 0 0-1.98.076l-1.56-1.8a3.93 3.93 0 0 1 1.068-.645 5.69 5.69 0 0 1 2.928-.35 10.19 10.19 0 0 1 3.894 1.464l1 .655.453.326.23.167a1.37 1.37 0 0 1 .163.128l.133.128 1.075 1.094a15.23 15.23 0 0 1 .826 1.333 12.68 12.68 0 0 1 1.143 6.3 23.15 23.15 0 0 1-1.614 6.545 29.45 29.45 0 0 1-3.527 6.1l-1.093 1.427-1.213 1.337a34.21 34.21 0 0 1-2.594 2.516c-.9.814-1.88 1.5-2.817 2.247-.982.707-2.054 1.326-3.07 1.977l-2.953 1.552c-1.163.578-2.164.915-3.234 1.357-1.053.408-2.187.655-3.242.972a22.77 22.77 0 0 1-3.321.452 11.66 11.66 0 0 1-6.341-1.378c-1.686-.953-2.992-2.457-3.7-4.26a9.47 9.47 0 0 1-.729-4.145 7.33 7.33 0 0 1 .217-1.577c.127-.458.297-.904.508-1.33.1-.18.232-.355.362-.522l.123-.168z"/><path d="M300.68 174.52l-.213.3-.647.86a31.06 31.06 0 0 1-2.778 3.095 59.94 59.94 0 0 1-11.768 8.492l-8.232 4.724a32.98 32.98 0 0 0-8.007 6.065 8.45 8.45 0 0 0-2.074 4.158 9.07 9.07 0 0 0 .65 4.744 21.7 21.7 0 0 0 2.66 4.69 11.3 11.3 0 0 0 3.755 3.449c3.026 1.665 6.8 2.06 10.438 1.856a47.33 47.33 0 0 0 10.728-2.036 59.65 59.65 0 0 0 4.973-1.737l1.167-.478.466-.2.617-.318a18.53 18.53 0 0 1 2.631-1.042 18.75 18.75 0 0 1 10.182-.421 17.33 17.33 0 0 1 7.564 4.105 18.46 18.46 0 0 1 3.85 5.215 20.1 20.1 0 0 1 1.454 3.826c.23.914.314 1.4.314 1.4s-.316-.4-.835-1.167-1.313-1.858-2.344-3.174c-1.208-1.552-2.574-2.975-4.076-4.245a14.62 14.62 0 0 0-6.556-3.177 16.99 16.99 0 0 0-8.567.654 15.56 15.56 0 0 0-2.112.886l-.533.3c-.337.18-.484.242-.717.352l-1.264.55q-2.54 1.03-5.247 1.858a50.53 50.53 0 0 1-11.5 2.224c-4.007.238-8.4-.123-12.3-2.28a14.85 14.85 0 0 1-4.829-4.435 24.85 24.85 0 0 1-3.049-5.444 12.21 12.21 0 0 1-.8-6.5 11.72 11.72 0 0 1 2.9-5.72 35.71 35.71 0 0 1 8.9-6.6c2.97-1.7 5.8-3.164 8.338-4.587a58.1 58.1 0 0 0 11.434-7.849 28.5 28.5 0 0 0 2.643-2.74c.277-.314.5-.613.644-.795l.223-.283zm-64.816-53.398l-.178-.5-.507-1.52a34.97 34.97 0 0 1-1.3-6.083 37.47 37.47 0 0 1 .068-9.634c.553-4.16 1.763-8.206 3.585-11.986 2.15-4.576 5.365-8.57 9.378-11.644a18.83 18.83 0 0 1 1.777-1.167l1.694-.937a31.47 31.47 0 0 1 3.92-1.627 37.72 37.72 0 0 1 8.341-1.728 40.41 40.41 0 0 1 17.473 2.2c1.442.517 2.84 1.148 4.184 1.886a10.18 10.18 0 0 0 3.612 1.348 16.57 16.57 0 0 0 7.974-1.022 25.88 25.88 0 0 0 7.276-4.11 18.15 18.15 0 0 0 2.893-2.883 7.28 7.28 0 0 0 1.613-3.264 3.16 3.16 0 0 0-.01-.743c-.046-.32-.1-.638-.2-.95a11.3 11.3 0 0 0-.6-1.826c-.46-1.115-1.213-2.083-2.183-2.8-2.18-1.35-4.67-2.12-7.23-2.235a60.37 60.37 0 0 0-7.9-.172 14.29 14.29 0 0 1-4.42-.36 13.56 13.56 0 0 1-4.092-1.794c-2.326-1.568-4.234-3.68-5.558-6.153a21.44 21.44 0 0 1-2.358-7.24 19.53 19.53 0 0 1 2.6-12.907 17.38 17.38 0 0 1 7.585-6.57c1.903-.866 3.934-1.42 6.013-1.638a16.65 16.65 0 0 1 1.615-.108l.553-.008-1.943.9a30.43 30.43 0 0 0-4.987 2.986 18.51 18.51 0 0 0-5.465 6.374 17.32 17.32 0 0 0-1.693 10.384 17.75 17.75 0 0 0 1.837 5.813c.95 1.912 2.34 3.572 4.055 4.845a9.61 9.61 0 0 0 2.849 1.441c1.1.327 2.244.475 3.4.44a63.41 63.41 0 0 1 8.331.661c2.807.492 5.86 1.116 8.5 3.16a9.75 9.75 0 0 1 2.943 3.948 13.82 13.82 0 0 1 .705 2.288c.092.388.163.78.2 1.176a5.75 5.75 0 0 1-.008 1.425 9.83 9.83 0 0 1-2.117 4.518 20.69 20.69 0 0 1-3.29 3.328c-2.404 1.946-5.1 3.498-8 4.6-2.948 1.226-6.154 1.7-9.33 1.38a12.04 12.04 0 0 1-2.453-.587l-.633-.236-.507-.238-1.023-.5a25.84 25.84 0 0 0-3.809-1.6 39.6 39.6 0 0 0-16.093-1.72 34.26 34.26 0 0 0-7.536 1.634 33.43 33.43 0 0 0-3.37 1.362l-1.7.92c-.5.282-.964.6-1.422.922a28.22 28.22 0 0 0-8.416 10.308 36.9 36.9 0 0 0-3.561 10.944 38.15 38.15 0 0 0-.355 8.907 34.4 34.4 0 0 0 .948 5.656c.135.625.324 1.16.412 1.494l.15.52z"/><path d="M308.358 34.807l-.45.884-1.083 2.548c-.5 1.292-.794 2.654-.875 4.037-.184 1.573.63 3.094 2.042 3.812a6.84 6.84 0 0 0 1.234.46l1.454.25 3.4.405c2.508.25 5 .638 7.464 1.164 2.735.548 5.383 1.468 7.87 2.733a19.36 19.36 0 0 1 6.828 5.682 45.95 45.95 0 0 1 3.99 7.533l3.373 7.056a33.92 33.92 0 0 0 3.871 5.956 14.38 14.38 0 0 0 4.744 3.86 11.05 11.05 0 0 0 5.078 1.027 17.2 17.2 0 0 0 4.132-.722 25.27 25.27 0 0 0 2.6-.95l.912-.4-.826.548c-.78.528-1.598 1-2.446 1.4a16.07 16.07 0 0 1-4.246 1.383 11.91 11.91 0 0 1-5.939-.51 15.52 15.52 0 0 1-5.889-3.941 33.52 33.52 0 0 1-4.633-6.173l-3.783-7.1a45.24 45.24 0 0 0-3.744-6.88c-1.526-1.957-3.45-3.568-5.644-4.727a34.33 34.33 0 0 0-7.01-2.675l-7.124-1.562-3.393-.684c-.556-.1-1.175-.325-1.734-.487a8.81 8.81 0 0 1-1.63-.83 5.19 5.19 0 0 1-2.194-2.758 5.97 5.97 0 0 1-.174-3.015 12.58 12.58 0 0 1 1.62-4.216 19.13 19.13 0 0 1 1.586-2.344l.622-.773m-10.503 102.874l.023-.5.012-.273c-.03-.034-.055-.07-.077-.108-.04-.136-.1-.266-.175-.387a11.19 11.19 0 0 0-3.432-3.331c-1.84-1.3-4.26-2.734-7.07-4.366s-6.04-3.444-9.455-5.713a43.58 43.58 0 0 1-5.14-3.963 14.98 14.98 0 0 1-4.312-6.053 8.28 8.28 0 0 1-.245-4.316 9.3 9.3 0 0 1 .758-2.043l.507-.948.615-.836.312-.42.08-.1.04-.053c.046-.053-.05.047.115-.133l.158-.164a9.32 9.32 0 0 1 .689-.682 7.51 7.51 0 0 1 2.072-1.316 8.52 8.52 0 0 1 4.605-.483c2.687.56 5.273 1.532 7.665 2.878l6.913 3.54c4.583 2.183 9.455 3.77 14.155 2.6a7.03 7.03 0 0 0 2.691-1.381c.783-.706 1.388-1.587 1.765-2.572.8-2.367 1.284-4.828 1.445-7.32.15-2.72.693-5.404 1.608-7.97a8.03 8.03 0 0 1 2.56-3.408 8.72 8.72 0 0 1 3.857-1.592l1.856-.257 1.983-.06c.645.06 1.3.1 1.925.178.626.137 1.27.2 1.878.387a20.4 20.4 0 0 1 6.6 3.3c3.845 2.853 6.68 6.275 9.53 8.962 1.307 1.274 2.7 2.445 4.2 3.5 1.273.9 2.686 1.556 4.18 1.974a15.43 15.43 0 0 0 7.5-.307 55.22 55.22 0 0 0 5.048-1.626c1.18-.437 1.866-.63 1.866-.63s-.45.52-1.392 1.415a19.52 19.52 0 0 1-4.689 3.157c-.58.224-1.2.483-1.848.7-.708.215-1.43.382-2.16.5-1.692.238-3.414.152-5.074-.254-3.637-.858-6.9-3.47-9.634-6.474-2.807-3-5.377-6.485-8.76-9.36-1.7-1.487-3.67-2.6-5.813-3.3-.54-.187-1.1-.267-1.672-.4-.57-.083-1.153-.1-1.734-.172l-1.728.034-1.857.244a7.17 7.17 0 0 0-3.043 1.355 6.12 6.12 0 0 0-1.824 2.792 26.32 26.32 0 0 0-.688 7.452 27.08 27.08 0 0 1-.883 8.354 9.76 9.76 0 0 1-2.54 4.08 10.19 10.19 0 0 1-4.331 2.332 19.11 19.11 0 0 1-8.76.087 35.99 35.99 0 0 1-7.873-2.886c-2.443-1.184-4.724-2.518-6.96-3.707a23.77 23.77 0 0 0-6.508-2.647c-.906-.2-1.847-.125-2.72.188a4.58 4.58 0 0 0-1.043.607 7.2 7.2 0 0 0-.618.588l-.16.16c.14-.15.022-.02.046-.043l-.03.038-.058.077-.234.306-.472.6-.346.63a5.92 5.92 0 0 0-.515 1.269 4.96 4.96 0 0 0 .11 2.573 12 12 0 0 0 3.345 4.756c1.47 1.368 3.04 2.625 4.695 3.76 3.228 2.238 6.4 4.094 9.18 5.8s5.237 3.23 7.178 4.7c1.682 1.124 3.085 2.62 4.1 4.37.306.6.455 1.288.432 1.97l-.037.5z"/><path d="M357.894 82.298l-.2-.766a11.11 11.11 0 0 1-.193-2.522 11.9 11.9 0 0 1 .8-3.838 8.44 8.44 0 0 1 3.54-4.2c.96-.54 2-.897 3.1-1.05l.835-.055a3.79 3.79 0 0 1 .768 0c.64.035 1.274.143 1.9.322 2.268.683 4.294 1.997 5.843 3.8a28.8 28.8 0 0 1 6.243 12.187 34.29 34.29 0 0 1 1.054 6.83c.14 2.297-.048 4.602-.557 6.846a13.68 13.68 0 0 1-3.05 6.16c-.384.432-.804.83-1.256 1.2a5.62 5.62 0 0 1-.7.492l-.355.23-.178.112-.088.056-.044.027-.14.075a19.48 19.48 0 0 1-2.544 1.035 10.23 10.23 0 0 1-5.3.353c-1.356-.284-2.624-.892-3.695-1.772a8.78 8.78 0 0 1-1.733-1.875 8.24 8.24 0 0 1-.5-.818l2.05-1.218c-.014-.025.1.128.412.433a7.33 7.33 0 0 0 1.466 1.1 6.07 6.07 0 0 0 2.542.785c1.498.01 2.974-.364 4.285-1.1l1.13-.657c.03-.016-.178.1-.085.044l.023-.02.047-.038.094-.073.2-.147a2.44 2.44 0 0 0 .375-.307c.245-.23.47-.482.672-.752.912-1.288 1.517-2.767 1.768-4.325a27.7 27.7 0 0 0-.722-11.424 26.74 26.74 0 0 0-4.89-10.331 8.8 8.8 0 0 0-3.609-2.772 5.78 5.78 0 0 0-.79-.233c-.164-.075-1.013-.04-1.05-.077-.585.023-1.16.15-1.7.378-.985.474-1.798 1.243-2.326 2.2a8.75 8.75 0 0 0-.955 2.707 12.84 12.84 0 0 0-.183 1.851l.05.767zm-76.71-56.328l-.14-.694a6.28 6.28 0 0 1 0-2.444 6.9 6.9 0 0 1 .537-1.664l.45-.9c.185-.285.4-.555.633-.846.482-.598 1.04-1.13 1.658-1.585a11.85 11.85 0 0 1 2.179-1.168l1.222-.46 1.295-.3a17.12 17.12 0 0 1 2.736-.315l2.844.162 2.873.547a36.31 36.31 0 0 1 5.66 2.028l2.723 1.384 2.607 1.588.65.4.66.456 1.244.937a19.33 19.33 0 0 1 2.357 2.21 16.15 16.15 0 0 1 3.325 5.377 12.97 12.97 0 0 1 .737 6.015c-.205 1.903-.966 3.704-2.188 5.177a7.47 7.47 0 0 1-4.239 2.472 8.36 8.36 0 0 1-3.67-.134 7.61 7.61 0 0 1-1.24-.413c-.297-.1-.587-.24-.865-.4l-.7-.36 1.1-2.113.587.238c.538.218 1.098.376 1.67.47a5.63 5.63 0 0 0 2.477-.074c1-.27 1.86-.862 2.47-1.686a6.53 6.53 0 0 0 1.286-3.536 9.57 9.57 0 0 0-.748-4.406 13.47 13.47 0 0 0-2.7-4.17 15.65 15.65 0 0 0-1.923-1.757c-.357-.292-.73-.565-1.116-.816l-.557-.376-.612-.36-2.442-1.443-2.5-1.24c-.828-.4-1.68-.7-2.507-1.054s-1.678-.528-2.495-.806c-.82-.26-1.642-.357-2.44-.546l-2.336-.215c-.722-.018-1.444.022-2.16.118l-1 .154-.907.288a8.69 8.69 0 0 0-1.593.72 8.36 8.36 0 0 0-1.17.958l-.47.495q-.17.273-.328.527a4.26 4.26 0 0 0-.444 1 3.88 3.88 0 0 0-.181 1.511l.05.707zm28.137 227.55l.48.6c.476.614.9 1.26 1.3 1.93a33.07 33.07 0 0 1 3.265 7.444 35.58 35.58 0 0 1 1.686 11.4l-.015.67c.02.443.008.04.01.133 0-.007.016.02.064.03.158-.047-.242.253.918-.716.85-.687 1.527-1.377 2.27-2.067l2.133-2.255a46.59 46.59 0 0 0 3.81-4.887 48.5 48.5 0 0 0 3.046-5.141l1.18-2.583q.46-1.3.9-2.548.316-1.27.616-2.467.18-1.2.343-2.336.045-1.128.088-2.158c.026-.687-.1-1.325-.132-1.935l-.083-.883-.2-.8q-.18-.772-.33-1.415l-.7-1.9-.26-.68 2.116-1.1.352.743.963 2.128q.213.727.47 1.6l.263.914q.075.486.156 1.007c.128.736.218 1.477.27 2.222q.015 1.182.03 2.48-.144 1.282-.3 2.665l-.6 2.788q-.44 1.392-.9 2.857l-1.2 2.872c-.92 1.955-1.986 3.836-3.193 5.627a50.1 50.1 0 0 1-4.034 5.29l-2.276 2.458-2.44 2.27-.6.52c-.312.3-.665.53-1.05.715a3.73 3.73 0 0 1-5.039-2.01c-.16-.438-.242-.902-.24-1.37l.03-.85a31.24 31.24 0 0 0-.294-5.5 41.62 41.62 0 0 0-.927-4.912c-.6-2.42-1.456-4.775-2.525-7.03a23.26 23.26 0 0 0-.972-1.805l-.407-.66zm-71.192-28.8l-1.577-.505c-.5-.17-1-.232-1.634-.394-.6-.156-1.4-.2-2.214-.34a25.46 25.46 0 0 0-2.687-.08l-1.473.065-1.524.2a13.12 13.12 0 0 0-1.557.324 9.76 9.76 0 0 0-1.568.445l-1.558.573-1.5.724a20.55 20.55 0 0 0-2.806 1.821 14.35 14.35 0 0 0-1.278 1.056l-1.14 1.162c-.68.784-1.32 1.604-1.912 2.457l-1.385 2.463-.972 2.214c-.3.66-.47 1.273-.658 1.764-.163.5-.333.883-.447 1.147l-.173.407.023-.436.106-1.234.266-1.917c.156-.73.4-1.54.65-2.44.293-.88.716-1.8 1.115-2.806.232-.486.527-.957.8-1.458a9.01 9.01 0 0 1 .936-1.476l1.13-1.427c.408-.47.842-.918 1.3-1.34a10.25 10.25 0 0 1 1.434-1.258 16.2 16.2 0 0 1 1.568-1.123l1.7-.93c.565-.3 1.172-.506 1.753-.76a11.99 11.99 0 0 1 1.774-.612 15.9 15.9 0 0 1 1.769-.469l1.74-.33 1.683-.17a29.14 29.14 0 0 1 3.1-.076c.88.05 1.754.15 2.62.3l2.014.432 1.588.466z"/><path d="M211.883 234.63l-.585-.036-.318-.02-.267.082c-.23.045-.457.112-.675.2a4.22 4.22 0 0 0-.905.431l-.493.3-.475.4c-.71.592-1.264 1.347-1.62 2.2a4.58 4.58 0 0 0-.328 1.4c.02.5.133.99.33 1.45l.136.368c.063.12.165.232.243.35q.246.35.5.708a17.2 17.2 0 0 0 1.433 1.29c1.172.835 2.424 1.55 3.738 2.136l2.136.85.475.184.582.172 1.166.35 1.162.36 1.094.22a15.2 15.2 0 0 0 2.181.365 15.89 15.89 0 0 0 4.256-.013l.985-.175a8.39 8.39 0 0 0 .91-.287 6.77 6.77 0 0 0 1.633-.753 4.64 4.64 0 0 0 1.915-2.32c.13-.206.076-.436.133-.646a1.5 1.5 0 0 0 .034-.63l-.046-.612q-.1-.285-.206-.555a4.12 4.12 0 0 0-1.23-1.684 5.43 5.43 0 0 0-1.185-.848l-.454-.282.538-1.38.588.242c1.53.558 2.815 1.635 3.63 3.044.685 1.216.872 2.65.52 4-.433 1.55-1.376 2.912-2.678 3.86a9.56 9.56 0 0 1-2.163 1.209 9.68 9.68 0 0 1-2.415.714 17.51 17.51 0 0 1-5.084.187 18.3 18.3 0 0 1-2.575-.4l-1.287-.258-1.166-.347-1.163-.358-.58-.18c-.335-.1-.43-.168-.658-.253l-2.333-.963c-1.532-.71-2.976-1.6-4.3-2.65a15.1 15.1 0 0 1-1.8-1.8l-.68-1.116-.312-.56-.2-.63a6.7 6.7 0 0 1-.34-2.522c.1-.78.327-1.54.677-2.244.135-.33.318-.64.543-.918a8.72 8.72 0 0 1 .618-.79c.422-.433.886-.82 1.387-1.16l.684-.443.692-.32c.407-.19.836-.335 1.276-.43a4.11 4.11 0 0 1 1.179-.146l.494-.005.31.07.57.125z"/><path d="M224.8 243.193l.265-.9a3.86 3.86 0 0 1 .428-1 5.18 5.18 0 0 1 .809-1.23l.546-.648.675-.6c.508-.424 1.056-.797 1.637-1.114a12.35 12.35 0 0 1 4.139-1.238 13.61 13.61 0 0 1 2.23-.033 11.76 11.76 0 0 1 2.17.325 12.4 12.4 0 0 1 1.968.723 9.2 9.2 0 0 1 1.651.988l.7.53q.3.306.547.577a5.53 5.53 0 0 1 .817 1l.6.966-3.06 1.55-.38-.6c-.13-.243-.295-.464-.5-.658l-.327-.393-.443-.372a6.01 6.01 0 0 0-1.072-.783 9.28 9.28 0 0 0-1.39-.656 9.89 9.89 0 0 0-1.627-.47 10.84 10.84 0 0 0-1.774-.221c-.602-.008-1.203.026-1.8.1a11.7 11.7 0 0 0-1.738.347c-.532.167-1.05.375-1.55.623l-.7.363c-.217.132-.4.3-.6.428a5.99 5.99 0 0 0-.978.853c-.268.228-.5.494-.7.8l-.553.758m-12.086 3.92l.056.44.172 1.206a25.17 25.17 0 0 0 1 4.09 22.59 22.59 0 0 0 2.612 5.323 25.9 25.9 0 0 0 2.051 2.693 31.52 31.52 0 0 0 2.463 2.532l.997.9c-.115-.088.16.12.018.01-.077-.044-.078-.043-.1-.048-.112-.032-.233-.01-.327.06a.63.63 0 0 0-.2.227c-.056.1-.067.266-.03.013l.587-3.57 1.436-6.33c.423-1.523.98-3.006 1.668-4.43.206-.423.44-.832.696-1.226l.283-.426 1.9 1.376-.212.33a8.87 8.87 0 0 0-.561.988 24.17 24.17 0 0 0-1.473 4.028c-.483 1.746-.944 3.832-1.328 6.1l-.547 3.5a2.35 2.35 0 0 1-.22.774 1.89 1.89 0 0 1-.683.74 2.13 2.13 0 0 1-2.212 0c-.1-.065-.216-.14-.314-.222l-.357-.315-.716-.63a34.43 34.43 0 0 1-2.682-2.71 28.51 28.51 0 0 1-2.278-2.934 25 25 0 0 1-2.962-5.9 27.58 27.58 0 0 1-1.149-4.525l-.192-1.27-.06-.44zM270.637 28.87l-.78.488a17.6 17.6 0 0 0-2.054 1.52 15.79 15.79 0 0 0-2.617 2.871 17.14 17.14 0 0 0-2.256 4.377 17.75 17.75 0 0 0-.957 5.644 18.87 18.87 0 0 0 .85 6.2c.664 2.084 1.726 4.02 3.126 5.7a19.87 19.87 0 0 0 4.907 4.4 12.23 12.23 0 0 0 3.1 1.416c.54.193 1.115.288 1.67.44l1.83.3 7.188.8 6.853.525a45.61 45.61 0 0 1 6.355.85 9.88 9.88 0 0 1 5.517 2.929 6.5 6.5 0 0 1 1.342 2.6 8.95 8.95 0 0 1 .314 2.262 15.85 15.85 0 0 1-.227 2.92l-.176.98-2.572-.57.166-.866a12.93 12.93 0 0 0 .22-2.43 5.12 5.12 0 0 0-1.023-3.28 7.3 7.3 0 0 0-4.131-2.085 43.64 43.64 0 0 0-5.994-.785l-6.86-.518-7.362-.816-3.814-.675c-1.298-.312-2.56-.764-3.76-1.35a17.92 17.92 0 0 1-3.415-2.137 17.48 17.48 0 0 1-2.765-2.9 19.59 19.59 0 0 1-3.168-7.007c-1.034-4.42-.585-9.06 1.28-13.2a15.92 15.92 0 0 1 6.074-7.033 14.87 14.87 0 0 1 2.3-1.217l.843-.36"/><path d="M261.725 37.153l-.334-.205a3.85 3.85 0 0 1-.445-.3l-.718-.6a6.74 6.74 0 0 1-1.308-1.84 7.26 7.26 0 0 1-.728-2.714c-.138-2.218.435-4.422 1.636-6.3a13.9 13.9 0 0 1 5.237-4.883c1.05-.58 2.158-1.045 3.3-1.382a19.16 19.16 0 0 1 3.352-.7 21.7 21.7 0 0 1 3.154-.173 27.55 27.55 0 0 1 2.8.161 35.2 35.2 0 0 1 4.089.711l1.52.377-.82 2.994-1.4-.343a32.57 32.57 0 0 0-3.719-.638 24.61 24.61 0 0 0-2.488-.135 18.63 18.63 0 0 0-2.743.157 15.98 15.98 0 0 0-2.829.594 13.17 13.17 0 0 0-2.7 1.133c-1.66.883-3.057 2.186-4.055 3.778-.843 1.295-1.25 2.824-1.166 4.367.047.952.438 1.855 1.1 2.54l.255.224c.03.06.258.168.34.227l.336.2zM221.068 266.58c-.228-.1-.44-.214-.627-.372-6.28-5.3-9.5-11.082-10.4-18.757l2.086-.25c.572 4.782 2.187 11.077 9.662 17.388.828-5.72 2.075-12.53 4.5-15.873l1.7 1.234c-2.457 3.388-3.672 11.834-4.13 15.013-.074.735-.557 1.366-1.247 1.63a2.14 2.14 0 0 1-1.532-.012m70.186-250.13l.453-.533c.307-.35.7-.854 1.362-1.515.757-.784 1.555-1.53 2.4-2.23l1.578-1.225 1.856-1.2c1.42-.845 2.894-1.6 4.415-2.235a47.02 47.02 0 0 1 5.159-1.855l5.648-1.364 5.88-.94 1.483-.132 1.1-.095.342-.02h.185c1.2.03 2.334.63 3.032 1.618s.886 2.25.508 3.4a3.49 3.49 0 0 1-.156.393l-.1.22-.045.078-.176.312-.354.623-.77 1.28-1.467 2.378c-1.765 2.737-3.367 5.575-4.8 8.5a34.13 34.13 0 0 0-1.377 3.52 20.95 20.95 0 0 0-.67 2.73 11.11 11.11 0 0 0-.142 1.706l-.017.587-3.437-.12.087-.754a14.41 14.41 0 0 1 .37-2.08 33.69 33.69 0 0 1 2.485-6.838l2.156-4.264 2.6-4.6 1.382-2.4q.333-.6.672-1.2l.33-.63.165-.317.042-.08c-.014.022 0-.01 0-.01 0-.018.02-.033.02-.05.035-.133.01-.274-.07-.387-.053-.12-.283-.173-.24-.18l-2.787.257-5.672.725c-1.863.285-3.666.694-5.4 1.125a44.06 44.06 0 0 0-4.875 1.582 33.35 33.35 0 0 0-4.138 1.935 36.23 36.23 0 0 0-3.249 2.064 28.51 28.51 0 0 0-2.277 1.874c-.608.516-1.066 1.035-1.384 1.354l-.486.5z"/><path d="M266.533 20.73l.254-.512.747-1.458 1.415-2.284c.64-.95 1.338-1.864 2.088-2.732a36.61 36.61 0 0 1 6.407-5.67 38.73 38.73 0 0 1 4.061-2.533l4.377-2.2 4.484-1.9L292.6.616l1.237-.424.3-.08a5.18 5.18 0 0 1 .671-.1c.453-.03.907.02 1.342.15a3.95 3.95 0 0 1 2.07 1.433 3.55 3.55 0 0 1 .661 2.73 4.04 4.04 0 0 1-.191.686l-.112.258-.215.486-.433.965-1.566 3.5a32.32 32.32 0 0 0-1.79 5.316 14.2 14.2 0 0 0-.29 1.515l-.08.535-3.338-.83.7-2.135 1.977-5.494 1.363-3.6.367-.96.184-.494.1-.243c-.006-.016.01-.03.006-.04.032-.017-.087-.27-.36-.335-.17-.018-.068-.053-.406.055l-1.065.378-2.163.775-4.35 1.7-4.2 2a41.91 41.91 0 0 0-3.879 2.256c-2.222 1.423-4.27 3.1-6.1 5a26.11 26.11 0 0 0-2.06 2.374c-.6.73-1.014 1.4-1.393 1.957s-.628 1.062-.82 1.374l-.286.494zm110.907 148.3l-.333.26-.886.753a33.4 33.4 0 0 0-3.025 3.09c-.6.662-1.2 1.45-1.832 2.26l-1.827 2.686a33.45 33.45 0 0 0-1.7 3.03 31.23 31.23 0 0 0-1.475 3.27c-.507 1.094-.775 2.275-1.17 3.392-.36 1.128-.546 2.285-.82 3.38-.245 1.1-.32 2.2-.48 3.222a24.02 24.02 0 0 0-.205 2.914 22.93 22.93 0 0 0-.047 2.473l.1 1.908.086 1.665-2.853.3-.113-1.77-.127-2.032a24.88 24.88 0 0 1 .022-2.644 26.53 26.53 0 0 1 .187-3.126l.483-3.47.848-3.65 1.224-3.675a34.45 34.45 0 0 1 1.556-3.548 36.79 36.79 0 0 1 1.8-3.291c.62-1.048 1.3-2.005 1.945-2.922l1.958-2.467a36.4 36.4 0 0 1 3.281-3.416l1.04-.9.373-.3z"/><path d="M373.555 190.202a32.05 32.05 0 0 1-3.59 6.86c-1.822 2.6-4.372 4.7-6.72 4.376-.3-.037-.598-.1-.9-.186l-.378-.132-.563-.262-2.207-1.136-4.5-2.267c-11.932-5.932-23.237-11.052-32.9-15.5-9.692-4.4-17.907-7.762-23.724-9.964-2.908-1.1-5.23-1.893-6.8-2.446l-2.434-.784 8.655 4.522 22.982 11.487 15.43 7.5 17.154 8.474 4.455 2.272 2.3 1.2.6.28.82.3a8.3 8.3 0 0 0 7.724-1.418c1.565-1.163 2.926-2.58 4.025-4.2a35.63 35.63 0 0 0 3.984-7.675zm-43.48-39.937l17.8 7.074 18.973 7.7q2.416 1 4.85 2l2.43 1.014c.276.088.537.22.773.4a2.41 2.41 0 0 1 .522.568 9.2 9.2 0 0 1 1.176 4.175 27.12 27.12 0 0 1-.078 4.975 44.57 44.57 0 0 1-1.211 6.615l3.412 1.3a48.24 48.24 0 0 0 1.374-7.571 30.55 30.55 0 0 0 .056-5.639 12.41 12.41 0 0 0-1.824-5.882 5.96 5.96 0 0 0-1.278-1.355 6.35 6.35 0 0 0-1.558-.838l-2.443-1.012-4.864-2-19.024-7.666-17.9-6.9-16.158-5.868c-5.006-1.813-9.66-3.3-13.777-4.63-4.1-1.357-7.758-2.346-10.75-3.184-2.98-.876-5.388-1.36-7-1.777l-2.5-.566 2.372.953 30.663 11.857 15.965 6.262"/><path d="M370.728 188.307l15.838 6.164-.4.74a5.11 5.11 0 0 0-.606 3.394c.174.484.553.867 1.035 1.046l.24.1c2.525.983 6.663 1.273 7.714.2.1-.113.4-.4.04-1.276a16.9 16.9 0 0 0-1.545-2.934 1.47 1.47 0 0 1 0-1.678c.353-.52.985-.774 1.6-.643a2.83 2.83 0 0 0 2.211-.193c.374-.423.534-.993.437-1.55-.136-2.894-1.584-5.365-3.6-6.15a3.39 3.39 0 0 0-2.286-.086c-1.705.544-1.575 1.963-1.27 3.493a1.97 1.97 0 0 1 .042 1.11c-.33.85-.446 1.144-18.175-5.748a7.88 7.88 0 0 0-1.267 4.014m15.567 12.825l-.292-.12a3.19 3.19 0 0 1-1.848-1.93c-.317-1.277-.192-2.624.357-3.82l-15.03-5.85-.1-.345c-.72-2.37 1.444-5.725 1.692-6.1l.33-.5.556.216c5.407 2.1 13.873 5.3 16.646 6.157-.237-1.336-.465-3.92 2.347-4.817a4.86 4.86 0 0 1 3.274.117c2.6 1 4.38 3.94 4.547 7.462a3.22 3.22 0 0 1-.955 2.747 3.95 3.95 0 0 1-3.478.515 28.45 28.45 0 0 1 1.619 3.236 2.46 2.46 0 0 1-.349 2.88c-1.865 1.907-7.068 1.02-9.312.148m-22.13-37.853l-1.37.987a15.42 15.42 0 0 0-1.449 1.193 20.4 20.4 0 0 0-1.736 1.672 25.78 25.78 0 0 0-1.894 2.178 28.08 28.08 0 0 0-1.9 2.614c-.634.93-1.2 1.944-1.8 2.962l-1.55 3.227a31.87 31.87 0 0 0-1.257 3.352c-.388 1.116-.633 2.257-.895 3.347a25.85 25.85 0 0 0-.451 3.2 18.3 18.3 0 0 0-.086 2.868 14.72 14.72 0 0 0 .694 4.116l.608 1.38-3.693.814.1-1.883.253-2.043.5-2.53.75-2.884.977-3.13 1.172-3.278.63-1.67.686-1.663 1.427-3.3 1.5-3.15.733-1.5.748-1.42 1.406-2.607 1.266-2.218 1-1.7.834-1.47z"/><path d="M361.184 162.113l-1.366.992a15.66 15.66 0 0 0-1.445 1.2 21.2 21.2 0 0 0-1.731 1.673 27.15 27.15 0 0 0-1.894 2.179l-1.9 2.6c-.633.928-1.2 1.947-1.8 2.96l-1.56 3.222a33.48 33.48 0 0 0-1.273 3.347c-.385 1.116-.642 2.254-.9 3.345a25.55 25.55 0 0 0-.457 3.2c-.1.954-.128 1.913-.083 2.87.036 1.4.274 2.787.706 4.12l.617 1.378-3.694.814.1-1.884.26-2.042.508-2.527.75-2.882.97-3.13 1.166-3.278 1.3-3.34 1.418-3.295 1.5-3.15 1.48-2.925 1.407-2.608 1.27-2.216 1-1.7.84-1.465zm-20.954-8.15l-1.3.893c-.48.333-.942.696-1.378 1.086a17.7 17.7 0 0 0-1.655 1.533 29.92 29.92 0 0 0-3.636 4.408c-.6.855-1.155 1.793-1.712 2.744l-1.5 2.986-1.235 3.1-.9 3.1a25.69 25.69 0 0 0-.553 2.964c-.116.9-.187 1.784-.2 2.68a18.38 18.38 0 0 0 .331 3.94l.387 1.4-3.777.193.362-1.67.456-1.837.654-2.3.892-2.632 1.053-2.874 1.2-3.02 1.338-3.066 2.835-5.953 2.714-5.152 2.082-3.685.755-1.394z"/><path d="M337.236 152.8l-1.315.877a13.37 13.37 0 0 0-1.38 1.072 16.33 16.33 0 0 0-1.656 1.519 28.78 28.78 0 0 0-3.627 4.382 35.38 35.38 0 0 0-3.167 5.715c-.473 1-.847 2.062-1.222 3.1l-.887 3.1a25.31 25.31 0 0 0-.553 2.946c-.162.937-.155 1.846-.224 2.662a19.2 19.2 0 0 0 .291 3.919l.36 1.4-3.78.155.363-1.654c.1-.52.307-1.126.458-1.825s.45-1.452.657-2.286a105.76 105.76 0 0 1 4.523-11.514l1.415-3 1.448-2.887 2.7-5.122 1.153-2.074.9-1.6.738-1.4zm-20.952-8.152l-1.265.847a13.99 13.99 0 0 0-1.332 1.03 17 17 0 0 0-1.6 1.457 23.13 23.13 0 0 0-1.764 1.9c-.608.693-1.186 1.473-1.77 2.292a35.54 35.54 0 0 0-1.67 2.613l-1.48 2.843a33.23 33.23 0 0 0-2.143 5.923 28.01 28.01 0 0 0-.59 2.834c-.15.906-.206 1.776-.258 2.57a18.72 18.72 0 0 0 .18 3.814l.3 1.4-3.782-.073.466-1.556.54-1.724c.183-.662.493-1.377.73-2.17l.937-2.493 1.084-2.728 1.2-2.874 1.323-2.922 2.764-5.7 2.616-4.94 2-3.544.716-1.344z"/><path d="M313.294 143.483l-1.253.837c-.458.313-.9.653-1.318 1.017a16.85 16.85 0 0 0-1.588 1.438 23.36 23.36 0 0 0-1.749 1.873c-.6.684-1.178 1.454-1.76 2.262s-1.127 1.68-1.66 2.58a30.24 30.24 0 0 0-1.475 2.806 32.73 32.73 0 0 0-2.148 5.85 28.46 28.46 0 0 0-.6 2.8c-.147.9-.218 1.756-.268 2.543-.08 1.262-.03 2.53.15 3.78l.287 1.4-3.78-.133.5-1.527.56-1.7c.2-.655.5-1.355.748-2.136l.948-2.457 1.1-2.7 1.2-2.84 1.315-2.887 2.742-5.625 2.6-4.885 1.968-3.508.708-1.33zm-20.48-7.976l-2.842 1.96c-.418.3-.818.62-1.2.965a16.07 16.07 0 0 0-1.447 1.353 31.05 31.05 0 0 0-6.015 8.85 28.61 28.61 0 0 0-2.7 10.336 17.74 17.74 0 0 0 .134 3.5l.256 1.294-2.846-.644s-.712-.12-.414-.994l.572-1.544.74-1.95 1.938-4.72 1.113-2.612 1.2-2.664c1.6-3.573 3.36-7.077 4.685-9.794l1.65-3.32a17.22 17.22 0 0 0 .679-1.614z"/><path d="M289.815 134.137l-2.54 1.7c-.43.303-.842.63-1.234.98a15.97 15.97 0 0 0-1.482 1.379 31.47 31.47 0 0 0-6.157 9.047 32.22 32.22 0 0 0-1.969 5.531 25.15 25.15 0 0 0-.8 5.038 18.39 18.39 0 0 0 .117 3.571l.25 1.32-3.782-.977s.217.223.514-.672c.136-.45.375-.975.57-1.584l.746-2 1.973-4.835 1.145-2.67 1.24-2.72 2.53-5.324 2.323-4.664 1.716-3.384a7.02 7.02 0 0 1 .566-1.008zM238 121.667s-.352.363-.892 1.033a13.41 13.41 0 0 0-.91 1.213 15.26 15.26 0 0 0-1.037 1.633c-1.736 3.036-2.9 6.36-3.465 9.814-.17.936-.275 1.882-.352 2.815a26.25 26.25 0 0 0-.08 2.743 22.11 22.11 0 0 0 .184 2.553 21.25 21.25 0 0 0 .4 2.244 14.83 14.83 0 0 0 1.13 3.153c.384.7.632 1.067.632 1.067l-3.633 1.048s.022-.556.01-1.475l.052-1.627.135-2.046c.272-2.963.8-6.736 1.5-10.478l2.032-10.35c.13-.72.3-1.384.384-1.992s.2-1.118.273-1.548c.144-.847.18-1.353.18-1.353z"/><path d="M234.742 121.3l-.843 1.013-.863 1.184a18.02 18.02 0 0 0-.993 1.586l-1.036 1.976c-.347.714-.67 1.485-.968 2.295-.323.8-.563 1.663-.837 2.53l-.62 2.68a27.2 27.2 0 0 0-.527 5.383 22.51 22.51 0 0 0 .149 2.483 18.5 18.5 0 0 0 .38 2.188 14 14 0 0 0 1.1 3.092 11.66 11.66 0 0 0 .624 1.056l-3.67.908.105-1.426.13-1.573.2-1.974.3-2.28.35-2.5.4-2.644.442-2.718c.612-3.638 1.364-7.264 1.887-10.067l.65-3.428c.143-.82.2-1.3.2-1.3zm-23.648-2.83s-.3.4-.742 1.122a13.99 13.99 0 0 0-.737 1.3 16.96 16.96 0 0 0-.811 1.723 25.06 25.06 0 0 0-1.452 4.577c-.202.88-.358 1.772-.467 2.67-.127.915-.18 1.854-.224 2.8a27.42 27.42 0 0 0 .054 2.8 24.92 24.92 0 0 0 .314 2.689c.147.83.343 1.65.585 2.455.212.717.472 1.418.778 2.1a12.3 12.3 0 0 0 1.685 2.805l.834.86-3.3 1.83-.3-1.457-.265-1.607-.227-2.027-.23-4.92.08-5.53c.132-3.752.44-7.5.6-10.4l.13-2c.022-.6.058-1.117.08-1.545.037-.848.014-1.346.014-1.346z"/><path d="M208.043 117.72l-.755 1.12a23.45 23.45 0 0 0-1.6 3.023c-.66 1.47-1.185 3-1.568 4.565-.227.88-.4 1.77-.547 2.668-.16.915-.236 1.856-.315 2.795l-.035 2.812a25.07 25.07 0 0 0 .23 2.709 21.97 21.97 0 0 0 .52 2.48 16.06 16.06 0 0 0 .733 2.127 11.66 11.66 0 0 0 1.65 2.825l.83.86-3.3 1.828-.3-1.472-.255-1.624-.2-2.044-.114-4.95.248-5.55c.25-3.763.663-7.52.882-10.423.147-1.437.22-2.717.274-3.55.05-.85.034-1.35.034-1.35zm-21.73-.187s-.28.4-.688 1.093a19.97 19.97 0 0 0-1.424 2.935 27.29 27.29 0 0 0-1.876 9.636 26.35 26.35 0 0 0 .1 2.673 24.59 24.59 0 0 0 .345 2.564 19.63 19.63 0 0 0 .6 2.335 16.03 16.03 0 0 0 .783 1.993 11.56 11.56 0 0 0 1.672 2.636l.82.8-3.28 1.88-.3-1.4-.268-1.542-.235-1.942a88.61 88.61 0 0 1-.239-10l.188-5.277.094-2.45.06-2.222.055-3.4-.053-1.292z"/><path d="M183.1 117.296s-.277.4-.685 1.1a20.48 20.48 0 0 0-1.42 2.943 24.68 24.68 0 0 0-1.311 4.414c-.18.848-.315 1.704-.407 2.565-.112.878-.145 1.778-.178 2.676l.088 2.68a23.99 23.99 0 0 0 .336 2.572 20.51 20.51 0 0 0 .6 2.342c.214.684.475 1.352.78 2a11.35 11.35 0 0 0 1.674 2.643l.82.8-3.28 1.88-.3-1.4-.264-1.547-.23-1.947-.25-4.72.024-5.3.34-9.97.06-3.4-.05-1.292zm-19.1 1.02l-.527 1.05-.507 1.2a16.6 16.6 0 0 0-.54 1.573l-.5 1.916c-.158.685-.278 1.414-.378 2.173-.116.757-.158 1.545-.217 2.347l-.008 2.432c.013.817.1 1.63.18 2.427l.42 2.32a18.3 18.3 0 0 0 1.374 3.937 11.2 11.2 0 0 0 2.3 3.324l-3.488 1.462s.006-.483-.058-1.266l-.192-3.15-.245-4.26-.32-4.8-.3-4.8-.3-4.25-.274-3.087-.167-1.163z"/><path d="M160.763 118.642l-.517 1.05-.5 1.2c-.154.457-.388.978-.53 1.57a25.7 25.7 0 0 0-.859 4.077 28.44 28.44 0 0 0-.22 4.766c.038 1.594.24 3.18.6 4.732a17.93 17.93 0 0 0 1.383 3.921 10.96 10.96 0 0 0 2.329 3.294l-3.478 1.483s.006-.483-.06-1.265l-.2-3.145-.263-4.246-.348-4.772-.173-2.425-.148-2.36-.3-4.238-.28-3.076-.168-1.16zm94.757 32.37c-.15-1.618-.125-3.248.072-4.86a29.81 29.81 0 0 1 1.156-5.471c.27-.915.606-1.808.945-2.683l1.143-2.506a27.01 27.01 0 0 1 2.565-4.147 15.9 15.9 0 0 1 1.216-1.5 13.62 13.62 0 0 1 1.034-1.1c.292-.3.714-.783 1.076-1.22l-3.5-.962-.178.6-1.113 3.436-3.2 10.086-.8 2.73-.737 2.667-.67 2.52-.588 2.3-.457 2-.343 1.575-.305 1.42 3.768-.32s-.2-.423-.445-1.2a16.5 16.5 0 0 1-.636-3.344"/><path d="M252.422 149.96a26.84 26.84 0 0 1 1.3-10.343c.27-.916.622-1.806.962-2.682l1.16-2.5a27.5 27.5 0 0 1 2.586-4.14 16.73 16.73 0 0 1 1.222-1.5 14.31 14.31 0 0 1 1.036-1.1l.963-1.018-3.455-.93-.106.343-1.14 3.432-3.242 10.095c-1.12 3.654-2.08 7.346-2.838 10.22-.146.722-.344 1.385-.474 1.987l-.358 1.574c-.178.9-.324 1.417-.324 1.417l3.77-.287s-.2-.426-.442-1.207a16.24 16.24 0 0 1-.621-3.357m-7.12 13.68l1.885.84 5.04 2.05 11.042 4.34 4.08 1.64 4.038 1.746 3.887 1.77 3.6 1.78 3.183 1.733 2.667 1.576 2.047 1.3 1.795 1.18-2.673 2.675-1.174-1.577c-.465-.6-.966-1.17-1.5-1.708-.67-.73-1.387-1.418-2.142-2.06-.808-.74-1.747-1.47-2.756-2.223l-3.3-2.2-3.706-2.087-3.975-1.876-4.1-1.6-4.054-1.3-3.865-.96-3.506-.67-2.987-.4-2.32-.2-2.063-.07z"/><path d="M283.144 187.607l-1.406-1.43a22.01 22.01 0 0 0-1.664-1.5 27.05 27.05 0 0 0-2.278-1.8l-2.857-1.955-3.326-1.976-3.68-1.9-3.913-1.726a78.73 78.73 0 0 0-7.948-2.767 68.53 68.53 0 0 0-7.153-1.654 37.75 37.75 0 0 0-7.107-.676l.767-3.7 1.887.807 4.9 2.028 14.657 5.963 7.8 3.2 3.58 1.533 3.215 1.4 4.86 2.213 1.832.818zm-54.05.8l1.6.414 4.293.95 2.83.6 3.144.626 3.354.647 3.46.638 6.834 1.176 6.027.976 2.45.414 1.936.364 1.776.408-1.782 3.335-.3-.256a9.11 9.11 0 0 0-.877-.7 15.02 15.02 0 0 0-1.54-.957 21.17 21.17 0 0 0-2.14-1.074 44.6 44.6 0 0 0-5.657-2.1 63.48 63.48 0 0 0-6.74-1.59 61.63 61.63 0 0 0-6.874-.828c-1.1-.1-2.172-.1-3.185-.118-1.012-.036-1.973.015-2.856.062-.885.02-1.7.12-2.4.2a20.99 20.99 0 0 0-1.843.266l-1.63.333z"/><path d="M228.605 191.214l1.612.4 4.3.936 2.83.588 3.145.63 6.813 1.3 6.826 1.2 6.025.974 2.452.407 1.94.355 1.78.4-1.782 3.335-.288-.26a8.7 8.7 0 0 0-.874-.7 14.99 14.99 0 0 0-1.539-.965 20.3 20.3 0 0 0-2.138-1.081 28.02 28.02 0 0 0-2.637-1.085l-3.02-1.016a60.68 60.68 0 0 0-6.745-1.558 63.31 63.31 0 0 0-6.877-.812c-1.1-.1-2.174-.093-3.185-.113-1-.04-1.974.025-2.856.06-.884.016-1.688.123-2.394.2l-1.843.258-1.63.322zm10.155 32.216s.5-.162 1.33-.516l3.423-1.534c2.788-1.267 6.333-3.083 9.834-5l5.154-2.8 2.384-1.312c.77-.4 1.476-.842 2.165-1.183 1.348-.74 2.534-1.326 3.408-1.74l1.467-.625.43 3.758-.312-.05c-.304-.05-.6-.08-.918-.1a12.43 12.43 0 0 0-1.511.059c-.67.057-1.334.153-1.992.3a42.36 42.36 0 0 0-19.257 9.95 18.2 18.2 0 0 0-1.431 1.45 16.61 16.61 0 0 0-1.032 1.205c-.56.7-.85 1.144-.85 1.144z"/><path d="M240.834 225.572s.5-.16 1.292-.508l3.34-1.5 4.546-2.166 5.083-2.595 5.05-2.666 4.45-2.387 3.33-1.682 1.43-.613.4 3.76-.305-.057c-.295-.056-.593-.092-.893-.107a11.58 11.58 0 0 0-1.477.024c-.653.04-1.302.123-1.945.245a36.22 36.22 0 0 0-10.035 3.491 37.08 37.08 0 0 0-8.757 6.05 16.72 16.72 0 0 0-1.383 1.413c-.355.373-.7.765-1 1.175l-.822 1.12zm48.686-8.157c-.057.327-.097.658-.12 1l-.155 2.63-.106 3.527-.01 1.95.01 2 .1 3.955.112 3.546.023 1.5-.053 1.244-.176 1.234-3.252-1.932.162-.094c.165-.092.317-.206.452-.338a4.55 4.55 0 0 0 .617-.762 7.59 7.59 0 0 0 .66-1.169 17.2 17.2 0 0 0 1.364-7.186 21.01 21.01 0 0 0-.427-3.914c-.225-1.13-.57-2.23-1.032-3.284-.18-.418-.4-.823-.626-1.212a8.29 8.29 0 0 0-.576-.905c-.188-.274-.4-.538-.605-.8z"/><path d="M286.682 217.75s-.065.357-.108.963l-.13 2.566-.093 7.285.078 3.844.125 3.45.034 1.467-.043 1.22-.17 1.218-3.23-1.966.16-.084a1.97 1.97 0 0 0 .45-.31c.234-.218.44-.462.62-.727a6.85 6.85 0 0 0 .66-1.127 12.71 12.71 0 0 0 1.006-3.172 16.33 16.33 0 0 0 .244-1.868 18.79 18.79 0 0 0 .056-1.946 19.55 19.55 0 0 0-.461-3.8 15.7 15.7 0 0 0-1.045-3.177 9.97 9.97 0 0 0-.622-1.168 8.1 8.1 0 0 0-.572-.87l-.6-.762zm-24.545 42.217s-.338-.284-.953-.712l-2.613-1.756-7.744-4.852-9.494-5.416-1.237-.756-1.144-.8 3.112-2.148.054.245c.053.24.13.474.226.7a7.12 7.12 0 0 0 .582 1.094 10.06 10.06 0 0 0 .97 1.347c.882 1.096 1.878 2.095 2.97 2.98a30.64 30.64 0 0 0 3.965 2.756 31.27 31.27 0 0 0 4.344 2.111 23.65 23.65 0 0 0 4.037 1.226c.543.128 1.093.22 1.648.28a11.45 11.45 0 0 0 1.3.113l1.2.015z"/><path d="M263.035 257.296s-.327-.285-.925-.707l-2.54-1.724-7.555-4.664-4.1-2.326-3.67-2.026-2.713-1.6-1.112-.807 3.132-2.12.05.235a3.57 3.57 0 0 0 .21.676 7.24 7.24 0 0 0 .557 1.059c.276.46.588.898.934 1.3a25 25 0 0 0 6.7 5.6 25.99 25.99 0 0 0 8.156 3.207 11.57 11.57 0 0 0 1.609.241c.42.053.845.08 1.27.08l1.163-.018zm-32.602-18.146c.058-.28.1-.563.12-.848.057-.506.07-1.354.084-2.2a37.96 37.96 0 0 0-.48-6.068l-.98-6.068a18.3 18.3 0 0 1-.273-2.287l.025-1.073 3.427 1.6-.128.07a1.49 1.49 0 0 0-.35.266 3.67 3.67 0 0 0-.471.627c-.187.3-.347.634-.48.97a13.39 13.39 0 0 0-.733 5.89 13.6 13.6 0 0 0 .6 3.137 10.53 10.53 0 0 0 1.2 2.545 6 6 0 0 0 .687.9 6.08 6.08 0 0 0 .628.646 6.58 6.58 0 0 0 .655.551z"/><path d="M232.702 238.654a7.48 7.48 0 0 0 .094-.82c.04-.485.044-1.32.048-2.153l-.1-2.814-.323-3.106-.95-5.9a18.77 18.77 0 0 1-.3-2.24l.01-1.063 3.4 1.636-.13.06c-.132.06-.254.14-.36.24a3.14 3.14 0 0 0-.483.6 5.53 5.53 0 0 0-.494.937 12.04 12.04 0 0 0-.687 5.728 12.2 12.2 0 0 0 1.872 5.487 6.24 6.24 0 0 0 .674.859 6.34 6.34 0 0 0 .606.622 7.95 7.95 0 0 0 .63.534zm-6.216 1.68s-.673 1.923-1.017 1.567l-1.5-1.45a61.79 61.79 0 0 0-4.432-3.71l-2.452-1.787-2.3-1.536-1.8-1.263-.762-.683 3.516-1.394-.05.144a1.6 1.6 0 0 0-.083.438 3.11 3.11 0 0 0 .075.759 5.04 5.04 0 0 0 .3.994 8.83 8.83 0 0 0 1.367 2.248 10.95 10.95 0 0 0 1.014 1.085 12.71 12.71 0 0 0 1.171.989c.8.602 1.686 1.107 2.613 1.506a10.48 10.48 0 0 0 2.537.75 6.64 6.64 0 0 0 1.048.087 6.97 6.97 0 0 0 .841-.018 6.82 6.82 0 0 0 .791-.087z"/><path d="M228.363 239.34s-.535 1.06-.914.716l-1.65-1.4-4.784-3.635-2.6-1.795-2.4-1.593a17.79 17.79 0 0 1-1.847-1.377l-.757-.763 3.576-1.23-.054.14a1.52 1.52 0 0 0-.1.435 3.01 3.01 0 0 0 .066.77 4.79 4.79 0 0 0 .312 1.018c.362.84.855 1.615 1.46 2.3a10.73 10.73 0 0 0 1.085 1.1c.396.355.813.687 1.248.992.863.596 1.792 1.1 2.77 1.47a11.07 11.07 0 0 0 2.662.682 7.32 7.32 0 0 0 1.088.05 6.96 6.96 0 0 0 .871-.047c.5-.05 3.5-.03 3.5-.03zm28.144 39.972l-1.43-.57-1.4-.55-1.8-.678-2.094-.78-2.323-.82-5.04-1.68-7.404-2.415-2.13-.72-1.835-.673c-.55-.2-1.05-.438-1.464-.617s0-.473-.232-.6.27-.7.27-.7l.72-3.448.746 1.658a3.52 3.52 0 0 0 .387.68c.258.365.548.706.866 1.02a11.33 11.33 0 0 0 1.345 1.207 29.48 29.48 0 0 0 8.737 4.584c3.132 1.103 6.42 1.696 9.74 1.756a14.26 14.26 0 0 0 1.834-.063 11.84 11.84 0 0 0 1.426-.164l1.277-.244z"/><path d="M257.048 274.607s-.192.556-1 .3l-3.376-1.044-9.758-3.167-5.156-1.726-2.4-.82-2.17-.78-1.865-.75c-.563-.22-1.058-.513-1.485-.7a10.78 10.78 0 0 1-1-.623c-.242-.16 1-.236 1-.236l1.418-2.878.26.78a2.99 2.99 0 0 0 .32.7 6.51 6.51 0 0 0 .814 1.077 9.66 9.66 0 0 0 1.327 1.275 17.13 17.13 0 0 0 1.77 1.339l2.148 1.26 2.42 1.126c.83.37 1.713.652 2.586.953a33.33 33.33 0 0 0 5.277 1.232 25.01 25.01 0 0 0 4.711.3 13.51 13.51 0 0 0 1.853-.136 11.2 11.2 0 0 0 1.428-.228l1.286-.308zm67.246-57.46l-.774 1.42-.807 1.652-1.112 2.174-1.336 2.5-1.55 2.714-.846 1.408-.935 1.394c-.592.962-1.342 1.835-2 2.77l-2.224 2.593c-.746.85-1.562 1.607-2.33 2.373l-2.38 2.048-2.26 1.74-2.03 1.362-1.622 1.02-1.447.887-1.122-3.6.4-.02c.256-.028.653-.023 1.13-.108a19 19 0 0 0 3.931-.968 20.71 20.71 0 0 0 2.5-1.1 21.18 21.18 0 0 0 5.144-3.707 27.42 27.42 0 0 0 2.309-2.51 28.3 28.3 0 0 0 1.908-2.828 21.13 21.13 0 0 0 1.5-2.936l.6-1.448.462-1.435q.2-.7.4-1.36.135-.673.262-1.3l.38-2.264.135-1.835.045-1.618z"/><path d="M321.93 215.607s-.327.5-.8 1.387l-.848 1.628-1.1 2.127-1.32 2.443-1.54 2.648c-.527.916-1.172 1.8-1.8 2.715l-.992 1.343-1.076 1.293-2.3 2.444-2.4 2.22-4.5 3.72-3.215 2.646-1.192 1.06-1.833-3.308a37.9 37.9 0 0 0 5.309-1.92l2.443-1.174c.86-.434 1.72-.962 2.615-1.514a28 28 0 0 0 2.6-1.914 24.28 24.28 0 0 0 2.437-2.286l1.1-1.274.98-1.35a14.73 14.73 0 0 0 .858-1.4 10.44 10.44 0 0 0 .735-1.42 19.43 19.43 0 0 0 1.1-2.813 21.4 21.4 0 0 0 .66-2.622 23.48 23.48 0 0 0 .413-4.036l-.018-1.6zm-63.455-58.68l-.237.18-.65.522c-.807.693-1.577 1.427-2.308 2.2a88.7 88.7 0 0 0-7.358 8.956 106.87 106.87 0 0 0-8.688 13.9 41.67 41.67 0 0 0-3.338 8.477 24.61 24.61 0 0 0-.331 9.232 42.16 42.16 0 0 0 6.85 17.12 45.07 45.07 0 0 0 5.419 6.635l2.933 2.667a13.84 13.84 0 0 1 2.7 2.925 7.4 7.4 0 0 1 1.25 3.55 6.86 6.86 0 0 1-.669 3.311 12.15 12.15 0 0 1-3.3 4.072 20.27 20.27 0 0 1-2.728 1.88l-1.037.537s.34-.222.935-.7a21.04 21.04 0 0 0 2.43-2.162 12.14 12.14 0 0 0 2.75-4.035 5.77 5.77 0 0 0-.784-5.691 12.35 12.35 0 0 0-2.477-2.544c-1.037-.835-2.065-1.752-3.073-2.743-2.102-2.087-4-4.37-5.668-6.818a43.82 43.82 0 0 1-7.281-17.765 25.43 25.43 0 0 1 .335-9.914 43.25 43.25 0 0 1 3.493-8.858 98.46 98.46 0 0 1 8.915-14.1 90.19 90.19 0 0 1 7.622-9.019 31.82 31.82 0 0 1 2.471-2.289l.705-.55.24-.176z"/><path d="M255.67 156.942l-.24.182-.66.53c-.815.706-1.592 1.454-2.328 2.24-2.66 2.88-5.13 5.934-7.386 9.14a105.24 105.24 0 0 0-8.647 14.187 39.22 39.22 0 0 0-3.208 8.646 27.18 27.18 0 0 0-.126 9.4 41.99 41.99 0 0 0 7.012 17.33 36.52 36.52 0 0 0 5.7 6.505c1.026.95 2.07 1.676 3.16 2.522a13.93 13.93 0 0 1 2.827 2.87 6.9 6.9 0 0 1 1.287 3.609 6.04 6.04 0 0 1-.863 3.325 12.28 12.28 0 0 1-3.684 3.82c-.923.634-1.892 1.197-2.9 1.685-.7.326-1.087.47-1.087.47s.36-.2 1-.625a22.83 22.83 0 0 0 2.64-1.98 12.55 12.55 0 0 0 3.149-3.831 5.23 5.23 0 0 0-.654-5.676 12.52 12.52 0 0 0-2.6-2.5c-1.136-.794-2.23-1.647-3.278-2.553a38.05 38.05 0 0 1-6-6.724 43.67 43.67 0 0 1-7.457-17.976 27.75 27.75 0 0 1 .113-10.04 41.02 41.02 0 0 1 3.364-9.06 97.22 97.22 0 0 1 8.876-14.4 90.26 90.26 0 0 1 7.652-9.211 34.11 34.11 0 0 1 2.495-2.334c.32-.27.557-.445.715-.56l.242-.178zm5.568 1.065l-.23.173-.637.5c-.53.434-1.326 1.143-2.274 2.094a89.18 89.18 0 0 0-7.34 8.482 102.96 102.96 0 0 0-8.751 13.216 42.39 42.39 0 0 0-3.478 8.108c-.2.7-.373 1.457-.5 2.136-.125.783-.208 1.52-.254 2.24a26.4 26.4 0 0 0 .142 4.51 40.73 40.73 0 0 0 6.331 16.663c1.5 2.34 3.175 4.548 5.04 6.6a47.47 47.47 0 0 0 2.712 2.724c.912.843 1.875 1.537 2.752 2.456a6.55 6.55 0 0 1 1.662 6.53c-.523 1.634-1.372 3.145-2.494 4.442a20.78 20.78 0 0 1-2.292 2.253c-.574.465-.9.684-.9.684s.278-.278.753-.835a20.85 20.85 0 0 0 1.9-2.507 11.84 11.84 0 0 0 1.918-4.3c.435-1.902-.162-3.892-1.57-5.24-.767-.75-1.8-1.5-2.74-2.366s-1.9-1.8-2.834-2.794a50.22 50.22 0 0 1-5.267-6.764 42.4 42.4 0 0 1-6.746-17.325 23.4 23.4 0 0 1 .654-9.6 44.16 44.16 0 0 1 3.637-8.462 92.66 92.66 0 0 1 9-13.4c2.352-3.002 4.9-5.853 7.6-8.537 1-.97 1.815-1.684 2.425-2.17.305-.25.53-.412.682-.523l.232-.17zm3.096 1.185s-.333.23-.858.66l-2.27 2.025a92.81 92.81 0 0 0-7.412 8.147 99.94 99.94 0 0 0-8.92 12.739 40.94 40.94 0 0 0-3.591 7.875 21.81 21.81 0 0 0-.82 8.693 36.42 36.42 0 0 0 6.178 16.292 47 47 0 0 0 5.068 6.373 45.29 45.29 0 0 0 2.708 2.633c.9.837 1.85 1.477 2.716 2.442 1.64 1.72 2.2 4.2 1.426 6.46a12.64 12.64 0 0 1-2.575 4.287c-.94 1.07-2.017 2.013-3.2 2.806 0 0 .28-.267.756-.8.7-.757 1.342-1.564 1.922-2.416a11.81 11.81 0 0 0 2-4.171 5.37 5.37 0 0 0-1.384-5.175c-.693-.734-1.73-1.454-2.66-2.3s-1.9-1.728-2.823-2.693a48.58 48.58 0 0 1-5.3-6.539 38.08 38.08 0 0 1-6.615-17.019c-.356-3.16-.054-6.36.886-9.4.958-2.868 2.218-5.625 3.76-8.226a91.14 91.14 0 0 1 9.167-12.93c2.388-2.88 4.945-5.613 7.66-8.187 1-.932 1.808-1.62 2.408-2.088s.9-.672.9-.672zm-23.156 68.434l-.37-.132-1.037-.354a28.81 28.81 0 0 0-3.739-.907c-.786-.166-1.653-.235-2.565-.348-.96-.08-1.923-.108-2.886-.084a26.23 26.23 0 0 0-3.078.243 21.03 21.03 0 0 0-3.092.763c-1.015.323-2 .738-2.94 1.24a11.96 11.96 0 0 0-1.33.83 8.87 8.87 0 0 0-1.244.893 16.48 16.48 0 0 0-2.089 2.024c-.592.643-1.128 1.336-1.6 2.072l-1.172 1.9-1.33 2.93.546-1.4.63-1.6 1.08-1.97a15.28 15.28 0 0 1 1.516-2.193 16.85 16.85 0 0 1 2.038-2.193 9.32 9.32 0 0 1 1.238-.994 12.52 12.52 0 0 1 1.34-.935 18.42 18.42 0 0 1 3-1.459c1.043-.404 2.115-.73 3.207-.97a27.48 27.48 0 0 1 3.216-.427 28.46 28.46 0 0 1 3.034-.07l2.7.223a30.38 30.38 0 0 1 4.034.762l1.083.307.376.112zm5.462 3.98l-1.487-.55-3.945-1.233c-.822-.244-1.732-.42-2.7-.642l-3.044-.48-1.62-.167-1.664-.046c-.563-.027-1.128-.013-1.7.044l-1.7.14a18.74 18.74 0 0 0-3.3.756 16 16 0 0 0-3.017 1.291c-.457.257-.894.55-1.305.874a10.85 10.85 0 0 0-1.2.914c-.666.642-1.297 1.32-1.9 2.028l-1.33 1.944c-.35.607-.572 1.183-.8 1.634l-.675 1.44.607-1.47.726-1.682 1.255-2.03a25.79 25.79 0 0 1 1.833-2.158 11.6 11.6 0 0 1 1.188-1 10.5 10.5 0 0 1 1.309-.966 16.66 16.66 0 0 1 3.068-1.485c1.102-.417 2.24-.734 3.4-.945.58-.12 1.17-.15 1.755-.228a12.21 12.21 0 0 1 1.75-.127l1.73-.03 1.68.094c1.107.052 2.16.226 3.167.35l2.8.533c1.73.364 3.136.8 4.133 1.084l1.524.485zm1.054 2.4l-1.428-.518-3.792-1.132c-1.812-.47-3.652-.82-5.5-1.05l-3.153-.22c-1.087-.03-2.176.003-3.26.1-.545.038-1.078.164-1.616.24a8.9 8.9 0 0 0-1.583.343l-1.535.448-1.42.638-.695.315c-.217.125-.417.274-.624.408l-1.205.8c-.727.594-1.333 1.254-1.94 1.814l-1.32 1.83c-.314.5-.587 1.004-.816 1.538l-.664 1.374.587-1.4a10.8 10.8 0 0 1 .736-1.6l1.24-1.933 1.9-1.973q.583-.44 1.2-.9l.628-.46.7-.367 1.447-.747 1.57-.555c.53-.198 1.074-.348 1.63-.448l1.673-.342a31.08 31.08 0 0 1 3.38-.3c1.122-.067 2.218.006 3.284.047 1.933.133 3.856.4 5.756.772l4.016.963 1.472.443zm18.726-73.577l-.38.252a9.8 9.8 0 0 0-1.028.734c-1.173.934-2.3 1.936-3.347 3-3.287 3.282-6.355 6.776-9.186 10.458-1.563 2-3.03 4.07-4.355 6.047-.627 1-1.286 1.956-1.818 2.907s-1.083 1.826-1.5 2.685c-.434.847-.843 1.62-1.125 2.34a19.94 19.94 0 0 0-.748 1.86l-.54 1.663.48-1.684a19.3 19.3 0 0 1 .682-1.89c.258-.736.638-1.525 1.044-2.392.383-.878.892-1.78 1.4-2.752s1.127-1.95 1.72-3c1.258-2.035 2.66-4.17 4.157-6.24 2.72-3.82 5.7-7.458 8.887-10.9a39.02 39.02 0 0 1 3.4-3.273 10.87 10.87 0 0 1 1.047-.8l.37-.267zm2.94.855l-.34.214c-.2.145-.577.335-.933.618a35.34 35.34 0 0 0-3.058 2.507 92.47 92.47 0 0 0-8.457 8.844c-1.43 1.713-2.828 3.457-4.058 5.152a68.73 68.73 0 0 0-3.218 4.734c-.885 1.424-1.577 2.64-2 3.517l-.695 1.375.638-1.4c.4-.9 1.042-2.143 1.868-3.608a68.18 68.18 0 0 1 3.034-4.885c1.165-1.754 2.5-3.564 3.864-5.347 2.518-3.275 5.25-6.38 8.18-9.292.982-.98 2.02-1.903 3.1-2.763.4-.34.72-.514.936-.676l.33-.23zm3.044 1.095l-1.117.677-2.732 1.985a70.11 70.11 0 0 0-7.6 7.134c-2.373 2.564-4.582 5.275-6.614 8.117-.815 1.176-1.5 2.16-1.928 2.872l-.7 1.1.65-1.142a93.31 93.31 0 0 1 1.79-2.968c1.903-2.955 4-5.787 6.25-8.478 2.258-2.713 4.715-5.253 7.35-7.6 1.082-.965 2.055-1.7 2.766-2.22.7-.486 1.1-.738 1.1-.738zm54.2 62.964l-.4-.728a14 14 0 0 0-1.322-1.931c-1.75-2.143-3.93-3.893-6.4-5.138a17.34 17.34 0 0 0-5.115-1.758 9.07 9.07 0 0 0-2.824-.03 12.29 12.29 0 0 0-2.84.967l-6 2.994c-2.13 1-4.336 1.847-6.6 2.5a46.7 46.7 0 0 1-6.911 1.42 23.27 23.27 0 0 1-6.923-.122 26.91 26.91 0 0 1-11.275-4.355 19.24 19.24 0 0 1-3.626-3.207c-.812-.938-1.522-1.96-2.116-3.05-.376-.697-.698-1.423-.963-2.17l-.264-.794.35.76c.344.702.73 1.382 1.157 2.037a18.73 18.73 0 0 0 6 5.6 24.53 24.53 0 0 0 4.995 2.264 28.5 28.5 0 0 0 5.959 1.338 22.25 22.25 0 0 0 6.449-.128 50.2 50.2 0 0 0 6.633-1.459c2.175-.632 4.308-1.4 6.387-2.3l6.115-2.786a13.73 13.73 0 0 1 3.252-.969 10.39 10.39 0 0 1 3.285.195 18.51 18.51 0 0 1 5.374 2.159 18.98 18.98 0 0 1 6.175 5.84 14.25 14.25 0 0 1 1.132 2.086l.334.766m-.96 1.418l-.4-.72a13.22 13.22 0 0 0-1.312-1.909 16.35 16.35 0 0 0-2.541-2.491 15.27 15.27 0 0 0-3.981-2.217 13.72 13.72 0 0 0-5.207-.926 11.81 11.81 0 0 0-5.518 1.8l-5.973 3.06a41.26 41.26 0 0 1-13.607 3.28 28.15 28.15 0 0 1-6.792-.8c-3.924-.88-7.638-2.52-10.93-4.827a19.33 19.33 0 0 1-5.7-6.18c-.38-.687-.706-1.402-.974-2.14l-.267-.784.346.75a18.56 18.56 0 0 0 1.157 2.012 20.21 20.21 0 0 0 5.955 5.567c3.306 1.994 6.94 3.384 10.732 4.106a26.58 26.58 0 0 0 6.4.518 43.48 43.48 0 0 0 6.566-1.162 43.92 43.92 0 0 0 6.37-2.08c2.062-.823 4.005-1.824 5.962-2.8a12.74 12.74 0 0 1 6.26-1.72 15.04 15.04 0 0 1 12.025 6.816 13.51 13.51 0 0 1 1.107 2.077l.325.76m-98.696 43.114c-.175.176-.34.36-.493.556a6.9 6.9 0 0 0-.931 1.8 6.4 6.4 0 0 0-.345 2.994 6.96 6.96 0 0 0 1.441 3.492 13.45 13.45 0 0 0 1.462 1.657 18.87 18.87 0 0 0 1.916 1.476 26.69 26.69 0 0 0 4.66 2.557c1.76.794 3.558 1.495 5.4 2.1a58.13 58.13 0 0 0 5.766 1.633 46.43 46.43 0 0 0 5.878.938 27.35 27.35 0 0 0 5.687-.061 13.2 13.2 0 0 0 4.926-1.477 5.93 5.93 0 0 0 2.9-3.208 6.8 6.8 0 0 0 .131-3.836 14.43 14.43 0 0 0-1.1-2.964 20.71 20.71 0 0 0-1.018-1.81l-.392-.63.488.557a18.11 18.11 0 0 1 1.308 1.655 14.09 14.09 0 0 1 1.547 2.947 7.8 7.8 0 0 1 .308 4.462c-.505 1.797-1.662 3.34-3.246 4.328a14.9 14.9 0 0 1-5.53 2.067 26.3 26.3 0 0 1-6.169.339 37.26 37.26 0 0 1-6.256-.831 59.74 59.74 0 0 1-6.057-1.636 57.47 57.47 0 0 1-5.637-2.318 28.35 28.35 0 0 1-4.906-3.057 20.67 20.67 0 0 1-2-1.859c-.3-.33-.553-.7-.82-1.036a5.09 5.09 0 0 1-.7-1.065 7.99 7.99 0 0 1-1.153-4.389 6.7 6.7 0 0 1 .959-3.291 6.03 6.03 0 0 1 1.376-1.662 6.44 6.44 0 0 1 .608-.427m-3.048 1.204c-.222.165-.422.36-.593.577a6.28 6.28 0 0 0-1.087 2.025 7.09 7.09 0 0 0-.218 3.488 9.63 9.63 0 0 0 1.9 4.081c2.088 2.638 5.47 4.884 9.33 6.705a63.27 63.27 0 0 0 6.142 2.44 46.46 46.46 0 0 0 6.566 1.816 34.27 34.27 0 0 0 13.262.243 16.62 16.62 0 0 0 5.645-2.144c1.55-.915 2.782-2.283 3.532-3.92a7.6 7.6 0 0 0 .413-4.47 11.88 11.88 0 0 0-1.276-3.35c-.377-.684-.8-1.34-1.268-1.967l-.5-.67.548.628a16.24 16.24 0 0 1 1.427 1.884c.674 1.04 1.185 2.177 1.515 3.372a8.18 8.18 0 0 1-.176 4.848c-.753 1.82-2.044 3.365-3.7 4.43a17.65 17.65 0 0 1-5.912 2.5c-4.546.93-9.234.92-13.776-.027a47.83 47.83 0 0 1-6.773-1.786 54.72 54.72 0 0 1-6.265-2.59 36.19 36.19 0 0 1-5.472-3.268 18.85 18.85 0 0 1-4.044-4.1 9.98 9.98 0 0 1-1.794-4.554 7.6 7.6 0 0 1 .565-3.706 5.74 5.74 0 0 1 1.339-1.971 3.12 3.12 0 0 1 .666-.507m-13.726-35.394c-.303.3-.53.672-.66 1.08a3.11 3.11 0 0 0 .507 2.98c.427.57.952 1.057 1.552 1.44a12.33 12.33 0 0 0 2.14 1.175 25.33 25.33 0 0 0 2.477.967l2.658.74a11.97 11.97 0 0 0 1.344.255 10.25 10.25 0 0 0 1.347.173 13.09 13.09 0 0 0 2.611-.022 6 6 0 0 0 2.272-.66 2.83 2.83 0 0 0 1.327-1.482 2.7 2.7 0 0 0 .147-.905v-.442l-.094-.415a6.24 6.24 0 0 0-.492-1.365l-.646-1.122.823 1.018c.28.426.5.884.684 1.364l.156.44.063.5a2.98 2.98 0 0 1-.056 1.1 3.53 3.53 0 0 1-1.5 1.969 6.86 6.86 0 0 1-2.532.954 7.14 7.14 0 0 1-1.4.16 9.79 9.79 0 0 1-1.433 0 15.58 15.58 0 0 1-2.881-.382c-.987-.2-1.845-.464-2.78-.74a26.6 26.6 0 0 1-2.59-1.065c-.797-.4-1.552-.862-2.254-1.406a6.58 6.58 0 0 1-1.616-1.821c-.37-.606-.552-1.308-.527-2.017a3.2 3.2 0 0 1 .444-1.51 2.66 2.66 0 0 1 .628-.765 2.87 2.87 0 0 1 .28-.2m-1.396.56a2.48 2.48 0 0 0-.732 1.22c-.327 1.198-.074 2.48.684 3.463a11.03 11.03 0 0 0 4.167 3.118 26.47 26.47 0 0 0 2.791 1.148c.98.36 1.98.655 3 .882a17.45 17.45 0 0 0 6.068.357c1.893-.233 3.706-1 4.4-2.336a2.99 2.99 0 0 0 .323-1.977c-.097-.54-.28-1.062-.545-1.543a7.77 7.77 0 0 0-.565-.918l-.222-.314.26.284a7.24 7.24 0 0 1 .68.858 5.25 5.25 0 0 1 .717 1.566 3.37 3.37 0 0 1-.173 2.28 4.51 4.51 0 0 1-1.916 1.94 9 9 0 0 1-2.834.986 17.16 17.16 0 0 1-6.407-.22c-2.098-.42-4.13-1.125-6.038-2.092a10.35 10.35 0 0 1-4.287-3.652 4.55 4.55 0 0 1-.69-2.2c-.02-.593.1-1.183.35-1.72a2.68 2.68 0 0 1 .645-.9c.094-.1.2-.167.315-.228m118.486-13.095c.16.053.3.15.4.276.322.353.568.768.725 1.22a10.7 10.7 0 0 1 .466 5.021 16.5 16.5 0 0 1-2.437 6.753c-.7 1.16-1.537 2.243-2.468 3.234a25.7 25.7 0 0 1-3.057 2.81 39.54 39.54 0 0 1-6.756 4.463 17.7 17.7 0 0 1-6.848 2.081c-.994.074-2-.08-2.916-.45a3.69 3.69 0 0 1-1.741-1.454c-.247-.406-.417-.855-.5-1.324l-.063-.487.166.457a4.12 4.12 0 0 0 .714 1.115 3.37 3.37 0 0 0 1.677.97 6.25 6.25 0 0 0 2.542.024 19.32 19.32 0 0 0 6.106-2.512 52.14 52.14 0 0 0 6.306-4.481c1.016-.808 1.983-1.676 2.894-2.6a25.47 25.47 0 0 0 2.376-2.865c1.277-1.8 2.22-3.817 2.786-5.95.418-1.524.532-3.114.337-4.682-.06-.44-.194-.867-.4-1.26a.91.91 0 0 0-.317-.35"/><path d="M329.088 222.338c.177.062.34.157.48.28a4.55 4.55 0 0 1 1.036 1.209 9.63 9.63 0 0 1 1.268 5.555 17.05 17.05 0 0 1-2.54 7.7 28.02 28.02 0 0 1-2.64 3.715 45.36 45.36 0 0 1-3.228 3.4 37.04 37.04 0 0 1-3.629 2.944 27.36 27.36 0 0 1-3.932 2.312 17.65 17.65 0 0 1-7.872 1.908 8.61 8.61 0 0 1-3.228-.635 4.88 4.88 0 0 1-2.048-1.494 3.64 3.64 0 0 1-.7-1.441 5.2 5.2 0 0 1-.09-.548 3.71 3.71 0 0 0 1.09 1.708 6.46 6.46 0 0 0 4.941 1.219 18.87 18.87 0 0 0 7.074-2.35 31.66 31.66 0 0 0 3.587-2.311 35.02 35.02 0 0 0 3.4-2.855l3.1-3.166a34.03 34.03 0 0 0 2.611-3.379 18.04 18.04 0 0 0 2.907-6.846 9.98 9.98 0 0 0-.445-5.242 4.92 4.92 0 0 0-.746-1.316 1.46 1.46 0 0 0-.4-.363m-75.332 58.028a9.86 9.86 0 0 1-.21-1.437l-.1-1.667c-.035-.646.006-1.373.032-2.167a39.3 39.3 0 0 1 .71-5.377 50.24 50.24 0 0 1 1.66-5.985l1.1-2.954 1.2-2.8 1.24-2.564 1.234-2.23c.757-1.384 1.52-2.462 1.994-3.245l.8-1.2-.587 1.32-1.56 3.452-2.064 4.92-1.06 2.808-1 2.927-.894 2.957-.76 2.9-1.1 5.187-.528 3.733-.1 1.437m-1.965-.768a10 10 0 0 1-.21-1.436l-.1-1.668c-.035-.646.006-1.372.033-2.167a39.29 39.29 0 0 1 .709-5.377 50.22 50.22 0 0 1 1.659-5.984l1.1-2.954 1.2-2.8 1.24-2.565 1.234-2.23c.757-1.383 1.52-2.46 1.994-3.245l.8-1.2-.587 1.32-1.56 3.452-2.064 4.92-1.058 2.808-1 2.926-.894 2.957-.76 2.9-1.1 5.188-.528 3.732-.1 1.437m-1.964-.765a8.72 8.72 0 0 1-.2-1.437l-.1-1.667c-.035-.647.006-1.373.033-2.167.1-1.807.35-3.603.7-5.377a50 50 0 0 1 1.658-5.985l1.1-2.954 1.2-2.8 1.24-2.564 1.234-2.23c.757-1.384 1.52-2.46 1.994-3.245l.8-1.2-.588 1.32-1.56 3.452-2.064 4.92-1.058 2.808-1 2.926-.894 2.957-.76 2.892-1.1 5.188-.53 3.732-.1 1.437M30.077 182.74l2.3-1.95 2.854-2.278 1.84-1.422 2.14-1.52c3-2.175 6.794-4.573 11.217-7.207 4.468-2.556 9.606-5.276 15.37-7.9 5.774-2.592 12.108-5.245 18.97-7.6s14.2-4.566 21.888-6.387c7.7-1.795 15.7-3.46 23.94-4.562a246.66 246.66 0 0 1 25.048-2.3c4.2-.254 8.426-.226 12.622-.288 2.1-.028 4.193.075 6.28.106 2.087.068 4.17.048 6.24.2 4.14.255 8.25.414 12.292.854l6.03.56 5.92.764c3.922.46 7.745 1.137 11.5 1.77 3.756.57 7.38 1.4 10.925 2.1 3.555.67 6.955 1.583 10.265 2.363 3.317.756 6.478 1.658 9.512 2.518 6.1 1.6 11.553 3.557 16.438 5.1l12.458 4.545 10.7 4.323-10.8-4.072-12.545-4.25c-4.9-1.43-10.4-3.208-16.506-4.72-3.04-.8-6.2-1.66-9.52-2.362-3.3-.727-6.7-1.583-10.26-2.2-3.543-.647-7.16-1.42-10.9-1.93-3.736-.57-7.55-1.185-11.457-1.582l-5.894-.7-6-.5c-4.02-.4-8.1-.52-12.223-.737-2.057-.135-4.126-.1-6.2-.144-2.073-.012-4.153-.1-6.237-.05-4.166.1-8.352.1-12.527.4-8.36.383-16.68 1.3-24.83 2.443-8.16 1.107-16.1 2.773-23.723 4.564s-14.866 4.063-21.678 6.33c-6.8 2.286-13.1 4.87-18.826 7.4-5.723 2.554-10.8 5.233-15.272 7.665-4.4 2.532-8.2 4.84-11.187 6.937l-2.134 1.464-1.82 1.36c-1.13.84-2.094 1.555-2.847 2.2l-2.336 1.912zm-4.137-.333l2.3-1.986 2.822-2.333 3.933-3.035 2.36-1.743L40 171.493l6.075-3.943c4.423-2.672 9.5-5.58 15.232-8.317 5.73-2.756 12.03-5.572 18.877-8.065a218.52 218.52 0 0 1 21.86-6.833 244.25 244.25 0 0 1 23.977-4.949 243.27 243.27 0 0 1 25.128-2.619c4.225-.3 8.46-.315 12.674-.438 2.107-.03 4.2.03 6.308.04 2.1.028 4.2.013 6.268.138 4.16.186 8.3.328 12.356.7l6.06.5 5.956.68c7.874.926 15.437 2.2 22.566 3.575 3.58.6 7.005 1.5 10.346 2.2s6.53 1.568 9.6 2.356 6 1.554 8.76 2.418l7.852 2.348 12.616 4.27 10.87 4.053-10.957-3.8c-3.5-1.157-7.8-2.44-12.7-3.974-4.966-1.317-10.512-3-16.676-4.4-3.072-.74-6.258-1.558-9.6-2.2s-6.766-1.484-10.342-2.036c-7.122-1.27-14.668-2.4-22.515-3.2l-5.93-.617-6.03-.438c-4.044-.343-8.15-.446-12.285-.594-2.067-.1-4.146-.07-6.23-.08-2.083.01-4.172-.032-6.265.018-4.182.16-8.386.2-12.575.55-8.4.48-16.737 1.516-24.9 2.763a241.41 241.41 0 0 0-23.75 4.947c-7.636 1.92-14.856 4.345-21.644 6.767s-13.044 5.17-18.73 7.86c-5.7 2.668-10.713 5.532-15.14 8.08-2.172 1.343-4.24 2.55-6.063 3.8l-2.652 1.753-2.356 1.682c-1.5 1.048-2.795 2.047-3.913 2.92-1.128.856-2.076 1.6-2.826 2.26l-2.322 1.95zm-4.608.72l2.3-2.3c.723-.764 1.726-1.635 2.876-2.68 1.136-1.068 2.507-2.2 4.05-3.45a134.85 134.85 0 0 1 11.61-8.407c5.2-3.35 10.592-6.428 16.124-9.217 6.1-3.038 12.84-6.013 20.116-8.815 7.3-2.74 15.153-5.186 23.367-7.37 8.24-2.1 16.85-3.847 25.67-5.213 8.92-1.304 17.903-2.15 26.9-2.535 2.26-.155 4.526-.155 6.787-.2l6.776-.07c4.508.135 9 .1 13.45.442l6.643.4 6.557.633c4.353.355 8.62 1 12.822 1.572l3.136.443 9.18 1.635c4.02.7 7.9 1.674 11.7 2.466 7.56 1.793 14.67 3.646 21.14 5.664l4.765 1.43 4.493 1.542 8.285 2.87 13.273 5.185 11.4 4.9-11.5-4.653c-3.676-1.436-8.208-3-13.366-4.892l-8.33-2.685-4.513-1.44-4.775-1.346c-6.482-1.918-13.595-3.662-21.15-5.34-3.8-.733-7.673-1.637-11.684-2.285l-9.157-1.5-3.127-.4c-4.186-.517-8.43-1.135-12.763-1.448l-6.522-.575q-3.287-.167-6.6-.337c-4.418-.3-8.885-.228-13.36-.325-2.24-.017-4.482.088-6.726.127-2.246.058-4.494.077-6.735.25-8.985.4-17.917 1.462-26.675 2.68a276.03 276.03 0 0 0-25.428 5.208c-8.14 2.164-15.9 4.653-23.14 7.3-7.216 2.73-13.912 5.633-19.954 8.6-6.005 3.038-11.4 6.053-16.014 8.967a133.64 133.64 0 0 0-11.57 8.117c-1.54 1.212-2.907 2.3-4.02 3.32-1.136 1-2.12 1.823-2.863 2.587l-2.324 2.26zm215.394 110.96l.057.97c.012.316.075.65.12 1.062s.14.876.224 1.386a50.11 50.11 0 0 0 2.081 7.393 60.57 60.57 0 0 0 3.047 7.106c.524 1.053 1.125 2.065 1.8 3.028a23.67 23.67 0 0 1-2-2.914c-1.325-2.238-2.505-4.558-3.534-6.947a51.18 51.18 0 0 1-2.612-7.394 25.31 25.31 0 0 1-.535-2.592l-.122-.963zm-21.518-47.092l.03.65a14.97 14.97 0 0 0 .2 1.611 30.19 30.19 0 0 0 1.356 4.917 39.05 39.05 0 0 0 2.058 4.73 18.24 18.24 0 0 0 1.205 2.022c-.507-.603-.974-1.238-1.4-1.9a39.51 39.51 0 0 1-2.543-4.563 31.19 31.19 0 0 1-1.893-4.926 16.49 16.49 0 0 1-.392-1.754l-.093-.643zm25.512 49.5l.066 1.74c.08 1.27.23 2.536.453 3.8s.5 2.518.863 3.753l.54 1.674s-.334-.622-.758-1.6a36.6 36.6 0 0 1-1.366-3.655 35 35 0 0 1-.975-3.814l-.3-1.758zm3.74.958l-.1.873c-.065.523-.115 1.2-.13 1.9l.042 1.935.094.88s-.145-.326-.32-.834l-.552-1.9-.383-1.967-.123-.893zm134.7-202.905l.852-.466c.28-.144.556-.344.9-.56s.733-.5 1.157-.794c2.06-1.527 3.998-3.2 5.8-5.034 1.83-1.817 3.544-3.75 5.128-5.786a23.42 23.42 0 0 0 1.972-2.92 23.72 23.72 0 0 1-1.783 3.053 60.73 60.73 0 0 1-4.777 6.159 51.08 51.08 0 0 1-5.574 5.516c-.678.565-1.384 1.096-2.115 1.6l-.82.52zm.465-4.63l1.547-.8a36.29 36.29 0 0 0 3.235-2.025 36.41 36.41 0 0 0 3.026-2.382l1.284-1.2-1.12 1.365c-.858.98-1.768 1.912-2.725 2.795a34.79 34.79 0 0 1-3.034 2.507l-1.462 1.02zm-.73-3.8l.836-.273 1.782-.7 1.733-.864.757-.46s-.233.27-.618.646-.92.857-1.485 1.3l-1.617 1.185-.755.5zM296.856 16.98l.7-.56a24.22 24.22 0 0 1 2.028-1.379 47.82 47.82 0 0 1 6.495-3.239 57.12 57.12 0 0 1 6.814-2.361c1.05-.3 2.118-.52 3.2-.663a22.18 22.18 0 0 0-3.134.885 56.55 56.55 0 0 0-6.573 2.812c-2.126 1.047-4.17 2.253-6.113 3.6l-1.792 1.4-.66.6zm4.184.927l1.336-.97a32.69 32.69 0 0 1 3.112-1.9 34.32 34.32 0 0 1 3.265-1.544l1.53-.572-1.428.78a33.46 33.46 0 0 0-2.972 1.963 31.9 31.9 0 0 0-2.721 2.244l-1.157 1.122zm2.995 1.813l.663-.5 1.534-1.048a18.55 18.55 0 0 1 2.355-1.239 18.16 18.16 0 0 0-1.88 1.81l-1.125 1.364-.483.655zm-30.185-.8l.5-.68c.338-.43.88-1.076 1.526-1.746a46.78 46.78 0 0 1 5.147-4.536c1.798-1.392 3.68-2.67 5.635-3.832a21.54 21.54 0 0 1 2.753-1.405 21.56 21.56 0 0 0-2.629 1.6 55.03 55.03 0 0 0-5.285 4.207c-1.677 1.483-3.244 3.087-4.686 4.8l-1.293 1.72-.457.715zm3.992-.24l1-1.2a31.54 31.54 0 0 1 2.4-2.478c.834-.777 1.707-1.5 2.615-2.2l1.26-.893L284 12.987c-.784.804-1.526 1.647-2.224 2.527a30.67 30.67 0 0 0-1.933 2.715l-.785 1.3zm3.118.857l.5-.62 1.166-1.315a18.19 18.19 0 0 1 1.868-1.685 18.06 18.06 0 0 0-1.266 2.116l-.7 1.52-.28.716zm49.214 225.367l-.058.97a25.65 25.65 0 0 1-.363 2.62c-.5 2.567-1.22 5.1-2.12 7.55a60.9 60.9 0 0 1-3.069 7.166 23.7 23.7 0 0 1-1.8 3.04 23.68 23.68 0 0 0 1.6-3.14 60.71 60.71 0 0 0 2.572-7.292 50.4 50.4 0 0 0 1.59-7.514l.133-1.4.048-1.068-.006-.97zm-3.032 3.176l-.313 1.755a34.48 34.48 0 0 1-1 3.807 36.36 36.36 0 0 1-1.392 3.646l-.77 1.6s.254-.658.552-1.67a36.17 36.17 0 0 0 .89-3.747 34.42 34.42 0 0 0 .48-3.786l.078-1.74zm-3.077 1.652l-.13.892-.4 1.964-.566 1.9-.326.832.1-.88a20.1 20.1 0 0 0 .056-1.936l-.117-1.9-.1-.874zm-61.95-202.1a10.37 10.37 0 0 1 1.339-1.225c1.417-1.05 3.037-1.795 4.757-2.184a10.57 10.57 0 0 1 5.2.006 6.4 6.4 0 0 1 2.247 1.09l.152-3.78s-.268.16-.715.374l-1.78.788a29.84 29.84 0 0 1-5.112 1.51 29.11 29.11 0 0 1-5.288.628c-.634.012-1.268-.008-1.9-.06a6.33 6.33 0 0 1-.739-.106l1.353 3.53a6.48 6.48 0 0 1 .479-.572"/><path d="M277.702 62.78c-.143.1-.294.2-.452.3l3.686.843-.1-.144 3.462.864a3.6 3.6 0 0 1-.287-.413 5.27 5.27 0 0 1-.484-1 4.04 4.04 0 0 1 .062-2.73 3.67 3.67 0 0 1 1.819-1.989 3.2 3.2 0 0 1 1.019-.267 2.5 2.5 0 0 1 .456.005l-3.006-2.294a5.72 5.72 0 0 0 .067.54l.075 1.2a7.5 7.5 0 0 1-.433 2.8 5.91 5.91 0 0 1-1.581 2.309 6.07 6.07 0 0 1-.929.689l-.307.166-.117-.2a5.92 5.92 0 0 1-.464-1.136 5.3 5.3 0 0 1 .148-3.174 4.63 4.63 0 0 1 1.99-2.426 3.53 3.53 0 0 1 1.1-.384 2.6 2.6 0 0 1 .488-.029l-2.98-2.328s.025.24.025.6l-.012 1.342a10.72 10.72 0 0 1-.608 3.229 8.32 8.32 0 0 1-1.69 2.776 7.26 7.26 0 0 1-.949.858m-11.556 29.72l2.053 2.6a28.09 28.09 0 0 1 1.7 2.583c.532.822.877 1.7 1.27 2.435.346.767.586 1.5.806 2.133l.38 1.658.047.692a6.29 6.29 0 0 1 2.379.15l1.332-.316-.872-1.616-1.1-1.656-1.5-1.964-1.872-2.158-2.142-2.3-2.335-2.382-2.472-2.384-1.134-1.055 1.113 1.076c.832.793 1.582 1.668 2.343 2.5m-3.678-3.783l.226.2-.226-.2m-.602-44.795c.372-.45.8-.86 1.248-1.224a10.3 10.3 0 0 1 4.493-1.988 11.31 11.31 0 0 1 4.906.058 6.87 6.87 0 0 1 2.155.924l-.023-3.782s-.24.157-.65.367l-1.638.787c-1.538.67-3.128 1.213-4.755 1.622a17.57 17.57 0 0 1-4.944.615 12.43 12.43 0 0 1-1.805-.18c-.443-.08.473 1.22.473 1.22l.1 2.168a5.7 5.7 0 0 1 .439-.587m95.25 49.025v.107-.107m-63.214 15.862l-.838.783 3.155 2.083.45-1.573c.113-.483.172-1.072.307-1.7l.193-2.13.04-2.45q0-.64 0-1.315-.027-.668-.056-1.363l-.152-2.832-.244-2.906-.293-2.9-.313-2.814-.63-5.045-.308-2.077-.264-1.642-.2-1.383-3.4 1.536-.024-.544-3.442 1.566c.34.305.66.63.957.976a11.35 11.35 0 0 1 .908 1.146c.374.5.705 1.052 1 1.618a17.15 17.15 0 0 1 .925 2.065 23.44 23.44 0 0 1 .752 2.4 24.95 24.95 0 0 1 .484 2.655l.248 2.776c.08.93.02 1.867.025 2.782-.043.896-.132 1.8-.268 2.676-.1.825-.27 1.643-.482 2.448-.177.77-.473 1.456-.675 2.1l-.812 1.626-.776 1.1-.786.77 3.156 2.085.463-1.476a22.82 22.82 0 0 0 .6-3.672l.1-2.355-.02-2.58-.154-2.723-.266-2.785-.73-5.444-.664-4.805-.435-3.6-.074-.73.844 1a11.4 11.4 0 0 1 .863 1.224 12.1 12.1 0 0 1 .962 1.709 20 20 0 0 1 .951 2.155c.3.78.55 1.628.812 2.506l.594 2.755c.173.956.293 1.92.36 2.9.106.97.087 1.95.1 2.908l-.2 2.8a18.23 18.23 0 0 1-.45 2.582c-.177.755-.403 1.497-.677 2.222-.236.594-.5 1.172-.82 1.73a13.69 13.69 0 0 1-.811 1.158m-56.98-3.808a14.85 14.85 0 0 1 1.734-.474c.764-.187 1.54-.325 2.32-.414a26.37 26.37 0 0 1 2.807-.24c1-.054 2.057-.043 3.15-.007l3.357.3 3.432.57c1.148.208 2.273.526 3.382.813l3.2 1.054a30.63 30.63 0 0 1 2.882 1.236 26.98 26.98 0 0 1 2.445 1.338c.726.452 1.344.94 1.885 1.347l1.26 1.186.474.6.252.083.393.165.346-.373c-.33-1.097-.52-2.23-.566-3.375l-.953-.4-2.37-.818-2.788-.785-3.1-.75-3.3-.717-3.425-.638-3.432-.582-3.33-.55-5.975-.923-2.45-.342-1.94-.25-1.64-.233.406 3.726.068.007 1.486-.547m33.5 7.78l-.53-.222-.257.277-.388-.525-2.257-.747-2.947-.814-3.28-.8-3.5-.76-3.62-.705-3.63-.65-3.524-.616-3.313-.57-3-.467-2.588-.372-2.152-.272-.065.028v-.035l-1.57-.205.4 3.76 1.648-.57a17.6 17.6 0 0 1 1.833-.454 20.82 20.82 0 0 1 2.467-.378c.917-.133 1.916-.14 2.976-.193l3.335.05a48.93 48.93 0 0 1 7.186.961c1.214.225 2.4.562 3.583.858l3.4 1.1c1.1.38 2.113.833 3.07 1.274.897.4 1.77.87 2.618 1.376.8.45 1.442.973 2.04 1.378l1.367 1.225.92 1.178 1.035-1.116a19.99 19.99 0 0 1-1.24-3.013m69.003-30.064a20.44 20.44 0 0 1-1.247 1.63c-.436.498-.9.97-1.387 1.417a12.3 12.3 0 0 1-1.446 1.139 10.67 10.67 0 0 1-1.407.81 5.7 5.7 0 0 1-2.208.56h-.04l.5-.617 2.26-3.056 1.2-1.7 1.216-1.76 4.6-6.52.926-1.294.1-.16.016.222a8.5 8.5 0 0 1 .007 1.041 8.71 8.71 0 0 1-.153 1.37c-.493 2.5-1.506 4.85-2.973 6.922m3.867-10.12l-.32-.084.2-.275-.365-1.094-2.673-.707a9.93 9.93 0 0 1 .107 1.047 8.03 8.03 0 0 1 0 1.078 8.76 8.76 0 0 1-.169 1.428 16.39 16.39 0 0 1-1.1 3.494c-.28.632-.593 1.248-.937 1.848a18.28 18.28 0 0 1-1.148 1.8c-.4.593-.868 1.136-1.314 1.677-.454.515-.936 1.004-1.443 1.466-.875.82-1.86 1.517-2.923 2.07a10.33 10.33 0 0 1-1.277.5 8.77 8.77 0 0 1-.972.168 4.8 4.8 0 0 1-.75-.1l.027.106a30.24 30.24 0 0 1 2.873 1.94l.08-.08.045.17 2.207 1.537.43-.44 1-1.207 1.067-1.4 1.127-1.535 1.183-1.618 6.37-8.897a20.3 20.3 0 0 1-1.3-2.9m9.982 31.77l2.328 1.943.436-1.192c.127-.362.2-.813.343-1.292.118-.483.178-1.033.3-1.6l.2-1.83.134-2c.065-.682.038-1.393.1-2.1l.018-2.157v-1.04l-.038 1.04c-.072 1.407-.298 2.803-.673 4.16a13.53 13.53 0 0 1-.636 1.82 16.15 16.15 0 0 1-.773 1.518 11.91 11.91 0 0 1-.829 1.126l-.7.656.15-.993.175-1.938.1-2.114.055-2.23-.014-2.287-.076-4.494.015-4 .037-1.72.495.567a7.33 7.33 0 0 1 .662.905 7.73 7.73 0 0 1 .7 1.278 15.61 15.61 0 0 1 1.335 6.592l-.005-3.1.035-3.78.05-2.868.02-.476c-.577.087-1.163.095-1.742.026l-1.54.535.02-.9c-.018-.007-.036-.007-.054-.014l-1.536-.6c-.025-.01-.046-.026-.07-.037l-1.843.612a9 9 0 0 1 .742.861 8.59 8.59 0 0 1 .677.978 9.27 9.27 0 0 1 .71 1.38 18.13 18.13 0 0 1 1.311 8.233c-.02.763-.12 1.523-.206 2.268a21.53 21.53 0 0 1-.428 2.159 15.04 15.04 0 0 1-.612 1.952c-.22.6-.526 1.143-.756 1.642-.277.478-.57.888-.82 1.235l-.75.78-.72.472 2.934 2.386.466-1.263c.1-.323.192-.706.284-1.118M313.85 85.1l-2.823-2.684-2.86-2.594-2.432-2.434-.986-1.083-.17-.2.462.013a6.78 6.78 0 0 1 .991.1 6.87 6.87 0 0 1 1.27.3c2.242.758 4.267 2.05 5.9 3.763a18 18 0 0 1 1.28 1.422 16.29 16.29 0 0 1 1.063 1.516c.306.486.573.995.8 1.523.396.832.633 1.73.7 2.65a7.05 7.05 0 0 1-.061.881l-.084.237-.647-.842-2.4-2.582m2.24 6.144a9.6 9.6 0 0 1 1.253-2.09l-.162-.262.4-.026a5.72 5.72 0 0 1 2.22-1.573l-.5-.772-.936-1.152-2.387-2.48-1.35-1.3-1.4-1.3-5.148-4.982-1.793-1.87a9.07 9.07 0 0 1-.633-.737l-1.4 3.055-.295-.336a6.22 6.22 0 0 1-.462-.587l-.16-.22-1.6 3.43.27-.02a5.82 5.82 0 0 1 .745-.023c.344.002.688.028 1.03.078a6.86 6.86 0 0 1 1.309.314 11.73 11.73 0 0 1 3 1.532 14.01 14.01 0 0 1 1.471 1.2 18.21 18.21 0 0 1 1.384 1.386c.876.94 1.65 1.968 2.306 3.072a12.36 12.36 0 0 1 1.328 3.01c.115.46.16.878.225 1.233l-.027.892-.213.64zm-9.533-53.472l-.267-.127-1.547-.584-1.957-.606-4.805-1.214-5.452-1.178-5.457-1.076-4.825-.98-2.005-.386-1.627-.283a13.3 13.3 0 0 1-1.345-.258l.486 3.75a16.41 16.41 0 0 1 1.235-.583c.44-.185.9-.34 1.352-.465.612-.176 1.235-.307 1.866-.392.754-.116 1.514-.188 2.276-.216l2.556.048a25.6 25.6 0 0 1 2.714.318c.923.13 1.842.357 2.764.564a35.93 35.93 0 0 1 5.27 1.73 24.45 24.45 0 0 1 2.3 1.089c.72.364 1.35.8 1.944 1.16.552.363 1 .755 1.43 1.08l-1.672-.412-5.018-.88-2.8-.4-2.884-.35-5.674-.668-5-.7-2.05-.307-1.638-.25-1.38-.25.485 3.75s.457-.25 1.27-.587a13.27 13.27 0 0 1 1.418-.5 16.63 16.63 0 0 1 1.922-.465c.77-.154 1.55-.266 2.332-.337l2.624-.123 2.8.118c.955.062 1.917.2 2.878.348a36.86 36.86 0 0 1 5.545 1.308 24.44 24.44 0 0 1 2.445.919c.77.3 1.444.7 2.077 1.03.624.342 1.134.747 1.6 1.05l1.05.947.662.907.278-.317c-.022-1.86 1.022-3.8 1.8-5.237m-3.094 20.363l-.43-.6c-.17-.258-.318-.53-.44-.815a8.74 8.74 0 0 1-.468-5.065 8.01 8.01 0 0 1 .382-1.35 6.03 6.03 0 0 1 .61-1.212 4.77 4.77 0 0 1 .813-.963 3.79 3.79 0 0 1 .9-.637 2.29 2.29 0 0 1 1.5-.2c.045.016.06.03.1.045l-.383.694a14.79 14.79 0 0 0-.84 2.579l-.3 1.4-.24 1.428-.216 1.423-.216 1.387-.453 2.3-.33-.4m.28.643l-.394 1.642 1.07.417a2.1 2.1 0 0 1 .445.246l1.817-.4c-.195-.174-.377-.362-.545-.562a5.33 5.33 0 0 1-.492-.626c-.2-.265-.37-.553-.5-.86-.347-.758-.562-1.57-.633-2.4a8.6 8.6 0 0 1 .2-2.814c.102-.468.245-.927.428-1.37a8.1 8.1 0 0 1 .616-1.237 6.28 6.28 0 0 1 .79-.995 4.13 4.13 0 0 1 .852-.68 2.28 2.28 0 0 1 1.394-.328c.158.037.3.092.455.165l-.57-1.73-.35-.136c-.453-.18-.868-.44-1.224-.774l-.458.6v.008l-.948-3.028-.7.753c-.2.234-.388.536-.6.837l-.564 1.048-.48 1.176-.44 1.25-.415 1.3-.4 1.348c-.157.447-.233.914-.38 1.364l-.326 1.35-.565 2.506-.216 1.1-.167.856-.188.707 3.508-.8-.01.044m-25.237 41.66l-1.05-1.632-1.462-1.918-1.83-2.1-1.005-1.108-1.088-1.1-2.288-2.3L267.346 88c-3.273-3.03-6.645-5.944-9.276-8.154-.67-.535-1.26-1.06-1.84-1.5-.3-.217-.562-.44-.813-.644q-1.713.756-3.264 1.48l-.072.155-.1-.08-3.43 1.635c.272.055.688.146 1.25.3a14.73 14.73 0 0 1 1.688.537c.732.256 1.447.56 2.14.907a26 26 0 0 1 2.451 1.3c.847.505 1.714 1.082 2.6 1.7.86.644 1.76 1.307 2.608 2.054.4.336.8.686 1.177 1.043l-1.15-1.072c-.814-.788-1.665-1.508-2.447-2.256l-4.42-3.995-1.92-1.686a26.85 26.85 0 0 1 .973.194 14.01 14.01 0 0 1 1.649.46 15.62 15.62 0 0 1 2.1.8 25.58 25.58 0 0 1 2.42 1.175c.837.46 1.692 1 2.57 1.564.847.607 1.75 1.2 2.6 1.913.864.677 1.7 1.413 2.508 2.183.83.745 1.57 1.583 2.33 2.375.7.847 1.433 1.64 2.023 2.5.606.797 1.16 1.632 1.658 2.5a22.93 22.93 0 0 1 1.215 2.368 20.07 20.07 0 0 1 .74 2.079c.146.625.25 1.173.3 1.6.028.88.007 1.343.007 1.343l3.706-.747-.832-1.606"/><path d="M280.216 35.25l-.142.457c-.094.3-.262.74-.385 1.337a18.47 18.47 0 0 0-.555 5.22 14.61 14.61 0 0 0 2.37 7.646c.9 1.365 2.178 2.453 3.666 3.144a17 17 0 0 0 5.415.907c3.86.205 8.224.184 12.537 1.808 2.227.814 4.236 2.13 5.874 3.843a13.32 13.32 0 0 1 3.646 6.426 7.64 7.64 0 0 1-.312 3.888 15.02 15.02 0 0 1-1.658 3.512c-1.416 2.185-3.158 4.14-5.166 5.8a28.62 28.62 0 0 1-6.66 4.214c-2.446 1.152-5.115 1.752-7.818 1.758-.685-.077-1.36-.1-2.054-.24-.638-.152-1.264-.252-1.912-.448-1.3-.352-2.543-.763-3.773-1.185-2.46-.847-4.874-1.7-7.318-2.342a30.96 30.96 0 0 0-14.582-.446 28.34 28.34 0 0 0-3.436.906l-1.673.537-1.615.653c-.514.216-1.114.435-1.55.643l-1.532.808c-.507.27-.9.6-1.347.9s-.872.627-1.258 1a25.21 25.21 0 0 0-6.77 10.037 38.64 38.64 0 0 0-2.388 10.13 47.57 47.57 0 0 0-.115 8.073c.127 1.733.343 3.458.647 5.17l.318 1.818-1.45.3-.332-1.866a52.36 52.36 0 0 1-.676-5.316 48.99 48.99 0 0 1 .1-8.333 40.23 40.23 0 0 1 2.462-10.542 26.34 26.34 0 0 1 7.234-10.61 9.7 9.7 0 0 1 1.392-1.09c.496-.32.992-.72 1.5-.985l1.536-.8c.6-.3 1.116-.46 1.684-.7l1.672-.666 1.736-.548a29.73 29.73 0 0 1 3.579-.924 32.41 32.41 0 0 1 15.208.537c2.515.664 4.967 1.556 7.4 2.4 1.22.425 2.444.834 3.65 1.17.6.187 1.257.3 1.884.45.582.108 1.214.143 1.82.22a17.25 17.25 0 0 0 7.279-1.614c2.304-1.033 4.455-2.38 6.392-4a24.4 24.4 0 0 0 4.958-5.5 13.68 13.68 0 0 0 1.546-3.223c.405-1.078.52-2.244.334-3.38a12.36 12.36 0 0 0-3.278-5.945 14.56 14.56 0 0 0-5.487-3.715c-4.092-1.624-8.383-1.694-12.268-1.96-.978-.073-1.938-.154-2.876-.3a11.59 11.59 0 0 1-2.688-.73 9.36 9.36 0 0 1-3.859-3.4 14.73 14.73 0 0 1-2.209-7.9 18.61 18.61 0 0 1 .722-5.24c.142-.595.336-1.023.427-1.325l.155-.452m2.763 1.087l-.552 1.792a17.34 17.34 0 0 0-.689 5.209c.017 1.244.26 2.475.713 3.634a7.03 7.03 0 0 0 2.686 3.3 10.94 10.94 0 0 0 4.7 1.383l5.582.525a41.78 41.78 0 0 1 6.07.993 20.68 20.68 0 0 1 6.14 2.5 16.1 16.1 0 0 1 7.742 11.748 8.8 8.8 0 0 1 .1 1.957 4.44 4.44 0 0 1-.173 1.039l-.277.887c-.22.62-.48 1.223-.782 1.807s-.66 1.114-.992 1.676a30.15 30.15 0 0 1-5.178 5.79 36 36 0 0 1-6.438 4.539 22.3 22.3 0 0 1-7.551 2.665l-2.052.12-2.066-.23a38.88 38.88 0 0 1-3.833-.986l-7.378-2.38a37.15 37.15 0 0 0-14.59-1.824 32.63 32.63 0 0 0-6.879 1.45l-1.583.536-1.584.708a16.85 16.85 0 0 0-2.635 1.809c-3.358 2.72-5.344 6.52-6.7 10.046a39.5 39.5 0 0 0-2.251 10.19 49.64 49.64 0 0 0-.064 8.1c.2 2.24.415 4 .656 5.18l.32 1.822-1.452.3-.334-1.87c-.25-1.214-.473-3.02-.7-5.323a51.39 51.39 0 0 1 .04-8.347 41.1 41.1 0 0 1 2.312-10.6 22.83 22.83 0 0 1 1.206-2.82c.455-.964.976-1.896 1.56-2.8a27.03 27.03 0 0 1 1.967-2.674 20.73 20.73 0 0 1 2.476-2.392c.927-.768 1.93-1.44 3-2l1.588-.7c.57-.225 1.15-.42 1.74-.587a34.1 34.1 0 0 1 7.194-1.479 38.57 38.57 0 0 1 15.127 1.95c2.476.758 4.912 1.652 7.37 2.415a37.48 37.48 0 0 0 3.719.975c.6.128 1.2.133 1.815.2.614-.01 1.234-.064 1.85-.1a21.05 21.05 0 0 0 7.12-2.485 34.93 34.93 0 0 0 6.227-4.349 28.91 28.91 0 0 0 4.995-5.527c.308-.52.66-1.033.93-1.555s.513-1.06.712-1.614l.283-.886c.077-.254.124-.517.14-.782a7.61 7.61 0 0 0-.057-1.714 15.1 15.1 0 0 0-7.1-11.149 19.87 19.87 0 0 0-5.864-2.5c-1.953-.504-3.94-.864-5.947-1.076l-5.586-.623a11.41 11.41 0 0 1-4.894-1.544c-1.277-.862-2.242-2.113-2.753-3.566a10.7 10.7 0 0 1-.614-3.762 17.47 17.47 0 0 1 .867-5.231c.366-1.167.6-1.773.6-1.773"/><path d="M285.05 37.13l-.14.454a13.02 13.02 0 0 0-.38 1.332 11.57 11.57 0 0 0-.187 5.181 7.16 7.16 0 0 0 1.62 3.262 6.51 6.51 0 0 0 3.709 2.014c.794.124 1.596.186 2.4.188l2.6.152a40.87 40.87 0 0 1 5.551.805 25.59 25.59 0 0 1 11.331 5.474 20.24 20.24 0 0 1 4.491 5.355 19.94 19.94 0 0 1 1.512 7.146 13.33 13.33 0 0 1-.081 1.906 8.93 8.93 0 0 1-.5 1.882c-.467 1.196-1.065 2.336-1.783 3.4-4.463 6.473-10.794 11.43-18.15 14.2-1.3.4-2.633.633-3.986.666a11.02 11.02 0 0 1-2.053-.189 33.53 33.53 0 0 1-1.921-.427c-2.538-.643-4.98-1.472-7.407-2.244-4.83-1.555-9.655-2.92-14.417-3.106a24.92 24.92 0 0 0-6.912.623 17.27 17.27 0 0 0-6.023 2.56 19.97 19.97 0 0 0-7.036 9.606 35.33 35.33 0 0 0-2.068 10.137c-.17 2.682-.124 5.372.132 8.047.208 2.228.5 3.967.7 5.15l.35 1.808-1.45.3-.36-1.848c-.208-1.2-.507-2.988-.722-5.274-.266-2.753-.313-5.523-.14-8.283a36.77 36.77 0 0 1 2.153-10.567 21.23 21.23 0 0 1 7.623-10.27c3.9-2.63 8.87-3.57 13.812-3.357 4.978.224 9.908 1.665 14.752 3.25 2.428.788 4.854 1.625 7.316 2.263.62.16 1.214.3 1.858.424a9.91 9.91 0 0 0 1.8.177c1.24-.026 2.47-.226 3.653-.594a37.54 37.54 0 0 0 17.6-13.651c1.346-2.05 2.408-4.208 2.257-6.58-.023-2.326-.47-4.628-1.32-6.793a19.62 19.62 0 0 0-4.2-5.14 24.9 24.9 0 0 0-10.948-5.491 40.3 40.3 0 0 0-5.463-.879 61.71 61.71 0 0 0-2.57-.19c-.825-.015-1.647-.094-2.46-.234a6.73 6.73 0 0 1-3.86-2.222 7.44 7.44 0 0 1-1.586-3.426c-.286-1.748-.17-3.538.335-5.236a13.51 13.51 0 0 1 .417-1.322l.155-.45m-37.472 86.463l-.226-.705-.53-2.1a41.02 41.02 0 0 1-.793-7.557c-.06-3.573.246-7.144.917-10.654a33.91 33.91 0 0 1 1.658-5.838 16.9 16.9 0 0 1 3.275-5.454 19.83 19.83 0 0 1 4.957-3.861 14.85 14.85 0 0 1 5.855-1.731 21.57 21.57 0 0 1 5.644.351c1.645.3 3.274.706 4.88 1.183 2.98.86 5.408 1.716 7.132 2.245l2.7.833-2.75-.7-7.22-1.914a29.53 29.53 0 0 0-10.311-1.173 13.93 13.93 0 0 0-5.436 1.8 20.62 20.62 0 0 0-4.614 3.789 15.72 15.72 0 0 0-2.934 5.08 32.64 32.64 0 0 0-1.517 5.632 50.62 50.62 0 0 0-.749 10.369 41.92 41.92 0 0 0 .759 7.286 23.64 23.64 0 0 0 .482 1.956l.226.7z"/><path d="M266.8 34.087l-.337.693-.9 1.98a23.88 23.88 0 0 0-1.035 3.183 18.59 18.59 0 0 0-.6 4.252 15.12 15.12 0 0 0 .689 4.948 14.16 14.16 0 0 0 2.69 4.81c.627.753 1.322 1.446 2.078 2.07l1.15.9 1.3.822a19.88 19.88 0 0 0 5.767 1.97 97.34 97.34 0 0 0 12.408 1.071c4.015.237 7.857.558 11.053 1.72a11.62 11.62 0 0 1 4.012 2.41c.9.848 1.613 1.877 2.087 3.02a9.9 9.9 0 0 1 .659 2.238l.14.805-1.47.193-.14-.708a8.36 8.36 0 0 0-.6-1.911 7.2 7.2 0 0 0-1.773-2.46 9.99 9.99 0 0 0-3.5-1.989c-2.87-1.043-6.587-1.377-10.567-1.6a89.07 89.07 0 0 1-12.626-1.237 21.2 21.2 0 0 1-6.24-2.251c-.513-.272-.893-.582-1.34-.873q-.636-.532-1.264-1.06c-.793-.702-1.52-1.477-2.17-2.313a14.53 14.53 0 0 1-3.188-10.631 18.47 18.47 0 0 1 .887-4.366c.366-1.078.808-2.128 1.322-3.144a18.1 18.1 0 0 1 1.074-1.9l.407-.654m-3.7-2.113l.4-.592a10.45 10.45 0 0 1 1.313-1.38 16.5 16.5 0 0 1 4.916-2.967 15.8 15.8 0 0 1 2.966-.873 11.81 11.81 0 0 1 2.7-.2 6.41 6.41 0 0 1 1.071.118 4.68 4.68 0 0 1 .81.168l.682.213h-.7c-.6-.01-1.222.036-1.824.14a15.95 15.95 0 0 0-2.492.548 23.52 23.52 0 0 0-2.754.978 44.57 44.57 0 0 0-4.919 2.481l-1.566.962-.6.407M291 23.92l.238-.034c.223-.04.45-.064.675-.068a11.81 11.81 0 0 1 2.446.2 22.09 22.09 0 0 1 6.95 2.516 19.18 19.18 0 0 1 3.277 2.263c.465.403.902.838 1.3 1.3.38.402.717.84 1 1.308.27.38.495.8.67 1.22a4.3 4.3 0 0 1 .385.992l.228.9-.425-.8a4.14 4.14 0 0 0-.541-.874 7.22 7.22 0 0 0-.826-1.034 8.93 8.93 0 0 0-1.1-1.1 12.91 12.91 0 0 0-1.346-1.1c-.468-.378-1.013-.7-1.534-1.056l-1.674-.963-1.73-.867c-.568-.294-1.163-.5-1.713-.77l-3.122-1.185a23.35 23.35 0 0 0-2.273-.663l-.9-.162m-.285-2.8l.285-.03a5.31 5.31 0 0 1 .8-.053l1.27.06a14.09 14.09 0 0 1 1.624.224 27.45 27.45 0 0 1 8.247 3c1.388.753 2.697 1.643 3.907 2.657a17.74 17.74 0 0 1 1.548 1.545 10.44 10.44 0 0 1 1.2 1.545l.467.732.32.72a4.98 4.98 0 0 1 .433 1.186l.238 1.068-.44-.993a4.76 4.76 0 0 0-.591-1.072l-.4-.63-.535-.637c-.38-.5-.808-.944-1.275-1.353a16.93 16.93 0 0 0-1.6-1.324l-1.836-1.26-2-1.15-2.07-1.03-2.052-.908-3.745-1.372c-.554-.2-1.072-.32-1.53-.462s-.857-.206-1.194-.3l-1.078-.172m74.387 59.54l.168.172a4.21 4.21 0 0 1 .455.5 11.83 11.83 0 0 1 1.285 2.09c1.1 2.23 1.794 4.627 2.087 7.1a19.2 19.2 0 0 1 .117 3.98 14.01 14.01 0 0 1-.27 1.823 8.42 8.42 0 0 1-.457 1.587c-.146.442-.342.867-.585 1.264a4.41 4.41 0 0 1-.572.9l-.584.7.4-.82a4.21 4.21 0 0 0 .385-.954 7.14 7.14 0 0 0 .342-1.277c.125-.505.204-1.02.238-1.54a13.11 13.11 0 0 0 .09-1.736c.027-.6-.037-1.23-.057-1.862l-.216-1.92-.324-1.907c-.1-.632-.28-1.236-.394-1.836l-.894-3.218a23.22 23.22 0 0 0-.81-2.224l-.406-.825m2.102-1.882l.192.2a5.78 5.78 0 0 1 .52.616c.2.3.468.636.7 1.06.288.465.55.946.78 1.44a27.39 27.39 0 0 1 2.463 8.424 23.6 23.6 0 0 1 .172 4.721 17.57 17.57 0 0 1-.328 2.162 10.48 10.48 0 0 1-.534 1.885l-.313.8-.392.685a4.98 4.98 0 0 1-.7 1.052l-.72.823.54-.94a4.76 4.76 0 0 0 .514-1.111q.128-.328.27-.7l.2-.808a9.7 9.7 0 0 0 .336-1.828c.083-.688.123-1.38.12-2.074l-.07-2.226-.256-2.292-.393-2.278-.484-2.2-1.112-3.83-.532-1.507c-.156-.453-.343-.8-.472-1.133l-.5-.97m3.53 107.99l15.812 6.65-16.335-5.263z"/><path d="M371.287 185.575l15.812 6.65-16.335-5.263zm6.63-14.11l-1.02 1-2.584 2.674-1.6 1.888-1.654 2.215-1.576 2.5c-.534.86-.957 1.793-1.425 2.707l-1.163 2.833a29.6 29.6 0 0 0-.877 2.839 23.62 23.62 0 0 0-.6 2.72 22.85 22.85 0 0 0-.347 2.475l-.175 2.1v3.06l-.135-3.062.08-2.126c.033-.84.113-1.677.24-2.508a23.94 23.94 0 0 1 .478-2.777c.163-.97.488-1.93.76-2.922.3-.987.683-1.96 1.057-2.94l1.332-2.83c.46-.928.992-1.794 1.5-2.638l1.6-2.35 1.557-2.013 2.516-2.846.974-1.04z"/><path d="M376.115 179.107l-.54.532-1.424 1.36c-1.392 1.332-2.547 2.89-3.415 4.6-.22.462-.41.938-.57 1.425a10.37 10.37 0 0 0-.381 1.444 15.08 15.08 0 0 0-.283 2.674l-.012 1.1.067.854.036.758-.268-.7a9.64 9.64 0 0 1-.522-1.95 6.53 6.53 0 0 1-.138-1.357c-.04-.512-.022-1.027.052-1.535.12-1.12.424-2.212.9-3.233a11.37 11.37 0 0 1 .862-1.478 11.01 11.01 0 0 1 1.02-1.29c.66-.7 1.394-1.326 2.19-1.868a14.62 14.62 0 0 1 1.738-1.009l.686-.328"/></g></svg>