<?xml version="1.0" encoding="utf-8"?>
<!-- Generator: Adobe Illustrator 23.0.3, SVG Export Plug-In . SVG Version: 6.00 Build 0)  -->
<svg version="1.1" id="Layer_1" xmlns="http://www.w3.org/2000/svg" xmlns:xlink="http://www.w3.org/1999/xlink" x="0px" y="0px"
	 viewBox="0 0 485 455" style="enable-background:new 0 0 485 455;" xml:space="preserve">
<style type="text/css">
	.st0{fill:#E50051;}
	.st1{fill:#E7E000;}
</style>
<path class="st0" d="M31.2,34h303.6C352,34,366,48,366,65.2v6.6c0,17.2-14,31.2-31.2,31.2H31.2C14,103,0,89,0,71.8v-6.6
	C0,48,14,34,31.2,34z"/>
<path class="st1" d="M358.2,4h-59L0,455h59L358.2,4z"/>
<path d="M399.2,192.5c-1.3-1.2-3.1-1.9-4.9-1.7c-1.9,0.2-3.6,1.1-4.7,2.6c-2.1,2.8-9.7,3.8-24.7-1.7c-6.9-2.6-14.1-5.7-21.6-9
	c-23.4-10.2-47.5-20.7-70.8-17.4L267,152l0,0c0,0-0.1-0.2-0.4-0.7s-0.8-1-1.3-1.5c-0.6-0.5-1.3-1-2-1.3c-0.7-0.4-1.5-0.7-2.3-0.9
	c-3.6-0.9-7.2-1.2-10.9-1c-3.5,0.1-6.9,0.6-10.3,1.4c-1.1,0.3-2.3,0.6-3.4,1l-0.4-1.9c-1.4-6-3.5-11.8-6.1-17.3
	c-2.7-5.6-6.1-10.9-10.2-15.6c-4.2-4.8-9.2-8.9-14.8-12l-4.8-2.3l-0.9,5.1c-0.3,1.7-0.5,3.1-0.6,4.7c-0.2,1.5-0.3,3.1-0.4,4.6
	c-0.2,3.1-0.2,6.1-0.2,9.2c0.1,6.1,0.9,12.3,2.3,18.2c1.4,6.1,3.8,11.8,7.1,17.1l0.6,0.9c-0.7,0.3-1.5,0.6-2.5,1.1l-2.1,1
	c-0.8,0.4-1.5,0.8-2.3,1.3c-0.8,0.4-1.6,1-2.4,1.5c-0.8,0.5-1.6,1.1-2.5,1.7c-0.8,0.6-1.6,1.3-2.4,1.9c-0.8,0.7-1.5,1.4-2.2,2
	c-0.7,0.7-1.3,1.4-1.9,2.1c-0.6,0.7-1.1,1.4-1.6,2.1c-0.8,1.1-1.5,2.3-2,3.5c-0.1,0.2-0.2,0.5-0.3,0.7s-0.2,0.4-0.2,0.6l-0.1,0.4
	l-0.2,0.1l0.7,1.8c-1.3,0.5-2.6,0.9-3.8,1.4c-33.5-17.3-56.7-15.7-70.3-11.3c-18.8,6.1-26.4,19-28.3,22.8
	c-5.8,11.7-4.8,27.3,2.3,37.3c4,5.7,9.1,10.4,15.1,13.9l0.1-0.1l-0.1,0.1c0.5,0.3,1.1,0.6,1.7,1c5.4,3.2,15.4,9,35.8,5.7
	c15-2.5,20.1-2.7,34.3,7.6c5.6,6.4,12.4,11.7,19.9,15.6c20.6,10.6,45.4,9.3,71.7-3.9c56.6-28.3,89.6-40.2,110.5-39.8
	c4.9,0.2,9.7-0.6,14.3-2.4c17-7,18.2-26.9,18.2-27.1l0.1-1.8L399.2,192.5z M340.1,190c7.7,3.3,14.9,6.5,22,9.1
	c11.5,4.3,19.4,5,24.8,4.1l-1.3,1.4c-4.5,0-9-0.5-13.5-1.3c-6.5-1.2-12.9-2.9-19.2-5.1c-6.9-2.3-14.1-5.2-21.3-8.3
	c-3.6-1.5-7.2-3.1-10.8-4.5c-3.5-1.4-7-2.6-10.6-3.8c-6.3-2.1-12.7-3.9-19.3-5.3c-4.6-1-9.3-1.7-14-2.2l-1-0.1l-0.4-1.1
	C296.2,170.9,318.4,180.6,340.1,190L340.1,190z M260.4,184.3c-0.6,0.6-1.3,1.1-1.9,1.7l-2,1.6c-1.4,1-2.8,2-4.3,2.9s-3,1.7-4.5,2.6
	c-1.5,0.8-3.1,1.5-4.7,2.2c-1.6,0.7-3.2,1.4-4.9,2s-3.3,1.2-5,1.7s-3.3,1-5,1.3l-2.6,0.5c-0.9,0.1-1.7,0.2-2.6,0.3
	c-1.7,0.2-3.4,0.3-5.2,0.3c-1.7,0-3.4-0.1-5.1-0.3c-1.7-0.2-3.3-0.6-4.9-1c-0.8-0.2-1.5-0.5-2.2-0.8c0.3,0,0.5,0,0.8,0
	c1.5,0,3.2,0,5-0.1s3.8-0.3,5.9-0.6c2.1-0.3,4.2-0.7,6.4-1.2s4.4-1.2,6.7-1.9s4.5-1.5,6.8-2.3s4.5-1.7,6.7-2.7s4.3-1.9,6.3-3
	c1.9-1,3.8-2.1,5.7-3.2c1.7-1.1,3.4-2.2,4.9-3.3s2.8-2.2,3.9-3.1c0.9-0.8,1.7-1.6,2.5-2.4c-0.2,0.4-0.3,0.8-0.5,1.2
	c-0.8,1.4-1.6,2.8-2.6,4.1c-0.5,0.6-1.1,1.3-1.6,1.9L260.4,184.3L260.4,184.3z M264.9,168c-0.3,0.5-0.6,0.9-1,1.4
	c-0.7,1-1.5,2-2.4,2.9c-1.1,1.2-2.2,2.4-3.4,3.4c-1.4,1.3-2.9,2.5-4.5,3.6c-1.8,1.3-3.6,2.4-5.5,3.5c-2,1.2-4.1,2.2-6.2,3.2
	c-2.2,1-4.4,1.9-6.6,2.8c-2.3,0.8-4.5,1.6-6.8,2.2c-2.2,0.6-4.5,1.2-6.8,1.6c-2.1,0.4-4.3,0.7-6.4,0.8c-1.9,0.1-3.9,0.2-5.8,0
	c-1.6-0.1-3.2-0.2-4.8-0.5c-1.4-0.2-2.7-0.5-3.7-0.7s-1.7-0.4-2.3-0.6l-0.6-1.6h0.5c1.1,0.1,2.4,0.1,3.9,0.1s3.2,0,5-0.1
	s3.8-0.3,5.9-0.6c2.1-0.3,4.2-0.7,6.4-1.2s4.4-1.2,6.7-1.9s4.5-1.5,6.8-2.3s4.5-1.7,6.7-2.7s4.3-1.9,6.3-3c2-1,3.9-2.1,5.7-3.2
	c1.7-1.1,3.4-2.2,4.9-3.3c1.3-1,2.6-2.1,3.9-3.1c1-0.9,1.9-1.8,2.8-2.7l0.4-0.4L264.9,168z M199.9,195.6l0.1,0.1L199.9,195.6
	C199.9,195.7,199.9,195.6,199.9,195.6L199.9,195.6z M202.8,196.5c-1-0.2-1.7-0.4-2.2-0.6l-0.4-1h0.5c1.3,0.1,2.6,0.1,3.9,0.1
	c1.5,0,3.2,0,5-0.1s3.8-0.3,5.9-0.6c2.1-0.3,4.2-0.7,6.4-1.2s4.4-1.2,6.7-1.9s4.5-1.5,6.8-2.3s4.5-1.7,6.7-2.7s4.3-1.9,6.3-3
	c2-1,3.9-2.1,5.7-3.2c1.7-1.1,3.4-2.2,4.9-3.3c1.3-1,2.6-2.1,3.9-3.1c1-0.9,1.9-1.8,2.8-2.7l0.4-0.4l0.8,1.8c-0.3,0.5-0.6,0.9-1,1.4
	c-0.7,1-1.5,2-2.4,2.9c-1.1,1.2-2.2,2.4-3.4,3.4c-1.4,1.3-2.9,2.5-4.5,3.6c-1.8,1.3-3.6,2.4-5.5,3.5c-2,1.1-4,2.2-6.2,3.2
	s-4.4,1.9-6.6,2.8c-2.3,0.8-4.5,1.6-6.8,2.2c-2.2,0.6-4.5,1.2-6.8,1.6c-2.1,0.4-4.3,0.7-6.4,0.8c-1.9,0.1-3.9,0.2-5.8,0
	c-1.6-0.1-3.2-0.2-4.8-0.5C205.1,197,203.9,196.7,202.8,196.5L202.8,196.5z M262.8,162.9l0.2,0.4c-0.3,0.5-0.6,0.9-1,1.4
	c-0.7,1-1.5,2-2.4,2.9c-1.1,1.2-2.2,2.4-3.4,3.4c-1.4,1.3-2.9,2.5-4.5,3.6c-1.8,1.3-3.6,2.4-5.5,3.5c-2,1.2-4.1,2.2-6.2,3.2
	c-2.2,1-4.4,1.9-6.6,2.8c-2.3,0.8-4.5,1.6-6.8,2.2c-2.2,0.6-4.5,1.2-6.8,1.6c-2.1,0.4-4.3,0.7-6.4,0.8c-1.9,0.1-3.9,0.2-5.8,0
	c-1.6-0.1-3.2-0.2-4.8-0.5c-1.4-0.2-2.7-0.5-3.7-0.7s-1.7-0.4-2.3-0.6l-0.5-1.2c0.4,0.1,0.9,0.2,1.3,0.2l1.5,0.2
	c0.5,0.1,1,0.1,1.5,0.1c1,0.1,2,0.1,2.9,0l2.9-0.1l2.8-0.3c1.9-0.2,3.7-0.7,5.6-0.9l5.4-1.3c1.8-0.6,3.6-1.1,5.4-1.6l5.2-1.8
	c1.8-0.6,3.5-1.3,5.2-1.9c1.7-0.6,3.4-1.3,5.2-2.1l2.6-1.1l2.5-1.2c1.7-0.8,3.3-1.7,5-2.5c0.8-0.4,1.7-0.9,2.5-1.4s1.6-1,2.4-1.5
	l2.4-1.7l2.3-1.9C261.6,164.2,262.2,163.6,262.8,162.9L262.8,162.9z M205.9,140.4c-0.9-5.6-1.3-11.3-1-17c0.1-2.1,0.3-4.3,0.5-6.4
	c0.2,1.7,0.4,3.8,0.7,6.1c0.3,2.8,0.8,5.6,1.3,8.4c1.2,7,3.2,13.9,6,20.5c1.6,3.8,3.7,7.4,6.4,10.5c1.5,1.8,3.6,3.1,5.8,3.7
	c0.7,0.1,1.3,0.1,2,0c0.3,0,0.7-0.1,1-0.2l0.4-0.1c0.1-0.1-0.2,0.1,0.3-0.1l0.4-0.2c0.4-0.3,0.7-0.7,0.9-1.2c0.2-0.3,0.3-0.7,0.4-1
	c0.1-0.6,0.2-1.2,0.2-1.8c0-4.5-1.1-8.5-2.2-12.5c-1.2-3.8-2.6-7.6-4.3-11.3c-1.5-3.5-3.4-6.8-5.8-9.8l-0.5-0.5l-0.5-0.4
	c-0.4-0.4-0.9-0.6-1.4-0.8c-0.3-0.1-0.7-0.1-1,0.1c-0.2,0.1-0.3,0.2-0.5,0.3c-0.1,0.1-0.2,0.2-0.3,0.4c-0.2,0.4-0.4,0.9-0.5,1.4
	c-0.2,1.7-0.1,3.3,0.2,5c0.9,4.9,2.5,9.7,4.7,14.2c0.6,1.3,1.3,2.5,2.1,3.6c0.5,0.8,0.8,1.2,0.8,1.2s-0.3-0.4-0.8-1.3
	c-0.7-1.2-1.3-2.4-1.9-3.7c-0.9-2-1.6-4-2.2-6.1c-0.8-2.7-1.4-5.4-1.7-8.2c-0.3-2.5-0.5-8.4,2.4-4.3c2.1,3,3.8,6.2,5,9.6
	c1.4,3.7,2.7,7.4,3.7,11.2c0.5,1.9,1,3.9,1.3,5.9c0.4,1.9,0.6,3.9,0.6,5.8c0,0.4-0.1,0.8-0.2,1.3c-0.1,0.4-0.3,0.6-0.1,0.5l-0.2,0.1
	l0,0h-0.1c-0.2,0.1-0.3,0.1-0.5,0.1c-0.4,0.1-0.7,0.1-1.1,0c-1.7-0.5-3.2-1.4-4.3-2.8c-2.5-2.9-4.5-6.2-6-9.7
	c-1.5-3.4-2.7-6.8-3.8-10.3c-1-3.4-1.8-6.6-2.4-9.6c-1.3-6-2-11.1-2.5-14.6l-0.5-4.1V112c3.1,1.9,6,4.1,8.6,6.6
	c4.1,4,7.6,8.6,10.4,13.6c2.9,5.1,5.2,10.4,6.8,16c0.8,2.8,1.5,5.6,2,8.5c0.2,1.4,0.4,2.8,0.5,4.3c0,0.7,0.1,1.4,0,2.1
	c0,0.3,0,0.6-0.1,0.9c0,0.2-0.1,0.3-0.1,0.5c-0.8,0.8-1.7,1.6-2.6,2.3c-0.9,0.7-2,1.3-3.1,1.7s-2.3,0.6-3.4,0.5
	c-0.6,0-1.2-0.1-1.8-0.1l-0.9-0.1l-0.5-0.1c-4.6-3.1-8.4-7.3-11-12.2C208.6,151.4,206.8,146,205.9,140.4L205.9,140.4z M195.3,176.3
	c0.3-0.6,0.8-1.2,1.3-1.9c0.5-0.6,1-1.3,1.6-1.9c0.1,0.3,0.2,0.6,0.3,0.8c0.3,0.7,0.7,1.3,1.2,1.8c1.3,1.2,2.8,2,4.5,2.5
	c1.8,0.5,3.7,0.7,5.6,0.7c3.5,0,7-0.4,10.4-1.3c1.4-0.3,2.5-0.7,3.3-1l1.2-0.4l-1.3,0.4c-0.8,0.2-2,0.5-3.4,0.8
	c-3.4,0.7-6.9,1-10.4,0.8c-1.8-0.1-3.6-0.4-5.4-1c-1.5-0.4-2.8-1.2-3.9-2.3c-0.7-0.8-1.1-1.7-1.1-2.8v-0.3c0.2-0.2,0.4-0.4,0.6-0.6
	c0.6-0.6,1.3-1.2,1.9-1.8c0.7-0.6,1.3-1.2,2-1.6c0.7-0.5,1.3-1,2-1.5l1.8-1.2c1.1-0.8,2.1-1.3,2.8-1.7c0.3,0.4,0.6,0.7,0.9,1.1
	l-0.3,0.2c-0.3,0.2-0.6,0.5-1,0.8s-0.9,0.7-1.3,1.1c-0.5,0.5-0.9,1-1.3,1.5c-0.5,0.6-0.8,1.4-0.8,2.2c0,0.9,0.3,1.8,1,2.4
	c0.6,0.6,1.3,1,2.1,1.3c1.5,0.6,3,0.9,4.6,1c1.3,0.1,2.7,0.1,4,0c0.9-0.1,1.9-0.2,2.8-0.4c0.7-0.1,1.1-0.2,1.1-0.2s-0.4,0.1-1.1,0.2
	c-0.9,0.1-1.9,0.2-2.8,0.2c-1.3,0-2.7-0.1-4-0.2c-1.5-0.2-3-0.6-4.3-1.2c-0.7-0.3-1.3-0.7-1.8-1.3c-0.4-0.5-0.7-1.1-0.6-1.7
	c0.1-0.6,0.4-1.2,0.8-1.7c0.4-0.5,0.8-0.9,1.2-1.3c0.4-0.3,0.8-0.7,1.2-0.9c0.4-0.3,0.7-0.5,1-0.7l0.6-0.3c2.5,2.6,5.3,4.8,8.4,6.6
	l0.4,0.2l2.3,0.2c0.7,0,1.4,0,2.1,0c1.5-0.1,2.9-0.4,4.3-0.9c2.6-1.1,5-2.7,7-4.7l0.1-0.1l0.1-0.1c0.3-0.5,0.5-1,0.6-1.6
	c0.1-0.4,0.2-0.8,0.2-1.3c0.1-0.8,0.1-1.6,0.1-2.4c0-1.6-0.1-3.1-0.3-4.6c0-0.1,0-0.2,0-0.2l0.9-0.2c0.3-0.1,0.7-0.1,1.2-0.2
	c0.5-0.1,1-0.1,1.5-0.2c0.6,0,1.2,0,1.8,0c0.6,0.1,1.2,0.3,1.7,0.6c0.5,0.4,0.8,1,0.8,1.7s-0.1,1.5-0.4,2.1
	c-0.5,1.4-1.3,2.7-2.2,3.9c-0.8,1.1-1.7,2.1-2.7,3c-0.7,0.7-1.4,1.3-2.2,1.8l-0.9,0.6c0,0,0.3-0.2,0.9-0.6c0.8-0.5,1.6-1.1,2.3-1.7
	c1-0.9,2-1.8,2.9-2.9c1-1.2,1.9-2.5,2.5-3.9c0.3-0.8,0.5-1.6,0.5-2.4c0-0.9-0.3-1.8-1-2.4c-0.6-0.5-1.4-0.8-2.1-1
	c-0.7-0.1-1.3-0.2-2-0.2c-0.6,0-1.1,0-1.7,0.1c-0.5,0.1-0.9,0.1-1.3,0.2l-0.8,0.1l-0.2-1.6c0.1,0,0.3-0.1,0.4-0.1c1-0.2,2-0.3,3-0.4
	c3.1-0.2,6.3-0.2,9.4,0.1c0.9,0.1,1.7,0.2,2.6,0.3c0.2,0.4,0.3,0.9,0.3,1.4c0,1.5-0.4,3.1-1.1,4.4c-0.9,1.6-1.9,3.1-3.2,4.5
	c-2.4,2.6-5,4.8-7.9,6.7c-1.2,0.8-2.2,1.4-2.9,1.8l-1.2,0.6l1.2-0.6c0.7-0.4,1.8-0.9,3-1.7c3-1.8,5.8-3.9,8.3-6.4
	c1.4-1.3,2.5-2.9,3.5-4.5c0.9-1.5,1.4-3.2,1.5-4.9c0-0.4-0.1-0.7-0.1-1.1c1.6,0.3,3.2,0.7,4.7,1.4c0.3,0.2,0.7,0.3,1,0.5v0.1
	c0,0.3,0,0.6-0.1,0.9c0,0.3-0.1,0.7-0.2,1c-0.5,1.5-1.2,2.9-2.2,4.1l-1.6,1.9l-1.8,1.8c-0.6,0.6-1.3,1.2-2,1.7
	c-0.7,0.6-1.4,1.1-2.1,1.6l-2.2,1.5c-0.7,0.5-1.6,0.9-2.3,1.4l-2.4,1.3l-2.4,1.2c-1.6,0.8-3.3,1.6-5,2.2s-3.4,1.4-5.1,1.9l-5.2,1.7
	l-5.2,1.3l-5.3,0.9c-1.8,0.2-3.6,0.4-5.3,0.4h-2.6c-0.9,0-1.7-0.2-2.6-0.2c-0.8-0.1-1.7-0.2-2.5-0.4c-0.4-0.1-0.8-0.2-1.2-0.3
	l-1.2-0.4c-1.5-0.5-2.9-1.2-4.2-2.1l-0.4-0.3l0.1-0.2C194.7,177.5,195,176.9,195.3,176.3L195.3,176.3z M189.2,189.1l-0.4,0.3
	c-0.5,0.4-1.1,0.8-1.6,1.2c-0.7,0.6-1.4,1.3-2.1,2c-0.4,0.4-0.7,0.8-1.1,1.2c-0.3,0.4-0.7,0.9-0.9,1.4s-0.5,1-0.7,1.5
	s-0.3,1.1-0.3,1.6c0,0.3,0,0.5,0.1,0.8c0,0.3,0.1,0.5,0.2,0.7c0.2,0.4,0.4,0.8,0.7,1.2c0.3,0.3,0.5,0.5,0.9,0.7
	c0.2,0.2,0.5,0.3,0.7,0.4l0.7,0.3l-0.6-0.4c-0.2-0.1-0.5-0.3-0.7-0.5c-0.3-0.2-0.5-0.5-0.7-0.8s-0.4-0.7-0.5-1.1
	c-0.1-0.2-0.1-0.4-0.1-0.7c0-0.2,0-0.5,0-0.7c0.1-0.5,0.2-0.9,0.4-1.4s0.5-0.9,0.8-1.3c0.6-0.8,1.3-1.5,2.1-2.2
	c0.7-0.6,1.4-1.1,2.1-1.6c0.5-0.3,1.1-0.7,1.6-1h0.1l4.3,10.4l0.8,0.6c0.6,0.3,1.1,0.6,1.7,0.8c0.5,0.2,1,0.3,1.5,0.5
	c1,0.3,1.9,0.5,2.9,0.7c1.9,0.4,3.8,0.6,5.7,0.7c1.9,0.1,3.7,0.1,5.6,0c0.9-0.1,1.8-0.1,2.7-0.2l2.7-0.3c0.9-0.1,1.8-0.3,2.7-0.5
	c0.9-0.1,1.8-0.3,2.6-0.5l2.6-0.6c0.9-0.2,1.7-0.5,2.6-0.7c1.7-0.4,3.4-1,5.1-1.6c1.7-0.5,3.3-1.2,5-1.8s3.3-1.3,5-1.9
	c1.6-0.7,3.3-1.3,4.9-2c1.6-0.7,3.2-1.4,4.8-2.2c1-0.5,2.1-1,3.1-1.5l2.6-0.3l1.5-0.2l1.8-0.1c1.3,0,2.7-0.1,4.2-0.1
	c1.6,0,3.2,0.1,5,0.2l2.7,0.2l2.9,0.3c1.9,0.2,3.9,0.6,6,0.9l6.1,1.1c8.2,1.7,16.3,3.8,22.4,5.3c3,0.8,5.6,1.3,7.4,1.7l2.8,0.5
	l-2.8-0.8c-0.9-0.3-1.9-0.6-3.2-1l-4.1-1.3l-4.8-1.6c-1.7-0.6-3.5-1.1-5.4-1.7c-3.8-1.1-7.8-2.3-11.9-3.4c-2-0.5-4.1-1-6.2-1.4
	s-4.1-0.8-6.1-1.1l-2.9-0.4l-2.8-0.3c-1.8-0.2-3.6-0.3-5.2-0.4c-1.3-0.1-2.6-0.1-3.7-0.1c0.8-0.5,1.5-1,2.2-1.5l2.2-1.7
	c1.2-1,2.4-2,3.6-3.1c0.1,0,0.2,0,0.3,0l6.4,0.2c1.3,0.1,2.7,0.1,4.2,0.3c1.5,0.1,3,0.3,4.7,0.5c3.4,0.5,6.7,1.1,10.1,1.8
	c1.7,0.4,3.4,0.8,5.1,1.2l4.9,1.3l8.6,2.7c2.5,0.8,4.6,1.6,6,2.1l2.3,0.8l-2.2-1c-1.4-0.6-3.4-1.6-5.8-2.6c-2.4-1.1-5.3-2.2-8.4-3.5
	l-4.8-1.8l-5-1.7c-3.3-1-6.7-2-10.1-2.7c-1.6-0.3-3.2-0.7-4.8-0.9c-1.5-0.3-3-0.5-4.3-0.7l-3.3-0.4c0.3-0.4,0.6-0.8,0.8-1.2l0,0
	l0.7-1.3l1.1,0.1c4.7,0.5,9.3,1.3,13.9,2.4c6.5,1.5,12.9,3.4,19.1,5.6c3.4,1.2,7,2.6,10.5,4c3.6,1.4,7.1,3,10.7,4.6
	c7.1,3.2,14.3,6.2,21.2,8.7c6.3,2.3,12.7,4.1,19.3,5.5c3.9,0.8,7.9,1.3,12,1.5c-0.3,0.3-0.5,0.5-0.8,0.8c-0.8,0.1-1.9,0.1-3.3,0.2
	l-2.6-0.1l-3.1-0.2c-2.2-0.2-4.7-0.5-7.3-1c-10.7-1.8-24.8-5.8-38.9-9.7s-28.2-7.6-39.1-9.2c-2.7-0.4-5.2-0.7-7.4-0.9
	c-1.1-0.1-2.2-0.2-3.1-0.2s-1.8-0.1-2.6-0.1c-1.2,0-2.5,0-3.7,0.1l-1.3,0.1h1.3c1.2-0.1,2.5-0.1,3.7,0c0.9,0,1.8,0.1,2.6,0.1
	c1,0.1,2,0.1,3.1,0.3c2.2,0.2,4.7,0.6,7.4,1c10.8,1.8,24.9,5.7,38.9,9.9s28,8.4,38.9,10.4c2.7,0.5,5.2,0.9,7.5,1.2l3.1,0.3l2.7,0.1
	h1.1c-0.4,0.3-0.7,0.6-1.1,0.9h-0.1l-0.9,0.2c-0.4,0.1-0.8,0.1-1.3,0.1c-1.2,0.1-2.4,0.1-3.5,0.1c-1.4,0-2.9-0.1-4.7-0.2
	c-6.8-0.5-16-1.6-25.1-2.8l-13.4-1.7l-11.7-1.3l-8.3-0.7l-3.2-0.2l3.1,0.3c2,0.2,4.9,0.5,8.3,0.9l11.7,1.6l13.4,2
	c9.1,1.4,18.2,2.8,25.1,3.5c1.7,0.2,3.3,0.3,4.7,0.3c0.9,0,1.6,0,2.4,0c-0.8,0.4-1.7,0.7-2.6,0.8c-0.2,0-0.4,0.1-0.6,0.2
	c-2.9,0.3-5.9,0.3-8.8,0.2c-4.6-0.2-9.8-0.6-15.4-1.3l-38.5-5.1c-7.3-0.9-14.6-1.4-22-1.5c-7.6,0-15.2,0.7-22.8,1.8
	c-15.2,2.2-29.9,6.6-43.5,10.6l-10,2.9c-3.1,0.9-6.3,1.6-9.5,2.2c-5.8,1-11.6,1.2-17.4,0.6c-4.8-0.5-9.5-1.6-14-3.4
	c-3.3-1.3-6.3-3.2-8.9-5.6c-1.5-1.4-2.7-3.1-3.6-5l-0.3-0.7v-0.1c0.3-0.6,0.6-1.2,1-1.7c0.7,0.8,1.4,1.6,2.1,2.3
	c1.8,1.7,3.7,3.2,5.7,4.6c2.7,1.7,5.5,3.2,8.5,4.3c3.5,1.3,7.2,2.1,10.9,2.5c4.1,0.4,8.3,0.4,12.4-0.1c4.4-0.5,8.7-1.3,13-2.5
	c4.4-1.2,8.7-2.7,13-4.2l12.8-4.4c4.2-1.3,8.4-2.4,12.7-3.2c7.6-1.5,15.3-2.5,23.1-3.1c6.8-0.6,12.5-0.7,16.5-0.7
	c2,0,3.6,0.1,4.6,0.2l1.6,0.1l-1.6-0.1c-1.1-0.1-2.6-0.2-4.6-0.2c-4-0.1-9.7,0-16.5,0.4c-7.8,0.5-15.5,1.5-23.2,2.8
	c-4.3,0.8-8.6,1.8-12.8,3c-4.3,1.3-8.6,2.8-12.9,4.2s-8.6,2.9-12.9,4c-4.2,1.1-8.5,1.8-12.8,2.2c-4,0.4-8.1,0.4-12.1,0
	c-3.6-0.4-7.1-1.3-10.5-2.6c-5.1-1.9-9.6-4.8-13.4-8.6c-1-1-1.7-1.9-2.3-2.6c0.8-1,1.7-1.9,2.6-2.8c2.4,3.1,5.3,5.9,8.5,8.2
	c2.3,1.7,4.7,3,7.3,4.1c1.4,0.6,2.9,1,4.4,1.4l1.2,0.2l0.3,0.1h0.2l0.7,0.1c0.8,0.1,1.5,0.2,2.3,0.3c3.3,0.3,6.5,0.2,9.8-0.1
	s6.6-0.9,9.9-1.6c6.3-1.5,12.6-3.3,18.7-5.4l8.5-2.8l7.7-2.2c5.3-1.5,10.7-2.6,16.2-3.5c-5.5,0.6-10.9,1.6-16.3,2.9
	c-2.4,0.5-5,1.2-7.8,1.9s-5.6,1.6-8.6,2.5c-6.2,1.9-12.4,3.5-18.8,4.7c-3.2,0.6-6.4,1-9.7,1.2c-3.1,0.2-6.2,0.1-9.3-0.3
	c-0.7-0.1-1.5-0.2-2.2-0.3l-0.7-0.1h-0.1l-1.3-0.3c-1.3-0.3-2.6-0.8-3.9-1.4c-2.3-1-4.5-2.4-6.5-3.9c-2.9-2.3-5.5-5-7.7-8.1
	c2.4-1.8,4.9-3.5,7.5-4.9c0,0.2-0.1,0.5-0.1,0.7c-0.1,2,0.4,4.1,1.3,5.8c1.2,2.3,2.9,4.2,4.9,5.7c2.4,1.8,5.1,3,8,3.8
	c3.2,0.8,6.4,1.1,9.7,0.9c3.4-0.2,6.8-0.6,10.2-1.1c3.4-0.6,6.9-1.4,10.3-2.3c6.8-1.8,13.5-4.3,19.8-6.1c5.8-1.7,11.7-3,17.6-3.9
	c5.8-0.9,11.7-1.5,17.5-1.6c-5.9,0-11.8,0.4-17.6,1.2c-6,0.8-11.9,2-17.7,3.6c-6.4,1.7-13.1,4-19.9,5.7c-3.4,0.9-6.8,1.6-10.3,2.1
	c-3.3,0.5-6.7,0.8-10.1,0.9c-3.1,0.1-6.2-0.2-9.2-1c-2.7-0.7-5.1-2-7.3-3.6c-1.8-1.4-3.3-3.1-4.3-5.2c-0.8-1.5-1.1-3.2-1.1-4.9
	c0.1-0.7,0.2-1.5,0.6-2.1c4.3-2.2,8.8-4.1,13.4-5.6L189.2,189.1z M156,231.8c-2.3-0.4-4.7-0.5-7.1-0.3c-1.8,0.1-3.7,0.3-5.4,0.7
	c-1,0.2-1.8,0.4-2.6,0.6l-2.3,0.5c-5.9,1.1-12.1,1-18-0.3c-5.2-1.1-10-3.4-14-6.8c-3.2-2.7-5.6-6.3-6.7-10.3
	c-0.4-1.7-0.6-3.4-0.6-5.1c0-1.5,0.2-2.9,0.5-4.4c0.3-1.2,0.6-2.4,1-3.5l1-2.4l0.5-1c12.3-7.5,37.8-2.1,49.3,5.1
	c-0.6,1.1-1.1,2.4-1.4,3.6l-0.1,0.7l0.1,0.7C151.3,217.1,153.2,224.6,156,231.8L156,231.8z M102.3,231.4c5,3.9,10.8,6.5,17,7.6
	c6.7,1.3,13.7,1.2,20.3-0.3l2.6-0.7l2.4-0.6c1.5-0.4,3.1-0.6,4.7-0.8c3-0.4,6.1-0.1,9,0.8l1.2,2.5c-5.1-1.4-9.2-0.9-13-0.5l-1.2,0.1
	c-0.8,0.1-1.7,0.3-3,0.5c-7.8,1.8-15.8,2-23.6,0.7c-7.2-1.3-13.7-5.2-18.2-11C101,230.3,101.6,230.8,102.3,231.4L102.3,231.4z
	 M90.7,197.7c3.2-6.4,11-14.7,23.6-18.8c16-5.2,36-2.4,58.3,7.9c-1.7,0.9-3.3,1.7-4.8,2.6l-1.7-1.2c-0.7-0.5-1.6-1.1-2.6-1.7
	l-3.6-1.9c-1.3-0.6-2.8-1.2-4.4-1.8c-1.6-0.6-3.3-1-5-1.6c-1.8-0.4-3.6-0.8-5.5-1.1s-3.8-0.6-5.7-0.7c-1-0.1-1.9-0.2-2.9-0.2h-2.9
	c-1.9,0-3.7,0.1-5.5,0.2c-1.8,0.2-3.5,0.3-5.1,0.5s-3.2,0.5-4.6,0.7c-2.3,0.4-4.5,1-6.7,1.6c-0.8,0.2-1.4,0.5-1.8,0.6l-0.6,0.2
	l0.7-0.2c0.4-0.1,1.1-0.3,1.9-0.5c2.2-0.5,4.5-0.9,6.7-1.2c1.4-0.2,2.9-0.3,4.5-0.4c1.6-0.1,3.3-0.1,5.1-0.2c1.8,0,3.6,0,5.4,0.2
	l2.8,0.2c0.9,0.1,1.9,0.3,2.8,0.4c1.9,0.2,3.7,0.7,5.5,1c1.8,0.4,3.5,1,5.2,1.5c1.6,0.6,3.2,1.2,4.6,1.8c1.4,0.7,2.8,1.3,4,2l3.2,2
	c0.9,0.6,1.7,1.3,2.3,1.7l0.3,0.2c-0.9,0.6-1.8,1.2-2.6,1.8l-1.7-0.9c-0.8-0.4-1.8-1-2.9-1.6c-1.2-0.6-2.5-1.3-3.9-1.9
	c-1.5-0.6-3-1.4-4.8-2c-1.7-0.7-3.5-1.3-5.4-1.8c-0.9-0.3-2-0.5-2.9-0.8c-1-0.3-2-0.5-3-0.7s-2.1-0.4-3.1-0.5l-3.2-0.3
	c-2.1-0.2-4.2-0.2-6.3-0.1c-2,0.1-4.1,0.3-6.1,0.5c-1.9,0.4-3.8,0.7-5.6,1.2l-2.5,0.7l-2.3,0.8c-1.5,0.5-2.8,1.1-4,1.6
	c-1,0.4-2,0.9-3,1.4l-2.6,1.3l2.6-1.1c1-0.4,2-0.8,3.1-1.1c1.2-0.4,2.5-0.9,4-1.2l2.3-0.6c0.8-0.2,1.7-0.3,2.5-0.5
	c1.7-0.4,3.6-0.5,5.5-0.7c2-0.1,3.9-0.2,5.9-0.1c2,0.1,4,0.3,6,0.6l3,0.5c1,0.2,2,0.5,2.9,0.7c1,0.2,1.9,0.5,2.8,0.8
	c0.9,0.3,1.9,0.6,2.7,0.9c1.8,0.7,3.5,1.4,5,2.1c1.6,0.7,3,1.5,4.4,2.2s2.5,1.4,3.6,2.1c1.1,0.6,2,1.2,2.7,1.7l0.2,0.1
	c-0.5,0.4-0.9,0.9-1.3,1.3c-15.5-10-50.1-16.3-63.6-1c-1.7,1.9-3.1,4-4.1,6.3C89.1,201.5,89.8,199.5,90.7,197.7L90.7,197.7z
	 M137.1,244.2c-17.5,2.9-25.6-1.8-30.5-4.7l-1.7-1c-3-2.3-6.3-6.6-8.5-11.8c5,7.3,11.5,13.4,22,15.4c8,1.4,16.2,1.1,24.2-0.7
	c1.2-0.2,2.1-0.4,2.8-0.5l1.2-0.1c4-0.5,8.4-1,13.7,0.8l1.5,2.9C154.3,241.8,147.5,242.4,137.1,244.2L137.1,244.2z M374.9,223.6
	c-22.3-0.5-56.4,11.7-114.2,40.7c-2.7,1.4-5.5,2.6-8.3,3.8l8.3-5.1c7.7-5,15.7-9.7,24-13.9c8.4-4.2,17.1-8,25.4-11.3
	c4-1.6,8-3,12-4.4c3.6-1.3,7.2-2.5,10.9-3.6c1.6-0.5,3.3-1,4.9-1.4l4.4-1.2c2.8-0.7,5.2-1.3,7.3-1.8c2-0.5,3.6-0.8,4.7-1l1.7-0.3
	l-1.7,0.3c-1.1,0.2-2.7,0.5-4.7,0.9l-7.3,1.6c-2.8,0.7-6,1.5-9.4,2.4c-16.8,4.7-33.2,10.6-49.1,17.7c-8.7,3.9-17,8.5-24.7,12.9
	c-7.7,4.4-15,8.4-21.7,10.6c-1.7,0.6-3.3,1-4.8,1.4c-1.6,0.4-3,0.7-4.4,1l-4,0.6l-3.4,0.3c-1.3,0.2-2.5,0.2-3.4,0.2
	c-0.6,0-1.1-0.1-1.7-0.2c0.6-0.1,1.3-0.3,1.9-0.5l2.3-0.6l4.1-1.5c0.6-0.3,1.2-0.5,1.8-0.8c1.1-0.5,2.2-1,3.1-1.4l4.3-2.3l-4.6,1.7
	c-1,0.3-2.1,0.6-3.3,0.9l-1.9,0.5l-2,0.4l-2.1,0.4L217,271c-0.8,0.1-1.5,0.2-2.3,0.2l-2.4,0.1c-0.8,0-1.6,0-2.4-0.1
	c-0.8-0.1-1.6-0.1-2.4-0.2c-1.5-0.2-3.1-0.5-4.6-0.8l-1.1-0.3l-1.1-0.4c-0.2-0.1-0.3-0.1-0.5-0.2c0.1,0,0.2,0,0.2,0l2.7-0.1
	c0.9,0,1.8-0.2,2.7-0.3c0.9-0.1,1.8-0.2,2.6-0.4c1.7-0.3,3.3-0.7,5-1.1l2.3-0.7c0.8-0.2,1.5-0.5,2.2-0.8c1.3-0.4,2.6-1,3.9-1.5
	l3.2-1.5l4.5-2.4l-4.8,1.7c-1,0.3-2.1,0.6-3.4,1c-1.3,0.4-2.7,0.7-4,0.9c-0.7,0.1-1.4,0.3-2.2,0.4l-2.3,0.3
	c-1.6,0.2-3.2,0.3-4.8,0.4c-0.8,0.1-1.6,0-2.5,0c-0.8,0-1.6,0-2.5-0.1l-2.4-0.3c-0.8-0.1-1.6-0.3-2.4-0.4c-0.8-0.1-1.6-0.3-2.3-0.5
	c-0.8-0.2-1.5-0.4-2.2-0.6l-0.3-0.1c0.5,0,1,0,1.6,0c1.8,0,3.6-0.1,5.3-0.3c0.9-0.1,1.8-0.2,2.7-0.4s1.8-0.2,2.6-0.4
	c1.7-0.4,3.4-0.7,5-1.2l2.3-0.7c0.8-0.3,1.5-0.5,2.2-0.8c1.3-0.5,2.6-1,3.9-1.6l3.2-1.5l4.5-2.4l-4.8,1.7c-1,0.3-2.1,0.6-3.4,1
	c-1.3,0.4-2.7,0.7-4,1l-2.2,0.5l-2.3,0.3c-1.6,0.3-3.2,0.3-4.8,0.4c-0.8,0.1-1.7,0.1-2.5,0.1s-1.7,0-2.5,0c-1.7-0.1-3.3-0.2-4.9-0.5
	c-1.6-0.2-3.2-0.6-4.7-0.9c-1.5-0.4-2.9-0.8-4.2-1.2c-1.3-0.4-2.6-0.9-3.7-1.4c-1.8-0.8-3.6-1.6-5.4-2.5l-0.6-0.3
	c-2.1-2.5-4-5.1-5.8-7.9c8.8,3.9,18.5,5.4,28,4.5c7-0.7,13.9-2.4,20.4-5.1l4.6-2l4.4-2.1l8.5-4c5.6-2.5,10.9-4.8,15.9-6.7
	c4.5-1.7,9.2-3.2,13.9-4.4c3.6-0.9,7.3-1.7,11-2.2c1.5-0.2,2.9-0.4,4.1-0.6c1-0.1,2-0.3,3.1-0.4l2.6-0.3l-2.6,0.2
	c-1,0.1-2.1,0.1-3.1,0.2c-1.2,0.1-2.6,0.2-4.2,0.4c-3.7,0.4-7.5,1-11.1,1.9c-4.8,1.1-9.5,2.4-14.1,3.9c-5.1,1.7-10.5,3.8-16.2,6.2
	l-8.7,3.7l-4.5,2l-4.6,1.8c-6.3,2.4-12.9,3.8-19.7,4.3c-6.9,0.4-13.8-0.5-20.3-2.7c-3.2-1.1-6.4-2.5-9.3-4.2
	c-0.7-0.4-1.4-0.9-2.1-1.3c-0.1-0.2-0.2-0.4-0.3-0.6c0.4,0.2,0.8,0.5,1.2,0.7c2,1.1,4.2,2.1,6.4,2.9c2.9,1,5.8,1.7,8.8,2.2
	c3.5,0.6,7.1,1,10.6,1c4-0.1,7.9-0.7,11.8-1.5c8.4-1.9,16.6-4.7,24.4-8.2c4-1.7,8-3.5,12.1-5c4-1.5,8-2.9,11.9-4.1
	c3.9-1.2,7.7-2.3,11.4-3.2s7.1-1.6,10.4-2.1c2.9-0.5,5.9-0.9,8.9-1.2c2.7-0.2,5-0.4,6.9-0.4c1.9-0.1,3.4,0,4.4,0l1.6,0.1l-1.6-0.1
	c-1-0.1-2.5-0.1-4.4-0.1s-4.2,0.1-6.9,0.3c-3,0.2-5.9,0.6-8.9,1.1c-3.3,0.5-6.7,1.2-10.4,2c-3.7,0.9-7.5,1.9-11.4,3.1
	c-3.9,1.2-8,2.5-12,4c-4.1,1.5-8.1,3.2-12.1,4.9c-7.9,3.4-16,6-24.4,7.9c-3.8,0.8-7.7,1.3-11.6,1.4c-3.5-0.1-7-0.4-10.4-1.1
	c-2.9-0.5-5.8-1.3-8.6-2.3c-2.1-0.8-4.2-1.7-6.2-2.8c-1.1-0.6-2.1-1.3-3-2l-1-2.1c0.7,0.5,1.4,0.9,2.2,1.3c2,1.1,4.2,2,6.4,2.8
	c2.8,0.9,5.8,1.6,8.7,2c1.6,0.2,3.3,0.4,5.1,0.5c1.8,0.2,3.6,0.2,5.5,0.2c3.9-0.2,7.8-0.8,11.6-1.6c8.3-1.8,16.4-4.2,24.4-7.3
	l12.1-4.6c4-1.5,8-2.8,11.8-4c3.9-1.2,7.6-2.2,11.2-3.1c3.6-0.8,7-1.6,10.2-2.1c3.2-0.6,6.1-0.9,8.8-1.2c2.6-0.2,4.9-0.4,6.8-0.4
	c1.9-0.1,3.4,0,4.4,0.1l1.6,0.1l-1.6-0.1c-1-0.1-2.5-0.1-4.4-0.1s-4.2,0.1-6.8,0.3c-2.6,0.2-5.6,0.5-8.8,1.1
	c-3.2,0.5-6.7,1.2-10.3,2c-3.6,0.9-7.4,1.8-11.3,3c-3.9,1.2-7.9,2.4-11.9,3.9c-4,1.4-8.1,3-12.1,4.5c-7.9,3-16,5.3-24.3,7
	c-3.8,0.8-7.6,1.3-11.5,1.5c-1.8,0-3.6,0-5.3-0.2c-1.7-0.1-3.4-0.3-5-0.6c-2.9-0.4-5.7-1.1-8.5-2c-2.1-0.7-4.2-1.6-6.1-2.7
	c-1.2-0.7-2.4-1.5-3.5-2.4l-0.3-0.3l-0.8-2c0.6,0.4,1.3,0.9,2.2,1.3c2.1,1.1,4.2,2,6.4,2.8c2.9,0.9,5.8,1.6,8.8,2
	c1.7,0.2,3.4,0.4,5.1,0.5c1.8,0.2,3.7,0.2,5.5,0.1c3.9-0.3,7.9-1,11.7-1.9c8.4-1.9,16.6-4.3,24.6-7.3l12.3-4.3
	c4.1-1.3,8.1-2.5,12.1-3.6c3.9-1.1,7.8-2,11.5-2.8c3.7-0.7,7.2-1.4,10.4-1.8c2.9-0.4,5.9-0.8,8.9-1c2.7-0.2,5-0.3,6.9-0.3
	s3.4,0,4.4,0.1l1.6,0.1l-1.6-0.1c-1-0.1-2.5-0.1-4.4-0.1s-4.2,0.1-6.9,0.2c-3,0.2-5.9,0.5-8.9,0.9c-3.3,0.4-6.8,1-10.4,1.7
	c-3.7,0.7-7.5,1.6-11.5,2.6c-4.1,1-8.1,2.2-12.1,3.5c-4.1,1.3-8.2,2.7-12.4,4.2c-8,2.8-16.3,5.2-24.6,7c-3.8,0.8-7.7,1.4-11.6,1.7
	c-1.8,0.1-3.6,0-5.4-0.1c-1.7-0.1-3.4-0.3-5-0.6c-2.9-0.4-5.8-1.1-8.6-2c-2.1-0.7-4.2-1.6-6.2-2.7c-1.3-0.7-2.4-1.5-3.6-2.4h-0.1
	l-0.6-1.9c2.1,1.3,4.4,2.4,6.7,3.3c5.2,1.9,10.6,3.1,16.1,3.4c6.4,0.4,12.8,0,19.1-1.3c3.4-0.7,6.7-1.6,10-2.7l10-3.2
	c13.5-4.5,27.8-9.2,42.5-11.9c7.3-1.4,14.7-2.2,22.2-2.5c7.2-0.2,14.5,0.1,21.7,0.7c14.1,1.2,27.3,2.9,38.6,3.9
	c5.7,0.5,10.9,0.8,15.5,0.8c3,0,5.9-0.1,8.9-0.5c1.5,1.3,12.5,3.9,21.6,0.9C390.3,220.8,383.8,223.7,374.9,223.6L374.9,223.6z
	 M342.9,222l-9.8,1.6c-3.5,0.6-7.1,1.7-10.8,2.7l-5.6,1.6l-5.7,1.8c-3.9,1.2-7.7,2.6-11.6,3.9l-11.5,4.3c-3.8,1.5-7.4,3.1-10.9,4.7
	l-5.1,2.4l-4.9,2.4c-3.1,1.6-6.1,3.2-8.7,4.7c-5.3,3.1-9.6,5.8-12.7,7.7l-3.6,2.1l-1.3,0.7l1.3-0.6c0.9-0.4,2.1-1.1,3.7-1.9
	c3.1-1.7,7.6-4.3,13-7.1l8.8-4.4l4.9-2.3l5.2-2.3c3.5-1.5,7.2-3,10.9-4.4c3.7-1.5,7.6-2.8,11.4-4.2c3.9-1.3,7.7-2.6,11.6-3.8
	l5.7-1.7c1.9-0.5,3.8-1.1,5.6-1.6l5.4-1.6c1.8-0.5,3.5-0.9,5.2-1.3c3.4-0.8,6.7-1.4,9.7-2l14.6-2.8l4.1-0.9l1.4-0.3l-5.6,0.6
	C354,220.7,348.9,221.1,342.9,222L342.9,222z M237.9,255.9l1.3-0.7c0.9-0.4,2.1-1.1,3.7-2c3.1-1.8,7.5-4.6,12.8-7.6
	c2.7-1.5,5.6-3.1,8.8-4.6l4.9-2.3l5.2-2.2l5.4-2.2c1.8-0.7,3.7-1.4,5.6-2.1c1.9-0.7,3.8-1.3,5.8-2c1.9-0.7,3.9-1.3,5.8-1.9
	c3.9-1.2,7.9-2.3,11.8-3.4c3.9-1.1,7.7-1.9,11.5-2.6c3.8-0.7,7.4-1.4,10.9-1.9l9.8-1.5l8.3-1.1l6.4-0.7l5.6-0.5H360
	c-1,0-2.4,0-4.2,0c-1.8,0-4,0.1-6.5,0.2c-2.5,0.1-5.3,0.3-8.4,0.6c-6.2,0.6-13.3,1.4-21,2.8c-3.8,0.7-7.8,1.4-11.7,2.6l-11.8,3.5
	c-2,0.6-3.9,1.3-5.9,2c-1.9,0.7-3.9,1.3-5.8,2.1l-5.6,2.2l-5.4,2.3l-5.2,2.4l-4.9,2.5c-3.1,1.7-6.1,3.3-8.7,4.9
	c-5.3,3.2-9.5,6.2-12.5,8.2c-1.5,1-2.7,1.8-3.5,2.2L237.9,255.9z M237.8,260.8c1.2-0.8,2.3-1.6,3.2-2.3c0.9-0.7,1.6-1.4,2.1-1.8
	l0.8-0.7l-0.9,0.5l-2.4,1.4l-3.4,2l-3.9,2.2l-4,2.1l-3.5,1.7l-2.6,1c-0.3,0.1-0.7,0.2-1,0.3h0.3c0.3,0,0.5,0,0.8-0.1
	c0.9-0.2,1.8-0.4,2.7-0.7l1.8-0.6l1.9-0.8c1.3-0.6,2.7-1.2,4.1-2L237.8,260.8L237.8,260.8z M242.1,264.5l-5.4,3l-5.5,2.8l-1.9,0.8
	l-0.7,0.3c0.3,0,0.5,0,0.8-0.1c0.7-0.1,1.4-0.2,2-0.4c2-0.6,3.9-1.4,5.8-2.4c1.8-1,3.6-2.1,5.2-3.5c0.7-0.6,1.4-1.2,2.1-1.9
	l-0.7,0.4L242.1,264.5z M235.2,254.6c1.2-0.8,2.3-1.6,3.2-2.3s1.6-1.4,2.1-1.8l0.8-0.7l-0.9,0.5l-2.4,1.4l-3.4,2l-3.9,2.2l-4,2.1
	l-3.5,1.7l-2.6,1c-0.3,0.1-0.7,0.2-1,0.3h0.3c0.3,0,0.5,0,0.8-0.1c0.9-0.2,1.8-0.4,2.7-0.7l1.8-0.6l1.9-0.8c1.3-0.6,2.7-1.2,4.1-2
	L235.2,254.6L235.2,254.6z"/>
</svg>
