<svg xmlns="http://www.w3.org/2000/svg" width="236.074" height="223.075" viewBox="0 0 236.074 223.075"><defs><style>.a{fill:none;}.b{fill:#fff;}.c{fill:#ff0053;}</style></defs><g transform="translate(-510.17 -525.466)"><path class="a" d="M550.672,556.631,545.644,574.6H557.66l-5.252-17.881c-.3-1.023-.613-2.078-.922-3.164C551.218,554.616,550.946,555.646,550.672,556.631Z" transform="translate(76.555 60.624)"/><path class="a" d="M677.514,552.79c-18.345-14.038-42.34-20.142-67.282-20.136a162.95,162.95,0,0,0-20.48,1.364,134.834,134.834,0,0,0-20.995,10.292c-22.69,13.839-36.9,32.478-44.753,52.449a111.476,111.476,0,0,0-7.586,40.581c0,16.573,3.654,32.282,9.793,44.766a49.234,49.234,0,0,0,12.869,15.771,86.614,86.614,0,0,0,20.786,12.575c15.977,7.046,35.629,11.072,55.341,11.066,18.522,0,37.082-3.547,52.825-11.151,15.762-7.623,28.666-19.144,36.6-35.452,5.29-10.886,8.391-23.989,8.391-39.753,0-4.058-.2-8.3-.631-12.708-1.636-16.82-5.811-30.731-11.817-42.176A82.321,82.321,0,0,0,677.514,552.79ZM662.952,676.632a5.051,5.051,0,0,1-4.058,2.053H630.952a5.041,5.041,0,0,1-4.825-3.591l-7.778-25.886H593.042l-7.159,25.786a5.036,5.036,0,0,1-4.851,3.692H554.113a5.036,5.036,0,0,1-4.816-6.512l35.1-114.83a5.034,5.034,0,0,1,4.813-3.562H623.29a5.034,5.034,0,0,1,4.806,3.543l35.61,114.83A5.048,5.048,0,0,1,662.952,676.632Z" transform="translate(13.487 15.512)"/><path class="b" d="M603.572,539.344H569.49a5.034,5.034,0,0,0-4.813,3.562l-35.1,114.83a5.035,5.035,0,0,0,4.816,6.512h26.919a5.037,5.037,0,0,0,4.851-3.692l7.159-25.786H598.63l7.778,25.886a5.042,5.042,0,0,0,4.826,3.591h27.942a5.04,5.04,0,0,0,4.813-6.531l-35.61-114.83A5.034,5.034,0,0,0,603.572,539.344Zm-23.689,65.934,5.028-17.972c.275-.985.546-2.015.815-3.073.309,1.086.622,2.141.922,3.164l5.252,17.881Z" transform="translate(41.419 29.949)"/><path class="c" d="M546.154,586.533a120.476,120.476,0,0,0-19.539,66.319c.006,18.257,3.976,35.575,10.981,49.837A60.4,60.4,0,0,0,553.4,722.212c10.087,8.445,23,14.966,37.372,19.444a156.724,156.724,0,0,0,46.142,6.885c26.61-.019,53.687-6.692,74.514-22.445A84.627,84.627,0,0,0,736.7,695.457c6.114-12.579,9.543-27.51,9.543-44.784q0-6.675-.695-13.823c-1.756-18.086-6.307-33.5-13.087-46.411a94.313,94.313,0,0,0-42.934-41.55,119.606,119.606,0,0,0-32.891-10.223,259.565,259.565,0,0,1,30.156-1.69,341.675,341.675,0,0,1,35.939,1.99,5.756,5.756,0,0,0,1.213-11.448h0a353.5,353.5,0,0,0-37.148-2.053c-29.253,0-53.914,4.172-74.486,11.445-1.266.442-2.492.922-3.72,1.39a189.41,189.41,0,0,0-46.54,12.389c-21.254,8.779-39.346,20.957-50.664,35.452a5.758,5.758,0,0,0,9.089,7.071c9.49-12.253,26.07-23.711,45.959-31.881,1.386-.571,2.833-1.093,4.254-1.633A117.353,117.353,0,0,0,546.154,586.533Zm44.314-26.711a134.691,134.691,0,0,1,20.995-10.292,162.9,162.9,0,0,1,20.48-1.364c24.942-.006,48.934,6.1,67.279,20.136a82.281,82.281,0,0,1,23.057,27.487c6.01,11.445,10.182,25.356,11.821,42.176.429,4.412.631,8.65.631,12.708,0,15.765-3.1,28.868-8.391,39.753-7.933,16.308-20.837,27.829-36.6,35.452-15.74,7.6-34.3,11.154-52.825,11.151-19.712.006-39.362-4.02-55.341-11.066a86.656,86.656,0,0,1-20.783-12.575,49.193,49.193,0,0,1-12.869-15.771c-6.142-12.484-9.8-28.192-9.793-44.766a111.407,111.407,0,0,1,7.586-40.581C553.569,592.3,567.773,573.661,590.467,559.822Z" transform="translate(0 0)"/></g></svg>