<svg xmlns="http://www.w3.org/2000/svg" viewBox="0 0 1034.15 550.71"><defs><style>.cls-1{fill:#fff;}</style></defs><title>Asset 6</title><g id="Layer_2" data-name="Layer 2"><g id="Layer_1-2" data-name="Layer 1"><path class="cls-1" d="M308.53,198.05a138.76,138.76,0,0,0,13.67-59.8C322.2,62,260.18,0,184,0S45.7,62,45.7,138.25a138.9,138.9,0,0,0,13.67,59.8C21.63,241.47,0,302.91,0,366.76,0,437.47,25.59,503.2,70.21,547.11a12.57,12.57,0,0,0,8.81,3.6H288.88a12.53,12.53,0,0,0,8.81-3.6c44.62-43.91,70.21-109.64,70.21-180.35C367.9,302.91,346.27,241.47,308.53,198.05Zm33.15,192.7c-4.82,53-25.39,100.86-58,134.84H84.26c-32.64-34-53.22-81.81-58-134.84ZM85.5,193.84h0a113.12,113.12,0,1,1,196.9,0,12.53,12.53,0,0,0,1.84,14.83,195,195,0,0,1,29,40.27c-23-13.51-50.68-25.32-78.74-33.54a92.54,92.54,0,1,0-101.1,0c-28.06,8.23-55.76,20-78.73,33.54a195.36,195.36,0,0,1,29-40.27A12.51,12.51,0,0,0,85.5,193.84Zm31-55.63c7.07-1,50.94-8.62,67.32-43.77,5.17,13,21,38,67.51,43.78v0a67.42,67.42,0,0,1-134.83,0ZM122,112.07a67.22,67.22,0,0,1,45-39C159.8,88.24,143.23,106,122,112.07Zm53.06,120.11a12.56,12.56,0,0,0-3.7,8.9c0,7-9.3,16-25,24.16C152,251.6,161.1,236.71,175.09,232.18ZM36.18,292.85c29.73-25.93,69.84-42,92.87-49.74a147.52,147.52,0,0,0-14.62,41.61,12.58,12.58,0,0,0,16,14.1c3.63-1.09,35.54-11.1,53.52-29.95,18,18.85,49.89,28.86,53.52,29.95a12.57,12.57,0,0,0,16-14.1,147.52,147.52,0,0,0-14.62-41.61c23,7.73,63.15,23.82,92.88,49.74a253.61,253.61,0,0,1,11,72.78H25.13A253.62,253.62,0,0,1,36.18,292.85Z"/><path class="cls-1" d="M678.44,249.94a118.59,118.59,0,1,0-214.44,0c-31.89,37-50.17,89.24-50.17,143.39,0,60.35,21.86,116.47,60,154a11.85,11.85,0,0,0,8.35,3.41H660.28a11.86,11.86,0,0,0,8.35-3.42c38.11-37.49,60-93.61,60-154C728.6,339.19,710.32,287,678.44,249.94Zm25.27,165c-4.26,43.95-21.42,83.65-48.41,111.94H487.14c-27-28.29-44.16-68-48.42-111.94Zm-215-169h0a94.76,94.76,0,1,1,164.93,0A11.88,11.88,0,0,0,655.43,260,161.71,161.71,0,0,1,677.6,290,308.6,308.6,0,0,0,617,264.42a79.8,79.8,0,1,0-91.57,0A308.85,308.85,0,0,0,464.83,290,161.71,161.71,0,0,1,487,260,11.87,11.87,0,0,0,488.75,246ZM571,165.21c11.83,26.2,42.31,33.33,56.15,35.24a56,56,0,0,1-111.93,0C524,199,556.8,192,571,165.21ZM446.88,331.3c24.09-20.89,56.41-34.2,75.17-40.72A128.14,128.14,0,0,0,511,323.49a11.93,11.93,0,0,0,15.18,13.37c3-.9,29.43-9.18,45.07-24.83,15.64,15.67,42,23.93,45.06,24.83a11.92,11.92,0,0,0,15.18-13.37,128.34,128.34,0,0,0-11.08-32.91c18.76,6.52,51.08,19.83,75.17,40.72a214.22,214.22,0,0,1,9.21,59.82H437.67A214.59,214.59,0,0,1,446.88,331.3Z"/><path class="cls-1" d="M830.88,550.71h147a9.62,9.62,0,0,0,6.79-2.78c31.43-30.92,49.45-77.2,49.45-127,0-44.23-14.85-87.07-40.74-117.53l-.69-.81.45-1a97.74,97.74,0,1,0-177.55,0l.44,1-.68.81c-25.89,30.46-40.74,73.3-40.74,117.53,0,49.77,18,96.05,49.45,127A9.65,9.65,0,0,0,830.88,550.71Zm-11.5-220a130.05,130.05,0,0,1,15.39-19.92,9.65,9.65,0,0,0,1.46-11.36l0-.07a78.37,78.37,0,1,1,136.41,0A9.63,9.63,0,0,0,974,310.8a130.5,130.5,0,0,1,15.38,19.92l3.35,5.28-5.53-2.92A256.47,256.47,0,0,0,945,315.57l-3-1,2.53-1.94a65,65,0,0,0,25.62-51.81,65.72,65.72,0,1,0-131.43,0,65,65,0,0,0,25.62,51.81l2.53,1.94-3,1a257.81,257.81,0,0,0-42.23,17.51L816,336Zm85-23.51a46.2,46.2,0,0,1-46.3-44.15l-.06-1.45,1.42-.26c27.55-5.08,39.44-20.12,43.27-26.35l1.52-2.46,1.36,2.55c9.95,18.6,31.64,24.47,43.68,26.31l1.48.23-.07,1.5A46.29,46.29,0,0,1,904.39,307.21ZM794,417.58a177.15,177.15,0,0,1,7.46-47.45l.14-.46.37-.32c18.18-15.65,41.74-26.11,58.29-32.12l3.73-1.36-1.64,3.61a105.31,105.31,0,0,0-7.56,23.85,9.7,9.7,0,0,0,3.14,8.84,9.84,9.84,0,0,0,9.19,2c3.81-1.15,23.45-7.48,36.1-19.45l1.14-1.08,1.15,1.08c12.65,12,32.29,18.3,36.09,19.45A9.69,9.69,0,0,0,954,363.33a106,106,0,0,0-7.56-23.85l-1.64-3.61,3.72,1.36c16.56,6,40.12,16.47,58.3,32.12l.37.32.14.46a177.2,177.2,0,0,1,7.45,47.45l0,1.7H794Zm.82,21.06h219.09l-.2,1.84C1010,475.82,996,507.9,974.36,530.83l-.49.52h-139l-.49-.52c-21.64-22.93-35.63-55-39.38-90.35Z"/></g></g></svg>