<svg xmlns="http://www.w3.org/2000/svg" viewBox="0 0 930.08 140.31"><defs><style>.cls-1{fill:#dba72e;}</style></defs><title>Asset 7</title><g id="Layer_2" data-name="Layer 2"><g id="Layer_1-2" data-name="Layer 1"><path class="cls-1" d="M910.94.05h-.06a3,3,0,0,0-2.33,3.74,30.56,30.56,0,0,0,8,13.71,24.21,24.21,0,0,1,7.31,17.33v3.43a24.21,24.21,0,0,1-7.31,17.33,31.17,31.17,0,0,0-9,19.56,3.33,3.33,0,0,0-.27,1.31v3.87a3.34,3.34,0,0,0,.25,1.27,32,32,0,0,0,8.83,19.5c3.72,4,4.32,12.88-.71,19.1l-1.38,1.62,0,0h0a16.46,16.46,0,0,1-1.29,1.39c-5.52,5.82-13.9,5.74-17.9,2.11-5.6-5.48-12.08-8.54-18.44-9.07a2.87,2.87,0,0,0-1.06-.23h-3.65a3,3,0,0,0-1.24.28A28.24,28.24,0,0,0,852.13,126a21.64,21.64,0,0,1-16.34,7.75h-3.24A21.63,21.63,0,0,1,816.2,126a28.19,28.19,0,0,0-18.45-9.59,3.09,3.09,0,0,0-1.25-.28h-3.64a3.09,3.09,0,0,0-1.25.28A28.24,28.24,0,0,0,773.16,126a21.63,21.63,0,0,1-16.35,7.75h-3.24A21.63,21.63,0,0,1,737.23,126a28.24,28.24,0,0,0-18.46-9.59,3,3,0,0,0-1.24-.28h-3.65a3,3,0,0,0-1.24.28A28.24,28.24,0,0,0,694.18,126a21.63,21.63,0,0,1-16.34,7.75H674.6A21.61,21.61,0,0,1,658.26,126a28.24,28.24,0,0,0-18.46-9.59,3.05,3.05,0,0,0-1.25-.28h-3.64a3.09,3.09,0,0,0-1.25.28A28.22,28.22,0,0,0,615.21,126a21.65,21.65,0,0,1-16.35,7.75h-3.23A21.65,21.65,0,0,1,579.28,126a28.24,28.24,0,0,0-18.46-9.59,3,3,0,0,0-1.24-.28h-3.64a3.09,3.09,0,0,0-1.25.28A28.19,28.19,0,0,0,536.24,126a21.65,21.65,0,0,1-16.35,7.75h-3.24A21.63,21.63,0,0,1,500.31,126a28.24,28.24,0,0,0-18.46-9.59,3.05,3.05,0,0,0-1.25-.28H477a3,3,0,0,0-1.24.28A28.24,28.24,0,0,0,457.26,126a21.65,21.65,0,0,1-16.35,7.75h-3.23A21.65,21.65,0,0,1,421.33,126a28.22,28.22,0,0,0-18.45-9.59,3.09,3.09,0,0,0-1.25-.28H398a3.09,3.09,0,0,0-1.25.28A28.19,28.19,0,0,0,378.29,126a21.65,21.65,0,0,1-16.35,7.75H358.7A21.63,21.63,0,0,1,342.36,126a28.24,28.24,0,0,0-18.46-9.59,3,3,0,0,0-1.24-.28H319a3,3,0,0,0-1.24.28A28.24,28.24,0,0,0,299.31,126,21.63,21.63,0,0,1,283,133.7h-3.24A21.6,21.6,0,0,1,263.39,126a28.24,28.24,0,0,0-18.46-9.59,3.09,3.09,0,0,0-1.25-.28H240a3.09,3.09,0,0,0-1.25.28A28.19,28.19,0,0,0,220.34,126,21.65,21.65,0,0,1,204,133.7h-3.23A21.65,21.65,0,0,1,184.41,126,28.24,28.24,0,0,0,166,116.36a3,3,0,0,0-1.24-.28h-3.64a3.05,3.05,0,0,0-1.25.28A28.24,28.24,0,0,0,141.36,126,21.63,21.63,0,0,1,125,133.7h-3.24A21.61,21.61,0,0,1,105.44,126,28.24,28.24,0,0,0,87,116.36a3.09,3.09,0,0,0-1.25-.28H82.09a3.09,3.09,0,0,0-1.25.28A28.24,28.24,0,0,0,62.39,126,21.65,21.65,0,0,1,46,133.7H42.81A21.65,21.65,0,0,1,26.46,126a28,28,0,0,0-20.92-9.87H3.12a3.31,3.31,0,0,0,0,6.61H5.54a21.65,21.65,0,0,1,16.35,7.75,28,28,0,0,0,20.92,9.87H46A28,28,0,0,0,67,130.44a21.65,21.65,0,0,1,16.35-7.75h1.21a21.6,21.6,0,0,1,16.34,7.75,28,28,0,0,0,20.92,9.87H125a28,28,0,0,0,20.91-9.87,21.65,21.65,0,0,1,16.35-7.75h1.21a21.65,21.65,0,0,1,16.35,7.75,28,28,0,0,0,20.92,9.87H204a28,28,0,0,0,20.92-9.87,21.61,21.61,0,0,1,16.34-7.75h1.22a21.66,21.66,0,0,1,16.35,7.75,28,28,0,0,0,20.91,9.87H283a28,28,0,0,0,20.91-9.87,21.63,21.63,0,0,1,16.35-7.75h1.21a21.63,21.63,0,0,1,16.35,7.75,28,28,0,0,0,20.91,9.87h3.24a28.05,28.05,0,0,0,20.92-9.87,21.61,21.61,0,0,1,16.34-7.75h1.22a21.63,21.63,0,0,1,16.34,7.75,28.05,28.05,0,0,0,20.92,9.87h3.23a28.05,28.05,0,0,0,20.92-9.87,21.63,21.63,0,0,1,16.34-7.75h1.22a21.63,21.63,0,0,1,16.35,7.75,28,28,0,0,0,20.91,9.87h3.24a28.05,28.05,0,0,0,20.92-9.87,21.6,21.6,0,0,1,16.34-7.75h1.21a21.63,21.63,0,0,1,16.35,7.75,28.05,28.05,0,0,0,20.92,9.87h3.23a28.05,28.05,0,0,0,20.92-9.87,21.63,21.63,0,0,1,16.34-7.75h1.22a21.65,21.65,0,0,1,16.35,7.75,28,28,0,0,0,20.91,9.87h3.24a28,28,0,0,0,20.91-9.87,21.63,21.63,0,0,1,16.35-7.75h1.21a21.63,21.63,0,0,1,16.35,7.75,28,28,0,0,0,20.91,9.87h3.24a28.05,28.05,0,0,0,20.92-9.87,21.63,21.63,0,0,1,16.34-7.75h1.22a21.66,21.66,0,0,1,16.35,7.75,28,28,0,0,0,20.91,9.87h3.24a28,28,0,0,0,20.91-9.87,21.63,21.63,0,0,1,16.35-7.75h1.27c5.52-.11,11.36,2.57,16.52,7.62,7,6.41,19.15,5.33,26.28-2.2a23.37,23.37,0,0,0,1.71-1.84l1.44-1.69c6.69-8.27,6.91-21.14.43-28.15a25.06,25.06,0,0,1-7.24-17.21V77.76a24.14,24.14,0,0,1,7.31-17.32,31.34,31.34,0,0,0,9.31-22.17V34.84a31.32,31.32,0,0,0-9.31-22.17,24.43,24.43,0,0,1-6.34-10.52A3,3,0,0,0,910.94.05Z"/></g></g></svg>