<?xml version="1.0" encoding="utf-8"?>
<!-- Generator: Adobe Illustrator 23.0.3, SVG Export Plug-In . SVG Version: 6.00 Build 0)  -->
<svg version="1.1" id="Layer_1" xmlns="http://www.w3.org/2000/svg" xmlns:xlink="http://www.w3.org/1999/xlink" x="0px" y="0px"
	 viewBox="0 0 541.5 254.1" style="enable-background:new 0 0 541.5 254.1;" xml:space="preserve">
<style type="text/css">
	.st0{fill:#F7F1F3;}
	.st1{fill:#E5105B;}
	.st2{enable-background:new    ;}
	.st3{fill:#62BBA7;}
	.st4{fill:#FFFFFF;}
	.st5{fill:#E40D5B;}
</style>
<title>Asset 2</title>
<g>
	<g id="Layer_1-2">
		<rect x="1.5" y="128.7" class="st0" width="494.1" height="49.4"/>
		<rect x="44.5" y="71.6" class="st0" width="366.4" height="49.4"/>
		<rect x="1.5" class="st1" width="251.6" height="53.3"/>
		<rect y="195.8" class="st1" width="334.9" height="52"/>
		<g class="st2">
			<path class="st3" d="M13.2,94.2l23.6-9.4v3.7l-19.3,7.4l19.3,7.4v3.7l-23.6-9.4V94.2z"/>
		</g>
		<g class="st2">
			<path class="st3" d="M515,134.4h3.1l-9.5,30h-3.1L515,134.4z"/>
			<path class="st3" d="M541.2,155.5l-23.6,9.3v-3.7l19.2-7.4l-19.2-7.4v-3.7l23.6,9.4V155.5z"/>
		</g>
		<g class="st2">
			<path class="st4" d="M33.4,228.1h-3.5v11.1h-9.5v-34.6h14.2c8.4,0,13.6,5.1,13.6,11.7c0,4.2-2,7.7-5.6,9.8l7.6,13.1H39.8
				L33.4,228.1z M29.9,220.1h4.4c4.1,0,5.3-1.5,5.3-3.8c0-2.2-1.3-3.7-5.3-3.7h-4.4V220.1z"/>
		</g>
		<g class="st2">
			<path class="st4" d="M81,231.2v8H55.1v-34.6h25v8H64.6v5.3h14.1v8H64.6v5.3H81z"/>
		</g>
		<g class="st2">
			<path class="st4" d="M108.7,233.1h-11l-2.1,6.1H85.1l13.1-34.6h10.1l13.1,34.6h-10.5L108.7,233.1z M105.9,225.1l-2.7-7.6
				l-2.7,7.6H105.9z"/>
		</g>
		<g class="st2">
			<path class="st4" d="M150.5,231.2v8h-24.1v-34.6h9.5v26.6H150.5z"/>
		</g>
		<g class="st2">
			<path class="st4" d="M166.5,204.6v34.6H157v-34.6H166.5z"/>
		</g>
		<g class="st2">
			<path class="st4" d="M207.3,221.9c0,9.3-6.3,17.3-19.2,17.3h-13.7v-34.6H188C201,204.6,207.3,212.6,207.3,221.9z M198.5,221.9
				c0-5.1-3.2-9.3-11.1-9.3h-3.6v18.6h3.6C195.3,231.2,198.5,227,198.5,221.9z"/>
		</g>
		<g class="st2">
			<path class="st4" d="M232.5,233.1h-11l-2.1,6.1h-10.5l13.1-34.6h10.1l13.1,34.6h-10.5L232.5,233.1z M229.7,225.1l-2.7-7.6
				l-2.7,7.6H229.7z"/>
		</g>
		<g class="st2">
			<path class="st4" d="M282.6,221.9c0,9.3-6.3,17.3-19.2,17.3h-13.7v-34.6h13.7C276.3,204.6,282.6,212.6,282.6,221.9z M273.8,221.9
				c0-5.1-3.2-9.3-11.1-9.3h-3.6v18.6h3.6C270.7,231.2,273.8,227,273.8,221.9z"/>
		</g>
		<g class="st2">
			<path class="st4" d="M314.4,231.2v8h-25.9v-34.6h25v8H298v5.3h14.1v8H298v5.3H314.4z"/>
		</g>
		<g class="st2">
			<path class="st5" d="M27.1,159c0,4.5-3.3,7.6-10.2,7.6c-3.1,0-7.4-1.2-10.2-3.3l2.5-5.5c3.7,2.8,9.3,3.5,9.6,1.5
				c0.4-3.8-11.2-1.8-10.7-11.5c0.2-4.3,4-7,10.8-6.5c3.5,0.2,7.3,1.6,7.8,2.1l-2.4,5.5c-3.1-2.3-7.8-2.2-7.8-0.1
				C16.5,152.2,27.1,150.6,27.1,159z"/>
		</g>
		<g class="st2">
			<path class="st5" d="M56.3,154c0,7-5.9,12.6-12.9,12.6c-7,0-12.9-5.6-12.9-12.6c0-7,5.9-12.7,12.9-12.7
				C50.4,141.3,56.3,146.9,56.3,154z M48.5,154c0-2.8-2.3-5.1-5.1-5.1c-2.8,0-5.1,2.3-5.1,5.1c0,2.8,2.3,5,5.1,5
				C46.3,159,48.5,156.7,48.5,154z"/>
		</g>
		<g class="st2">
			<path class="st5" d="M68.6,131.2v34.6h-8.3v-34.6H68.6z"/>
		</g>
		<g class="st2">
			<path class="st5" d="M74.5,157.3v-15.2h8.3v14.2c0,2.7,2.1,3.8,3.5,3.8c1.5,0,3.9-0.9,4-3.6v-14.3h8.3v23.8h-8.3v-2.3
				c-1.5,1.7-4.2,3.1-6.7,3.1C77.5,166.6,74.5,163.1,74.5,157.3z"/>
		</g>
		<g class="st2">
			<path class="st5" d="M123.2,171.9c-0.1,2.4-2.1,4.8-5.5,4.8c-2.9,0-5-1.7-5-1.7l1.4-2.6c0,0,0.9,1.1,3,1.1c1.4,0,2.1-0.7,2.2-1.6
				c0.1-1.7-2.1-2.5-4.3-1.6l-1.1-1.4l0.2-2.5c-6.5-0.8-11.4-6.1-11.4-12.5c0-7,5.6-12.7,13.3-12.7c3.6,0,7.1,1.5,9.5,3.8l-4.7,5.4
				c-1.5-1.1-3-1.8-4.8-1.7c-2.7,0.1-5.3,1.7-5.3,5.1c0,3.1,2.6,5,5.3,5.1c2.1,0.1,3.7-0.8,5.1-1.9l4.4,5.6c-2,2-4.8,3.3-7.8,3.7
				l-0.1,1.3c0.7-0.2,1.8-0.2,2.6-0.1C122.4,168.2,123.2,170.3,123.2,171.9z"/>
		</g>
		<g class="st2">
			<path class="st5" d="M152.5,154c0,7-5.9,12.6-12.9,12.6c-7,0-12.9-5.6-12.9-12.6c0-7,5.9-12.7,12.9-12.7
				C146.7,141.3,152.5,146.9,152.5,154z M148.9,131.6c0,0-0.7,5.9-5.3,5.9c-1.8,0-3.1-0.8-3.8-1.1c-0.7-0.3-2.3-1-3.2-1
				c-1.6,0-1.9,2-1.9,2l-4.2-2c0,0,0.7-5.9,5.3-5.9c1.8,0,3.2,0.7,3.9,1s2.4,1,3.1,1c1.6,0,1.9-2,1.9-2L148.9,131.6z M144.8,154
				c0-2.8-2.3-5.1-5.1-5.1c-2.8,0-5.1,2.3-5.1,5.1c0,2.8,2.3,5,5.1,5C142.5,159,144.8,156.7,144.8,154z"/>
		</g>
		<g class="st2">
			<path class="st5" d="M164.9,156.9c0.8,1.8,2.4,2.9,4.1,3.1c3.3,0.5,5.8-1.1,6.5-1.9l3.2,4.5c-3,2.8-5.7,4-10.1,4
				c-6.5,0-12-5.6-12-12.6c0-7,5.5-12.7,12-12.7c6.5,0,11.5,5.1,11.5,12.1c0,1.2,0,2.3-0.2,3.5H164.9z M164.3,151.8h8.5
				c-0.4-2.3-2.2-3.5-4.4-3.5C166.5,148.4,164.9,149.7,164.3,151.8z"/>
		</g>
		<g class="st2">
			<path class="st5" d="M203.4,159c0,4.5-3.3,7.6-10.2,7.6c-3.1,0-7.4-1.2-10.2-3.3l2.5-5.5c3.7,2.8,9.3,3.5,9.6,1.5
				c0.4-3.8-11.2-1.8-10.7-11.5c0.2-4.3,4-7,10.8-6.5c3.5,0.2,7.3,1.6,7.8,2.1l-2.4,5.5c-3.1-2.3-7.8-2.2-7.8-0.1
				C192.8,152.2,203.4,150.6,203.4,159z"/>
		</g>
		<g class="st2">
			<path class="st5" d="M240,141.3c2.5,0,4.8,0.8,6.7,2.1v-12.2h8.3v34.6h-8.3v-2.3c-0.8,1.5-4.2,3.1-6.7,3.1
				c-6.7,0-10.9-5.6-10.9-12.7C229.1,146.9,233.3,141.3,240,141.3z M242,159.5c2.6,0,4.7-2.5,4.7-5.5c0-3.1-2.1-5.5-4.7-5.5
				c-2.6,0-4.6,2.4-4.6,5.5C237.4,157,239.4,159.5,242,159.5z"/>
		</g>
		<g class="st2">
			<path class="st5" d="M269.3,142.1v23.8h-8.3v-23.8H269.3z M261,135.2c0-2.3,1.8-4.1,4.1-4.1s4.1,1.8,4.1,4.1s-1.8,4.1-4.1,4.1
				S261,137.5,261,135.2z"/>
		</g>
		<g class="st2">
			<path class="st5" d="M299.6,163.1c0,7.2-1.8,11.8-8,13.7c-2.5,0.7-5.4,0.9-7.9,0.6c-3.1-0.3-6.4-1.8-9.1-3.5l2.6-5.6
				c1.9,1.3,4.1,2.3,6.2,2.4c5.5,0.5,7.6-1.7,7.8-4.2c0-0.7,0-1.9,0-2c-1.9,1.3-4.2,2.1-6.7,2.1c-6.7,0-10.9-5.7-10.9-12.7
				c0-7,4.2-12.7,10.9-12.7c2.5,0,5.9,1.6,6.7,3.1v-2.3h8.3V163.1z M291.3,153.9c0-3-2.1-5.5-4.8-5.5c-2.6,0-4.6,2.5-4.6,5.5
				c0,3.1,2,5.5,4.6,5.5C289.2,159.5,291.3,157,291.3,153.9z"/>
		</g>
		<g class="st2">
			<path class="st5" d="M313.4,142.1v23.8h-8.3v-23.8H313.4z M305.1,135.2c0-2.3,1.8-4.1,4.1-4.1s4.1,1.8,4.1,4.1s-1.8,4.1-4.1,4.1
				S305.1,137.5,305.1,135.2z"/>
		</g>
		<g class="st2">
			<path class="st5" d="M337,164.9c-0.9,0.6-3.8,1.6-7.2,1.6c-7.7,0-8.7-5.8-8.7-12.4c0-0.9,0-2.6,0-4.7h-3.3v-7.5h3.3
				c0-2.9,0-5.1,0-5.1l8.4-1c0,0,0,2.8,0,6.1h6.1v7.5h-6.1c0,2.3,0,4,0,4.5c0,4.5,2.1,5.8,5.7,4.1L337,164.9z"/>
		</g>
		<g class="st2">
			<path class="st5" d="M362,150.6c0,7,0,15.2,0,15.2h-8.3v-2.3c-1.5,2-3.9,3.1-7,3.1c-1.4,0-7-0.9-7.2-7c-0.1-5.1,3.3-7.5,6.8-8.1
				c2.2-0.4,5.7-0.6,7.4-0.6c0-1-0.5-3.1-3.5-3.1c-3.2,0-6.1,1.3-7.3,1.9l-2.3-5.4c1.8-1.2,5.9-3,10.6-3
				C356.6,141.3,362,143.3,362,150.6z M353.7,157.8c0-0.7,0-2.6,0-2.6s-3.3-0.1-4.8,0.9c-1.8,1.2-1.2,4.2,1.7,4.2
				C353,160.3,353.7,158.8,353.7,157.8z"/>
		</g>
		<g class="st2">
			<path class="st5" d="M375.8,142.1v23.8h-8.3v-23.8H375.8z M367.5,135.2c0-2.3,1.8-4.1,4.1-4.1c2.3,0,4.1,1.8,4.1,4.1
				s-1.8,4.1-4.1,4.1C369.3,139.3,367.5,137.5,367.5,135.2z"/>
		</g>
		<g class="st2">
			<path class="st5" d="M400.2,159c0,4.5-3.3,7.6-10.2,7.6c-3.1,0-7.4-1.2-10.2-3.3l2.5-5.5c3.7,2.8,9.3,3.5,9.5,1.5
				c0.4-3.8-11.2-1.8-10.7-11.5c0.2-4.3,4-7,10.8-6.5c3.5,0.2,7.3,1.6,7.8,2.1l-2.4,5.5c-3.1-2.3-7.8-2.2-7.8-0.1
				C389.5,152.2,400.2,150.6,400.2,159z"/>
		</g>
		<g class="st2">
			<path class="st5" d="M434.2,156.9c0.8,1.8,2.4,2.9,4.1,3.1c3.3,0.5,5.8-1.1,6.5-1.9l3.2,4.5c-3,2.8-5.7,4-10.1,4
				c-6.5,0-12-5.6-12-12.6c0-7,5.5-12.7,12-12.7c6.5,0,11.5,5.1,11.5,12.1c0,1.2,0,2.3-0.2,3.5H434.2z M433.7,151.8h8.5
				c-0.4-2.3-2.2-3.5-4.4-3.5C435.9,148.4,434.3,149.7,433.7,151.8z"/>
		</g>
		<g class="st2">
			<path class="st5" d="M490.3,150.6v15.2H482v-14.2c0-2.7-1.3-3.8-2.8-3.8c-1.5,0-3.1,1-3.2,3.6v14.4h-8.3v-14.2
				c0-2.7-1.3-3.8-2.8-3.8c-1.5,0-3.2,1-3.2,3.6v14.4h-8.4v-23.8h8.4v2.3c1.3-1.6,3.6-3.1,6-3.1c3.9,0,5.8,1.5,7.2,4.1
				c1.2-2,4.7-4.1,7.1-4.1C488,141.3,490.3,144.8,490.3,150.6z"/>
		</g>
		<g class="st2">
			<path class="st5" d="M69.3,111c-0.9,0.6-3.8,1.6-7.2,1.6c-7.7,0-8.7-5.8-8.7-12.4c0-0.9,0-2.6,0-4.7h-3.3v-7.5h3.3
				c0-2.9,0-5.1,0-5.1l8.4-1c0,0,0,2.8,0,6.1h6.1v7.5h-6.1c0,2.3,0,4,0,4.5c0,4.5,2.1,5.8,5.7,4.1L69.3,111z"/>
		</g>
		<g class="st2">
			<path class="st5" d="M92.8,88.1l-2,8.7c-1.2-0.5-2.5-1.2-4.8-1.1c-1.7,0.1-4.3,1.1-4.3,4.9c0,1.2,0,11.2,0,11.2h-8.4V88.1h8.4
				v2.3c0.7-1,3.7-3.1,6.8-3.1C90.2,87.4,92.2,87.9,92.8,88.1z"/>
		</g>
		<g class="st2">
			<path class="st5" d="M116.8,96.7c0,7,0,15.2,0,15.2h-8.3v-2.3c-1.5,2-3.9,3.1-7,3.1c-1.4,0-7-0.9-7.2-7c-0.1-5.1,3.3-7.5,6.8-8.1
				c2.2-0.4,5.7-0.6,7.4-0.6c0-1-0.5-3.1-3.5-3.1c-3.2,0-6.1,1.3-7.3,1.9l-2.3-5.4c1.8-1.2,5.9-3,10.6-3
				C111.3,87.4,116.8,89.3,116.8,96.7z M108.4,103.9c0-0.7,0-2.6,0-2.6s-3.3-0.1-4.8,0.9c-1.8,1.2-1.2,4.2,1.7,4.2
				C107.7,106.4,108.4,104.9,108.4,103.9z"/>
		</g>
		<g class="st2">
			<path class="st5" d="M145.8,96.7v15.2h-8.4l0-14.2c0-2.7-2.1-3.8-3.6-3.8s-3.9,0.9-3.9,3.6v14.4h-8.4V88.1h8.4v2.3
				c1.4-1.6,4.1-3.1,6.7-3.1C142.8,87.4,145.8,90.8,145.8,96.7z"/>
			<path class="st5" d="M165.3,105c0,4.5-3.3,7.6-10.2,7.6c-3.1,0-7.4-1.2-10.2-3.3l2.5-5.5c3.7,2.8,9.3,3.5,9.6,1.5
				c0.4-3.8-11.2-1.8-10.7-11.5c0.2-4.3,4-7,10.8-6.5c3.5,0.2,7.3,1.6,7.8,2.1l-2.4,5.5c-3.1-2.3-7.8-2.2-7.8-0.1
				C154.7,98.2,165.3,96.7,165.3,105z"/>
		</g>
		<g class="st2">
			<path class="st5" d="M184.9,87.7c0,0,0,0.2,0,0.5h6.1v7.5h-6.1c0,7.1,0,16.3,0,16.3h-8.4c0,0,0-9.1,0-16.3h-3.3v-7.5h3.3
				c0-0.2,0-0.3,0-0.5c0-6.5,1.8-12.4,10.7-12.4c3.5,0,5.9,1,6.8,1.3l-1.9,7.2C189.4,82.8,184.9,82.2,184.9,87.7z"/>
		</g>
		<g class="st2">
			<path class="st5" d="M219.3,100c0,7-5.9,12.6-12.9,12.6c-7,0-12.9-5.6-12.9-12.6c0-7,5.9-12.7,12.9-12.7
				C213.4,87.4,219.3,93,219.3,100z M211.5,100c0-2.8-2.3-5.1-5.1-5.1c-2.8,0-5.1,2.3-5.1,5.1c0,2.8,2.3,5,5.1,5
				C209.2,105.1,211.5,102.8,211.5,100z"/>
		</g>
		<g class="st2">
			<path class="st5" d="M242.2,88.1l-2,8.7c-1.2-0.5-2.5-1.2-4.8-1.1c-1.7,0.1-4.3,1.1-4.3,4.9c0,1.2,0,11.2,0,11.2h-8.4V88.1h8.4
				v2.3c0.7-1,3.7-3.1,6.8-3.1C239.7,87.4,241.6,87.9,242.2,88.1z"/>
			<path class="st5" d="M279.2,96.7v15.2h-8.3V97.7c0-2.7-1.3-3.8-2.8-3.8c-1.5,0-3.1,1-3.2,3.6v14.4h-8.3V97.7
				c0-2.7-1.3-3.8-2.8-3.8c-1.5,0-3.2,1-3.2,3.6v14.4h-8.4V88.1h8.4v2.3c1.3-1.6,3.6-3.1,6-3.1c3.9,0,5.8,1.5,7.2,4.1
				c1.2-2,4.7-4.1,7.1-4.1C277,87.4,279.2,90.9,279.2,96.7z"/>
		</g>
		<g class="st2">
			<path class="st5" d="M309.6,96.7c0,7,0,15.2,0,15.2h-8.3v-2.3c-1.5,2-3.9,3.1-7,3.1c-1.4,0-7-0.9-7.2-7c-0.1-5.1,3.3-7.5,6.8-8.1
				c2.2-0.4,5.7-0.6,7.4-0.6c0-1-0.5-3.1-3.5-3.1c-3.2,0-6.1,1.3-7.3,1.9l-2.3-5.4c1.8-1.2,5.9-3,10.6-3
				C304.2,87.4,309.6,89.3,309.6,96.7z M301.3,103.9c0-0.7,0-2.6,0-2.6s-3.3-0.1-4.8,0.9c-1.8,1.2-1.2,4.2,1.7,4.2
				C300.6,106.4,301.3,104.9,301.3,103.9z"/>
		</g>
		<g class="st2">
			<path class="st5" d="M352,96.7v15.2h-8.3V97.7c0-2.7-1.3-3.8-2.8-3.8c-1.5,0-3.1,1-3.2,3.6v14.4h-8.3V97.7c0-2.7-1.3-3.8-2.8-3.8
				c-1.5,0-3.2,1-3.2,3.6v14.4h-8.4V88.1h8.4v2.3c1.3-1.6,3.6-3.1,6-3.1c3.9,0,5.8,1.5,7.2,4.1c1.2-2,4.7-4.1,7.1-4.1
				C349.7,87.4,352,90.9,352,96.7z"/>
		</g>
		<g class="st2">
			<path class="st5" d="M382.2,100c0,7-5.9,12.6-12.9,12.6c-7,0-12.9-5.6-12.9-12.6c0-7,5.9-12.7,12.9-12.7
				C376.3,87.4,382.2,93,382.2,100z M374.4,100c0-2.8-2.3-5.1-5.1-5.1c-2.8,0-5.1,2.3-5.1,5.1c0,2.8,2.3,5,5.1,5
				C372.2,105.1,374.4,102.8,374.4,100z"/>
		</g>
		<g class="st2">
			<path class="st5" d="M405.1,105c0,4.5-3.3,7.6-10.2,7.6c-3.1,0-7.4-1.2-10.2-3.3l2.5-5.5c3.7,2.8,9.3,3.5,9.6,1.5
				c0.4-3.8-11.2-1.8-10.7-11.5c0.2-4.3,4-7,10.8-6.5c3.5,0.2,7.3,1.6,7.8,2.1l-2.4,5.5c-3.1-2.3-7.8-2.2-7.8-0.1
				C394.5,98.2,405.1,96.7,405.1,105z"/>
		</g>
		<g class="st2">
			<path class="st4" d="M47.3,8.8v20.5c0,9.9-5.7,14.9-13.1,14.9c-5.7,0-8.7-1.7-12.4-5.4l5.3-5.4c2,2,3.5,2.5,5.7,2.5
				c3.3,0,5-2.1,5-6.3c0-4.2,0-20.8,0-20.8H47.3z"/>
			<path class="st4" d="M85.8,8.8v20.5c0,9.9-6.9,14.9-15.3,14.9s-15.2-4.9-15.2-14.9V8.8h9.5c0,0,0,16.6,0,20.8
				c0,4.2,2.6,6.3,5.8,6.3c3.2,0,5.8-2.1,5.8-6.3c0-4.2,0-20.8,0-20.8H85.8z"/>
		</g>
		<g class="st2">
			<path class="st4" d="M102.1,8.8l12,18.4V8.8h9.5v34.6h-8.4l-12-18.4v18.4h-9.5V8.8H102.1z"/>
		</g>
		<g class="st2">
			<path class="st4" d="M158.8,16.8h-10.1v26.6h-9.5V16.8h-10.1v-8h29.7V16.8z"/>
		</g>
		<g class="st2">
			<path class="st4" d="M199.5,26.1c0,10-8.6,18.1-18.6,18.1c-10,0-18.7-8.1-18.7-18.1S170.9,8,180.9,8
				C190.9,8,199.5,16.1,199.5,26.1z M190.4,26.1c0-5.2-4.3-9.5-9.5-9.5c-5.2,0-9.5,4.3-9.5,9.5s4.3,9.5,9.5,9.5
				C186.2,35.5,190.4,31.3,190.4,26.1z"/>
		</g>
		<g class="st2">
			<path class="st4" d="M232,34c-0.7,9.8-10.6,10.7-16.3,10.1c-5.3-0.5-10.3-2.9-13.2-5l4.4-7.2c3.9,4.5,14.1,6,14.9,2.2
				c1.3-6.2-18.4-2.9-16.7-16.7c0.6-5.1,4.4-10,15-9.5c6.7,0.4,10,2.8,10.8,3.4l-3.4,7.4c-3.2-3-12-4.8-12.9-0.7
				C213.5,23.4,232.9,21.6,232,34z"/>
		</g>
	</g>
</g>
</svg>
