<svg xmlns="http://www.w3.org/2000/svg" viewBox="0 0 93.63 513.88" fill="#df6718"><path d="M75.7 447.67a8 8 0 0 1-.56 3 7.25 7.25 0 0 1-1.71 2.61L52.7 474v32.1a7.36 7.36 0 0 1-.63 3 8.33 8.33 0 0 1-1.69 2.48 7.73 7.73 0 0 1-13.22-5.52V476.2l-23-23a7.39 7.39 0 0 1-1.71-2.61 8 8 0 0 1-.56-3 7.81 7.81 0 0 1 7.79-7.8 7.79 7.79 0 0 1 2.94.59 7.69 7.69 0 0 1 2.58 1.74l18.6 18.6 18.6-18.52a7.69 7.69 0 0 1 2.6-1.74 7.79 7.79 0 0 1 2.94-.59 7.78 7.78 0 0 1 7.79 7.8zm16.65-66.37L71.6 359.73a35.39 35.39 0 1 0-6.78 6.19l20.9 21.76a4.594 4.594 0 0 0 6.62-6.37zm-47.7-70.25a26 26 0 1 1-26 26 26.06 26.06 0 0 1 26-26zm33.8-132.83a40.43 40.43 0 0 0-15.14-14.41 39.67 39.67 0 0 0-20.51-4.95 39.65 39.65 0 0 0-20.24 5.95 40.33 40.33 0 0 0-14.41 15.13 40.87 40.87 0 0 0 1 40.76 40.43 40.43 0 0 0 15.14 14.41 39.69 39.69 0 0 0 20.51 4.95A39.74 39.74 0 0 0 65 234.11 40.43 40.43 0 0 0 79.46 219a40.91 40.91 0 0 0-1-40.76zm-9.4 35.06A28.71 28.71 0 0 1 58.85 224a28 28 0 0 1-14.34 4.21 28 28 0 0 1-14.51-3.5 28.73 28.73 0 0 1-10.74-10.21 28.91 28.91 0 0 1-.7-28.86 28.55 28.55 0 0 1 10.21-10.72 28.88 28.88 0 0 1 28.86-.71 28.78 28.78 0 0 1 10.72 10.21 28.94 28.94 0 0 1 .71 28.86zm-25.58-27.35a13.539 13.539 0 1 0 .66 27.07 13.534 13.534 0 0 0-.66-27.06zM9.5 49.24l.1-2.8H5.7A5.71 5.71 0 0 0 0 52.16v11.1A5.71 5.71 0 0 0 5.71 69h3.8zm72.4-2.8H78l.1 2.8V69h3.8a5.71 5.71 0 0 0 5.71-5.71V52.16a5.71 5.71 0 0 0-5.71-5.71zm-8.16 36v-33.2l-.13-2.74a29.93 29.93 0 0 0-26.12-27V14a7.47 7.47 0 1 0-7.37 0v5.6A29.93 29.93 0 0 0 14 46.51l-.13 2.73v33.2H30.4v-6.36a3.28 3.28 0 0 1 3.28-3.28h20.25a3.28 3.28 0 0 1 3.28 3.28v6.36zM29.37 64.32a8.15 8.15 0 1 1 8.15-8.14 8.14 8.14 0 0 1-8.15 8.14zm21.9-8.14a8.14 8.14 0 1 1 8.14 8.14 8.14 8.14 0 0 1-8.14-8.14zM78.53 86.8H9.08a2.76 2.76 0 0 0-2.76 2.76v9.37a2.76 2.76 0 0 0 2.76 2.76h69.45a2.76 2.76 0 0 0 2.76-2.76v-9.37a2.76 2.76 0 0 0-2.76-2.76zM46.4 413.58h-5.25v-7.75h-7.8v-5.32h7.8v-7.8h5.25v7.8h7.83v5.32H46.4zm0-130.88h-5.25V275h-7.8v-5.33h7.8v-7.8h5.25v7.8h7.83V275H46.4zm0-142.76h-5.25v-7.75h-7.8v-5.33h7.8v-7.8h5.25v7.8h7.83v5.33H46.4z"/></svg>