<svg xmlns="http://www.w3.org/2000/svg" viewBox="0 0 239.56 287.66"><defs><style>.cls-1{fill:#fff;}</style></defs><title>Asset 14</title><g id="Layer_2" data-name="Layer 2"><g id="Layer_1-2" data-name="Layer 1"><path class="cls-1" d="M43.39,14.13a7,7,0,0,0,4.27-1.47L70.79,44.32l1.75-2A62.53,62.53,0,0,0,56.77,83.54v47.65c0,8.28,7.17,14.47,15.45,14.47h40.55v-5.9c0-3.6,2.2-6.89,5.79-7.25a6.58,6.58,0,0,1,7.21,6.86v6.29h41.76c8.27,0,14.24-6.19,14.24-14.47V83.54a62,62,0,0,0-13.45-39.2l.45.26,23.29-31.74a7.1,7.1,0,1,0-2.95-5.8,7,7,0,0,0,1.46,4.25L159,34.59l.18.18A62.37,62.37,0,0,0,119.87,20.9h0A62.34,62.34,0,0,0,78.55,36.54l2.24-2.24L49.22,11.06a7.06,7.06,0,1,0-5.83,3.07Zm76.48,29A40.44,40.44,0,1,1,79.43,83.54,40.43,40.43,0,0,1,119.87,43.1Z"/><circle class="cls-1" cx="119.87" cy="83.54" r="7.06"/><path class="cls-1" d="M227.82,145.53A9.47,9.47,0,0,1,213,133.73l-11.75-9.36a24.5,24.5,0,0,0-.52,29.79,21.07,21.07,0,0,1-8.66,13.75c-6.84,4.51-16.31,4.07-29.31-1.16v-4.42c0-4.49-3.45-6.67-7.94-6.67H84.74c-4.49,0-9,2.18-9,6.67v4.42c-13,5.22-22,5.67-28.8,1.16-5.34-3.54-7.62-9.43-8.35-13.75a24.49,24.49,0,0,0-.41-29.79l-11.7,9.36a9.45,9.45,0,1,1-14.76,11.8L0,154.89a24.48,24.48,0,0,0,19.18,9.22,24.36,24.36,0,0,0,6.54-1,34.91,34.91,0,0,0,13.4,17.3,33.43,33.43,0,0,0,19.27,5.61,50.42,50.42,0,0,0,17.38-3.2v57.64c0,4.48,4.48,8.17,9,8.17h70.09a8,8,0,0,0,7.94-8.17V182.85a53.19,53.19,0,0,0,17.89,3.2,34,34,0,0,0,33.17-22.91,24.1,24.1,0,0,0,25.73-8.25Zm-115,17.13h16v10h-16Zm11.74,21-11.9,11.75,3.92-19.79H123Zm-13.79,21.68.06.06,15-15,2.8,14-22.11,22.11Zm9,32.72-9.34-7.78,19.46-19.47L133.09,227Z"/><path class="cls-1" d="M62,215.66H33.84c-3.5,0-7.07,1.7-7.07,5.21v1.35c0,3.51,3.57,6.44,7.07,6.44H62c3.51,0,7.78-2.93,7.78-6.44v-1.35C69.77,217.36,65.5,215.66,62,215.66Z"/><path class="cls-1" d="M62,234.66H28.46c-3.51,0-5.69,2.86-5.69,6.37v1.35c0,3.51,2.18,6.28,5.69,6.28H62c3.51,0,7.78-2.77,7.78-6.28V241C69.77,237.52,65.5,234.66,62,234.66Z"/><path class="cls-1" d="M62,254.66H24.18c-3.5,0-7.41,3-7.41,6.53v1.35c0,3.51,3.91,6.12,7.41,6.12H62c3.51,0,7.78-2.61,7.78-6.12v-1.35C69.77,257.68,65.5,254.66,62,254.66Z"/><path class="cls-1" d="M62,274.66H18.37c-3.5,0-4.6,3.18-4.6,6.69v1.35c0,3.51,1.1,5,4.6,5H62c3.51,0,7.78-1.45,7.78-5v-1.35C69.77,277.84,65.5,274.66,62,274.66Z"/><path class="cls-1" d="M177.58,228.66h28.15a6.17,6.17,0,0,0,6-6.44v-1.35c0-3.51-2.53-5.21-6-5.21H177.58c-3.51,0-4.81,1.7-4.81,5.21v1.35C172.77,225.73,174.07,228.66,177.58,228.66Z"/><path class="cls-1" d="M172.77,242.38c0,3.51,1.3,6.28,4.81,6.28h33.53c3.51,0,7.66-2.77,7.66-6.28V241c0-3.51-4.15-6.37-7.66-6.37H177.58c-3.51,0-4.81,2.86-4.81,6.37Z"/><path class="cls-1" d="M172.77,262.54c0,3.51,1.3,6.12,4.81,6.12h37.81a6.18,6.18,0,0,0,6.38-6.12v-1.35a6.53,6.53,0,0,0-6.38-6.53H177.58c-3.51,0-4.81,3-4.81,6.53Z"/><path class="cls-1" d="M221.2,274.66H177.58c-3.51,0-4.81,3.18-4.81,6.69v1.35c0,3.51,1.3,5,4.81,5H221.2c3.51,0,7.57-1.45,7.57-5v-1.35C228.77,277.84,224.71,274.66,221.2,274.66Z"/></g></g></svg>