<svg xmlns="http://www.w3.org/2000/svg" viewBox="0 0 1371.33 1018.69"><path d="M1096.7 181a8.07 8.07 0 1 0-14.48 4.85l-36.08 26.57.2.2a71.14 71.14 0 0 0-44.82-15.84 71.16 71.16 0 0 0-47.17 17.86l2.55-2.55-36-26.54a8.35 8.35 0 1 0-1.78 1.83l26.4 36.14 2.26-2.26a71.17 71.17 0 0 0-17.74 47v54.4a17.11 17.11 0 0 0 17.11 17.11h46.54v-7.33a8.17 8.17 0 0 1 7.06-8.27 7.87 7.87 0 0 1 8.67 7.83v7.77h46.54a17.11 17.11 0 0 0 17.02-17.04v-54.4a71.13 71.13 0 0 0-15.78-44.75l.3.3 26.48-36.24a8.06 8.06 0 0 0 12.67-6.62zm-95.18 133.48a46.17 46.17 0 1 1 46.16-46.17 46.17 46.17 0 0 1-46.16 46.2zm8.06-46.17a8.07 8.07 0 1 1-8.06-8.07 8.06 8.06 0 0 1 8.06 8.1zM854.3 227.7a12.29 12.29 0 0 1-.82 4.35 10.76 10.76 0 0 1-2.51 3.81l-30.42 30.42v47.06a10.71 10.71 0 0 1-.92 4.45 12.05 12.05 0 0 1-2.48 3.64 11.39 11.39 0 0 1-16.08 0 11.27 11.27 0 0 1-3.29-8.09v-43.8l-33.68-33.68a10.76 10.76 0 0 1-2.51-3.85 12.29 12.29 0 0 1-.82-4.35 11.28 11.28 0 0 1 3.36-8.06 11.33 11.33 0 0 1 12.38-2.5 11.26 11.26 0 0 1 3.77 2.54l27.25 27.25 27.26-27.25a11.26 11.26 0 0 1 3.77-2.54 11.05 11.05 0 0 1 4.31-.86 11.32 11.32 0 0 1 8.07 3.36 11.28 11.28 0 0 1 3.36 8.06zM695.47 336.4l-32.4-33.7a55.14 55.14 0 1 0-10.58 9.67l32.65 34a7.17 7.17 0 1 0 10.33-9.94zM621 226.73a40.63 40.63 0 1 1-40.62 40.63A40.68 40.68 0 0 1 621 226.73zm-130.72 11.14a59.25 59.25 0 0 0-22.18-21.12 59.89 59.89 0 0 0-59.73 1.46 59.17 59.17 0 0 0-21.12 22.18 59.89 59.89 0 0 0 1.46 59.73 59.1 59.1 0 0 0 22.18 21.12 59.89 59.89 0 0 0 59.73-1.46 59.17 59.17 0 0 0 21.12-22.18 59.89 59.89 0 0 0-1.46-59.73zm-13.78 51.4a42.09 42.09 0 0 1-15 15.71 42.39 42.39 0 0 1-42.3 1 42 42 0 0 1-15.72-15 42.39 42.39 0 0 1-1-42.3 42 42 0 0 1 15-15.71 42.41 42.41 0 0 1 42.29-1 42.12 42.12 0 0 1 15.72 15 42.48 42.48 0 0 1 1 42.31zm-37.5-40.1a19.84 19.84 0 1 0 14.16 5.47 19.15 19.15 0 0 0-14.16-5.47zm-248.83 11.6l.16-4.1h-5.72a8.37 8.37 0 0 0-8.37 8.37v16.27a8.37 8.37 0 0 0 8.37 8.37h5.56zm106.1-4.1h-5.72l.17 4.1v28.9h5.55a8.37 8.37 0 0 0 8.37-8.37V265a8.37 8.37 0 0 0-8.37-8.37zm-11.97 52.75v-48.65l-.2-4a43.86 43.86 0 0 0-38.28-39.51V209a10.93 10.93 0 1 0-10.8 0v8.2a43.87 43.87 0 0 0-38.28 39.53l-.18 4v48.65h24.22v-9.28a4.81 4.81 0 0 1 4.81-4.81h29.67a4.81 4.81 0 0 1 4.8 4.81v9.32zm-65-26.55a11.94 11.94 0 1 1 11.94-11.94 11.95 11.95 0 0 1-11.94 11.94zm32.1-11.94a11.94 11.94 0 1 1 11.93 11.94 11.93 11.93 0 0 1-11.93-11.94zm39.93 44.9H189.55a4.06 4.06 0 0 0-4.05 4.05v13.73a4.05 4.05 0 0 0 4.05 4h101.78a4 4 0 0 0 4.05-4v-13.73a4.05 4.05 0 0 0-4.05-4.05zm54.54-31.22h-7.7v-11.35h-11.42v-7.8h11.42V254h7.7v11.42h11.47v7.8h-11.47zm190.13 0h-7.7v-11.35h-11.38v-7.8h11.42V254H536v11.42h11.47v7.8H536zm323.1-19.7v-7.32h28.67v7.32zm0 14.86v-7.32h28.67v7.32zm-135.24 4.84h-7.7v-11.35h-11.42v-7.8h11.42V254h7.7v11.42h11.47v7.8h-11.47z"/><g fill="none" stroke="#4e4d4e" stroke-miterlimit="10" stroke-width="3"><path d="M242.57 357.92v6"/><path d="M242.57 375.67V556.8a28.71 28.71 0 0 1-28.71 28.71h-96.7" stroke-dasharray="11.74 11.74"/><path d="M111.3 585.5h-6m328.63-393.9v-6"/><path d="M433.93 173.52V86.6a28.7 28.7 0 0 0-28.7-28.7H108.4" stroke-dasharray="12.08 12.08"/><path d="M102.36 57.9h-6m521.8 280.35v6"/><path d="M618.15 356.26v75.35a28.7 28.7 0 0 0 28.7 28.7H808.7" stroke-dasharray="12.01 12.01"/><path d="M814.7 460.3h6m-16.55-249.03v-6"/><path d="M804.15 193V43.7A28.7 28.7 0 0 1 832.85 15h118.78" stroke-dasharray="12.28 12.28"/><path d="M957.77 14.98h6"/></g><path d="M10.77 590.67v-22.83h10.9a4.68 4.68 0 0 1 4.62 4.66v1.76a4.48 4.48 0 0 1-1.36 3.29 4.43 4.43 0 0 1-3.26 1.37h-2L26 589.74a1.87 1.87 0 0 1 .29 1 1.43 1.43 0 0 1-.48 1.08 1.53 1.53 0 0 1-1.08.44 1.51 1.51 0 0 1-1.4-.82l-7.2-12.47H13.9v11.75a1.48 1.48 0 0 1-.47 1.1 1.53 1.53 0 0 1-1.11.44 1.47 1.47 0 0 1-1.09-.44 1.5 1.5 0 0 1-.45-1.15zm3.08-14.83h7.8a1.54 1.54 0 0 0 1.54-1.54v-1.8a1.54 1.54 0 0 0-1.54-1.5h-7.8zm35.08 4.23v6.5a5.14 5.14 0 0 1-2 3.84 6 6 0 0 1-4 1.76h-3.6a5.92 5.92 0 0 1-4-1.79 5.19 5.19 0 0 1-1.92-3.81v-6.5a5.25 5.25 0 0 1 1.88-3.8 5.83 5.83 0 0 1 4.08-1.79H43a5.84 5.84 0 0 1 4 1.73 5.15 5.15 0 0 1 1.93 3.86zm-12.43.13v6.24a1.65 1.65 0 0 0 .6 1.34l1.16 1a1.59 1.59 0 0 0 1.08.33h3.58a2.12 2.12 0 0 0 1.43-.57l.93-.83a1.46 1.46 0 0 0 .57-1.23v-6.23a1.62 1.62 0 0 0-.57-1.36l-1.08-.9a1.94 1.94 0 0 0-1.28-.46h-3.2a2.39 2.39 0 0 0-1.61.5l-1 .9a1.53 1.53 0 0 0-.61 1.26zm22.76-10.82v7.25l1.35-1.1a4.18 4.18 0 0 1 2.66-1.06h2.83a4.12 4.12 0 0 1 2.77 1.06l1.46 1.27a3.84 3.84 0 0 1 1 1.52 5.31 5.31 0 0 1 .4 1.95v6.23a5 5 0 0 1-.37 1.78 4 4 0 0 1-.84 1.38l-1.34 1.26a4.69 4.69 0 0 1-1.47.89 4.43 4.43 0 0 1-1.61.39h-2.64a6.42 6.42 0 0 1-4.2-2.14v.6a1.5 1.5 0 0 1-.45 1.1 1.58 1.58 0 0 1-2.19 0 1.5 1.5 0 0 1-.45-1.1v-21.3a1.55 1.55 0 1 1 3.09 0zm6.6 8.22h-2.13a1.71 1.71 0 0 0-1.17.35l-2.77 2.36a1.81 1.81 0 0 0-.53 1.43v3.5a1.62 1.62 0 0 0 .6 1.28l2.48 2.1a1.61 1.61 0 0 0 1.12.5H66a1.34 1.34 0 0 0 .91-.33l1.23-1.1a1.25 1.25 0 0 0 .5-1v-6.5a1.43 1.43 0 0 0-.5-1.17L67 578a1.74 1.74 0 0 0-1.14-.4zm28.44 2.47v6.5a5.14 5.14 0 0 1-2 3.84 6 6 0 0 1-4 1.76h-3.6a5.88 5.88 0 0 1-4-1.79 5.17 5.17 0 0 1-1.93-3.81v-6.5a5.25 5.25 0 0 1 1.88-3.8 5.83 5.83 0 0 1 4.08-1.79h3.6a5.84 5.84 0 0 1 4 1.73 5.15 5.15 0 0 1 1.95 3.86zm-8-9l-5 2.3a1.52 1.52 0 0 1-.66.15 1.41 1.41 0 0 1-1.09-.49 1.59 1.59 0 0 1-.43-1.09 1.43 1.43 0 0 1 .86-1.4l5.7-2.53a1.81 1.81 0 0 1 .66-.15 1.54 1.54 0 0 1 .66.15l5.6 2.58a1.46 1.46 0 0 1 .86 1.4 1.59 1.59 0 0 1-.43 1.09 1.4 1.4 0 0 1-1.09.49 1.58 1.58 0 0 1-.66-.15zm-4.47 9.1v6.24a1.65 1.65 0 0 0 .6 1.34l1.16 1a1.6 1.6 0 0 0 1.08.33h3.58a2.12 2.12 0 0 0 1.43-.57l.93-.83a1.46 1.46 0 0 0 .57-1.23v-6.23a1.62 1.62 0 0 0-.57-1.36l-1.04-.85a1.94 1.94 0 0 0-1.28-.46h-3.2a2.4 2.4 0 0 0-1.62.5l-1 .9a1.53 1.53 0 0 0-.61 1.26z" fill="#df6718"/><g fill="#4e4d4e"><path d="M14.62 612.17v3.94a2.19 2.19 0 0 0 .5 1.41l2.43 3.13a.89.89 0 0 1 .18.59 1 1 0 0 1-.32.78 1.12 1.12 0 0 1-.74.28.83.83 0 0 1-.67-.3l-2.47-3.15a3.9 3.9 0 0 1-.93-2.5v-4.4a4 4 0 0 1 .93-2.48L16 606.3a.81.81 0 0 1 .68-.32 1.12 1.12 0 0 1 .76.28 1 1 0 0 1 .32.78.83.83 0 0 1-.19.58l-2.44 3.12a2.26 2.26 0 0 0-.51 1.42zm18.26 10.07h-6.26a1 1 0 0 1-.73-1.75 1 1 0 0 1 .73-.31h2.1v-7.66h-2.08a1 1 0 0 1-1.02-1.03 1 1 0 0 1 1.02-1.05h3.13a1 1 0 0 1 1.03 1.05v8.7h2.05a1 1 0 0 1 .74.3 1 1 0 0 1 .01 1.46 1 1 0 0 1-.72.3zM28.7 605.1h1.07a1 1 0 0 1 1 1v.9a1 1 0 0 1-1.03 1.05h-1.1a1 1 0 0 1-1.02-1.03v-.9a1 1 0 0 1 1-1zm15.87 7.75l-2.8 1.82v6.56a1 1 0 0 1-.31.73 1 1 0 0 1-1.75-.73v-9.74a1 1 0 0 1 .3-.74 1 1 0 0 1 1.45 0 1.05 1.05 0 0 1 .31.74v.68l1.87-1.17a3.89 3.89 0 0 1 2.13-.6h1a2.92 2.92 0 0 1 2.11.87 3.06 3.06 0 0 1 .95 2.14l.28 7.78a1 1 0 0 1-2.03.03l-.3-7.66a1 1 0 0 0-1.13-1.08h-1a1.86 1.86 0 0 0-1.08.37zm17.48 9.4H60a3 3 0 0 1-2.19-.9 3 3 0 0 1-.92-2.18v-6.66h-1a1 1 0 1 1 0-2.06h1.07v-2.52a1 1 0 0 1 1.03-1.02 1 1 0 0 1 1.03 1.02v2.52h4.08a1 1 0 0 1 .72.31 1 1 0 0 1 0 1.45 1 1 0 0 1-.72.3h-4.16v6.66a1 1 0 0 0 1.06 1.03h2a1.08 1.08 0 0 0 1.09-.89 1.06 1.06 0 0 1 1-.89 1 1 0 0 1 .74.3 1.05 1.05 0 0 1 .28.76 2.73 2.73 0 0 1-.87 1.85 3 3 0 0 1-2.19.92zm18.25-7.93v2.48a1 1 0 0 1-1.02 1.03H72v.6a1.1 1.1 0 0 0 .46.9l.6.5a1.58 1.58 0 0 0 .93.38h5.3a1 1 0 0 1 .72.3A1 1 0 0 1 80 622a1 1 0 0 1-.71.3h-5.43a3.14 3.14 0 0 1-1.13-.22 3 3 0 0 1-.88-.48l-.9-.8a2.58 2.58 0 0 1-.72-1 2.66 2.66 0 0 1-.29-1.12V614a2.86 2.86 0 0 1 .32-1.09 2.82 2.82 0 0 1 .78-1.06l.86-.67a2.89 2.89 0 0 1 1.87-.69h2.9a2.94 2.94 0 0 1 2 .91l.77.73a2.86 2.86 0 0 1 .88 2.2zm-8.3-.16v1.6h6.23v-1.43a1.1 1.1 0 0 0-.35-.88l-.6-.53a1.41 1.41 0 0 0-.83-.38H73.9a1.31 1.31 0 0 0-.87.33l-.6.5a1 1 0 0 0-.44.8zm21.37 8.1h-6.2a1 1 0 1 1-.03-2.05h2v-12.14h-2a1.03 1.03 0 1 1 0-2.06h3.13a1 1 0 0 1 1 1v13.14h2.08a1.06 1.06 0 0 1 1 1 1 1 0 0 1-.98 1.11zm15.13-.02h-6.26a1 1 0 0 1-.73-1.75 1 1 0 0 1 .73-.31h2.1v-7.66h-2.08a1 1 0 1 1 0-2.08h3.13a1 1 0 0 1 1.03 1.05v8.7h2a1 1 0 0 1 1.05 1.03 1 1 0 0 1-.97 1.03zm-4.2-17.13h1.08a1 1 0 0 1 1 1v.9a1 1 0 0 1-1.03 1.05h-1.1a1 1 0 0 1-1.03-1.03v-.9a1 1 0 0 1 1-1zm17.48 21.55h-4.45a1 1 0 0 1-.72-.29 1 1 0 0 1 0-1.46 1 1 0 0 1 .72-.29h4.45a1.15 1.15 0 0 0 .76-.3l.7-.6a.84.84 0 0 0 .35-.71v-3.13a4.06 4.06 0 0 1-2.81 1.45h-1.57a3.32 3.32 0 0 1-2.21-.84l-.77-.7a2.51 2.51 0 0 1-.65-.93 2.89 2.89 0 0 1-.27-1.19v-3.4a3.52 3.52 0 0 1 .27-1.37 2.53 2.53 0 0 1 .65-1l.85-.72a3.15 3.15 0 0 1 2.13-.78h1.47a3.3 3.3 0 0 1 2.21.85l.7.6v-.4a1 1 0 1 1 2.08 0V623a2.87 2.87 0 0 1-1.05 2.23l-.83.73a2.91 2.91 0 0 1-.9.48 3.22 3.22 0 0 1-1.11.22zm-1.17-14.17h-1.38a1.33 1.33 0 0 0-.87.36l-.63.52a1 1 0 0 0-.37.83v3.43a1 1 0 0 0 .4.78l.68.6a1 1 0 0 0 .67.27h1.67a1.28 1.28 0 0 0 .81-.37l1.63-1.38a1 1 0 0 0 .37-.81v-1.55a1.16 1.16 0 0 0-.42-.92l-1.68-1.43a1.25 1.25 0 0 0-.88-.33zm20.2 1.84v2.48a1.06 1.06 0 0 1-1 1h-7.26v.6a1.12 1.12 0 0 0 .45.9l.6.5a1.53 1.53 0 0 0 .93.38h5.28a1 1 0 1 1-.03 2.03h-5.42a3.18 3.18 0 0 1-1.13-.22 3.09 3.09 0 0 1-.87-.48l-.92-.8a2.67 2.67 0 0 1-.71-1 2.52 2.52 0 0 1-.29-1.12V614a3.4 3.4 0 0 1 1.1-2.15l.85-.67a2.91 2.91 0 0 1 1.88-.69h2.88a2.93 2.93 0 0 1 2.05.91l.77.73a2.83 2.83 0 0 1 .84 2.2zm-5.3-6.14l-3.3 1.53a1.13 1.13 0 0 1-.44.1.93.93 0 0 1-.73-.33 1.07 1.07 0 0 1-.29-.73 1 1 0 0 1 .58-.93l3.74-1.72a1.31 1.31 0 0 1 .44-.1 1.14 1.14 0 0 1 .45.1l3.74 1.72a1 1 0 0 1 .58.93 1.07 1.07 0 0 1-.29.73.92.92 0 0 1-.73.33 1.21 1.21 0 0 1-.44-.1zm-3 6v1.6h6.24v-1.43a1.08 1.08 0 0 0-.36-.88l-.6-.53a1.39 1.39 0 0 0-.83-.38h-2.54a1.31 1.31 0 0 0-.87.33l-.6.5a1 1 0 0 0-.41.78zm17.94-1.34l-2.8 1.82v6.56a1 1 0 1 1-2 0v-9.74a1 1 0 0 1 1.02-1.05 1 1 0 0 1 1.03 1.05v.68l1.82-1.17a3.9 3.9 0 0 1 2.14-.6h1a2.94 2.94 0 0 1 2.12.87 3 3 0 0 1 .94 2.14l.28 7.78a1 1 0 1 1-2.05 0l-.3-7.66a1 1 0 0 0-1.12-1.08h-1a1.83 1.83 0 0 0-1.06.4zm19.56 9.4h-4.4a2.94 2.94 0 0 1-2-.7l-2-1.73a2.65 2.65 0 0 1-1-2.15V615a2.77 2.77 0 0 1 1.08-2.27l1.8-1.56a2.91 2.91 0 0 1 1.86-.71h4.6a1 1 0 0 1 .02 2.03h-4.42a1.18 1.18 0 0 0-.79.33l-1.65 1.4a1.16 1.16 0 0 0-.41.92v2.5a.88.88 0 0 0 .32.68l1.8 1.54a1.28 1.28 0 0 0 .9.31h4.3a1 1 0 1 1 .03 2.02zm14.1-.02h-6.26a1 1 0 0 1-.72-1.75 1 1 0 0 1 .72-.31H180v-7.66h-2.08a1 1 0 1 1 0-2.08H181a.94.94 0 0 1 .72.31 1 1 0 0 1 .3.74v8.7h2.06a1 1 0 0 1 .74.3 1 1 0 0 1 0 1.46 1 1 0 0 1-.71.3zm-4.18-17.13H181a1 1 0 0 1 1.02 1.03v.86a1 1 0 0 1-1.02 1.05h-1.1a1 1 0 0 1-1.03-1.03v-.9a1 1 0 0 1 1.06-1.01zm14.08 9.74h4a4.45 4.45 0 0 1 1 .15v-1.46a1 1 0 0 0-1.03-1.02H194a1.06 1.06 0 0 1-1-1 1 1 0 0 1 1.03-1.03h3.9a3 3 0 0 1 2.17.9 3.1 3.1 0 0 1 .94 2.18l.25 7.7a1 1 0 0 1-.3.73 1.05 1.05 0 0 1-1.47 0 1 1 0 0 1-.31-.73l-1.73 1H194a3.07 3.07 0 0 1-3.11-3.1V618a3 3 0 0 1 3.11-3.15zm5.13 4l-.06-.87a1 1 0 0 0-1.02-1.02H194a1 1 0 0 0-1 1v1.15a1 1 0 0 0 1 1h2.9zm25.12-4h4a4.52 4.52 0 0 1 1 .15v-1.46a1 1 0 0 0-1-1h-3.9a1 1 0 1 1 .03-2.03h3.9a3 3 0 0 1 3.11 3.08l.26 7.7a1 1 0 1 1-2.08 0l-1.74 1h-3.48a3.07 3.07 0 0 1-3.1-3.1V618a3 3 0 0 1 3.01-3.15zm5.14 4l-.06-.87a1 1 0 0 0-.31-.73.94.94 0 0 0-.72-.29h-4.05a1 1 0 0 0-1.03 1.02v1.15a1 1 0 0 0 1.03 1.03h2.9zm6.93 2.38v-9.74a1 1 0 0 1 1.02-1.05 1 1 0 0 1 .73.3 1.05 1.05 0 0 1 .3.75v1.28l1.68-1.43a3.21 3.21 0 0 1 2-.88h1.5a3.09 3.09 0 0 1 3.08 3.08v.55a1 1 0 0 1-1.03 1.06 1 1 0 0 1-1.02-1.03v-.58a1 1 0 0 0-1.03-1.02h-1.33a1.54 1.54 0 0 0-1 .45l-2.92 2.53v5.73a1 1 0 0 1-2.03.03zm22.33 1.03h-2a3 3 0 0 1-3.1-3.08v-6.66h-1.06a1 1 0 1 1 .02-2.03h1.08v-2.52a1 1 0 1 1 2 0v2.52h4.14a1 1 0 0 1 .72.31 1 1 0 0 1 0 1.45 1 1 0 0 1-.72.3h-4.16v6.66a1 1 0 0 0 1.05 1.03h2a1.08 1.08 0 0 0 1.08-.89 1.06 1.06 0 0 1 1-.89 1 1 0 0 1 .74.3 1.06 1.06 0 0 1 .29.76 2.73 2.73 0 0 1-.87 1.85 3 3 0 0 1-2.21.89z"/><path d="M274.85 622.24h-6.26a1 1 0 0 1-.72-1.75 1 1 0 0 1 .72-.31h2.1v-7.66h-2.08a1 1 0 1 1 0-2.08h3.13a1 1 0 0 1 1.03 1.05v8.7h2.05a1 1 0 1 1 .02 2.06zm-4.18-17.13h1.08a1 1 0 0 1 1.03 1.03v.86a1 1 0 0 1-1.03 1.05h-1.1a1 1 0 0 1-1.03-1.03v-.9a1 1 0 0 1 1.05-1.01zm15.7 7.4v8.7a1 1 0 1 1-2.08 0v-8.7h-1.05a1 1 0 0 1-1-1 1.09 1.09 0 0 1 .28-.72 1 1 0 0 1 .75-.31h1.08v-.8a3.5 3.5 0 0 1 1.08-2.62 3.74 3.74 0 0 1 2.69-1h2.4a1 1 0 1 1 .03 2.05h-2.4a1.75 1.75 0 0 0-1.21.44 1.47 1.47 0 0 0-.48 1.14v.8h2.05a.94.94 0 0 1 .72.3 1 1 0 0 1 0 1.45 1 1 0 0 1-.72.31zm18.73 9.72h-6.26a1 1 0 0 1-.73-.3 1 1 0 0 1 0-1.45 1 1 0 0 1 .73-.31h2.1v-7.66h-2.07a1 1 0 1 1 0-2.08H302a1 1 0 0 1 1.02 1.05v8.7h2.06a1 1 0 0 1 .02 2.06zm-4.18-17.13H302a1 1 0 0 1 1 1v.9a1 1 0 0 1-1.02 1.05h-1.1a1 1 0 0 1-1-1v-.9a1 1 0 0 1 1-1zm20.36 17.15h-4.4a2.91 2.91 0 0 1-2-.7l-2-1.73a2.67 2.67 0 0 1-1-2.15V615a2.79 2.79 0 0 1 1.07-2.27l1.8-1.56a2.91 2.91 0 0 1 1.86-.71h4.6a1 1 0 1 1-.03 2.03h-4.4a1.2 1.2 0 0 0-.8.33l-1.65 1.4a1.15 1.15 0 0 0-.4.92v2.5a.85.85 0 0 0 .32.68l1.8 1.54a1.29 1.29 0 0 0 .91.31h4.2a1 1 0 0 1 .72.3 1 1 0 0 1-.72 1.75zm14.07-.02h-6.26a1 1 0 0 1-.73-1.75 1 1 0 0 1 .73-.31h2.1v-7.66h-2.08a1 1 0 1 1 .03-2.05h3.13a1 1 0 0 1 1.03 1.05v8.7h2.05a1 1 0 0 1 1.05 1.03 1 1 0 0 1-1.05 1zm-4.18-17.13h1.07a1 1 0 0 1 1 1v.9a1 1 0 0 1-1.03 1.05h-1.1a1 1 0 0 1-1-1v-.9a1 1 0 0 1 1-1zm14.07 9.74h4a4.52 4.52 0 0 1 1 .15v-1.46a1 1 0 0 0-1-1h-3.9a1 1 0 0 1 .02-2.03h3.9a3 3 0 0 1 2.17.9 3.06 3.06 0 0 1 .94 2.18l.26 7.7a1 1 0 0 1-1.03 1.03 1.05 1.05 0 0 1-.75-.3 1 1 0 0 1-.3-.73l-1.74 1h-3.48a3.09 3.09 0 0 1-3.11-3.1V618a3.11 3.11 0 0 1 3.11-3.11zm5.14 4l-.06-.87a1 1 0 0 0-.31-.73.94.94 0 0 0-.72-.29h-4.05a1 1 0 0 0-1.03 1.02v1.15a1.06 1.06 0 0 0 1 1h2.9zm15.22 3.4h-6.2a1 1 0 0 1-1.02-1.05 1 1 0 0 1 1.02-1.03h2.06v-12.1h-2.08a1.03 1.03 0 1 1 0-2.06h3.13a1 1 0 0 1 1.03 1.03v13.14h2.07a1 1 0 0 1 1 1 1 1 0 0 1-1 1.08zm12.16-6.14v-4a2.25 2.25 0 0 0-.5-1.41l-2.45-3.1a.88.88 0 0 1-.18-.57 1 1 0 0 1 .32-.77 1.08 1.08 0 0 1 .74-.3.82.82 0 0 1 .69.32l2.5 3.15a3.88 3.88 0 0 1 .91 2.48v4.4a3.87 3.87 0 0 1-.91 2.5l-2.5 3.15a.86.86 0 0 1-.7.32 1 1 0 0 1-1.05-1.08 1 1 0 0 1 .17-.58l2.46-3.1a2.19 2.19 0 0 0 .5-1.38z"/></g><path d="M.1 62.47L6.3 41.4a1.51 1.51 0 0 1 1.56-1.15 1.34 1.34 0 0 1 1.45 1l6.14 21.4a1.56 1.56 0 0 1 .07.46 1.47 1.47 0 0 1-.44 1.09 1.35 1.35 0 0 1-1 .45 1.45 1.45 0 0 1-1.54-1.12l-1.22-4.18H4.25L2.9 63.8a.9.9 0 0 1-.46.56 1.54 1.54 0 0 1-.88.26 1.49 1.49 0 0 1-1.13-.46A1.54 1.54 0 0 1 0 63a1.88 1.88 0 0 1 .09-.53zm7.74-15.1L5.2 56.2h5.2zM35.12 64.6H25.8a1.45 1.45 0 0 1-1.09-.46 1.57 1.57 0 0 1-.45-1.15 1.51 1.51 0 0 1 .45-1 1.48 1.48 0 0 1 1.09-.45h3.08V43.32h-3.1a1.54 1.54 0 1 1 0-3.08h4.7a1.44 1.44 0 0 1 1.08.46 1.46 1.46 0 0 1 .46 1.08V61.5h3.12a1.55 1.55 0 0 1 1.54 1.5 1.57 1.57 0 0 1-.45 1.11 1.45 1.45 0 0 1-1.09.5zM60.9 48.46v2.93l-5.34 12.15a1.55 1.55 0 0 1-1.36 1.07h-2a1.65 1.65 0 0 1-1.58-1.12l-5.3-12.06v-3a1.48 1.48 0 0 1 .45-1.09 1.54 1.54 0 0 1 2.63 1.08v2.37l4.7 10.57 4.66-10.6v-2.3a1.48 1.48 0 0 1 .45-1.09 1.55 1.55 0 0 1 1.12-.45 1.54 1.54 0 0 1 1.54 1.54zm22.67 4V59a5.16 5.16 0 0 1-1.95 3.84 6 6 0 0 1-4 1.76H74a5.92 5.92 0 0 1-4-1.79A5.19 5.19 0 0 1 68 59v-6.53a5.21 5.21 0 0 1 1.88-3.8A5.83 5.83 0 0 1 74 46.88h3.6a5.84 5.84 0 0 1 4 1.72 5.18 5.18 0 0 1 1.96 3.87zm-12.43.13v6.24a1.65 1.65 0 0 0 .6 1.34l1.16 1a1.59 1.59 0 0 0 1.1.32h3.57a2.08 2.08 0 0 0 1.43-.57l.94-.83a1.46 1.46 0 0 0 .57-1.23v-6.23a1.61 1.61 0 0 0-.57-1.36l-1.08-.86a1.94 1.94 0 0 0-1.31-.42h-3.2a2.39 2.39 0 0 0-1.61.5l-1 .9a1.58 1.58 0 0 0-.61 1.21z" fill="#df6718"/><path d="M3.9 84.57v3.94a2.19 2.19 0 0 0 .5 1.41l2.43 3.13a.89.89 0 0 1 .18.59 1 1 0 0 1-.32.77 1.08 1.08 0 0 1-.74.29.83.83 0 0 1-.7-.32l-2.47-3.16a3.86 3.86 0 0 1-.93-2.49v-4.4a4 4 0 0 1 .93-2.48l2.47-3.16a.83.83 0 0 1 .68-.31 1.12 1.12 0 0 1 .76.28 1 1 0 0 1 .32.78.83.83 0 0 1-.19.58l-2.44 3.1a2.28 2.28 0 0 0-.48 1.43zm13.02 2.68h4a4.36 4.36 0 0 1 .95.15v-1.46a1 1 0 0 0-1.03-1.02h-3.9a1 1 0 0 1-.72-.31 1 1 0 0 1 .69-1.72h3.9a3 3 0 0 1 2.17.89A3.14 3.14 0 0 1 24 85.94l.25 7.7a1 1 0 0 1-.3.73 1.05 1.05 0 0 1-1.47 0 1 1 0 0 1-.31-.73l-1.73 1h-3.52a3.09 3.09 0 0 1-3.11-3.11v-1.16a3.11 3.11 0 0 1 3.11-3.11zm5.14 4l-.06-.87a1 1 0 0 0-1.02-1.03h-4a1 1 0 0 0-1.03 1.03v1.15a1 1 0 0 0 1 1h2.9zm9.8-8.4h4.7a3.11 3.11 0 0 1 1.95.66 1.74 1.74 0 0 1 .84 1.27.9.9 0 0 1-.31.72 1 1 0 0 1-.69.29 1.22 1.22 0 0 1-.9-.44 1.12 1.12 0 0 0-.84-.44H32c-.45 0-.68.2-.68.57a.65.65 0 0 0 .46.6l5.46 2.43a3.15 3.15 0 0 1 1.36 1.18 3.2 3.2 0 0 1 .53 1.81 3 3 0 0 1-.93 2.23 3 3 0 0 1-2.12.92h-4.2a3.43 3.43 0 0 1-2-.65c-.62-.43-.92-.85-.92-1.26a1 1 0 0 1 1.07-1.02 1.24 1.24 0 0 1 .84.44 1.78 1.78 0 0 0 1.29.44H36a1 1 0 0 0 .76-.35 1.21 1.21 0 0 0 .3-.8 1 1 0 0 0-.68-1L30.85 88a2.68 2.68 0 0 1-1.22-1 2.51 2.51 0 0 1-.43-1.37 2.68 2.68 0 0 1 .8-1.96 2.47 2.47 0 0 1 1.85-.81zm15.15 0h4.7a3.06 3.06 0 0 1 1.94.66 1.74 1.74 0 0 1 .84 1.27.9.9 0 0 1-.31.72 1 1 0 0 1-.69.29 1.2 1.2 0 0 1-.89-.44 1.13 1.13 0 0 0-.85-.44H47.1q-.7 0-.7.57a.67.67 0 0 0 .46.6l5.46 2.43a3.1 3.1 0 0 1 1.36 1.18 3.21 3.21 0 0 1 .54 1.81 3 3 0 0 1-.94 2.23 3 3 0 0 1-2.12.92H47a3.46 3.46 0 0 1-2-.66c-.6-.43-.92-.85-.92-1.26a1 1 0 0 1 1.08-1.02 1.2 1.2 0 0 1 .83.44 1.78 1.78 0 0 0 1.29.44h3.83a1 1 0 0 0 .76-.35 1.21 1.21 0 0 0 .3-.8 1 1 0 0 0-.68-1L46 88a2.76 2.76 0 0 1-1.23-1 2.58 2.58 0 0 1-.42-1.37 2.67 2.67 0 0 1 .76-1.91 2.5 2.5 0 0 1 1.89-.86zm22.57 3.87v2.48a1 1 0 0 1-1 1h-7.3v.6a1.14 1.14 0 0 0 .45.9l.6.5a1.58 1.58 0 0 0 .93.38h5.28a1 1 0 1 1 0 2.05h-5.4a3.17 3.17 0 0 1-1.13-.21 2.82 2.82 0 0 1-.88-.47l-.9-.8a2.58 2.58 0 0 1-.72-1 2.7 2.7 0 0 1-.29-1.12v-4.67a2.86 2.86 0 0 1 .32-1.09 2.82 2.82 0 0 1 .78-1.06l.86-.67a2.89 2.89 0 0 1 1.84-.69h2.9a2.94 2.94 0 0 1 2 .91l.77.73a2.86 2.86 0 0 1 .91 2.23zm-8.26-.16v1.6h6.23v-1.43a1.14 1.14 0 0 0-.35-.89l-.6-.52a1.41 1.41 0 0 0-.83-.38h-2.58a1.31 1.31 0 0 0-.87.33l-.6.5a1 1 0 0 0-.4.8zm13.04 7.06V83.9a1 1 0 0 1 1.03-1.05 1 1 0 0 1 .73.3 1.05 1.05 0 0 1 .3.75v1.28l1.67-1.43a3.21 3.21 0 0 1 2-.88h1.5a3 3 0 0 1 3.09 3.08v.55a1 1 0 1 1-2.03.05v-.58a1 1 0 0 0-1-1h-1.36a1.55 1.55 0 0 0-1 .45l-2.87 2.5v5.73a1 1 0 0 1-.31.73 1 1 0 0 1-1.75-.73zm22.35 1.03h-2.06a3 3 0 0 1-2.18-.91 2.9 2.9 0 0 1-.92-2.17v-6.66h-1a1 1 0 1 1-.03-2.03h1.07v-2.55a1 1 0 1 1 2.06 0v2.52h4.13a1.06 1.06 0 0 1 1 1 1 1 0 0 1-1 1H93.6v6.66a1 1 0 0 0 1.05 1.03h2a1.08 1.08 0 0 0 1.09-.89 1.06 1.06 0 0 1 1-.89 1 1 0 0 1 1.02 1.05 2.75 2.75 0 0 1-.87 1.86 3 3 0 0 1-2.18.98zm16.2-.02h-6.26a1 1 0 1 1 0-2.06h2.1v-7.66h-2.08a1 1 0 0 1-1-1 1 1 0 0 1 1.02-1.05h3.13a1 1 0 0 1 1.03 1.05v8.7h2a1 1 0 0 1 1.06 1.03 1 1 0 0 1-1 1zm-4.2-17.14h1.07a1 1 0 0 1 1 1v.88a1 1 0 0 1-1.03 1.06h-1.1a1 1 0 0 1-1.02-1.03v-.9a1 1 0 0 1 1-1zm21.38 6.4v2L126.5 94a1 1 0 0 1-.9.72h-1.32a1.1 1.1 0 0 1-1.05-.75l-3.54-8v-2a1 1 0 1 1 2 0v1.57l3.13 7.05 3.17-7.14V83.9a1 1 0 1 1 2.05-.03zm13.06 10.74h-6.26a1 1 0 1 1 0-2.06H139v-7.66h-2.1a1 1 0 1 1 0-2.08h3.1a1 1 0 0 1 1.03 1.05v8.7h2.05a1 1 0 1 1 .06 2.06zM139 77.5h1a1 1 0 0 1 1 1v.88a1 1 0 0 1-1.03 1.06h-1.1a1 1 0 0 1-1.03-1.03v-.9a1 1 0 0 1 1-1zm19.23 6.8v-4.85a1 1 0 0 1 .3-.73.94.94 0 0 1 .71-.3 1 1 0 0 1 1.05 1.03v14.2a1 1 0 0 1-.31.73 1 1 0 0 1-1.75-.73v-.45a4.21 4.21 0 0 1-2.81 1.48h-1.75a3.21 3.21 0 0 1-2.1-.91l-.85-.72a2.49 2.49 0 0 1-.56-.94 3.24 3.24 0 0 1-.26-1.23V86.7a3.15 3.15 0 0 1 .29-1.35 2.77 2.77 0 0 1 .68-1l.85-.72a3.15 3.15 0 0 1 2.13-.78h1.47a3.3 3.3 0 0 1 2.21.85zm-3 .63h-1.43a1.21 1.21 0 0 0-.82.33l-.66.57a1 1 0 0 0-.34.78V91a1 1 0 0 0 .4.77l.68.57a1 1 0 0 0 .67.28h1.67a1.31 1.31 0 0 0 .79-.38l1.62-1.34a1.12 1.12 0 0 0 .4-.88v-2.27a1.36 1.36 0 0 0-.42-1.1l-1.68-1.43a1.25 1.25 0 0 0-.86-.3zm12.92 2.32h4a4.52 4.52 0 0 1 1 .15v-1.46a1 1 0 0 0-1-1h-3.9a1 1 0 0 1-.73-.31 1 1 0 0 1 .73-1.75h3.9a3 3 0 0 1 2.17.89 3.1 3.1 0 0 1 .94 2.19l.26 7.7a1 1 0 1 1-2.08 0l-1.74 1h-3.48a3.11 3.11 0 0 1-3.22-3.1v-1.2a3 3 0 0 1 3.15-3.11zm5.14 4l-.06-.87a1 1 0 0 0-1.03-1.03h-4a1 1 0 0 0-1 1v1.15a1.06 1.06 0 0 0 1 1h2.9zm15.2-6.95v-4.85a1 1 0 1 1 2.06 0v14.2a1 1 0 1 1-2.03.03v-.45a4.21 4.21 0 0 1-2.81 1.48h-1.75a3.21 3.21 0 0 1-2.1-.91L181 93a2.63 2.63 0 0 1-.55-.94 3.26 3.26 0 0 1-.27-1.23v-4.15a3.16 3.16 0 0 1 .3-1.35 2.65 2.65 0 0 1 .68-1l.85-.72a3.14 3.14 0 0 1 2.12-.78h1.48a3.27 3.27 0 0 1 2.2.85zm-3 .63h-1.43a1.19 1.19 0 0 0-.82.33l-.66.57a1 1 0 0 0-.34.78V91a1 1 0 0 0 .4.77l.67.57a1 1 0 0 0 .67.28h1.68a1.27 1.27 0 0 0 .78-.38l1.63-1.34a1.12 1.12 0 0 0 .4-.88v-2.27a1.33 1.33 0 0 0-.43-1.1l-1.67-1.43a1.25 1.25 0 0 0-.86-.3zm20.2 1.8v2.48a1 1 0 0 1-1 1h-7.27v.6a1.12 1.12 0 0 0 .46.9l.6.5a1.53 1.53 0 0 0 .93.38h5.28a1 1 0 1 1 0 2.05h-5.42a3.17 3.17 0 0 1-1.13-.23 2.64 2.64 0 0 1-.87-.47l-.92-.8a2.58 2.58 0 0 1-.72-1 2.67 2.67 0 0 1-.28-1.12v-4.65a3.4 3.4 0 0 1 1.1-2.15l.85-.67a2.89 2.89 0 0 1 1.87-.69H202a2.94 2.94 0 0 1 2.05.91l.77.73a2.83 2.83 0 0 1 .86 2.23zm-8.26-.16v1.6h6.23v-1.43a1.1 1.1 0 0 0-.35-.89l-.6-.52a1.41 1.41 0 0 0-.83-.38h-2.58a1.31 1.31 0 0 0-.87.33l-.6.5a1 1 0 0 0-.4.8zm38.5.16v2.48a1 1 0 0 1-1 1h-7.26v.6a1.14 1.14 0 0 0 .45.9l.6.5a1.58 1.58 0 0 0 .93.38h5.28a1 1 0 0 1 .72.3.94.94 0 0 1 .31.72 1 1 0 0 1-1.03 1.03h-5.4a3.17 3.17 0 0 1-1.13-.23 2.82 2.82 0 0 1-.88-.47l-.9-.8a2.58 2.58 0 0 1-.72-1 2.7 2.7 0 0 1-.29-1.12v-4.65a3 3 0 0 1 .31-1.09 3 3 0 0 1 .79-1.06l.86-.67a2.89 2.89 0 0 1 1.87-.69h2.88a3 3 0 0 1 2.06.91l.77.73a2.86 2.86 0 0 1 .8 2.23zm-8.26-.16v1.6h6.23v-1.43a1.14 1.14 0 0 0-.35-.89l-.6-.52a1.41 1.41 0 0 0-.83-.38h-2.58a1.31 1.31 0 0 0-.87.33l-.6.5a1 1 0 0 0-.4.8zm32.85-1.65v8.7a1 1 0 0 1-1.03 1.03 1.05 1.05 0 0 1-.75-.3 1 1 0 0 1-.3-.73v-8.7h-1.05a1 1 0 1 1 0-2.06h1.07v-.8a3.48 3.48 0 0 1 1.08-2.62 3.79 3.79 0 0 1 2.7-1h2.4a1 1 0 0 1 1.03 1.05 1 1 0 0 1-1.03 1.03h-2.4a1.77 1.77 0 0 0-1.22.44 1.47 1.47 0 0 0-.48 1.14v.8h2.06a.94.94 0 0 1 .72.3 1 1 0 0 1 0 1.45 1 1 0 0 1-.72.31zm20.78 1.65v4.34a3.4 3.4 0 0 1-1.3 2.55 4 4 0 0 1-2.68 1.18h-2.4a3.9 3.9 0 0 1-2.69-1.2 3.45 3.45 0 0 1-1.29-2.53v-4.34A3.48 3.48 0 0 1 272.2 84a3.85 3.85 0 0 1 2.72-1.19h2.4A3.84 3.84 0 0 1 280 84a3.42 3.42 0 0 1 1.3 2.57zm-8.3.08v4.16a1.1 1.1 0 0 0 .41.89l.77.66a1.05 1.05 0 0 0 .72.22h2.38a1.35 1.35 0 0 0 .95-.38l.63-.55a1 1 0 0 0 .38-.82v-4.15a1.09 1.09 0 0 0-.38-.91l-.72-.57a1.28 1.28 0 0 0-.86-.31h-2.13a1.57 1.57 0 0 0-1.07.33l-.7.6a1 1 0 0 0-.39.83zm22.42 8H291a2.94 2.94 0 0 1-2-.7l-2-1.73a2.65 2.65 0 0 1-.95-2.16V87.4a2.76 2.76 0 0 1 1.07-2.28l1.8-1.55a2.91 2.91 0 0 1 1.86-.71h4.6a1.03 1.03 0 0 1 0 2.06H291a1.2 1.2 0 0 0-.79.33l-1.65 1.4a1.16 1.16 0 0 0-.41.92v2.5a.9.9 0 0 0 .32.69l1.8 1.54a1.34 1.34 0 0 0 .91.31h4.2a1 1 0 0 1 .72.3.94.94 0 0 1 .31.72 1 1 0 0 1-1 1zm16.13-8.1v4.34a3.43 3.43 0 0 1-1.3 2.55 4 4 0 0 1-2.69 1.18h-2.4a3.94 3.94 0 0 1-2.69-1.2 3.47 3.47 0 0 1-1.28-2.53v-4.34a3.5 3.5 0 0 1 1.25-2.57 3.88 3.88 0 0 1 2.72-1.19h2.4a3.86 3.86 0 0 1 2.69 1.19 3.46 3.46 0 0 1 1.3 2.57zm-8.3.08v4.16a1.09 1.09 0 0 0 .4.89l.77.66a1.05 1.05 0 0 0 .72.22h2.4a1.35 1.35 0 0 0 .95-.38l.63-.55a1 1 0 0 0 .37-.82v-4.15a1.09 1.09 0 0 0-.37-.91l-.73-.57a1.26 1.26 0 0 0-.85-.31h-2.13a1.62 1.62 0 0 0-1.08.33l-.7.6a1 1 0 0 0-.38.83zm18.4 1.87v-4a2.23 2.23 0 0 0-.5-1.41L318.7 80a.88.88 0 0 1-.18-.57 1 1 0 0 1 .32-.77 1.08 1.08 0 0 1 .74-.3.84.84 0 0 1 .69.31l2.5 3.16a3.86 3.86 0 0 1 .91 2.48v4.4a3.85 3.85 0 0 1-.91 2.49l-2.5 3.16a.86.86 0 0 1-.7.32 1 1 0 0 1-1.05-1.08.93.93 0 0 1 .17-.58l2.46-3.1a2.19 2.19 0 0 0 .5-1.38z" fill="#4e4d4e"/><path d="M833.43 467.92v-22.84a1.48 1.48 0 0 1 .46-1.08 1.52 1.52 0 0 1 1.08-.46 1.57 1.57 0 0 1 1.54 1.54v19.75h10.9a1.57 1.57 0 0 1 1.11.45 1.53 1.53 0 0 1 0 2.19 1.57 1.57 0 0 1-1.11.45zm30-3.12l5.18-3.3v-9.74a1.54 1.54 0 0 1 .45-1.11 1.51 1.51 0 0 1 2.19 0 1.53 1.53 0 0 1 .44 1.11v14.62a1.51 1.51 0 0 1-.45 1.08 1.55 1.55 0 0 1-2.63-1.08v-1.22L866 466.9a5.87 5.87 0 0 1-3.19 1h-1.42a4.47 4.47 0 0 1-3.24-1.32 4.66 4.66 0 0 1-1.45-3.23l-.46-11.6a1.37 1.37 0 0 1 .43-1.07 1.48 1.48 0 0 1 1.11-.47 1.42 1.42 0 0 1 1.07.46 1.53 1.53 0 0 1 .47 1.08l.42 11.4q.06 1.65 1.9 1.65zm18.48 1.35V473a1.55 1.55 0 0 1-.45 1.12 1.48 1.48 0 0 1-1.09.45 1.57 1.57 0 0 1-1.58-1.57v-22a1.48 1.48 0 0 1 .46-1.08 1.52 1.52 0 0 1 1.12-.46 1.57 1.57 0 0 1 1.54 1.54v1q2.24-2.5 4.42-2.5h.72a4.48 4.48 0 0 1 3 1.21l2.57 2.22a4.74 4.74 0 0 1 1.69 3.73v4.8a4.86 4.86 0 0 1-1.82 3.83l-2.5 2.17a4.53 4.53 0 0 1-3.16 1.13h-.67a4.15 4.15 0 0 1-3-1.24zm4.35-.67h.8a1.91 1.91 0 0 0 1.21-.57l2.4-2.1a1.57 1.57 0 0 0 .6-1.3v-5a1.63 1.63 0 0 0-.68-1.3L888 453a1.4 1.4 0 0 0-1-.39h-.9c-.35 0-.8.28-1.34.84l-2.3 2.28a1.87 1.87 0 0 0-.6 1.36v3.9a2 2 0 0 0 .68 1.39l2.22 2.22a2.27 2.27 0 0 0 1.51.87zm19.8-8.68h6a7.23 7.23 0 0 1 1.43.22v-2.18a1.48 1.48 0 0 0-.45-1.09 1.5 1.5 0 0 0-1.09-.45h-5.87a1.57 1.57 0 0 1-1.54-1.54 1.54 1.54 0 0 1 1.54-1.54h5.9a4.48 4.48 0 0 1 3.26 1.34 4.64 4.64 0 0 1 1.41 3.28l.38 11.54a1.55 1.55 0 0 1-1.54 1.54 1.55 1.55 0 0 1-1.12-.45 1.5 1.5 0 0 1-.46-1.09l-2.6 1.54h-5.22a4.64 4.64 0 0 1-4.67-4.66v-1.8a4.68 4.68 0 0 1 4.67-4.66zm7.7 6l-.1-1.3a1.52 1.52 0 0 0-.46-1.1 1.43 1.43 0 0 0-1.08-.44h-6.08a1.5 1.5 0 0 0-1.09.45 1.48 1.48 0 0 0-.45 1.09v1.72a1.57 1.57 0 0 0 1.54 1.54h4.36z" fill="#df6718"/><path d="M837.33 487.87v3.95a2.17 2.17 0 0 0 .49 1.4l2.44 3.13a.94.94 0 0 1 .17.59 1 1 0 0 1-.32.78 1.12 1.12 0 0 1-.74.28.84.84 0 0 1-.7-.32l-2.47-3.15a3.9 3.9 0 0 1-.93-2.5v-4.4a4 4 0 0 1 .93-2.48l2.47-3.15a.84.84 0 0 1 .68-.32 1.12 1.12 0 0 1 .76.28 1 1 0 0 1 .32.78.83.83 0 0 1-.19.58l-2.44 3.12a2.25 2.25 0 0 0-.47 1.42zm12.04 8.93v4.55a1 1 0 0 1-1.03 1.05 1 1 0 0 1-1.05-1.05V486.7a1 1 0 0 1 1.05-1.03 1.06 1.06 0 0 1 1 1v.66a4.09 4.09 0 0 1 2.94-1.66h.48a3 3 0 0 1 2 .8l1.7 1.48a3.16 3.16 0 0 1 1.12 2.49v3.2a3.22 3.22 0 0 1-1.21 2.55l-1.67 1.45a3 3 0 0 1-2.11.75h-.45a2.75 2.75 0 0 1-2-.83zm2.9-.45h.52a1.3 1.3 0 0 0 .81-.38l1.6-1.4a1 1 0 0 0 .4-.87v-3.3a1.11 1.11 0 0 0-.45-.87l-1.72-1.5a1 1 0 0 0-.64-.25h-.6c-.23 0-.52.18-.9.56l-1.53 1.5a1.25 1.25 0 0 0-.4.91v2.63a1.36 1.36 0 0 0 .45.93l1.48 1.48a1.55 1.55 0 0 0 .97.57zm20.5-6.35v2.48a1.06 1.06 0 0 1-1 1h-7.26v.6a1.12 1.12 0 0 0 .45.89l.6.5a1.53 1.53 0 0 0 .93.38h5.28a1 1 0 0 1 .72.3 1 1 0 0 1 0 1.45 1 1 0 0 1-.71.3h-5.42a3.18 3.18 0 0 1-1.13-.22 3.22 3.22 0 0 1-.87-.47l-.92-.8a2.56 2.56 0 0 1-.71-1 2.52 2.52 0 0 1-.29-1.12v-4.7a3.4 3.4 0 0 1 1.1-2.15l.85-.67a2.91 2.91 0 0 1 1.87-.69h2.9a3 3 0 0 1 2 .91l.77.73a2.83 2.83 0 0 1 .85 2.3zm-8.27-.16v1.6h6.24V490a1.08 1.08 0 0 0-.36-.88l-.6-.53a1.39 1.39 0 0 0-.83-.38h-2.58a1.31 1.31 0 0 0-.87.33l-.6.5a1 1 0 0 0-.4.83zm15.9-3.68h4.7a3.06 3.06 0 0 1 1.94.66 1.74 1.74 0 0 1 .84 1.28.92.92 0 0 1-.31.72 1 1 0 0 1-.69.28 1.2 1.2 0 0 1-.89-.44 1.13 1.13 0 0 0-.85-.44h-4.64q-.7 0-.7.57a.66.66 0 0 0 .46.6l5.46 2.43a3.1 3.1 0 0 1 1.36 1.18 3.23 3.23 0 0 1 .54 1.81 3 3 0 0 1-.94 2.23 2.91 2.91 0 0 1-2.12.92h-4.16a3.39 3.39 0 0 1-2-.65c-.6-.43-.92-.85-.92-1.26a1 1 0 0 1 1.08-1.02 1.2 1.2 0 0 1 .83.44 1.78 1.78 0 0 0 1.29.44h3.83a1 1 0 0 0 .76-.35 1.19 1.19 0 0 0 .3-.8 1 1 0 0 0-.68-1l-5.5-2.5a2.7 2.7 0 0 1-1.23-1 2.58 2.58 0 0 1-.42-1.37 2.67 2.67 0 0 1 .76-1.91 2.5 2.5 0 0 1 1.89-.83zM901 501.3v-4.83l-.8.65a3.29 3.29 0 0 1-2.21.87h-1.38a3.07 3.07 0 0 1-2-.69l-1-.8a2.68 2.68 0 0 1-.71-1 3.06 3.06 0 0 1-.27-1.21V490a2.82 2.82 0 0 1 .9-2.26l.75-.65a3.3 3.3 0 0 1 2.3-.93h1.5a4.36 4.36 0 0 1 2.84 1.45v-.42a1 1 0 1 1 2 0v14.14a1 1 0 0 1-.3.75 1 1 0 0 1-1.45 0 1 1 0 0 1-.18-.77zm-4.42-5.43H898a1.24 1.24 0 0 0 .81-.22l1.85-1.57a1.24 1.24 0 0 0 .33-1v-2.36a1.06 1.06 0 0 0-.43-.79L899 488.6a1.14 1.14 0 0 0-.83-.38h-1.68a.88.88 0 0 0-.6.23l-.77.67a1 1 0 0 0-.38.75v4.34a1 1 0 0 0 .43.79l.67.6a1.11 1.11 0 0 0 .69.28zm16.1.01l3.45-2.2v-6.5a1 1 0 0 1 .3-.74 1 1 0 0 1 1.45 0 1 1 0 0 1 .3.74v9.75a1 1 0 1 1-2 0v-.8l-1.78 1.16a3.89 3.89 0 0 1-2.13.67h-1a3 3 0 0 1-2.16-.88 3.11 3.11 0 0 1-1-2.15l-.3-7.74a.86.86 0 0 1 .29-.71 1 1 0 0 1 .74-.32 1.06 1.06 0 0 1 1 1l.3 7.6c0 .74.44 1.1 1.25 1.1zm18.53 2.06h-6.26a1.03 1.03 0 0 1 0-2.06H927v-7.66h-2a1 1 0 1 1 0-2.08h3.13a1 1 0 0 1 1.02 1.05v8.7h2.06a1 1 0 0 1 1.05 1.03 1 1 0 0 1-1.07 1.03zM927 480.8h1.08a1 1 0 0 1 1.02 1.03v.88a1 1 0 0 1-1.02 1.05H927a1 1 0 0 1-1.03-1.03v-.9a1 1 0 0 1 1.03-1.03zm13.9 5.36h4.7a3.06 3.06 0 0 1 1.94.66 1.76 1.76 0 0 1 .85 1.28.93.93 0 0 1-.32.72 1 1 0 0 1-.69.28 1.21 1.21 0 0 1-.89-.44 1.13 1.13 0 0 0-.84-.44H941c-.46 0-.68.2-.68.57a.65.65 0 0 0 .45.6l5.46 2.43a3.18 3.18 0 0 1 1.37 1.18 3.3 3.3 0 0 1 .53 1.81 3 3 0 0 1-.94 2.23 2.91 2.91 0 0 1-2.12.92h-4.15a3.34 3.34 0 0 1-2-.65q-.93-.65-.93-1.26a1 1 0 0 1 1.08-1.02 1.24 1.24 0 0 1 .84.44 1.75 1.75 0 0 0 1.29.44h3.8a1 1 0 0 0 .76-.35 1.2 1.2 0 0 0 .31-.8 1 1 0 0 0-.69-1l-5.5-2.5a2.62 2.62 0 0 1-1.22-1 2.51 2.51 0 0 1-.43-1.37 2.67 2.67 0 0 1 .78-1.9 2.5 2.5 0 0 1 1.9-.84zm15.3 4.4h4a4.36 4.36 0 0 1 1 .15v-1.46a1 1 0 0 0-1-1h-3.9a1 1 0 1 1-.03-2.03h3.9a3 3 0 0 1 2.17.9 3.1 3.1 0 0 1 .94 2.18l.26 7.7a1 1 0 0 1-1 1 1.05 1.05 0 0 1-.75-.3 1 1 0 0 1-.3-.72l-1.74 1h-3.48a3.09 3.09 0 0 1-3.11-3.1v-1.2a3.11 3.11 0 0 1 3.11-3.11zm5.14 4l-.06-.87a1 1 0 0 0-1.01-.97h-4a1 1 0 0 0-1 1v1.15a1.06 1.06 0 0 0 1 1h2.9zm12.26-2.73v-4a2.24 2.24 0 0 0-.49-1.41l-2.46-3.1a.88.88 0 0 1-.18-.57 1 1 0 0 1 1.07-1.07.84.84 0 0 1 .68.32l2.5 3.15a3.93 3.93 0 0 1 .9 2.48v4.4a3.9 3.9 0 0 1-.9 2.5l-2.5 3.15a.85.85 0 0 1-.69.32 1.08 1.08 0 0 1-.74-.29 1 1 0 0 1-.32-.79.89.89 0 0 1 .18-.58l2.45-3.1a2.14 2.14 0 0 0 .5-1.38z" fill="#4e4d4e"/><path d="M1090.75 273.87H1254a33.45 33.45 0 0 1 33.46 33.45v676.4a33.46 33.46 0 0 1-33.46 33.46H842.15" fill="none" stroke="#4e4d4e" stroke-miterlimit="10" stroke-width="3" stroke-dasharray="12"/><path d="M972 24.37V1.54a1.44 1.44 0 0 1 .5-1.08 1.44 1.44 0 0 1 1.08-.46 1.46 1.46 0 0 1 1.08.46 1.44 1.44 0 0 1 .46 1.08V21.3H986a1.54 1.54 0 0 1 1.11.45 1.5 1.5 0 0 1 0 2.18 1.54 1.54 0 0 1-1.11.45zm38.24-11.9v3.72a1.55 1.55 0 0 1-1.54 1.54h-10.9v.9a1.67 1.67 0 0 0 .67 1.34l.9.75a2.33 2.33 0 0 0 1.4.57h7.92a1.49 1.49 0 0 1 1.08.45 1.5 1.5 0 0 1 0 2.17 1.47 1.47 0 0 1-1.07.46h-8.13a4.67 4.67 0 0 1-1.69-.34 4.32 4.32 0 0 1-1.31-.7l-1.38-1.2a4.52 4.52 0 0 1-1.5-3.12v-7.06a4.11 4.11 0 0 1 .47-1.63 4.15 4.15 0 0 1 1.18-1.6l1.28-1a4.38 4.38 0 0 1 2.81-1h4.33a4.49 4.49 0 0 1 3.07 1.29l1.15 1.1a4.27 4.27 0 0 1 1.25 3.37zm-12.4-.24v2.4h9.35v-2.15a1.64 1.64 0 0 0-.53-1.32l-.9-.8a2.07 2.07 0 0 0-1.24-.57h-3.87a2 2 0 0 0-1.3.5l-.9.75a1.42 1.42 0 0 0-.61 1.19zm30.4 12.14h-3.08a4.51 4.51 0 0 1-3.28-1.35 4.44 4.44 0 0 1-1.38-3.27v-10h-1.58a1.53 1.53 0 0 1-1.09-.44 1.49 1.49 0 0 1-.45-1.1 1.5 1.5 0 0 1 .45-1.1 1.53 1.53 0 0 1 1.09-.44h1.62V2.9a1.48 1.48 0 0 1 .45-1.09 1.51 1.51 0 0 1 2.16 0 1.45 1.45 0 0 1 .47 1.08v3.8h6.2a1.51 1.51 0 0 1 1.08.45 1.52 1.52 0 0 1 .46 1.09 1.55 1.55 0 0 1-1.54 1.54h-6.24v10a1.45 1.45 0 0 0 .47 1.08 1.51 1.51 0 0 0 1.11.46h3a1.61 1.61 0 0 0 1.63-1.33 1.59 1.59 0 0 1 1.56-1.33 1.48 1.48 0 0 1 1.11.45 1.6 1.6 0 0 1 .43 1.13 4.12 4.12 0 0 1-1.31 2.78 4.43 4.43 0 0 1-3.34 1.37zm11.87-1.54V8.22a1.53 1.53 0 0 1 .44-1.11 1.45 1.45 0 0 1 1.1-.47 1.47 1.47 0 0 1 1.09.46 1.53 1.53 0 0 1 .45 1.12v1.92l2.5-2.14a4.76 4.76 0 0 1 3-1.32h2.3a4.63 4.63 0 0 1 4.62 4.62v.82a1.53 1.53 0 0 1-.45 1.12 1.45 1.45 0 0 1-1.09.46 1.54 1.54 0 0 1-1.54-1.54v-.86a1.54 1.54 0 0 0-1.54-1.54h-2a2.25 2.25 0 0 0-1.43.68l-4.38 3.8v8.6a1.49 1.49 0 0 1-.46 1.09 1.55 1.55 0 0 1-2.18 0 1.47 1.47 0 0 1-.45-1.09zm27.27-9.57h6a6.7 6.7 0 0 1 1.44.22V11.3a1.54 1.54 0 0 0-1.54-1.54h-5.86a1.57 1.57 0 0 1-1.55-1.54 1.5 1.5 0 0 1 .45-1.1 1.53 1.53 0 0 1 1.09-.44h5.86a4.45 4.45 0 0 1 3.26 1.32 4.68 4.68 0 0 1 1.41 3.29l.38 11.53a1.48 1.48 0 0 1-.45 1.09 1.51 1.51 0 0 1-1.09.45 1.55 1.55 0 0 1-1.12-.45 1.48 1.48 0 0 1-.45-1.09l-2.6 1.54h-5.22a4.63 4.63 0 0 1-4.66-4.66v-1.78a4.68 4.68 0 0 1 4.66-4.66zm7.7 6L1075 18a1.57 1.57 0 0 0-.45-1.1 1.51 1.51 0 0 0-1.09-.44h-6.07a1.5 1.5 0 0 0-1.1.45 1.53 1.53 0 0 0-.44 1.09v1.73a1.51 1.51 0 0 0 .45 1.08 1.48 1.48 0 0 0 1.09.46h4.35zm42.43-6.58v10.15a1.49 1.49 0 0 1-.46 1.09 1.57 1.57 0 0 1-2.2 0 1.45 1.45 0 0 1-.46-1.09V12.7l-6.2-7.85V1.58a1.53 1.53 0 0 1 .45-1.12 1.45 1.45 0 0 1 1.09-.46 1.52 1.52 0 0 1 1.11.47 1.54 1.54 0 0 1 .47 1.12v2.1l4.62 5.94 4.7-5.94V1.57a1.5 1.5 0 0 1 .46-1.1 1.49 1.49 0 0 1 1.08-.47 1.54 1.54 0 0 1 1.08.43 1.49 1.49 0 0 1 .46 1.15V4.8z" fill="#df6718"/><g fill="#4e4d4e"><path d="M975.93 44.33v3.94a2.24 2.24 0 0 0 .49 1.41l2.44 3.13a.89.89 0 0 1 .18.59 1 1 0 0 1-.32.77 1.08 1.08 0 0 1-.75.29.82.82 0 0 1-.69-.32L974.8 51a3.86 3.86 0 0 1-.93-2.49v-4.4a4 4 0 0 1 .93-2.48l2.47-3.16a.83.83 0 0 1 .68-.31 1.08 1.08 0 0 1 .75.28 1 1 0 0 1 .33.78.88.88 0 0 1-.19.58l-2.44 3.1a2.28 2.28 0 0 0-.48 1.43zm19.3 10.1h-4.4a2.91 2.91 0 0 1-2-.7l-2-1.73a2.68 2.68 0 0 1-1-2.16v-2.67a2.79 2.79 0 0 1 1.15-2.28l1.8-1.55a2.91 2.91 0 0 1 1.86-.71h4.6a1 1 0 1 1 0 2h-4.4a1.22 1.22 0 0 0-.8.33l-1.65 1.4a1.13 1.13 0 0 0-.4.92v2.5a.87.87 0 0 0 .32.69l1.8 1.54a1.3 1.3 0 0 0 .9.3h4.2a1 1 0 0 1 1.02 1.03 1 1 0 0 1-.3.73 1 1 0 0 1-.72.35zm16.12-8.1v4.34a3.4 3.4 0 0 1-1.3 2.55 4 4 0 0 1-2.68 1.17H1005a3.89 3.89 0 0 1-2.69-1.19 3.45 3.45 0 0 1-1.29-2.53v-4.34a3.48 3.48 0 0 1 1.26-2.54 3.85 3.85 0 0 1 2.72-1.19h2.4a3.84 3.84 0 0 1 2.68 1.15 3.42 3.42 0 0 1 1.27 2.58zm-8.3.08v4.16a1.1 1.1 0 0 0 .41.89l.77.66a1.05 1.05 0 0 0 .72.22h2.38a1.44 1.44 0 0 0 1-.38l.62-.55a1 1 0 0 0 .38-.82v-4.15a1.09 1.09 0 0 0-.38-.91l-.72-.57a1.28 1.28 0 0 0-.86-.31h-2.12a1.59 1.59 0 0 0-1.08.33l-.7.6a1 1 0 0 0-.42.83zM1021 45l-2.8 1.83v6.56a1 1 0 0 1-.31.72 1 1 0 0 1-1.75-.72v-9.74a1 1 0 0 1 .3-.74 1 1 0 0 1 1.45 0 1 1 0 0 1 .31.74v.68l1.87-1.13a3.89 3.89 0 0 1 2.13-.6h1a3 3 0 0 1 2.11.86 3.08 3.08 0 0 1 1 2.14l.28 7.8a.91.91 0 0 1-.3.72 1 1 0 0 1-1.73-.69l-.3-7.66a1 1 0 0 0-1.13-1.08h-1a1.92 1.92 0 0 0-1.13.32zm19.6 9.42h-4.4a2.91 2.91 0 0 1-2-.7l-2-1.73a2.68 2.68 0 0 1-1-2.16v-2.67a2.79 2.79 0 0 1 1.08-2.28l1.8-1.55a2.91 2.91 0 0 1 1.86-.71h4.6a1 1 0 1 1 0 2h-4.4a1.22 1.22 0 0 0-.8.33l-1.65 1.4a1.13 1.13 0 0 0-.4.92v2.5a.87.87 0 0 0 .32.69l1.8 1.54a1.3 1.3 0 0 0 .9.3h4.2a1 1 0 1 1 .02 2.03zm16.13-7.94V49a1 1 0 0 1-1 1h-7.26v.6a1.09 1.09 0 0 0 .46.89l.6.5a1.56 1.56 0 0 0 .93.37h5.28a1 1 0 0 1 1.03 1.03 1 1 0 0 1-1.03 1.03h-5.4a3.17 3.17 0 0 1-1.13-.23 2.82 2.82 0 0 1-.88-.47l-.9-.8a2.58 2.58 0 0 1-.72-1 2.7 2.7 0 0 1-.29-1.12v-4.68a2.86 2.86 0 0 1 .32-1.09 2.82 2.82 0 0 1 .78-1.06l.86-.67a2.89 2.89 0 0 1 1.87-.69h2.9a2.94 2.94 0 0 1 2.05.91l.77.73a2.85 2.85 0 0 1 .8 2.22zm-8.26-.15v1.58h6.23v-1.43a1.13 1.13 0 0 0-.35-.88l-.6-.52a1.41 1.41 0 0 0-.83-.38h-2.58a1.31 1.31 0 0 0-.87.33l-.6.5a1 1 0 0 0-.4.8zm21.33 8.07h-6.26a1 1 0 0 1-.03-2.02h2.1v-7.7h-2.07a1 1 0 0 1-1-1 1 1 0 0 1 1.03-1.05h3.13a1 1 0 0 1 1.02 1.05v8.7h2.06a1 1 0 0 1 1.05 1.03.94.94 0 0 1-.31.72 1 1 0 0 1-.72.28zm-4.18-17.12h1.08a1 1 0 0 1 1 1v.88a1 1 0 0 1-1.02 1.05h-1.1a1 1 0 0 1-1-1v-.9a1 1 0 0 1 1-1zm18.23 17.14h-2.06a3 3 0 0 1-2.18-.91 2.9 2.9 0 0 1-.92-2.17v-6.67h-1a1.025 1.025 0 1 1 0-2.05h1.07V40.1a1 1 0 1 1 2.03-.02v2.52h4.13a1 1 0 0 1 1.03 1.03 1 1 0 0 1-1.03 1.02h-4.16v6.67a1 1 0 0 0 1.05 1.02h2a1.07 1.07 0 0 0 1.09-.88 1.06 1.06 0 0 1 1-.89 1 1 0 0 1 1.02 1.05 2.75 2.75 0 0 1-.87 1.86 3 3 0 0 1-2.2.94zm18.25-8.1v4.34a3.4 3.4 0 0 1-1.3 2.55 4 4 0 0 1-2.68 1.17h-2.4a3.89 3.89 0 0 1-2.71-1.19 3.45 3.45 0 0 1-1.29-2.53v-4.34a3.48 3.48 0 0 1 1.26-2.54 3.85 3.85 0 0 1 2.72-1.19h2.4a3.84 3.84 0 0 1 2.68 1.15 3.42 3.42 0 0 1 1.32 2.58zm-8.3.08v4.16a1.1 1.1 0 0 0 .41.89l.77.66a1.05 1.05 0 0 0 .72.22h2.38a1.4 1.4 0 0 0 1-.38l.63-.55a1 1 0 0 0 .38-.82v-4.15a1.09 1.09 0 0 0-.38-.91l-.7-.53a1.28 1.28 0 0 0-.86-.31H1096a1.57 1.57 0 0 0-1.07.33l-.7.6a1 1 0 0 0-.42.79zm36.47-2.36V39.2a1 1 0 1 1 2.05 0v14.2a1 1 0 1 1-2.05 0v-.45a4.21 4.21 0 0 1-2.81 1.48h-1.75a3.21 3.21 0 0 1-2.1-.91l-.86-.72a2.63 2.63 0 0 1-.56-.94 3.44 3.44 0 0 1-.26-1.23v-4.18a3.39 3.39 0 0 1 .29-1.36 2.83 2.83 0 0 1 .69-1l.84-.72a3.15 3.15 0 0 1 2.13-.78h1.48a3.27 3.27 0 0 1 2.2.85zm-3 .62h-1.44a1.17 1.17 0 0 0-.81.33l-.66.58a1 1 0 0 0-.35.78v4.35a1 1 0 0 0 .41.77l.67.58a1 1 0 0 0 .67.28h1.68a1.33 1.33 0 0 0 .78-.38l1.62-1.34a1.13 1.13 0 0 0 .41-.88V47.5a1.33 1.33 0 0 0-.43-1.1l-1.65-1.4a1.27 1.27 0 0 0-.88-.33zm20.2 1.8V49a1 1 0 0 1-1 1h-7.26v.6a1.1 1.1 0 0 0 .45.89l.6.5a1.56 1.56 0 0 0 .93.37h5.28a1 1 0 1 1-.03 2.03H1141a3.17 3.17 0 0 1-1.13-.23 2.82 2.82 0 0 1-.88-.47l-.92-.8a3.08 3.08 0 0 1-1-2.08v-4.7a3 3 0 0 1 .31-1.09 3 3 0 0 1 .79-1.06l.86-.67a2.87 2.87 0 0 1 1.87-.69h2.88a3 3 0 0 1 2.06.91l.77.73a2.85 2.85 0 0 1 .86 2.22zm-8.26-.15v1.58h6.23v-1.43a1.13 1.13 0 0 0-.35-.88l-.6-.52a1.41 1.41 0 0 0-.83-.38h-2.58a1.31 1.31 0 0 0-.87.33l-.6.5a1 1 0 0 0-.4.8zm37.5 8.1h-4.4a2.94 2.94 0 0 1-2-.7l-2-1.73a2.68 2.68 0 0 1-.95-2.16v-2.67a2.75 2.75 0 0 1 1.07-2.28l1.8-1.55a2.91 2.91 0 0 1 1.86-.71h4.6a1 1 0 0 1 1.03 1.03 1 1 0 0 1-1.03 1.02h-4.42a1.2 1.2 0 0 0-.79.33l-1.65 1.4a1.13 1.13 0 0 0-.4.92v2.5a.89.89 0 0 0 .31.69l1.8 1.54a1.33 1.33 0 0 0 .91.3h4.2a1 1 0 1 1 .03 2.03zm16.14-8.1v4.34a3.43 3.43 0 0 1-1.3 2.55 4 4 0 0 1-2.69 1.17h-2.4a3.88 3.88 0 0 1-2.68-1.19 3.45 3.45 0 0 1-1.29-2.53v-4.34a3.48 3.48 0 0 1 1.26-2.54 3.84 3.84 0 0 1 2.71-1.19h2.4a3.86 3.86 0 0 1 2.69 1.15 3.46 3.46 0 0 1 1.3 2.58zm-8.3.08v4.16a1.09 1.09 0 0 0 .4.89l.77.66a1.09 1.09 0 0 0 .72.22h2.4a1.4 1.4 0 0 0 1-.38l.63-.55a1 1 0 0 0 .38-.82v-4.15a1.09 1.09 0 0 0-.38-.91l-.72-.57a1.3 1.3 0 0 0-.86-.31h-2.13a1.57 1.57 0 0 0-1.07.33l-.7.6a1 1 0 0 0-.43.83zm17.94-1.4l-2.8 1.83v6.56a1.025 1.025 0 0 1-2.05 0v-9.74a1 1 0 0 1 1.03-1.05 1 1 0 0 1 1.02 1.05v.68l1.88-1.13a3.89 3.89 0 0 1 2.13-.6h1a3 3 0 0 1 3.06 3l.28 7.8a.94.94 0 0 1-.29.72 1 1 0 0 1-.73.31 1 1 0 0 1-1.03-1.03l-.3-7.66a1 1 0 0 0-1.12-1.08h-1a1.89 1.89 0 0 0-1.06.35zm20.62 1.48V49a1 1 0 0 1-1.03 1.02h-7.26v.6a1.1 1.1 0 0 0 .45.89l.6.5a1.52 1.52 0 0 0 .93.37h5.28a1 1 0 0 1 1.03 1.03 1 1 0 0 1-1.03 1.03h-5.42a3.21 3.21 0 0 1-1.13-.23 2.75 2.75 0 0 1-.87-.47l-.92-.8a2.67 2.67 0 0 1-.71-1 2.55 2.55 0 0 1-.29-1.12v-4.7a3.4 3.4 0 0 1 1.1-2.15l.85-.67a2.91 2.91 0 0 1 1.87-.69h2.9a2.94 2.94 0 0 1 2 .91l.77.73a2.82 2.82 0 0 1 .89 2.22zm-8.27-.15v1.58h6.24v-1.43a1.1 1.1 0 0 0-.36-.88l-.6-.52a1.39 1.39 0 0 0-.83-.38h-2.58a1.31 1.31 0 0 0-.87.33l-.6.5a1 1 0 0 0-.4.8zm22.37 8.1h-4.4a2.91 2.91 0 0 1-2-.7l-2-1.73a2.68 2.68 0 0 1-.95-2.16v-2.67a2.79 2.79 0 0 1 1.08-2.28l1.8-1.55a2.91 2.91 0 0 1 1.86-.71h4.6a1 1 0 1 1 0 2h-4.4a1.2 1.2 0 0 0-.8.33l-1.65 1.4a1.13 1.13 0 0 0-.4.92v2.5a.87.87 0 0 0 .32.69l1.8 1.54a1.3 1.3 0 0 0 .9.3h4.2a1 1 0 1 1 .02 2.03z"/><path d="M1250.2 54.42h-2a3 3 0 0 1-2.19-.91 2.93 2.93 0 0 1-.92-2.17v-6.67h-1a1 1 0 0 1-1.03-1.02 1 1 0 0 1 1.03-1.03h1.08V40.1a1 1 0 1 1 2.05 0v2.52h4.13a1.06 1.06 0 0 1 1 1 1 1 0 0 1-1 1h-4.15v6.67a1 1 0 0 0 1.05 1.02h2a1.07 1.07 0 0 0 1.09-.88 1.06 1.06 0 0 1 1-.89 1 1 0 0 1 .74.3 1.05 1.05 0 0 1 .29.75 2.73 2.73 0 0 1-.88 1.86 2.94 2.94 0 0 1-2.29.97zm16.2-.02h-6.26a1 1 0 1 1 0-2.05h2.1v-7.67h-2.07a1 1 0 0 1-1-1 1 1 0 0 1 1.03-1.05h3.13a1 1 0 0 1 1.02 1.05v8.7h2.06a1 1 0 0 1 1.05 1.03.94.94 0 0 1-.31.72 1 1 0 0 1-.75.28zm-4.18-17.12h1.08a1 1 0 0 1 1 1v.88a1 1 0 0 1-1.02 1.05h-1.1a1 1 0 0 1-1.02-1.02v-.9a1 1 0 0 1 1-1zm21.38 6.37v2l-3.6 8.05c-.23.48-.53.72-.9.72h-1.32a1.1 1.1 0 0 1-1-.75l-3.54-8v-2a1 1 0 1 1 2 0v1.57l3.13 7.05 3.1-7.07v-1.57a1 1 0 1 1 2.05-.03zm13.05 10.75h-6.26a1 1 0 1 1 0-2.05h2.1v-7.67h-2.08a1 1 0 0 1-1.03-1.02 1 1 0 0 1 1.03-1.05h3.13a1 1 0 0 1 1.03 1.05v8.7h2a1 1 0 0 1 .74.3 1 1 0 0 1 0 1.45 1 1 0 0 1-.66.3zm-4.18-17.12h1.07a1 1 0 0 1 1 1v.88a1 1 0 0 1-1.03 1.05h-1.1a1 1 0 0 1-1.03-1.02v-.9a1 1 0 0 1 1-1zm19.28 6.77V39.2a1 1 0 0 1 .29-.73.94.94 0 0 1 .71-.3 1 1 0 0 1 1.05 1.03v14.2a1 1 0 0 1-.31.73 1 1 0 0 1-1.74-.73v-.45a4.22 4.22 0 0 1-2.82 1.48h-1.74a3.21 3.21 0 0 1-2.11-.91l-.85-.72a2.63 2.63 0 0 1-.56-.94 3.24 3.24 0 0 1-.26-1.23v-4.18a3.39 3.39 0 0 1 .29-1.36 2.7 2.7 0 0 1 .69-1l.84-.72a3.15 3.15 0 0 1 2.13-.78h1.48a3.29 3.29 0 0 1 2.2.85zm-3 .62h-1.43a1.21 1.21 0 0 0-.82.33l-.66.58a1 1 0 0 0-.34.78v4.35a1 1 0 0 0 .4.77l.68.58a1 1 0 0 0 .67.28h1.67a1.38 1.38 0 0 0 .79-.38l1.62-1.34a1.13 1.13 0 0 0 .41-.88V47.5a1.37 1.37 0 0 0-.43-1.1l-1.67-1.4a1.26 1.26 0 0 0-.88-.33zm12.9 2.33h4a4.52 4.52 0 0 1 1 .15V45.7a1 1 0 0 0-1.03-1.03h-3.9a1 1 0 0 1-.73-.3 1 1 0 0 1 .73-1.75h3.9a3 3 0 0 1 2.18.89 3.09 3.09 0 0 1 .93 2.19l.26 7.7a1 1 0 1 1-2.08 0l-1.74 1h-3.48a3.11 3.11 0 0 1-3.11-3.11v-1.15a3 3 0 0 1 .92-2.2 3 3 0 0 1 2.15-.92zm5.14 4l-.06-.87a1 1 0 0 0-1.03-1.03h-4a1 1 0 0 0-1.03 1.03v1.15a1 1 0 0 0 1.03 1.03h2.9zm15.2-6.95V39.2a1 1 0 1 1 2.06 0v14.2a1 1 0 1 1-2.03.03v-.45a4.21 4.21 0 0 1-2.81 1.48h-1.75a3.21 3.21 0 0 1-2.1-.91l-.86-.72a2.63 2.63 0 0 1-.55-.94 3.26 3.26 0 0 1-.27-1.23v-4.2a3.24 3.24 0 0 1 .3-1.36 2.69 2.69 0 0 1 .68-1l.85-.72a3.14 3.14 0 0 1 2.12-.78h1.48a3.27 3.27 0 0 1 2.2.85zm-3 .62h-1.43a1.19 1.19 0 0 0-.82.33l-.66.58a1 1 0 0 0-.34.78v4.35a1 1 0 0 0 .4.77l.67.58a1 1 0 0 0 .67.28h1.68a1.33 1.33 0 0 0 .83-.34l1.63-1.34a1.12 1.12 0 0 0 .4-.88V47.5a1.33 1.33 0 0 0-.43-1.1l-1.7-1.4a1.27 1.27 0 0 0-.89-.33zm20.2 1.8V49a1 1 0 0 1-1 1h-7.27v.6a1.09 1.09 0 0 0 .46.89l.6.5a1.56 1.56 0 0 0 .93.37h5.3a1 1 0 0 1 1.02 1.03 1 1 0 0 1-1.02 1.03h-5.42a3.17 3.17 0 0 1-1.13-.23 2.82 2.82 0 0 1-.88-.47l-.9-.8a2.58 2.58 0 0 1-.72-1 2.7 2.7 0 0 1-.29-1.12v-4.68a3.48 3.48 0 0 1 1.11-2.15l.85-.67a2.89 2.89 0 0 1 1.87-.69h2.9a2.94 2.94 0 0 1 2 .91l.77.73a2.82 2.82 0 0 1 .86 2.22zm-8.26-.15v1.58h6.23v-1.43a1.1 1.1 0 0 0-.35-.88l-.6-.52a1.41 1.41 0 0 0-.83-.38h-2.58a1.31 1.31 0 0 0-.87.33l-.6.5a1 1 0 0 0-.4.8zm18.36 1.95v-4a2.22 2.22 0 0 0-.49-1.41l-2.46-3.1a.88.88 0 0 1-.18-.57 1 1 0 0 1 .33-.78 1.08 1.08 0 0 1 .74-.29.83.83 0 0 1 .68.31l2.5 3.16a3.91 3.91 0 0 1 .9 2.48v4.4a3.89 3.89 0 0 1-.9 2.49l-2.5 3.16a.85.85 0 0 1-.69.32 1 1 0 0 1-1.06-1.08.87.87 0 0 1 .18-.58l2.45-3.1a2.14 2.14 0 0 0 .5-1.38z"/></g></svg>