<svg xmlns="http://www.w3.org/2000/svg" viewBox="0 0 808.71 84.21"><defs><linearGradient id="A" x1="534.74" y1="6.67" x2="502.78" y2="38.29" gradientUnits="userSpaceOnUse"><stop offset="0" stop-color="#86ebc0"/><stop offset="1" stop-color="#4370fa"/></linearGradient></defs><circle cx="66.21" cy="22.48" r="22.48" fill="#86ebc0"/><circle cx="292.48" cy="22.48" r="22.48" fill="#4370fa"/><circle cx="518.76" cy="22.48" r="22.48" fill="url(#A)"/><path d="M254.56 71.66l-1.75 3.9h2.56l-2 4.22h-2.48l-1.8 4h-5l1.9-4h-3.7l-1.8 4h-4.94l1.9-4h-2.4l2-4.22h2.33l1.8-3.9h-2.33l2-4.2h2.3l1.9-4h4.6l-1.83 4h3.9l1.9-4h4.6l-1.83 4h2.74l-2 4.2zm-4.74 0H246l-1.74 3.9H248zm21.12-8.23V83.8h-4.74V73l.05-1.25c.05-.38 0-.7 0-.93v-.38l-.1.15a1.91 1.91 0 0 0-.32.38 5.86 5.86 0 0 1-.44.55l-.55.6-.82.82-3-2.86 6.63-6.63zm17.5 0l-.1 2.94-9 17.43h-5l5.7-10.88 1-1.8 1-1.57.7-1.13.25-.4h-9v-4.57zm15.7 0l-.1 2.94-9 17.43h-5l5.7-10.88 1-1.8 1-1.57.7-1.13.3-.44h-9v-4.54zm11.26 0V83.8h-4.7V70.44l-.1.15a1.91 1.91 0 0 0-.32.38 5.86 5.86 0 0 1-.44.55l-.55.6-.82.82-3-2.86 6.63-6.63zm9.08 4.5v4h6.7v4.36h-6.7v7.5h-4.77V63.43h13.5v4.5zm16.52 0v4h6.7v4.36H341v7.5h-4.77V63.43h13.5v4.5zM452.62 82.1a6.09 6.09 0 0 1-2.09 1.46 7.33 7.33 0 0 1-2.88.58 9.94 9.94 0 0 1-3.78-.73 8.58 8.58 0 0 1-3-2.09 10 10 0 0 1-2-3.32 13.42 13.42 0 0 1 0-8.73 10.35 10.35 0 0 1 2-3.35 8.5 8.5 0 0 1 3.13-2.18 10.08 10.08 0 0 1 3.84-.76 9.18 9.18 0 0 1 5.1 1.43 9.5 9.5 0 0 1 3.43 4l-4.77 1.26a4.08 4.08 0 0 0-1.66-1.49 4.83 4.83 0 0 0-2.1-.49 4.09 4.09 0 0 0-3.43 1.57 6.94 6.94 0 0 0-1.22 4.33 8.36 8.36 0 0 0 .35 2.51 5.4 5.4 0 0 0 1 1.86 4.08 4.08 0 0 0 1.57 1.16 5.08 5.08 0 0 0 2.06.38 5.67 5.67 0 0 0 1.81-.26 4.14 4.14 0 0 0 1.28-.7 3.9 3.9 0 0 0 .87-1 5.85 5.85 0 0 0 .55-1.16v-.32h-4.74V72.2h8.8v11.55h-4.05V82.1zm18.16 1.73l-3.5-6.6h-2.15v6.64h-4.78V63.52h7.22a10.13 10.13 0 0 1 3.2.49 6.78 6.78 0 0 1 2.45 1.4 6.58 6.58 0 0 1 1.57 2.18 6.9 6.9 0 0 1 .55 2.85 6.54 6.54 0 0 1-.9 3.52 6.15 6.15 0 0 1-2.56 2.3l4.25 7.57zm-5.6-11l2.9.06a2.26 2.26 0 0 0 1.05-.24 1.91 1.91 0 0 0 .7-.58 2.43 2.43 0 0 0 .41-.78 3.09 3.09 0 0 0 .14-.91 3 3 0 0 0-.14-.9 2.43 2.43 0 0 0-.41-.78 1.94 1.94 0 0 0-.7-.59 2.39 2.39 0 0 0-1.05-.23h-2.9zm25.27 7.77h-7.36l-1 3.2H477l7.3-20.37h4.95l7.3 20.37h-5.1zm-1.4-4.28l-1.4-4.42-.32-1.14-.26-1-.2-.7-.1-.27-.06.27-.2.7-.3 1-.35 1.14-1.42 4.42zm17.3-12.95a11 11 0 0 1 4.1.73 9.33 9.33 0 0 1 3.23 2.09 9.85 9.85 0 0 1 2.15 3.26 10.9 10.9 0 0 1 .79 4.22 11.17 11.17 0 0 1-.76 4.19 8.94 8.94 0 0 1-2.12 3.14 9.13 9.13 0 0 1-3.23 2 11.57 11.57 0 0 1-4.1.7h-7.77V63.37zm.4 15.92l-.1-.06a5.7 5.7 0 0 0 2-.35 4.1 4.1 0 0 0 1.57-1 5.31 5.31 0 0 0 1.05-1.74 6.82 6.82 0 0 0 .37-2.39 7 7 0 0 0-.37-2.44 6.15 6.15 0 0 0-1.05-1.81 4.41 4.41 0 0 0-1.57-1.13 5.06 5.06 0 0 0-2-.38h-3.14v11.3zm13.04 4.5V63.43h4.77V83.8zm22.96-4.54v4.54h-13.88V63.43h13.7v4.5h-8.93v3.4h6.9v4.24h-6.9v3.67zm20.92-15.83l-.06 20.43h-4.36l-4-6.14-1.3-1.9-1.25-1.9-1-1.42-.38-.58h-.06v.52l.06 1.5.1 2.36v7.48h-4.75V63.46H551l4.25 6.43 1 1.57 1.2 1.75 1 1.42.4.6v-11.8zm18.5 0v4.5h-5.67V83.8h-4.77V67.94h-5.62v-4.5zm16.34 15.83v4.54h-13.9V63.43h13.7v4.5h-8.93v3.4h6.9v4.24h-6.9v3.67z" fill="#828282"/><circle cx="744.61" cy="22.48" r="22.48" fill="#df6718"/><path d="M699.77 71.66l-1.77 3.9h2.56l-2 4.22h-2.47l-1.8 4h-4.95l1.9-4h-3.7l-1.8 4h-5l1.9-4h-2.38l2-4.22h2.33l1.8-3.9h-2.32l2-4.2h2.3l1.9-4h4.6l-1.83 4h4l1.9-4h4.6l-1.84 4h2.74l-2 4.2zm-4.74 0h-3.8l-1.75 3.9h3.76zm17.17-3.72v4h6.7v4.36h-6.7v7.5h-4.78V63.43h13.5v4.5zm16.55 0v4h6.7v4.36h-6.7v7.5H724V63.43h13.5v4.5zm17.45 2.74a2.93 2.93 0 0 1 .55-.34 2.45 2.45 0 0 1 1.08-.18 6.46 6.46 0 0 1 2.73.55 6.09 6.09 0 0 1 2.07 1.55 6.63 6.63 0 0 1 1.28 2.27 8.53 8.53 0 0 1 .44 2.73 6.86 6.86 0 0 1-.58 2.79 6.54 6.54 0 0 1-1.58 2.19 7.24 7.24 0 0 1-2.38 1.42 9.12 9.12 0 0 1-3 .5 8.85 8.85 0 0 1-2.91-.5 7.36 7.36 0 0 1-2.39-1.45 7.19 7.19 0 0 1-1.6-2.24 7.06 7.06 0 0 1-.61-2.94 9.06 9.06 0 0 1 .27-2.27 12.89 12.89 0 0 1 .69-2.07 16.13 16.13 0 0 1 1.05-2l1.37-2 3.8-5.24h5zm.76 9.25a2.91 2.91 0 0 0 2.18-.82A2.83 2.83 0 0 0 750 77a2.77 2.77 0 0 0-.81-2.1 3.32 3.32 0 0 0-4.31 0 2.85 2.85 0 0 0-.81 2.1 2.76 2.76 0 0 0 .84 2.09 3 3 0 0 0 2.15.79zm23.37-16.5l-.1 2.94-9 17.43h-5L762 72.92l1-1.8 1-1.57.7-1.13.3-.44h-9v-4.54zm10.1-.35a7.77 7.77 0 0 1 3.66.82 8.52 8.52 0 0 1 2.77 2.21 9.94 9.94 0 0 1 1.74 3.31 14.5 14.5 0 0 1 0 8.39 9.94 9.94 0 0 1-1.74 3.31 8.52 8.52 0 0 1-2.77 2.21 8.9 8.9 0 0 1-7.33 0 8.47 8.47 0 0 1-2.76-2.24 10 10 0 0 1-1.75-3.31 14.7 14.7 0 0 1 0-8.38 10 10 0 0 1 1.75-3.32 8.47 8.47 0 0 1 2.76-2.24 7.84 7.84 0 0 1 3.67-.82zm-2.94 6.23a8.65 8.65 0 0 0-.93 4.3 8.7 8.7 0 0 0 .93 4.31 3.12 3.12 0 0 0 2.94 1.6 3.2 3.2 0 0 0 2.94-1.63 8.3 8.3 0 0 0 1-4.28 8.28 8.28 0 0 0-1-4.27 3.2 3.2 0 0 0-2.94-1.63 3.12 3.12 0 0 0-2.94 1.6zm22.43-6.23a7.84 7.84 0 0 1 3.67.82 8.38 8.38 0 0 1 2.76 2.21 10 10 0 0 1 1.75 3.31 14.73 14.73 0 0 1 0 8.39 10 10 0 0 1-1.75 3.31 8.38 8.38 0 0 1-2.76 2.21 8.9 8.9 0 0 1-7.33 0 8.61 8.61 0 0 1-2.77-2.24 9.76 9.76 0 0 1-1.74-3.31 14.47 14.47 0 0 1 0-8.38 9.81 9.81 0 0 1 1.74-3.32 8.61 8.61 0 0 1 2.77-2.24 7.8 7.8 0 0 1 3.66-.82zM797 69.3a8.65 8.65 0 0 0-.93 4.3 8.7 8.7 0 0 0 .93 4.31 3.12 3.12 0 0 0 2.94 1.6 3.2 3.2 0 0 0 2.94-1.63 8.3 8.3 0 0 0 1-4.28 8.28 8.28 0 0 0-1-4.27 3.2 3.2 0 0 0-2.94-1.63 3.12 3.12 0 0 0-2.94 1.6zM19.47 71.66l-1.75 3.9h2.56l-2 4.22H15.8l-1.8 4H9.05l1.9-4h-3.7l-1.8 4H.5l1.9-4H0l2-4.22h2.36l1.8-3.9H3.84l2-4.2h2.3l1.9-4h4.6l-1.84 4h3.9l1.9-4h4.6l-1.83 4h2.73l-2 4.2zm-4.75 0h-3.8l-1.74 3.9h3.75zm21.13-8.23V83.8H31.1V73l.06-1.25c.06-.38 0-.7 0-.93v-.38l-.1.15a1.91 1.91 0 0 0-.32.38 8.12 8.12 0 0 1-.44.55l-.55.6-.82.82-3-2.86 6.63-6.63zm9.98 7.25a2.93 2.93 0 0 1 .55-.34 2.42 2.42 0 0 1 1.08-.18 6.46 6.46 0 0 1 2.73.55 6.09 6.09 0 0 1 2.07 1.55 6.63 6.63 0 0 1 1.28 2.27 8.53 8.53 0 0 1 .46 2.75 6.7 6.7 0 0 1-.59 2.79 6.52 6.52 0 0 1-1.57 2.19 7.24 7.24 0 0 1-2.38 1.42 9.16 9.16 0 0 1-3 .5 8.85 8.85 0 0 1-2.91-.5 7.36 7.36 0 0 1-2.39-1.45A7 7 0 0 1 39.54 80a6.91 6.91 0 0 1-.61-2.94 9.56 9.56 0 0 1 .26-2.27 14 14 0 0 1 .7-2.07 16.13 16.13 0 0 1 1-2l1.37-2 3.8-5.24h5zm.75 9.25a2.93 2.93 0 0 0 2.19-.82 2.83 2.83 0 0 0 .81-2.11 2.77 2.77 0 0 0-.81-2.1 3 3 0 0 0-2.13-.78 2.94 2.94 0 0 0-2.18.81 2.85 2.85 0 0 0-.81 2.1 2.76 2.76 0 0 0 .84 2.09 3 3 0 0 0 2.15.79zm24.07-.67v4.54H56.77V63.43h13.7v4.5h-8.93v3.4h6.9v4.24h-6.9v3.67zm11.6-15.9a11 11 0 0 1 4.1.73 9.33 9.33 0 0 1 3.23 2.09 9.85 9.85 0 0 1 2.15 3.26 10.9 10.9 0 0 1 .79 4.22 11.17 11.17 0 0 1-.76 4.19A8.94 8.94 0 0 1 89.65 81a9.13 9.13 0 0 1-3.23 2 11.59 11.59 0 0 1-4.11.7h-7.76V63.37zm.4 15.92l-.1-.06a5.7 5.7 0 0 0 2-.35 4.1 4.1 0 0 0 1.57-1 5.13 5.13 0 0 0 1-1.74 6.59 6.59 0 0 0 .38-2.39 6.76 6.76 0 0 0-.38-2.44 5.92 5.92 0 0 0-1-1.81 4.41 4.41 0 0 0-1.57-1.13 5.06 5.06 0 0 0-2-.38h-3.12v11.3zm25.24-9.6v.08a4 4 0 0 0-1.66-1.48 4.79 4.79 0 0 0-2.09-.5 4.1 4.1 0 0 0-3.44 1.58 6.83 6.83 0 0 0-1.22 4.3 6.42 6.42 0 0 0 1.28 4.33 4.27 4.27 0 0 0 3.41 1.51 4.85 4.85 0 0 0 2.41-.61 4 4 0 0 0 1.66-1.9l4.76 1.24a9.36 9.36 0 0 1-3.4 4.4 9.23 9.23 0 0 1-5.41 1.57 10.58 10.58 0 0 1-3.84-.73 8.53 8.53 0 0 1-3.06-2.15 10.64 10.64 0 0 1-2-3.35 13.59 13.59 0 0 1 0-8.73 10.53 10.53 0 0 1 2-3.35 8.53 8.53 0 0 1 3.06-2.15 10 10 0 0 1 3.84-.76 9.11 9.11 0 0 1 5.12 1.43 9.65 9.65 0 0 1 3.4 4zm15.53-6.62a7.84 7.84 0 0 1 3.67.82 8.59 8.59 0 0 1 2.76 2.21 10 10 0 0 1 1.75 3.31 14.73 14.73 0 0 1 0 8.39 10 10 0 0 1-1.75 3.31 8.59 8.59 0 0 1-2.76 2.21 8.92 8.92 0 0 1-7.34 0 8.57 8.57 0 0 1-2.76-2.24 10 10 0 0 1-1.75-3.31 14.7 14.7 0 0 1 0-8.38 10 10 0 0 1 1.75-3.32 8.57 8.57 0 0 1 2.76-2.24 7.84 7.84 0 0 1 3.67-.82zm-2.94 6.23a8.65 8.65 0 0 0-.93 4.3 8.7 8.7 0 0 0 .93 4.31 3.12 3.12 0 0 0 2.94 1.6 3.2 3.2 0 0 0 2.94-1.63 8.3 8.3 0 0 0 1-4.28 8.28 8.28 0 0 0-1-4.27 3.2 3.2 0 0 0-2.94-1.63 3.12 3.12 0 0 0-2.94 1.6z" fill="#828282"/><path d="M555.46 23.34V26h-8.25v-2.66zM564.1 18v13.55H561v-8.9l-.07.1a1.62 1.62 0 0 0-.22.26 2.69 2.69 0 0 1-.29.36 4.57 4.57 0 0 1-.37.41l-.54.54-2-1.9 4.4-4.4zm2.3 3.45l-.07.1a4.93 4.93 0 0 1 1.74-2.76 5.06 5.06 0 0 1 3.21-1 5.94 5.94 0 0 1 1.91.29 4.31 4.31 0 0 1 1.46.81 3.5 3.5 0 0 1 .92 1.24 3.74 3.74 0 0 1 .33 1.57 2.67 2.67 0 0 1-.25 1.24 3.16 3.16 0 0 1-.64.87 2.73 2.73 0 0 1-.81.52 2.54 2.54 0 0 1-.77.19 2.28 2.28 0 0 1 .92.2 3 3 0 0 1 1.64 1.55 3.2 3.2 0 0 1 .27 1.36 3.55 3.55 0 0 1-.37 1.66 3.91 3.91 0 0 1-1 1.32 5.09 5.09 0 0 1-1.57.87 6.34 6.34 0 0 1-1.93.29 6.17 6.17 0 0 1-1.8-.27 5.72 5.72 0 0 1-1.51-.8 4.65 4.65 0 0 1-1.14-1.16 4.46 4.46 0 0 1-.75-1.53l2.86-.77a2.66 2.66 0 0 0 .74 1.16 2.28 2.28 0 0 0 2.69.08 1.48 1.48 0 0 0 0-2.25 2 2 0 0 0-1.36-.42H570v-2.5h1.05a1.63 1.63 0 0 0 1.25-.42 1.49 1.49 0 0 0 .41-1.05 1.23 1.23 0 0 0-.43-1 1.88 1.88 0 0 0-2.38.07 3.1 3.1 0 0 0-.71 1.22zm14.93 1.47h-.07a2.17 2.17 0 0 1 .56-.22 3.46 3.46 0 0 1 .85-.09 5.46 5.46 0 0 1 1.88.32 4.87 4.87 0 0 1 1.51.91 4.47 4.47 0 0 1 1 1.4 4.2 4.2 0 0 1 .37 1.78 4.75 4.75 0 0 1-1.38 3.38 4.27 4.27 0 0 1-1.5 1 5.65 5.65 0 0 1-1.92.33 5.55 5.55 0 0 1-1.84-.29 5.66 5.66 0 0 1-1.43-.81 5 5 0 0 1-1-1.11 4.37 4.37 0 0 1-.58-1.22l2.9-.75a2.59 2.59 0 0 0 .23.48 1.67 1.67 0 0 0 .37.47 2.19 2.19 0 0 0 .54.35 1.9 1.9 0 0 0 .75.13 1.63 1.63 0 0 0 1.28-.56 2.08 2.08 0 0 0 .5-1.43 1.92 1.92 0 0 0-.52-1.43 2 2 0 0 0-2.42-.22 1.75 1.75 0 0 0-.46.6l-2.73-.73 1.24-7.3h7.25v3h-5v.2l-.3 1.35-.1.4zm9.27 8.68h-.33a1.5 1.5 0 0 1-.76-.41 1.28 1.28 0 0 1-.35-.95 1.4 1.4 0 0 1 .43-1 1.44 1.44 0 0 1 1-.45 1.39 1.39 0 0 1 1 .47 1.69 1.69 0 0 1 .42 1.21 2.73 2.73 0 0 1-.17 1 7 7 0 0 1-.46 1 6.93 6.93 0 0 1-.68.93 7.74 7.74 0 0 1-.81.81h-1.14a3 3 0 0 0 .52-.46 4.15 4.15 0 0 0 .46-.64 5.71 5.71 0 0 0 .35-.7 1.47 1.47 0 0 0 .14-.58zm3.5-10.15l-.08.1a4.93 4.93 0 0 1 1.74-2.76 5.08 5.08 0 0 1 3.21-1 6 6 0 0 1 1.92.29 4.26 4.26 0 0 1 1.45.81 3.41 3.41 0 0 1 .93 1.24 3.91 3.91 0 0 1 .33 1.57 2.8 2.8 0 0 1-.25 1.24 3.38 3.38 0 0 1-.64.87 2.73 2.73 0 0 1-.81.52 2.59 2.59 0 0 1-.78.19 2.37 2.37 0 0 1 .93.2 2.76 2.76 0 0 1 .91.58 3 3 0 0 1 .68.94 3.36 3.36 0 0 1 .27 1.36 3.68 3.68 0 0 1-.37 1.66 4 4 0 0 1-1 1.32 5.09 5.09 0 0 1-1.57.87 6.36 6.36 0 0 1-1.94.29 6.15 6.15 0 0 1-1.79-.27 5.57 5.57 0 0 1-1.51-.8 4.69 4.69 0 0 1-1.15-1.16 4.25 4.25 0 0 1-.69-1.5l2.86-.77a2.66 2.66 0 0 0 .74 1.16 2 2 0 0 0 1.43.48 2 2 0 0 0 1.26-.4 1.48 1.48 0 0 0 0-2.25 2 2 0 0 0-1.36-.42h-1.1v-2.5h1a1.66 1.66 0 0 0 1.26-.42 1.49 1.49 0 0 0 .41-1.05 1.23 1.23 0 0 0-.43-1 1.68 1.68 0 0 0-1.16-.39 1.65 1.65 0 0 0-1.22.46 3.24 3.24 0 0 0-.72 1.22zm13.6-.93a2.79 2.79 0 0 1-1.11-.23 3.68 3.68 0 0 1-.93-.62 2.86 2.86 0 0 1-.63-.91 2.83 2.83 0 0 1 .63-3.16 3.68 3.68 0 0 1 .93-.62 2.82 2.82 0 0 1 2.23 0 3 3 0 0 1 1.53 1.53 2.87 2.87 0 0 1 0 2.25 3.35 3.35 0 0 1-.6.91 3.24 3.24 0 0 1-.89.6 2.82 2.82 0 0 1-1.13.23zm.77-2.17a1.08 1.08 0 0 0 .29-.75 1.11 1.11 0 0 0-.29-.76 1 1 0 0 0-.74-.31.88.88 0 0 0-.67.31 1.06 1.06 0 0 0-.29.76 1 1 0 0 0 .29.75.88.88 0 0 0 .67.31 1 1 0 0 0 .74-.31z"/></svg>