<svg xmlns="http://www.w3.org/2000/svg" xmlns:xlink="http://www.w3.org/1999/xlink" viewBox="0 0 1150.15 571.53"><defs><clipPath id="A"><path d="M630.96 52.35h466.84V519.2H630.96z" fill="none"/></clipPath><path id="B" d="M831.7 570.67h-21.48V.86h21.48z"/></defs><path d="M363.86 83.77A15.4 15.4 0 1 0 336.23 93l-68.9 50.73.4.4a135.88 135.88 0 0 0-85.59-30.23A135.87 135.87 0 0 0 92.05 148l4.87-4.88L28.1 92.47A15.9 15.9 0 1 0 24.7 96l50.43 69 4.3-4.32a135.86 135.86 0 0 0-33.87 89.82v103.85A32.67 32.67 0 0 0 78.24 387h88.86v-14c0-7.86 5.65-15 13.47-15.8a15 15 0 0 1 16.57 14.94V387H286a32.67 32.67 0 0 0 32.67-32.67V250.47A135.88 135.88 0 0 0 288.55 165l.56.56 50.57-69.16a15.38 15.38 0 0 0 24.18-12.63zM182.12 338.62a88.16 88.16 0 1 1 88.15-88.15 88.15 88.15 0 0 1-88.15 88.15z" fill="#828282"/><path d="M288.1 185.53a123.68 123.68 0 0 0-46.28-44.07 121.53 121.53 0 0 0-62.72-15.13 121.41 121.41 0 0 0-61.9 18.18 123.68 123.68 0 0 0-44.08 46.27 125 125 0 0 0 3 124.63 123.58 123.58 0 0 0 46.28 44.06 121.43 121.43 0 0 0 62.72 15.13 121.47 121.47 0 0 0 61.9-18.17 123.61 123.61 0 0 0 44.07-46.28 125 125 0 0 0-3-124.62zm-28.76 107.2a87.78 87.78 0 0 1-31.22 32.78 88.49 88.49 0 0 1-88.25 2.16 87.82 87.82 0 0 1-32.79-31.22 88.51 88.51 0 0 1-2.16-88.26 87.74 87.74 0 0 1 31.23-32.78 88.43 88.43 0 0 1 88.25-2.16 87.74 87.74 0 0 1 32.79 31.22 88.48 88.48 0 0 1 2.15 88.26zM181.1 209.1a41.38 41.38 0 0 0-27.52 71.35 41.36 41.36 0 0 0 58.5-1.43 41.39 41.39 0 0 0-31-69.92z" opacity=".5" fill="#6ec233"/><circle cx="182.12" cy="250.47" r="15.4"/><path d="M342,124.05a42.21,42.21,0,0,1-2.86,15.12,37.47,37.47,0,0,1-8.73,13.26L224.66,258.22V421.87a37.34,37.34,0,0,1-3.19,15.48A42,42,0,0,1,212.84,450a39.56,39.56,0,0,1-55.93,0,39.29,39.29,0,0,1-11.45-28.12V269.54L28.35,152.43a37.44,37.44,0,0,1-8.72-13.26,42,42,0,0,1-2.86-15.12A39.6,39.6,0,0,1,84.63,96.16l94.77,94.77,94.77-94.77a39.49,39.49,0,0,1,28.12-11.85A39.76,39.76,0,0,1,342,124.05Z" opacity=".5" fill="#da0100"/><path d="M310.3 250.67c0-70.6-57.6-128-128.2-128s-127.7 57.44-127.7 128A127.92 127.92 0 0 0 169.25 378v120.15a13 13 0 1 0 26 0V378.1c63-6.4 115.05-61.1 115.05-127.42zm-128.37 101.7a101.7 101.7 0 1 1 101.71-101.7 101.81 101.81 0 0 1-101.71 101.7z" opacity=".5" fill="#63aefb"/><path d="M524.87 85.26a52.09 52.09 0 0 0-19.51-18.58A52.68 52.68 0 0 0 452.82 68a52.17 52.17 0 0 0-18.58 19.51 52.65 52.65 0 0 0 1.29 52.49A52.07 52.07 0 0 0 455 158.59a52.65 52.65 0 0 0 52.54-1.29 52 52 0 0 0 18.58-19.51 52.66 52.66 0 0 0-1.28-52.53zm-12.12 45.2a36.94 36.94 0 0 1-13.17 13.82 37.27 37.27 0 0 1-37.2.91A36.91 36.91 0 0 1 448.56 132a37.29 37.29 0 0 1-.91-37.21A36.88 36.88 0 0 1 460.81 81a37.27 37.27 0 0 1 37.2-.91 36.94 36.94 0 0 1 13.83 13.16 37.33 37.33 0 0 1 .91 37.2zM479.77 95.2a17.44 17.44 0 0 0-11.6 30.08A17.45 17.45 0 0 0 492.23 100a16.79 16.79 0 0 0-12.46-4.81z" opacity=".5" fill="#6ec233"/><path d="M519.25,425.6a10.86,10.86,0,0,1-.73,3.84,9.58,9.58,0,0,1-2.21,3.36l-26.85,26.85v41.54a9.6,9.6,0,0,1-.81,3.93,10.76,10.76,0,0,1-2.19,3.21,10.13,10.13,0,0,1-3.2,2.15,10.26,10.26,0,0,1-7.8,0,10,10,0,0,1-6.1-9.29V462.53L439.63,432.8a9.58,9.58,0,0,1-2.21-3.36,10.86,10.86,0,0,1-.73-3.84,10.08,10.08,0,0,1,13.89-9.33,10.2,10.2,0,0,1,3.34,2.25L478,442.57l24-24.05a10.2,10.2,0,0,1,3.34-2.25,10.09,10.09,0,0,1,13.89,9.33Z" opacity=".5" fill="#da0100"/><path d="M529.7 270.4a49.82 49.82 0 0 0-49.79-49.65c-27.37 0-48.85 22.27-48.85 49.65 0 25.6 20.2 46.74 45.2 49.37v46.58c0 2.8 1.7 5.08 4.5 5.08s4.5-2.27 4.5-5.08V319.8c27-2.48 44.45-23.7 44.45-49.4zm-49.93 39.43a39.44 39.44 0 1 1 39.43-39.43 39.48 39.48 0 0 1-39.43 39.43z" opacity=".5" fill="#63aefb"/><path d="M994.36 166.54a11 11 0 1 0-19.76 6.62l-49.28 36.3.27.28a97.15 97.15 0 0 0-61.21-21.63A97.22 97.22 0 0 0 800 212.49l3.48-3.5-49.22-36.24a11.31 11.31 0 1 0-2.43 2.51l36.07 49.35 3.1-3.1a97.16 97.16 0 0 0-24.23 64.25v74.3a23.36 23.36 0 0 0 23.36 23.37h63.56v-10c0-5.62 4-10.74 9.63-11.3a10.75 10.75 0 0 1 11.85 10.69v10.62h63.56A23.36 23.36 0 0 0 962 360.06v-74.3a97.18 97.18 0 0 0-21.54-61.11l.4.4 36.17-49.5a11 11 0 0 0 17.29-9zm-130 182.27a63 63 0 1 1 63-63 63 63 0 0 1-62.98 63zm11-63a11 11 0 1 1-11-11 11 11 0 0 1 11.03 10.96zM766.13 459.4a10.25 10.25 0 0 1 .87 4.22 49.53 49.53 0 0 1-4.07 20 51.64 51.64 0 0 1-27.4 27.39 51.22 51.22 0 0 1-40 0 51.77 51.77 0 0 1-27.35-27.35 51.13 51.13 0 0 1 0-40 51.77 51.77 0 0 1 27.35-27.35 49.68 49.68 0 0 1 20-4.07 51 51 0 0 1 34.62 13.4 10.8 10.8 0 0 1 3.5 7.47 11.09 11.09 0 0 1-.57 4.12 9.8 9.8 0 0 1-2.21 3.66 11.09 11.09 0 0 1-3.45 2.52 10.89 10.89 0 0 1-4 1 11.09 11.09 0 0 1-4.12-.57 9.93 9.93 0 0 1-3.66-2.21 31.24 31.24 0 0 0-9.37-5.72 29.27 29.27 0 0 0-10.72-2 28.57 28.57 0 0 0-11.59 2.37A30.24 30.24 0 0 0 688.09 452a29.52 29.52 0 0 0 0 23.18A30.14 30.14 0 0 0 703.9 491a28.41 28.41 0 0 0 11.59 2.37 29.7 29.7 0 0 0 9.07-1.38 30.55 30.55 0 0 0 8-3.92 29.5 29.5 0 0 0 6.39-6 29.84 29.84 0 0 0 4.38-7.68H715.5a10.75 10.75 0 0 1-7.67-3.14 11.06 11.06 0 0 1-2.32-11.9 10 10 0 0 1 2.32-3.4 12 12 0 0 1 3.45-2.32 10.26 10.26 0 0 1 4.22-.88h40.7a10.29 10.29 0 0 1 4.22.88 11.45 11.45 0 0 1 3.4 2.32 11.32 11.32 0 0 1 2.32 3.44zm196-34.72a36.18 36.18 0 0 0-11.74-7.22 40.57 40.57 0 0 0-14.73-2.62h-28a10.63 10.63 0 0 0-7.52 3.09 10.32 10.32 0 0 0-2.26 3.4 10.49 10.49 0 0 0-.83 4.12v79.43a10.75 10.75 0 0 0 6.49 9.78 10.64 10.64 0 0 0 8.24 0 10.4 10.4 0 0 0 5.67-5.66 10.53 10.53 0 0 0 .83-4.12v-21.13h17.35a40.57 40.57 0 0 0 14.73-2.62 35.63 35.63 0 0 0 11.74-7.27 33.83 33.83 0 0 0 7.78-10.91 33.53 33.53 0 0 0-7.78-38.27zm-12 30.5a12.08 12.08 0 0 1-3.6 4.17 15.58 15.58 0 0 1-5.1 2.42 22.24 22.24 0 0 1-5.82.77H918.3v-26.47h17.35a22.24 22.24 0 0 1 5.82.77 16.33 16.33 0 0 1 5.1 2.37 11.65 11.65 0 0 1 3.6 4.12 13.77 13.77 0 0 1 0 11.85zm122.25-31.57a11.44 11.44 0 0 1-.78 4.11 10.14 10.14 0 0 1-2.38 3.61l-28.8 28.8v44.57a10.27 10.27 0 0 1-.87 4.21 11.36 11.36 0 0 1-2.35 3.44 10.74 10.74 0 0 1-17.53-3.44 10.75 10.75 0 0 1-.82-4.21v-41.5L987 431.3a10.11 10.11 0 0 1-2.37-3.61 11.23 11.23 0 0 1-.78-4.11 10.79 10.79 0 0 1 10.82-10.82 10.76 10.76 0 0 1 7.66 3.22l25.8 25.8 25.8-25.8a10.7 10.7 0 0 1 15.29 0 10.69 10.69 0 0 1 3.19 7.64zm-197.5-.86v49.6a43.26 43.26 0 0 1-86.51 0v-49.46a10.76 10.76 0 0 1 21.52 0v49.46a21.74 21.74 0 1 0 43.48 0v-49.6a10.76 10.76 0 1 1 21.51 0z" fill="#828282"/><g fill="none" stroke-width="1.42"><path d="M1070.1 483.95l-86.5-86.5" stroke="#919191"/><path d="M766.72 188.1h195.32v195.32H766.72z" stroke="#5ca1fb"/></g><g opacity=".5" fill="none" stroke-width="1.42" stroke="#63aefb" stroke-miterlimit="10"><path d="M1059.1 76.32L864.4 270.24l15.5 15.56 194.7-193.92M669.66 495.2l194.7-193.92-15.5-15.56-194.7 193.92m.78-388.6l193.9 194.68 15.56-15.5-193.9-194.7m403.32 404.97L879.9 285.8l-15.56 15.5L1058.26 496"/><path d="M864.38 0v571.53"/><path d="M1150.15 285.77H578.6"/><path d="M701.7 123.1h325.36v325.36H701.7z"/></g><g fill="none" stroke-width="1.42" stroke="#da0100"><path d="M864.38 1.33V570.2"/><path d="M1148.82 285.77H579.94"/></g><g clip-path="url(#A)" fill="none" stroke="#c4c4c3" stroke-width=".57"><path d="M723.18 570.67H701.7V.86h21.48zm21.72 0h-21.5V.86h21.48zm21.7 0h-21.5V.86h21.48zm21.7 0h-21.5V.86h21.48zm21.7 0h-21.48V.86H810z"/><use xlink:href="#B"/><use xlink:href="#B" x="21.72"/><use xlink:href="#B" x="43.42"/><use xlink:href="#B" x="65.13"/><use xlink:href="#B" x="86.83"/><use xlink:href="#B" x="108.54"/><use xlink:href="#B" x="130.24"/><use xlink:href="#B" x="151.94"/><use xlink:href="#B" x="173.65"/><path d="M579.47 144.57V123.1h569.8v21.48zm.01 21.7V144.8h569.8v21.48zm-.01 21.7V166.5h569.8v21.48zm.01 21.7V188.2h569.8v21.48zm-.01 21.72v-21.5h569.8v21.48zm0 21.7v-21.5h569.8v21.48zm.01 21.7v-21.48h569.8v21.48zm-.01 21.7v-21.48h569.8v21.48zm.01 21.7v-21.48h569.8v21.48zm-.01 21.72v-21.48h569.8v21.48zm.01 21.7v-21.48h569.8v21.48zm-.01 21.7v-21.48h569.8v21.48zm.01 21.7v-21.48h569.8v21.48zm-.01 21.7v-21.48h569.8v21.48zm0 21.7v-21.48h569.8v21.48z"/></g><g fill="none" stroke-width="1.42" stroke="#da0100"><circle cx="864.38" cy="285.77" r="63.05"/><circle cx="864.38" cy="285.77" r="97.69"/><path d="M1066.45 83.7L662.3 487.83"/><path d="M662.3 83.7l404.14 404.13"/><circle cx="864.38" cy="285.77" r="162.68"/></g></svg>