<svg version="1" xmlns="http://www.w3.org/2000/svg" width="1264" height="1264" viewBox="0 0 948.000000 948.000000"><path d="M653.8 1.6c-.3.3-4.2.7-8.7.9-4.5.2-9.4.6-10.9.9-1.5.3-4.3.8-6.2 1-1.9.3-6.2 1.3-9.5 2.2-3.3.9-6.4 1.7-7 1.8-.5.1-1.5.5-2.1.8-.6.4-2.2.9-3.6 1.2-1.4.2-3.4.9-4.4 1.5-1.1.5-5.7 2.8-10.4 5.1-8.6 4.1-15.1 7.7-16 8.9-.3.3-2.4 1.9-4.8 3.4-9.1 5.9-25.7 24.3-32.9 36.5-4.7 8-8.4 14.7-10.5 19.4-1.5 3.4-2.6 4.7-3.7 4.4-.9-.3-3.4-.8-5.6-1.1-2.2-.4-4.9-.9-6-1.1-1.1-.2-3.6-.6-5.5-.8-1.9-.3-5.2-.8-7.3-1.2-2-.3-4.7-.7-6-.9-6-.7-13.6-1.6-16.9-1.9-2-.2-4.1-.7-4.7-1-.6-.4-1.1-.2-1.1.4 0 .6-.4.9-.9.5-2.6-1.5-38.6-2.4-48-1.1-10.1 1.4-17.8 3.4-22.3 5.6-2.7 1.4-7.8 6-7.8 7.1 0 .4-2.2 5.3-4.9 11-2.6 5.7-5.8 12.6-7.1 15.4-1.2 2.7-3.7 8.1-5.5 12-1.8 3.8-5.6 11.9-8.4 18-7.3 16-7.2 15.8-11.1 16.7-8.8 2.2-30.8 9.2-38 12.1-1.4.6-3 1.1-3.5 1.2-.6.2-3.2 1.2-5.7 2.4-2.6 1.1-4.9 2.1-5.2 2.1-2.7 0-38.8 18.2-51.1 25.8-2.7 1.7-7.4 4.5-10.3 6.2-2.8 1.7-5.8 3.7-6.5 4.4-.7.7-2.3 1.8-3.5 2.5-1.3.7-3.1 1.9-4 2.6-.9.8-5.4 4.1-9.8 7.3-7.4 5.5-10.6 7.9-13.8 10.7-.6.5-4.3 3.7-8.1 6.9-9.7 8.3-39.3 38.3-40 40.7-.4 1-1.1 1.7-1.6 1.4-.5-.4-.9-.2-.9.3s-.9 2-2.1 3.3c-1.1 1.3-2.9 3.5-4 4.7-4.2 4.9-18.9 25.2-18.9 26.1 0 .5-.4 1.1-.8 1.3-1.1.4-14.2 21.4-14.2 22.7 0 .5-.4 1.1-.8 1.3-1 .3-1.1.4-11.2 20.5-4.1 8.1-7.4 15-7.3 15.3 0 .3-.7 2.1-1.7 4-2.6 5.2-13.9 34.8-13.9 36.3 0 .1-.2.9-.4 1.7-2.7 8.6-5.8 19.6-7.3 26.2-.2 1-.6 2.8-1 4-.3 1.3-.7 3.4-1 4.8-.2 1.4-.7 3.6-1.1 5-.4 1.4-.8 3.2-.9 4-.1 1.4-.7 5-1.8 11-.7 3.9-1.6 9.7-2.2 14.8-.3 2.6-.7 5.8-.9 7.2-2.4 14.9-2.4 65.4 0 83.5 1.1 8.1 1.7 14.2 1.7 15.7 0 1 .4 2 .9 2.3.5.4.7 1 .4 1.5-.3.5.1 4.2.9 8.2.8 4 1.8 8.9 2.1 10.8.3 1.9 1 5.1 1.5 7 .5 1.9 1.1 4.6 1.4 6 1.2 6.4 5.2 19.8 9.7 33 2.7 8 5.1 15.2 5.4 16 .2.8 1.1 3.3 2.1 5.5s1.7 4.3 1.6 4.7c-.1.5.2.8.8.8.6 0 .9.3.8.8-.1.8 1 3.8 4.8 12 1.4 3.1 2.6 5.9 2.6 6.2 0 .3.8 1.6 1.7 3 2 2.9 3.5 6.2 3.3 7.2-.1.5.3.8.9.8.5 0 .8.4.4.9-.3.5-.1 1.2.4 1.6.6.3 2.4 3.4 4.2 6.8 1.7 3.4 4.4 8.1 6 10.5 1.6 2.4 2.9 4.5 2.9 4.8 0 .9 14.3 21.9 15.2 22.2.4.2.8.8.8 1.4 0 .6 1 2.2 2.3 3.7 1.2 1.5 3.3 4.2 4.7 6.1 1.4 1.8 3.1 3.9 3.7 4.6.7.7 1.3 1.6 1.3 2 0 .3.8 1.4 1.8 2.3.9.9 3 3.2 4.6 5.1 12.9 15.8 38.5 41.1 51.6 51 1.8 1.4 3.8 3 4.4 3.5 2 1.9 7.3 6 9.6 7.5 1.3.8 3.5 2.4 4.9 3.6 3.6 2.9 17.9 12.4 18.6 12.4.3 0 1.5.8 2.6 1.8 1 1.1 3.2 2.5 4.7 3.3 1.5.7 3.8 2.1 5.2 3 5.4 3.5 37 19.9 38.4 19.9.3 0 3.1 1.2 6.3 2.6 7.1 3.3 23.1 9.3 33.8 12.8 4.4 1.4 9.4 3 11.2 3.6 1.8.6 4 1.3 5 1.4 1 .2 4.5 1.1 7.8 2 3.3.9 7.1 1.9 8.5 2.2 3.2.6 5.8 1.1 9 1.9 1.4.3 3.9.8 5.5 1 1.7.3 3.9.8 4.9 1.1 1 .4 3.5.8 5.5.9 2 .2 3.6.4 3.6.5 0 .1 1.1.3 2.5.5 1.4.1 4.3.5 6.5.8 2.2.4 6.5.9 9.5 1.2 3 .4 6.9.8 8.5 1.1 1.7.2 11.5.6 21.8.9 10.3.2 19.2.7 19.7 1 .6.4 1 .3 1-.2 0-.4 3.7-.9 8.3-1 9.6-.1 24.1-1.1 27.7-1.8 1.4-.3 4.9-.8 7.9-1.1 3-.3 6.4-.8 7.5-1 1.1-.2 3.6-.6 5.6-.9 2-.3 4.6-.8 5.8-1 1.2-.3 3-.7 4-.9.9-.2 3.7-.7 6.2-1.2 5.4-.9 3.9-.6 13.5-2.8 4.4-1 8.5-2.1 9-2.4.6-.4 1.5-.7 2-.8 2.8-.5 19-5.6 26.5-8.3 4.7-1.8 9.2-3.4 10-3.6.8-.2 1.6-.4 1.8-.5.1-.2.5-.3 1-.4.4-.1 2.2-1 4-1.9 1.7-1 3.2-1.5 3.2-1.2 0 .3 1.1-.2 2.4-1.1 1.4-.8 2.7-1.5 3-1.5.7 0 11.6-4.6 13.6-5.8.8-.5 6.6-3.5 12.8-6.8 6.3-3.2 12.1-6.3 13-6.8 7.4-4.4 11.2-6.8 22.2-13.9 6.9-4.4 12.6-8.4 12.8-8.8.2-.4 2.5-2.1 5.3-3.8 2.7-1.8 4.9-3.6 4.9-4.1 0-.5.5-.9 1-.9.6 0 1.6-.5 2.3-1 .7-.6 2.6-2.2 4.2-3.6 1.7-1.4 5-4.2 7.4-6.2 5.1-4.2 6.8-5.8 21-19.5 5.5-5.4 10.1-10.3 10.1-10.8s.4-.9.9-.9c1.6 0 24-26.6 31.1-37 1.3-1.9 2.7-3.7 3-4 .3-.3 1-1.2 1.5-2.1.6-.9 3.7-5.7 6.9-10.5 7.9-11.9 26.1-44.2 27.4-48.6.3-.8 3.2-7.6 5.7-13.3 1.3-3.1 2.7-6.6 2.9-7.5.1-.3.7-1.5 1.4-2.7.7-1.3 1-2.3.7-2.3-.3 0 0-1 .7-2.2.6-1.3 1.3-3.2 1.5-4.3.2-1 .8-2.2 1.4-2.6.6-.3 1-1 1-1.5-.1-.5 1.3-5.4 3-10.9 3.3-10.9 3.8-12.5 4.4-15.2.2-1 1.6-6.3 3-11.8 1.5-5.5 2.8-11.1 2.9-12.5.2-1.4.6-3.6.9-5 .7-2.6 1.4-6.4 2.2-11.7.8-5.4 1.6-10.6 2.1-13.8.3-1.7.7-5.9.9-9.5.2-3.6.5-6.5.6-6.5 1.2 0 1.7-48.4.6-63.5-1.2-16.1-4.2-37.4-7.2-51-.3-1.4-.7-3.6-1-5-.5-2.3-7.1-27.1-7.8-29.5-.2-.6-.9-3-1.6-5.4-.7-2.4-1.7-5.5-2.3-7-.6-1.4-1.2-2.8-1.3-3.1-1.3-4.9-10.5-28-12.2-30.7-.8-1.2-1.4-2.4-1.4-2.8.1-.3-2.1-5.1-4.9-10.8-4.5-9.2-7.5-14.9-13.8-25.8-1.1-2-2.6-4.7-3.4-6-.7-1.3-1.5-2.6-1.8-2.9-.3-.3-2.1-3-4-6s-4-6.1-4.7-6.8c-.7-.7-1.3-1.7-1.3-2.2 0-.5-.6-1.5-1.3-2.2-.7-.7-2.4-2.9-3.7-4.8-1.3-1.9-3-4.1-3.7-4.8-.7-.7-1.3-1.6-1.3-2 0-.4-1.4-2.3-3-4.2-1.6-1.9-3.3-4-3.7-4.5-3.1-4.1-12.3-14.8-15.9-18.7-4.1-4.4-4.4-5-4-9 1.5-13.1 1.6-13.9 3.1-23.8.3-1.4.6-4.5.9-7 .3-2.5.9-7.4 1.5-11 1.1-7 1.7-11.7 2.6-19.5.4-2.8.8-6.1 1-7.5 1.2-7.2 1.7-12.8 1.6-15.5-.3-4.9-6-12.8-15.1-20.6-8.9-7.7-34.7-22.7-52-30.3-3.6-1.6-9-4-12-5.4-3-1.3-6.4-2.8-7.5-3.2-1.1-.4-4.1-1.7-6.7-2.9-2.6-1.2-5.5-2.1-6.3-2.1-2 0-1.9-2.3.3-4.3 3-2.7 8.4-4.4 13.2-4.2 2.5.1 9.7 1.9 16 4.1 6.3 2.1 11.7 3.9 12 3.9.3 0 3 .9 6 2s5.7 1.9 6 2c.3 0 1 .3 1.6.7.6.4 2.1.9 3.5 1.2 1.3.2 4 1.1 5.9 1.9 1.9.8 4 1.6 4.5 1.7.6.2 1.5.4 2 .6 22.1 7.8 46 14.6 58 16.6 17.2 2.7 34.6 2.6 47.6-.3 2.6-.6 5.4-1.1 6.3-1.3.8-.1 1.9-.5 2.2-.9.4-.4 1.4-.7 2.1-.7 2 0 18.3-8.1 18.3-9.1 0-.4.8-1 1.8-1.4 2.6-.8 12.9-11.1 16.1-16 8.6-13.3 11.5-22.8 11.3-36.5-.2-10.7-.1-10.6-2.2-15.3-4.6-10-8.6-12.1-28-14.3-1.9-.3-4.2-.7-5-1-.8-.3-2.8-.8-4.5-1.1-1.6-.2-4.1-.6-5.5-.9-1.4-.3-3.8-.7-5.5-1-1.6-.3-5.7-1.2-9-2s-6.9-1.7-8-1.9c-7.4-1.7-16.6-4.1-27-7.2-6.6-1.9-12.7-3.6-13.5-3.8-2.2-.5-28.2-9.5-30.5-10.5-1.1-.5-5.8-2.3-10.5-4-4.7-1.7-9.4-3.4-10.5-3.9-2-1-11.6-4.5-12.5-4.7-.3 0-1.2-.4-2-.7-3-1.2-19.6-6.6-25-8-8.3-2.2-16.6-3.6-26-4.3-4.7-.3-8.8-.8-9.1-1-.3-.2-.9-.1-1.1.2zM289.4 316.5c4.8 4.5 7.4 11 8 19.6.3 3.9.7 7.8 1 8.7.3.9.7 2.9 1 4.4.4 2.7 5.5 14.8 6.6 15.8.3.3 1.9 2.5 3.5 5s11.1 12.6 21.1 22.5c9.9 9.9 20.5 20.9 23.5 24.5 3 3.6 5.6 6.7 5.9 7 1.3 1.1 9.8 14.9 12.2 19.5 3.2 6.3 6.5 15.8 7.2 20.9.4 2.1.9 4.2 1.2 4.7.7 1.1.6 21.3 0 26.1-2.8 19.1-11.7 37.6-23.9 49.8-6.3 6.2-9.4 9-10 9-.3 0-2.3 1.1-4.3 2.5-5.7 3.9-15.9 6.7-24.9 7-12.7.3-24.2-3-34.4-10-2.3-1.6-5-3.5-5.9-4-5.9-3.7-19.3-21.8-25.9-34.9-4.6-9.1-10.4-22.6-9.7-22.6.3 0 .2-.6-.3-1.3-.4-.6-.8-1.7-1-2.2-.1-.6-.9-3.5-1.8-6.5-1.7-6-2.3-8.2-3-12-.2-1.4-1-5.7-1.7-9.5-.7-3.9-1.3-9.1-1.3-11.7 0-2.7-.2-4.8-.5-4.8-.7 0-.4-24.8.4-32.5 1.1-10.4 2.2-17.9 3.3-23 .2-1.1.6-3.1.9-4.4 1.3-6.2 6.2-24.8 7.1-27.1.3-.8.7-1.7.8-2 .1-.3.5-1.4.9-2.5s1.7-4.5 2.9-7.5c3.4-9.2 11.4-25.3 13.9-28.1 7-7.9 19.1-8 27.2-.4zm442 123.6c4.4 3 7.5 7.8 8.2 12.5.7 4.9.7 4.6 0 12.4-.8 7.4-1.6 13-3.1 20-.3 1.4-.8 3.8-1.1 5.5-.3 1.6-1.2 5.7-2.1 9-.8 3.3-1.6 6.4-1.8 7-.1.5-.5 1.7-.8 2.5-.3.8-1.5 4.6-2.7 8.5-3.5 10.9-10 26.1-15.7 36.7-5.1 9.4-16.2 26.6-19.3 29.9-.8.9-2.9 3.3-4.7 5.5-4.8 6-13 14-21.8 21.4-8.5 7.1-19.7 15-21.4 15-.5 0-1.1.3-1.3.7-.1.5-3.4 2.4-7.3 4.3-3.8 1.9-7.1 3.8-7.3 4.2-.2.5-1.1.8-2.1.8-.9 0-2.7.7-3.9 1.6-1.2.8-2.2 1.3-2.2.9 0-.3-1.6.1-3.5.9-5.3 2.3-10.2 2.9-21 3-11.2 0-13.5-.3-21.8-3.2-12.5-4.5-23.3-13.8-29.2-25.3-18.6-36.1-3.6-87.1 32.5-110.4 7-4.6 19.1-10.5 21.3-10.5.7 0 1.8-.5 2.3-1 .6-.6 2.4-1.3 3.9-1.6 1.6-.3 3.3-.8 3.9-1.2.6-.3 1.7-.7 2.4-.8.8-.2 2.1-.6 3-1 .9-.4 2.2-.8 2.7-1 .6-.1 3-.7 5.5-1.3 7.2-1.9 7.5-1.9 7.5-2.1 0-.2.8-.3 9-2 3.3-.6 7.1-1.3 8.5-1.6 2.3-.5 9.4-2.1 13-2.9 5.1-1.3 20-7.7 20-8.7 0-.5.6-.8 1.3-.8 1.5 0 12.1-10 15.7-14.9 5.2-7 10.7-11.9 15.1-13.5 5.8-2.1 14-1.5 18.3 1.5z"/></svg>