<svg xmlns="http://www.w3.org/2000/svg" viewBox="0 0 547.96 103.83"><defs><style>.cls-1{fill:#d9d9d9;}</style></defs><title>Asset 5</title><g id="Layer_2" data-name="Layer 2"><g id="Layer_1-2" data-name="Layer 1"><path class="cls-1" d="M108.91,18.84v7.57c-.16.41-.35.81-.48,1.23-1.38,4.58-2.77,9.16-4.12,13.75a3.45,3.45,0,0,1-3.09,2.69c-.52.07-1,.18-1.57.22-3,.26-6.07.52-9.11.75-1.06.08-1.59.41-1.56,1.63.12,4.06.12,8.13.18,12.19.15,11.79.33,23.57.41,35.36a5.48,5.48,0,0,1-1.13,3,8.74,8.74,0,0,1-2.21,1.64c1,.11-63.35.11-62,0-2.71-1.06-3.71-2.47-3.68-5.22q.16-14.22.37-28.43c.07-5,.16-9.92.23-14.88,0-1.66,0-3.32,0-5.08l-1.33-.15c-3.08-.25-6.16-.58-9.24-.72a4.8,4.8,0,0,1-5-3.9C3.91,34.65,2.12,28.91.4,23.15c-.89-3-.4-4,2.5-5q14.41-4.73,28.86-9.34c4.29-1.37,8.61-2.62,12.92-3.92h4.39c.07,0,.13.14.19.14H60.84c.07,0,.14-.09.2-.13h4.15c.78.21,1.56.41,2.33.65C77.4,8.65,87.3,11.7,97.16,14.83,101.11,16.08,105,17.5,108.91,18.84ZM41.72,11.4A13.84,13.84,0,0,0,56,20.33c5-.35,10.95-4.7,12-8.93Z"/><path class="cls-1" d="M144.41,48.31a8.44,8.44,0,0,1,3.21-4q23.79-18.42,47.56-36.88c2.64-2.05,4.77-2.06,7.41,0l15.54,12.06c.33.26.67.5,1.19.88V15.09c0-1.8.53-2.32,2.36-2.32h9.15c1.5,0,2.11.61,2.11,2.14,0,5,0,9.93,0,14.89a2.11,2.11,0,0,0,.93,1.94c5.45,4.19,10.86,8.44,16.32,12.62a8.31,8.31,0,0,1,3.2,4v2.13a1.75,1.75,0,0,0-.2.35c-1.32,3.68-5.14,4.85-8.23,2.46q-13.58-10.5-27.13-21L201.52,19.57c-2-1.51-3.31-1.51-5.26,0-14.39,11.16-28.81,22.29-43.14,33.52-3.49,2.74-7.81.92-8.57-2.5,0-.06-.09-.1-.14-.15Z"/><path class="cls-1" d="M158,76.62c0-6.28,0-12.55,0-18.83a4.27,4.27,0,0,1,1.79-3.65l37.24-28.87c1.42-1.11,2.23-1.13,3.61-.06q18.71,14.51,37.4,29a4.14,4.14,0,0,1,1.7,3.48q0,19,0,38c0,1.65-.58,2.21-2.25,2.21q-13.09,0-26.18,0c-1.66,0-2.21-.56-2.21-2.24q0-13,0-26c0-2-.49-2.44-2.45-2.44H190.9c-1.65,0-2.22.57-2.22,2.24V95.56c0,1.8-.54,2.33-2.35,2.33q-13,0-26,0c-1.81,0-2.34-.51-2.34-2.33Z"/><path class="cls-1" d="M389,94.8l-69.47,9c-.38-30.52-.77-60.85-1.15-91.35l67.51-7.22C387,35.09,388,64.83,389,94.8ZM367.34,25.49c-.18,1.37-.28,2.92-.59,4.43-1.21,5.81-5.68,9.64-11.89,10.28-5.93.62-10.67-2.06-13-7.66-1-2.38-1.29-5-2-7.5-.14-.49-.71-.85-1.09-1.27-.28.49-.86,1-.78,1.45A42.94,42.94,0,0,0,339.89,33c2.88,7.09,8.9,10.27,16.46,9,9.28-1.55,15.61-12,12.49-20.72-.15-.41-.76-.65-1.16-1-.26.48-.75,1-.75,1.46A34,34,0,0,0,367.34,25.49Z"/><path class="cls-1" d="M317.52,103.12c-4.91-2.07-9.5-4-14-6-.4-.17-.64-1.15-.62-1.75q.28-12.14.69-24.28.54-17.12,1.12-34.21c.33-10.06.68-20.12,1-30.51l13.76,1.82c0,.25,0,.47-.08.5-3.17,1.55-3.07,4.29-3,7.29.28,14.09.38,28.18.56,42.27q.27,20.72.57,41.42C317.53,100.7,317.52,101.73,317.52,103.12Z"/><path class="cls-1" d="M373.93,0,372,2.57l7.21,1.05,0,.34L321,10.2,324.86,7,315,5.55V5.22Z"/><path class="cls-1" d="M541.07,17.31c-1.19,0-2.26,0-3.34,0a3.44,3.44,0,1,1-.05-6.87c2.2,0,4.4,0,6.59,0A3.46,3.46,0,0,1,548,14.17V57.51q0,15.34,0,30.69a11.68,11.68,0,0,1-3.69,8.7,11.89,11.89,0,0,1-8.6,3.42q-34.36,0-68.74,0a31,31,0,0,1-6.75-.45,11.77,11.77,0,0,1-9-11.52q0-40.53,0-81.06c0-2.38,1.43-3.76,3.88-3.76h71.65c2.66,0,4,1.33,4,4q0,40.2,0,80.41a5.2,5.2,0,0,0,2.57,4.79,4.85,4.85,0,0,0,5.24,0A5.19,5.19,0,0,0,541.08,88q0-24.6,0-49.18V17.31Zm-83-6.87c0,.35,0,.59,0,.84q0,38.42,0,76.84a5.16,5.16,0,0,0,5.33,5.31h60.52c.3,0,.61,0,1-.07A15.1,15.1,0,0,1,523.77,87q0-37.73,0-75.43c0-.35,0-.7,0-1.08Z"/><path class="cls-1" d="M534.15,55.39v-32c0-1.78.54-2.6,1.71-2.61s1.72.82,1.72,2.58V87.88c0,1.27-.66,2.06-1.7,2.06s-1.72-.79-1.72-2q0-6.27,0-12.53Z"/><path class="cls-1" d="M516.83,57.22V73.85c0,1.7-.56,2.26-2.26,2.26H494.8c-1.53,0-2.15-.61-2.15-2.16q0-16.9,0-33.8c0-1.42.62-2,2-2h20.09c1.42,0,2,.65,2,2.16q0,8.48,0,17Z"/><path class="cls-1" d="M490.91,17.35q11.13,0,22.26,0a3.44,3.44,0,0,1,3.41,4.7,3.5,3.5,0,0,1-3.52,2.18H468.75c-2.73,0-4.45-2.31-3.52-4.71a3.48,3.48,0,0,1,3.52-2.17Q479.84,17.34,490.91,17.35Z"/><path class="cls-1" d="M490.91,34.61c-7.92,0-15.84,0-23.76,0a2.89,2.89,0,0,1-1.83-.82,1.56,1.56,0,0,1-.1-1.55,2.39,2.39,0,0,1,1.6-1c2.44-.11,4.89-.05,7.34-.05h40.28a6.14,6.14,0,0,1,.86,0,1.69,1.69,0,0,1,1.52,1.69,1.66,1.66,0,0,1-1.51,1.69,6.63,6.63,0,0,1-1.18,0Z"/><path class="cls-1" d="M504.82,86.52h9.82c1.37,0,2.17.63,2.19,1.69S516,90,514.69,90q-9.92,0-19.85,0a1.93,1.93,0,0,1-2-1,1.69,1.69,0,0,1,1.72-2.45c3.42,0,6.84,0,10.25,0Z"/><path class="cls-1" d="M477.08,90h-9.92c-1.37,0-2.17-.64-2.18-1.71s.81-1.72,2.15-1.72H487c1.37,0,2.17.63,2.18,1.7s-.8,1.72-2.15,1.72Z"/><path class="cls-1" d="M504.62,83h-9.81c-1.36,0-2.16-.66-2.15-1.72s.79-1.71,2.17-1.71h19.95c1.27,0,2.05.67,2.05,1.71S516,83,514.76,83Z"/><path class="cls-1" d="M477,83H467.1c-1.34,0-2.15-.69-2.11-1.76s.81-1.66,2.1-1.67h20c1.33,0,2.14.7,2.11,1.76s-.83,1.67-2.1,1.67c-3.35,0-6.69,0-10,0Z"/><path class="cls-1" d="M477.19,72.68H487c1.36,0,2.16.64,2.15,1.72s-.81,1.7-2.18,1.7H467.13c-1.35,0-2.15-.66-2.14-1.72s.79-1.7,2.17-1.7Z"/><path class="cls-1" d="M477.05,65.77H487c1.36,0,2.16.63,2.18,1.69s-.79,1.73-2.14,1.73q-10,0-20,0c-1.26,0-2.05-.66-2.06-1.69s.76-1.73,2-1.73Z"/><path class="cls-1" d="M477.1,62.28h-9.92c-1.39,0-2.17-.62-2.19-1.69s.79-1.74,2.23-1.74c6.58,0,13.16,0,19.74,0a2.7,2.7,0,0,1,1.79.7,1.7,1.7,0,0,1,.18,1.64,2.49,2.49,0,0,1-1.69,1C483.86,62.33,480.48,62.28,477.1,62.28Z"/><path class="cls-1" d="M477.19,51.93H487c1.35,0,2.16.65,2.15,1.72s-.81,1.7-2.18,1.7H467.13c-1.31,0-2.09-.61-2.15-1.62a1.77,1.77,0,0,1,2-1.81Z"/><path class="cls-1" d="M477,48.44c-3.38,0-6.76,0-10.14,0A1.73,1.73,0,0,1,465,46.67,1.75,1.75,0,0,1,466.88,45c.1,0,.21,0,.32,0h19.74c1.42,0,2.26.68,2.22,1.77s-.85,1.67-2.22,1.67H477Z"/><path class="cls-1" d="M477.19,38.1H487c1.37,0,2.16.64,2.16,1.72s-.81,1.7-2.17,1.7H467.14c-1.36,0-2.16-.65-2.15-1.72s.79-1.7,2.17-1.7Z"/></g></g></svg>