<svg xmlns="http://www.w3.org/2000/svg" viewBox="0 0 392.39 100.52"><title>Asset 1</title><g id="Layer_2" data-name="Layer 2"><g id="Layer_1-2" data-name="Layer 1"><path d="M254.86,92.38V18.72h36c13.75,0,26.24,4.82,26.24,20.05,0,8.59-5.73,16.5-14.21,18.33v.23c10.54,1.38,17.3,9.28,17.3,19.93,0,7.79-2.75,23.26-29.33,23.26H263.58a8.72,8.72,0,0,1-6-2.73,9,9,0,0,1-2.73-5.41M264,53.21h26.8c12.49,0,18.45-4.82,18.45-12.49,0-10.2-6.3-14-18.45-14H264Zm0,36.39a2.42,2.42,0,0,0,1,2,4.27,4.27,0,0,0,2.91.92h22.91c11.57.11,21.53-2.41,21.53-15.47,0-10.43-7.9-14.45-21.53-14.45H264Z"/><path d="M386.87,62.17H333c.14,13.78,7.33,30.4,25.46,30.4,13.77,0,21.26-8.09,24.26-19.77h9.44c-4.05,17.52-14.24,27.71-33.7,27.71-24.57,0-34.9-18.87-34.9-40.89,0-20.37,10.33-40.88,34.9-40.88,22.53,0,32.76,17.83,33.92,37.34.12,2,0,3.54-1.3,4.72a7.26,7.26,0,0,1-4.18,1.37m-7.53-7.94s2.82.05,3.13-1.23a8.27,8.27,0,0,0,.32-2.92C381.36,37,372.7,26.67,358.43,26.67c-15.43,0-24,13.48-25.46,27.56Z"/><path d="M140,49.53s0-9.62,3.94-16.43c5.08-9.54,13.83-14.33,26.45-14.33,12.82,0,22.31,6,25.24,16.45,4.77-10.47,13.1-16.45,25.69-16.45,17.38,0,28.4,9.07,28.4,27.85v53.86S240,99.57,240,91V47.08c0-13.08-4.92-20.16-18.77-20.16-16.77,0-21.54,13.85-21.54,28.62V88.39s-.06,1.75-.68,2.31a5.05,5.05,0,0,1-1.62,1h-4.89a2.67,2.67,0,0,1-1.84-1,4.68,4.68,0,0,1-.67-2.31V46.62c.16-10.77-5.33-19.7-20-19.7-16.78,0-20.21,12.62-20.37,29.24V91c0,9.24-9.69,9.53-9.69,9.53V49.53Z"/><path d="M44.21,51.81,30.56,48.72c-7-1.78-17.39-5-17.39-14.14,0-10.89,10.72-14.46,19.83-14.46,9.6,0,17.9,3.84,20.83,12.23,1,3,3.39,6.13,7.57,6.13h3.78c-.65-18.2-14-27-30.72-27C19.67,11.5,2.92,18,2.92,35.07,2.92,49.37,13,53.92,26.33,57.5L39.5,60.43C48.76,62.7,57.86,66,57.86,75.71c0,11.7-13.32,15.92-22.91,15.92-11.33,0-20.3-4.91-23.49-14.47-.88-3.13-3.34-6.49-7.68-6.49H0c1.62,20.48,15,29.58,34.46,29.58,15.6,0,33.64-7,33.64-25.2,0-14.62-12.19-21.45-23.89-23.24"/><path d="M106.31,18.74c-17.06,0-25.47,8.32-29.67,19.79h6.12a6.79,6.79,0,0,0,5.76-3.16h0l0-.07,0,0c3-4.66,7.21-8.57,16.53-8.57,11.07,0,20.21,3.14,20.21,15.87,0,8.53-4.34,9.58-12.13,10.48-20.36,2.39-39.91,4.9-39.91,24.85,0,15.57,10.12,22.6,24.34,22.6,14.82,0,24.58-3.61,28.14-9.48h.31c0,3.21-.9,9.5,8.68,9.5V43.59c0-20.66-14.82-24.85-28.45-24.85m19,55.79c.15,15.12-12.57,18-26.95,18-8.83,0-17.21-5.84-17.21-15.27,0-15.12,19.91-15,35.92-17.82,2.55-.45,6.74-1.19,7.94-3.44h.3Z"/><path d="M340.71,16c.58-2.71,3.76-4.26,3.76-4.26l20.15-9.52C368.16.55,370-.63,372.85.37a4.08,4.08,0,0,1,2.61,5c-1,2.75-3.36,3.59-5.8,4.14l-23.8,5.13Z"/></g></g></svg>