<svg xmlns="http://www.w3.org/2000/svg" viewBox="0 0 427.3 378.7" fill="#baf43f"><path d="M269.8 137.32a20.5 20.5 0 0 1 .87 5.79c.22 6 1 11.88 1.53 17.77.33 3.5.87 6.88 1 10.26a181.88 181.88 0 0 1-.11 19 33.51 33.51 0 0 0 0 4.7 3.89 3.89 0 0 0 3.71 3.7 27.82 27.82 0 0 0 5.24-.11c2.3-.1 3.5-1.4 3.92-3.7a9.28 9.28 0 0 0 .33-2.51c.1-2.95.1-5.9.1-8.73l-.33-16.58c-.1-6.65 0-13.4 0-20.07l-.43-16.14a178.83 178.83 0 0 0-2-22.79 12.07 12.07 0 0 0-.32-1.86c-.55-2.4-2.3-3.5-4.7-3.38-1.2.1-2.3.33-3.5.55a54.41 54.41 0 0 1-7.3.65c-1.2.1-2.5.22-3.7.44a4.08 4.08 0 0 0-3.49 2.83 11.67 11.67 0 0 0-.87 2.62l-3.06 13.63-2.18 11.57c-.54 3-1.2 6-2 8.94a39.61 39.61 0 0 1-1.42 5c-.22.65-.44 1.3-1.3 1.3a2.62 2.62 0 0 1-1-1.75l-.44-3-.54-7.2c-.33-2.62-.44-5.35-.88-8l-3.05-17.77c-.22-1.3-.44-2.62-.76-3.82a4.57 4.57 0 0 0-4.58-3.49c-1.75 0-3.6 0-5.46.1a41.84 41.84 0 0 1-6.43.11c-2.3-.22-4.58-.22-6.76-.22a3.51 3.51 0 0 0-3.39 2.62 12.21 12.21 0 0 0-.43 3.92v42.76c0 3.5.1 7 .22 10.47 0 2.62.2 5.23.2 7.74v20.5c.22 3.38 1.64 4.9 5 5.23a1.4 1.4 0 0 0 .66.11h4.14c3-.1 4.36-1.3 4.8-4.25a5.28 5.28 0 0 0 .11-1.31 28.26 28.26 0 0 0 .11-3l.1-25.97c.32-4.9.43-9.82.32-14.84a48.74 48.74 0 0 1 0-5.67c0-1-.1-2.83.88-2.94.43 0 .54.54.65.87a24.89 24.89 0 0 1 1.09 3l2.18 10.9 2.5 14c.55 2.84 1 5.78 1.42 8.73.65 4.14 1.2 8.4 1.74 12.54.22 1.2.44 2.4.77 3.6a4.42 4.42 0 0 0 4.25 3.49l3.06.22c3.7.1 5.34-1 6.2-4.7.33-1.2.55-2.5.77-3.82L261.6 168l1.53-8.72 2.4-12.87c.54-2.73 1.1-5.46 1.74-8.07.33-1.23 1.53-3.85 2.5-1.02zm30.43 31.08l.32 22.9.1 4.37.22 1.1a3.28 3.28 0 0 0 3.49 2.94 32.2 32.2 0 0 0 8-1 4 4 0 0 0 3.27-4.14l-.1-3.28-.66-9.27-.54-16.8c-.1-2.08 0-4.26 0-6.33a2.87 2.87 0 0 1 .87-2.29 1.23 1.23 0 0 1 1.74-.22 6.49 6.49 0 0 1 1.2 1.31l.66 1.85c1.63 5.68 3.16 11.46 4.47 17.24l4.7 19.3a10.85 10.85 0 0 0 .87 2.4 3.65 3.65 0 0 0 3.38 2.08 8.41 8.41 0 0 0 1.53-.22 70.32 70.32 0 0 1 7.09-1.09l1.42-.33a2.46 2.46 0 0 0 1.74-2.51 6.75 6.75 0 0 0-.65-2.94l-4.8-14.18a56.6 56.6 0 0 1-2.84-10.15 89.48 89.48 0 0 0-2.4-10.58l-1.63-5.34a4.05 4.05 0 0 1 1-4.25l2.18-2.3a24.57 24.57 0 0 0 7-14.39 56.8 56.8 0 0 0-.11-12.22 20.64 20.64 0 0 0-.65-3.6 24.12 24.12 0 0 0-4.69-8.72 19.36 19.36 0 0 0-13.64-7.64 81.87 81.87 0 0 0-8.94-.33 33.16 33.16 0 0 0-6.54.77 14.06 14.06 0 0 0-2.95.65 4.09 4.09 0 0 0-2.94 3.82 5.28 5.28 0 0 0-.11 1.31l-.33 8.94c0 2.4-.1 4.7-.22 7a161.44 161.44 0 0 0-.43 20.51c0 .54-.1 1.1-.1 1.74l-.1 7.42c0 2.52.22 5.34.22 8 0 1.75-.1 3.38-.1 5a34.93 34.93 0 0 0 .22 3.49zM315 127.07l.22-5.45.22-3.06a3.83 3.83 0 0 1 3.49-3.38 6.71 6.71 0 0 1 8.29 4.26c2.5 6.43 2.18 12.76-2.5 18.43a10.67 10.67 0 0 1-6.76 3.6c-2.2.33-3.5-.66-3.6-2.95a11.64 11.64 0 0 1 0-2zm57.43 59.66c-.43-3.38-1.85-4.25-4.36-4.7a17 17 0 0 0-7.74.77 5.4 5.4 0 0 0-3.93 5.34l-.33 4.58a28.86 28.86 0 0 0 .22 3.17 3.87 3.87 0 0 0 3.6 3.49 4.2 4.2 0 0 0 1.09.21 43.9 43.9 0 0 0 7.53-.87c2.83-.76 3.7-2.5 3.92-4.9a32.42 32.42 0 0 0 0-3.27v-3.82zM263.25 265l-.22-17.9-.1-14.6c-.1-2-.22-4-.44-6-.32-2.18-1.63-3.7-3.6-3.82-3.38-.22-6.76-.1-10-.1h-.22a3.26 3.26 0 0 0-2.84 3 8.84 8.84 0 0 0-.21 2.4l.43 7.52.22 7c-.1 3.17-1.2 4.48-4.36 4.48h-5.7a6.17 6.17 0 0 1-2-.33 2.31 2.31 0 0 1-2-2 6 6 0 0 1-.22-2.4c0-1.64.1-3.28.1-5q.17-5.56 0-11.13a11.5 11.5 0 0 0-.33-2.72 3 3 0 0 0-2.29-2.62 5.94 5.94 0 0 0-2.4-.22 29.28 29.28 0 0 0-6.65 2 5.59 5.59 0 0 0-3.49 5.13v4.14c.22 6.1.22 12.22-.1 18.33-.33 5.56-.43 11.12-.65 16.7l-.1 8.72c0 1.53-.1 2.95-.1 4.36s.1 3.06.1 4.6v6.1l.43 21.82v2c.22 2.4 1.3 3.82 3.7 4.15a24 24 0 0 0 7.31-.33 3.48 3.48 0 0 0 2.95-3.05 13 13 0 0 0 .1-2l-.1-9.8c0-4.6.32-9.17.2-13.75v-21.16a28.43 28.43 0 0 1 .22-3.05 2.83 2.83 0 0 1 2.73-2.62 50.39 50.39 0 0 1 9.81-.44 3.49 3.49 0 0 1 3.28 3 5.09 5.09 0 0 1 .32 1.74l.55 9.6c.22 3.06.22 6.22.44 9.27.32 5.13.54 10.15.43 15.27v11.13a29.09 29.09 0 0 0 .44 3 3.59 3.59 0 0 0 2.29 2.4 7.49 7.49 0 0 0 2.18.33 45 45 0 0 0 5.45 0 9.43 9.43 0 0 0 1.53-.33 3 3 0 0 0 2.51-2.4 23.32 23.32 0 0 0 .44-2.72v-5.24l.32-18.54v-2.28zm13.52 10.47l.1 6.76.77 12.1a61.67 61.67 0 0 0 1 7.85c1.42 8.18 6.65 13.2 14 16.47a8.06 8.06 0 0 0 1.74.55 26.15 26.15 0 0 0 11.24-.11 18.66 18.66 0 0 0 12.54-10.47 24.17 24.17 0 0 0 2.29-8.18c.22-2.3.44-4.47.55-6.76s.1-4.9.1-7.3c-.1-3.5-.44-6.87-.55-10.25-.1-6.44-.44-13-.87-19.42-.33-5.45-.87-11-1.42-16.47a29.65 29.65 0 0 0-2.29-8.61c-2.3-5.24-6.1-8.73-11.78-9.93a34.76 34.76 0 0 0-8.18-.65 14.71 14.71 0 0 0-5.34.87c-4.7 1.53-7.86 4.8-10 9.16a28.86 28.86 0 0 0-2.94 12.76c0 1.3-.1 2.5-.1 3.7l-.33 4.8c0 2.4.1 4.7-.1 7-.54 4.47-.22 8.83-.33 13.3zm26.94 4.47c.1 4.15.1 8.18.1 12.22a7.84 7.84 0 0 1-.76 3.6 11.12 11.12 0 0 1-1.31 2.51 8.87 8.87 0 0 1-1.85 1.53 3.24 3.24 0 0 1-3.28-.11 5.8 5.8 0 0 1-2.07-1.86 12.58 12.58 0 0 1-2-6.87l-.22-6.1c-.1-2-.33-4-.54-6a32.64 32.64 0 0 1-.22-3.27c-.1-3.7 0-7.42-.22-11.12-.22-5.57.1-11.13.22-16.8a45.91 45.91 0 0 1 .43-5.35 7.9 7.9 0 0 1 .88-2.72 3.86 3.86 0 0 1 2.83-2.18 4.22 4.22 0 0 1 3.38 1.09 5.56 5.56 0 0 1 1.75 2.72 19.28 19.28 0 0 1 1.09 4.15c.44 3.38.76 6.65 1 10zM334.26 256c.22 10.14-.44 20.18.43 30.32l1 11.9a139.08 139.08 0 0 1 .88 12c0 2.3.1 4.58.32 7 .1 2 1.3 3.27 3.6 3.6a3.58 3.58 0 0 0 1.53 0l5.67-.77c2.95-.32 3.93-2.07 3.93-4.47a1.19 1.19 0 0 0 0-.87c0-3.17-.1-6.44-.22-9.6l-.54-14.18c0-1.1-.1-2.3 0-3.5 0-2.3.76-3.27 3.05-3.7l3.7-.54a24.71 24.71 0 0 0 10.69-4.91 14.13 14.13 0 0 0 4.9-6.87l1.3-4.4a17.34 17.34 0 0 0 .88-6.21c-.22-3.17-.55-6.44-.55-9.6a74.39 74.39 0 0 0-1.42-13c-.87-5.9-6-13-14.3-13.74-3.27-.33-6.43-.87-9.7-1.42a46.08 46.08 0 0 0-11-.22 3.78 3.78 0 0 0-3.71 3.38 14.48 14.48 0 0 0-.21 3.06l.1 9.6a140.67 140.67 0 0 1-.32 16.58zm14.07-13.42c.22-2.83 1.63-4 4.36-4.14a6.18 6.18 0 0 1 6.22 3.82 19.87 19.87 0 0 1 1.52 6.1c.22 2 .55 3.82.66 5.78a40.65 40.65 0 0 1 .22 6.33 8.62 8.62 0 0 1-7.86 7.74c-2.4.1-3.5-.76-3.92-3.16-.22-1.42-.33-2.83-.44-4.25l-.65-10.9c0-1.42-.1-2.84-.22-4.36a26.45 26.45 0 0 1 .11-3zm78.75-2.66a28.71 28.71 0 0 0-1.64-8.51 15 15 0 0 0-6.54-7.85 19.34 19.34 0 0 0-9.16-2.62 31.8 31.8 0 0 0-11 2.07 11.32 11.32 0 0 0-6 5 25.48 25.48 0 0 0-3.49 9.16l-1.3 9.05-.76 5.56c-.44 3.7.54 7.2 1.53 10.7a14.42 14.42 0 0 0 2.29 4.93c1.2 1.75 2.4 3.38 3.6 4.9 3.92 5 7.63 10.14 11 15.5a23.28 23.28 0 0 1 2.62 5.23 12.63 12.63 0 0 1 .65 4.47 8 8 0 0 1-2.83 5.79 3.07 3.07 0 0 1-4.15-.33 10 10 0 0 1-1.74-2.95 37.07 37.07 0 0 1-2.29-9.7 9 9 0 0 0-.33-2.4 2.6 2.6 0 0 0-2.62-2 15.06 15.06 0 0 0-6.54 1.09 3.63 3.63 0 0 0-2.62 3.17 8 8 0 0 0-.22 2.83c.33 2.73.66 5.46 1.2 8.18a23.66 23.66 0 0 0 7.53 13.42A20.82 20.82 0 0 0 409 320a14.47 14.47 0 0 0 9.27-3.38 25.28 25.28 0 0 0 7.2-10.69c1.64-4.47 1.64-9.16 1.1-13.74a45.69 45.69 0 0 0-2.4-9.49 23.66 23.66 0 0 0-2.5-5.34l-3.7-5.68-2.73-4.14a22.83 22.83 0 0 0-3.38-3.93 59.42 59.42 0 0 1-4.58-4.69c-3.93-4.9-4.9-10.47-3.6-16.47a8.58 8.58 0 0 1 2-3.81c1.75-2 3.82-2 5.56.2a4.1 4.1 0 0 1 .77 1.53 24.35 24.35 0 0 1 .87 2.62 30.69 30.69 0 0 1 .55 6.32 11 11 0 0 0 .21 2.62c.44 1.86 1.42 2.62 3.4 2.62a15.23 15.23 0 0 0 7.19-1.74 5.09 5.09 0 0 0 2.62-3.5 21.33 21.33 0 0 0 .55-5.88zM101.43 111.3l-5.93-7.1a.58.58 0 0 1 .28-.94c3.56-1 17.78-4.56 30.7 1.75a.59.59 0 0 1-.12 1.11L102 111.5a.58.58 0 0 1-.57-.2z"/><path d="M115.3 327.9a104.53 104.53 0 0 1-13.28-.27 8 8 0 0 0 .21 3.19c10.56-1.2 12.32 8.7 12.32 8.7a17.25 17.25 0 0 1-7.09-.64 10.78 10.78 0 0 1-3.86 4.32 10.79 10.79 0 0 1-4.79-3.26 17.31 17.31 0 0 1-6.73 2.33s-.35-9.3 7.77-11.3a8.91 8.91 0 0 1-.2-3.41c-37.1-3.47-46.5-32.15-46.5-32.15-15.9 32.88-7.52 54.74-7.52 54.74-1.77-5.58 1.2-11.34 1.2-11.34 3.36 29 17.4 33.53 17.4 33.53-3.2-4.72.6-15.45.6-15.45 1.48 5.2 6.25 11.14 6.25 11.14-2-3.25-3.4-9.46-3.4-9.46a42.23 42.23 0 0 0 9 12.37c-2.3-5.78 2.9-11.5 2.9-11.5a47.27 47.27 0 0 1 4 1.5 57.62 57.62 0 0 1 22.62 17.82l30.7-9.6c10.43-2.95 14.64 1.87 14.64 1.87a8.53 8.53 0 0 0-2.74-6 12 12 0 0 1 9.39 10.1c12.56-7.12 11.3-20.74 11.3-20.74 2.8 2.32 4 9.86 4 9.86l.2-14.8c5.7 3.63 4.65 10.27 4.65 10.27 9.67-11.37 3.88-22.47 3.48-23.2a37.74 37.74 0 0 1 4.51 14.6 176.32 176.32 0 0 0-2.33-55.36c-14.94 18.28-40.37 30.95-68.7 32.17zm-13.27 19a9.23 9.23 0 0 0 .49-2.09c.24.1.43.16.5.18l.84.27.75-.46.44-.3a9.5 9.5 0 0 0 1 1.9 9.67 9.67 0 0 0 1.56 1.84 6.09 6.09 0 0 1-2.73 5.1 6.11 6.11 0 0 1-3.88-4.3 9 9 0 0 0 1.01-2.13zM93.8 344v-.1a19.43 19.43 0 0 0 4.58-1.57 11.93 11.93 0 0 0 2.22 1.61 7.6 7.6 0 0 1-.44 2.33 6.35 6.35 0 0 1-5.15 4.46 6.36 6.36 0 0 1-1.21-6.72zm6 13.68a6.44 6.44 0 0 1-3.09-5.35 8.29 8.29 0 0 0 2.82-1.59 7.89 7.89 0 0 0 3.32 3.79 6.2 6.2 0 0 1-3.07 3.15zm6 3.55a6 6 0 0 1-3.36-3 8.34 8.34 0 0 0 2.19-3l.46.13.42-.24a8.57 8.57 0 0 0 2.84 2.36 6.05 6.05 0 0 1-2.54 3.75zm5-4.9a6.23 6.23 0 0 1-3.73-2.32 7.93 7.93 0 0 0 2.31-4.48 8.42 8.42 0 0 0 3.12.87 6.41 6.41 0 0 1-1.68 5.93zm2.92-7.9a6.35 6.35 0 0 1-6.09-3.08 7.47 7.47 0 0 1-1-2.16 12.08 12.08 0 0 0 1.77-2.09 19.91 19.91 0 0 0 4.82.42l.07.1a6.37 6.37 0 0 1 .45 6.82zm80.44-303.18a64.52 64.52 0 0 0-3.3-15.88c-.32-1.1-1.13-3-1.13-3A55.13 55.13 0 0 0 184.45 16c-27.6-36.4-23 5-23 5C161 53.65 148 71.28 148 71.28L143.7 76c-.05-.9-.1-1.8-.22-2.7v-.1A46.5 46.5 0 0 0 133 57.88c1.12 6.43 1.65 12.47-1.68 15.95-1.63-4.7-4.87-8.63-9.78-11.78.6 3 1.1 6-.93 8.87a63.09 63.09 0 0 0-13.51-4.37l-4-8.26s-.48-.9-1.16-2.46a45.07 45.07 0 0 1 1.25-38.48c4.48-8.85 8.35-22-12.7-15.7h-.1a53 53 0 0 0-18.78 11.4 27.83 27.83 0 0 1 8.41-3S71.14 19 65.2 20.48a15.49 15.49 0 0 0 6.73 0l-.3.5c-2.56 1.6-5.62 3.92-5.92 5.9a15.67 15.67 0 0 1 3.67-1.8c-5.46 11.28-7.18 26.24 3.6 44a19.68 19.68 0 0 0-6.6 6.9c-2.87 6.9-1.47 11.27 1.36 13.77q-3.9 3.6-7.54 7.53a21.18 21.18 0 0 0-6.09.82.57.57 0 0 0-.11 1l3.16 1.6c-.75.9-1.5 1.78-2.2 2.7a47.27 47.27 0 0 0-5.22 8.36 25.32 25.32 0 0 0-1.33 3.48l-27.17-2.17a2.18 2.18 0 0 0-2.3 1.67 62.28 62.28 0 0 0 1.55 34.16c-4.2 2-10.7 7.55-12.6 10.32a12.74 12.74 0 0 0-2 4.66 9.62 9.62 0 0 0 0 3.78v.06c-.6 1.1-1.12 2-1.6 3.08s-1 2-1.4 3.07a39.59 39.59 0 0 0-2.12 6.45 26.47 26.47 0 0 0-.69 7 16.33 16.33 0 0 0 2 7.13c.32.54.7 1.05 1 1.57a18.46 18.46 0 0 0 1.21 1.42l.22.23v3c0 .83.08 1.67.14 2.5a45.85 45.85 0 0 0 .65 5 30.07 30.07 0 0 0 3.67 9.8 21.77 21.77 0 0 0 7.75 7.68A24.44 24.44 0 0 0 27 228.79a39.08 39.08 0 0 0 10.34-.63c10.86-2 29.65-13.4 29.65-13.4-6 24.8-22.43 54.87-20.9 79.86 6.66-14.25 13-16.36 13-16.36a33 33 0 0 1-3 7.54c13.2 22.72 27 32.33 59.52 30.93 28-1.2 52.1-14.32 65.4-33.13-.9-3.23-1.55-5-1.55-5a48.59 48.59 0 0 0 10.4 16.52c-7.48-25.07-10.14-53.44-10.14-53.44a86.9 86.9 0 0 0 8.93 19.73L183.9 228l5.56 8.08c-6.74-21.5-12.2-41-14.24-55.4 5.1 11.28 5.83 13.24 11.25 19.36-4.1-12-6.8-49.1-6.8-49.1l.06-4.85c4.06 1.95 9-.47 9.55-6l.55-5.25a8 8 0 0 0-7.31-8.78l-3.6-.3c-1.22-13.4-3.67-22.56-6.38-28.83a88.87 88.87 0 0 0 6.15-6.67 23.8 23.8 0 0 1-2.3 7.48s6.05-2.6 6.55-13c0 0-.06 1.52 3 5.93-.5-4 1-9.9 5.42-22.3a54.83 54.83 0 0 1 .52 11.92s5.2-13.18 2.3-35.06zm-118.7-18.8a11.43 11.43 0 0 0 .26 5.69 67.79 67.79 0 0 1 3.32-12s-5.27 22.53 2.34 46a44.84 44.84 0 0 0-3.91 1.1c-3.3-8.87-8.98-28.1-2-40.8zm-21.6 87.25a44.1 44.1 0 0 1 4.59-7.64 79.72 79.72 0 0 1 2.57-3.32l7.85 4a.58.58 0 0 0 .64-.09l4.82-4.4a.56.56 0 0 0-.08-.9 30.33 30.33 0 0 0-8.93-3.53c1.5-1.6 3-3.2 4.6-4.72a14.33 14.33 0 0 0 6 .3l2.3-.35-1.73-1.28a9.55 9.55 0 0 1-2.68-3.22 4.92 4.92 0 0 1-.29-1 7.57 7.57 0 0 0 .49.76 12.82 12.82 0 0 0 2.7 2.75 20.63 20.63 0 0 0 3.18 2 25.27 25.27 0 0 0 3.44 1.48l3 1-2-2.5a5.43 5.43 0 0 1-1-1.8 2.29 2.29 0 0 1 .13-1.73 3.93 3.93 0 0 1 1.34-1.46 7 7 0 0 1 .79-.49 19.94 19.94 0 0 0 .62 3.42c.2.75.46 1.48.73 2.2a28.46 28.46 0 0 0 .9 2.17l.85 1.85.85-1.92a5.53 5.53 0 0 1 .74-1.31 6.2 6.2 0 0 1 1.1-1.07 7.31 7.31 0 0 1 .65-.43 4.16 4.16 0 0 0 0 2.16 5.19 5.19 0 0 0 1.26 2.12 7.28 7.28 0 0 0 1.88 1.39l1.78.94-.48-2a4.17 4.17 0 0 1 .36-3.49 4.32 4.32 0 0 1 3.31-1.24 71.61 71.61 0 0 1 8.81.18 38.84 38.84 0 0 1 16.45 5.3 36.2 36.2 0 0 1 12.13 12.23c1.44 2.53 2.88 5.2 4.48 7.74 1.1 1.72 2.1 3.47 3 5.27l-92-7.43a19.18 19.18 0 0 1 .84-1.97zm49.28 26.24a28.91 28.91 0 0 0-3.35-2.9 38.72 38.72 0 0 0-3.74-2.51 54 54 0 0 0-8.41-3.93.44.44 0 0 1-.26-.56.43.43 0 0 1 .3-.26 18.92 18.92 0 0 1 10.32.62 23.48 23.48 0 0 1 9 5.52 23 23 0 0 1 5.68 9 20.22 20.22 0 0 1 .83 10.27v.07a.43.43 0 0 1-.81.08 71.73 71.73 0 0 0-4.12-8.38 35.5 35.5 0 0 0-2.55-3.69 26.51 26.51 0 0 0-2.89-3.33zm.85 16a.43.43 0 0 1-.49.37.46.46 0 0 1-.33-.24c-.46-1-.73-2-1.2-2.9a27.62 27.62 0 0 0-1.39-2.71c-.27-.43-.5-.88-.78-1.3l-.9-1.16a11.38 11.38 0 0 0-.94-1.14l-.5-.56c-.17-.18-.36-.34-.54-.5a21.35 21.35 0 0 0-4.77-3.58l-1.34-.72c-.46-.2-.92-.44-1.4-.64a27.36 27.36 0 0 0-2.9-1.09.43.43 0 0 1-.27-.54.42.42 0 0 1 .31-.28 12.73 12.73 0 0 1 6.89.51 15.51 15.51 0 0 1 6 3.7 15.1 15.1 0 0 1 3.79 6 14.85 14.85 0 0 1 .77 3.39 15.79 15.79 0 0 1-.03 3.39zM8.7 194.17l-.5-.5c-.32-.34-.6-.7-.9-1s-.55-.73-.78-1.1a13.9 13.9 0 0 1-2.14-4.9 18.22 18.22 0 0 1-.19-5.67 29.37 29.37 0 0 1 4.54-12.55c4.22-1.48 9.6 2.12 11.2 16.38-1 1.85-1.76 3.73-2.8 5.44a14.13 14.13 0 0 1-3.7 4.38 3.76 3.76 0 0 1-1.92.77 3.08 3.08 0 0 1-1.67-.35 3.46 3.46 0 0 1-.77-.52 4.79 4.79 0 0 0-.37-.38zm143.62-34.4a75.66 75.66 0 0 1-3.7 17.23 74.16 74.16 0 0 1-7.47 15.88l-.33.53.33.5a16.24 16.24 0 0 1 2.35 5.46 16.8 16.8 0 0 1 .2 6 22.15 22.15 0 0 1-1.65 5.83 28.11 28.11 0 0 1-1.54 3.05 11.64 11.64 0 0 0-1.36-3.65 19.36 19.36 0 0 0-4.18-5 34 34 0 0 0-5.21-3.74 41.26 41.26 0 0 0-5.72-2.86l-2.63-1.07 1.52 2.43a11.45 11.45 0 0 1 1.08 2.46 21.1 21.1 0 0 1 .57 2.28 14.27 14.27 0 0 0-2.28-2 14.88 14.88 0 0 0-2.8-1.55l-2.12-.9.94 2.14a17.53 17.53 0 0 1 1.13 7.16 36.34 36.34 0 0 1-.26 3.75c0 .43-.12.87-.18 1.3-.24-.3-.48-.58-.73-.86a15.36 15.36 0 0 0-1.34-1.23l-.7-.57-.73-.5a30.49 30.49 0 0 0-6.27-3.28c-1.1-.43-2.2-.8-3.3-1.16a36.54 36.54 0 0 0-3.37-.92c-1.13-.25-2.26-.54-3.4-.74l-3.43-.6a47.81 47.81 0 0 0-5.34-.54 53.26 53.26 0 0 0-5.36.09 64.7 64.7 0 0 0-10.55 1.65c-3.45.74-24.45 12.14-30.1 14.25S32.7 224.15 27 223.73a19.7 19.7 0 0 1-7.89-2.2 15.75 15.75 0 0 1-5.8-5.53 26.26 26.26 0 0 1-3.31-7.93 40 40 0 0 1-.8-4.42c-.1-.74.3-2.48.26-3.24a7.45 7.45 0 0 0 3.08-.15 8.51 8.51 0 0 0 2.14-1 9.8 9.8 0 0 0 1.63-1.4 14.85 14.85 0 0 0 2.79-4.79 25.36 25.36 0 0 0 .4 2.85 20 20 0 0 0 2.16 5.68 17.06 17.06 0 0 0 4.3 4.72 17.31 17.31 0 0 0 5.86 2.68c.52.13 1.06.23 1.6.34s1 .1 1.56.14c1 0 2 .06 2.94 0a40.64 40.64 0 0 0 11.31-2 49.06 49.06 0 0 0 10.27-4.45c10.26-6.28 14.38-11.22 19.53-16.3-6.2 3.7-8.18 5.13-12.14 7.35a94.64 94.64 0 0 1-9.49 4.66 63.49 63.49 0 0 1-9.72 3.49 38.25 38.25 0 0 1-9.86 1.45c-.82 0-1.64 0-2.44-.1-.37-.05-.77-.07-1.12-.13l-1-.2a12.12 12.12 0 0 1-4-1.66 11.46 11.46 0 0 1-3.2-2.91 16.74 16.74 0 0 1-2.38-4 38.78 38.78 0 0 1-2.68-9.6c12-21.47 22.4-.52 27.37-11.65 2.8-9.84-22.38-18.4-34.82-14.57 6.45-9.4 22.3-10.4 29.76-18.88.7-.8 1.33-1.66 2-2.5 10.34-3.18 23 1.4 27.07 12.9l1.35 3.8a18.85 18.85 0 0 0 15.77 12.43l17.5 1.84a18.85 18.85 0 0 0 20.72-16.78l1.46-13.92a6.14 6.14 0 0 1 6.75-5.46l13.6 1.42a63.75 63.75 0 0 1 2.09 8.49 66.06 66.06 0 0 1 .69 17.54zm19-71.6c3.46-7.42.9-11.8.9-11.8-2.3 10.06-6.6 11.46-6.6 11.46 2.4-2.72 2.68-7.26 2.68-7.26-3.42 5.2-6.14 5.45-6.14 5.45 18.22-26.54 13.52-63.63 13.52-63.63 2.28 11.92 6.8 15.57 6.8 15.57-2.23-5.2-1.2-7-1.2-7 11.3 34.45-10 57.2-10 57.2z"/></svg>