<svg xmlns="http://www.w3.org/2000/svg" viewBox="0 0 297.29 109.04"><path d="M26.53 18.5a10.14 10.14 0 0 1 .47 2.85l.75 8.77.5 5.06a91.33 91.33 0 0 1-.06 9.36 18 18 0 0 0 0 2.32A1.93 1.93 0 0 0 30 48.7a13.91 13.91 0 0 0 2.58-.06 1.93 1.93 0 0 0 1.94-1.83 4.41 4.41 0 0 0 .16-1.23l.06-4.3-.16-8.18v-9.9l-.22-8a89 89 0 0 0-1-11.19 5.79 5.79 0 0 0-.16-.91 2 2 0 0 0-2.31-1.69 17.25 17.25 0 0 0-1.73.27 26.47 26.47 0 0 1-3.6.32l-1.83.22A2 2 0 0 0 22 3.61a5.92 5.92 0 0 0-.43 1.29l-1.5 6.72-1.06 5.7c-.26 1.5-.6 3-1 4.4a19.54 19.54 0 0 1-.7 2.47c-.1.33-.22.65-.65.65a1.25 1.25 0 0 1-.45-.86l-.2-1.5-.27-3.55L15.3 15l-1.5-8.77-.38-1.88a2.25 2.25 0 0 0-2.26-1.72h-2.7a19.87 19.87 0 0 1-3.18.05c-1.13-.1-2.26-.1-3.33-.1A1.72 1.72 0 0 0 .27 3.93a5.82 5.82 0 0 0-.22 1.94V27l.1 5.16.1 3.82v10.08a2.37 2.37 0 0 0 2.47 2.58.65.65 0 0 0 .33.06h2a2.15 2.15 0 0 0 2.37-2.1 2.85 2.85 0 0 0 0-.65 12.54 12.54 0 0 0 .06-1.5v-12.8l.16-7.32a26.15 26.15 0 0 1 0-2.8c0-.48 0-1.4.43-1.45.22 0 .27.27.33.43a13.4 13.4 0 0 1 .67 1.5l1.08 5.38 1.24 6.9.7 4.3.86 6.2.37 1.78a2.2 2.2 0 0 0 2.1 1.72l1.5.1c1.83.06 2.64-.48 3.07-2.3a17.87 17.87 0 0 0 .37-1.88l2.1-10.55.76-4.3L24.4 23l.86-4c.16-.57.7-1.86 1.24-.46zm15 15.35l.16 11.3.06 2.15.1.54a1.61 1.61 0 0 0 1.72 1.45 16.26 16.26 0 0 0 3.93-.48 2 2 0 0 0 1.61-2.05l-.05-1.6-.33-4.58-.26-8.28c-.06-1 0-2.1 0-3.13a1.4 1.4 0 0 1 .43-1.16.61.61 0 0 1 .86-.1 3.59 3.59 0 0 1 .59.64l.32.92 2.2 8.5 2.3 9.52a5.69 5.69 0 0 0 .43 1.19 1.78 1.78 0 0 0 1.67 1 3.67 3.67 0 0 0 .75-.11c1.13-.27 2.32-.37 3.5-.54l.7-.16a1.2 1.2 0 0 0 .86-1.23 3.34 3.34 0 0 0-.32-1.46l-2.37-7a28.1 28.1 0 0 1-1.4-5A47.15 47.15 0 0 0 57.85 29L57 26.37a2 2 0 0 1 .49-2.1l1.07-1.13A12.17 12.17 0 0 0 62 16a27.65 27.65 0 0 0 0-6 10.09 10.09 0 0 0-.32-1.78 11.83 11.83 0 0 0-2.32-4.3A9.5 9.5 0 0 0 52.63.16 41.18 41.18 0 0 0 48.22 0 16.09 16.09 0 0 0 45 .38a7 7 0 0 0-1.47.32 2 2 0 0 0-1.45 1.88 2.85 2.85 0 0 0 0 .65l-.16 4.4-.1 3.44a79.53 79.53 0 0 0-.22 10.12v.86l-.05 3.66.1 3.93v2.47a15.73 15.73 0 0 0 .11 1.73zm7.27-20.4l.1-2.7.08-1.5a1.9 1.9 0 0 1 1.73-1.66 3.29 3.29 0 0 1 4.08 2.1 8.53 8.53 0 0 1-1.23 9.09 5.27 5.27 0 0 1-3.34 1.78 1.37 1.37 0 0 1-1.77-1.46 5.23 5.23 0 0 1 0-1zM77.17 42.9c-.22-1.67-.92-2.1-2.16-2.32a8.41 8.41 0 0 0-3.82.38 2.66 2.66 0 0 0-1.93 2.64l-.16 2.26a15.53 15.53 0 0 0 .1 1.56 1.91 1.91 0 0 0 1.8 1.72 2.08 2.08 0 0 0 .54.11 23.58 23.58 0 0 0 3.71-.43 2.41 2.41 0 0 0 1.94-2.43v-1.6l-.02-1.88zM23.3 81.5l-.1-8.83-.05-7.2-.22-3a2 2 0 0 0-1.77-1.88c-1.67-.1-3.34 0-4.95 0h-.1a1.6 1.6 0 0 0-1.4 1.42 4.12 4.12 0 0 0-.11 1.18l.22 3.72.1 3.44c-.06 1.56-.6 2.2-2.16 2.2H10a3.22 3.22 0 0 1-1-.16 1.15 1.15 0 0 1-1-1 3 3 0 0 1-.11-1.19v-2.47Q8 65 8 62.3a5.66 5.66 0 0 0-.16-1.35 1.49 1.49 0 0 0-1.13-1.29 3 3 0 0 0-1.18-.1 14.16 14.16 0 0 0-3.28 1A2.77 2.77 0 0 0 .48 63v11.05l-.37 8.3-.06 4.3v2.15l.05 2.26v3l.22 10.76v1a2 2 0 0 0 1.83 2.05 11.78 11.78 0 0 0 3.6-.17 1.71 1.71 0 0 0 1.46-1.5 6.31 6.31 0 0 0 0-1v-4.84l.1-6.78V83.16c0-.5.06-1 .1-1.5a1.4 1.4 0 0 1 1.35-1.29 24.54 24.54 0 0 1 4.84-.22 1.72 1.72 0 0 1 1.61 1.46 2.39 2.39 0 0 1 .17.86l.26 4.73.22 4.58.22 7.53v5.5a13.36 13.36 0 0 0 .21 1.51 1.78 1.78 0 0 0 1.13 1.18 3.67 3.67 0 0 0 1.08.16 24.14 24.14 0 0 0 2.69 0 5.37 5.37 0 0 0 .75-.16 1.49 1.49 0 0 0 1.24-1.18 10.51 10.51 0 0 0 .21-1.35v-2.58l.16-9.15v-1.07zm6.7 5.17l.06 3.33.37 6a31.89 31.89 0 0 0 .49 3.88c.7 4 3.28 6.5 6.9 8.12a3.47 3.47 0 0 0 .86.27 12.78 12.78 0 0 0 5.54 0 9.2 9.2 0 0 0 6.16-5.27 12 12 0 0 0 1.13-4 75.11 75.11 0 0 0 .27-3.34c.06-1.13 0-2.42 0-3.6 0-1.73-.2-3.4-.27-5.06 0-3.18-.2-6.4-.43-9.58-.16-2.7-.43-5.43-.7-8.13A14.38 14.38 0 0 0 49.29 65a7.89 7.89 0 0 0-5.81-4.89 16.71 16.71 0 0 0-4-.33 7.37 7.37 0 0 0-2.63.43 8.36 8.36 0 0 0-5 4.52 14.23 14.23 0 0 0-1.46 6.3v1.83l-.16 2.37c0 1.18 0 2.3-.06 3.44-.26 2.2-.1 4.36-.16 6.57zm13.3 2.2c.06 2 .06 4 .06 6a3.86 3.86 0 0 1-.38 1.77 5.83 5.83 0 0 1-.64 1.24 4.66 4.66 0 0 1-.92.76 1.6 1.6 0 0 1-1.61-.06 2.83 2.83 0 0 1-1-.91 6.21 6.21 0 0 1-1-3.39l-.1-3a60.74 60.74 0 0 0-.27-3c0-.53-.1-1.07-.1-1.6 0-1.83 0-3.66-.1-5.5-.1-2.74.06-5.5.1-8.3a21.2 21.2 0 0 1 .22-2.63 3.75 3.75 0 0 1 .41-1.26 1.91 1.91 0 0 1 1.4-1.07 2.1 2.1 0 0 1 1.66.53 2.8 2.8 0 0 1 .87 1.35 9.59 9.59 0 0 1 .53 2 82.14 82.14 0 0 1 .5 5zM58.33 77c.1 5-.2 10 .22 15l.48 5.87c.2 1.94.38 3.93.43 5.92 0 1.13.06 2.26.16 3.44A1.84 1.84 0 0 0 61.4 109a1.89 1.89 0 0 0 .75 0l2.8-.38a2 2 0 0 0 1.94-2.21.64.64 0 0 0 0-.43c0-1.56-.06-3.17-.1-4.73l-.27-7c0-.54-.05-1.13 0-1.72A1.57 1.57 0 0 1 68 90.7l1.83-.27A12.1 12.1 0 0 0 75.12 88a6.93 6.93 0 0 0 2.42-3.39l.65-2.15a8.81 8.81 0 0 0 .43-3.07c-.1-1.56-.27-3.17-.27-4.73a36.65 36.65 0 0 0-.7-6.41 8.11 8.11 0 0 0-7.05-6.78c-1.6-.16-3.17-.43-4.8-.7a23.43 23.43 0 0 0-5.43-.11 1.87 1.87 0 0 0-1.83 1.67 6.76 6.76 0 0 0-.11 1.51l.05 4.74a67.32 67.32 0 0 1-.16 8.17zm6.94-6.62a2 2 0 0 1 2.16-2 3 3 0 0 1 3.06 1.88 9.72 9.72 0 0 1 .76 3c.1 1 .27 1.88.32 2.85a20.35 20.35 0 0 1 .11 3.12 4.26 4.26 0 0 1-3.88 3.82 1.6 1.6 0 0 1-1.93-1.56c-.1-.7-.17-1.4-.22-2.1l-.32-5.4c0-.7-.06-1.4-.1-2.15a14.25 14.25 0 0 1 .05-1.44zm38.86-1.26a14.08 14.08 0 0 0-.81-4.19 7.39 7.39 0 0 0-3.23-3.88 9.49 9.49 0 0 0-4.52-1.29 15.79 15.79 0 0 0-5.43 1 5.56 5.56 0 0 0-3 2.48 12.52 12.52 0 0 0-1.73 4.52l-.64 4.46-.38 2.75a13.47 13.47 0 0 0 .76 5.27 6.92 6.92 0 0 0 1.13 2.42l1.77 2.42 5.44 7.65a12 12 0 0 1 1.29 2.58 6.45 6.45 0 0 1 .32 2.2 4 4 0 0 1-1.4 2.86 1.51 1.51 0 0 1-2-.16 4.89 4.89 0 0 1-.86-1.46A17.89 17.89 0 0 1 89.71 94a4.43 4.43 0 0 0-.17-1.18 1.28 1.28 0 0 0-1.29-1 7.54 7.54 0 0 0-3.23.54 1.79 1.79 0 0 0-1.29 1.56 4 4 0 0 0-.11 1.4l.6 4a11.62 11.62 0 0 0 3.71 6.68 10.29 10.29 0 0 0 7.26 2.64 7.13 7.13 0 0 0 4.58-1.64 12.52 12.52 0 0 0 3.55-5.27 14.47 14.47 0 0 0 .54-6.78 22.31 22.31 0 0 0-1.19-4.68 12 12 0 0 0-1.23-2.64l-1.83-2.8-1.35-2a10.92 10.92 0 0 0-1.67-1.94l-2.26-2.3a9.26 9.26 0 0 1-1.77-8.13 4.14 4.14 0 0 1 1-1.88 1.61 1.61 0 0 1 2.74.11 2 2 0 0 1 .38.75 13 13 0 0 1 .43 1.29 15.66 15.66 0 0 1 .27 3.12 5.62 5.62 0 0 0 .1 1.29 1.47 1.47 0 0 0 1.67 1.29 7.42 7.42 0 0 0 3.55-.86 2.49 2.49 0 0 0 1.3-1.81 10.6 10.6 0 0 0 .27-2.9z" fill="#fff"/><path d="M275.7 50.6h-.06zm-20.83-16.9l.14-.66 1.3-.13c10.15 3.18 3.42 13.6 2 15.38a21.64 21.64 0 0 0-3.45-14.59zm3.25 14.85zm-14 19.33a29.05 29.05 0 0 1-2.69-10.93c.18-3.27.77-7.34 1.18-9.94a4.93 4.93 0 0 1 2.53-3.54 1.54 1.54 0 0 0 .23-.14c.88-.56 1.74-1.12 2.48-1.7a2.73 2.73 0 0 1 4.36 1.54 22.78 22.78 0 0 1 0 8.69c-1.06 6.6-5.8 13.44-8.1 16.02zm15.17-20.07c6.3-5.7 4.36-13.4-.2-15.47 1.15.12 2.28.22 3.38.3 2.53 1.43 3.87 2.3 4.6 4.62 2.36 7.4-7.8 10.55-7.8 10.55zm7.4-20.55c6.7 2.95 15.67-.9 22.62-6.14s1.32 2.64-3.77 5.85c-4.3 2.7-16.34 4.47-23.28 2.7s-8.63-4.33-8.63-4.33a8 8 0 0 0-1.19-1.85c1.58-.58 5.25-.2 14.25 3.77zM258 15.88c4.23-1.28 2.9-5.6-.14-4.8-9.8 2.67-10.6-.84-10.6-.84s5.12 2.8 11.18-1.58c5.2-3.74 8.43 3.38 5.64 7.46a17.64 17.64 0 0 1-8.6 6.2 11.91 11.91 0 0 0-3.31-.61c-2.07-1.67-6.06-2.23 5.84-5.84zM210 7s9.33-1.43 13.72-.72a26.47 26.47 0 0 1 11.86 4.59 12.94 12.94 0 0 1 5.2 5.75c.47 1.3-1.33 2.3-3.52 2.74-1.36.27-4.65.93-14.2-2.2a37.63 37.63 0 0 1-10.16-5.91A10.77 10.77 0 0 1 210 7zm-20.1 15.4s4-5.42 13-8.2l8.42-2.64.75 1.14c3.53 5.1 18.93 9.36 18.93 9.36-3.25 2.9-5.2 7.55-6.35 11.86-1.07.74-3 1.38-6.58 1.3a30.41 30.41 0 0 1-13.33-3.14c2.75-8.18 9.9-13.3 11.8-15a49.44 49.44 0 0 0-8.55 6.06 23 23 0 0 0-2.3 3.08c-2.12.1-10 .18-15.85-3.86zm19.7 15.3a20.63 20.63 0 0 0-2.53 3.55 30.06 30.06 0 0 0-3.85 9.17c-3.13 1.95-11.37 1.46-11.37 1.46.27-5.1 3.6-10.2 5.27-12.42a28.51 28.51 0 0 0 7.54-4.23 19 19 0 0 0 4.94 2.47zM180.16 39a14.82 14.82 0 0 1 1.53-3.17c1-1.6 5.92-7.54 9.1-9.16a5.47 5.47 0 0 1 3-.66 32.24 32.24 0 0 0 10.48 2.53C203 30.6 202 32.4 202 32.4a11.41 11.41 0 0 0 .65.9 22.85 22.85 0 0 1-5.35 3.62c-5.1 2.34-11.98 3.66-17.14 2.07zm-4.07 12.85a18 18 0 0 1 4.64-7.12 27.51 27.51 0 0 1 3.78-3 25.05 25.05 0 0 0 4.88-.17 33 33 0 0 0 5.44-1.25c-1.3 2.14-3.9 6.84-4.5 11.06-5.58 2.48-14.25.46-14.25.46zm-5.3 11c1.1-3.78 5.1-7 6.18-7.8 3.17.85 7.72.64 11.2.33a2.09 2.09 0 0 1 1.56 3.63c-7.54 6.42-18.94 3.78-18.94 3.78zm2.34 14.9a25.79 25.79 0 0 1 1.76-6.81 7.67 7.67 0 0 1 6.84-4.72 47.04 47.04 0 0 0 4.05-.33 2.11 2.11 0 0 1 2.44 2 1.41 1.41 0 0 1 0 .29c-1.03 9.02-12.4 10.9-15.1 9.5zm17-11.54s-.7-3.6 2.62-8.38a29.32 29.32 0 0 1 2.12-2.82 36.68 36.68 0 0 0 7.76-.33 36.15 36.15 0 0 0 0 4 12.63 12.63 0 0 0 1.59 1 27.71 27.71 0 0 0-3.94 5.93 15.4 15.4 0 0 1-10.15.53zm-1 13.8s-1.24-2.93.78-8.27a18.31 18.31 0 0 1 1-2.13 21.29 21.29 0 0 0 8 .24 9.56 9.56 0 0 0-.1 3.11 13.2 13.2 0 0 0 .93.43c-2.62 3.05-4.96 5.9-10.58 6.55zm22-3.77c-2.05 2.3-6.3 5-10.44 4.54a10.76 10.76 0 0 1 1.57-6.45 18.47 18.47 0 0 0 8.39.91.58.58 0 0 1 .47.93zm6.3-11.06s-.2.32-.55.9c-1 1.08-3.4 3.73-5.32 4.6-3.76 1.7-8.5 1.5-11.16.94a12.08 12.08 0 0 1 3.39-9.18c.8-.8 1.46-1.4 2-1.87 4.16 1.67 9.1 1.62 12 1.4a12.1 12.1 0 0 0-.33 3.29zm-12.95-9.45c-1.9-9.15 5-15.75 7-17.38a51.54 51.54 0 0 0 12 1.62c-.4 2.75-.48 4.7-.48 4.7 2.1-8.92 3.72-14.7 7.12-18.75 4.05-4.84 9-7 12.5-6.42 2.57.45 10.06 7.6 4.76 15.06C241 43.44 223 44.6 223 44.6s.37.1 1.1.23a1.1 1.1 0 0 1 .66 1.76 29.3 29.3 0 0 0-5 9.93c-8.07 3.32-15.3-.87-15.3-.87zm10.23 25.12a55.25 55.25 0 0 1 2.7-9.27c.8-2.1 3.6-3 3.62-3 5.4-.01 3.33 11.84-6.32 12.27zm14-18.7a22.1 22.1 0 0 1-6.79-.5 55.79 55.79 0 0 1 3.27-13.84 3.67 3.67 0 0 1 3.77-2.25 49.25 49.25 0 0 0 4.92.3c3.63 0 5.65 2.88 5.3 6.75-.45 4.7-5.7 9.2-10.52 9.54zm-.6 14.14a53.64 53.64 0 0 1 1.7-8.8 20.19 20.19 0 0 0 6.82-1.64 1.7 1.7 0 0 1 2.41 1.3v.07a22.79 22.79 0 0 1-2.88 4.11 20.91 20.91 0 0 1-8.05 4.96zm44-24.94c-.14-1.08 1-1.68 2-1.48 5.06 1 13 8.74 12.56 10.17-3.83 2.72-10.75 2.16-12.53 2 2.3-1.24 4.1-2.35 4.1-2.35.24-1.35-1.58-4.34-5.8-7.63a1 1 0 0 1-.28-.71zm8.2 30.43c2.4 2.65 8.63 3.65 8.63 3.65a8 8 0 0 1-.86 6.59c-3.6-.06-6.84-3.66-7.8-4.8a26.64 26.64 0 0 0 .06-5.43zm-2.5 8.1c-4.4-.3-8.8-3.82-10.53-6.85a16.62 16.62 0 0 0 1-2.58 22.55 22.55 0 0 0 10.67.11c.1.12.25.25.4.4 1.3 6.44-1.5 8.92-1.5 8.92zm-8.74-14.48a33 33 0 0 0-1.56-10.4l.17-.06c.7.06 2.75.23 4.95.3a30.15 30.15 0 0 0 6.59-.48c4.18 4 4.78 10.45 4.78 10.45a14.71 14.71 0 0 1-14.93.19zm-13.72-12.2c1.94-9.07 17.37-14.8 22.73-3.68-6.54 2.86-19.8 4.08-22.82 4zM250 97.38c-4.34-4.22-6.78-8.2-6-11.8l2.05-5.58s1.06 1.6 2.45 7.13 3.9 5.46 3.9 5.46zM252 81c2.55 2.12 7.64 3.77 7.64 3.77s-.3 4-1.4 5.7c-3.8-.7-6.36-4.37-8-8.16A1.14 1.14 0 0 1 252 81zm11.82 20.9a10.48 10.48 0 0 1-7.54-6.42c-.32-.7.22-1.4.87-1s1.36.8 2.1 1.18a7.08 7.08 0 0 0 1.13-1.83.49.49 0 0 1 .86-.07c.36.55.74 1.1 1.13 1.58s.7.82 1 1.2a16.58 16.58 0 0 1 .44 5.33zm-11.9-29.8a4.47 4.47 0 0 1 1.25-5 32.53 32.53 0 0 0 9.8-.78c5.5 5.1 1.52 15.34 1.52 15.34-7.17.17-10.8-5.16-12.58-9.6zm21.24 31.8s-2.8.13-6.26-4c2.65.64 3.05.8 3.05.8a9.05 9.05 0 0 0 1.8-4.23c.67 1.2 2.65 5.1 1.4 7.4zm-1.34-13.47c.34 5.65-1.67 6.6-1.67 6.6-3.06-.7-4.4-3-6.17-6a9 9 0 0 1-1-3.3s.16-2.32 1.64-2.54c1.86-.28 3.22 2.06 4.24 3a21.17 21.17 0 0 0 3 2.27zm10.95 15.94a14.15 14.15 0 0 1-7.26-4.77 1 1 0 0 1 1.22-1.53c.06 0 4.64 2 5.26 2.08 2 2.97.77 4.18.77 4.18zm-.95-5.95a14.39 14.39 0 0 1-5.39-2.78 2.91 2.91 0 0 1 1.9-5.2c.26-.9.7-.87.95-1.4a11.31 11.31 0 0 0 6.21 2.28 7.76 7.76 0 0 1-3.68 7.07zm11.45 3.17a5.93 5.93 0 0 1-2.06 0 6.18 6.18 0 0 1-4.77-8 2 2 0 0 1 2.85-1.19 11.1 11.1 0 0 0 3.48 1.05c1.93 3.45.5 8.1.5 8.1zm4-10.55a3.18 3.18 0 0 1-1.24.34 5.61 5.61 0 0 1-6-5.88 8.06 8.06 0 0 0-.11-2 19.18 19.18 0 0 0 2.72 0c3.6 2.1 4.64 7.48 4.64 7.48zm-2.58-10.73s-7.43.83-11.72-2.85a27 27 0 0 0 3.07-1.21 7.93 7.93 0 0 0 0-1.44 21.14 21.14 0 0 0 5.24-.1 17.9 17.9 0 0 1 3.41 5.6zm-10-10.78a76.78 76.78 0 0 0-3-7.35 26 26 0 0 0 3.88-1.41c4.8 1.28 9.4 11.57 9.4 11.57-4.35 1.02-8.45-1.55-10.3-2.8z" fill="#baf726"/></svg>