<svg xmlns="http://www.w3.org/2000/svg" viewBox="0 0 578 580.69"><defs><clipPath id="A"><circle cx="289" cy="289" r="289" fill="none"/></clipPath></defs><circle cx="289" cy="289" r="289" fill="#e51381"/><g clip-path="url(#A)" fill="#fff"><path d="M175.76 430.78c13.86 11.13 27.45 22.58 40.5 34.64 5.25 4.84 10.3 9.9 15.5 14.78 11.74 11.06 25.58 15.72 41.55 13 9.15-1.54 18.2-3.73 27.3-5.55q17.6-3.5 35.4-5.72a83.85 83.85 0 0 0 11.4-2 46.53 46.53 0 0 0 26.95-19.33c9.75-14.32 19.76-28.45 31-41.65a6.67 6.67 0 0 0 .58-1 11.88 11.88 0 0 1-.94-.75 114.9 114.9 0 0 0-26.12-18.12c-11-5.67-22.63-9.73-34.36-13.56a4.37 4.37 0 0 0-2.8.18 284.4 284.4 0 0 1-32.95 7.74c-12.2 2-24.47 3.23-36.85 2a58.22 58.22 0 0 1-16.66-3.81c-1.5-.62-3-1.73-4.48-1.74s-3.2 1-4.8 1.63c-12.63 4.82-24.57 10.9-35.25 19.3a113.09 113.09 0 0 0-22.06 23.5c-.58.8-1.2 1.6-2 2.6-1.77-17.57 2.8-32.87 14.34-46.2h-.8a11.79 11.79 0 0 0-1.42 1.08c-3.35 3.27-6.95 6.33-9.94 9.9-3.65 4.38-6.77 9.2-10.13 13.84-.43.6-.88 1.2-1.32 1.78a128.78 128.78 0 0 1 3.31-12.58c5.06-16.27 14.36-29.4 28.87-38.62.34-.22.65-.5 1-.74a33.82 33.82 0 0 0-9.48 3.11l-9.63 4.66a12.15 12.15 0 0 1-1.48.46 3.62 3.62 0 0 1 .35-.63l7.7-7.42c18.3-17.4 40.1-25.15 65.26-23.72.8.05 1.58 0 2.26 0l2.5-10.6c1.5-5.8 5.78-7.87 11.73-5.52l-3.36.93a4.81 4.81 0 0 0-3.75 4.23c-.43 3.62-.7 7.25-1 10.88a3.6 3.6 0 0 0 1 3.07q4.1 3.93 8.3 7.75c7.6 5.7 19.8 8.44 20.88 7.14-4.6-.88-7.48-3.6-10.25-6.6-1.76-1.9-3.8-3.53-5.73-5.28l-1.3-1.16.14-.3c1.26.37 2.55.67 3.8 1.12a28.36 28.36 0 0 1 7.69 4.43 13.12 13.12 0 0 0 7.34 2.93 12.8 12.8 0 0 0 10.12-3.79 20.51 20.51 0 0 1 8.4-5.29c1.1-.32 2.27-.48 3.4-.7l.2.46c-4 2.23-6.87 5.63-9.6 9.18a13.55 13.55 0 0 1-7 4.6l-2 .64c7.78.7 20.5-6.6 20.6-6.66 4.05-2.18 6.8-5.73 9.6-9.18a5 5 0 0 0 1-4.4l-2.1-9.8a5.39 5.39 0 0 0-5-4.6l-2.68-.3a7.52 7.52 0 0 1 4.95-1.24 7.29 7.29 0 0 1 6.16 5.14c1.46 4.26 3 8.5 3.55 13 27.15-1.9 50.45 6.38 70 25.43q-3.13-16.93-6.28-33.87a89.71 89.71 0 0 0-11 18.49 4.74 4.74 0 0 1 .13-1.89c1.3-3.87 2.44-7.8 4-11.55 3.8-8.9 8.77-17.2 13.94-25.37a13 13 0 0 0 1.8-3.79c.8-3.33-.4-6.06-2.85-8.42l-15.6-15.3a13.71 13.71 0 0 0-1.2-1c-2.9 1.94-5.88 3.13-9.67 1.8 2.83-3.14 6.12-3.4 9.68-3l1-2 4.9-10c4.18-8 3.7-15.84-.78-23.58a2.76 2.76 0 0 0-2.06-1.43 128.2 128.2 0 0 0-19.12-2.4 124.75 124.75 0 0 0-27.57 1.32 79.91 79.91 0 0 0-20.39 6.22c-.7.32-1.44.56-2.48 1a12.78 12.78 0 0 1 .51-1.23l9-17.4a3.32 3.32 0 0 1 2.41-1.71 171.1 171.1 0 0 1 28.62-5.57 43.05 43.05 0 0 1 11.78.25 7.15 7.15 0 0 1 4.67 2.68c3.6 4.55 7.35 9 11.05 13.44.44.53.92 1 1.47 1.64 0-.34.13-.5.08-.6q-5.3-10.2-10.6-20.37a1.76 1.76 0 0 0-1.83-1h-5.13c-19.92.3-39.84.9-59.7 2.82l-27.72 2.87c-13.87 1.65-27.65 3.9-41.36 6.63-2.8.55-5.6 1.2-8.4 1.8a35.3 35.3 0 0 0 6.45.92 4 4 0 0 1 3.16 1.72l11.15 14.77c.36.47.65 1 1.15 1.72-1.22-.3-2.15-.47-3.07-.73-11.08-3-22.34-3.15-33.64-1.82a134.31 134.31 0 0 0-32.6 8 12.07 12.07 0 0 1-1.69.39l2.7-4.73c.84-1.48 1.83-3.06 2.66-4.64s1.92-2.73 2.3-4.66c-.8.2-1.37.3-1.92.48-3 1-6.06 2-9.14 2.87a3.34 3.34 0 0 0-2.7 3c-4 19.66-8.9 39.1-14.15 58.46-1.13 4.2-.18 7.2 3 10.1 5.68 5.12 11.17 10.48 16.57 15.9a65.78 65.78 0 0 1 9.38 11.88c.4.66.76 1.35 1.1 2l-5.74-5.3-5.83-5.2-6.16-5.15a67.87 67.87 0 0 0-6.19-4.77l-.6 2.45q-2.8 12.63-5.57 25.25l-4.88 22.65c-1.56 7.94-2.85 15.94-4.24 23.9a24.85 24.85 0 0 0 .19 9.53 25.72 25.72 0 0 0 9.59 15.02zm108-14.17c6.46.24 12.9.63 19.37.66a40.76 40.76 0 0 0 15.06-2.63c3.17-1.23 6.17-2.9 9.22-4.4a21 21 0 0 1 2.42-1.23c-1.56 4.52-4.75 7.75-8.47 10.45 6.36 16.83-.25 28-8.43 33.7.47-5.48 2.07-10.85.14-16.76a55.15 55.15 0 0 0-1.71 17.34c.22 5.58.77 11.15 1.2 17.06a127.58 127.58 0 0 1-17.46-34.47c-2.26 4.75-1.22 9.38-1.66 14.2-.5-.66-.8-1-1.05-1.44q-1.4-2.4-2.76-4.83a22.44 22.44 0 0 1-1.48-19.94c.26-.68.5-1.37.77-2.16-3.4-1.57-6.86-2.88-10-5.8l4.83.23zM334 232.27c1.28 3.18-.28 7.38-3.7 10-1.52-3.47.54-9.04 3.7-10zm-2.84 76.45c3-.5 10.35 4 13 8-4.83.83-11.37-3.23-13.05-8zm26.18.32a23.27 23.27 0 0 1-20.77-1.91 11.62 11.62 0 0 1-5.29-6c4.62 1.5 9 3.2 13.62 4.37s9.16 1.8 14 2.7a12.87 12.87 0 0 1-1.61.8zm30.87-32.7c2.1-2 4.44-2.48 6.54-1.43-2.07 4.64-4.8 7.15-8.15 7.08-.82-1.9-.24-4 1.56-5.65zm-8 2c.4.62.83 1.23 1.22 1.87 2.4 4 2.42 4.45-.35 8.3-5.14 7.18-12.3 11-20.9 12.4-9.24 1.46-18.2-.07-27-2.82-2.9-.9-5.73-2-8.93-3.15l1.53-5.18a41.64 41.64 0 0 1 8.8-14.85c13.32-14.4 35.76-10.97 45.56 3.4zm-5.62-13.65l-7.68-1.7a55.73 55.73 0 0 0-24.27 1.09 3.31 3.31 0 0 1-.42.12c-4.35.45-7.56 2.74-10.2 6.1-1.46 1.86-3 3.63-4.57 5.44l-.28-.14 1.77-4c.62-1.34 1.24-2.52 2.06-4.16l-4.37 1.06c10.27-12.72 35.52-15.1 47.9-3.85zm-49.38-32.3c2.6 3.2 2.55 13.8-.16 19.13-1.47-6.35-2.75-12.7.1-19.17zm-8.5 2a5.22 5.22 0 0 1 1 1.11 26.6 26.6 0 0 1 1.82 4.27 39.58 39.58 0 0 1 1.25 12.55c0 .27-.1.54-.22 1.18-3.56-5.27-5.46-14.58-3.9-19.12zm-.1 49.12a5.06 5.06 0 0 1 3.5 3.84l6.8 25.1c.17.62.28 1.25.48 2.17-4.06-1.42-7.4-4.1-11.75-3.8 1.6-1.5 3.66-1.42 5.6-2.1l-.62-2.1-5.34-16.27c-1.22-3.72-3.37-5.35-7.32-5.58h-2l-.1-.46a12.3 12.3 0 0 1 10.71-.84zm-35.9 38.1q.24-23.85.5-47.7c0-1.78.15-3.57.34-5.34a2.89 2.89 0 0 1 .83-1.69c3.4-3 11.3-3.2 14.9-.47a7.59 7.59 0 0 0 .79.44l-.23.42-1.3-.15c-3.07-.32-5.48 1.05-7.58 3.07a2.89 2.89 0 0 0-.59 1.62l-4.6 35.36c-.67 5-1.53 10-2.3 15-.1.64-.32 1.27-.48 1.9h-.3c-.06-.87-.06-1.66-.05-2.46zm-16.2-74.94c-3.83-1.63-6.35-5.43-5.9-8.9 3.1.02 6.2 4.67 5.84 8.88zm-20 68.8c4.4-1.6 8.9-3 13.22-4.85s8.3-4.2 12.72-6.44C267.63 314.48 252 319 244.5 315.5zm15.73 6.28c1-3.43 7.33-9.2 11.5-10.42-.76 5.04-6.38 10-11.53 10.4zm15.66-85.6c3.2 6.32 2 12.74.5 19.16-1.95-6.34-3.16-12.7-.53-19.17zm-9 0c.95.28 1.26 1.15 1.68 1.85 1.7 2.8 2.18 6 2.65 9.1a27.93 27.93 0 0 1 .34 7.57c-3.4-3.52-6.08-14.3-4.66-18.58zm3 35.18l-4.45-.46 4.9 7.3-.3.24-1.6-1.37c-2.5-2-4.92-4.08-7.5-5.95a7.87 7.87 0 0 0-3.47-1.3c-12-1.56-23.57-.44-34.57 4.87-.25.12-.53.2-.94.34 10.46-13.2 35.9-14.65 47.93-3.72zm-53.17 22.35c4.1-11.9 12.47-18.8 24.76-20.72a27 27 0 0 1 20.29 4.95 41.12 41.12 0 0 1 14 17.84c.14.33.25.67.4 1.06a7.84 7.84 0 0 1-.74.6c-8 4.8-16.4 8.68-25.68 10.38-6.93 1.28-13.76 1.1-20.4-1.52a28.45 28.45 0 0 1-11.92-8.72 3.66 3.66 0 0 1-.71-3.92zm-6.9-5.2a5.62 5.62 0 0 1 3.15 5.41c-3.5.7-5.82-.66-9.6-5.7 2.34-1.4 4.43-.92 6.43.23zm-6.77 9a8.6 8.6 0 0 1 10.09.84c-2.7 1.93-6.78 1.65-10.1-.87zm203.8 131.2c-9.55 12.55-18.18 25.73-26.8 38.92a10.63 10.63 0 0 0-.86 1.8c-7 17.15-15 33.83-23.45 50.28-.36.7-.78 1.4-1.17 2.1 4.15-14.48 9.5-28.52 14.92-42.7a3.56 3.56 0 0 0-.62.15 36.68 36.68 0 0 0-1.1.77 53.34 53.34 0 0 1-22.21 9.86c-5 .92-10 1.36-15 2.12q-26 3.9-51.7 9.6a56.5 56.5 0 0 1-21.48.83 57.23 57.23 0 0 1-32.69-17.29c-6.62-6.84-13.5-13.4-20.3-20.1-.45-.45-1-.84-1.45-1.25 1.88 4.3 4 8.43 6.1 12.58l6.23 12.58 6.1 12.64 6 12.7a120 120 0 0 1 5.38 12.63 9.55 9.55 0 0 1-1.62-2.12l-20.94-35.54c-6.88-11.9-13.52-23.77-19.3-36.18a7.18 7.18 0 0 0-1.8-2.21l-17.92-16.1c-8.44-7.76-11.63-17.36-9.63-28.64l2.9-15.32c.12-.62.12-1.27.18-1.93l-8.6-1.26c-.8 1.8-.2 2.9 1.26 3.82a12.35 12.35 0 0 1 4 4.06h-6.4c-4.68 35.38-9.82 70.38-18 104.9l24.6-26.5.4.35c-13.23 19.9-26.7 39.63-40.88 58.86a3.13 3.13 0 0 0 .48.58l5.54 4.15c17.93 12.84 37.7 21.93 58.65 28.56 28.83 9.1 58.46 13.37 88.62 14.2a381 381 0 0 0 59-2.94 339.53 339.53 0 0 0 49.55-9.91c16.48-4.67 32.44-10.67 47.4-19.12l2.42-1.4c-12.36-39.17-19.55-79.3-24.2-120.35-.8.86-1.25 1.33-1.64 1.84zM144.24 264.35c10.62-5.34 21.6-9.86 32.7-14.16a461 461 0 0 1 72.45-21.75c24.55-5.14 49.4-8.1 74.38-10 16.16-1.26 32.35-2 48.56-2h16.73l19.62.45a13.2 13.2 0 0 0 13.23-15.44c-1.17-7.42-2-14.87-2.52-22.36a23 23 0 0 0-20.47-21.07 159.92 159.92 0 0 0-29.84.2 245.87 245.87 0 0 0-37.52 6.45c-11.88 3-23.78 5.86-35.82 8.16-15.7 3-31.42 5.72-47.27 7.72-10.7 1.35-21.42 2.46-32.2 2.82-8.26.27-16.47.84-24.67 1.86a266.5 266.5 0 0 0-41 8.07c-10.35 3-16.5 10-18.48 20.46a114.41 114.41 0 0 0-1.55 13.05 118.21 118.21 0 0 0 1.64 31.53c1.2 6.3 7.18 8.45 12.03 6zm264.13-98.23c7.66 9.88 9.48 33.06 2.72 44.9a25.53 25.53 0 0 1-1.49-6.93c-1.05-6.92-1-13.92-1.16-20.9-.15-5.05-.12-10.1-.17-15.15 0-.5.05-.98.1-1.92zm-13.95-4c0-.64.12-1.3.24-2.45 7.74 12.66 7.83 39.26.18 53.8a24.9 24.9 0 0 1-.36-2.63l-.6-35.4c-.03-4.46.34-8.9.55-13.34zm-13.67-2.3c7.14 13 6.33 40.78.2 53.24-2.5-6.77-2.87-41.7-.2-53.24zm-18.34 3.1c.86 1.28 1.8 2.52 2.56 3.85a41 41 0 0 1 5.18 17.12 59.6 59.6 0 0 1-3.4 27.37c-.3.8-.7 1.6-1.13 2.57-.62-1.56-3.86-48.55-3.2-50.9zm-17.08 4.6c.13-1.32.34-2.64.56-4.37 6.73 11.47 9.46 40.6 5.06 52-.28-.74-.53-1.3-.7-1.86a137.27 137.27 0 0 1-4.95-27.79 96.85 96.85 0 0 1 .03-17.98zm-14.24 5.88c.16-1.9.5-3.76.78-6 7.55 10.9 7.26 40.66 1.6 47.58 0-.52-.07-.85-.1-1.17l-1.65-20.87c-.58-6.5-1.15-12.95-.63-19.54zm-13.37 6.44c.1-2.08.3-4.15.5-6.23a16.1 16.1 0 0 1 .44-2c5.13 10.1 5.33 36.06.42 43.12-.1-.1-.25-.2-.25-.33-.24-11.54-1.56-23.03-1.1-34.56zm-12.5-5.37c3.48 6.57 4.5 29.63.17 38.34-4.16-7.57-3.7-30.55-.17-38.34zm-17 6.52c4.1 6.62 8.13 26.3 6 33.84-.5-.94-.87-1.6-1.17-2.27a58.09 58.09 0 0 1-4.38-16.71c-.43-3.53-.58-7.1-.77-10.64a39.73 39.73 0 0 1 .32-4.22zm-16.56 1.66c0-.37.06-.73.1-1.1l.57-.1c4.88 12.2 7.48 24.82 6.08 38.26a17.19 17.19 0 0 1-.89-1.55 67.66 67.66 0 0 1-4.67-16.45 82.87 82.87 0 0 1-1.19-19.07zM257.42 185a17.41 17.41 0 0 1 .9 1.64 52.56 52.56 0 0 1 3.54 13.77 80.37 80.37 0 0 1 .5 16.91c-.12 1.53-.37 3-.55 4.56h-.7c-4.28-11.88-6.34-24.1-3.7-36.88zm-17.7 0c5.14 8.74 9.8 32.17 6 41.58-6.5-8.4-8.47-32.65-6-41.58zm-15.18 4.1c4.4 6.7 8 32.57 6 40.78-4.22-6.62-8.28-32.16-6-40.78zm-17 3.85c.05-1.24.23-2.5.35-3.73 4.24 8.52 7.83 33.45 5.7 46.27a16.37 16.37 0 0 1-.8-1.68 97.32 97.32 0 0 1-4.27-19.3 121.4 121.4 0 0 1-.99-21.51zm-13.4-5.4c.38.92.68 1.55.9 2.2a83.52 83.52 0 0 1 3.85 17.8 208.83 208.83 0 0 1 1.46 29.79c0 .57-.06 1.14-.1 1.7-4.82-10.4-9.4-40.46-6.14-51.5zm-14.8 7.68c.22-.7.5-1.4.78-2.08a4.68 4.68 0 0 1 .62-.76c.33 1.58.65 2.93.88 4.3 1.36 8 1.63 16.1 2.17 24.18l1.38 19.85c-.73-.18-1.13-1-1.6-1.63a31.8 31.8 0 0 1-5.2-11.74 59.29 59.29 0 0 1 .95-32.11zm-17.48 12.3c.48-4 1.28-7.92 2-11.87a21.56 21.56 0 0 1 .66-2.31l.47.06c.18 2 .42 3.94.52 5.92l.94 19.6 1.42 21.13c.3 3.28 1.23 6.5 1.87 9.78a10.81 10.81 0 0 1-3.28-3.92 35.82 35.82 0 0 1-4-11.53 88.06 88.06 0 0 1-.62-26.87zM150 204.6c.6-1.55 1.42-3 2.13-4.52l.43.1c.06.7.16 1.4.16 2.1v14c0 7.88.06 15.76 1.7 23.5.73 3.47 1.84 6.87 2.8 10.3.18.63.43 1.23.65 1.85l-.52.34c-1.3-1.68-2.73-3.3-3.9-5.06a39.42 39.42 0 0 1-5.95-15.93 50.05 50.05 0 0 1 2.52-26.68zm-10.93 1.66c.14-.4.32-.8.6-1.47a3.91 3.91 0 0 1 .48 2.49v24.28c0 5.72.18 11.43.33 17.15a40.51 40.51 0 0 0 1.69 10.11 8.83 8.83 0 0 1-3.32-3.8 32.78 32.78 0 0 1-3.59-11.64 82.66 82.66 0 0 1 3.81-37.12zm17.73-18.8c8-1.52 15.86-3.33 23.86-4.5a250.66 250.66 0 0 1 26.58-2.85c16.07-.6 32.05-1.9 48-4.06a531.74 531.74 0 0 0 44.75-7.92c11.74-2.6 23.38-5.64 35.1-8.38 20.27-4.73 40.75-7.62 61.64-6.55h1.86c-.16-.7-.24-1.22-.4-1.7a241.7 241.7 0 0 0-11.24-29.32 156.3 156.3 0 0 0-23.3-36.81A33.22 33.22 0 0 0 350 75.63a35 35 0 0 0-26.52.59 186.72 186.72 0 0 1-36 10.75c-.6.12-1.22.14-1.83.2l-.07-.33 16-6.34-.1-.4-7.2.37c-7.12.4-14.28.47-21.36 1.3-15.9 1.88-28.8 9.38-38.6 22-3.5 4.52-6.72 9.26-10.06 13.9a19.89 19.89 0 0 0-1 1.76c20-.68 39.5-2.87 58.4-9a7.41 7.41 0 0 1-2.18 1.19c-4.84 1.66-9.63 3.5-14.55 4.9-16.26 4.6-32.93 6.4-49.75 7.17a51.19 51.19 0 0 0-7.32.66 36.16 36.16 0 0 0-26.26 19.45c-7.56 14.26-15.9 28.06-24.67 41.6-.4.6-.75 1.23-1.2 2a7.46 7.46 0 0 0 1.07.03zm92.88-91.14a36.42 36.42 0 0 1-2.31 5.74c-2.4 4.28-5.73 7.88-9.34 11.6-2.13-6.4 4.43-17.27 11.9-19.68a10.46 10.46 0 0 1-.24 2.34zm8.13-.5a38.79 38.79 0 0 1-5 14.87 6.42 6.42 0 0 1-.73.85c-1.62-5.83 1.23-17.7 5.24-21.62a11.74 11.74 0 0 1 .49 5.9zm7.38 13.38c-3.26-4.45-2.9-15.12.76-19.9 3.27 4.6 2.83 14.7-.76 19.9zm9.43-2.92c-3.2-6.44-2.57-16 1.23-19.94 3.4 3.74 2.8 14.56-1.23 19.94zm107 41.08c-.26-1.3-.44-2.43-.73-3.54l-5-19.4-3.52-14a19.78 19.78 0 0 1-.28-2.23c11.1 6.05 16.92 30.13 9.55 39.17zm-30.07-64.07c.77.88 1.57 1.73 2.3 2.65a78.46 78.46 0 0 1 13.8 28.71 76.11 76.11 0 0 1 2.66 24 43.24 43.24 0 0 1-2 11.23 4.91 4.91 0 0 1-.53-1.13c-1.8-13.3-5.33-26.16-9.2-39-2.5-8.23-4.76-16.54-7.12-24.82a15.23 15.23 0 0 1-.28-1.5zm-17 1.33a47.73 47.73 0 0 1 12.83 18c4.88 11.52 7.36 23.5 6.42 36.08a45.38 45.38 0 0 1-2.19 11.12c-.13.4-.34.78-.6 1.4l-3.66-18.24a188.43 188.43 0 0 0-8.05-25.24 143.13 143.13 0 0 1-7.11-23.19c-.1-.48-.1-1-.2-1.87 1.08.8 1.87 1.33 2.6 1.94zm-15.2 3.2c.8 1 1.67 2 2.42 3a73.08 73.08 0 0 1 10.27 21.39c3 9.82 4.62 19.83 3.9 30.1a99.9 99.9 0 0 1-1.75 10.52 14.28 14.28 0 0 1-.81 2.07l-1.22-8a323 323 0 0 0-7.53-32.07A209.67 209.67 0 0 1 319.26 91c-.15-1-.22-2-.33-3zm-11.85 14.8c.18-4.6.8-9.17 1.2-13.75a6.46 6.46 0 0 1 .18-.76l.4-.08c.24.73.52 1.46.74 2.2a127.14 127.14 0 0 1 4.42 23.61 239.5 239.5 0 0 1 .94 36.72c-.16 2.8-.44 5.6-.67 8.4l-.54.08c-.18-.63-.4-1.26-.55-1.9a197.18 197.18 0 0 1-4.6-26.08 184.28 184.28 0 0 1-1.51-28.46zm-13.9 10.72a82.21 82.21 0 0 1 3.08-19.77c.3-1 .68-2 1-3h.48c.22 1.36.56 2.7.66 4.08l1.35 21.8.9 40.35v3.88l-.42.07c-.28-.73-.6-1.44-.85-2.18a118.17 118.17 0 0 1-5.47-25.43 133.86 133.86 0 0 1-.71-19.8zm-6.5-23.8c2.94 4.57 2.35 12.33-1.15 16.08-2.88-4.03-2.37-11.93 1.15-16.08zm-5.1 29a17.54 17.54 0 0 1 .9-5.29c5.2 8.8 8.6 43.15 4.88 48.83-1.1-.08-1.14-1.08-1.33-1.78-1.1-4.08-2.35-8.13-3.1-12.27a111.68 111.68 0 0 1-1.39-29.53zm-16 17.23a37.3 37.3 0 0 1 1.75-10.94c.27-.84.62-1.66 1.1-2.94a25.58 25.58 0 0 1 3.3 9.1 72.06 72.06 0 0 1 1 9.49 104.84 104.84 0 0 1-1.82 25.68c-.13.62-.34 1.23-.52 1.84h-.5c-.77-3.38-1.67-6.74-2.3-10.14a112.47 112.47 0 0 1-2-22.09zm-14.34-10.3c4.25 6 8.17 31 5.48 42.4a92.86 92.86 0 0 1-5.52-42.39zm-14.25 5.23c.1-.92.3-1.84.5-3.17a15.41 15.41 0 0 1 1.14 1.57c5.48 10.48 7.08 21.48 4.16 33a12.45 12.45 0 0 1-3.2 6.11 3 3 0 0 1-.31-.67q-.8-7.75-1.6-15.5c-.78-7.1-1.52-14.18-.72-21.33zm-16.52-.76c7.45 11.47 6.92 35-.07 43.74-.1-14.85-1.82-29.28.03-43.74zm-10.34 3.75a9.54 9.54 0 0 1 1.87 4.85 26.63 26.63 0 0 1-.71 11.27 61.25 61.25 0 0 1-12.13 23.6c-.6.73-1.28 1.38-1.92 2.06l-.53-.3c2.23-14.45 7-28.14 13.38-41.47zm-39.85 45.57c2.32-4.56 4.46-9.23 7.05-13.63 4.14-7 8.58-13.9 12.9-20.82l5.54-8.93a9.83 9.83 0 0 1 .87 5.6 29.67 29.67 0 0 1-2.84 10.24 81.5 81.5 0 0 1-22.88 28.63 7.11 7.11 0 0 1-.74.47c-.06 0-.15 0-.45.07a12.88 12.88 0 0 1 .52-1.63zM460.72 296.7a38.25 38.25 0 0 0-10-10.33C444.57 282 438.2 282 432 286.2a63.17 63.17 0 0 0-12.24 11.31 5.28 5.28 0 0 0-.52.93 14.28 14.28 0 0 1 2.31 12.35c-.42 1.64.38 3.1 1 4.84.6-.94 1-1.62 1.5-2.3 4.12-6.1 9.37-10.72 16.65-12.63a19.32 19.32 0 0 1 11.65.43L445 302.5c0 .38 0 .47.06.52.14.26.28.52.44.77a12.32 12.32 0 0 1 1.74 9c-.8 4.83-3.13 8.93-6 12.75-1.2 1.57-2.53 3-3.8 4.53l-.38-.26c.3-.63.65-1.26.93-1.9 1.23-2.78 2.55-5.53 3.64-8.37a19.66 19.66 0 0 0 1.44-8.06c-.13-2.5-.72-4.83-2.77-6.62a21.67 21.67 0 0 0-5.85 4.43c-3.67 3.63-6.45 7.94-9.27 12.22a3.51 3.51 0 0 0-.5 3.12l5.25 21c.15.62.38 1.22.65 2 .8-.5 1.43-.85 2-1.27l12.38-9.12a57.36 57.36 0 0 0 16.94-20.4 19 19 0 0 0-1.17-20.15zM133.4 344c4 2.53 8.17 4.86 12.58 7.47a160.58 160.58 0 0 0 9.76-25c-5.26-4.54-10.23-9.2-17.17-11.46-.58 7.8 2.66 14.33 4.9 21.1-6.16-6.13-11.08-12.8-9.9-22.33l-6.12-.63a19.17 19.17 0 0 1 14.17-2.64 25.53 25.53 0 0 1 14.23 8.2l1.45 1.55c.25-.27.4-.37.43-.5l3.22-11.82a1.93 1.93 0 0 0-.74-2.14 72.81 72.81 0 0 0-15.64-11.38 17.77 17.77 0 0 0-21 3.25 37.55 37.55 0 0 0-8.23 12.32 17.54 17.54 0 0 0 1.37 16.87A54.52 54.52 0 0 0 133.4 344zm11.25 22.94A152.67 152.67 0 0 0 167 377l10.65-48.18-3.12-2.44c-5-3.76-6.77-8.67-5.2-14.72q6.54-25.1 13.15-50.2c.65-2.5 1.42-4.95 2.25-7.85-2 .72-3.52 1.34-5.1 1.78a2.68 2.68 0 0 0-2 2.32l-6.25 27.58-9.43 39.64A155.9 155.9 0 0 1 145.1 366a10.4 10.4 0 0 0-.45.94zM436.4 243.18a69.16 69.16 0 0 0-31.63-9.38c1.46-3.8 4.18-5.8 7.85-6.84-6.2-2.78-12.74-3.32-19.63-4.33l1.33 2.66q5.83 11.16 11.68 22.3c2.45 4.66 3.82 9.63 3.07 14.83a22.43 22.43 0 0 0 1.07 9.59l2.2 7.94c.17.6.38 1.2.7 2.2 9.2-12 21.17-15.5 35.5-12.7a46.8 46.8 0 0 0-4.07-6.23c-6.4-7.88-14.67-13.14-24.1-16.66-2.64-1-5.33-1.85-8-2.78-.45-.16-.9-.36-1.34-.53 8.5-.54 16.98-1.2 25.37-.06zM304.53 365.13a4.87 4.87 0 0 0-.64.55 31.25 31.25 0 0 1-11 8.89 83.85 83.85 0 0 1-9.74 4.35c-8 2.8-16.05 5.37-24.07 8-.57.18-1.1.44-1.94.77a42 42 0 0 0 10.17 2.82c9.6 1.6 19.25 1.32 28.88.32a235.06 235.06 0 0 0 38-7.45c.52-.14 1-.38 1.8-.68l-2-.7c-5.24-2.07-10.56-4-15.7-6.28a33.29 33.29 0 0 1-13.76-10.59zm-168.9-85.66c12.14-.38 21.77 3.7 28.9 13.65l8.5-35.15c-13.96 4.68-26.8 10.64-37.4 21.5zM418.16 317l-1.4 1.72-6 8.3a3.89 3.89 0 0 0-.76 3.47l6.93 33.8L427 356l-8.84-39zm3.5 60.13h-3a17.36 17.36 0 0 0 1.7-2.66 5.6 5.6 0 0 0-.06-2l-1.55.38.25 1.07c-6.95-3-13.28-7.12-20.77-8.6a71.52 71.52 0 0 1 24.5 25.87 28.3 28.3 0 0 0-1.07-14.07zm-11.22-86.86c-.14-2.65-3.75-15.3-4.72-16.57l-4.53 9.26zm7.18 114.85l2.2-3.62a75.37 75.37 0 0 0-12-11.39l9.8 15zm-252.48-18.38l.9-5.4-9.1-2.9-.3 2.82 4.34 2.64 4.16 2.83zm253.43-18.1l-2.5 1.88 1.25 1.3c2-2.1 2-2.1 1.26-3.2zm-53.87-77.2a14.59 14.59 0 0 1-24.27-2.65c-2.12-4.15-2-8.4-.33-12.86-4 2.27-9.42 10.7-10.52 16.2a1.4 1.4 0 0 0 .34.26c9.22 3.43 18.63 5.62 28.55 4.42a28 28 0 0 0 13.75-5.35 22.49 22.49 0 0 0 6.47-7.33 25.36 25.36 0 0 0-15.35-13.09c5.8 7.82 6.2 14.57 1.36 20.4zM247 303.7c-6.1 0-11.1-2.1-14.2-7.54s-2.4-10.9 1-16.25c-6.45 2.27-11.8 10.1-12.8 15 5 7.04 16.14 10.85 26 8.8zm10.86-23.17c5.4 10 .65 19.88-9.18 23 7.92-1.24 15.1-4.42 22.18-8.4-3.2-6.13-7.2-11.13-13-14.6z"/></g></svg>